<?xml version="1.0" standalone="no"?>
<!DOCTYPE svg PUBLIC "-//W3C//DTD SVG 1.1//EN" "http://www.w3.org/Graphics/SVG/1.1/DTD/svg11.dtd" >
<svg xmlns="http://www.w3.org/2000/svg">
<metadata></metadata>
<defs>
<font id="linux_libertine_osemibold" horiz-adv-x="1554" >
<font-face units-per-em="2048" ascent="1638" descent="-410" />
<missing-glyph horiz-adv-x="512" />
<glyph unicode="&#x2e;&#x2e;&#x2e;" horiz-adv-x="1533" d="M135 92q0 47 34 81t81 34t81 -34t34 -81q0 -46 -34 -79t-81 -33t-81 33t-34 79zM676 92q0 47 34 81t81 34t80.5 -34t33.5 -81q0 -46 -33.5 -79t-80.5 -33t-81 33t-34 79zM1219 92q0 47 33.5 81t80.5 34t81 -34t34 -81q0 -46 -34 -79t-81 -33t-80.5 33t-33.5 79z" />
<glyph unicode="&#x21;&#x21;" horiz-adv-x="841" d="M627 1352q61 0 104 -40t43 -114q0 -53 -29 -217q-58 -351 -61 -506q-2 -86 -57 -86q-37 0 -48.5 26t-13.5 85q-2 75 -20 228t-37 259q-2 9 -8 40t-8.5 44t-6 37.5t-5 45.5t-1.5 44q0 78 45.5 116t102.5 38zM510 96q0 47 34 81t81 34t80.5 -34t33.5 -81q0 -46 -33.5 -79 t-80.5 -33t-81 33t-34 79zM250 1348q61 0 104 -40t43 -114q0 -58 -28 -217q-59 -358 -62 -506q-2 -86 -57 -86q-37 0 -48.5 26t-13.5 85q-2 75 -20 228t-37 259q-2 9 -8 40t-8.5 44t-6 37.5t-5 45.5t-1.5 44q0 78 45.5 116t102.5 38zM133 92q0 47 34 81t81 34t80.5 -34 t33.5 -81q0 -46 -33.5 -79t-80.5 -33t-81 33t-34 79z" />
<glyph unicode="&#x3f;&#x3f;" horiz-adv-x="1691" d="M1071 1169q0 -20 9.5 -50.5t9.5 -59.5q0 -38 -31 -61t-78 -23q-42 0 -79.5 32.5t-37.5 86.5q0 51 26 90.5t83 85.5q96 80 280 80q174 0 276.5 -86t102.5 -228q0 -44 -15.5 -85.5t-35 -71t-56.5 -65t-59 -52.5t-65 -49q-27 -19 -44.5 -35.5t-38.5 -45.5t-31.5 -70 t-10.5 -93v-47q0 -37 -14 -53.5t-58 -16.5t-56.5 16t-12.5 54v51q0 42 3.5 71t16 75t45.5 93.5t84 94.5q113 99 113 244q0 97 -41.5 161t-122.5 64q-67 0 -114.5 -32t-47.5 -75zM1090 92q0 47 33.5 81t80.5 34t81 -34t34 -81q0 -46 -34 -79t-81 -33t-80.5 33t-33.5 79z M260 1169q0 -20 9.5 -50.5t9.5 -59.5q0 -38 -31 -61t-78 -23q-42 0 -79.5 32.5t-37.5 86.5q0 51 26 90.5t83 85.5q96 80 280 80q174 0 276.5 -86t102.5 -228q0 -44 -15.5 -85.5t-35 -71t-56.5 -65t-59 -52.5t-65 -49q-27 -19 -44.5 -35.5t-38.5 -45.5t-31.5 -70t-10.5 -93 v-47q0 -37 -14 -53.5t-58 -16.5t-56.5 16t-12.5 54v51q0 42 3.5 71t16 75t45.5 93.5t84 94.5q113 99 113 244q0 97 -41.5 161t-122.5 64q-67 0 -114.5 -32t-47.5 -75zM279 92q0 47 33.5 81t80.5 34t81 -34t34 -81q0 -46 -34 -79t-81 -33t-80.5 33t-33.5 79z" />
<glyph unicode="&#x3f;&#x21;" horiz-adv-x="1259" d="M1044 1352q62 0 105 -40t43 -114q0 -53 -29 -217q-58 -351 -61 -506q-2 -86 -58 -86q-37 0 -48 25.5t-13 85.5q-2 75 -20 228t-37 259q-2 9 -8 40t-8.5 44t-6 37.5t-5 45.5t-1.5 44q0 78 45 116t102 38zM928 96q0 47 33.5 81t80.5 34t81 -34t34 -81q0 -46 -34 -79 t-81 -33t-80.5 33t-33.5 79zM260 1169q0 -20 9.5 -50.5t9.5 -59.5q0 -38 -31 -61t-78 -23q-42 0 -79.5 32.5t-37.5 86.5q0 51 26 90.5t83 85.5q96 80 280 80q174 0 276.5 -86t102.5 -228q0 -44 -15.5 -85.5t-35 -71t-56.5 -65t-59 -52.5t-65 -49q-27 -19 -44.5 -35.5 t-38.5 -45.5t-31.5 -70t-10.5 -93v-47q0 -37 -14 -53.5t-58 -16.5t-56.5 16t-12.5 54v51q0 42 3.5 71t16 75t45.5 93.5t84 94.5q113 99 113 244q0 97 -41.5 161t-122.5 64q-67 0 -114.5 -32t-47.5 -75zM279 92q0 47 33.5 81t80.5 34t81 -34t34 -81q0 -46 -34 -79t-81 -33 t-80.5 33t-33.5 79z" />
<glyph unicode="&#x21;&#x3f;" horiz-adv-x="1286" d="M250 1348q61 0 104 -40t43 -114q0 -58 -28 -217q-59 -358 -62 -506q-2 -86 -57 -86q-37 0 -48.5 26t-13.5 85q-2 75 -20 228t-37 259q-2 9 -8 40t-8.5 44t-6 37.5t-5 45.5t-1.5 44q0 78 45.5 116t102.5 38zM133 92q0 47 34 81t81 34t80.5 -34t33.5 -81q0 -46 -33.5 -79 t-80.5 -33t-81 33t-34 79zM674 1165q0 -20 9 -50.5t9 -59.5q0 -38 -30.5 -61t-77.5 -23q-42 0 -79.5 32.5t-37.5 86.5q0 51 26 90.5t82 85.5q96 80 281 80q174 0 276.5 -86t102.5 -228q0 -44 -15.5 -85.5t-35 -71t-56.5 -65t-59 -52.5t-65 -49q-27 -19 -44.5 -35.5 t-38.5 -45.5t-31.5 -70t-10.5 -93v-47q0 -37 -14 -53.5t-58 -16.5t-57 16t-13 54v51q0 41 3.5 71t16.5 75.5t46 93t84 94.5q112 98 112 244q0 97 -41 161t-122 64q-67 0 -114.5 -32t-47.5 -75zM692 88q0 47 34 81t81 34t81 -34t34 -81q0 -46 -34 -79.5t-81 -33.5t-81 33.5 t-34 79.5z" />
<glyph unicode="&#xb0;C" horiz-adv-x="1636" d="M1110 -33q-138 0 -260.5 51t-205.5 134.5t-131 190.5t-48 218q0 144 51 264t137 198.5t197.5 121.5t234.5 43q97 0 173.5 -12t113.5 -26.5t70 -26.5t51 -13q8 -159 43 -307l-78 -8q-41 154 -125 233.5t-241 79.5q-54 0 -102 -11.5t-100 -46t-89.5 -90t-61.5 -150.5 t-24 -220q0 -144 43 -261.5t134.5 -191.5t217.5 -74q129 0 216.5 49t189.5 177l47 -41q-97 -142 -203.5 -211.5t-249.5 -69.5zM424 1141q0 54 -34 97.5t-95 43.5q-60 0 -94.5 -42t-34.5 -99q0 -55 34.5 -95t94.5 -40q59 0 94 40.5t35 94.5zM90 1143q0 86 60 145.5t145 59.5 t144 -59.5t59 -145.5q0 -85 -59 -144t-144 -59t-145 59t-60 144z" />
<glyph unicode="&#xb0;F" horiz-adv-x="1642" d="M1012 1022v-391h217q50 0 71 22t31 70l15 59q0 19 14 19h63q7 0 7 -10q-17 -133 -17 -195q0 -67 17 -207l-5 -6h-65q-7 0 -12 4.5t-5 9.5l-12 64q-8 47 -30.5 68.5t-71.5 21.5h-217v-395q0 -48 25.5 -69t84.5 -21h56q6 0 11 -5t5 -12v-47l-4 -4l-293 4l-301 -4l-4 4v47 q0 17 16 17h54q61 0 86.5 22.5t25.5 67.5v866q0 48 -21.5 69t-84.5 21h-62q-14 0 -14 14v52l6 4l293 -4l188 2l471 2q12 -135 43 -320l-77 -8q-17 52 -27.5 79.5t-30 62.5t-41.5 52t-56.5 29.5t-80.5 12.5h-195q-37 0 -55 -16t-18 -52zM424 1141q0 54 -34 97.5t-95 43.5 q-60 0 -94.5 -42t-34.5 -99q0 -55 34.5 -95t94.5 -40q59 0 94 40.5t35 94.5zM90 1143q0 86 60 145.5t145 59.5t144 -59.5t59 -145.5q0 -85 -59 -144t-144 -59t-145 59t-60 144z" />
<glyph unicode="fj" horiz-adv-x="1187" d="M784 82v575q0 91 -10 117.5t-49 26.5h-303v-643q0 -25 6 -42t15.5 -26.5t29 -14.5t37 -6t49.5 -1q19 0 19 -19v-47l-5 -4q-223 4 -303 4l-213 -4l-4 4v47q0 19 17 19h39q50 0 69 21.5t19 68.5v643h-142q-10 0 -10 10v39q0 15 11 28t36 13h105v29q0 97 19 177.5t52 134.5 t74.5 94t90 62t94 32t91.5 10q60 0 120.5 -15t97.5 -41q67 -45 105 -89.5t38 -96.5q0 -37 -35.5 -67.5t-81.5 -30.5q-52 0 -98 40.5t-64 118.5q-14 66 -35.5 89.5t-70.5 23.5q-23 0 -44 -7.5t-45.5 -31.5t-42 -62.5t-29 -107t-11.5 -158.5v-104h319q42 0 119.5 10t85.5 10 h64v-768q0 -199 -26.5 -303t-102.5 -190q-72 -80 -193 -80q-80 0 -144.5 31.5t-64.5 79.5q0 86 84 86q40 0 65 -21t31 -57q10 -43 25 -43q46 0 73 116t27 320z" />
<glyph unicode="ft" horiz-adv-x="1241" d="M973 1219v-330h178q61 0 61 -21v-41q0 -17 -29 -25.5t-63 -8.5h-147v-541q0 -84 9 -117t30 -33q32 0 59.5 14t79.5 58l47 -47q-116 -152 -274 -152q-82 0 -129 50.5t-47 158.5v609h-328v-631q0 -59 20.5 -76.5t79.5 -17.5q6 0 11.5 -5t5.5 -14v-47l-5 -4q-149 4 -229 4 l-248 -4l-4 4v47q0 19 17 19h28q99 0 99 88v637h-95q-34 0 -44.5 4.5t-10.5 15.5v29q0 16 21.5 31.5t68.5 15.5h60q0 121 41 221.5t106 162t140.5 95t150.5 33.5q76 0 144 -24t108.5 -56t64 -60.5t23.5 -41.5zM791 1126q0 43 -78 120t-119 77q-22 0 -42.5 -7t-45.5 -29.5 t-43 -59.5t-30.5 -103t-12.5 -153v-82h270q27 0 46.5 14.5t30 35t16 55t7 63t1.5 69.5z" />
<glyph unicode="ck" horiz-adv-x="1925" d="M1024 158v995q0 94 -13.5 122t-47.5 28l-66 4q-10 0 -12 10l-6 59q72 5 190.5 22.5t153.5 31.5q32 0 32 -21q-6 -82 -6 -215v-684q59 8 115 58q48 41 131 147q23 29 22.5 53.5t-14 36.5t-30.5 14l-43 4q-27 2 -27 21v45l10 4q137 -4 209 -4l236 4l6 -4v-45q0 -12 -4 -16 t-17 -5l-61 -4q-28 -1 -76 -31.5t-86 -68.5l-154 -168q-12 -15 7 -41l237 -350q25 -38 57.5 -62t57.5 -26l59 -6q17 -2 17 -13v-53l-7 -4q-143 4 -223 4l-172 -4l-4 4v53q0 37 -33 107q-34 72 -139 229q-15 23 -31 30t-43 9v-270q0 -21 6 -35t21 -23.5t29.5 -15t44.5 -14.5 l14 -4q16 -2 16 -19v-47l-4 -4q-163 4 -243 4l-244 -4l-4 4v47q0 16 16 19l25 4q51 9 74.5 28t23.5 60zM831 178q-46 -94 -129.5 -146t-191.5 -52q-214 0 -324 114t-110 318q0 216 128.5 356.5t313.5 140.5q158 0 241 -61.5t83 -151.5q0 -49 -27.5 -81.5t-75.5 -32.5 q-49 0 -80 27t-36 69q-5 59 -32.5 102t-80.5 43q-85 0 -143 -97.5t-58 -262.5q0 -162 75 -270.5t179 -108.5q58 0 110.5 30t117.5 103z" />
<glyph unicode="ch" horiz-adv-x="1961" d="M1794 158q0 -41 23.5 -59.5t76.5 -28.5l23 -4q16 -2 16 -19v-47l-4 -4q-172 4 -252 4l-233 -4l-4 4v47q0 16 16 19l14 4q37 11 55 18.5t31 25t13 44.5v446q0 119 -20.5 157t-82.5 38q-32 0 -99 -27t-132 -74v-540q0 -21 5.5 -35t21 -23.5t30 -15t43.5 -14.5l15 -4 q16 -2 16 -19v-47l-4 -4q-164 4 -244 4l-244 -4l-4 4v47q0 16 17 19l24 4q52 9 75.5 28t23.5 60v995q0 93 -14 121.5t-48 28.5l-65 4q-11 0 -13 10l-6 59q72 5 190.5 22.5t153.5 31.5q33 0 33 -21q-6 -82 -6 -215v-414q82 61 169.5 96t147.5 35q129 0 185.5 -81.5 t56.5 -247.5v-424zM831 178q-46 -94 -129.5 -146t-191.5 -52q-214 0 -324 114t-110 318q0 216 128.5 356.5t313.5 140.5q158 0 241 -61.5t83 -151.5q0 -49 -27.5 -81.5t-75.5 -32.5q-49 0 -80 27t-36 69q-5 59 -32.5 102t-80.5 43q-85 0 -143 -97.5t-58 -262.5 q0 -162 75 -270.5t179 -108.5q58 0 110.5 30t117.5 103z" />
<glyph unicode="Qu" horiz-adv-x="2619" d="M774 -25q-14 0 -28 -15t-19 -30q289 -13 567 -102q293 -92 553 -92q83 0 195 29t207 83l35 -49q-96 -90 -243.5 -144t-305.5 -54q-323 0 -533 77q-186 67 -363.5 109.5t-238.5 42.5q-20 0 -47.5 -8.5t-62.5 -37t-54 -71.5q-10 5 -40 24.5t-40 24.5q36 62 113 104.5 t127 51.5l76 65q-127 12 -236 63t-189 133.5t-125.5 200.5t-45.5 257q0 199 85 361t238 256t344 94q108 0 209.5 -30.5t186 -89.5t148 -140t99 -187.5t35.5 -226.5q0 -204 -82 -361t-236 -245t-358 -88h-8q14 -1 37 -5zM719 1264q-54 0 -106 -21t-101 -67.5t-86 -114 t-59.5 -168t-22.5 -221.5q0 -280 127 -444.5t315 -164.5q159 0 262 155.5t103 416.5q0 151 -35 273t-95 198.5t-137 117t-165 40.5zM2441 236q0 -52 27 -81.5t104 -33.5l2 -64q-88 -12 -146.5 -26.5t-83.5 -25.5t-58 -30h-70l6 97q-145 -92 -264 -92q-86 0 -144.5 23 t-88 65.5t-41 88.5t-11.5 105v459q0 49 -12.5 72.5t-46.5 25.5l-64 4l-6 4v62l10 4q162 -4 228 -4l119 4q-3 -92 -3 -168v-434q0 -61 11 -104.5t29 -65t35.5 -30.5t35.5 -9q119 0 207 76v563q0 98 -57 98l-64 4l-8 4v62l8 4q172 -4 227 -4l123 4q-4 -85 -4 -168v-489z" />
<glyph unicode="Th" horiz-adv-x="2306" d="M2114 262q0 -66 6 -102.5t26.5 -57.5t46.5 -27.5t78 -8.5q9 -9 9 -35t-9 -35q-176 4 -270 4q-57 0 -229 -4q-9 9 -9 35t9 35q47 3 69 15.5t34.5 54t12.5 126.5v342q0 55 -30 91.5t-69.5 49.5t-84.5 13q-97 0 -188 -58v-440q0 -84 12 -125t34 -53.5t70 -15.5q9 -9 9 -35 t-9 -35q-176 4 -229 4q-78 0 -250 -4q-9 9 -9 35t9 35q43 2 66 8.5t41 27t24 57.5t6 101v893q0 58 -28 72t-129 14h-230q-53 0 -73.5 -52t-20.5 -157v-778q0 -65 6.5 -100t30 -54.5t52 -24t89.5 -7.5q9 -9 9 -35t-9 -35q-204 4 -305 4q-117 0 -317 -4q-9 9 -9 35t9 35 q47 2 72.5 4t51.5 9t37 18t21.5 32.5t13 50t2.5 72.5v784q0 101 -21 152t-75 51h-100q-106 0 -168.5 -49t-92.5 -168q-54 0 -79 10q40 169 51 299q0 6 8 6q208 -16 477 -16h268h293q65 1 134.5 21t142 51.5t88.5 36.5q15 0 24.5 -7t8.5 -20q-6 -76 -6 -209v-412 q95 54 188.5 90.5t146.5 36.5q133 0 198 -79.5t65 -247.5v-320z" />
<glyph unicode="&#xfb00;" horiz-adv-x="1222" d="M737 793v-637q0 -53 -26 -70.5t-80 -17.5q-17 0 -17 -19v-47l4 -4q154 4 228 4l266 -4l4 4v47q0 19 -16 19h-27q-50 0 -80 25.5t-30 68.5v631h147q35 0 62.5 8.5t27.5 25.5v41q0 21 -59 21h-178v104q0 88 6 153t15.5 102t23 59t26 29t27.5 7q59 0 108 -88q40 -69 113 -69 q40 0 63 25.5t23 62.5q0 11 -6.5 28t-25.5 40t-47.5 42t-78 32.5t-110.5 13.5q-136 0 -236 -112q-75 83 -231 83q-75 0 -150.5 -33.5t-140.5 -95t-106 -162t-41 -221.5h-60q-47 0 -68.5 -15.5t-21.5 -31.5v-29q0 -11 10.5 -15.5t44.5 -4.5h95v-637q0 -88 -99 -88h-28 q-17 0 -17 -19v-47l4 -4q174 4 248 4l229 -4l5 4v47q0 9 -5.5 14t-11.5 5q-59 0 -79.5 17.5t-20.5 76.5v631h317zM776 1161q-39 -115 -39 -252v-20h-317v82q0 87 12.5 153t30.5 103t43 59.5t45.5 29.5t42.5 7q30 0 55.5 -24.5t52.5 -71.5q30 -53 74 -66z" />
<glyph unicode="&#xfb01;" horiz-adv-x="1187" d="M725 801h-303v-643q0 -25 6 -42t15.5 -26.5t29 -14.5t37 -6t49.5 -1q19 0 19 -19v-47l-5 -4q-223 4 -303 4l-213 -4l-4 4v47q0 19 17 19h39q50 0 69 21.5t19 68.5v643h-142q-10 0 -10 10v39q0 15 11 28t36 13h105v29q0 97 19 177.5t52 134.5t74.5 94t90 62t94 32t91.5 10 q60 0 120.5 -15t97.5 -41q67 -45 105 -89.5t38 -96.5q0 -37 -35.5 -67.5t-81.5 -30.5q-52 0 -98 40.5t-64 118.5q-14 66 -35.5 89.5t-70.5 23.5q-23 0 -44 -7.5t-45.5 -31.5t-42 -62.5t-29 -107t-11.5 -158.5v-104h319q42 0 119.5 10t85.5 10h64v-753q0 -46 19.5 -68 t68.5 -22h39q16 0 16 -19v-47l-2 -4q-172 4 -254 4l-233 -4l-5 4v47q0 19 17 19q33 0 49 2t32 10t21.5 27t5.5 51v499q0 91 -10 117.5t-49 26.5z" />
<glyph unicode="&#xfb02;" horiz-adv-x="1200" d="M195 156v637h-95q-34 0 -44.5 4.5t-10.5 15.5v29q0 16 21.5 31.5t68.5 15.5h60v20q0 122 36 223.5t94.5 165t129.5 98t145 34.5q114 0 203 -47q61 17 135 47h80v-1274q0 -88 100 -88h17q16 0 16 -19v-47l-4 -4q-166 4 -246 4l-237 -4l-5 4v47q0 19 17 19h18q99 0 99 88 v1011v21q-72 13 -103 67q-25 42 -58.5 65t-60.5 23q-16 0 -33 -6.5t-39 -29t-39 -59t-28.5 -102.5t-11.5 -153v-104h178q59 0 59 -21v-41q0 -17 -28 -25.5t-62 -8.5h-147v-631q0 -43 30 -68.5t80 -25.5h27q16 0 16 -19v-47l-4 -4q-186 4 -266 4l-248 -4l-4 4v47q0 19 17 19 h28q99 0 99 88z" />
<glyph unicode="&#xfb03;" horiz-adv-x="1728" d="M737 889h-317v82q0 87 12.5 153t30.5 103t43 59.5t45.5 29.5t42.5 7q30 0 55.5 -24.5t52.5 -71.5q30 -53 74 -66q-39 -107 -39 -243v-29zM870 1312q-72 89 -237 89q-75 0 -150.5 -33.5t-140.5 -95t-106 -162t-41 -221.5h-60q-47 0 -68.5 -15.5t-21.5 -31.5v-29 q0 -11 10.5 -15.5t44.5 -4.5h95v-637q0 -88 -99 -88h-28q-17 0 -17 -19v-47l4 -4q174 4 248 4l229 -4l5 4v47q0 9 -5.5 14t-11.5 5q-59 0 -79.5 17.5t-20.5 76.5v631h317v-637q0 -53 -26 -70.5t-80 -17.5q-17 0 -17 -19v-47l4 -4q117 2 193 2l303 -4l4 4v47q0 19 -16 19 q-41 0 -61.5 2t-41 10.5t-28.5 27t-8 50.5v643h305q38 0 47.5 -26t9.5 -118v-499q0 -61 -22.5 -75.5t-85.5 -14.5q-17 0 -17 -19v-47l4 -4q162 4 236 4l252 -4l4 4v47q0 19 -19 19h-39q-48 0 -68 22t-20 68v753h-61q-9 0 -86.5 -10t-120.5 -10h-319v104q0 90 11.5 158.5 t29 107t42 62.5t45.5 31.5t44 7.5q50 0 72 -23.5t34 -89.5q18 -78 64 -119t100 -41q45 0 80 31t35 68q0 93 -144 186q-37 26 -97 40.5t-120 14.5q-175 0 -289 -115z" />
<glyph unicode="&#xfb04;" horiz-adv-x="1734" d="M1325 1188q-71 13 -102 67q-23 42 -57 65t-62 23q-16 0 -33 -6.5t-39.5 -29t-39.5 -59t-28.5 -102.5t-11.5 -153v-104h178q62 0 62 -21v-41q0 -17 -28.5 -25.5t-63.5 -8.5h-148v-631q0 -43 31 -68.5t82 -25.5h25q18 0 18 -19v-47l-4 -4q-188 4 -268 4l-228 -4l-4 4v47 q0 19 17 19q54 0 80 17.5t26 70.5v637h-317v-631q0 -59 20.5 -76.5t79.5 -17.5q16 0 16 -19v-47l-4 -4q-149 4 -229 4l-248 -4l-4 4v47q0 19 16 19h29q98 0 98 88v637h-94q-34 0 -44.5 4.5t-10.5 15.5v29q0 16 22 31.5t70 15.5h57q0 121 41 221.5t106.5 162t141 95 t150.5 33.5q172 0 242 -96q56 60 126.5 92.5t141.5 32.5q114 0 203 -47q60 17 134 47h80v-1274q0 -88 101 -88h16q16 0 16 -19v-47l-4 -4q-163 4 -243 4l-240 -4l-2 4v47q0 19 14 19h21q96 0 96 88v1011v21zM773 1159q-46 11 -81 68q-27 47 -52.5 71.5t-55.5 24.5 q-22 0 -42.5 -7t-45.5 -29.5t-43 -59.5t-30.5 -103t-12.5 -153v-82h317v20q0 139 46 250z" />
<glyph horiz-adv-x="0" />
<glyph horiz-adv-x="682" />
<glyph unicode=" "  horiz-adv-x="512" />
<glyph unicode="&#x09;" horiz-adv-x="512" />
<glyph unicode="&#xa0;" horiz-adv-x="512" />
<glyph unicode="!" horiz-adv-x="499" d="M250 1348q61 0 104 -40t43 -114q0 -58 -28 -217q-59 -358 -62 -506q-2 -86 -57 -86q-37 0 -48.5 26t-13.5 85q-2 75 -20 228t-37 259q-2 9 -8 40t-8.5 44t-6 37.5t-5 45.5t-1.5 44q0 78 45.5 116t102.5 38zM133 92q0 47 34 81t81 34t80.5 -34t33.5 -81q0 -46 -33.5 -79 t-80.5 -33t-81 33t-34 79z" />
<glyph unicode="&#x22;" horiz-adv-x="749" d="M225 862l-30 8q-66 328 -66 340q0 40 36 75.5t97 35.5q31 0 50.5 -6t28 -18.5t11 -23.5t2.5 -28q0 -14 -19 -106.5t-37 -178.5l-19 -86zM494 862l-31 8q-66 328 -66 340q0 40 36 75.5t97 35.5q58 0 75.5 -20.5t17.5 -55.5q0 -14 -19 -106.5t-38 -178.5l-19 -86z" />
<glyph unicode="#" horiz-adv-x="948" d="M524 485l33 205h-143q-6 -36 -17.5 -102.5t-17.5 -102.5h145zM696 690l-32 -205h198l-16 -114h-199q-22 -139 -55 -344h-139l55 344h-146q-9 -52 -27.5 -168t-29.5 -176h-143l53 344h-180l16 114h182q27 163 33 205h-182l18 117h183q9 55 27.5 170.5t27.5 171.5h145 l-57 -342h147q9 56 27 171.5t27 170.5h139l-53 -342h196l-16 -117h-199z" />
<glyph unicode="$" horiz-adv-x="897" d="M186 20q-15 0 -30.5 -11t-38.5 -11q0 64 -33 301l90 6q59 -229 223 -251v476q-46 17 -83.5 34.5t-82 48.5t-74.5 67.5t-50.5 90.5t-20.5 118q0 62 29 114.5t76 86t99.5 53.5t106.5 26v115h82v-114q38 -2 93 -7.5t78 -7.5t61 0q4 -62 41 -293l-88 -8l-13 37 q-31 107 -65.5 153t-106.5 54v-416q41 -13 83.5 -33t90.5 -53t84.5 -72t61 -92.5t24.5 -112.5q0 -64 -17 -119.5t-55 -105t-107.5 -80.5t-164.5 -37v-143h-82v143q-62 4 -129.5 23.5t-81.5 19.5zM479 55q66 12 111 59.5t45 145.5q0 153 -156 236v-441zM397 1096 q-67 -11 -103 -61.5t-36 -137.5q0 -51 41 -100.5t98 -82.5v382z" />
<glyph unicode="%" horiz-adv-x="1304" d="M907 158q0 -59 20 -94t50 -35q50 0 91.5 50.5t62 117t20.5 125.5q0 116 -80 116q-42 0 -81 -45.5t-61 -110.5t-22 -124zM768 186q0 84 31.5 157t97 121t152.5 48q188 0 188 -186q0 -155 -76 -260t-196 -105q-93 0 -145 61.5t-52 163.5zM745 1063q213 0 308 102l96 -43 l-842 -1155l-110 25l749 1026q-114 -47 -221 -47q-34 0 -78 12.5t-74 30.5q7 -28 7 -43q0 -88 -33 -170t-100 -137.5t-152 -55.5q-93 0 -139.5 58.5t-46.5 164.5q0 134 78.5 230t201.5 96q43 0 82.5 -12t54.5 -31q111 -51 219 -51zM250 803q0 -58 19 -92.5t48 -34.5 q45 0 86.5 48.5t65 116.5t23.5 128q0 67 -22.5 90.5t-57.5 23.5q-47 0 -85.5 -46t-57.5 -109t-19 -125z" />
<glyph unicode="&#x26;" horiz-adv-x="1492" d="M553 1071q0 -34 23 -94.5t61 -116.5q45 36 66.5 54.5t52.5 49.5t44 58.5t13 56.5q0 84 -31.5 130t-91.5 46q-56 0 -96.5 -47t-40.5 -137zM811 250q-214 285 -293 409q-112 -71 -154 -141.5t-42 -169.5q0 -129 60 -207t142 -78q83 0 149 43t138 144zM1135 727 q37 88 -82 96q-7 1 -12 5.5t-5 9.5v49l8 6q129 -4 211 -4l170 4l5 -4v-47q0 -7 -7 -12.5t-16 -6.5q-44 -3 -78 -31.5t-76 -93.5q-169 -254 -247 -379q8 -13 24.5 -40.5t26.5 -43t25.5 -39t27 -37.5t26 -28t28 -20.5t26.5 -6.5q46 0 77 24t68 95l66 -47q-35 -63 -68 -103.5 t-66.5 -60t-62 -26t-67.5 -6.5q-74 0 -127.5 36.5t-126.5 143.5q-51 -57 -98.5 -93.5t-119.5 -61.5t-159 -25q-94 0 -170 18.5t-134 57t-90 102.5t-32 149q0 117 83.5 212.5t311.5 225.5q-65 100 -96 176.5t-31 145.5q0 47 24.5 94.5t69 87.5t115 65t154.5 25 q142 0 217.5 -61t75.5 -178q0 -77 -84.5 -169t-219.5 -169q70 -120 216 -324q6 -11 16 -13t16 5q60 80 114 166t73 131z" />
<glyph unicode="'" horiz-adv-x="440" d="M201 862l-31 8q-66 328 -66 340q0 40 36.5 75.5t97.5 35.5q31 0 50.5 -6t28 -18.5t11 -23.5t2.5 -28q0 -14 -19 -106.5t-38 -178.5l-19 -86z" />
<glyph unicode="(" horiz-adv-x="645" d="M74 518q0 268 133.5 521t345.5 436l57 -70q-301 -355 -301 -887q0 -153 26 -293.5t59.5 -231.5t82 -175.5t75.5 -119t58 -69.5l-61 -65q-95 82 -172 174.5t-125.5 173t-84.5 168t-53 150.5t-27 129.5t-11.5 97t-1.5 61.5z" />
<glyph unicode=")" horiz-adv-x="645" d="M571 514q0 -268 -133 -520.5t-346 -435.5l-57 69q301 355 301 887q0 153 -26 293.5t-59.5 231.5t-82 175.5t-75.5 119t-58 69.5l61 65q95 -82 172 -174.5t125.5 -173t84.5 -168t53 -150.5t27 -129.5t11.5 -97t1.5 -61.5z" />
<glyph unicode="*" horiz-adv-x="886" d="M403 1159q-8 1 -27 5t-27.5 5t-29.5 0q-47 -7 -83.5 -8t-59 19.5t-22.5 64.5q0 26 16.5 46t50.5 20q30 0 58.5 -17.5t65 -46t71.5 -43.5q-4 43 -33 102.5t-29 84.5q0 31 24.5 55t53.5 24q31 0 56.5 -18.5t25.5 -52.5q0 -28 -24.5 -96.5t-26.5 -98.5q30 13 57.5 33.5 t43 37t37 28.5t44.5 12q41 0 60.5 -24t19.5 -46q0 -43 -40 -62.5t-101 -19.5q-74 0 -111 -6q25 -27 73 -52t74.5 -50.5t26.5 -71.5q0 -26 -20.5 -42.5t-44.5 -16.5q-45 0 -68.5 31.5t-42 90t-35.5 84.5q-13 -23 -22.5 -56t-15.5 -57t-16.5 -46.5t-32.5 -34.5t-56 -12 q-26 0 -43 16.5t-17 40.5q0 31 11 53t30 35.5t39.5 24.5t46 27.5t43.5 37.5z" />
<glyph unicode="+" horiz-adv-x="1099" d="M627 551h350v-152h-350v-333h-152v333h-350v152h350v336h152v-336z" />
<glyph unicode="," horiz-adv-x="499" d="M254 209q60 0 94.5 -48t34.5 -173q0 -84 -73.5 -167t-184.5 -102q-32 21 -14 64q71 19 121.5 72.5t50.5 89.5q0 49 -70 57q-43 8 -65.5 30.5t-22.5 69.5q0 45 36 76t93 31z" />
<glyph unicode="-" horiz-adv-x="733" d="M563 451h-409q-35 0 -55.5 12.5t-20.5 30.5q0 28 29.5 63t60.5 35h414q73 0 73 -43q0 -24 -30 -61t-62 -37z" />
<glyph unicode="." horiz-adv-x="499" d="M135 92q0 47 34 81t81 34t81 -34t34 -81q0 -46 -34 -79t-81 -33t-81 33t-34 79z" />
<glyph unicode="/" horiz-adv-x="647" d="M618 1397l-485 -1440h-129l485 1440h129z" />
<glyph unicode="0" horiz-adv-x="1003" d="M506 1159q-24 0 -46 -12t-48 -49.5t-44.5 -98t-31 -168.5t-12.5 -249q0 -74 8 -154.5t26.5 -165.5t55 -139.5t86.5 -54.5q12 0 26.5 6.5t35 23.5t40 56.5t33.5 95.5q47 174 47 412q0 189 -34 307.5t-81 158.5q-34 31 -61 31zM498 -20q-121 0 -217 86t-147.5 227.5 t-51.5 308.5q0 147 35.5 270.5t94.5 205t135.5 126.5t158.5 45q75 0 151.5 -41.5t128.5 -103.5q136 -189 136 -481q0 -138 -28 -251t-72 -184t-101.5 -119.5t-113 -68.5t-109.5 -20z" />
<glyph unicode="1" horiz-adv-x="1003" d="M424 166v715q0 49 -4.5 73t-11 29.5t-19.5 5.5q-21 0 -90 -23.5t-133 -56.5l-37 68q88 42 240 133.5t174 103.5q59 35 86 35q26 0 26 -35q-6 -128 -6 -237v-811q0 -14 2.5 -26t4.5 -20.5t10 -16t11.5 -12t16 -8.5t18 -6t22.5 -4t23 -2.5t27.5 -2t28.5 -2.5q9 -9 9 -35 t-9 -35q-132 4 -274 4q-190 0 -322 -4q-9 9 -9 35t9 35q104 7 136 17q71 21 71 83z" />
<glyph unicode="2" horiz-adv-x="1003" d="M104 952q0 48 25.5 99.5t71 96t119.5 73t161 28.5q58 0 110.5 -8.5t104.5 -31t89.5 -57t61 -91t23.5 -129.5q0 -45 -16 -91.5t-39 -85t-67.5 -90.5t-80.5 -89t-100 -99q-11 -11 -68.5 -64.5t-89 -86.5t-63 -81t-31.5 -83h332q59 0 87.5 35t56.5 139l88 -19 q-26 -114 -45 -317h-732q0 95 48.5 184t195.5 246l148 156q76 82 104.5 157.5t28.5 180.5q0 66 -17 116.5t-43 76.5t-51.5 38t-48.5 12q-76 0 -127 -40t-51 -80q0 -35 8 -54q6 -16 6 -43q0 -43 -30 -64.5t-68 -21.5q-41 0 -71 25.5t-30 62.5z" />
<glyph unicode="3" horiz-adv-x="1003" d="M479 1167q-27 0 -55.5 -7t-59 -22.5t-50 -47.5t-19.5 -76q0 -26 -5.5 -48.5t-28.5 -43.5t-62 -21q-24 0 -42 7.5t-26.5 17t-13.5 22.5t-5.5 19t-0.5 10q0 24 10.5 55.5t40 70.5t73 70.5t117.5 53.5t166 22q67 0 120.5 -15t86 -38.5t54 -54.5t30 -60t8.5 -57 q0 -22 -10 -54t-32.5 -73.5t-69.5 -83t-111 -68.5q51 -5 101 -29t92.5 -63t69 -100.5t26.5 -134.5q0 -105 -38.5 -189.5t-105 -139t-152.5 -83.5t-184 -29q-70 0 -141.5 17t-122.5 50.5t-51 74.5q0 28 31.5 52t75.5 24q43 0 64.5 -13.5t37.5 -40.5q18 -32 52.5 -56t80.5 -24 q19 0 43.5 8.5t55.5 31.5t56 58t42.5 95t17.5 135q0 256 -219 256q-15 0 -107 -20l-12 82q86 20 147.5 53.5t93 74t45 78.5t13.5 78q0 82 -39 129t-88 47z" />
<glyph unicode="4" horiz-adv-x="1003" d="M555 1010q-141 -193 -371 -561h371v561zM956 449q31 0 31 -33q0 -20 -19 -45t-40 -25h-162v-180q0 -33 5 -52t26.5 -29t34 -12t57.5 -5q13 -1 20 -2q9 -9 9 -35t-9 -35q-132 4 -278 4q-110 0 -242 -4q-9 9 -9 35t9 35q90 6 117 17q49 21 49 83v180h-418q-62 0 -80 92 q137 215 296.5 441t258.5 348q20 22 33 22h121l4 -4q-4 -21 -4 -198v-598h190z" />
<glyph unicode="5" horiz-adv-x="1003" d="M647 381q0 146 -58.5 235t-139.5 89q-65 0 -125 -15t-154 -55l72 608q147 -12 254 -12q140 0 319 20l39 -20l-31 -141q-169 -13 -227 -13q-176 0 -268 10q-6 -60 -17.5 -154.5t-15.5 -127.5q28 6 95.5 11t109.5 5q119 0 208 -57t132 -145.5t43 -192.5 q0 -121 -57.5 -224.5t-161.5 -166t-232 -62.5q-69 0 -147 21t-134.5 59t-56.5 80q0 35 27.5 60.5t71.5 25.5q78 0 116 -78q19 -35 53.5 -56.5t61.5 -21.5q86 0 154.5 88.5t68.5 229.5z" />
<glyph unicode="6" horiz-adv-x="1003" d="M315 573q-2 -23 -2 -81q0 -101 14 -180t36 -125.5t51 -77t56.5 -41.5t55.5 -11q63 0 106.5 73.5t43.5 225.5q0 32 -5 68t-19 78t-35 74.5t-57.5 54.5t-82.5 22q-84 0 -162 -80zM858 1186q-50 -3 -81 -7.5t-82 -19.5t-101 -47.5t-100 -83.5q-117 -120 -160 -332 q91 43 182 43q71 0 130.5 -15.5t99 -39.5t69.5 -57.5t47 -67t27.5 -70.5t14 -64t3.5 -52q0 -49 -10.5 -98.5t-38.5 -104t-71 -95.5t-115.5 -68t-163.5 -27q-57 0 -110.5 12t-113 46.5t-102.5 90t-71.5 150.5t-28.5 219q0 313 217 542q100 104 229 153t322 60z" />
<glyph unicode="7" horiz-adv-x="1003" d="M262 1217h633l8 -17q-43 -107 -118.5 -296t-109 -274t-82.5 -212t-83.5 -224.5t-67.5 -197.5l-192 -23l-10 27q22 49 219.5 474t261.5 585h-395q-29 0 -45 -4t-33.5 -18t-30 -45t-24.5 -83l-80 17q28 121 39 180t14 123h16q16 -12 80 -12z" />
<glyph unicode="8" horiz-adv-x="1003" d="M506 1178q-77 0 -111.5 -47.5t-34.5 -124.5q0 -51 31 -106.5t90 -94.5l60 -39q108 81 108 217q0 195 -143 195zM858 1001q0 -24 -7.5 -48t-17.5 -42.5t-30 -41t-33.5 -36t-40.5 -34.5t-39 -29.5t-41 -28.5t-35 -24l121 -82q78 -54 126 -136t48 -169q0 -60 -29 -121.5 t-81.5 -113.5t-134.5 -85t-177 -33q-170 0 -281.5 85.5t-111.5 236.5q0 29 6.5 55.5t15 47.5t27 45t32.5 39.5t43 40t45.5 37.5t54 41t55.5 42l-37 21q-92 60 -143.5 137t-51.5 162q0 124 96.5 203t278.5 79q164 0 253 -67.5t89 -180.5zM492 57q200 0 200 232 q0 77 -34.5 136.5t-122.5 115.5l-93 57q-139 -105 -139 -299q0 -124 55.5 -183t133.5 -59z" />
<glyph unicode="9" horiz-adv-x="1003" d="M681 655q2 23 2 82q0 101 -14 180t-36 125.5t-51 76.5t-56.5 41t-55.5 11q-62 0 -105.5 -73t-43.5 -226q0 -42 9 -88t29 -95.5t61.5 -81.5t98.5 -32q84 0 162 80zM138 43q50 3 81.5 7.5t82.5 19.5t101 47.5t100 83.5q117 121 160 331q-91 -43 -183 -43q-71 0 -130.5 15.5 t-99 39.5t-69.5 58t-47 67.5t-27.5 70.5t-14 64t-3.5 52q0 49 10.5 98.5t38.5 104t71 95.5t115.5 68t163.5 27q57 0 110.5 -12t113 -46.5t102.5 -90t71.5 -150.5t28.5 -219q0 -314 -217 -543q-100 -104 -229 -153t-322 -60z" />
<glyph unicode=":" horiz-adv-x="448" d="M152 731q0 47 33.5 81t80.5 34t81 -34t34 -81q0 -46 -34 -79.5t-81 -33.5t-80.5 33.5t-33.5 79.5zM152 193q0 47 33.5 80.5t80.5 33.5t81 -33.5t34 -80.5q0 -46 -34 -79.5t-81 -33.5t-80.5 33.5t-33.5 79.5z" />
<glyph unicode=";" horiz-adv-x="448" d="M131 731q0 47 34 81t81 34t80.5 -34t33.5 -81q0 -46 -33.5 -79.5t-80.5 -33.5t-81 33.5t-34 79.5zM256 209q60 0 94.5 -48t34.5 -173q0 -84 -73.5 -167t-184.5 -102q-32 21 -14 64q71 19 121.5 72.5t50.5 89.5q0 49 -70 57q-43 8 -65.5 30.5t-22.5 69.5q0 45 36 76t93 31 z" />
<glyph unicode="&#x3c;" horiz-adv-x="1048" d="M313 492l652 -238v-127l-879 319v91l879 319v-127z" />
<glyph unicode="=" horiz-adv-x="1128" d="M1010 406v-115h-889v115h889zM1010 662v-117h-889v117h889z" />
<glyph unicode="&#x3e;" horiz-adv-x="1048" d="M735 487l-649 238v127l879 -322v-90l-879 -317v127z" />
<glyph unicode="?" horiz-adv-x="880" d="M260 1169q0 -20 9.5 -50.5t9.5 -59.5q0 -38 -31 -61t-78 -23q-42 0 -79.5 32.5t-37.5 86.5q0 51 26 90.5t83 85.5q96 80 280 80q174 0 276.5 -86t102.5 -228q0 -44 -15.5 -85.5t-35 -71t-56.5 -65t-59 -52.5t-65 -49q-27 -19 -44.5 -35.5t-38.5 -45.5t-31.5 -70 t-10.5 -93v-47q0 -37 -14 -53.5t-58 -16.5t-56.5 16t-12.5 54v51q0 42 3.5 71t16 75t45.5 93.5t84 94.5q113 99 113 244q0 97 -41.5 161t-122.5 64q-67 0 -114.5 -32t-47.5 -75zM279 92q0 47 33.5 81t80.5 34t81 -34t34 -81q0 -46 -34 -79t-81 -33t-80.5 33t-33.5 79z" />
<glyph unicode="@" horiz-adv-x="2023" d="M1241 655q0 53 -30.5 90t-69.5 37q-92 0 -166 -80q-127 -135 -127 -366q0 -189 115 -189q53 0 117 63.5t102 184.5q59 201 59 260zM1311 154q0 -19 8.5 -24t28.5 -5q24 0 60.5 16t78.5 52t78 85t60 123t24 158q0 130 -41.5 239.5t-106.5 181t-148 122t-164.5 72.5 t-156.5 22q-96 0 -189.5 -30t-177 -91t-147 -146.5t-100.5 -204.5t-37 -257q0 -95 22.5 -191t75.5 -191.5t130 -168.5t195.5 -118.5t262.5 -45.5q242 0 430 154l43 -60q-75 -57 -136.5 -91t-158.5 -58.5t-217 -24.5q-241 0 -432 97t-299.5 275.5t-108.5 408.5q0 159 63 307 t173.5 261.5t274 182t352.5 68.5q170 0 315 -52.5t245 -144t156 -217.5t56 -270q0 -141 -71 -268t-191 -204t-254 -77q-96 0 -138.5 37.5t-42.5 79.5q-102 -95 -217 -95q-68 0 -118 20t-76.5 48t-42 67t-19.5 68t-4 60q0 108 43 207t111.5 168t156 110t175.5 41 q129 0 192 -78l76 68l55 -23l-121 -528q-26 -115 -26 -135z" />
<glyph unicode="A" horiz-adv-x="1431" d="M518 590h307l-170 463l-176 -439q0 -15 6.5 -19.5t32.5 -4.5zM303 162q-11 -30 -12 -50.5t24.5 -32t83.5 -11.5q25 0 34 -4.5t9 -16.5v-41l-10 -8q-188 4 -237 4l-175 -4l-16 6v43q0 14 9.5 17.5t31.5 3.5q35 0 74 30t63 88l457 1098q13 33 38.5 48.5t47.5 15.5 q68 0 92 -64l414 -1098q23 -61 47.5 -89.5t60.5 -28.5h58q22 0 26 -4t4 -17v-41l-10 -8q-196 4 -274 4l-295 -4l-17 10v39q0 21 54 21h55q51 0 51 53q0 23 -4 29l-127 344h-377q-32 0 -43 -4.5t-20 -24.5z" />
<glyph unicode="B" horiz-adv-x="1269" d="M453 1151v-381h114q116 0 187 57t71 174q0 58 -15 102t-38 69t-55 41t-60.5 21t-60.5 5q-49 0 -78.5 -5t-43 -17.5t-17.5 -26.5t-4 -39zM453 684v-512q0 -50 24.5 -70t110.5 -20q78 0 138.5 20t96.5 50.5t59 72t31.5 80t8.5 78.5q0 136 -85 218.5t-239 82.5h-145zM45 43 q0 25 37 25h59q36 0 49 17.5t13 66.5v1019q0 47 -13 65.5t-49 18.5h-67q-29 0 -29 21v45l4 4q207 -4 268 -4q25 0 117 2t148 2q119 0 209 -20t142 -51t84.5 -75t43 -85t10.5 -88q0 -78 -56.5 -154t-140.5 -113v-4q308 -81 308 -375q0 -56 -17 -106t-58 -97.5t-103 -81.5 t-158.5 -54.5t-218.5 -20.5h-580l-2 2v41z" />
<glyph unicode="C" horiz-adv-x="1363" d="M760 -20q-136 0 -250.5 37.5t-194.5 101.5t-136 149.5t-82.5 180.5t-26.5 196q0 148 55 279.5t148.5 224t221 146t267.5 53.5q92 0 169 -14t117.5 -31.5t83.5 -31.5t76 -14q10 -148 45 -346l-77 -16q-21 66 -42 114t-55.5 99t-76 83t-103 52.5t-137.5 20.5 q-61 0 -120.5 -21t-115 -67t-97.5 -112t-67.5 -164t-25.5 -216q0 -112 26.5 -219t77 -196.5t133 -144t185.5 -54.5q129 0 243.5 56.5t229.5 186.5l61 -49q-215 -284 -532 -284z" />
<glyph unicode="D" horiz-adv-x="1470" d="M453 154q0 -32 11.5 -45.5t48 -20t118.5 -6.5q84 0 152.5 13t133.5 47.5t109.5 89.5t71 144t26.5 206q0 97 -17.5 187.5t-58.5 177.5t-102 151.5t-155 103.5t-211 39q-65 0 -96 -13.5t-31 -58.5v-1015zM49 0l-4 4v45q0 19 16 19h29q62 0 87.5 20.5t25.5 69.5v1007 q0 49 -25.5 69.5t-87.5 20.5h-29q-6 0 -11 5t-5 12v47l4 4h606q204 0 374.5 -93t268 -251.5t97.5 -345.5q0 -145 -44.5 -258.5t-114.5 -182.5t-165.5 -113.5t-187.5 -61.5t-191 -17h-643z" />
<glyph unicode="E" horiz-adv-x="1150" d="M55 0l-6 4v45q0 9 5.5 14t11.5 5h28q62 0 87.5 20.5t25.5 69.5v1007q0 49 -25.5 69.5t-87.5 20.5h-28q-6 0 -11.5 5t-5.5 12v47l6 4h955q11 -167 43 -332l-82 -18q-11 39 -20.5 67.5t-28.5 66.5t-40.5 62.5t-55 42t-72.5 17.5h-267q-28 0 -28 -60v-421h231q18 0 30.5 9.5 t20.5 33.5t11.5 43t9.5 59q0 7 9.5 14.5t23.5 7.5h43l12 -20q-14 -115 -14 -190q0 -69 14 -191l-12 -18h-43q-14 0 -23.5 6.5t-9.5 13.5q-6 40 -9.5 59.5t-11.5 43.5t-20.5 33.5t-30.5 9.5h-231v-508q0 -60 28 -60h314q80 0 136.5 75.5t84.5 197.5l88 -21q-36 -198 -55 -346 h-1000z" />
<glyph unicode="F" horiz-adv-x="1050" d="M457 156q0 -45 25.5 -67.5t86.5 -22.5h29q16 0 16 -19v-47l-4 -4q-204 4 -278 4l-279 -4l-4 4v47q0 9 5.5 14t11.5 5h28q62 0 87.5 20.5t25.5 69.5v1009q0 49 -25.5 69.5t-87.5 20.5h-28q-6 0 -11.5 5t-5.5 12v47l6 4h953q11 -167 43 -332l-82 -18q-11 39 -20.5 67.5 t-28.5 66.5t-40.5 62.5t-55 42t-72.5 17.5h-267q-28 0 -28 -60v-421h231q18 0 30.5 9.5t20.5 33.5t11.5 43t9.5 59q0 7 9.5 14.5t23.5 7.5h43l12 -20q-14 -115 -14 -190q0 -69 14 -191l-12 -18h-43q-14 0 -23.5 6.5t-9.5 13.5q-6 40 -9.5 59.5t-11.5 43.5t-20.5 33.5 t-30.5 9.5h-231v-506z" />
<glyph unicode="G" horiz-adv-x="1488" d="M1329 469v-236q0 -37 25 -59q-114 -97 -246.5 -145.5t-316.5 -48.5q-160 0 -298 52t-232.5 140t-148 207t-53.5 252q0 164 62 301.5t164 227t231.5 139t267.5 49.5q94 0 171.5 -14t118 -31.5t83.5 -31.5t76 -14q6 -128 45 -346l-80 -16q-19 63 -40.5 113t-56 99.5 t-77 82.5t-104.5 53.5t-138 20.5q-92 0 -175.5 -44t-145.5 -121t-98.5 -189t-36.5 -240q0 -118 32.5 -224.5t93.5 -191t158 -134.5t217 -50q71 0 142 20.5t121 61.5v317q0 45 -41 66.5t-107 21.5h-29q-16 0 -16 18v48l4 4q199 -4 279 -4l266 4l4 -4v-48q0 -18 -16 -18h-13 q-58 0 -75 -20.5t-17 -67.5z" />
<glyph unicode="H" horiz-adv-x="1480" d="M1028 1165q0 49 -25.5 69.5t-87.5 20.5h-28q-6 0 -11.5 5t-5.5 12v49l4 4q199 -4 279 -4l281 4l4 -4v-49q0 -17 -17 -17h-28q-61 0 -87 -22.5t-26 -67.5v-1009q0 -45 26 -67.5t87 -22.5h28q17 0 17 -19v-47l-4 -4q-207 4 -281 4l-279 -4l-4 4v47q0 9 5 14t12 5h28 q62 0 87.5 20.5t25.5 69.5v501h-573v-501q0 -45 25.5 -67.5t86.5 -22.5h29q16 0 16 -19v-47l-4 -4q-206 4 -280 4l-279 -4l-4 4v47q0 19 16 19h29q62 0 87.5 20.5t25.5 69.5v1009q0 49 -25.5 69.5t-87.5 20.5h-29q-6 0 -11 5t-5 12v49l4 4q199 -4 279 -4l280 4l4 -4v-49 q0 -17 -16 -17h-29q-61 0 -86.5 -22.5t-25.5 -67.5v-413h573v413z" />
<glyph unicode="I" horiz-adv-x="653" d="M453 156q0 -45 25.5 -67.5t86.5 -22.5h29q16 0 16 -19v-47l-4 -4q-204 4 -278 4l-279 -4l-4 4v47q0 19 16 19h29q62 0 87.5 20.5t25.5 69.5v1009q0 49 -25.5 69.5t-87.5 20.5h-29q-6 0 -11 5t-5 12v49l4 4q199 -4 279 -4l278 4l4 -4v-49q0 -17 -16 -17h-29 q-61 0 -86.5 -22.5t-25.5 -67.5v-1009z" />
<glyph unicode="J" horiz-adv-x="778" d="M143 -250q23 0 42 7.5t40.5 33t36 69t24 122t9.5 184.5v969q0 71 -30.5 92t-114.5 26l-41 2q-8 0 -13.5 5t-5.5 12v49l4 4q192 -4 283 -4q133 0 325 4l5 -4v-49q0 -17 -17 -17l-35 -2q-61 -3 -85.5 -23.5t-24.5 -64.5v-954q0 -184 -53.5 -300.5t-151.5 -193.5 q-60 -51 -142 -70.5t-143 -19.5q-60 0 -108 11t-82.5 41.5t-34.5 76.5q0 41 35.5 70t68.5 29q39 0 68.5 -12t43 -25.5t30.5 -36.5q14 -19 28.5 -25t38.5 -6z" />
<glyph unicode="K" horiz-adv-x="1351" d="M453 156q0 -45 25.5 -67.5t86.5 -22.5h29q16 0 16 -19v-47l-4 -4q-204 4 -278 4l-279 -4l-4 4v47q0 19 16 19h29q62 0 87.5 20.5t25.5 69.5v1009q0 49 -25.5 69.5t-87.5 20.5h-29q-6 0 -11 5t-5 12v49l4 4q199 -4 279 -4l276 4l4 -4v-49q0 -17 -14 -17h-31 q-60 0 -85 -22.5t-25 -67.5v-411l426 399q13 12 23.5 27t17.5 31.5t-2.5 28t-36.5 11.5q-82 0 -82 25v43l8 6q194 -4 274 -4l240 4l10 -6v-43q0 -22 -61 -25q-109 -17 -234 -137l-317 -287q-66 -62 -76 -89t21 -60l489 -520q43 -45 72 -66.5t53 -21.5h37q15 0 22.5 -3t9 -8 t1.5 -14v-45l-7 -4q-188 4 -266 4l-162 -4l-8 8v53q0 24 -1 35t-8 25.5t-22 29.5l-421 455v-446z" />
<glyph unicode="L" horiz-adv-x="1101" d="M205 1165q0 49 -26 69.5t-87 20.5h-29q-18 0 -18 17v49l4 4q201 -4 281 -4l276 4l4 -4v-49q0 -17 -14 -17h-31q-60 0 -85 -22.5t-25 -67.5v-977q0 -45 18 -69.5t51 -24.5h176q58 0 105 25t78.5 68t51.5 87.5t34 96.5l80 -17q-45 -219 -50 -354h-702l-244 -4l-8 4v41 q0 25 33 25h65q37 0 49.5 17t12.5 64v1018z" />
<glyph unicode="M" horiz-adv-x="1746" d="M1456 1165l88 -1009q5 -46 29 -68t84 -22h29q16 0 16 -19v-47l-4 -4q-203 4 -275 4l-249 -4l-5 4v47q0 9 5.5 14t11.5 5h28q61 0 84.5 21t18.5 69l-64 757l-366 -899q-19 -39 -60 -39q-17 0 -35.5 9.5t-25.5 29.5q-229 557 -379 906l-43 -764q-3 -50 20.5 -70t86.5 -20 h28q17 0 17 -19v-47l-4 -4q-150 4 -222 4l-217 -4l-4 4v47q0 9 5.5 14t11.5 5h20q63 0 94.5 21t34.5 69l57 1009q3 52 -15 71t-77 19h-28q-8 0 -13.5 5t-5.5 12v49l4 2h346l420 -999q65 162 195.5 501.5t193.5 497.5h318l4 -2v-49q0 -17 -17 -17h-28q-62 0 -89.5 -23 t-23.5 -67z" />
<glyph unicode="N" horiz-adv-x="1454" d="M1118 1165q0 49 -25 69.5t-85 20.5h-29q-18 0 -18 17v49l4 2q139 -2 219 -2l219 2l4 -2v-49q0 -17 -16 -17h-29q-61 0 -87 -22.5t-26 -67.5v-1114q0 -76 -78 -76q-55 0 -96 56l-717 932v-807q0 -45 26 -67.5t87 -22.5h29q16 0 16 -19v-47l-4 -4q-149 4 -221 4l-232 -4 l-4 4v47q0 9 5.5 14t11.5 5h28q129 0 129 90v991q-20 27 -30 39.5t-29.5 32t-40 28t-43.5 8.5q-24 0 -32.5 5.5t-8.5 17.5v39l6 6h297l770 -979v821z" />
<glyph unicode="O" horiz-adv-x="1495" d="M719 1264q-54 0 -106 -21t-101 -67.5t-86 -114t-59.5 -168t-22.5 -221.5q0 -280 127 -444.5t315 -164.5q159 0 262 155.5t103 416.5q0 151 -35 273t-95 198.5t-137 117t-165 40.5zM1421 674q0 -204 -82 -361t-236 -245t-358 -88q-140 0 -262 46t-212.5 129.5t-142.5 208 t-52 273.5q0 199 85 361t238 256t344 94q108 0 209.5 -30.5t186 -89.5t148 -140t99 -187.5t35.5 -226.5z" />
<glyph unicode="P" horiz-adv-x="1126" d="M453 1143v-484q44 -6 102 -6q131 0 203.5 74t72.5 229q0 299 -256 299q-76 0 -99 -26t-23 -86zM203 182v965q0 101 -70 104l-65 4q-23 0 -23 17v49l4 4q55 0 254.5 7t288.5 7q99 0 179.5 -16.5t133.5 -45t91 -63t58 -75.5t29 -76.5t9 -71.5q0 -62 -15.5 -119.5 t-54.5 -113t-97 -96.5t-150.5 -66t-209.5 -25q-61 0 -112 7v-396q0 -56 29 -80.5t93 -31.5l39 -4q17 -1 17 -19v-47l-4 -4q-152 4 -299 4q-127 0 -279 -4l-4 4v47q0 17 16 19l29 4q64 9 88.5 32t24.5 80z" />
<glyph unicode="Q" horiz-adv-x="1495" d="M719 1264q-54 0 -106 -21t-101 -67.5t-86 -114t-59.5 -168t-22.5 -221.5q0 -280 127 -444.5t315 -164.5q159 0 262 155.5t103 416.5q0 151 -35 273t-95 198.5t-137 117t-165 40.5zM321 -266q58 70 141.5 138t174.5 115q-247 34 -404 208.5t-157 441.5q0 199 85 361 t238 256t344 94q108 0 209.5 -30.5t186 -89.5t148 -140t99 -187.5t35.5 -226.5q0 -290 -162.5 -478.5t-439.5 -212.5q-112 -40 -229 -127q7 1 20 1q75 0 158.5 -26.5t144.5 -57.5t135 -57.5t134 -26.5q49 0 98 18.5t80 56.5l35 -45q-61 -88 -130.5 -128t-164.5 -40 q-74 0 -144 20t-124 48.5t-105 57.5t-106 49t-107 20q-35 0 -75 -28q-41 -46 -74 -93l-80 62q13 23 36 47z" />
<glyph unicode="R" horiz-adv-x="1247" d="M844 958q0 145 -64 221t-162 76q-87 0 -165 -16v-580h100q149 0 220 72.5t71 226.5zM1090 987q0 -100 -29.5 -174.5t-78.5 -121.5t-126 -89l211 -401q67 -134 190 -119l9 -72q-72 -22 -168 -22q-86 0 -155 48.5t-112 125.5l-184 344q-20 36 -63.5 47.5t-130.5 11.5v-407 q0 -48 25.5 -69t86.5 -21h29q16 0 16 -19v-47l-4 -4q-151 4 -231 4l-326 -4l-4 4v47q0 19 16 19h29q61 0 87 22.5t26 67.5v987q0 47 -12.5 69.5t-49.5 22.5h-14l-61 -6q-17 0 -17 14v70q34 8 210.5 16t348.5 8q96 0 180 -20.5t153 -61.5t109 -110.5t40 -159.5z" />
<glyph unicode="S" horiz-adv-x="972" d="M782 1292q9 -122 43 -311l-82 -10q-16 59 -35.5 104.5t-51.5 93t-80.5 73.5t-110.5 26q-95 0 -139.5 -57.5t-44.5 -151.5q0 -46 26 -91.5t66 -79t79.5 -57t75.5 -36.5q58 -21 105.5 -43t100 -59t88 -79.5t58.5 -104t23 -132.5q0 -196 -112.5 -296.5t-296.5 -100.5 q-88 0 -149.5 7.5t-93.5 15t-48 7.5q-21 0 -49 -5t-45 -5q-3 77 -39 358l82 7q30 -138 112.5 -220t186.5 -82q233 0 233 234q0 92 -47.5 164t-138.5 108q-412 160 -412 424q0 88 34.5 158.5t90.5 112t121.5 63t134.5 21.5q84 0 135.5 -10t95 -25t84.5 -21z" />
<glyph unicode="T" horiz-adv-x="1222" d="M178 1321h866q46 0 46 49l73 8q13 -164 45 -315l-82 -10q-11 43 -19.5 70t-20.5 47.5t-22.5 31t-30 16.5t-37.5 7.5t-50 1.5h-110q-56 0 -77.5 -18t-21.5 -68v-985q0 -48 26 -69t87 -21h53q7 0 12 -5t5 -14v-47l-5 -4q-243 4 -323 4l-283 -4l-4 4v47q0 19 17 19h53 q61 0 86.5 22.5t25.5 67.5v991q0 46 -21.5 63t-78.5 17h-108q-32 0 -50.5 -1.5t-38 -7.5t-30.5 -16.5t-23 -30.5t-21 -48t-20 -70l-80 10q32 151 45 315l74 -8q0 -49 43 -49z" />
<glyph unicode="U" horiz-adv-x="1388" d="M1067 1165q0 49 -26 69.5t-87 20.5h-28q-8 0 -13.5 5t-5.5 12v49l4 2q150 -2 230 -2l229 2l4 -2v-49q0 -17 -16 -17h-29q-61 0 -86.5 -22.5t-25.5 -67.5v-561q0 -83 -5.5 -149.5t-21 -133t-40.5 -116.5t-66 -94t-96 -71.5t-131.5 -43.5t-172.5 -16q-64 0 -130 14.5 t-136 51.5t-123.5 92.5t-88 145t-34.5 201.5v680q0 49 -25.5 69.5t-85.5 20.5h-28q-8 0 -13.5 5t-5.5 12v49l4 2q199 -2 281 -2l276 2l5 -2v-49q0 -17 -17 -17h-28q-60 0 -85.5 -22.5t-25.5 -67.5v-612q0 -69 2 -107.5t9.5 -98t28.5 -104.5t54 -79q105 -101 209 -101 q63 0 113.5 17t85.5 44.5t61 68.5t41 83.5t24 96t12 98.5t3 98v596z" />
<glyph unicode="V" horiz-adv-x="1302" d="M874 1255q-6 0 -11 5t-5 12v49l4 2q178 -2 258 -2l180 2l5 -2v-49q0 -17 -17 -17q-83 0 -110.5 -22.5t-59.5 -108.5l-411 -1101q-8 -21 -30.5 -34.5t-39.5 -13.5q-19 0 -40 13t-28 35l-389 1112q-27 73 -57.5 96.5t-106.5 23.5q-6 0 -11 5t-5 12v49l4 2q199 -2 279 -2 l295 2l4 -2v-49q0 -17 -17 -17q-97 0 -129.5 -18.5t-15.5 -65.5l256 -729l22 -63l25 57l266 715q26 65 5 84.5t-120 19.5z" />
<glyph unicode="W" horiz-adv-x="2043" d="M639 -25q-48 0 -74 23.5t-45 73.5l-356 1079q-15 44 -44 74t-69 30h-26q-25 0 -25 17v47l4 4q149 -2 227 -2l289 2l6 -4v-45q0 -19 -18 -19q-66 0 -87.5 -15.5t-2.5 -68.5l239 -725l48 -147l47 143l151 463q15 47 15 78q0 29 -11 57l-43 131q-24 84 -133 84h-6 q-25 0 -25 17v47l5 4q114 -2 196 -2l348 2l4 -4v-49q0 -7 -5.5 -11t-10.5 -4q-20 0 -31.5 -0.5t-28 -3t-25 -7t-17.5 -13t-11.5 -21.5t-0.5 -32t10 -43l233 -711l43 -139l53 155l242 725q18 53 -11 71.5t-108 18.5q-6 0 -11 5t-5 10v49l6 4q166 -2 252 -2l172 2l4 -2v-49 q0 -17 -25 -17h-22q-59 0 -84 -21.5t-47 -86.5l-350 -1057q-20 -62 -47 -88.5t-70 -26.5q-60 0 -88 25t-45 80l-224 672q-9 26 -12 26q-4 0 -8 -20l-227 -690q-13 -43 -44.5 -68t-70.5 -25z" />
<glyph unicode="X" horiz-adv-x="1449" d="M49 1270v51l10 2q30 0 114.5 -1t92.5 -1q3 0 72.5 0.5t149.5 1t108 0.5q6 -2 8 -2v-51q0 -15 -10 -15q-77 0 -92.5 -18.5t16.5 -65.5l219 -323q20 -27 29 -27.5t29 23.5q182 222 241 327q45 84 -75 84q-5 0 -10 4t-5 11v51l4 2q25 0 131 -1t115 -1q2 0 90.5 1t110.5 1 l4 -2v-51q0 -15 -19 -15q-72 0 -123 -32t-102 -93l-295 -346q-28 -32 -23 -53t58 -92l313 -430q102 -143 217 -143q15 0 15 -17v-49l-2 -4q-114 4 -217 4l-340 -4l-6 4v51q0 6 3.5 10.5t8.5 4.5q89 0 98.5 15t-31.5 69l-249 354q-32 47 -44.5 50.5t-33.5 -26.5 q-135 -176 -254 -370q-15 -25 -16.5 -42.5t5.5 -27t22.5 -15t28.5 -6.5t31 -1q13 0 13 -17v-49l-6 -4q-240 4 -269 4l-172 -4l-2 4v51q0 15 23 15q43 0 77 10t64 35t46 43.5t48 58.5l299 383q26 31 24.5 48.5t-32.5 60.5l-295 419q-91 131 -192 131q-23 0 -23 15z" />
<glyph unicode="Y" horiz-adv-x="1263" d="M520 147v428l-321 558q-49 82 -77.5 102t-74.5 20h-24q-23 0 -23 15v51l4 4q233 -4 260 -4l234 4l4 -4v-49q0 -17 -15 -17q-43 0 -63.5 -2t-32 -10t-8 -22.5t19.5 -40.5l285 -496l262 496q17 31 -8 53t-80 22q-12 0 -12 15v51l4 4q161 -4 186 -4l220 4l4 -4v-49 q0 -17 -21 -17h-43q-48 0 -74 -15.5t-51 -63.5l-305 -576v-453q0 -46 25.5 -62.5t87.5 -16.5h55q16 0 16 -19v-47l-4 -4q-223 4 -303 4l-305 -4l-2 4v47q0 19 14 19h56q62 0 86 18t24 61z" />
<glyph unicode="Z" horiz-adv-x="1277" d="M1171 0h-1091q-39 0 -39 31q0 26 16 47l797 1108q7 10 10.5 16t6.5 14.5t-2.5 12.5t-18.5 4h-440q-45 0 -79.5 -12.5t-57 -30t-42 -52t-30.5 -63.5t-27 -80l-80 11q33 172 45 342q31 -2 72 -14.5t94 -12.5h731q105 10 129 10q28 0 36.5 -4.5t8.5 -15.5q0 -33 -49 -101 l-766 -1063q-23 -29 -17.5 -43t50.5 -14h457q57 0 99.5 18.5t72 56t48.5 80.5t36 103l84 -10q-45 -207 -54 -338z" />
<glyph unicode="[" horiz-adv-x="768" d="M702 1411v-104h-296v-1608h296v-105h-522v1817h522z" />
<glyph unicode="\" horiz-adv-x="628" d="M156 1430l471 -1528h-133l-471 1528h133z" />
<glyph unicode="]" horiz-adv-x="768" d="M-18 -410v105h297v1608h-297v104h522v-1817h-522z" />
<glyph unicode="^" horiz-adv-x="1060" d="M530 1165l-184 -456h-117l260 622h86l259 -622h-117z" />
<glyph unicode="_" horiz-adv-x="995" d="M987 -211v-104h-977v104h977z" />
<glyph unicode="`" horiz-adv-x="802" d="M406 1438l141 -254q18 -31 18 -54q0 -13 -10.5 -22.5t-24.5 -9.5q-25 0 -71 41l-248 215l4 22q19 21 60.5 43.5t89.5 22.5q25 0 41 -4z" />
<glyph unicode="a" horiz-adv-x="974" d="M575 98q-135 -118 -256 -118q-130 0 -187.5 53t-57.5 162q0 59 24.5 104t76 78.5t109 56.5t146.5 49l148 43q0 76 -7 131.5t-18.5 88.5t-30.5 52.5t-39.5 26t-48.5 6.5q-61 0 -103 -19t-42 -52q0 -22 6 -50t6 -38q0 -24 -33 -51t-73 -27q-53 0 -75 22t-22 64 q0 58 60 112.5t144.5 85.5t160.5 31q70 0 124.5 -14.5t105 -51t78.5 -109.5t28 -179v-297q0 -35 1 -54.5t5 -45.5t12.5 -39.5t24.5 -23t39 -9.5q17 0 29 5t17 11.5t9 11.5t8 5q6 0 16.5 -15.5t10.5 -25.5q0 -7 -23 -29.5t-70 -45.5t-98 -23q-90 0 -135.5 28.5t-64.5 89.5h-5 zM578 174v275l-117 -35q-101 -30 -136.5 -74.5t-35.5 -114.5q0 -133 129 -133q26 0 72.5 24.5t87.5 57.5z" />
<glyph unicode="b" horiz-adv-x="1034" d="M377 115q47 -52 102 -52q118 0 181 106t63 282q0 149 -56 251.5t-132 102.5q-35 0 -69.5 -14.5t-88.5 -49.5v-626zM152 1153q0 93 -14 121.5t-48 28.5l-65 4q-11 0 -13 10l-6 59q72 5 190.5 22.5t153.5 31.5q33 0 33 -21q-6 -82 -6 -215v-371q118 86 209 86 q156 0 264 -113.5t108 -297.5q0 -95 -27 -179t-73 -145t-106 -105.5t-127 -66.5t-136 -22q-127 0 -215 102l-61 -109l-70 13q9 74 9 166v1001z" />
<glyph unicode="c" horiz-adv-x="890" d="M831 178q-46 -94 -129.5 -146t-191.5 -52q-214 0 -324 114t-110 318q0 216 128.5 356.5t313.5 140.5q158 0 241 -61.5t83 -151.5q0 -49 -27.5 -81.5t-75.5 -32.5q-49 0 -80 27t-36 69q-5 59 -32.5 102t-80.5 43q-85 0 -143 -97.5t-58 -262.5q0 -162 75 -270.5t179 -108.5 q58 0 110.5 30t117.5 103z" />
<glyph unicode="d" horiz-adv-x="1079" d="M684 702q-80 121 -162 121q-35 0 -69 -16.5t-67.5 -55t-54 -115t-20.5 -181.5q0 -184 59.5 -278.5t153.5 -94.5q65 0 160 90v530zM909 1194v-958q0 -51 27.5 -79.5t103.5 -35.5l4 -64q-164 -17 -290 -82h-70l4 97q-60 -52 -106 -72t-109 -20q-165 0 -281 126t-116 314 q0 227 139 366q67 62 145 92.5t191 30.5q27 0 70 -15.5t63 -35.5v295q0 94 -13.5 122t-47.5 28l-66 4q-10 0 -12 10l-6 59q72 5 190.5 22.5t153.5 31.5q32 0 32 -21q-6 -82 -6 -215z" />
<glyph unicode="e" horiz-adv-x="944" d="M315 584h328q4 4 4 22q0 111 -44 164t-95 53q-16 0 -34 -4.5t-44 -20t-47.5 -40t-40.5 -70t-27 -104.5zM813 223l51 -43q-99 -200 -360 -200q-113 0 -198.5 34.5t-136 94.5t-75 135t-24.5 162q0 113 38.5 210t101 159.5t141 98t159.5 35.5q87 0 154 -21.5t107.5 -56 t66.5 -83.5t35.5 -98t9.5 -105q0 -43 -80 -43h-498v-53q0 -151 79.5 -253t199.5 -102q122 0 229 129z" />
<glyph unicode="f" horiz-adv-x="688" d="M203 154v639h-94q-34 0 -45 4.5t-11 15.5v29q0 16 21.5 31.5t68.5 15.5h60v20q0 122 32.5 223t87 165t122.5 98.5t141 34.5q61 0 112 -12.5t82 -31t52 -40t29.5 -39t8.5 -29.5q0 -41 -26 -71.5t-68 -30.5q-78 0 -125 81q-46 86 -104 86q-16 0 -30 -6.5t-31 -29t-29 -59 t-20.5 -102.5t-8.5 -153v-104h197q27 0 34 -5t7 -16v-41q0 -34 -72 -34h-166v-633q0 -78 111 -90l36 -4q17 -4 17 -19v-47l-4 -4q-197 4 -277 4l-248 -4l-4 4v47q0 16 17 19l28 4q54 8 76.5 25.5t22.5 58.5z" />
<glyph unicode="g" horiz-adv-x="1040" d="M639 582q0 120 -44.5 188t-117.5 68q-63 0 -102 -56.5t-39 -165.5q0 -42 9 -85.5t27 -85t52.5 -67.5t79.5 -26q23 0 44 9t43 31.5t35 71t13 118.5zM375 -31q-48 0 -68 8q-29 -30 -37 -69.5t-8 -104.5q0 -51 24.5 -92.5t60 -64.5t69 -35t57.5 -12q81 0 159 25.5t134.5 81 t56.5 128.5q0 141 -299 141q-9 0 -63 -4q-31 -2 -86 -2zM915 784q-57 0 -75 60q-12 24 -31 24q-29 0 -59 -37q55 -45 82.5 -102.5t27.5 -140.5q0 -97 -52 -169.5t-134 -107.5t-180 -35q-104 0 -171 31q-14 -35 -14 -100q0 -55 28.5 -81t63.5 -26q1 0 74 7.5t119 7.5 q95 0 171 -16.5t120.5 -41t74 -56.5t40 -60t10.5 -54q0 -108 -89.5 -195.5t-224.5 -133t-280 -45.5q-66 0 -125.5 14t-110 42t-80.5 78t-30 115q0 60 43.5 123t122.5 117q-99 61 -99 150t107 189q-56 39 -90.5 110t-34.5 147q0 92 53.5 164t139 109.5t184.5 37.5 q120 0 192 -39q42 38 102.5 62t104.5 24q54 0 82.5 -28t28.5 -62q0 -37 -24.5 -59.5t-66.5 -22.5z" />
<glyph unicode="h" horiz-adv-x="1126" d="M958 158q0 -41 24 -59.5t77 -28.5l22 -4q17 -2 17 -19v-47l-4 -4q-172 4 -252 4l-234 -4l-4 4v47q0 16 17 19l14 4q37 11 55 18.5t30.5 25t12.5 44.5v446q0 119 -20 157t-82 38q-32 0 -99.5 -27t-132.5 -74v-540q0 -21 6 -35t21 -23.5t29.5 -15t44.5 -14.5l14 -4 q16 -2 16 -19v-47l-4 -4q-163 4 -243 4l-244 -4l-4 4v47q0 16 16 19l25 4q51 9 74.5 28t23.5 60v995q0 94 -13.5 122t-47.5 28l-66 4q-10 0 -12 10l-6 59q72 5 190.5 22.5t153.5 31.5q33 0 33 -21q-7 -82 -7 -215v-414q82 61 170 96t148 35q129 0 185 -81.5t56 -247.5v-424z " />
<glyph unicode="i" horiz-adv-x="585" d="M432 658v-500q0 -40 23 -59t73 -29l21 -4q16 -4 16 -19v-47l-4 -4q-166 4 -246 4l-239 -4l-4 4v47q0 17 14 19l25 4q50 9 73 28t23 60v499q0 50 -5.5 78t-14.5 38t-25 11l-84 9l-4 61q269 36 350 61q14 0 14 -6q-6 -149 -6 -251zM195 1169q0 51 35.5 87t86.5 36t87 -36 t36 -87t-36 -86.5t-87 -35.5t-86.5 35.5t-35.5 86.5z" />
<glyph unicode="j" horiz-adv-x="591" d="M444 658v-515q0 -109 -9.5 -196t-35 -166t-66 -132t-105 -84t-150.5 -31q-78 0 -142.5 39.5t-64.5 102.5q0 40 22.5 58t54.5 18q36 0 61 -13.5t37.5 -33t21.5 -39t20 -33t27 -13.5q28 0 48.5 20.5t32 59.5t18 81.5t8 100.5t1 101.5t-2 100t-1.5 80.5v493q0 71 -10.5 94 t-34.5 25l-104 8l-4 70q300 40 368 61q15 0 15 -8q-5 -147 -5 -249zM176 1169q0 53 37 90t90 37t90 -37t37 -90t-37 -90t-90 -37t-90 37t-37 90z" />
<glyph unicode="k" horiz-adv-x="1071" d="M170 158v995q0 94 -13.5 122t-47.5 28l-66 4q-10 0 -12 10l-6 59q72 5 190.5 22.5t153.5 31.5q32 0 32 -21q-6 -82 -6 -215v-684q59 8 115 58q48 41 131 147q23 29 22.5 53.5t-14.5 36.5t-31 14l-43 4q-16 1 -21 6t-5 15v45l10 4q137 -4 209 -4l236 4l6 -4v-45 q0 -12 -4 -16t-17 -5l-61 -4q-28 -1 -76 -31.5t-86 -68.5l-154 -168q-12 -15 6 -41l238 -350q25 -38 57.5 -62t57.5 -26l59 -6q17 -2 17 -13v-53l-7 -4q-143 4 -223 4l-172 -4l-4 4v53q0 37 -33 107q-34 72 -139 229q-15 23 -31 30t-43 9v-270q0 -21 6 -35t21 -23.5 t29.5 -15t44.5 -14.5l14 -4q16 -2 16 -19v-47l-4 -4q-163 4 -243 4l-244 -4l-4 4v47q0 16 16 19l25 4q51 9 74.5 28t23.5 60z" />
<glyph unicode="l" horiz-adv-x="591" d="M195 1153q0 93 -14 121.5t-48 28.5l-65 4q-11 0 -13 10l-6 59q72 5 190.5 22.5t153.5 31.5q33 0 33 -21q-6 -82 -6 -215v-1036q0 -41 23.5 -59.5t76.5 -28.5l23 -4q16 -2 16 -19v-47l-4 -4q-172 4 -252 4l-244 -4l-4 4v47q0 16 17 19l24 4q52 9 75.5 28t23.5 60v995z" />
<glyph unicode="m" horiz-adv-x="1640" d="M420 780h4q147 129 287 129q79 0 133 -36.5t78 -98.5q155 135 315 135q63 0 107 -18t69 -45.5t38.5 -74t17.5 -90t4 -106.5v-419q0 -39 22.5 -55.5t77.5 -30.5l16 -4q17 -4 17 -19v-47l-4 -4q-166 4 -246 4l-219 -4l-4 4v47q0 16 16 19q52 4 75 25.5t23 64.5v465 q0 176 -82 176q-104 0 -223 -101q4 -54 4 -118v-422q0 -26 8.5 -43.5t24.5 -26.5t31 -13t37 -7q16 0 16 -19v-47l-4 -4q-148 4 -228 4l-221 -4l-4 4v47q0 16 19 19q51 4 73.5 25.5t22.5 64.5v460q0 181 -84 181q-95 0 -213 -99v-544q0 -26 8 -43t24 -26t30 -12.5t36 -6.5 q19 -4 19 -19v-47l-4 -4q-148 4 -230 4l-237 -4l-4 4v47q0 16 16 19l18 4q56 11 77.5 27.5t21.5 56.5v503q0 71 -10.5 94t-34.5 25l-84 8l-4 70q244 31 344 61q14 0 14 -6z" />
<glyph unicode="n" horiz-adv-x="1153" d="M426 780q168 129 309 129q64 0 110 -17t73 -44.5t42 -72t20 -89t5 -106.5v-424q0 -39 22.5 -55.5t77.5 -30.5l17 -4q16 -4 16 -19v-47l-4 -4q-164 4 -244 4l-229 -4l-4 4v47q0 16 16 19l9 2q53 13 75.5 30.5t22.5 57.5v438q0 112 -16.5 156.5t-69.5 44.5q-92 0 -248 -97 v-542q0 -39 23.5 -57.5t74.5 -30.5l8 -2q17 -4 17 -19v-47l-4 -4q-156 4 -236 4l-237 -4l-4 4v47q0 16 16 19l18 4q55 12 77 29t22 57v501q0 71 -10.5 94t-34.5 25l-84 8l-4 70q244 31 344 61q14 0 14 -6l-4 -129h4z" />
<glyph unicode="o" horiz-adv-x="1062" d="M512 825q-62 0 -107.5 -54t-65.5 -132.5t-20 -169.5q0 -60 15 -127t43.5 -130t77 -103.5t108.5 -40.5q32 0 60.5 12.5t57.5 43.5t46.5 96t17.5 157q0 215 -63 331.5t-170 116.5zM70 424q0 216 122 350.5t340 134.5q97 0 176 -28t131 -74t87.5 -107.5t51 -126t15.5 -131.5 q0 -64 -17.5 -127.5t-55 -124.5t-90.5 -107.5t-130.5 -74.5t-169.5 -28q-108 0 -198 39.5t-145.5 103.5t-86 142t-30.5 159z" />
<glyph unicode="p" horiz-adv-x="1071" d="M399 698v-565q62 -67 125 -67q64 0 112 32t75 86t40 116t13 130q0 181 -46 277t-136 96q-38 0 -89 -28.5t-94 -76.5zM399 780q51 59 117 94t131 35q107 0 189 -61.5t122.5 -156.5t40.5 -206q0 -232 -157 -389q-116 -116 -305 -116q-73 0 -138 34v-329q0 -40 23 -59 t76 -32l16 -4q16 -3 16 -16v-49l-2 -4q-165 4 -245 4l-238 -4l-4 4v49q0 13 16 16l19 4q54 12 76 31t22 60v972q0 71 -10.5 94t-34.5 25l-84 8l-4 70q244 31 344 61q14 0 14 -6l-4 -129h4z" />
<glyph unicode="q" horiz-adv-x="1060" d="M686 715q-70 108 -164 108q-98 0 -157.5 -99t-59.5 -255q0 -86 18 -155t45.5 -111t63.5 -70t70 -38.5t67 -10.5q49 0 117 41v590zM686 -317v333q-30 -14 -83 -25t-103 -11q-91 0 -165.5 28.5t-122 73.5t-79.5 105t-45.5 119.5t-13.5 119.5q0 207 126.5 345t327.5 138 q125 0 228 -88q44 52 75 73t64 21q7 0 13.5 -5.5t6.5 -16.5q-4 -166 -4 -236v-974q0 -40 23.5 -57.5t77.5 -31.5l16 -4q16 -4 16 -18v-47l-4 -4q-163 4 -243 4l-240 -4l-4 4v47q0 15 16 18l21 4q53 11 74.5 29.5t21.5 59.5z" />
<glyph unicode="r" horiz-adv-x="821" d="M424 780q125 129 262 129q52 0 85.5 -35.5t33.5 -78.5q0 -50 -29.5 -83.5t-73.5 -33.5q-27 0 -52 13t-39.5 28t-30.5 28t-28 13q-35 0 -75 -27q-53 -38 -53 -143v-432q0 -40 22.5 -57.5t75.5 -30.5l17 -4q16 -4 16 -19v-47l-4 -4q-164 4 -244 4l-237 -4l-4 4v47 q0 15 14 19l20 4q52 10 75.5 29.5t23.5 58.5v499q0 71 -10.5 94t-34.5 25l-84 8l-4 70q244 31 344 61q14 0 14 -6l-4 -129h4z" />
<glyph unicode="s" horiz-adv-x="821" d="M76 299l82 4q29 -137 79 -190.5t162 -53.5q47 0 84 34.5t37 99.5q0 63 -27 97t-108 62q-34 12 -69 30t-74.5 46.5t-69.5 61t-50 76.5t-20 91q0 107 91 179.5t229 72.5q82 0 141 -13.5t121 -43.5q16 -121 23 -209l-80 -10q-30 103 -78.5 146.5t-120.5 43.5 q-46 0 -80.5 -29.5t-34.5 -86.5q0 -56 26 -91.5t87 -58.5q72 -26 125.5 -54.5t100.5 -66t71.5 -86t24.5 -106.5q0 -70 -32.5 -123t-86 -82.5t-113.5 -44t-123 -14.5q-46 0 -141.5 12.5t-151.5 11.5q0 113 -24 295z" />
<glyph unicode="t" horiz-adv-x="677" d="M408 793v-517q0 -63 8.5 -98t18.5 -43t26 -8q38 0 68 9t71 42l47 -47q-115 -151 -289 -151q-81 0 -128.5 50.5t-47.5 157.5v605h-104q-24 0 -30.5 3t-6.5 13v63q0 17 78 17q72 0 97.5 65t25.5 201l166 64v-330h194q45 0 45 -21v-41q0 -34 -76 -34h-163z" />
<glyph unicode="u" horiz-adv-x="1126" d="M946 236q0 -52 27 -81.5t104 -33.5l2 -64q-88 -12 -146.5 -26.5t-83.5 -25.5t-58 -30h-70l6 97q-145 -92 -264 -92q-86 0 -144.5 23t-88 65.5t-41 88.5t-11.5 105v459q0 49 -12.5 72.5t-46.5 25.5l-64 4l-6 4v62l10 4q162 -4 228 -4l119 4q-3 -92 -3 -168v-434 q0 -61 11 -104.5t29 -65t35.5 -30.5t35.5 -9q119 0 207 76v563q0 98 -57 98l-64 4l-8 4v62l8 4q172 -4 227 -4l123 4q-4 -85 -4 -168v-489z" />
<glyph unicode="v" horiz-adv-x="1079" d="M887 721l-242 -637q-25 -64 -46 -86.5t-56 -22.5q-42 0 -69.5 23.5t-51.5 83.5l-235 602q-12 30 -21.5 49t-26.5 40.5t-42 34t-58 15.5q-21 2 -21 15v51l7 4q124 -4 206 -4l252 4l9 -4v-49q0 -9 -6 -13t-11 -4l-35 -4q-45 -5 -52.5 -23.5t11.5 -64.5l203 -516l184 518 q14 40 -6 56.5t-82 31.5l-8 2q-16 3 -16 15v49l8 6q129 -4 211 -4l158 4l4 -4v-47q0 -7 -7 -12.5t-16 -6.5q-35 -4 -58.5 -11.5t-47.5 -30t-39 -60.5z" />
<glyph unicode="w" horiz-adv-x="1593" d="M399 731l193 -526l145 362l-63 160q-21 51 -48.5 70.5t-76.5 25.5q-21 2 -21 15v51l7 4q126 -4 208 -4l250 4l8 -4v-49q0 -14 -18 -17l-35 -4q-46 -5 -54 -24.5t11 -63.5l191 -528l190 524q9 26 11 39t-9.5 23.5t-27.5 16t-58 15.5l-8 2q-16 3 -16 15v49l8 6 q140 -4 229 -4l139 4l5 -4v-47q0 -15 -23 -19q-62 -8 -93 -36.5t-54 -85.5l-256 -633q-35 -93 -95 -93q-23 0 -41.5 8t-31 23.5t-19 28t-14.5 31.5l-150 383l-151 -377q-12 -30 -22 -48t-29 -33.5t-43 -15.5q-43 0 -66.5 22t-42.5 69l-242 619q-26 68 -55 99.5t-92 38.5 q-23 2 -23 15v51l7 4q132 -4 217 -4l219 4l8 -4v-49q0 -13 -23 -17q-44 -6 -52.5 -28.5t7.5 -63.5z" />
<glyph unicode="x" horiz-adv-x="1067" d="M375 150q-17 -24 -20.5 -40.5t6.5 -25t20 -12t29 -6.5q16 -3 16 -17v-49l-8 -4q-136 4 -223 4l-160 -4l-4 4v45q0 17 22 21q117 16 185 96l188 233q11 13 12 18.5t-6 12.5l-182 260q-95 137 -187 137q-20 0 -20 15v51l6 4q126 -4 207 -4l256 4l6 -4v-49q0 -14 -16 -17 q-61 -6 -69.5 -20.5t24.5 -65.5l98 -143q11 -16 17 -16.5t14 10.5l102 147q33 44 26 64t-61 24q-14 1 -14 15v49l6 6q147 -4 240 -4l139 4l4 -4v-47q0 -17 -22 -19q-117 -13 -185 -100l-182 -221q-9 -12 4 -31l180 -268q48 -71 89.5 -99.5t101.5 -37.5q20 -2 20 -15v-51 l-6 -4q-126 4 -207 4l-250 -4l-8 4v49q0 13 17 17q39 5 53.5 12t14 22.5t-20.5 46.5l-86 132q-18 31 -26.5 37.5t-18.5 -1.5t-35 -43z" />
<glyph unicode="y" horiz-adv-x="1091" d="M885 698l-340 -843q-30 -73 -58 -125.5t-67 -103t-88.5 -76.5t-108.5 -26q-19 0 -43 6t-50.5 18t-44 35t-17.5 53q0 49 36 77t84 28q23 0 49 -15.5t37 -32.5q23 -35 39 -35q9 0 26 20t45.5 72t55.5 125l37 100l-289 713q-32 80 -60 107.5t-87 27.5q-21 0 -21 15v51l7 4 q132 -4 217 -4l248 4l8 -4v-49q0 -9 -6 -13t-11 -4q-60 0 -77 -22.5t2 -69.5l190 -516q118 286 188 512q32 96 -81 96q-7 0 -12 5t-5 10v49l8 6q141 -4 230 -4l131 4l4 -4v-47q0 -7 -7 -13t-16 -6q-46 0 -87 -31.5t-66 -93.5z" />
<glyph unicode="z" horiz-adv-x="884" d="M201 913q8 -24 35 -24h417q22 0 46.5 1.5t41 3t17.5 1.5q31 0 52 -9t21 -24q0 -13 -40 -74l-457 -702h237q128 0 185 217l86 -18q-41 -146 -54 -285h-610q-112 0 -112 33q0 8 22 45q84 127 240.5 370t230.5 355h-237q-49 0 -85 -44.5t-61 -152.5l-88 12q39 159 45 295h68 z" />
<glyph unicode="{" horiz-adv-x="626" d="M420 1155v-367q0 -128 -27 -185.5t-106 -94.5q32 -15 54.5 -31.5t37 -39.5t23 -43t12.5 -55t5 -62t1 -76v-334q0 -129 29 -182q42 -76 102 -88v-37q-218 6 -272 78q-64 86 -64 260v354q0 105 -29 168t-106 82v10q41 12 69 37t42 61t19 70.5t5 77.5v383q0 156 68 239 q60 73 268 78v-39q-65 -15 -105 -88q-26 -47 -26 -176z" />
<glyph unicode="|" horiz-adv-x="450" d="M287 -477h-123v1907h123v-1907z" />
<glyph unicode="}" horiz-adv-x="626" d="M207 -139v366q0 129 27 187t106 94q-32 15 -54.5 31.5t-37 39.5t-23 43t-12.5 55t-5 62t-1 76v334q0 129 -29 182q-42 76 -102 88v37q218 -6 272 -78q64 -86 64 -260v-354q0 -105 29 -168t106 -82v-10q-41 -12 -69 -37t-42 -61t-19 -70.5t-5 -77.5v-383q0 -157 -68 -240 q-59 -72 -268 -77v39q64 15 104 88q27 49 27 176z" />
<glyph unicode="~" horiz-adv-x="968" d="M53 430q22 106 103 187t186 81q92 0 174 -65q31 -27 68 -46.5t55 -19.5q59 0 103 32.5t79 115.5l74 -25q-23 -79 -54 -133t-67.5 -79.5t-69.5 -35.5t-71 -10q-100 0 -178 68q-33 27 -68 44t-57 17q-45 0 -107 -43.5t-96 -111.5z" />
<glyph unicode="&#xa1;" horiz-adv-x="499" d="M217 -467q-61 0 -104 40t-43 114q0 58 28 217q59 358 62 506q2 86 57 86q37 0 48.5 -26t13.5 -85q2 -75 20 -228t37 -259q2 -9 8 -40t8.5 -44t6 -37.5t5 -45.5t1.5 -44q0 -78 -45.5 -116t-102.5 -38zM334 788q0 -47 -34 -80.5t-81 -33.5t-81 33.5t-34 80.5q0 46 34 79.5 t81 33.5t81 -33.5t34 -79.5z" />
<glyph unicode="&#xa2;" horiz-adv-x="897" d="M455 1196h69v-141q148 -4 225.5 -65t77.5 -148q0 -49 -27 -82t-75 -33q-49 0 -80.5 27t-36.5 69q-11 120 -84 142v-734q16 -2 25 -2q58 0 110 30t117 103l41 -38q-43 -88 -119 -139.5t-174 -58.5v-151h-69v151q-194 11 -294 124.5t-100 306.5q0 201 113 338t281 157v144z M455 256v706q-70 -23 -115 -116.5t-45 -237.5q0 -122 44.5 -216t115.5 -136z" />
<glyph unicode="&#xa3;" horiz-adv-x="948" d="M328 184q61 0 106 -10t70.5 -24t47 -28t48.5 -24t62 -10q109 0 172 88l63 -29q-29 -79 -98 -125.5t-172 -46.5q-49 0 -99.5 18.5t-85 41t-78.5 41t-83 18.5q-46 0 -60 -13.5t-14 -37.5q0 -38 -28 -60t-60 -22q-23 0 -44.5 17t-21.5 36q0 66 91 116q23 16 38.5 34.5 t36.5 62t32 124t11 194.5v16h-86q-32 0 -42.5 5t-10.5 16v28q0 17 21.5 32t68.5 15h49v39q0 130 39 217t117 162q112 103 291 103q29 0 62.5 -6.5t66 -29t32.5 -57.5q0 -40 -25 -65t-65 -25q-34 0 -75 41q-22 23 -40.5 34t-48.5 11q-65 0 -99 -77.5t-34 -208.5v-138h193 q59 0 59 -20v-39q0 -18 -28.5 -27.5t-63.5 -9.5h-160q-7 -258 -160 -377h5z" />
<glyph unicode="&#xa4;" horiz-adv-x="948" d="M233 614q0 -107 68.5 -179.5t169.5 -72.5q102 0 170 72.5t68 177.5q0 107 -71 179.5t-163 72.5q-100 0 -171 -72.5t-71 -177.5zM471 250q-114 0 -205 51q-32 -41 -94 -119l-125 121l109 88q-88 111 -88 221q0 116 90 226q-81 61 -107 84l113 116l102 -112q94 51 209 51 q108 0 203 -53q78 92 104 125l119 -125l-113 -93q86 -106 86 -219q0 -104 -83 -217q44 -36 106 -90l-111 -119l-104 119q-96 -55 -211 -55z" />
<glyph unicode="&#xa5;" horiz-adv-x="948" d="M854 340v-80h-244v-102q0 -48 26 -69t87 -21h53q19 0 19 -19v-47l-4 -4q-217 4 -297 4l-301 -4l-5 4v47q0 19 17 19h53q61 0 87 22.5t26 67.5v102h-246v80h246v129h-246v82h234l-232 475q-21 45 -45 64.5t-62 19.5h-14l-4 1q-4 1 -6 2t-4.5 2.5t-4 4.5t-1.5 6v48l2 4 q40 -7 225 -7q125 0 176 7l4 -4v-46q0 -18 -12 -18h-29q-38 0 -42.5 -19.5t16.5 -60.5l206 -436l193 436q11 27 15 41t6 23.5t-7 13t-16 4t-29 0.5h-32q-13 0 -13 14v48l4 4q56 -7 160 -7q118 0 186 7l2 -4v-46q0 -5 -0.5 -8t-5 -5.5t-12.5 -2.5h-12q-46 0 -75.5 -19.5 t-49.5 -66.5l-210 -475h218v-82h-244v-129h244z" />
<glyph unicode="&#xa6;" horiz-adv-x="450" d="M287 1380v-741h-123v741h123zM287 330v-742h-123v742h123z" />
<glyph unicode="&#xa7;" horiz-adv-x="954" d="M838 -53q0 -56 -21 -106t-63.5 -93t-119 -68.5t-177.5 -25.5q-76 0 -151.5 32.5t-127 93t-51.5 132.5q0 32 30 58t60 26q47 0 78 -33.5t31 -54.5q0 -25 -13.5 -48.5t-13.5 -33.5q0 -5 4.5 -15t16 -25t28 -28t44 -22.5t61.5 -9.5q72 0 115.5 53t43.5 153q0 37 -21 71.5 t-63 66.5t-73.5 51.5t-83.5 48.5q-170 95 -240 184t-70 211q0 141 163 277q-93 72 -93 190q0 50 30.5 106t80 102.5t119 77t139.5 30.5q148 0 238.5 -72.5t90.5 -183.5q0 -33 -31.5 -59.5t-62.5 -26.5q-48 0 -75 33t-27 55q0 30 11 51t11 31q0 35 -37.5 67.5t-109.5 32.5 q-82 0 -123 -58t-41 -145q0 -66 37 -102.5t119 -75.5q172 -85 235 -131q124 -91 151 -221q9 -43 9 -94q0 -147 -164 -279l-7 -1q114 -98 114 -222zM267 814q-18 -18 -26.5 -45t-10 -47t-1.5 -58q0 -42 12.5 -85t41 -93t86 -99t137.5 -88q106 -50 174 -97q28 27 37.5 61.5 t9.5 86.5q0 129 -96.5 233.5t-300.5 198.5q-42 20 -63 32z" />
<glyph unicode="&#xa8;" horiz-adv-x="817" d="M469 1174q0 46 32.5 78t78.5 32q45 0 77.5 -32.5t32.5 -77.5q0 -44 -33 -76.5t-77 -32.5q-46 0 -78.5 32.5t-32.5 76.5zM98 1174q0 45 33 77.5t78 32.5q46 0 78 -32t32 -78q0 -44 -32.5 -76.5t-77.5 -32.5q-44 0 -77.5 32.5t-33.5 76.5z" />
<glyph unicode="&#xa9;" horiz-adv-x="1296" d="M895 444q-35 -54 -96.5 -92.5t-139.5 -38.5q-143 0 -234 94t-91 222q0 76 38.5 145t113 114.5t167.5 45.5q81 0 138 -14.5t83 -14.5l23 -160l-63 -8q-7 42 -14 63t-25 44.5t-52 33t-88 9.5q-32 0 -61.5 -11.5t-58.5 -38t-46.5 -81.5t-17.5 -131q0 -111 48 -181.5 t147 -70.5q113 0 184 102zM649 47q-158 0 -291.5 78.5t-210.5 212t-77 289.5q0 117 46 224t123.5 184.5t184.5 123t225 45.5q157 0 290 -77t210.5 -210t77.5 -290t-77.5 -290.5t-210.5 -211.5t-290 -78zM649 1126q-134 0 -248.5 -67.5t-180.5 -182.5t-66 -249t65.5 -249 t180 -183t249.5 -68q134 0 248 67.5t180 182.5t66 250t-66.5 250t-180 182t-247.5 67z" />
<glyph unicode="&#xaa;" horiz-adv-x="608" d="M360 1026q-174 -49 -174 -143q0 -80 68 -80q16 0 28.5 5t19 10t26.5 24t32 30v154zM459 733q-43 0 -67.5 24t-29.5 56q-9 -8 -26 -23.5t-22.5 -19.5t-17.5 -13.5t-18 -11.5t-17.5 -6t-22 -5t-25.5 -1q-66 0 -112 40t-46 104q0 124 211 178l94 30q0 55 -6.5 89.5t-19.5 50 t-26 20t-34 4.5q-49 0 -67.5 -12.5t-18.5 -38.5q0 -17 5 -27q6 -6 6 -24q0 -14 -20.5 -28.5t-47.5 -14.5q-25 0 -45 14.5t-20 36.5q0 58 71.5 104t141.5 46q42 0 77 -10t68.5 -34t52.5 -72.5t19 -117.5v-143q0 -117 28 -117q13 0 25 8l20 -41q-51 -45 -110 -45z" />
<glyph unicode="&#xab;" horiz-adv-x="1146" d="M631 936v-184q-60 -91 -127.5 -160t-165.5 -150q93 -74 162.5 -143t130.5 -164v-190q-163 190 -280.5 298.5t-221.5 164.5v67q208 144 502 461zM993 936v-184q-63 -93 -131 -162.5t-164 -147.5q92 -71 162 -141t133 -166v-190q-163 191 -280.5 299t-220.5 164v67 q205 142 501 461z" />
<glyph unicode="&#xac;" horiz-adv-x="1146" d="M981 272v449h-932v100h1051v-549h-119z" />
<glyph unicode="&#xad;" horiz-adv-x="716" d="M563 451h-409q-35 0 -55.5 12.5t-20.5 30.5q0 28 29.5 63t60.5 35h414q73 0 73 -43q0 -24 -30 -61t-62 -37z" />
<glyph unicode="&#xae;" horiz-adv-x="1296" d="M866 762q0 -30 -12 -57t-29 -44t-34 -30t-29 -19l-12 -6l98 -168q20 -34 39 -48.5t43 -14.5v-27q-27 -8 -47 -8q-46 0 -84 20t-56 58l-98 160q-12 6 -55 6v-187q0 -8 2 -11t12 -3h25q22 0 22 -12v-29q-110 4 -139 4l-115 -4v29q0 12 23 12h24q10 0 13.5 3t3.5 13v447 q0 22 -8 22l-33 -2q-21 0 -21 13v26q72 10 273 10q55 0 95 -15t60.5 -39t29.5 -49t9 -50zM739 762q0 56 -21 84t-71 28q-42 0 -57 -6v-235q25 0 40.5 1t38.5 8t36.5 19.5t23.5 38.5t10 62zM649 47q-158 0 -291.5 78.5t-210.5 212t-77 289.5q0 117 46 224t123.5 184.5 t184.5 123t225 45.5q157 0 290 -77t210.5 -210t77.5 -290t-77.5 -290.5t-210.5 -211.5t-290 -78zM649 1126q-134 0 -248.5 -67.5t-180.5 -182.5t-66 -249t65.5 -249t180 -183t249.5 -68q134 0 248 67.5t180 182.5t66 250t-66.5 250t-180 182t-247.5 67z" />
<glyph unicode="&#xaf;" horiz-adv-x="813" d="M645 1075h-500q-12 0 -18 11t-6 24q0 19 14 41.5t31 22.5h500q14 0 21 -11t7 -24q0 -19 -15 -41.5t-34 -22.5z" />
<glyph unicode="&#xb0;" horiz-adv-x="546" d="M403 1073q0 54 -34 97.5t-95 43.5q-60 0 -94.5 -42t-34.5 -99q0 -55 34.5 -95t94.5 -40q59 0 94 40.5t35 94.5zM70 1075q0 86 59.5 145.5t144.5 59.5t144 -59.5t59 -145.5q0 -85 -59 -144t-144 -59t-144.5 59t-59.5 144z" />
<glyph unicode="&#xb1;" horiz-adv-x="1079" d="M627 725h350v-152h-350v-333h-152v333h-350v152h350v336h152v-336zM954 164v-152h-809v152h809z" />
<glyph unicode="&#xb2;" horiz-adv-x="679" d="M176 1174q-35 0 -57.5 22t-22.5 49q0 24 11.5 49t37.5 52t77 44t120 17q66 0 118 -14.5t89 -54.5t37 -103q0 -93 -123 -197q-122 -93 -162 -136.5t-45 -84.5h258q21 55 31 96l65 -14l-30 -162h-504q0 30 8.5 56.5t21.5 49t47.5 57t66.5 63t99 86.5q53 46 80 88t27 94 q0 41 -19.5 69t-39.5 37t-35 9q-48 0 -75.5 -16.5t-27.5 -35.5q0 -16 2 -22q1 -3 3 -12t3 -15t1 -8q0 -29 -17.5 -46t-44.5 -17z" />
<glyph unicode="&#xb3;" horiz-adv-x="679" d="M403 1272q0 39 -21.5 59.5t-53.5 20.5q-25 0 -64.5 -20.5t-42.5 -49.5q0 -76 -61 -76q-23 0 -38 7t-21 17.5t-7.5 17t-1.5 12.5q0 17 12 39.5t38 48.5t81 43.5t129 17.5q99 0 153 -33.5t54 -93.5q0 -74 -100 -135q65 -17 109 -63t44 -119q0 -105 -94 -168.5t-235 -63.5 q-78 0 -143.5 20.5t-65.5 53.5q0 26 15.5 45.5t41.5 19.5t45 -8t26 -15t15 -20q10 -15 34.5 -24.5t51.5 -9.5q15 0 37 6t51 21t48.5 48.5t19.5 79.5q0 75 -41 103t-113 28q-17 0 -84 -14l-6 55q74 10 131 51t57 99z" />
<glyph unicode="&#xb4;" horiz-adv-x="698" d="M383 1446q12 4 33 4q77 0 116 -49l21 -47l-246 -221q-38 -33 -78 -33q-12 0 -22 9.5t-10 18.5q0 26 16 50z" />
<glyph unicode="&#xb5;" horiz-adv-x="1083" d="M666 98q-77 -62 -136.5 -92.5t-136.5 -30.5q-48 0 -94 19q1 -10 2 -83t8 -108q25 -110 25 -147q0 -64 -29 -97.5t-80 -33.5q-38 0 -83.5 40.5t-45.5 100.5q0 47 15 146q1 10 6 39t7 44.5t4.5 43t2.5 53.5q0 16 -2.5 51.5t-3.5 50.5q-2 17 -15.5 87t-13.5 100v381 q0 23 -5.5 79.5t-10.5 102.5l-6 45l241 26q7 -147 7 -213v-395q0 -100 28 -161.5t80 -61.5q62 0 131 35t103 82v688l225 29v-660q0 -35 1 -54.5t5 -45.5t12.5 -39.5t24.5 -23t39 -9.5q17 0 29 5t17 11.5t9 11.5t8 5q6 0 16.5 -15.5t10.5 -25.5q0 -7 -23 -29.5t-70 -45.5 t-98 -23q-90 0 -135.5 28.5t-64.5 89.5h-4z" />
<glyph unicode="&#xb6;" horiz-adv-x="1232" d="M1020 -295q0 -58 7.5 -84t23 -34t51.5 -9h59q13 0 13 -14v-43h-674v43q0 14 12 14h59q51 1 65.5 25t14.5 104v758q-52 -25 -157 -25q-56 0 -111.5 12t-116 45t-106.5 82.5t-75.5 132t-29.5 187.5q0 193 109 308.5t307 115.5q89 0 204 -5t130 -5l141 6l228 4v-43 q0 -14 -13 -14h-59q-53 0 -67.5 -26t-14.5 -101v-1434zM834 -424q41 0 53 28t12 99v1436q0 43 -4 69t-13.5 37t-17.5 13.5t-24 3.5q-19 0 -32.5 -8t-20 -18.5t-10.5 -30t-4.5 -34t-0.5 -38.5v-1426q0 -131 62 -131z" />
<glyph unicode="&#xb7;" horiz-adv-x="616" d="M309 391q-61 0 -100 40.5t-39 96.5q0 55 41.5 97.5t97.5 42.5q54 0 97 -41.5t43 -98.5q0 -56 -41 -96.5t-99 -40.5z" />
<glyph unicode="&#xb8;" horiz-adv-x="1107" d="M580 -170q-53 0 -93 -12l-12 12l100 184h70l-44 -116q16 4 65 4q64 0 106.5 -31.5t42.5 -87.5q0 -78 -73.5 -123.5t-173.5 -45.5q-46 0 -74.5 7.5t-72.5 27.5l23 54q35 -13 48 -17t32 -8t39 -4q47 0 75 22t28 62q0 28 -27.5 50t-58.5 22z" />
<glyph unicode="&#xb9;" horiz-adv-x="679" d="M289 885v270q0 52 -10 73t-35 21q-26 0 -103 -28l-20 53q11 4 46 17.5t46.5 18.5t39.5 16.5t44.5 20t41 22t48.5 28.5q19 12 34 12q21 0 21 -12q-4 -59 -4 -117v-395q0 -41 19.5 -58t68.5 -28l19 -4q16 -3 16 -17v-33l-4 -4q-117 4 -197 4l-188 -4l-4 4v33q0 14 16 17 l17 4q51 13 69.5 29t18.5 57z" />
<glyph unicode="&#xba;" horiz-adv-x="714" d="M80 879q0 131 75 205.5t207 74.5q73 0 127.5 -22t86 -61t46.5 -85t15 -100q0 -113 -74 -191.5t-211 -78.5q-115 0 -193.5 74t-78.5 184zM350 1098q-70 0 -107.5 -57t-37.5 -142q0 -83 43.5 -148t124.5 -65q23 0 45.5 7.5t45 25.5t36.5 54t14 87q0 115 -44.5 176.5 t-119.5 61.5z" />
<glyph unicode="&#xbb;" horiz-adv-x="1146" d="M426 -55v184q60 91 127 159t166 150q-93 74 -162.5 143t-130.5 164v191q163 -190 280.5 -298.5t221.5 -164.5v-67q-208 -144 -502 -461zM63 -55v184q62 92 130.5 161t164.5 148q-92 71 -162 141t-133 166v191q163 -190 280.5 -298.5t221.5 -164.5v-67 q-208 -144 -502 -461z" />
<glyph unicode="&#xbc;" horiz-adv-x="1351" d="M1090 1231l86 -17l-940 -1341l-84 16zM1231 322v-207h112l-6 -86h-106v-84q0 -30 9 -40.5t38 -10.5h33q8 0 8 -9v-51q-102 2 -168 2l-154 -2l9 51q0 9 8 9h30q29 0 38.5 9t9.5 40v86h-310l-24 24q106 155 321 455l76 -21l-256 -372h193v149q0 17 12 35q11 12 49.5 27.5 t52.5 15.5q25 0 25 -20zM283 784v271q0 52 -10 73t-35 21q-23 0 -103 -29l-20 54q13 5 54.5 21t56 22t45.5 19.5t56 27.5t54 32q21 13 34 13q21 0 21 -13q-4 -58 -4 -116v-396q0 -41 19.5 -58t68.5 -28l19 -4q16 -3 16 -16v-33l-4 -4q-117 4 -197 4l-188 -4l-4 4v33 q0 13 16 16l17 4q51 13 69.5 29t18.5 57z" />
<glyph unicode="&#xbd;" horiz-adv-x="1351" d="M1090 1231l86 -17l-940 -1341l-84 16zM909 266q-35 0 -57.5 22.5t-22.5 49.5q0 24 11.5 49t37.5 52t77 44t120 17q66 0 118 -14.5t89 -54.5t37 -103q0 -93 -123 -197q-122 -93 -162 -136.5t-45 -84.5h258q21 55 31 96l65 -14l-30 -162h-504q0 30 9 56.5t21 48t48.5 57.5 t66.5 63t99 86q52 46 79 88.5t27 94.5q0 31 -11 55t-27.5 36t-31 17.5t-24.5 5.5q-48 0 -75 -16t-27 -35q0 -16 2 -22q6 -30 6 -35q0 -29 -17.5 -46.5t-44.5 -17.5zM287 784v271q0 52 -10 73t-35 21q-23 0 -103 -29l-20 54q13 5 54.5 21t56 22t45.5 19.5t56 27.5t54 32 q21 13 34 13q21 0 21 -13q-4 -58 -4 -116v-396q0 -41 19.5 -58t68.5 -28l19 -4q16 -3 16 -16v-33l-4 -4q-117 4 -197 4l-188 -4l-4 4v33q0 13 16 16l17 4q51 13 69.5 29t18.5 57z" />
<glyph unicode="&#xbe;" horiz-adv-x="1351" d="M1090 1231l86 -17l-940 -1341l-84 16zM399 1167q0 39 -21.5 59.5t-53.5 20.5q-26 0 -65 -20t-42 -49q0 -76 -61 -76q-23 0 -38 6.5t-21 17.5t-7.5 17t-1.5 12q0 13 6.5 30t24.5 38.5t45.5 39.5t75.5 30t108 12q99 0 153 -33.5t54 -93.5q0 -75 -100 -136q65 -17 109 -63 t44 -119q0 -105 -93.5 -168t-235.5 -63q-78 0 -143.5 20t-65.5 53q0 27 15.5 46.5t41.5 19.5t45 -8t26 -15t15 -20q10 -15 35 -25t51 -10q11 0 27.5 3t40 13.5t42.5 26.5t32.5 45.5t13.5 67.5q0 75 -41 103t-113 28q-17 0 -84 -14l-6 55q74 10 131 50.5t57 98.5zM1239 326 v-207h113l-6 -86h-107v-84q0 -30 9 -40.5t38 -10.5h33q8 0 8 -9v-51q-102 2 -168 2l-153 -2l8 51q0 9 8 9h31q29 0 38 9t9 40v86h-309l-25 24q106 155 321 455l76 -20l-256 -373h193v149q0 17 12 35q11 12 49.5 27.5t52.5 15.5q25 0 25 -20z" />
<glyph unicode="&#xbf;" horiz-adv-x="880" d="M571 -289q0 20 -9 51t-9 60q0 38 31 61t78 23q42 0 79 -32.5t37 -86.5q0 -51 -26 -90.5t-82 -85.5q-96 -80 -281 -80q-174 0 -276.5 85.5t-102.5 227.5q0 44 16 86t35 71t56.5 64.5t59.5 53t65 49.5q27 19 44.5 35.5t38.5 45.5t31.5 70t10.5 93v47q0 37 13.5 53t57.5 16 t57 -15.5t13 -53.5v-51q0 -41 -3.5 -71t-16.5 -75.5t-46 -93t-84 -94.5q-112 -98 -112 -244q0 -97 41.5 -161t122.5 -64q67 0 114 31.5t47 74.5zM553 788q0 -47 -34 -80.5t-81 -33.5t-80.5 33.5t-33.5 80.5q0 46 33.5 79.5t80.5 33.5t81 -33.5t34 -79.5z" />
<glyph unicode="&#xc0;" horiz-adv-x="1431" d="M582 1675l247 -172q31 -22 31 -43q0 -30 -31 -30q-28 0 -88 24l-315 129zM518 590h307l-170 463l-176 -439q0 -15 6.5 -19.5t32.5 -4.5zM303 162q-11 -30 -12 -50.5t24.5 -32t83.5 -11.5q25 0 34 -4.5t9 -16.5v-41l-10 -8q-188 4 -237 4l-175 -4l-16 6v43q0 14 9.5 17.5 t31.5 3.5q35 0 74 30t63 88l457 1098q13 33 38.5 48.5t47.5 15.5q68 0 92 -64l414 -1098q23 -61 47.5 -89.5t60.5 -28.5h58q22 0 26 -4t4 -17v-41l-10 -8q-196 4 -274 4l-295 -4l-17 10v39q0 21 54 21h55q51 0 51 53q0 23 -4 29l-127 344h-377q-32 0 -43 -4.5t-20 -24.5z " />
<glyph unicode="&#xc1;" horiz-adv-x="1431" d="M854 1679l127 -106l-295 -119q-57 -24 -88 -24q-29 0 -29 30q0 22 31 43zM518 590h307l-170 463l-176 -439q0 -15 6.5 -19.5t32.5 -4.5zM303 162q-11 -30 -12 -50.5t24.5 -32t83.5 -11.5q25 0 34 -4.5t9 -16.5v-41l-10 -8q-188 4 -237 4l-175 -4l-16 6v43q0 14 9.5 17.5 t31.5 3.5q35 0 74 30t63 88l457 1098q13 33 38.5 48.5t47.5 15.5q68 0 92 -64l414 -1098q23 -61 47.5 -89.5t60.5 -28.5h58q22 0 26 -4t4 -17v-41l-10 -8q-196 4 -274 4l-295 -4l-17 10v39q0 21 54 21h55q51 0 51 53q0 23 -4 29l-127 344h-377q-32 0 -43 -4.5t-20 -24.5z " />
<glyph unicode="&#xc2;" horiz-adv-x="1431" d="M776 1649q83 -101 207 -193l-33 -43q-124 58 -217 127q-104 -76 -219 -127l-29 43q90 68 203 193h88zM518 590h307l-170 463l-176 -439q0 -15 6.5 -19.5t32.5 -4.5zM303 162q-11 -30 -12 -50.5t24.5 -32t83.5 -11.5q25 0 34 -4.5t9 -16.5v-41l-10 -8q-188 4 -237 4 l-175 -4l-16 6v43q0 14 9.5 17.5t31.5 3.5q35 0 74 30t63 88l457 1098q13 33 38.5 48.5t47.5 15.5q68 0 92 -64l414 -1098q23 -61 47.5 -89.5t60.5 -28.5h58q22 0 26 -4t4 -17v-41l-10 -8q-196 4 -274 4l-295 -4l-17 10v39q0 21 54 21h55q51 0 51 53q0 23 -4 29l-127 344 h-377q-32 0 -43 -4.5t-20 -24.5z" />
<glyph unicode="&#xc3;" horiz-adv-x="1431" d="M895 1532q36 0 57.5 23.5t42.5 95.5l58 -21q-43 -221 -187 -221q-52 0 -133 61q-82 54 -119 54q-40 0 -61 -24t-39 -85l-53 17q23 108 63 162.5t107 54.5q69 0 151 -66q65 -51 113 -51zM518 590h307l-170 463l-176 -439q0 -15 6.5 -19.5t32.5 -4.5zM303 162 q-11 -30 -12 -50.5t24.5 -32t83.5 -11.5q25 0 34 -4.5t9 -16.5v-41l-10 -8q-188 4 -237 4l-175 -4l-16 6v43q0 14 9.5 17.5t31.5 3.5q35 0 74 30t63 88l457 1098q13 33 38.5 48.5t47.5 15.5q68 0 92 -64l414 -1098q23 -61 47.5 -89.5t60.5 -28.5h58q22 0 26 -4t4 -17v-41 l-10 -8q-196 4 -274 4l-295 -4l-17 10v39q0 21 54 21h55q51 0 51 53q0 23 -4 29l-127 344h-377q-32 0 -43 -4.5t-20 -24.5z" />
<glyph unicode="&#xc4;" horiz-adv-x="1431" d="M348 1391q0 46 32.5 78t78.5 32t77 -32t31 -78t-31.5 -78.5t-76.5 -32.5q-46 0 -78.5 32.5t-32.5 78.5zM887 1391q0 46 32 78t78 32t77.5 -32t31.5 -78t-31.5 -78.5t-77.5 -32.5t-78 32.5t-32 78.5zM518 590h307l-170 463l-176 -439q0 -15 6.5 -19.5t32.5 -4.5zM303 162 q-11 -30 -12 -50.5t24.5 -32t83.5 -11.5q25 0 34 -4.5t9 -16.5v-41l-10 -8q-188 4 -237 4l-175 -4l-16 6v43q0 14 9.5 17.5t31.5 3.5q35 0 74 30t63 88l457 1098q13 33 38.5 48.5t47.5 15.5q68 0 92 -64l414 -1098q23 -61 47.5 -89.5t60.5 -28.5h58q22 0 26 -4t4 -17v-41 l-10 -8q-196 4 -274 4l-295 -4l-17 10v39q0 21 54 21h55q51 0 51 53q0 23 -4 29l-127 344h-377q-32 0 -43 -4.5t-20 -24.5z" />
<glyph unicode="&#xc5;" horiz-adv-x="1431" d="M733 1569q-42 0 -71 -32t-29 -75q0 -41 28.5 -72.5t71.5 -31.5t72 31.5t29 72.5q0 44 -30 75.5t-71 31.5zM559 1462q0 70 51 120t123 50q70 0 123 -49.5t53 -120.5q0 -50 -28.5 -91.5t-75.5 -62.5q7 -10 12 -24l414 -1098q23 -61 47.5 -89.5t60.5 -28.5h58q22 0 26 -4 t4 -17v-41l-10 -8q-196 4 -274 4l-295 -4l-17 10v39q0 21 54 21h55q51 0 51 53q0 23 -4 29l-127 344h-377q-32 0 -43 -4.5t-20 -24.5l-117 -303q-11 -30 -12 -50.5t24.5 -32t83.5 -11.5q25 0 34 -4.5t9 -16.5v-41l-10 -8q-188 4 -237 4l-175 -4l-16 6v43q0 14 9.5 17.5 t31.5 3.5q35 0 74 30t63 88l457 1098q5 12 16 27q-43 22 -69.5 62.5t-26.5 88.5zM518 590h307l-170 463l-176 -439q0 -15 6.5 -19.5t32.5 -4.5z" />
<glyph unicode="&#xc6;" horiz-adv-x="1863" d="M596 625h324v491q0 27 -7.5 39t-21.5 3.5t-31 -40.5zM1057 2l-316 -4l-4 4v45q0 21 17 21h55q60 0 85.5 22.5t25.5 67.5v387h-365l-217 -406q-23 -40 7.5 -55.5t92.5 -15.5q5 0 9 -4.5t4 -8.5v-53l-5 -4q-153 4 -233 4l-205 -4l-4 4v49q0 17 21 17h47q48 0 72 12.5 t51 62.5l530 1008q28 54 -2 79t-105 25q-16 0 -16 15v51l4 2h453h661q9 -135 43 -330l-82 -18q-11 39 -20.5 67.5t-28.5 66.5t-40.5 62.5t-55 42t-72.5 17.5h-266q-29 0 -29 -60v-421h234q33 0 46 33.5t24 111.5q0 7 9 15t23 8h43l13 -21q-15 -124 -15 -190q0 -60 15 -191 l-13 -18h-43q-14 0 -23 6.5t-9 13.5q-6 40 -9.5 59.5t-11.5 43.5t-19.5 33.5t-29.5 9.5h-234v-508q0 -60 29 -60h313q81 0 138.5 76t83.5 197l90 -21q-26 -122 -58 -346h-708z" />
<glyph unicode="&#xc7;" horiz-adv-x="1363" d="M713 -178q-52 0 -92 -12l-13 12l87 160q-153 10 -275 71t-197 154t-114 205t-39 233q0 148 55 279.5t148.5 224t221 146t267.5 53.5q92 0 169 -14t117.5 -31.5t83.5 -31.5t76 -14q10 -148 45 -346l-77 -16q-21 66 -42 114t-55.5 99t-76 83t-103 52.5t-137.5 20.5 q-61 0 -120.5 -21t-115 -67t-97.5 -112t-67.5 -164t-25.5 -216q0 -112 26.5 -219t77 -196.5t133 -144t185.5 -54.5q129 0 243.5 56.5t229.5 186.5l61 -49q-212 -281 -524 -284l-34 -91q20 5 66 5q64 0 106 -31.5t42 -87.5q0 -78 -73.5 -123.5t-173.5 -45.5q-46 0 -74.5 7.5 t-72.5 27.5l24 54q72 -26 101 -28q8 -1 17 -1q47 0 75 22t28 62q0 28 -27.5 50t-58.5 22z" />
<glyph unicode="&#xc8;" horiz-adv-x="1150" d="M502 1673l248 -172q30 -21 30 -43q0 -31 -30 -31q-25 0 -88 25l-316 129zM55 0l-6 4v45q0 9 5.5 14t11.5 5h28q62 0 87.5 20.5t25.5 69.5v1007q0 49 -25.5 69.5t-87.5 20.5h-28q-6 0 -11.5 5t-5.5 12v47l6 4h955q11 -167 43 -332l-82 -18q-11 39 -20.5 67.5t-28.5 66.5 t-40.5 62.5t-55 42t-72.5 17.5h-267q-28 0 -28 -60v-421h231q18 0 30.5 9.5t20.5 33.5t11.5 43t9.5 59q0 7 9.5 14.5t23.5 7.5h43l12 -20q-14 -115 -14 -190q0 -69 14 -191l-12 -18h-43q-14 0 -23.5 6.5t-9.5 13.5q-6 40 -9.5 59.5t-11.5 43.5t-20.5 33.5t-30.5 9.5h-231 v-508q0 -60 28 -60h314q80 0 136.5 75.5t84.5 197.5l88 -21q-36 -198 -55 -346h-1000z" />
<glyph unicode="&#xc9;" horiz-adv-x="1150" d="M717 1679l127 -106l-295 -119q-57 -24 -88 -24q-29 0 -29 30q0 22 31 43zM55 0l-6 4v45q0 9 5.5 14t11.5 5h28q62 0 87.5 20.5t25.5 69.5v1007q0 49 -25.5 69.5t-87.5 20.5h-28q-6 0 -11.5 5t-5.5 12v47l6 4h955q11 -167 43 -332l-82 -18q-11 39 -20.5 67.5t-28.5 66.5 t-40.5 62.5t-55 42t-72.5 17.5h-267q-28 0 -28 -60v-421h231q18 0 30.5 9.5t20.5 33.5t11.5 43t9.5 59q0 7 9.5 14.5t23.5 7.5h43l12 -20q-14 -115 -14 -190q0 -69 14 -191l-12 -18h-43q-14 0 -23.5 6.5t-9.5 13.5q-6 40 -9.5 59.5t-11.5 43.5t-20.5 33.5t-30.5 9.5h-231 v-508q0 -60 28 -60h314q80 0 136.5 75.5t84.5 197.5l88 -21q-36 -198 -55 -346h-1000z" />
<glyph unicode="&#xca;" horiz-adv-x="1150" d="M649 1649q83 -101 207 -193l-33 -43q-124 58 -217 127q-104 -76 -219 -127l-29 43q90 68 203 193h88zM55 0l-6 4v45q0 9 5.5 14t11.5 5h28q62 0 87.5 20.5t25.5 69.5v1007q0 49 -25.5 69.5t-87.5 20.5h-28q-6 0 -11.5 5t-5.5 12v47l6 4h955q11 -167 43 -332l-82 -18 q-11 39 -20.5 67.5t-28.5 66.5t-40.5 62.5t-55 42t-72.5 17.5h-267q-28 0 -28 -60v-421h231q18 0 30.5 9.5t20.5 33.5t11.5 43t9.5 59q0 7 9.5 14.5t23.5 7.5h43l12 -20q-14 -115 -14 -190q0 -69 14 -191l-12 -18h-43q-14 0 -23.5 6.5t-9.5 13.5q-6 40 -9.5 59.5t-11.5 43.5 t-20.5 33.5t-30.5 9.5h-231v-508q0 -60 28 -60h314q80 0 136.5 75.5t84.5 197.5l88 -21q-36 -198 -55 -346h-1000z" />
<glyph unicode="&#xcb;" horiz-adv-x="1150" d="M287 1530q0 46 32 78t78 32t77.5 -32t31.5 -78t-31.5 -77.5t-77.5 -31.5t-78 31.5t-32 77.5zM672 1530q0 46 32 78t78 32t77.5 -32t31.5 -78t-31.5 -77.5t-77.5 -31.5t-78 31.5t-32 77.5zM55 0l-6 4v45q0 9 5.5 14t11.5 5h28q62 0 87.5 20.5t25.5 69.5v1007 q0 49 -25.5 69.5t-87.5 20.5h-28q-6 0 -11.5 5t-5.5 12v47l6 4h955q11 -167 43 -332l-82 -18q-11 39 -20.5 67.5t-28.5 66.5t-40.5 62.5t-55 42t-72.5 17.5h-267q-28 0 -28 -60v-421h231q18 0 30.5 9.5t20.5 33.5t11.5 43t9.5 59q0 7 9.5 14.5t23.5 7.5h43l12 -20 q-14 -115 -14 -190q0 -69 14 -191l-12 -18h-43q-14 0 -23.5 6.5t-9.5 13.5q-6 40 -9.5 59.5t-11.5 43.5t-20.5 33.5t-30.5 9.5h-231v-508q0 -60 28 -60h314q80 0 136.5 75.5t84.5 197.5l88 -21q-36 -198 -55 -346h-1000z" />
<glyph unicode="&#xcc;" horiz-adv-x="653" d="M203 1673l248 -172q30 -21 30 -43q0 -31 -30 -31q-27 0 -89 25l-315 129zM453 156q0 -45 25.5 -67.5t86.5 -22.5h29q16 0 16 -19v-47l-4 -4q-204 4 -278 4l-279 -4l-4 4v47q0 19 16 19h29q62 0 87.5 20.5t25.5 69.5v1009q0 49 -25.5 69.5t-87.5 20.5h-29q-6 0 -11 5 t-5 12v49l4 4q199 -4 279 -4l278 4l4 -4v-49q0 -17 -16 -17h-29q-61 0 -86.5 -22.5t-25.5 -67.5v-1009z" />
<glyph unicode="&#xcd;" horiz-adv-x="653" d="M430 1677l127 -106l-295 -119q-60 -25 -88 -25q-29 0 -29 31q0 22 31 43zM453 156q0 -45 25.5 -67.5t86.5 -22.5h29q16 0 16 -19v-47l-4 -4q-204 4 -278 4l-279 -4l-4 4v47q0 19 16 19h29q62 0 87.5 20.5t25.5 69.5v1009q0 49 -25.5 69.5t-87.5 20.5h-29q-6 0 -11 5 t-5 12v49l4 4q199 -4 279 -4l278 4l4 -4v-49q0 -17 -16 -17h-29q-61 0 -86.5 -22.5t-25.5 -67.5v-1009z" />
<glyph unicode="&#xce;" horiz-adv-x="653" d="M342 1649q83 -101 207 -193l-33 -43q-124 58 -217 127q-104 -76 -219 -127l-29 43q90 68 203 193h88zM453 156q0 -45 25.5 -67.5t86.5 -22.5h29q16 0 16 -19v-47l-4 -4q-204 4 -278 4l-279 -4l-4 4v47q0 19 16 19h29q62 0 87.5 20.5t25.5 69.5v1009q0 49 -25.5 69.5 t-87.5 20.5h-29q-6 0 -11 5t-5 12v49l4 4q199 -4 279 -4l278 4l4 -4v-49q0 -17 -16 -17h-29q-61 0 -86.5 -22.5t-25.5 -67.5v-1009z" />
<glyph unicode="&#xcf;" horiz-adv-x="653" d="M453 156q0 -45 25.5 -67.5t86.5 -22.5h29q16 0 16 -19v-47l-4 -4q-204 4 -278 4l-279 -4l-4 4v47q0 19 16 19h29q62 0 87.5 20.5t25.5 69.5v1009q0 49 -25.5 69.5t-87.5 20.5h-29q-6 0 -11 5t-5 12v49l4 4q199 -4 279 -4l278 4l4 -4v-49q0 -17 -16 -17h-29 q-61 0 -86.5 -22.5t-25.5 -67.5v-1009zM25 1552q0 46 32 78.5t78 32.5t77.5 -32.5t31.5 -78.5t-31.5 -77t-77.5 -31t-78 31t-32 77zM410 1552q0 46 32 78.5t78 32.5t77.5 -32.5t31.5 -78.5t-31.5 -77t-77.5 -31t-78 31t-32 77z" />
<glyph unicode="&#xd0;" horiz-adv-x="1470" d="M453 154q0 -32 11.5 -45.5t48 -20t118.5 -6.5q84 0 152.5 13t133.5 47.5t109.5 89.5t71 144t26.5 206q0 97 -17.5 187.5t-58.5 177.5t-102 151.5t-155 103.5t-211 39q-65 0 -96 -13.5t-31 -58.5v-487h137v-94h-137v-434zM49 0l-4 4v45q0 19 16 19h29q62 0 87.5 20.5 t25.5 69.5v430h-168v94h168v483q0 49 -25.5 69.5t-87.5 20.5h-29q-6 0 -11 5t-5 12v47l4 4h606q204 0 374.5 -93t268 -251.5t97.5 -345.5q0 -145 -44.5 -258.5t-114.5 -182.5t-165.5 -113.5t-187.5 -61.5t-191 -17h-643z" />
<glyph unicode="&#xd1;" horiz-adv-x="1454" d="M885 1528q36 0 57.5 23.5t42.5 95.5l57 -21q-43 -221 -186 -221q-52 0 -133 61q-82 54 -119 54q-40 0 -61 -24t-39 -85l-53 16q23 109 63 163.5t107 54.5q69 0 151 -66q65 -51 113 -51zM1118 1165q0 49 -25 69.5t-85 20.5h-29q-18 0 -18 17v49l4 2q139 -2 219 -2l219 2 l4 -2v-49q0 -17 -16 -17h-29q-61 0 -87 -22.5t-26 -67.5v-1114q0 -76 -78 -76q-55 0 -96 56l-717 932v-807q0 -45 26 -67.5t87 -22.5h29q16 0 16 -19v-47l-4 -4q-149 4 -221 4l-232 -4l-4 4v47q0 9 5.5 14t11.5 5h28q129 0 129 90v991q-20 27 -30 39.5t-29.5 32t-40 28 t-43.5 8.5q-24 0 -32.5 5.5t-8.5 17.5v39l6 6h297l770 -979v821z" />
<glyph unicode="&#xd2;" horiz-adv-x="1495" d="M623 1677l247 -172q31 -22 31 -43q0 -30 -31 -30q-28 0 -88 24l-315 129zM719 1264q-54 0 -106 -21t-101 -67.5t-86 -114t-59.5 -168t-22.5 -221.5q0 -280 127 -444.5t315 -164.5q159 0 262 155.5t103 416.5q0 151 -35 273t-95 198.5t-137 117t-165 40.5zM1421 674 q0 -204 -82 -361t-236 -245t-358 -88q-140 0 -262 46t-212.5 129.5t-142.5 208t-52 273.5q0 199 85 361t238 256t344 94q108 0 209.5 -30.5t186 -89.5t148 -140t99 -187.5t35.5 -226.5z" />
<glyph unicode="&#xd3;" horiz-adv-x="1495" d="M793 1679l127 -106l-295 -119q-57 -24 -88 -24q-29 0 -29 30q0 22 31 43zM719 1264q-54 0 -106 -21t-101 -67.5t-86 -114t-59.5 -168t-22.5 -221.5q0 -280 127 -444.5t315 -164.5q159 0 262 155.5t103 416.5q0 151 -35 273t-95 198.5t-137 117t-165 40.5zM1421 674 q0 -204 -82 -361t-236 -245t-358 -88q-140 0 -262 46t-212.5 129.5t-142.5 208t-52 273.5q0 199 85 361t238 256t344 94q108 0 209.5 -30.5t186 -89.5t148 -140t99 -187.5t35.5 -226.5z" />
<glyph unicode="&#xd4;" horiz-adv-x="1495" d="M754 1649q83 -101 207 -193l-33 -43q-124 58 -217 127q-104 -76 -219 -127l-29 43q90 68 203 193h88zM719 1264q-54 0 -106 -21t-101 -67.5t-86 -114t-59.5 -168t-22.5 -221.5q0 -280 127 -444.5t315 -164.5q159 0 262 155.5t103 416.5q0 151 -35 273t-95 198.5t-137 117 t-165 40.5zM1421 674q0 -204 -82 -361t-236 -245t-358 -88q-140 0 -262 46t-212.5 129.5t-142.5 208t-52 273.5q0 199 85 361t238 256t344 94q108 0 209.5 -30.5t186 -89.5t148 -140t99 -187.5t35.5 -226.5z" />
<glyph unicode="&#xd5;" horiz-adv-x="1495" d="M870 1528q36 0 58 24t43 95l57 -21q-43 -221 -186 -221q-52 0 -133 61q-82 54 -119 54q-40 0 -61.5 -24.5t-39.5 -84.5l-53 16q23 109 63 163.5t107 54.5q70 0 152 -66q65 -51 112 -51zM719 1264q-54 0 -106 -21t-101 -67.5t-86 -114t-59.5 -168t-22.5 -221.5 q0 -280 127 -444.5t315 -164.5q159 0 262 155.5t103 416.5q0 151 -35 273t-95 198.5t-137 117t-165 40.5zM1421 674q0 -204 -82 -361t-236 -245t-358 -88q-140 0 -262 46t-212.5 129.5t-142.5 208t-52 273.5q0 199 85 361t238 256t344 94q108 0 209.5 -30.5t186 -89.5 t148 -140t99 -187.5t35.5 -226.5z" />
<glyph unicode="&#xd6;" horiz-adv-x="1495" d="M154 1391q0 46 32 78t78 32t77.5 -32t31.5 -78t-31.5 -78.5t-77.5 -32.5t-78 32.5t-32 78.5zM1126 1391q0 46 32.5 78t78.5 32t77.5 -32t31.5 -78t-31.5 -78.5t-77.5 -32.5t-78.5 32.5t-32.5 78.5zM719 1264q-54 0 -106 -21t-101 -67.5t-86 -114t-59.5 -168t-22.5 -221.5 q0 -280 127 -444.5t315 -164.5q159 0 262 155.5t103 416.5q0 151 -35 273t-95 198.5t-137 117t-165 40.5zM1421 674q0 -204 -82 -361t-236 -245t-358 -88q-140 0 -262 46t-212.5 129.5t-142.5 208t-52 273.5q0 199 85 361t238 256t344 94q108 0 209.5 -30.5t186 -89.5 t148 -140t99 -187.5t35.5 -226.5z" />
<glyph unicode="&#xd7;" horiz-adv-x="1079" d="M627 475l245 -248l-88 -86l-247 242l-242 -242l-84 86l242 238l-242 244l90 96l244 -246l237 246l90 -86z" />
<glyph unicode="&#xd8;" horiz-adv-x="1495" d="M180 -92l-74 63l157 193q-187 182 -187 473q0 199 85 361t238 256t344 94q215 0 389 -116l113 140l76 -59l-113 -140q101 -91 157 -218.5t56 -280.5q0 -204 -82 -361t-236 -245t-358 -88q-232 0 -407 122zM719 1264q-54 0 -106 -21t-101 -67.5t-86 -114t-59.5 -168 t-22.5 -221.5q0 -191 62 -332l619 761q-58 80 -137.5 121.5t-168.5 41.5zM1077 1013l-620 -765q61 -90 146 -137.5t183 -47.5q159 0 262 155.5t103 416.5q0 220 -74 378z" />
<glyph unicode="&#xd9;" horiz-adv-x="1388" d="M567 1675l248 -172q31 -22 31 -43q0 -30 -31 -30q-28 0 -88 24l-315 129zM1067 1165q0 49 -26 69.5t-87 20.5h-28q-8 0 -13.5 5t-5.5 12v49l4 2q150 -2 230 -2l229 2l4 -2v-49q0 -17 -16 -17h-29q-61 0 -86.5 -22.5t-25.5 -67.5v-561q0 -83 -5.5 -149.5t-21 -133 t-40.5 -116.5t-66 -94t-96 -71.5t-131.5 -43.5t-172.5 -16q-64 0 -130 14.5t-136 51.5t-123.5 92.5t-88 145t-34.5 201.5v680q0 49 -25.5 69.5t-85.5 20.5h-28q-8 0 -13.5 5t-5.5 12v49l4 2q199 -2 281 -2l276 2l5 -2v-49q0 -17 -17 -17h-28q-60 0 -85.5 -22.5t-25.5 -67.5 v-612q0 -69 2 -107.5t9.5 -98t28.5 -104.5t54 -79q105 -101 209 -101q63 0 113.5 17t85.5 44.5t61 68.5t41 83.5t24 96t12 98.5t3 98v596z" />
<glyph unicode="&#xda;" horiz-adv-x="1388" d="M831 1677l127 -106l-294 -119q-60 -25 -89 -25q-28 0 -28 31q0 22 31 43zM1067 1165q0 49 -26 69.5t-87 20.5h-28q-8 0 -13.5 5t-5.5 12v49l4 2q150 -2 230 -2l229 2l4 -2v-49q0 -17 -16 -17h-29q-61 0 -86.5 -22.5t-25.5 -67.5v-561q0 -83 -5.5 -149.5t-21 -133 t-40.5 -116.5t-66 -94t-96 -71.5t-131.5 -43.5t-172.5 -16q-64 0 -130 14.5t-136 51.5t-123.5 92.5t-88 145t-34.5 201.5v680q0 49 -25.5 69.5t-85.5 20.5h-28q-8 0 -13.5 5t-5.5 12v49l4 2q199 -2 281 -2l276 2l5 -2v-49q0 -17 -17 -17h-28q-60 0 -85.5 -22.5t-25.5 -67.5 v-612q0 -69 2 -107.5t9.5 -98t28.5 -104.5t54 -79q105 -101 209 -101q63 0 113.5 17t85.5 44.5t61 68.5t41 83.5t24 96t12 98.5t3 98v596z" />
<glyph unicode="&#xdb;" horiz-adv-x="1388" d="M760 1649q83 -101 207 -193l-33 -43q-124 58 -217 127q-104 -76 -219 -127l-29 43q90 68 203 193h88zM1067 1165q0 49 -26 69.5t-87 20.5h-28q-8 0 -13.5 5t-5.5 12v49l4 2q150 -2 230 -2l229 2l4 -2v-49q0 -17 -16 -17h-29q-61 0 -86.5 -22.5t-25.5 -67.5v-561 q0 -83 -5.5 -149.5t-21 -133t-40.5 -116.5t-66 -94t-96 -71.5t-131.5 -43.5t-172.5 -16q-64 0 -130 14.5t-136 51.5t-123.5 92.5t-88 145t-34.5 201.5v680q0 49 -25.5 69.5t-85.5 20.5h-28q-8 0 -13.5 5t-5.5 12v49l4 2q199 -2 281 -2l276 2l5 -2v-49q0 -17 -17 -17h-28 q-60 0 -85.5 -22.5t-25.5 -67.5v-612q0 -69 2 -107.5t9.5 -98t28.5 -104.5t54 -79q105 -101 209 -101q63 0 113.5 17t85.5 44.5t61 68.5t41 83.5t24 96t12 98.5t3 98v596z" />
<glyph unicode="&#xdc;" horiz-adv-x="1388" d="M424 1165v-616q0 -54 0.5 -79.5t5 -79t13.5 -87.5t28.5 -74.5t46.5 -68.5q105 -101 209 -101q63 0 113.5 17t85.5 44.5t61 68.5t41 83.5t24 96t12 98.5t3 98v600q0 43 -13.5 66.5t-27.5 23.5q-10 0 -10 27v39l4 4q41 -4 121 -4l229 4l4 -4v-49q0 -17 -16 -17h-29 q-61 0 -86.5 -21.5t-25.5 -68.5v-565q1 -118 -10.5 -206t-46 -170.5t-92.5 -134.5t-154.5 -83t-229.5 -31q-64 0 -130 14.5t-136 52t-123.5 93t-88 145t-34.5 201.5v684q0 50 -25 70t-86 20h-28q-8 0 -13.5 5t-5.5 12v49l4 4q199 -4 281 -4l143 4l4 -4v-35q0 -31 -6 -31 t-9 -5t-5 -25.5t-2 -59.5zM481 1391q0 46 32.5 78t78.5 32t77 -32t31 -78t-31.5 -78.5t-76.5 -32.5q-46 0 -78.5 32.5t-32.5 78.5zM768 1391q0 46 32.5 78t78.5 32t77 -32t31 -78t-31.5 -78.5t-76.5 -32.5q-46 0 -78.5 32.5t-32.5 78.5z" />
<glyph unicode="&#xdd;" horiz-adv-x="1263" d="M737 1679l127 -106l-295 -119q-57 -24 -88 -24q-28 0 -28 30q0 23 30 43zM520 147v428l-321 558q-49 82 -77.5 102t-74.5 20h-24q-23 0 -23 15v51l4 4q233 -4 260 -4l234 4l4 -4v-49q0 -17 -15 -17q-43 0 -63.5 -2t-32 -10t-8 -22.5t19.5 -40.5l285 -496l262 496 q17 31 -8 53t-80 22q-12 0 -12 15v51l4 4q161 -4 186 -4l220 4l4 -4v-49q0 -17 -21 -17h-43q-48 0 -74 -15.5t-51 -63.5l-305 -576v-453q0 -46 25.5 -62.5t87.5 -16.5h55q16 0 16 -19v-47l-4 -4q-223 4 -303 4l-305 -4l-2 4v47q0 19 14 19h56q62 0 86 18t24 61z" />
<glyph unicode="&#xde;" horiz-adv-x="1200" d="M453 977v-590q36 -8 145 -8q60 0 107 14t89 48t64.5 100t22.5 161q0 302 -246 302q-61 0 -182 -27zM328 2l-279 -4l-4 4v47q0 19 16 19h29q62 0 87.5 20.5t25.5 69.5v1007q0 49 -25.5 69.5t-87.5 20.5h-29q-6 0 -11 5t-5 12v49l4 2q205 -2 285 -2l297 2l4 -2v-49 q0 -17 -17 -17h-53q-61 0 -86.5 -21.5t-25.5 -66.5v-100q76 4 206 4q109 0 194 -25t136 -63t84 -89t45 -97.5t12 -94.5q0 -49 -16.5 -100.5t-55 -105t-94 -95t-141.5 -68t-190 -26.5q-139 0 -180 15v-164q0 -48 25.5 -69t86.5 -21h53q19 0 19 -19v-47l-4 -4q-225 4 -305 4z " />
<glyph unicode="&#xdf;" horiz-adv-x="1187" d="M188 987q0 96 35 174.5t88.5 127t120 81.5t126.5 46.5t112 13.5q149 0 244.5 -73t95.5 -155q0 -29 -7.5 -57t-17 -50t-30.5 -48.5t-35.5 -42.5t-46 -42.5t-47 -39t-53.5 -41t-52 -39.5v-4q144 -95 191 -133q194 -155 205 -328q1 -11 1 -23q0 -159 -103.5 -266.5 t-246.5 -107.5q-61 0 -106 19t-69.5 50.5t-36 66t-11.5 70.5q0 24 24.5 53t48.5 29q33 0 58.5 -19t25.5 -48q0 -17 -12 -45t-12 -47q0 -56 90 -56q100 0 100 266q0 141 -70.5 266.5t-201.5 225.5v27q102 79 140 152t38 186q0 94 -23.5 136t-99.5 42q-62 0 -106.5 -25.5 t-69 -64.5t-39 -100.5t-18.5 -117t-4 -131.5v-729q0 -106 90 -120q16 -2 16 -19v-47l-4 -4q-139 4 -219 4l-248 -4l-4 4v47q0 17 16 19l39 4q52 5 70 24t18 64v618q0 14 -1.5 20t-8 9.5t-20.5 3.5h-90q-13 0 -13 10v29q0 15 11.5 28t35.5 13q86 0 86 98z" />
<glyph unicode="&#xe0;" horiz-adv-x="974" d="M442 1380l142 -254q18 -32 18 -53q0 -13 -10.5 -23t-24.5 -10q-25 0 -71 41l-248 215l4 23q18 21 59.5 43t89.5 22q25 0 41 -4zM575 98q-135 -118 -256 -118q-130 0 -187.5 53t-57.5 162q0 59 24.5 104t76 78.5t109 56.5t146.5 49l148 43q0 76 -7 131.5t-18.5 88.5 t-30.5 52.5t-39.5 26t-48.5 6.5q-61 0 -103 -19t-42 -52q0 -22 6 -50t6 -38q0 -24 -33 -51t-73 -27q-53 0 -75 22t-22 64q0 58 60 112.5t144.5 85.5t160.5 31q70 0 124.5 -14.5t105 -51t78.5 -109.5t28 -179v-297q0 -35 1 -54.5t5 -45.5t12.5 -39.5t24.5 -23t39 -9.5 q17 0 29 5t17 11.5t9 11.5t8 5q6 0 16.5 -15.5t10.5 -25.5q0 -7 -23 -29.5t-70 -45.5t-98 -23q-90 0 -135.5 28.5t-64.5 89.5h-5zM578 174v275l-117 -35q-101 -30 -136.5 -74.5t-35.5 -114.5q0 -133 129 -133q26 0 72.5 24.5t87.5 57.5z" />
<glyph unicode="&#xe1;" horiz-adv-x="974" d="M524 1380q12 4 33 4q41 0 71.5 -15t45.5 -34l20 -47l-245 -221q-38 -33 -78 -33q-12 0 -22.5 10t-10.5 19q0 25 16 49zM575 98q-135 -118 -256 -118q-130 0 -187.5 53t-57.5 162q0 59 24.5 104t76 78.5t109 56.5t146.5 49l148 43q0 76 -7 131.5t-18.5 88.5t-30.5 52.5 t-39.5 26t-48.5 6.5q-61 0 -103 -19t-42 -52q0 -22 6 -50t6 -38q0 -24 -33 -51t-73 -27q-53 0 -75 22t-22 64q0 58 60 112.5t144.5 85.5t160.5 31q70 0 124.5 -14.5t105 -51t78.5 -109.5t28 -179v-297q0 -35 1 -54.5t5 -45.5t12.5 -39.5t24.5 -23t39 -9.5q17 0 29 5t17 11.5 t9 11.5t8 5q6 0 16.5 -15.5t10.5 -25.5q0 -7 -23 -29.5t-70 -45.5t-98 -23q-90 0 -135.5 28.5t-64.5 89.5h-5zM578 174v275l-117 -35q-101 -30 -136.5 -74.5t-35.5 -114.5q0 -133 129 -133q26 0 72.5 24.5t87.5 57.5z" />
<glyph unicode="&#xe2;" horiz-adv-x="974" d="M518 1329q68 -112 215 -274l-51 -39q-135 81 -219 170q-37 -38 -75 -69.5t-64 -49.5t-78 -51l-51 39q54 61 79.5 90.5t67.5 84t70 99.5h106zM575 98q-135 -118 -256 -118q-130 0 -187.5 53t-57.5 162q0 59 24.5 104t76 78.5t109 56.5t146.5 49l148 43q0 76 -7 131.5 t-18.5 88.5t-30.5 52.5t-39.5 26t-48.5 6.5q-61 0 -103 -19t-42 -52q0 -22 6 -50t6 -38q0 -24 -33 -51t-73 -27q-53 0 -75 22t-22 64q0 58 60 112.5t144.5 85.5t160.5 31q70 0 124.5 -14.5t105 -51t78.5 -109.5t28 -179v-297q0 -35 1 -54.5t5 -45.5t12.5 -39.5t24.5 -23 t39 -9.5q17 0 29 5t17 11.5t9 11.5t8 5q6 0 16.5 -15.5t10.5 -25.5q0 -7 -23 -29.5t-70 -45.5t-98 -23q-90 0 -135.5 28.5t-64.5 89.5h-5zM578 174v275l-117 -35q-101 -30 -136.5 -74.5t-35.5 -114.5q0 -133 129 -133q26 0 72.5 24.5t87.5 57.5z" />
<glyph unicode="&#xe3;" horiz-adv-x="974" d="M610 1176q36 0 58 23.5t43 94.5l57 -20q-43 -221 -186 -221q-52 0 -133 61q-80 53 -119 53q-40 0 -61.5 -24t-39.5 -84l-53 16q23 108 63 162.5t107 54.5q71 0 152 -65q65 -51 112 -51zM575 98q-135 -118 -256 -118q-130 0 -187.5 53t-57.5 162q0 59 24.5 104t76 78.5 t109 56.5t146.5 49l148 43q0 76 -7 131.5t-18.5 88.5t-30.5 52.5t-39.5 26t-48.5 6.5q-61 0 -103 -19t-42 -52q0 -22 6 -50t6 -38q0 -24 -33 -51t-73 -27q-53 0 -75 22t-22 64q0 58 60 112.5t144.5 85.5t160.5 31q70 0 124.5 -14.5t105 -51t78.5 -109.5t28 -179v-297 q0 -35 1 -54.5t5 -45.5t12.5 -39.5t24.5 -23t39 -9.5q17 0 29 5t17 11.5t9 11.5t8 5q6 0 16.5 -15.5t10.5 -25.5q0 -7 -23 -29.5t-70 -45.5t-98 -23q-90 0 -135.5 28.5t-64.5 89.5h-5zM578 174v275l-117 -35q-101 -30 -136.5 -74.5t-35.5 -114.5q0 -133 129 -133 q26 0 72.5 24.5t87.5 57.5z" />
<glyph unicode="&#xe4;" horiz-adv-x="974" d="M537 1169q0 46 32 78.5t78 32.5q45 0 78 -33t33 -78q0 -44 -33 -76t-78 -32q-46 0 -78 32t-32 76zM166 1169q0 45 33 78t77 33q46 0 78.5 -32.5t32.5 -78.5q0 -44 -32.5 -76t-78.5 -32q-44 0 -77 32t-33 76zM575 98q-135 -118 -256 -118q-130 0 -187.5 53t-57.5 162 q0 59 24.5 104t76 78.5t109 56.5t146.5 49l148 43q0 76 -7 131.5t-18.5 88.5t-30.5 52.5t-39.5 26t-48.5 6.5q-61 0 -103 -19t-42 -52q0 -22 6 -50t6 -38q0 -24 -33 -51t-73 -27q-53 0 -75 22t-22 64q0 58 60 112.5t144.5 85.5t160.5 31q70 0 124.5 -14.5t105 -51 t78.5 -109.5t28 -179v-297q0 -35 1 -54.5t5 -45.5t12.5 -39.5t24.5 -23t39 -9.5q17 0 29 5t17 11.5t9 11.5t8 5q6 0 16.5 -15.5t10.5 -25.5q0 -7 -23 -29.5t-70 -45.5t-98 -23q-90 0 -135.5 28.5t-64.5 89.5h-5zM578 174v275l-117 -35q-101 -30 -136.5 -74.5t-35.5 -114.5 q0 -133 129 -133q26 0 72.5 24.5t87.5 57.5z" />
<glyph unicode="&#xe5;" horiz-adv-x="974" d="M455 1298q-42 0 -71.5 -31.5t-29.5 -74.5q0 -41 29 -73t72 -32t71.5 32t28.5 73q0 44 -29.5 75t-70.5 31zM281 1192q0 70 51 120t123 50q70 0 123 -49.5t53 -120.5q0 -69 -52 -119.5t-124 -50.5q-71 0 -122.5 50t-51.5 120zM575 98q-135 -118 -256 -118q-130 0 -187.5 53 t-57.5 162q0 59 24.5 104t76 78.5t109 56.5t146.5 49l148 43q0 76 -7 131.5t-18.5 88.5t-30.5 52.5t-39.5 26t-48.5 6.5q-61 0 -103 -19t-42 -52q0 -22 6 -50t6 -38q0 -24 -33 -51t-73 -27q-53 0 -75 22t-22 64q0 58 60 112.5t144.5 85.5t160.5 31q70 0 124.5 -14.5t105 -51 t78.5 -109.5t28 -179v-297q0 -35 1 -54.5t5 -45.5t12.5 -39.5t24.5 -23t39 -9.5q17 0 29 5t17 11.5t9 11.5t8 5q6 0 16.5 -15.5t10.5 -25.5q0 -7 -23 -29.5t-70 -45.5t-98 -23q-90 0 -135.5 28.5t-64.5 89.5h-5zM578 174v275l-117 -35q-101 -30 -136.5 -74.5t-35.5 -114.5 q0 -133 129 -133q26 0 72.5 24.5t87.5 57.5z" />
<glyph unicode="&#xe6;" horiz-adv-x="1464" d="M1036 817q-78 0 -132 -80t-68 -205q175 11 257.5 47t82.5 115q0 57 -41 90t-99 33zM590 211q23 71 26 217q-143 -18 -225 -74t-82 -127q0 -63 39.5 -106t95.5 -43q51 0 85.5 28.5t60.5 104.5zM471 909q92 0 163 -25.5t120 -97.5q45 59 125.5 92t171.5 31q176 0 257 -60 t81 -149q0 -129 -135 -189.5t-423 -66.5q1 -152 73.5 -253t168.5 -101q62 0 114 32.5t109 100.5l82 -49q-47 -89 -132 -144t-199 -55q-116 0 -187 41t-139 127q-46 -81 -127.5 -124.5t-179.5 -43.5q-62 0 -115.5 10t-100.5 32.5t-74.5 64.5t-27.5 100q0 139 133 226.5 t387 109.5q0 155 -47 235.5t-123 80.5q-57 0 -93 -20t-36 -54q0 -22 7.5 -50t7.5 -38q0 -30 -25 -57t-86 -27q-51 0 -76.5 31t-25.5 75q0 58 58 109t138.5 78.5t155.5 27.5z" />
<glyph unicode="&#xe7;" horiz-adv-x="890" d="M410 -166q-53 0 -93 -12l-12 12l85 156q-156 30 -235 139.5t-79 282.5q0 216 128.5 356.5t313.5 140.5q158 0 241 -61.5t83 -151.5q0 -49 -27.5 -81.5t-75.5 -32.5q-49 0 -80 27t-36 69q-5 59 -32.5 102t-80.5 43q-85 0 -143 -97.5t-58 -262.5q0 -162 75 -270.5 t179 -108.5q58 0 110.5 30t117.5 103l40 -39q-46 -94 -129.5 -146t-191.5 -52q-33 0 -49 1l-30 -79q16 4 65 4q64 0 106.5 -31.5t42.5 -87.5q0 -78 -73.5 -123.5t-173.5 -45.5q-46 0 -74.5 7.5t-72.5 27.5l23 54q35 -13 48 -17t32 -8t39 -4q47 0 75 22t28 62q0 28 -27.5 50 t-58.5 22z" />
<glyph unicode="&#xe8;" horiz-adv-x="944" d="M471 1380l141 -254q19 -33 19 -53q0 -13 -10.5 -23t-24.5 -10q-26 0 -72 41l-248 215l5 23q18 21 59.5 43t89.5 22q25 0 41 -4zM315 584h328q4 4 4 22q0 111 -44 164t-95 53q-16 0 -34 -4.5t-44 -20t-47.5 -40t-40.5 -70t-27 -104.5zM813 223l51 -43q-99 -200 -360 -200 q-113 0 -198.5 34.5t-136 94.5t-75 135t-24.5 162q0 113 38.5 210t101 159.5t141 98t159.5 35.5q87 0 154 -21.5t107.5 -56t66.5 -83.5t35.5 -98t9.5 -105q0 -43 -80 -43h-498v-53q0 -151 79.5 -253t199.5 -102q122 0 229 129z" />
<glyph unicode="&#xe9;" horiz-adv-x="944" d="M578 1380q12 4 32 4q41 0 71.5 -15t45.5 -34l21 -47l-246 -221q-38 -33 -78 -33q-12 0 -22.5 10t-10.5 19q0 23 17 49zM315 584h328q4 4 4 22q0 111 -44 164t-95 53q-16 0 -34 -4.5t-44 -20t-47.5 -40t-40.5 -70t-27 -104.5zM813 223l51 -43q-99 -200 -360 -200 q-113 0 -198.5 34.5t-136 94.5t-75 135t-24.5 162q0 113 38.5 210t101 159.5t141 98t159.5 35.5q87 0 154 -21.5t107.5 -56t66.5 -83.5t35.5 -98t9.5 -105q0 -43 -80 -43h-498v-53q0 -151 79.5 -253t199.5 -102q122 0 229 129z" />
<glyph unicode="&#xea;" horiz-adv-x="944" d="M555 1329q68 -112 215 -274l-51 -39q-135 81 -219 170q-37 -38 -75 -69.5t-64 -49.5t-78 -51l-52 39q5 6 15 17q146 166 203 257h106zM315 584h328q4 4 4 22q0 111 -44 164t-95 53q-16 0 -34 -4.5t-44 -20t-47.5 -40t-40.5 -70t-27 -104.5zM813 223l51 -43 q-99 -200 -360 -200q-113 0 -198.5 34.5t-136 94.5t-75 135t-24.5 162q0 113 38.5 210t101 159.5t141 98t159.5 35.5q87 0 154 -21.5t107.5 -56t66.5 -83.5t35.5 -98t9.5 -105q0 -43 -80 -43h-498v-53q0 -151 79.5 -253t199.5 -102q122 0 229 129z" />
<glyph unicode="&#xeb;" horiz-adv-x="944" d="M569 1169q0 46 32.5 78.5t78.5 32.5q45 0 78 -33t33 -78q0 -44 -33 -76t-78 -32q-46 0 -78.5 32t-32.5 76zM199 1169q0 45 32.5 78t77.5 33q46 0 78.5 -32.5t32.5 -78.5q0 -44 -32.5 -76t-78.5 -32q-44 0 -77 32t-33 76zM315 592h328q4 4 4 22q0 111 -44 164t-95 53 q-16 0 -34 -4.5t-44 -20t-47.5 -40t-40.5 -70t-27 -104.5zM813 231l51 -43q-99 -200 -360 -200q-113 0 -198.5 34.5t-136 94.5t-75 135t-24.5 162q0 113 38.5 210t101 160t141 98.5t159.5 35.5q87 0 154 -21.5t107.5 -56.5t66.5 -84t35.5 -98t9.5 -105q0 -43 -80 -43h-498 v-53q0 -151 79.5 -253t199.5 -102q122 0 229 129z" />
<glyph unicode="&#xec;" horiz-adv-x="585" d="M244 1380l141 -254q18 -32 18 -53q0 -13 -10 -23t-24 -10q-26 0 -72 41l-248 215l4 23q18 21 60 43t90 22q25 0 41 -4zM432 658v-500q0 -40 23 -59t73 -29l21 -4q16 -4 16 -19v-47l-4 -4q-166 4 -246 4l-239 -4l-4 4v47q0 17 14 19l25 4q50 9 73 28t23 60v499 q0 49 -5.5 75.5t-14.5 34t-25 9.5l-84 8l-4 70q269 36 350 61q14 0 14 -6q-6 -149 -6 -251z" />
<glyph unicode="&#xed;" horiz-adv-x="585" d="M358 1380q12 4 33 4q41 0 71.5 -15t45.5 -34l20 -47l-245 -221q-38 -33 -78 -33q-12 0 -22.5 10t-10.5 19q0 25 16 49zM432 658v-500q0 -40 23 -59t73 -29l21 -4q16 -4 16 -19v-47l-4 -4q-166 4 -246 4l-239 -4l-4 4v47q0 17 14 19l25 4q50 9 73 28t23 60v499 q0 49 -5.5 75.5t-14.5 34t-25 9.5l-84 8l-4 70q269 36 350 61q14 0 14 -6q-6 -149 -6 -251z" />
<glyph unicode="&#xee;" horiz-adv-x="585" d="M334 1329q68 -112 215 -274l-51 -39q-135 81 -219 170q-37 -38 -76 -69.5t-64 -49t-78 -51.5l-51 39q54 61 79.5 90.5t67.5 84t70 99.5h107zM432 658v-500q0 -40 23 -59t73 -29l21 -4q16 -4 16 -19v-47l-4 -4q-166 4 -246 4l-239 -4l-4 4v47q0 17 14 19l25 4q50 9 73 28 t23 60v499q0 49 -5.5 75.5t-14.5 34t-25 9.5l-84 8l-4 70q269 36 350 61q14 0 14 -6q-6 -149 -6 -251z" />
<glyph unicode="&#xef;" horiz-adv-x="585" d="M358 1169q0 46 32.5 78.5t78.5 32.5q45 0 78 -33t33 -78q0 -44 -33 -76t-78 -32q-46 0 -78.5 32t-32.5 76zM-12 1169q0 45 33 78t77 33q46 0 78.5 -32.5t32.5 -78.5q0 -44 -32.5 -76t-78.5 -32q-44 0 -77 32t-33 76zM432 658v-500q0 -40 23 -59t73 -29l21 -4 q16 -4 16 -19v-47l-4 -4q-166 4 -246 4l-239 -4l-4 4v47q0 17 14 19l25 4q50 9 73 28t23 60v499q0 49 -5.5 75.5t-14.5 34t-25 9.5l-84 8l-4 70q269 36 350 61q14 0 14 -6q-6 -149 -6 -251z" />
<glyph unicode="&#xf0;" horiz-adv-x="1048" d="M70 428q0 102 30.5 186.5t78.5 138t110 90.5t123 52.5t120 15.5q47 0 105 -10q-57 131 -145 246q-100 -70 -226 -152l-65 99l215 143q-19 19 -27 29q-90 86 -145 125l51 69q165 -88 237 -145q39 27 122 81.5t108 71.5l65 -98l-198 -133l30 -31q146 -148 234 -330t88 -387 q0 -127 -40 -227.5t-108 -161.5t-153.5 -93t-181.5 -32q-102 0 -185.5 40.5t-135 106.5t-79.5 145t-28 161zM530 70q26 0 51.5 9t54.5 35.5t50.5 68t36 113.5t14.5 165q0 127 -43 280q-77 84 -166 84q-60 0 -106 -34.5t-70 -90t-35.5 -115t-11.5 -120.5q0 -167 67.5 -281 t157.5 -114z" />
<glyph unicode="&#xf1;" horiz-adv-x="1153" d="M739 1176q36 0 58 23.5t43 94.5l57 -20q-43 -221 -186 -221q-52 0 -133 61q-80 53 -119 53q-40 0 -61.5 -24t-39.5 -84l-53 16q23 108 63 162.5t107 54.5q71 0 152 -65q65 -51 112 -51zM426 780q168 129 309 129q64 0 110 -17t73 -44.5t42 -72t20 -89t5 -106.5v-424 q0 -39 22.5 -55.5t77.5 -30.5l17 -4q16 -4 16 -19v-47l-4 -4q-164 4 -244 4l-229 -4l-4 4v47q0 16 16 19l9 2q53 13 75.5 30.5t22.5 57.5v438q0 112 -16.5 156.5t-69.5 44.5q-92 0 -248 -97v-542q0 -39 23.5 -57.5t74.5 -30.5l8 -2q17 -4 17 -19v-47l-4 -4q-156 4 -236 4 l-237 -4l-4 4v47q0 16 16 19l18 4q55 12 77 29t22 57v501q0 71 -10.5 94t-34.5 25l-84 8l-4 70q244 31 344 61q14 0 14 -6l-4 -129h4z" />
<glyph unicode="&#xf2;" horiz-adv-x="1062" d="M500 1380l141 -254q18 -32 18 -53q0 -13 -10 -23t-24 -10q-26 0 -72 41l-248 215l4 23q18 21 60 43t90 22q25 0 41 -4zM512 825q-62 0 -107.5 -54t-65.5 -132.5t-20 -169.5q0 -60 15 -127t43.5 -130t77 -103.5t108.5 -40.5q32 0 60.5 12.5t57.5 43.5t46.5 96t17.5 157 q0 215 -63 331.5t-170 116.5zM70 424q0 216 122 350.5t340 134.5q97 0 176 -28t131 -74t87.5 -107.5t51 -126t15.5 -131.5q0 -64 -17.5 -127.5t-55 -124.5t-90.5 -107.5t-130.5 -74.5t-169.5 -28q-108 0 -198 39.5t-145.5 103.5t-86 142t-30.5 159z" />
<glyph unicode="&#xf3;" horiz-adv-x="1062" d="M578 1380q12 4 32 4q41 0 71.5 -15t45.5 -34l21 -47l-246 -221q-38 -33 -78 -33q-12 0 -22.5 10t-10.5 19q0 23 17 49zM512 825q-62 0 -107.5 -54t-65.5 -132.5t-20 -169.5q0 -60 15 -127t43.5 -130t77 -103.5t108.5 -40.5q32 0 60.5 12.5t57.5 43.5t46.5 96t17.5 157 q0 215 -63 331.5t-170 116.5zM70 424q0 216 122 350.5t340 134.5q97 0 176 -28t131 -74t87.5 -107.5t51 -126t15.5 -131.5q0 -64 -17.5 -127.5t-55 -124.5t-90.5 -107.5t-130.5 -74.5t-169.5 -28q-108 0 -198 39.5t-145.5 103.5t-86 142t-30.5 159z" />
<glyph unicode="&#xf4;" horiz-adv-x="1062" d="M573 1329q68 -112 215 -274l-51 -39q-135 81 -219 170q-37 -38 -75 -69.5t-64 -49.5t-78 -51l-51 39q54 61 79.5 90.5t67.5 84t70 99.5h106zM512 825q-62 0 -107.5 -54t-65.5 -132.5t-20 -169.5q0 -60 15 -127t43.5 -130t77 -103.5t108.5 -40.5q32 0 60.5 12.5t57.5 43.5 t46.5 96t17.5 157q0 215 -63 331.5t-170 116.5zM70 424q0 216 122 350.5t340 134.5q97 0 176 -28t131 -74t87.5 -107.5t51 -126t15.5 -131.5q0 -64 -17.5 -127.5t-55 -124.5t-90.5 -107.5t-130.5 -74.5t-169.5 -28q-108 0 -198 39.5t-145.5 103.5t-86 142t-30.5 159z" />
<glyph unicode="&#xf5;" horiz-adv-x="1062" d="M653 1176q36 0 58 23.5t43 94.5l57 -20q-43 -221 -186 -221q-52 0 -133 61q-80 53 -119 53q-40 0 -61.5 -24t-39.5 -84l-53 16q23 108 63 162.5t107 54.5q71 0 152 -65q65 -51 112 -51zM512 825q-62 0 -107.5 -54t-65.5 -132.5t-20 -169.5q0 -60 15 -127t43.5 -130 t77 -103.5t108.5 -40.5q32 0 60.5 12.5t57.5 43.5t46.5 96t17.5 157q0 215 -63 331.5t-170 116.5zM70 424q0 216 122 350.5t340 134.5q97 0 176 -28t131 -74t87.5 -107.5t51 -126t15.5 -131.5q0 -64 -17.5 -127.5t-55 -124.5t-90.5 -107.5t-130.5 -74.5t-169.5 -28 q-108 0 -198 39.5t-145.5 103.5t-86 142t-30.5 159z" />
<glyph unicode="&#xf6;" horiz-adv-x="1062" d="M596 1169q0 46 32.5 78.5t78.5 32.5q45 0 77.5 -33t32.5 -78q0 -44 -33 -76t-77 -32q-46 0 -78.5 32t-32.5 76zM225 1169q0 45 33 78t78 33q46 0 78 -32.5t32 -78.5q0 -44 -32 -76t-78 -32q-45 0 -78 32t-33 76zM512 825q-62 0 -107.5 -54t-65.5 -132.5t-20 -169.5 q0 -60 15 -127t43.5 -130t77 -103.5t108.5 -40.5q32 0 60.5 12.5t57.5 43.5t46.5 96t17.5 157q0 215 -63 331.5t-170 116.5zM70 424q0 216 122 350.5t340 134.5q97 0 176 -28t131 -74t87.5 -107.5t51 -126t15.5 -131.5q0 -64 -17.5 -127.5t-55 -124.5t-90.5 -107.5 t-130.5 -74.5t-169.5 -28q-108 0 -198 39.5t-145.5 103.5t-86 142t-30.5 159z" />
<glyph unicode="&#xf7;" horiz-adv-x="1099" d="M453 753q0 40 28 68t68 28t68.5 -28t28.5 -68q0 -38 -28.5 -66t-68.5 -28t-68 28t-28 66zM453 204q0 40 28 68t68 28t68.5 -28t28.5 -68q0 -38 -28.5 -66t-68.5 -28t-68 28t-28 66zM954 551v-152h-809v152h809z" />
<glyph unicode="&#xf8;" horiz-adv-x="1062" d="M881 973l75 -60l-100 -122q69 -67 103 -159.5t34 -189.5q0 -64 -17.5 -127.5t-55 -124.5t-90.5 -107.5t-130.5 -74.5t-169.5 -28q-158 0 -272 80l-106 -130l-74 66l106 130q-56 62 -85 140t-29 158q0 216 122 350.5t340 134.5q142 0 247 -60zM512 825q-62 0 -107.5 -54 t-65.5 -132.5t-20 -169.5q0 -73 21 -154l335 407q-62 103 -163 103zM717 621l-337 -412q70 -141 183 -141q32 0 60.5 12.5t57.5 43.5t46.5 96t17.5 157q0 147 -28 244z" />
<glyph unicode="&#xf9;" horiz-adv-x="1126" d="M489 1380l142 -254q18 -32 18 -53q0 -13 -10.5 -23t-24.5 -10q-25 0 -71 41l-248 215l4 23q18 21 60 43t90 22q24 0 40 -4zM946 236q0 -52 27 -81.5t104 -33.5l2 -64q-88 -12 -146.5 -26.5t-83.5 -25.5t-58 -30h-70l6 97q-145 -92 -264 -92q-86 0 -144.5 23t-88 65.5 t-41 88.5t-11.5 105v459q0 49 -12.5 72.5t-46.5 25.5l-64 4l-6 4v62l10 4q162 -4 228 -4l119 4q-3 -92 -3 -168v-434q0 -61 11 -104.5t29 -65t35.5 -30.5t35.5 -9q119 0 207 76v563q0 98 -57 98l-64 4l-8 4v62l8 4q172 -4 227 -4l123 4q-4 -85 -4 -168v-489z" />
<glyph unicode="&#xfa;" horiz-adv-x="1126" d="M633 1380q12 4 33 4q77 0 116 -49l21 -47l-246 -221q-38 -33 -78 -33q-12 0 -22.5 10t-10.5 19q0 23 17 49zM946 236q0 -52 27 -81.5t104 -33.5l2 -64q-88 -12 -146.5 -26.5t-83.5 -25.5t-58 -30h-70l6 97q-145 -92 -264 -92q-86 0 -144.5 23t-88 65.5t-41 88.5 t-11.5 105v459q0 49 -12.5 72.5t-46.5 25.5l-64 4l-6 4v62l10 4q162 -4 228 -4l119 4q-3 -92 -3 -168v-434q0 -61 11 -104.5t29 -65t35.5 -30.5t35.5 -9q119 0 207 76v563q0 98 -57 98l-64 4l-8 4v62l8 4q172 -4 227 -4l123 4q-4 -85 -4 -168v-489z" />
<glyph unicode="&#xfb;" horiz-adv-x="1126" d="M584 1329q68 -112 215 -274l-51 -39q-73 44 -121 80.5t-99 89.5q-37 -38 -75 -69.5t-64 -49.5t-78 -51l-51 39q54 61 79.5 90.5t67.5 84t70 99.5h107zM946 236q0 -52 27 -81.5t104 -33.5l2 -64q-88 -12 -146.5 -26.5t-83.5 -25.5t-58 -30h-70l6 97q-145 -92 -264 -92 q-86 0 -144.5 23t-88 65.5t-41 88.5t-11.5 105v459q0 49 -12.5 72.5t-46.5 25.5l-64 4l-6 4v62l10 4q162 -4 228 -4l119 4q-3 -92 -3 -168v-434q0 -61 11 -104.5t29 -65t35.5 -30.5t35.5 -9q119 0 207 76v563q0 98 -57 98l-64 4l-8 4v62l8 4q172 -4 227 -4l123 4 q-4 -85 -4 -168v-489z" />
<glyph unicode="&#xfc;" horiz-adv-x="1126" d="M618 1169q0 46 32.5 78.5t78.5 32.5q45 0 78 -33t33 -78q0 -44 -33 -76t-78 -32q-46 0 -78.5 32t-32.5 76zM248 1169q0 45 33 78t77 33q46 0 78.5 -32.5t32.5 -78.5q0 -44 -32.5 -76t-78.5 -32q-44 0 -77 32t-33 76zM946 236q0 -52 27 -81.5t104 -33.5l2 -64 q-88 -12 -146.5 -26.5t-83.5 -25.5t-58 -30h-70l6 97q-145 -92 -264 -92q-86 0 -144.5 23t-88 65.5t-41 88.5t-11.5 105v459q0 49 -12.5 72.5t-46.5 25.5l-64 4l-6 4v62l10 4q162 -4 228 -4l119 4q-3 -92 -3 -168v-434q0 -61 11 -104.5t29 -65t35.5 -30.5t35.5 -9 q119 0 207 76v563q0 98 -57 98l-64 4l-8 4v62l8 4q172 -4 227 -4l123 4q-4 -85 -4 -168v-489z" />
<glyph unicode="&#xfd;" horiz-adv-x="1091" d="M670 1380q12 4 32 4q41 0 71.5 -15t45.5 -34l21 -47l-246 -221q-38 -33 -78 -33q-12 0 -22.5 10t-10.5 19q0 23 17 49zM885 698l-340 -843q-30 -73 -58 -125.5t-67 -103t-88.5 -76.5t-108.5 -26q-19 0 -43 6t-50.5 18t-44 35t-17.5 53q0 49 36 77t84 28q23 0 49 -15.5 t37 -32.5q23 -35 39 -35q9 0 26 20t45.5 72t55.5 125l37 100l-289 713q-32 80 -60 107.5t-87 27.5q-21 0 -21 15v51l7 4q132 -4 217 -4l248 4l8 -4v-49q0 -9 -6 -13t-11 -4q-60 0 -77 -22.5t2 -69.5l190 -516q118 286 188 512q32 96 -81 96q-7 0 -12 5t-5 10v49l8 6 q141 -4 230 -4l131 4l4 -4v-47q0 -7 -7 -13t-16 -6q-46 0 -87 -31.5t-66 -93.5z" />
<glyph unicode="&#xfe;" horiz-adv-x="1095" d="M422 664v-531q62 -67 125 -67q64 0 111 32t72.5 86.5t37.5 115.5t12 130q0 371 -176 371q-40 0 -93 -37.5t-89 -99.5zM422 1194l-4 -428q95 143 252 143q107 0 187.5 -61.5t119.5 -156.5t39 -206q0 -231 -158 -389q-116 -116 -299 -116q-63 0 -137 34v-329q0 -40 23 -59 t75 -32l17 -4q18 -4 18 -16v-49l-4 -4q-166 4 -246 4l-237 -4l-5 4v49q0 13 17 16l18 4q52 11 75.5 30.5t23.5 60.5v1468q0 93 -14 121.5t-48 28.5l-65 4q-11 0 -13 10l-6 59q72 5 190.5 22.5t153.5 31.5q33 0 33 -21q-5 -82 -6 -215z" />
<glyph unicode="&#xff;" horiz-adv-x="1091" d="M653 1169q0 46 32.5 78.5t78.5 32.5q44 0 77 -33t33 -78q0 -44 -33 -76t-77 -32q-46 0 -78.5 32t-32.5 76zM283 1169q0 45 32.5 78t77.5 33q46 0 78.5 -32.5t32.5 -78.5q0 -44 -32.5 -76t-78.5 -32q-44 0 -77 32t-33 76zM885 698l-340 -843q-30 -73 -58 -125.5t-67 -103 t-88.5 -76.5t-108.5 -26q-19 0 -43 6t-50.5 18t-44 35t-17.5 53q0 49 36 77t84 28q23 0 49 -15.5t37 -32.5q23 -35 39 -35q9 0 26 20t45.5 72t55.5 125l37 100l-289 713q-32 80 -60 107.5t-87 27.5q-21 0 -21 15v51l7 4q132 -4 217 -4l248 4l8 -4v-49q0 -9 -6 -13t-11 -4 q-60 0 -77 -22.5t2 -69.5l190 -516q118 286 188 512q32 96 -81 96q-7 0 -12 5t-5 10v49l8 6q141 -4 230 -4l131 4l4 -4v-47q0 -7 -7 -13t-16 -6q-46 0 -87 -31.5t-66 -93.5z" />
<glyph unicode="&#x131;" horiz-adv-x="585" d="M432 658v-500q0 -40 23 -59t73 -29l21 -4q16 -4 16 -19v-47l-4 -4q-166 4 -246 4l-239 -4l-4 4v47q0 17 14 19l25 4q50 9 73 28t23 60v499q0 49 -5.5 75.5t-14.5 34t-25 9.5l-84 8l-4 70q269 36 350 61q14 0 14 -6q-6 -149 -6 -251z" />
<glyph unicode="&#x152;" horiz-adv-x="1740" d="M713 82h24q33 0 46.5 16.5t13.5 55.5v1015q0 41 -13 54.5t-47 13.5h-69q-54 0 -101.5 -17.5t-90.5 -59t-73.5 -105t-48.5 -161.5t-18 -222q0 -150 32.5 -266.5t87 -185.5t120 -103.5t137.5 -34.5zM1597 1321q15 -178 45 -330l-81 -20q-11 39 -21 68.5t-29 67t-40.5 62 t-55 41.5t-72.5 17h-268q-26 0 -26 -58v-421h231q18 0 30 10t19.5 32t12 44t8.5 59q2 7 11 13.5t23 6.5h43l13 -18q-15 -131 -15 -190q0 -67 15 -191l-13 -20h-43q-14 0 -23 7.5t-11 14.5q-4 37 -8.5 58.5t-12 44t-19.5 33t-30 10.5h-231v-510q0 -58 26 -58h316 q80 0 136.5 75t82.5 196l90 -21q-29 -137 -55 -344h-928q-151 0 -274.5 50t-204.5 137.5t-124.5 207t-43.5 258.5q0 111 25.5 211.5t77.5 184t125.5 145t174.5 95.5t219 34z" />
<glyph unicode="&#x153;" horiz-adv-x="1636" d="M1190 825q-44 0 -81.5 -30t-60.5 -75.5t-35.5 -80.5t-17.5 -61h344q-2 37 -9.5 75t-23.5 79t-46 67t-70 26zM299 502q0 -212 62.5 -323t181.5 -111q30 0 65.5 19.5t71.5 58.5t60 111t24 163q0 397 -236 397q-98 0 -163.5 -87.5t-65.5 -227.5zM528 911q237 0 346 -143 q129 143 320 143q192 0 286.5 -117t94.5 -311h-588v-34q0 -94 22.5 -167.5t58.5 -114t74.5 -61t76.5 -20.5q50 0 123.5 35.5t127.5 93.5l78 -59q-16 -22 -22 -30t-27.5 -32t-37.5 -35.5t-46 -30.5t-60 -28.5t-72 -17t-89 -7.5q-116 0 -188.5 40t-147.5 122 q-140 -162 -338 -162q-99 0 -184.5 39t-143 102.5t-90 144.5t-32.5 165q0 117 36.5 211t99.5 153t145.5 90t176.5 31z" />
<glyph unicode="&#x178;" horiz-adv-x="1263" d="M725 1534q0 46 32.5 78.5t78.5 32.5q44 0 77 -32.5t33 -78.5q0 -44 -33 -76.5t-77 -32.5q-46 0 -78.5 32.5t-32.5 76.5zM354 1534q0 45 33 78t78 33q46 0 78 -32.5t32 -78.5q0 -44 -32.5 -76.5t-77.5 -32.5q-44 0 -77.5 32.5t-33.5 76.5zM520 147v428l-321 558 q-49 82 -77.5 102t-74.5 20h-24q-23 0 -23 15v51l4 4q233 -4 260 -4l234 4l4 -4v-49q0 -17 -15 -17q-43 0 -63.5 -2t-32 -10t-8 -22.5t19.5 -40.5l285 -496l262 496q17 31 -8 53t-80 22q-12 0 -12 15v51l4 4q161 -4 186 -4l220 4l4 -4v-49q0 -17 -21 -17h-43 q-48 0 -74 -15.5t-51 -63.5l-305 -576v-453q0 -46 25.5 -62.5t87.5 -16.5h55q16 0 16 -19v-47l-4 -4q-223 4 -303 4l-305 -4l-2 4v47q0 19 14 19h56q62 0 86 18t24 61z" />
<glyph unicode="&#x192;" horiz-adv-x="972" d="M688 1430q135 0 197.5 -45t62.5 -101q0 -35 -29 -59.5t-77 -24.5q-92 0 -121 55l-26 47q2 -3 8 -11l4 -7q-23 70 -21 72q-9 0 -20.5 -20t-27.5 -80t-30 -154q-11 -76 -26 -215h213l-13 -96h-213q-4 -16 -4 -27q-60 -521 -94 -693q-51 -255 -135 -345q-68 -74 -186 -74 q-52 0 -91.5 13t-60.5 33t-31 39.5t-10 35.5q0 29 28.5 52t75.5 23q86 0 109 -47q10 -23 10 -26q8 -30 -5 -31q20 2 36 22t27.5 65t19.5 86t15 118.5t10.5 125.5t9.5 142q2 30 5 85.5t6 100.5t7 84l23 218h-166l12 96h117q50 0 65 100q29 216 121 329.5t205 113.5z" />
<glyph unicode="&#x2b0;" horiz-adv-x="628" d="M23 1468q92 11 161 45h29v-325q91 104 174 104q154 0 154 -188v-256q0 -36 10 -44.5t43 -10.5h12q10 0 10 -11v-37q-78 3 -127 3l-133 -3v37q0 11 11 11h22q31 2 41 11t10 44v235q0 140 -102 140q-48 0 -125 -93v-282q0 -32 11.5 -43.5t39.5 -11.5h23q10 0 10 -11v-37 q-82 3 -135 3l-125 -3v37q0 11 8 11h16q35 1 43.5 11t8.5 44v530q0 28 -5.5 41t-25.5 13q-25 0 -55 -9z" />
<glyph unicode="&#x2b2;" horiz-adv-x="423" d="M236 1513q31 0 46 -17t15 -42q0 -24 -17.5 -40.5t-43.5 -16.5t-44 17t-18 40q0 26 17 42.5t45 16.5zM197 840v331q0 56 -31 56q-29 0 -72 -15l-6 41q114 22 180 52h29v-424q0 -132 -12.5 -189t-53.5 -102q-45 -51 -106 -51q-45 0 -85 19t-40 48q0 24 12 37.5t31 13.5 q39 0 55 -59q3 -20 21 -20q44 0 61 59t17 203z" />
<glyph unicode="&#x2b3;" horiz-adv-x="503" d="M254 1106v-258q0 -34 10.5 -42.5t40.5 -8.5h37q3 0 6.5 -3.5t3.5 -7.5v-38l-151 2l-150 -2v38q0 11 12 11h37q35 0 43.5 10t8.5 41v323q0 56 -29 56q-27 0 -74 -15l-4 41q117 23 178 52h31l-4 -121h4q83 121 156 121q75 0 75 -64q0 -53 -59 -53q-34 0 -53 22 q-13 13 -27 13q-27 0 -78 -72q-14 -17 -14 -45z" />
<glyph unicode="&#x2b7;" horiz-adv-x="911" d="M260 1255q0 -10 -8 -10h-19q-29 0 -33 -11.5t11 -51.5l119 -314l96 265l-18 47q-15 39 -29.5 52t-42.5 13q-10 0 -10 10v35l2 2q77 -2 116 -2l113 2l4 -2v-35q0 -10 -10 -10q-42 0 -50 -9.5t7 -53.5l117 -314l120 308q14 41 4 55t-49 14h-18q-8 0 -8 10v35l2 2 q82 -2 125 -2l84 2l2 -2v-35q0 -10 -15 -10q-47 0 -77 -74l-162 -409q-13 -29 -43 -29q-17 0 -27 27l-114 303l-113 -301q-10 -29 -43 -29q-17 0 -27 27l-155 420q-16 42 -30.5 53.5t-41.5 11.5q-14 0 -14 10v35l2 2q55 -2 104 -2l127 2l2 -2v-35z" />
<glyph unicode="&#x2b8;" horiz-adv-x="692" d="M299 1257q0 -12 -14 -12q-54 0 -54 -22q0 -11 7 -25l135 -319l139 315q6 12 6 29q0 22 -51 22h-6q-4 0 -8 3.5t-4 6.5v35l2 4q86 -4 131 -4l88 4l4 -4v-33q0 -12 -15 -12q-57 0 -90 -76q-72 -147 -227 -524q-17 -38 -25.5 -56.5t-27 -51.5t-34.5 -49.5t-39.5 -30 t-49.5 -13.5q-25 0 -57.5 19t-32.5 49q0 26 20 41.5t39 15.5q25 0 41 -16q18 -25 33 -25q3 0 7 3t9 10.5t9.5 15t10.5 20t10.5 22.5t11.5 26t11.5 26t11.5 27.5t11 26.5q8 21 8 38q0 20 -20 74l-154 357q-19 43 -34 57t-54 14q-4 0 -8 3.5t-4 6.5v35l4 4q55 -4 94 -4l164 4 l2 -4v-33z" />
<glyph unicode="&#x2c6;" horiz-adv-x="714" d="M442 1374q68 -112 215 -274l-51 -39q-135 81 -219 170q-37 -38 -75 -69.5t-64 -49.5t-78 -51l-51 39q54 61 79.5 90.5t67.5 84t70 99.5h106z" />
<glyph unicode="&#x2da;" horiz-adv-x="739" d="M395 1481q-42 0 -71 -32t-29 -75q0 -41 28.5 -72.5t71.5 -31.5t72 31.5t29 72.5q0 44 -30 75.5t-71 31.5zM221 1374q0 70 51 120t123 50q70 0 123 -49.5t53 -120.5q0 -69 -52 -119.5t-124 -50.5q-71 0 -122.5 50t-51.5 120z" />
<glyph unicode="&#x2dc;" horiz-adv-x="598" d="M459 1274q36 0 57.5 23.5t42.5 95.5l57 -21q-43 -221 -186 -221q-52 0 -133 61q-82 54 -119 54q-40 0 -61 -24t-39 -85l-53 17q23 108 63 162.5t107 54.5q69 0 151 -66q65 -51 113 -51z" />
<glyph unicode="&#x2e1;" horiz-adv-x="329" d="M213 1513v-665q0 -32 11.5 -43.5t39.5 -11.5h23q10 0 10 -11v-37q-82 3 -135 3l-125 -3v37q0 11 8 11h16q35 1 43.5 11t8.5 44v530q0 28 -5.5 41t-25.5 13q-25 0 -55 -9l-4 45q92 11 161 45h29z" />
<glyph unicode="&#x2e2;" horiz-adv-x="518" d="M57 938h45q5 -74 48 -117q43 -37 100 -37q41 0 69.5 19.5t28.5 58.5q0 37 -24.5 67t-94.5 60q-83 34 -120 67.5t-37 96.5t57.5 107.5t134.5 44.5q44 0 95.5 -11.5t70.5 -23.5l19 -154l-48 -2q-13 55 -40 88t-50 42t-47 9q-41 0 -67.5 -21.5t-26.5 -60.5q0 -36 18 -55 t72 -41q42 -17 62 -26t51.5 -27.5t46.5 -34.5t27 -41t12 -55q0 -44 -21.5 -77t-55.5 -49.5t-66 -24t-62 -7.5q-33 0 -81.5 14.5t-66.5 14.5q-14 0 -38 -4q2 41 -11 180z" />
<glyph unicode="&#x2e3;" horiz-adv-x="679" d="M25 797q0 22 69 22h17q8 7 20 25q131 160 139 166q-24 31 -75 98.5t-76 97.5q-10 17 -15 17h-12q-72 0 -72 22v41h334v-41q0 -19 -49 -22q3 -11 17 -36t27 -44l13 -19q22 28 36 48t17 26l3 6q6 6 6 19q-49 4 -49 22v41h295v-37q-6 -26 -72 -26q-5 0 -10 -2t-9 -4.5 t-10.5 -8.5t-10 -10t-11 -12t-10.5 -12q-18 -22 -53.5 -69t-53.5 -69q108 -153 141 -196q13 -18 31 -21q72 -3 72 -22v-45q-78 8 -150 8q-43 0 -178 -6v43q0 19 45 22q0 10 -2 12q-47 71 -57 87q-64 -77 -66 -99q53 0 53 -22v-43q-78 4 -141 4q-83 0 -153 -4v43z" />
<glyph unicode="&#x358;" horiz-adv-x="0" d="M-444 1415l247 -172q31 -22 31 -43q0 -31 -31 -31q-25 0 -88 25l-315 129z" />
<glyph unicode="&#x359;" horiz-adv-x="0" d="M-322 1419l127 -106l-294 -119q-60 -25 -89 -25q-28 0 -28 31q0 22 31 43z" />
<glyph unicode="&#x374;" horiz-adv-x="454" d="M334 1573q30 0 56 -24t26 -48q0 -17 -9 -41.5t-20 -40.5l-231 -317l-50 26l119 330q8 23 15 39t20 35.5t32 30t42 10.5z" />
<glyph unicode="&#x375;" horiz-adv-x="393" d="M276 203q30 0 56 -24t26 -48q0 -17 -8.5 -42t-19.5 -40l-232 -317l-49 26l119 330q8 23 15 38.5t19.5 35.5t31.5 30.5t42 10.5z" />
<glyph unicode="&#x37a;" horiz-adv-x="677" d="M279 -188l141 26l45 -14v-107q0 -159 67 -159q26 0 48.5 30t33.5 74l52 -16q-11 -50 -33 -85.5t-48 -52.5t-49 -24.5t-44 -7.5q-39 0 -75.5 10t-68 29t-50.5 52.5t-19 76.5v168z" />
<glyph unicode="&#x37b;" horiz-adv-x="937" d="M379 45q36 0 64 6t60 28t53.5 59.5t35.5 104.5t14 158q0 49 -0.5 80t-3 73.5t-7.5 70t-13.5 60.5t-21 54t-31.5 42.5t-43 33.5t-56.5 19.5t-71.5 7.5q-98 0 -149 -27t-113 -106l-59 28q126 172 328 172q113 0 209.5 -40.5t158.5 -105t96.5 -142.5t34.5 -156 q0 -111 -32.5 -198.5t-82.5 -140t-116.5 -87t-128.5 -47t-125 -12.5q-103 0 -192.5 44.5t-149.5 125.5l59 28q62 -77 121 -105t162 -28z" />
<glyph unicode="&#x37c;" horiz-adv-x="946" d="M571 317q-52 0 -85 35.5t-33 81.5q0 48 34.5 84.5t83.5 36.5q46 0 82.5 -35.5t36.5 -85.5q0 -47 -34.5 -82t-84.5 -35zM338 410q0 -101 20.5 -175.5t54.5 -114.5t72 -58.5t80 -18.5q103 0 164.5 31t124.5 110l53 -39q-58 -81 -148 -125.5t-194 -44.5q-43 0 -86.5 6.5 t-92.5 22t-92 40t-83 63.5t-68.5 88t-45.5 118t-17 150q0 45 15.5 99.5t54 116.5t93.5 112.5t143 84t194 33.5q202 0 327 -174l-53 -35q-62 79 -115 106.5t-153 27.5q-73 0 -123 -30.5t-76.5 -90t-37.5 -131.5t-11 -172z" />
<glyph unicode="&#x37d;" horiz-adv-x="937" d="M309 330q-52 0 -85.5 35t-33.5 81q0 48 35 84.5t84 36.5q46 0 82.5 -35.5t36.5 -85.5q0 -47 -34.5 -81.5t-84.5 -34.5zM379 45q36 0 64 6t60 28t53.5 59.5t35.5 104.5t14 158q0 49 -0.5 80t-3 73.5t-7.5 70t-13.5 60.5t-21 54t-31.5 42.5t-43 33.5t-56.5 19.5t-71.5 7.5 q-98 0 -149 -27t-113 -106l-59 28q126 172 328 172q113 0 209.5 -40.5t158.5 -105t96.5 -142.5t34.5 -156q0 -111 -32.5 -198.5t-82.5 -140t-116.5 -87t-128.5 -47t-125 -12.5q-103 0 -192.5 44.5t-149.5 125.5l59 28q62 -77 121 -105t162 -28z" />
<glyph unicode="&#x37e;" horiz-adv-x="448" d="M131 731q0 47 34 81t81 34t80.5 -34t33.5 -81q0 -46 -33.5 -79.5t-80.5 -33.5t-81 33.5t-34 79.5zM256 209q60 0 94.5 -48t34.5 -173q0 -84 -73.5 -167t-184.5 -102q-32 21 -14 64q71 19 121.5 72.5t50.5 89.5q0 49 -70 57q-43 8 -65.5 30.5t-22.5 69.5q0 45 36 76t93 31 z" />
<glyph unicode="&#x386;" horiz-adv-x="1431" d="M518 590h307l-170 463l-176 -439q0 -15 6.5 -19.5t32.5 -4.5zM303 162q-11 -30 -12 -50.5t24.5 -32t83.5 -11.5q25 0 34 -4.5t9 -16.5v-41l-10 -8q-188 4 -237 4l-175 -4l-16 6v43q0 14 9.5 17.5t31.5 3.5q35 0 74 30t63 88l457 1098q13 33 38.5 48.5t47.5 15.5 q68 0 92 -64l414 -1098q23 -61 47.5 -89.5t60.5 -28.5h58q22 0 26 -4t4 -17v-41l-10 -8q-196 4 -274 4l-295 -4l-17 10v39q0 21 54 21h55q51 0 51 53q0 23 -4 29l-127 344h-377q-32 0 -43 -4.5t-20 -24.5zM385 1485q33 0 68.5 -24.5t35.5 -53.5q0 -19 -10 -31l-192 -250 q-12 -16 -23 -16q-13 0 -27 9.5t-14 19.5q0 12 2 18l103 293q6 16 22.5 25.5t34.5 9.5z" />
<glyph unicode="&#x388;" horiz-adv-x="1345" d="M82 1485q33 0 68.5 -24.5t35.5 -53.5q0 -19 -10 -31l-192 -250q-12 -16 -23 -16q-13 0 -27 9.5t-14 19.5q0 12 2 18l103 293q6 16 22.5 25.5t34.5 9.5zM236 0l-7 4v45q0 9 5.5 14t11.5 5h28q62 0 87.5 20.5t25.5 69.5v1007q0 49 -25.5 69.5t-87.5 20.5h-28q-6 0 -11.5 5 t-5.5 12v47l7 4h954q11 -167 43 -332l-82 -18q-11 39 -20.5 67.5t-28.5 66.5t-40.5 62.5t-55 42t-72.5 17.5h-266q-29 0 -29 -60v-421h231q18 0 30.5 9.5t20.5 33.5t11.5 43t9.5 59q0 7 9.5 14.5t23.5 7.5h43l12 -20q-14 -115 -14 -190q0 -69 14 -191l-12 -18h-43 q-14 0 -23.5 6.5t-9.5 13.5q-6 40 -9.5 59.5t-11.5 43.5t-20.5 33.5t-30.5 9.5h-231v-508q0 -60 29 -60h313q80 0 136.5 75.5t84.5 197.5l88 -21q-36 -198 -55 -346h-999z" />
<glyph unicode="&#x389;" horiz-adv-x="1628" d="M109 1485q33 0 68.5 -24.5t35.5 -53.5q0 -19 -10 -31l-193 -250q-12 -16 -22 -16q-13 0 -27 9.5t-14 19.5q0 12 2 18l102 293q6 16 22.5 25.5t35.5 9.5zM1223 1165q0 49 -25.5 69.5t-87.5 20.5h-29q-6 0 -11 5t-5 12v49l4 4q199 -4 279 -4l280 4l4 -4v-49q0 -17 -16 -17 h-29q-61 0 -86.5 -22.5t-25.5 -67.5v-1009q0 -45 25.5 -67.5t86.5 -22.5h29q16 0 16 -19v-47l-4 -4q-206 4 -280 4l-279 -4l-4 4v47q0 19 16 19h29q62 0 87.5 20.5t25.5 69.5v501h-574v-501q0 -45 26 -67.5t87 -22.5h29q16 0 16 -19v-47l-4 -4q-207 4 -281 4l-278 -4l-4 4 v47q0 19 16 19h29q62 0 87 20.5t25 69.5v1009q0 49 -25 69.5t-87 20.5h-29q-6 0 -11 5t-5 12v49l4 4q198 -4 278 -4l281 4l4 -4v-49q0 -17 -16 -17h-29q-61 0 -87 -22.5t-26 -67.5v-413h574v413z" />
<glyph unicode="&#x38a;" horiz-adv-x="770" d="M84 1485q33 0 68.5 -24.5t35.5 -53.5q0 -19 -10 -31l-192 -250q-12 -16 -23 -16q-13 0 -27 9.5t-14 19.5q0 12 2 18l103 293q6 16 22.5 25.5t34.5 9.5zM623 156q0 -45 25.5 -67.5t86.5 -22.5h29q16 0 16 -19v-47l-4 -4q-204 4 -278 4l-279 -4l-4 4v47q0 19 16 19h29 q62 0 87.5 20.5t25.5 69.5v1009q0 49 -25.5 69.5t-87.5 20.5h-29q-6 0 -11 5t-5 12v49l4 4q199 -4 279 -4l278 4l4 -4v-49q0 -17 -16 -17h-29q-61 0 -86.5 -22.5t-25.5 -67.5v-1009z" />
<glyph unicode="&#x38c;" horiz-adv-x="1476" d="M127 1485q33 0 68.5 -24.5t35.5 -53.5q0 -19 -10 -31l-192 -250q-12 -16 -23 -16q-13 0 -27 9.5t-14 19.5q0 12 2 18l103 293q6 16 22.5 25.5t34.5 9.5zM764 1264q-54 0 -106 -21t-101 -67.5t-86 -114t-59.5 -168t-22.5 -221.5q0 -280 127 -444.5t315 -164.5 q159 0 262 155.5t103 416.5q0 151 -35 273t-95 198.5t-137 117t-165 40.5zM1466 674q0 -204 -81.5 -361t-235.5 -245t-358 -88q-187 0 -338.5 78.5t-241.5 229.5t-90 349q0 199 85 361t238 256t344 94q108 0 209.5 -30.5t186 -89.5t148 -140t99 -187.5t35.5 -226.5z" />
<glyph unicode="&#x38e;" horiz-adv-x="1406" d="M88 1485q33 0 69 -24.5t36 -53.5q0 -17 -11 -31l-192 -250q-12 -16 -23 -16q-13 0 -27 9.5t-14 19.5q0 12 2 18l103 293q6 16 22.5 25.5t34.5 9.5zM750 147v428l-322 558q-49 82 -77.5 102t-74.5 20h-24q-23 0 -23 15v51l4 4q234 -4 261 -4l233 4l4 -4v-49q0 -17 -14 -17 q-43 0 -63.5 -2t-32 -10t-8 -22.5t19.5 -40.5l285 -496l262 496q17 31 -8 53t-80 22q-13 0 -13 15v51l4 4q162 -4 187 -4l219 4l4 -4v-49q0 -17 -20 -17h-43q-48 0 -74 -15.5t-51 -63.5l-306 -576v-453q0 -46 25.5 -62.5t87.5 -16.5h55q7 0 12 -5t5 -14v-47l-4 -4 q-223 4 -303 4l-306 -4l-2 4v47q0 19 15 19h55q62 0 86.5 18t24.5 61z" />
<glyph unicode="&#x38f;" horiz-adv-x="1492" d="M109 1485q33 0 68.5 -24.5t35.5 -53.5q0 -19 -10 -31l-193 -250q-12 -16 -22 -16q-13 0 -27 9.5t-14 19.5q0 12 2 18l102 293q6 16 22.5 25.5t35.5 9.5zM1012 254l-11 -109h177q30 0 45 0.5t35.5 4t30 11t20 20t16 32.5t8.5 49h78l-14 -262h-467q-36 0 -33 33l25 274 q141 83 201.5 191t60.5 274q0 226 -100 361t-293 135q-83 0 -149.5 -26.5t-111 -72t-74.5 -108.5t-43.5 -134.5t-13.5 -152.5q0 -114 29.5 -196t85.5 -143t156 -128l14 -274q3 -33 -33 -33h-475l-14 262h78q6 -75 37.5 -96t117.5 -21h183l-7 109q-86 30 -162 77 t-138.5 111.5t-99 149.5t-36.5 180q0 102 47 204t129 185t208.5 135t271.5 52q149 0 274 -47.5t208 -127t129 -183.5t46 -218q0 -89 -36 -173.5t-97 -150t-139 -115.5t-164 -79z" />
<glyph unicode="&#x390;" horiz-adv-x="671" d="M397 1606q33 0 69 -24.5t36 -53.5q0 -18 -10 -31l-193 -250q-12 -16 -23 -16q-13 0 -26.5 9.5t-13.5 19.5q0 12 2 18l102 293q6 16 22.5 25.5t34.5 9.5zM377 1169q0 46 32 78.5t78 32.5q45 0 78 -33t33 -78q0 -44 -33 -76t-78 -32q-46 0 -78 32t-32 76zM6 1169 q0 45 33 78t78 33q46 0 78 -32.5t32 -78.5q0 -44 -32 -76t-78 -32q-45 0 -78 32t-33 76zM203 657q0 72 -10.5 98.5t-34.5 28.5l-84 9l-4 61q269 36 350 61q14 0 14 -6q-6 -149 -6 -251v-488q0 -32 13 -52t28 -20q52 0 141 115l64 -51q-39 -77 -108 -132t-140 -55 q-118 0 -170.5 49t-52.5 146v487z" />
<glyph unicode="&#x391;" horiz-adv-x="1431" d="M518 590h307l-170 463l-176 -439q0 -15 6.5 -19.5t32.5 -4.5zM303 162q-11 -30 -12 -50.5t24.5 -32t83.5 -11.5q25 0 34 -4.5t9 -16.5v-41l-10 -8q-188 4 -237 4l-175 -4l-16 6v43q0 14 9.5 17.5t31.5 3.5q35 0 74 30t63 88l457 1098q13 33 38.5 48.5t47.5 15.5 q68 0 92 -64l414 -1098q23 -61 47.5 -89.5t60.5 -28.5h58q22 0 26 -4t4 -17v-41l-10 -8q-196 4 -274 4l-295 -4l-17 10v39q0 21 54 21h55q51 0 51 53q0 23 -4 29l-127 344h-377q-32 0 -43 -4.5t-20 -24.5z" />
<glyph unicode="&#x392;" horiz-adv-x="1269" d="M453 1151v-381h114q116 0 187 57t71 174q0 58 -15 102t-38 69t-55 41t-60.5 21t-60.5 5q-49 0 -78.5 -5t-43 -17.5t-17.5 -26.5t-4 -39zM453 684v-512q0 -50 24.5 -70t110.5 -20q78 0 138.5 20t96.5 50.5t59 72t31.5 80t8.5 78.5q0 136 -85 218.5t-239 82.5h-145zM45 43 q0 25 37 25h59q36 0 49 17.5t13 66.5v1019q0 47 -13 65.5t-49 18.5h-67q-29 0 -29 21v45l4 4q207 -4 268 -4q25 0 117 2t148 2q119 0 209 -20t142 -51t84.5 -75t43 -85t10.5 -88q0 -78 -56.5 -154t-140.5 -113v-4q308 -81 308 -375q0 -56 -17 -106t-58 -97.5t-103 -81.5 t-158.5 -54.5t-218.5 -20.5h-580l-2 2v41z" />
<glyph unicode="&#x393;" horiz-adv-x="1046" d="M205 158v1016q0 49 -12.5 65t-49.5 16h-65q-33 0 -33 25v37l8 6h946q5 -140 50 -354l-80 -19q-14 52 -34 96.5t-51.5 87.5t-78.5 68t-105 25h-176q-33 0 -51 -24.5t-18 -69.5v-975q0 -45 25 -67.5t85 -22.5h31q14 0 14 -19v-47l-4 -4q-204 4 -276 4l-281 -4l-4 4v47 q0 19 18 19h29q61 0 87 20.5t26 69.5z" />
<glyph unicode="&#x394;" horiz-adv-x="1417" d="M657 1137l-430 -1063h844zM840 1333l499 -1296q9 -27 9 -31q0 -10 -43 -10h-1205q-43 0 -43 14q0 5 11 27l522 1296h250z" />
<glyph unicode="&#x395;" horiz-adv-x="1150" d="M55 0l-6 4v45q0 9 5.5 14t11.5 5h28q62 0 87.5 20.5t25.5 69.5v1007q0 49 -25.5 69.5t-87.5 20.5h-28q-6 0 -11.5 5t-5.5 12v47l6 4h955q11 -167 43 -332l-82 -18q-11 39 -20.5 67.5t-28.5 66.5t-40.5 62.5t-55 42t-72.5 17.5h-267q-28 0 -28 -60v-421h231q18 0 30.5 9.5 t20.5 33.5t11.5 43t9.5 59q0 7 9.5 14.5t23.5 7.5h43l12 -20q-14 -115 -14 -190q0 -69 14 -191l-12 -18h-43q-14 0 -23.5 6.5t-9.5 13.5q-6 40 -9.5 59.5t-11.5 43.5t-20.5 33.5t-30.5 9.5h-231v-508q0 -60 28 -60h314q80 0 136.5 75.5t84.5 197.5l88 -21q-36 -198 -55 -346 h-1000z" />
<glyph unicode="&#x396;" horiz-adv-x="1277" d="M1171 0h-1091q-39 0 -39 31q0 26 16 47l797 1108q7 10 10.5 16t6.5 14.5t-2.5 12.5t-18.5 4h-440q-45 0 -79.5 -12.5t-57 -30t-42 -52t-30.5 -63.5t-27 -80l-80 11q33 172 45 342q31 -2 72 -14.5t94 -12.5h731q105 10 129 10q28 0 36.5 -4.5t8.5 -15.5q0 -33 -49 -101 l-766 -1063q-23 -29 -17.5 -43t50.5 -14h457q57 0 99.5 18.5t72 56t48.5 80.5t36 103l84 -10q-45 -207 -54 -338z" />
<glyph unicode="&#x397;" horiz-adv-x="1480" d="M1028 1165q0 49 -25.5 69.5t-87.5 20.5h-28q-6 0 -11.5 5t-5.5 12v49l4 4q199 -4 279 -4l281 4l4 -4v-49q0 -17 -17 -17h-28q-61 0 -87 -22.5t-26 -67.5v-1009q0 -45 26 -67.5t87 -22.5h28q17 0 17 -19v-47l-4 -4q-207 4 -281 4l-279 -4l-4 4v47q0 9 5 14t12 5h28 q62 0 87.5 20.5t25.5 69.5v501h-573v-501q0 -45 25.5 -67.5t86.5 -22.5h29q16 0 16 -19v-47l-4 -4q-206 4 -280 4l-279 -4l-4 4v47q0 19 16 19h29q62 0 87.5 20.5t25.5 69.5v1009q0 49 -25.5 69.5t-87.5 20.5h-29q-6 0 -11 5t-5 12v49l4 4q199 -4 279 -4l280 4l4 -4v-49 q0 -17 -16 -17h-29q-61 0 -86.5 -22.5t-25.5 -67.5v-413h573v413z" />
<glyph unicode="&#x398;" horiz-adv-x="1495" d="M897 733q54 0 73 13.5t19 62.5v12q3 17 15 17h57q-6 -97 -6 -158l6 -186h-55q-15 0 -17 16v14q0 47 -21 60.5t-71 13.5h-295q-55 0 -73.5 -13t-18.5 -61v-14q-3 -16 -16 -16h-56q6 112 6 186l-6 160h56q16 -2 16 -17v-14q0 -51 17.5 -63.5t74.5 -12.5h295zM719 1264 q-54 0 -106 -21t-101 -67.5t-86 -114t-59.5 -168t-22.5 -221.5q0 -280 127 -444.5t315 -164.5q159 0 262 155.5t103 416.5q0 151 -35 273t-95 198.5t-137 117t-165 40.5zM1421 674q0 -204 -82 -361t-236 -245t-358 -88q-140 0 -262 46t-212.5 129.5t-142.5 208t-52 273.5 q0 199 85 361t238 256t344 94q108 0 209.5 -30.5t186 -89.5t148 -140t99 -187.5t35.5 -226.5z" />
<glyph unicode="&#x399;" horiz-adv-x="653" d="M453 156q0 -45 25.5 -67.5t86.5 -22.5h29q16 0 16 -19v-47l-4 -4q-204 4 -278 4l-279 -4l-4 4v47q0 19 16 19h29q62 0 87.5 20.5t25.5 69.5v1009q0 49 -25.5 69.5t-87.5 20.5h-29q-6 0 -11 5t-5 12v49l4 4q199 -4 279 -4l278 4l4 -4v-49q0 -17 -16 -17h-29 q-61 0 -86.5 -22.5t-25.5 -67.5v-1009z" />
<glyph unicode="&#x39a;" horiz-adv-x="1351" d="M453 156q0 -45 25.5 -67.5t86.5 -22.5h29q16 0 16 -19v-47l-4 -4q-204 4 -278 4l-279 -4l-4 4v47q0 19 16 19h29q62 0 87.5 20.5t25.5 69.5v1009q0 49 -25.5 69.5t-87.5 20.5h-29q-6 0 -11 5t-5 12v49l4 4q199 -4 279 -4l276 4l4 -4v-49q0 -17 -14 -17h-31 q-60 0 -85 -22.5t-25 -67.5v-411l426 399q13 12 23.5 27t17.5 31.5t-2.5 28t-36.5 11.5q-82 0 -82 25v43l8 6q194 -4 274 -4l240 4l10 -6v-43q0 -22 -61 -25q-109 -17 -234 -137l-317 -287q-66 -62 -76 -89t21 -60l489 -520q43 -45 72 -66.5t53 -21.5h37q15 0 22.5 -3t9 -8 t1.5 -14v-45l-7 -4q-188 4 -266 4l-162 -4l-8 8v53q0 24 -1 35t-8 25.5t-22 29.5l-421 455v-446z" />
<glyph unicode="&#x39b;" horiz-adv-x="1302" d="M430 68q6 0 11 -5t5 -12v-49l-4 -2q-178 2 -258 2l-180 -2l-4 2v49q0 17 16 17q83 0 110.5 22.5t59.5 108.5l412 1101q8 21 30.5 34.5t39.5 13.5q19 0 39.5 -13t27.5 -35l389 -1112q27 -73 57.5 -96.5t106.5 -23.5q6 0 11.5 -5t5.5 -12v-49l-5 -2q-198 2 -278 2l-295 -2 l-4 2v49q0 17 16 17q97 0 130 18.5t16 65.5l-256 729l-23 63l-24 -57l-267 -715q-26 -64 -5 -84t120 -20z" />
<glyph unicode="&#x39c;" horiz-adv-x="1746" d="M1456 1165l88 -1009q5 -46 29 -68t84 -22h29q16 0 16 -19v-47l-4 -4q-203 4 -275 4l-249 -4l-5 4v47q0 9 5.5 14t11.5 5h28q61 0 84.5 21t18.5 69l-64 757l-366 -899q-19 -39 -60 -39q-17 0 -35.5 9.5t-25.5 29.5q-229 557 -379 906l-43 -764q-3 -50 20.5 -70t86.5 -20 h28q17 0 17 -19v-47l-4 -4q-150 4 -222 4l-217 -4l-4 4v47q0 9 5.5 14t11.5 5h20q63 0 94.5 21t34.5 69l57 1009q3 52 -15 71t-77 19h-28q-8 0 -13.5 5t-5.5 12v49l4 2h346l420 -999q65 162 195.5 501.5t193.5 497.5h318l4 -2v-49q0 -17 -17 -17h-28q-62 0 -89.5 -23 t-23.5 -67z" />
<glyph unicode="&#x39d;" horiz-adv-x="1454" d="M1118 1165q0 49 -25 69.5t-85 20.5h-29q-18 0 -18 17v49l4 2q139 -2 219 -2l219 2l4 -2v-49q0 -17 -16 -17h-29q-61 0 -87 -22.5t-26 -67.5v-1114q0 -76 -78 -76q-55 0 -96 56l-717 932v-807q0 -45 26 -67.5t87 -22.5h29q16 0 16 -19v-47l-4 -4q-149 4 -221 4l-232 -4 l-4 4v47q0 9 5.5 14t11.5 5h28q129 0 129 90v991q-20 27 -30 39.5t-29.5 32t-40 28t-43.5 8.5q-24 0 -32.5 5.5t-8.5 17.5v39l6 6h297l770 -979v821z" />
<glyph unicode="&#x39e;" horiz-adv-x="1327" d="M109 354h77q4 -56 12 -92t18 -58t29 -32t37.5 -13t51.5 -3h639q39 0 62 1.5t44 9.5t31.5 19.5t19.5 35.5t13 54t8 78h80l-17 -362h-81q-3 8 -17 8h-885q-12 0 -16 -8h-92zM1231 991h-80q-4 46 -8 73t-13.5 48.5t-17.5 31t-30 15.5t-41.5 7t-59.5 1h-625q-30 0 -47 -0.5 t-36 -3.5t-28.5 -7t-20 -13.5t-15 -21t-9.5 -31.5t-7.5 -42.5t-4.5 -56.5h-79q0 3 2.5 80t6 162t5.5 98h76q0 -8 14 -8h903q14 0 19 8h79q0 -59 17 -340zM887 707q55 0 74.5 13t19.5 62v15q0 14 12 14h58q-7 -97 -7 -158l7 -184h-56q-14 0 -14 14v15q0 47 -21.5 60t-72.5 13 h-443q-56 0 -75 -12.5t-19 -60.5v-15q-1 -7 -3.5 -10t-4.5 -3.5t-6 -0.5h-55q6 112 6 184l-6 160h55q14 0 14 -16v-15q0 -50 18.5 -62.5t75.5 -12.5h443z" />
<glyph unicode="&#x39f;" horiz-adv-x="1495" d="M719 1264q-54 0 -106 -21t-101 -67.5t-86 -114t-59.5 -168t-22.5 -221.5q0 -280 127 -444.5t315 -164.5q159 0 262 155.5t103 416.5q0 151 -35 273t-95 198.5t-137 117t-165 40.5zM1421 674q0 -204 -82 -361t-236 -245t-358 -88q-140 0 -262 46t-212.5 129.5t-142.5 208 t-52 273.5q0 199 85 361t238 256t344 94q108 0 209.5 -30.5t186 -89.5t148 -140t99 -187.5t35.5 -226.5z" />
<glyph unicode="&#x3a0;" horiz-adv-x="1536" d="M1069 158v979q0 48 -15 70t-61 22h-452q-46 0 -60 -19.5t-14 -72.5v-979q0 -48 26 -69t87 -21h43q16 0 16 -19v-47l-2 -4q-215 4 -295 4l-303 -4l-4 4v47q0 19 16 19h53q61 0 87 22.5t26 67.5v1007q0 53 -25.5 71.5t-78.5 18.5h-62q-16 0 -16 17v49l4 2q5 0 142 -1 t153 -1q254 -4 428 -4q126 0 420 4q7 0 160.5 1t154.5 1l4 -2v-49q0 -6 -4.5 -11.5t-11.5 -5.5h-60q-47 -2 -76.5 -24t-29.5 -66v-1007q0 -48 26 -69t87 -21h53q16 0 16 -19v-47l-4 -4q-227 4 -307 4l-289 -4l-4 4v47q0 19 16 19h43q61 0 87 22.5t26 67.5z" />
<glyph unicode="&#x3a1;" horiz-adv-x="1126" d="M453 1143v-484q44 -6 102 -6q131 0 203.5 74t72.5 229q0 299 -256 299q-76 0 -99 -26t-23 -86zM203 182v965q0 101 -70 104l-65 4q-23 0 -23 17v49l4 4q55 0 254.5 7t288.5 7q99 0 179.5 -16.5t133.5 -45t91 -63t58 -75.5t29 -76.5t9 -71.5q0 -62 -15.5 -119.5 t-54.5 -113t-97 -96.5t-150.5 -66t-209.5 -25q-61 0 -112 7v-396q0 -56 29 -80.5t93 -31.5l39 -4q17 -1 17 -19v-47l-4 -4q-152 4 -299 4q-127 0 -279 -4l-4 4v47q0 17 16 19l29 4q64 9 88.5 32t24.5 80z" />
<glyph unicode="&#x3a3;" horiz-adv-x="1259" d="M258 98h580q57 0 99.5 17.5t72 53t48.5 77.5t36 102l88 -10q-42 -179 -56 -338l-1103 -2l-5 4v59l5 7q42 0 54.5 5.5t31.5 30.5l428 531l-377 545q-25 34 -54 52t-44.5 20.5t-36.5 2.5l-5 5v61l5 2l313 -2l760 2q16 -177 43 -319l-84 -11q-16 49 -27.5 79t-31 62.5 t-42.5 50t-57.5 29t-79.5 11.5h-426l367 -535l-2 -2l-62 -49z" />
<glyph unicode="&#x3a4;" horiz-adv-x="1222" d="M178 1321h866q46 0 46 49l73 8q13 -164 45 -315l-82 -10q-11 43 -19.5 70t-20.5 47.5t-22.5 31t-30 16.5t-37.5 7.5t-50 1.5h-110q-56 0 -77.5 -18t-21.5 -68v-985q0 -48 26 -69t87 -21h53q7 0 12 -5t5 -14v-47l-5 -4q-243 4 -323 4l-283 -4l-4 4v47q0 19 17 19h53 q61 0 86.5 22.5t25.5 67.5v991q0 46 -21.5 63t-78.5 17h-108q-32 0 -50.5 -1.5t-38 -7.5t-30.5 -16.5t-23 -30.5t-21 -48t-20 -70l-80 10q32 151 45 315l74 -8q0 -49 43 -49z" />
<glyph unicode="&#x3a5;" horiz-adv-x="1263" d="M520 147v428l-321 558q-49 82 -77.5 102t-74.5 20h-24q-23 0 -23 15v51l4 4q233 -4 260 -4l234 4l4 -4v-49q0 -17 -15 -17q-43 0 -63.5 -2t-32 -10t-8 -22.5t19.5 -40.5l285 -496l262 496q17 31 -8 53t-80 22q-12 0 -12 15v51l4 4q161 -4 186 -4l220 4l4 -4v-49 q0 -17 -21 -17h-43q-48 0 -74 -15.5t-51 -63.5l-305 -576v-453q0 -46 25.5 -62.5t87.5 -16.5h55q16 0 16 -19v-47l-4 -4q-223 4 -303 4l-305 -4l-2 4v47q0 19 14 19h56q62 0 86 18t24 61z" />
<glyph unicode="&#x3a6;" horiz-adv-x="1452" d="M602 299v729q-61 -8 -108.5 -28.5t-88 -59.5t-62 -105.5t-21.5 -156.5q0 -323 280 -379zM852 299q74 13 128 43t82.5 65t45.5 84t21 87t4 86q0 172 -72.5 255t-208.5 105v-725zM852 158q0 -45 26 -67.5t87 -22.5h28q17 0 17 -19v-47l-4 -4q-205 4 -279 4l-278 -4l-5 4v47 q0 9 5 14t12 5h28q62 0 87.5 20.5t25.5 69.5v75q-128 13 -227 52.5t-153.5 88t-89.5 107.5t-45.5 102.5t-10.5 80.5q0 61 31.5 126.5t92.5 127.5t166 109.5t236 64.5v73q0 49 -25.5 69.5t-87.5 20.5h-28q-6 0 -11.5 5t-5.5 12v49l5 2q198 -2 278 -2l279 2l4 -2v-49 q0 -17 -17 -17h-28q-61 0 -87 -22.5t-26 -67.5v-71q229 -25 377.5 -142t148.5 -274q0 -153 -149 -284t-377 -161v-75z" />
<glyph unicode="&#x3a7;" horiz-adv-x="1449" d="M49 1270v51l10 2q30 0 114.5 -1t92.5 -1q3 0 72.5 0.5t149.5 1t108 0.5q6 -2 8 -2v-51q0 -15 -10 -15q-77 0 -92.5 -18.5t16.5 -65.5l219 -323q20 -27 29 -27.5t29 23.5q182 222 241 327q45 84 -75 84q-5 0 -10 4t-5 11v51l4 2q25 0 131 -1t115 -1q2 0 90.5 1t110.5 1 l4 -2v-51q0 -15 -19 -15q-72 0 -123 -32t-102 -93l-295 -346q-28 -32 -23 -53t58 -92l313 -430q102 -143 217 -143q15 0 15 -17v-49l-2 -4q-114 4 -217 4l-340 -4l-6 4v51q0 6 3.5 10.5t8.5 4.5q89 0 98.5 15t-31.5 69l-249 354q-32 47 -44.5 50.5t-33.5 -26.5 q-135 -176 -254 -370q-15 -25 -16.5 -42.5t5.5 -27t22.5 -15t28.5 -6.5t31 -1q13 0 13 -17v-49l-6 -4q-240 4 -269 4l-172 -4l-2 4v51q0 15 23 15q43 0 77 10t64 35t46 43.5t48 58.5l299 383q26 31 24.5 48.5t-32.5 60.5l-295 419q-91 131 -192 131q-23 0 -23 15z" />
<glyph unicode="&#x3a8;" horiz-adv-x="1533" d="M1300 1262h144q19 0 33 -10t14 -25t-31 -23q-22 -6 -31 -9t-30.5 -18.5t-32 -38t-20 -66t-9.5 -103.5q0 -106 -27 -193.5t-70 -146t-102.5 -102t-119 -66.5t-125.5 -35v-268q0 -45 26 -67.5t87 -22.5h28q17 0 17 -19v-47l-4 -4q-205 4 -279 4l-279 -4l-4 4v47q0 9 5.5 14 t11.5 5h28q62 0 87.5 20.5t25.5 69.5v266q-68 10 -128.5 32t-120 62t-102 94t-69 133.5t-26.5 176.5q0 54 -5 97.5t-11 71.5t-19.5 50t-21 32t-24.5 19t-22 10.5t-22 5.5q-27 7 -27 21q0 15 11.5 24t29.5 9h147q93 0 141 -78.5t48 -229.5q0 -373 221 -456v667 q0 49 -25.5 69.5t-87.5 20.5h-28q-6 0 -11.5 5t-5.5 12v49l4 2q199 -2 279 -2l279 2l4 -2v-49q0 -17 -17 -17h-28q-61 0 -87 -22.5t-26 -67.5v-669q54 21 95.5 64t64.5 92.5t37.5 110.5t19 111t4.5 103q0 64 8.5 112.5t28 89t57.5 62t92 21.5z" />
<glyph unicode="&#x3a9;" horiz-adv-x="1492" d="M967 254l-11 -109h177q30 0 45 0.5t35.5 4t30 11t20 20t16 32.5t8.5 49h78l-14 -262h-467q-36 0 -33 33l25 274q141 83 201.5 191t60.5 274q0 225 -100.5 360.5t-293.5 135.5q-83 0 -149.5 -26.5t-111 -72t-74.5 -108.5t-43 -134.5t-13 -152.5q0 -114 29.5 -196 t85.5 -143t156 -128l14 -274q3 -33 -33 -33h-475l-14 262h78q6 -75 37.5 -96t117.5 -21h182l-6 109q-86 30 -162 77t-138.5 111.5t-99 149.5t-36.5 180q0 102 46.5 204t129 185t208.5 135t271 52q149 0 274.5 -47.5t208.5 -127t129 -183.5t46 -218q0 -89 -36 -173.5 t-97 -150t-139 -115.5t-164 -79z" />
<glyph unicode="&#x3aa;" horiz-adv-x="653" d="M401 1532q0 46 32.5 78t78.5 32q45 0 78 -32.5t33 -77.5q0 -44 -33.5 -76.5t-77.5 -32.5q-46 0 -78.5 32.5t-32.5 76.5zM31 1532q0 45 32.5 77.5t77.5 32.5q46 0 78.5 -32t32.5 -78q0 -44 -32.5 -76.5t-78.5 -32.5q-44 0 -77 32.5t-33 76.5zM453 156q0 -45 25.5 -67.5 t86.5 -22.5h29q16 0 16 -19v-47l-4 -4q-204 4 -278 4l-279 -4l-4 4v47q0 19 16 19h29q62 0 87.5 20.5t25.5 69.5v1009q0 49 -25.5 69.5t-87.5 20.5h-29q-6 0 -11 5t-5 12v49l4 4q199 -4 279 -4l278 4l4 -4v-49q0 -17 -16 -17h-29q-61 0 -86.5 -22.5t-25.5 -67.5v-1009z" />
<glyph unicode="&#x3ab;" horiz-adv-x="1263" d="M334 1528q0 46 32 78t78 32t77.5 -32t31.5 -78t-31.5 -77.5t-77.5 -31.5t-78 31.5t-32 77.5zM719 1528q0 46 32 78t78 32t77.5 -32t31.5 -78t-31.5 -77.5t-77.5 -31.5t-78 31.5t-32 77.5zM520 147v428l-321 558q-49 82 -77.5 102t-74.5 20h-24q-23 0 -23 15v51l4 4 q233 -4 260 -4l234 4l4 -4v-49q0 -17 -15 -17q-43 0 -63.5 -2t-32 -10t-8 -22.5t19.5 -40.5l285 -496l262 496q17 31 -8 53t-80 22q-12 0 -12 15v51l4 4q161 -4 186 -4l220 4l4 -4v-49q0 -17 -21 -17h-43q-48 0 -74 -15.5t-51 -63.5l-305 -576v-453q0 -46 25.5 -62.5 t87.5 -16.5h55q16 0 16 -19v-47l-4 -4q-223 4 -303 4l-305 -4l-2 4v47q0 19 14 19h56q62 0 86 18t24 61z" />
<glyph unicode="&#x3ac;" horiz-adv-x="1306" d="M596 1397q33 0 68.5 -24.5t35.5 -53.5q0 -19 -10 -31l-192 -250q-12 -16 -23 -16q-13 0 -27 9.5t-14 19.5q0 12 2 18l103 293q6 16 22.5 25.5t34.5 9.5zM788 422l-16 72q-13 63 -27 110.5t-34 93t-44 74.5t-57 46.5t-73 17.5q-211 0 -211 -373q0 -64 14.5 -133.5 t41 -132.5t72 -103.5t101.5 -40.5q18 0 42 25.5t54 78t53 96.5t58 116zM537 911q151 0 233.5 -69.5t122.5 -202.5l137 279q86 -13 117 -13q39 0 137 10l-311 -620l4 4q13 -87 32.5 -132.5t39.5 -45.5q67 0 122 125l99 -37q-46 -130 -95.5 -182t-136.5 -52q-124 0 -176 142 q-120 -142 -323 -142q-225 0 -345 120.5t-120 318.5q0 110 29 197.5t75 142.5t108 91.5t124 51t127 14.5z" />
<glyph unicode="&#x3ad;" horiz-adv-x="890" d="M502 1393q33 0 68.5 -24.5t35.5 -53.5q0 -18 -10 -31l-193 -250q-12 -16 -22 -16q-13 0 -27 9.5t-14 19.5q0 12 2 18l102 293q6 16 22.5 25.5t35.5 9.5zM340 248q0 -80 42 -134.5t110 -54.5q93 0 266 119l55 -72q-60 -57 -148.5 -94t-193.5 -37q-90 0 -160 18t-110.5 45 t-66.5 64.5t-35 71t-9 68.5q0 20 1.5 35.5t12.5 43.5t30.5 51t60 50t96.5 47q-84 33 -122 77t-38 113q0 28 10 59t36 66t64.5 62.5t102 46t141.5 18.5q133 0 225.5 -46.5t92.5 -106.5q0 -30 -22 -50t-46 -26t-49 -6q-53 0 -79 17.5t-44 51.5q-16 28 -25.5 43.5t-28 31.5 t-36.5 16q-42 0 -76.5 -42.5t-34.5 -127.5q0 -94 31 -131t84 -37q7 2 17 2q54 8 88 8q102 0 102 -43q0 -51 -104 -51q-5 0 -14.5 1t-22 2.5t-19.5 2.5q-35 6 -49 6q-63 0 -99 -47.5t-36 -130.5z" />
<glyph unicode="&#x3ae;" horiz-adv-x="1148" d="M676 1395q33 0 68.5 -24.5t35.5 -53.5q0 -19 -10 -31l-192 -250q-12 -16 -23 -16q-13 0 -27 9.5t-14 19.5q0 12 2 18l102 293q6 16 22.5 25.5t35.5 9.5zM428 780q31 26 54 42.5t62.5 40t84 36t90.5 12.5q276 0 276 -329v-582q0 -301 45 -420l-39 -65l-210 100 q-21 98 -21 385v567q0 102 -31 166t-94 64q-57 0 -103.5 -23.5t-113.5 -75.5v-671l-182 -95l-43 70v655q0 50 -5.5 78t-14.5 38t-25 11l-84 9l-4 61q244 31 344 61q14 0 14 -6l-4 -129h4z" />
<glyph unicode="&#x3af;" horiz-adv-x="671" d="M326 1399q33 0 68.5 -24.5t35.5 -53.5q0 -19 -10 -31l-193 -250q-12 -16 -22 -16q-13 0 -27 9.5t-14 19.5q0 12 2 18l102 293q6 16 22.5 25.5t35.5 9.5zM203 657q0 72 -10.5 98.5t-34.5 28.5l-84 9l-4 61q269 36 350 61q14 0 14 -6q-6 -149 -6 -251v-488q0 -32 13 -52 t28 -20q52 0 141 115l64 -51q-39 -77 -108 -132t-140 -55q-118 0 -170.5 49t-52.5 146v487z" />
<glyph unicode="&#x3b0;" horiz-adv-x="1085" d="M659 1606q33 0 69 -24.5t36 -53.5q0 -18 -10 -31l-193 -250q-12 -16 -22 -16q-13 0 -27 9.5t-14 19.5q0 12 2 18l102 293q6 16 22.5 25.5t34.5 9.5zM639 1169q0 46 32.5 78.5t78.5 32.5q44 0 77 -33t33 -78q0 -44 -33 -76t-77 -32q-46 0 -78.5 32t-32.5 76zM268 1169 q0 45 33 78t78 33q46 0 78 -32.5t32 -78.5q0 -44 -32 -76t-78 -32q-45 0 -78 32t-33 76zM1022 512q0 -130 -35 -234.5t-93.5 -169t-131.5 -99t-152 -34.5q-120 0 -207 31t-135 86.5t-70 121t-22 144.5q0 95 21 238q14 119 14 143q0 52 -8 52q-6 0 -38.5 -8.5t-61.5 -16.5 l-29 -8l-19 55q37 33 122 65.5t153 32.5q57 0 91 -27t34 -77q0 -56 -21 -199q-24 -140 -24 -256q0 -53 11.5 -99.5t34.5 -84.5t62.5 -60t91.5 -22q73 0 130.5 60.5t86.5 151t29 189.5q0 128 -25 188.5t-61 69.5q-121 15 -121 84q0 32 34 57t93 25q246 0 246 -399z" />
<glyph unicode="&#x3b1;" horiz-adv-x="1306" d="M788 422l-16 72q-13 63 -27 110.5t-34 93t-44 74.5t-57 46.5t-73 17.5q-211 0 -211 -373q0 -64 14.5 -133.5t41 -132.5t72 -103.5t101.5 -40.5q18 0 42 25.5t54 78t53 96.5t58 116zM537 911q151 0 233.5 -69.5t122.5 -202.5l137 279q86 -13 117 -13q39 0 137 10 l-311 -620l4 4q13 -87 32.5 -132.5t39.5 -45.5q67 0 122 125l99 -37q-46 -130 -95.5 -182t-136.5 -52q-124 0 -176 142q-120 -142 -323 -142q-225 0 -345 120.5t-120 318.5q0 110 29 197.5t75 142.5t108 91.5t124 51t127 14.5z" />
<glyph unicode="&#x3b2;" horiz-adv-x="1110" d="M377 1001v-876l92 47q30 -57 79.5 -94t80.5 -37q43 0 77.5 39t53 99t28 120t9.5 113q0 47 -10.5 106.5t-31 121t-57.5 103t-82 41.5q-4 0 -38.5 -11t-69.5 -11q-84 0 -84 65q0 29 24.5 45.5t59.5 16.5q27 0 64 -14.5t49 -14.5q47 0 76.5 87.5t29.5 166.5q0 94 -50 167 t-118 73q-24 0 -45.5 -7t-47.5 -29.5t-45 -59t-31.5 -103t-12.5 -154.5zM152 -408v1260q0 86 13 165.5t44.5 156t79.5 132.5t122.5 90t168.5 34q96 0 179 -32t138 -101t55 -162q0 -196 -260 -306q43 -10 82.5 -24.5t89.5 -46.5t86 -74t61 -111t25 -153q0 -119 -43.5 -218 t-135.5 -163t-218 -64q-89 0 -160.5 38t-101.5 98v-494l-182 -94z" />
<glyph unicode="&#x3b3;" horiz-adv-x="1126" d="M1067 791q0 -128 -93.5 -348.5t-271.5 -467.5q23 -75 23 -172q0 -28 -3.5 -64t-15.5 -87t-31 -92t-54 -70t-80 -29q-41 0 -72 19t-46.5 49t-22.5 59t-7 56q0 67 37 146t121 192v14q-99 441 -266 725q-27 47 -47 47q-13 0 -38.5 -41t-52.5 -104l-131 43q15 44 36 83 t54 77.5t81 61.5t106 23q59 0 100.5 -12t67.5 -37t40.5 -51.5t28.5 -67.5q110 -315 152 -573q199 340 199 477q0 54 -23 64q-33 15 -62.5 44.5t-29.5 61.5q0 47 38.5 70.5t96.5 23.5q70 0 118 -34t48 -86z" />
<glyph unicode="&#x3b4;" horiz-adv-x="1105" d="M621 772l-46 39q-241 -106 -241 -367q0 -63 14 -129.5t40.5 -126.5t72.5 -98.5t102 -38.5q29 0 56.5 8.5t59 34.5t54.5 67t38 112.5t15 164.5q0 85 -45.5 180.5t-119.5 153.5zM498 874l-29 23q-134 109 -188 173t-54 132q0 59 27 104t73 71.5t101.5 39.5t118.5 13 q156 0 265.5 -67t109.5 -128q0 -44 -37.5 -63t-83.5 -19q-34 0 -75 21t-67 71q-53 103 -114 103q-58 0 -90.5 -32t-32.5 -93q0 -38 48 -85.5t140 -117.5q103 -78 170.5 -136t130.5 -129t93 -143t30 -149q0 -121 -43 -217t-114.5 -153.5t-157.5 -87.5t-178 -30 q-204 0 -327.5 125t-123.5 310q0 76 25 142.5t64 114.5t94.5 89.5t109 68.5t115.5 49z" />
<glyph unicode="&#x3b5;" horiz-adv-x="890" d="M340 248q0 -80 42 -134.5t110 -54.5q93 0 266 119l55 -72q-60 -57 -148.5 -94t-193.5 -37q-90 0 -160 18t-110.5 45t-66.5 64.5t-35 71t-9 68.5q0 20 1.5 35.5t12.5 43.5t30.5 51t60 50t96.5 47q-84 33 -122 77t-38 113q0 28 10 59t36 66t64.5 62.5t102 46t141.5 18.5 q133 0 225.5 -46.5t92.5 -106.5q0 -30 -22 -50t-46 -26t-49 -6q-53 0 -79 17.5t-44 51.5q-16 28 -25.5 43.5t-28 31.5t-36.5 16q-42 0 -76.5 -42.5t-34.5 -127.5q0 -94 31 -131t84 -37q7 2 17 2q54 8 88 8q102 0 102 -43q0 -51 -104 -51q-5 0 -14.5 1t-22 2.5t-19.5 2.5 q-35 6 -49 6q-63 0 -99 -47.5t-36 -130.5z" />
<glyph unicode="&#x3b6;" horiz-adv-x="1015" d="M455 1315l-29 -10q-3 -1 -10.5 -6t-20 -17t-23 -27t-18.5 -38.5t-8 -49.5q0 -47 90 -47q34 0 148 15l-27 -2q136 143 231 143q115 0 115 -92q0 -42 -75 -75t-210 -50l29 2q-131 -168 -200.5 -290t-87 -194t-17.5 -161q0 -34 2 -60t9 -55t19 -50t33 -41t50 -32.5t71 -20 t95 -7.5q156 0 242.5 -73t86.5 -204q0 -39 -10.5 -75.5t-40.5 -77t-76.5 -70t-125.5 -49t-181 -19.5q-53 0 -102 11t-87 39.5t-38 68.5q0 36 28.5 57t85.5 21q50 0 74 -12t45 -37q44 -52 80 -52q108 0 150.5 49t42.5 144q0 117 -150 117q-129 0 -224 22.5t-151 58.5 t-89.5 91t-44.5 110t-11 125q0 138 80 281t284 375q-82 -7 -124 -7q-240 0 -240 134q0 47 78 95t227 103z" />
<glyph unicode="&#x3b7;" horiz-adv-x="1148" d="M428 780q31 26 54 42.5t62.5 40t84 36t90.5 12.5q276 0 276 -329v-582q0 -301 45 -420l-39 -65l-210 100q-21 98 -21 385v567q0 102 -31 166t-94 64q-57 0 -103.5 -23.5t-113.5 -75.5v-671l-182 -95l-43 70v655q0 50 -5.5 78t-14.5 38t-25 11l-84 9l-4 61q244 31 344 61 q14 0 14 -6l-4 -129h4z" />
<glyph unicode="&#x3b8;" horiz-adv-x="1019" d="M727 637h-432q1 -145 28 -278.5t78 -220.5t113 -87t111.5 87t75 219.5t26.5 279.5zM504 1319q-65 0 -114 -95.5t-71.5 -226t-23.5 -266.5h432q-1 154 -30 288.5t-80.5 217t-112.5 82.5zM59 684q0 171 40 309.5t106 224.5t146 131.5t165 45.5q57 0 115.5 -22t118.5 -75.5 t106.5 -132.5t75.5 -203.5t29 -277.5q0 -152 -30.5 -276t-78 -202.5t-109.5 -132t-121 -76t-116 -22.5q-61 0 -121.5 24.5t-120 79.5t-104.5 135t-73 201.5t-28 268.5z" />
<glyph unicode="&#x3b9;" horiz-adv-x="671" d="M203 657q0 72 -10.5 98.5t-34.5 28.5l-84 9l-4 61q269 36 350 61q14 0 14 -6q-6 -149 -6 -251v-488q0 -32 13 -52t28 -20q52 0 141 115l64 -51q-39 -77 -108 -132t-140 -55q-118 0 -170.5 49t-52.5 146v487z" />
<glyph unicode="&#x3ba;" horiz-adv-x="1085" d="M412 658v-134q17 24 57.5 69.5t58.5 72.5q37 52 57.5 78t56 64t64.5 56.5t70.5 32.5t87.5 14q73 0 114.5 -23.5t41.5 -88.5q0 -36 -36.5 -66.5t-80.5 -30.5q-55 0 -90 26.5t-35 59.5q-16 -12 -51.5 -49.5t-75.5 -93.5l-67 -88q88 -163 174 -330q22 -42 44.5 -74 t36.5 -45.5t21 -13.5q17 0 113 113q58 -64 74 -64q-82 -100 -136.5 -134t-126.5 -34q-56 0 -100.5 33.5t-91.5 122.5q-49 96 -123 244l-57 -58v-280l-183 -94l-43 69v645q0 72 -10.5 98.5t-34.5 28.5l-84 9l-4 61q269 36 350 61q15 0 15 -6q-6 -149 -6 -251z" />
<glyph unicode="&#x3bb;" horiz-adv-x="1189" d="M1149 213l18 -8q-31 -101 -89.5 -165.5t-133.5 -64.5q-95 0 -154.5 68.5t-103.5 216.5l-104 365q-152 -344 -267 -598l-204 -58l-78 31l469 877q-22 67 -31 98q-102 315 -176 315q-51 0 -160 -84l-53 92q40 60 108 96t134 36q20 0 44 -5.5t58 -23t64.5 -45.5t61 -78.5 t50.5 -116.5l182 -608q76 -246 110.5 -336t57.5 -90q41 0 101 143z" />
<glyph unicode="&#x3bc;" horiz-adv-x="1083" d="M666 98q-77 -62 -136.5 -92.5t-136.5 -30.5q-48 0 -94 19q1 -10 2 -83t8 -108q25 -110 25 -147q0 -64 -29 -97.5t-80 -33.5q-38 0 -83.5 40.5t-45.5 100.5q0 47 15 146q1 10 6 39t7 44.5t4.5 43t2.5 53.5q0 16 -2.5 51.5t-3.5 50.5q-2 17 -15.5 87t-13.5 100v381 q0 23 -5.5 79.5t-10.5 102.5l-6 45l241 26q7 -147 7 -213v-395q0 -100 28 -161.5t80 -61.5q62 0 131 35t103 82v688l225 29v-660q0 -35 1 -54.5t5 -45.5t12.5 -39.5t24.5 -23t39 -9.5q17 0 29 5t17 11.5t9 11.5t8 5q6 0 16.5 -15.5t10.5 -25.5q0 -7 -23 -29.5t-70 -45.5 t-98 -23q-90 0 -135.5 28.5t-64.5 89.5h-4z" />
<glyph unicode="&#x3bd;" horiz-adv-x="1058" d="M868 911q64 0 100 -33.5t36 -82.5q0 -33 -27 -131q-44 -137 -126.5 -288t-254.5 -401h-174q-5 143 -43 335t-90 333t-90 141q-54 0 -99 -61l-77 49q102 139 217 139q44 0 83.5 -25t68.5 -61t58.5 -95.5t48 -107.5t42.5 -118q50 -163 71 -273q110 189 152.5 273.5 t42.5 128.5q0 74 -39 104q-35 26 -35 84q0 31 36 60.5t99 29.5z" />
<glyph unicode="&#x3be;" horiz-adv-x="942" d="M723 1139q-25 -15 -33 -19q27 8 33 19zM748 -150q0 125 -177 125q-479 0 -479 347q0 81 52.5 139.5t154.5 103.5q-145 90 -145 221q0 121 233 244h-8q-225 0 -225 133q0 46 79.5 93t231.5 104q2 -13 3 -26l1.5 -19.5t1.5 -9.5q4 -17 6 -17l-28 -14q-19 -10 -28 -15.5 t-30 -22.5t-31 -40.5t-10 -52.5q0 -43 60 -43q32 0 102 10q153 107 252 107q117 0 117 -78q0 -41 -76 -62.5t-227 -29.5q-110 -59 -154.5 -126t-44.5 -157q0 -72 16 -99.5t47 -27.5q41 0 148 41q71 27 108 27q95 0 95 -64q0 -86 -150 -86h-33q-3 0 -7.5 1t-6.5 1 q-32 -8 -100 -24.5t-101 -24.5q-94 -48 -94 -176q0 -95 53.5 -147t192.5 -52q157 0 253.5 -72t96.5 -211q0 -123 -103 -200.5t-282 -77.5q-62 0 -103 6t-69.5 26t-28.5 54q0 32 33 51t84 19q15 0 28.5 -1.5t29 -5.5t23 -6.5t27 -9.5t23.5 -8q77 -29 100 -29q36 0 62.5 51 t26.5 131z" />
<glyph unicode="&#x3bf;" horiz-adv-x="1062" d="M512 825q-62 0 -107.5 -54t-65.5 -132.5t-20 -169.5q0 -60 15 -127t43.5 -130t77 -103.5t108.5 -40.5q32 0 60.5 12.5t57.5 43.5t46.5 96t17.5 157q0 215 -63 331.5t-170 116.5zM70 424q0 216 122 350.5t340 134.5q97 0 176 -28t131 -74t87.5 -107.5t51 -126t15.5 -131.5 q0 -64 -17.5 -127.5t-55 -124.5t-90.5 -107.5t-130.5 -74.5t-169.5 -28q-108 0 -198 39.5t-145.5 103.5t-86 142t-30.5 159z" />
<glyph unicode="&#x3c0;" horiz-adv-x="1243" d="M920 887h-629q-64 0 -119.5 -51t-85.5 -118t-39 -134l123 -19q29 85 66 124t90 42q0 -147 -9 -256t-21.5 -167.5t-31.5 -95t-32.5 -47t-30.5 -15.5q-52 -12 -79.5 -44t-27.5 -53q0 -41 36 -59.5t75 -18.5q167 0 240 187.5t75 568.5h197q-8 -308 -8 -508q0 -248 219 -248 q44 0 84.5 16.5t75.5 47.5t54.5 52.5t45.5 55.5l-78 72q-113 -121 -176 -121q-23 0 -23 125q0 424 7 510q94 5 159 36t105 99l-105 72q-25 -53 -157 -53z" />
<glyph unicode="&#x3c1;" horiz-adv-x="1148" d="M831 410q0 114 -21 196t-59 126.5t-83.5 64.5t-100.5 20q-188 0 -188 -342v-313q25 -53 83.5 -81t121.5 -28q107 0 177 100t70 257zM362 -418l-217 -90l-36 62q45 113 45 440v387q0 97 10.5 168.5t32 118t38.5 70t46 53.5q62 60 154.5 90t182.5 30q201 0 332 -118.5 t131 -296.5q0 -232 -149.5 -375.5t-376.5 -143.5q-97 0 -176 21q0 -11 1 -35t1 -37v-104q0 -165 -19 -240z" />
<glyph unicode="&#x3c2;" horiz-adv-x="980" d="M57 408q0 84 37 171.5t103.5 162t173 122t231.5 47.5q158 0 237 -45.5t79 -97.5q0 -43 -36.5 -67.5t-99.5 -24.5q-77 0 -131 51q-22 23 -49.5 32t-75.5 9q-75 0 -142 -51.5t-103.5 -124t-36.5 -141.5q0 -169 88.5 -237.5t292.5 -68.5q134 0 198 -67q57 -57 79 -113 t22 -125q0 -115 -133 -207q-70 -46 -143 -67t-171 -21q-76 0 -129.5 12.5t-79 33.5t-35.5 41.5t-10 43.5q0 43 36 69t81 26q62 0 95 -18t52 -60q25 -49 76 -49q88 0 146.5 46.5t58.5 145.5q0 41 -20.5 68t-66 41t-96.5 20.5t-134 9.5q-91 4 -167.5 44.5t-125 103t-75 137 t-26.5 148.5z" />
<glyph unicode="&#x3c3;" horiz-adv-x="1216" d="M586 53q81 0 140.5 96t59.5 234q0 45 -3 76.5t-13 75.5t-34 85.5t-62 81.5q14 10 26 20t11 13h-82q-162 0 -241 -97t-79 -251q0 -52 18.5 -109t52 -108t88 -84t118.5 -33zM221 756q142 135 418 135h266q47 0 97.5 16t84.5 45l84 -59q-90 -158 -303 -158h-53 q96 -56 150.5 -147.5t54.5 -210.5q0 -27 -6 -59.5t-20.5 -72t-37 -77t-58.5 -73t-80.5 -62t-108 -42.5t-136.5 -16q-227 0 -361 123.5t-134 321.5q0 90 37.5 178.5t105.5 157.5z" />
<glyph unicode="&#x3c4;" horiz-adv-x="948" d="M291 885h336q133 0 159 55l103 -72q-41 -75 -113.5 -106t-183.5 -31h-8q-31 -339 -31 -508q0 -125 20 -125q54 0 175 121l77 -72q-61 -82 -123.5 -127t-144.5 -45q-105 0 -163 66.5t-58 187.5q0 160 43 502h-68q-47 0 -70.5 -31t-64.5 -135l-127 25q5 37 15 74t29.5 77.5 t45.5 71.5t65.5 51.5t86.5 20.5z" />
<glyph unicode="&#x3c5;" horiz-adv-x="1085" d="M1022 512q0 -130 -35 -234.5t-93.5 -169t-131.5 -99t-152 -34.5q-120 0 -207 31t-135 86.5t-70 121t-22 144.5q0 95 21 238q14 119 14 143q0 52 -8 52q-6 0 -38.5 -8.5t-61.5 -16.5l-29 -8l-19 55q37 33 122 65.5t153 32.5q57 0 91 -27t34 -77q0 -56 -21 -199 q-24 -140 -24 -256q0 -53 11.5 -99.5t34.5 -84.5t62.5 -60t91.5 -22q73 0 130.5 60.5t86.5 151t29 189.5q0 128 -25 188.5t-61 69.5q-121 15 -121 84q0 32 34 57t93 25q246 0 246 -399z" />
<glyph unicode="&#x3c6;" horiz-adv-x="1323" d="M1022 459q0 194 -48 287.5t-126 93.5q-39 0 -63.5 -85t-24.5 -247v-447q113 35 187.5 148.5t74.5 249.5zM598 -485l-43 69v400q-228 25 -349.5 150t-121.5 335q0 66 27 130t66 111t91 90t93 68.5t81 44.5l60 -65q-29 -22 -46.5 -38.5t-46 -52t-45 -74t-29.5 -99.5 t-13 -133q0 -152 58 -259.5t175 -136.5v480q0 115 21.5 184t85.5 133q59 59 188 59q93 0 171 -36.5t129 -96.5t79 -135t28 -154q0 -105 -36.5 -190.5t-89.5 -138.5t-124 -91.5t-130 -56t-117 -26.5v-394z" />
<glyph unicode="&#x3c7;" horiz-adv-x="1124" d="M367 506q-60 171 -92 237t-70 66q-33 0 -115 -43l-49 59q35 44 82.5 65t120.5 21q119 0 195 -95.5t143 -291.5q8 -27 11 -36.5t11 -36.5q45 81 134 237.5t128 226.5l72 -18q130 17 164 21l-162 -242l-278 -414l6 6q13 -39 40.5 -118.5t41.5 -118.5q60 -175 89.5 -226 t67.5 -51q37 0 94 70l80 -68q-34 -55 -88.5 -86.5t-107.5 -31.5q-72 0 -122.5 20.5t-90.5 71.5t-69 115t-66 173l-9 27l-110 -197l-150 -237l-139 41l-37 39l21 30l350 508q-17 46 -48.5 138.5t-47.5 138.5z" />
<glyph unicode="&#x3c8;" horiz-adv-x="1406" d="M653 1102h138l40 -1049q69 19 120.5 65.5t78 105t39 111.5t12.5 99q0 83 -49 203q-49 114 -49 180q0 33 38.5 61.5t86.5 28.5q57 0 94 -18.5t54.5 -54.5t23.5 -73t6 -89q0 -103 -14.5 -194t-48 -176t-85 -148.5t-129 -108t-175.5 -59.5q3 -64 9 -212.5t9 -224.5h-274 l20 433q-102 8 -183 37t-131 68.5t-83.5 91t-46.5 100t-13 98.5q0 78 11 142.5t21.5 93.5t27.5 67q16 32 16 68q0 32 -8 32q-19 0 -133 -41l-8 72q172 86 235 86q74 0 110 -24.5t36 -57.5q0 -47 -33 -160q-49 -153 -49 -297q0 -38 14 -82t41.5 -88t74.5 -80.5t105 -52.5 q23 447 51 1047z" />
<glyph unicode="&#x3c9;" horiz-adv-x="1507" d="M1434 424q0 -204 -105 -326.5t-307 -122.5q-176 0 -264 131q-91 -131 -283 -131q-81 0 -149.5 20t-126 63t-90.5 122t-33 187q0 150 118 302t320 265l43 -68q-18 -9 -41.5 -28.5t-53.5 -49.5t-58 -72.5t-52 -91.5t-38.5 -112.5t-14.5 -130.5q0 -175 54.5 -246.5 t156.5 -71.5q57 0 98 51.5t72 157.5q-41 115 -41 234q0 54 28.5 89.5t86.5 35.5q116 0 116 -113q0 -111 -49 -244q66 -211 174 -211q56 0 97.5 31t64 85t33 118t10.5 141q0 218 -252 428l47 62q29 -13 53 -25.5t72 -40.5t85.5 -56.5t82.5 -72t75 -88t50.5 -102.5t20.5 -119z " />
<glyph unicode="&#x3ca;" horiz-adv-x="671" d="M369 1169q0 46 32 78.5t78 32.5q45 0 78 -33t33 -78q0 -44 -33 -76t-78 -32q-46 0 -78 32t-32 76zM-2 1169q0 45 33 78t78 33q46 0 78 -32.5t32 -78.5q0 -44 -32 -76t-78 -32q-45 0 -78 32t-33 76zM203 657q0 72 -10.5 98.5t-34.5 28.5l-84 9l-4 61q269 36 350 61 q14 0 14 -6q-6 -149 -6 -251v-488q0 -32 13 -52t28 -20q52 0 141 115l64 -51q-39 -77 -108 -132t-140 -55q-118 0 -170.5 49t-52.5 146v487z" />
<glyph unicode="&#x3cb;" horiz-adv-x="1085" d="M610 1169q0 46 32.5 78.5t78.5 32.5q45 0 77.5 -33t32.5 -78q0 -44 -33 -76t-77 -32q-46 0 -78.5 32t-32.5 76zM240 1169q0 45 33 78t77 33q46 0 78.5 -32.5t32.5 -78.5q0 -44 -32.5 -76t-78.5 -32q-44 0 -77 32t-33 76zM1022 512q0 -130 -35 -234.5t-93.5 -169 t-131.5 -99t-152 -34.5q-120 0 -207 31t-135 86.5t-70 121t-22 144.5q0 95 21 238q14 119 14 143q0 52 -8 52q-6 0 -38.5 -8.5t-61.5 -16.5l-29 -8l-19 55q37 33 122 65.5t153 32.5q57 0 91 -27t34 -77q0 -56 -21 -199q-24 -140 -24 -256q0 -53 11.5 -99.5t34.5 -84.5 t62.5 -60t91.5 -22q73 0 130.5 60.5t86.5 151t29 189.5q0 128 -25 188.5t-61 69.5q-121 15 -121 84q0 32 34 57t93 25q246 0 246 -399z" />
<glyph unicode="&#x3cc;" horiz-adv-x="1062" d="M565 1397q33 0 69 -24.5t36 -53.5q0 -17 -11 -31l-192 -250q-12 -16 -23 -16q-13 0 -27 9.5t-14 19.5q0 9 3 18l102 293q6 16 22.5 25.5t34.5 9.5zM512 825q-62 0 -107.5 -54t-65.5 -132.5t-20 -169.5q0 -60 15 -127t43.5 -130t77 -103.5t108.5 -40.5q32 0 60.5 12.5 t57.5 43.5t46.5 96t17.5 157q0 215 -63 331.5t-170 116.5zM70 424q0 216 122 350.5t340 134.5q97 0 176 -28t131 -74t87.5 -107.5t51 -126t15.5 -131.5q0 -64 -17.5 -127.5t-55 -124.5t-90.5 -107.5t-130.5 -74.5t-169.5 -28q-108 0 -198 39.5t-145.5 103.5t-86 142 t-30.5 159z" />
<glyph unicode="&#x3cd;" horiz-adv-x="1085" d="M623 1397q33 0 68.5 -24.5t35.5 -53.5q0 -19 -10 -31l-193 -250q-12 -16 -22 -16q-13 0 -27 9.5t-14 19.5q0 12 2 18l102 293q6 16 22.5 25.5t35.5 9.5zM1022 512q0 -130 -35 -234.5t-93.5 -169t-131.5 -99t-152 -34.5q-120 0 -207 31t-135 86.5t-70 121t-22 144.5 q0 95 21 238q14 119 14 143q0 52 -8 52q-6 0 -38.5 -8.5t-61.5 -16.5l-29 -8l-19 55q37 33 122 65.5t153 32.5q57 0 91 -27t34 -77q0 -56 -21 -199q-24 -140 -24 -256q0 -53 11.5 -99.5t34.5 -84.5t62.5 -60t91.5 -22q73 0 130.5 60.5t86.5 151t29 189.5q0 128 -25 188.5 t-61 69.5q-121 15 -121 84q0 32 34 57t93 25q246 0 246 -399z" />
<glyph unicode="&#x3ce;" horiz-adv-x="1507" d="M799 1401q33 0 68.5 -24.5t35.5 -53.5q0 -19 -10 -31l-193 -250q-12 -16 -22 -16q-13 0 -27 9.5t-14 19.5q0 12 2 18l102 293q6 16 22.5 25.5t35.5 9.5zM1434 424q0 -204 -105 -326.5t-307 -122.5q-176 0 -264 131q-91 -131 -283 -131q-81 0 -149.5 20t-126 63t-90.5 122 t-33 187q0 150 118 302t320 265l43 -68q-18 -9 -41.5 -28.5t-53.5 -49.5t-58 -72.5t-52 -91.5t-38.5 -112.5t-14.5 -130.5q0 -175 54.5 -246.5t156.5 -71.5q57 0 98 51.5t72 157.5q-41 115 -41 234q0 54 28.5 89.5t86.5 35.5q116 0 116 -113q0 -111 -49 -244 q66 -211 174 -211q56 0 97.5 31t64 85t33 118t10.5 141q0 218 -252 428l47 62q29 -13 53 -25.5t72 -40.5t85.5 -56.5t82.5 -72t75 -88t50.5 -102.5t20.5 -119z" />
<glyph unicode="&#x3d0;" horiz-adv-x="1134" d="M672 1284q-76 0 -140 -25.5t-104.5 -62t-73 -87t-48.5 -91t-27 -82.5q254 11 375.5 82.5t121.5 173.5q0 47 -20 69.5t-84 22.5zM328 393q0 -135 79 -239.5t173 -104.5t146 106.5t52 266.5q0 159 -65 236t-162 77q-102 0 -162.5 -99.5t-60.5 -242.5zM319 1294 q74 65 181 100.5t211 35.5q122 0 196 -55t74 -148q0 -88 -63 -159t-167 -115t-228 -68.5t-257 -28.5q-8 -30 -16 -156q65 56 151 86.5t174 30.5q211 0 331 -109t120 -300q0 -201 -124 -317t-339 -116q-119 0 -214 49t-154 132.5t-90 190.5t-31 228q0 286 54 443t191 276z " />
<glyph unicode="&#x3d1;" horiz-adv-x="1265" d="M492 885q34 -28 104 -38.5t201 -10.5q-1 98 -19 180t-46 134t-62 88.5t-64.5 51.5t-56.5 15q-61 0 -104.5 -66.5t-43.5 -163.5q0 -51 25.5 -104.5t65.5 -85.5zM1081 551q0 63 -13.5 94.5t-41.5 40.5q-1 -123 -14 -224.5t-45.5 -194t-84 -155.5t-132 -100t-185.5 -37 q-72 0 -135 17t-117.5 52t-86 98.5t-31.5 148.5q0 113 -4.5 148.5t-24.5 35.5l-88 -29l-21 60l43 16h-4q118 66 211 66q16 0 29.5 -3t24 -10.5t18.5 -14.5t13.5 -22t9.5 -25.5t7 -32.5t4.5 -35.5t2 -41.5t0.5 -44.5v-49.5q0 -117 56 -186.5t114 -69.5q211 0 211 641 q-310 9 -471.5 119.5t-161.5 323.5q0 101 98.5 179.5t231.5 78.5q105 0 193.5 -32.5t150 -87.5t104.5 -128t63 -152t21 -161q77 -5 125 -35v2q70 -50 70 -250h-140z" />
<glyph unicode="&#x3d2;" horiz-adv-x="1167" d="M455 158v487q0 279 -65.5 448t-160.5 169q-98 0 -186 -70l-43 51q39 48 106.5 76.5t145.5 28.5q133 0 228.5 -87.5t142.5 -230.5q19 49 41.5 91t56 85t72 73.5t90.5 49.5t110 19q89 0 123.5 -31.5t34.5 -91.5q0 -45 -32.5 -74t-82.5 -29q-39 0 -66.5 21t-33.5 55 q-4 16 -17 27.5t-20 11.5q-42 0 -87 -78.5t-75 -203t-30 -246.5v-551q0 -45 25.5 -67.5t86.5 -22.5h53q17 0 17 -19v-47l-4 -4q-233 4 -305 4l-306 -4l-4 4v47q0 19 19 19h53q62 0 87.5 20.5t25.5 69.5z" />
<glyph unicode="&#x3d3;" horiz-adv-x="1329" d="M98 1483q33 0 69 -24.5t36 -53.5q0 -18 -10 -31l-193 -250q-12 -16 -23 -16q-13 0 -26.5 9.5t-13.5 19.5q0 12 2 18l102 293q6 16 22.5 25.5t34.5 9.5zM674 158v487q0 279 -65 448t-160 169q-99 0 -187 -70l-43 51q39 48 106.5 76.5t145.5 28.5q133 0 228.5 -87.5 t142.5 -230.5q19 49 41.5 91t56 85t72 73.5t90.5 49.5t110 19q89 0 123.5 -31.5t34.5 -91.5q0 -45 -32.5 -74t-82.5 -29q-39 0 -66.5 21t-33.5 55q-4 16 -17 27.5t-20 11.5q-42 0 -87 -78.5t-75 -203t-30 -246.5v-551q0 -45 25.5 -67.5t86.5 -22.5h54q16 0 16 -19v-47l-4 -4 q-233 4 -305 4l-305 -4l-5 4v47q0 19 19 19h53q62 0 87.5 20.5t25.5 69.5z" />
<glyph unicode="&#x3d4;" horiz-adv-x="1167" d="M272 1532q0 46 32.5 78t78.5 32t77.5 -32t31.5 -78t-31.5 -77.5t-77.5 -31.5t-78.5 31.5t-32.5 77.5zM657 1532q0 46 32.5 78t78.5 32t77.5 -32t31.5 -78t-31.5 -77.5t-77.5 -31.5t-78.5 31.5t-32.5 77.5zM455 158v487q0 279 -65.5 448t-160.5 169q-98 0 -186 -70l-43 51 q39 48 106.5 76.5t145.5 28.5q133 0 228.5 -87.5t142.5 -230.5q19 49 41.5 91t56 85t72 73.5t90.5 49.5t110 19q89 0 123.5 -31.5t34.5 -91.5q0 -45 -32.5 -74t-82.5 -29q-39 0 -66.5 21t-33.5 55q-4 16 -17 27.5t-20 11.5q-42 0 -87 -78.5t-75 -203t-30 -246.5v-551 q0 -45 25.5 -67.5t86.5 -22.5h53q17 0 17 -19v-47l-4 -4q-233 4 -305 4l-306 -4l-4 4v47q0 19 19 19h53q62 0 87.5 20.5t25.5 69.5z" />
<glyph unicode="&#x3d5;" horiz-adv-x="1236" d="M299 434q0 -207 115 -319q47 -50 94 -68q4 131 13.5 392t13.5 392q-65 -17 -123 -75q-113 -116 -113 -322zM702 831l23 -786q44 14 106 76q107 107 107 313q0 208 -113 324q-63 60 -123 73zM213 100q-156 150 -156 334q0 189 156 336q121 118 324 135q2 70 7 212t7 208 h135l14 -422q105 -6 182.5 -37.5t143.5 -95.5q154 -148 154 -336q0 -186 -154 -334q-116 -114 -299 -133q2 -68 6 -209t6 -209h-250l15 420q-178 21 -291 131z" />
<glyph unicode="&#x3d6;" horiz-adv-x="1615" d="M1516 424q0 -204 -105 -326.5t-307 -122.5q-176 0 -264 131q-91 -131 -283 -131q-81 0 -149.5 20t-126 63t-90.5 122t-33 187q0 99 53.5 202t152.5 197h-108q-42 0 -73 -14t-51.5 -42t-31.5 -50t-24 -58h-41q10 48 16 75t17.5 64t23 57.5t30.5 44t42 35t55 19.5t72 8h256 q32 20 49 29l18 -29h446l17 23q24 -11 47 -23h334v-139h-123q181 -158 181 -342zM1135 766h-611q-143 -169 -143 -385q0 -175 54.5 -246.5t156.5 -71.5q57 0 98 51.5t72 157.5q-41 115 -41 234q0 54 28.5 89.5t86.5 35.5q116 0 116 -113q0 -111 -49 -244q66 -211 174 -211 q56 0 97.5 31t64 85t33 118t10.5 141q0 164 -147 328z" />
<glyph unicode="&#x3d7;" horiz-adv-x="1171" d="M324 606q0 129 -37 129q-51 0 -146 -92l-35 -35l-34 35h2q-23 23 -33 31l-12 10l-4 -4l-2 10l6 -6q126 227 270 227q186 0 186 -305q0 -84 -16 -188q39 44 111 133q152 187 178 280q17 80 153 80q142 0 142 -94q0 -75 -185 -209l19 6q-37 -191 -37 -340q0 -124 37 -124 q55 0 182 129l76 -80l-211 -379q-99 -166 -289 -166q-205 0 -205 88t115 88q99 0 147 -66h-2q2 -2 5 -5.5t4 -4.5q10 15 20 27q50 55 94 199q-137 39 -137 294q0 65 12 170q-65 -74 -104 -125q-152 -186 -170 -266q-21 -78 -156 -78q-141 0 -141 93q0 38 39 80t129 106 l-19 -6q48 227 48 358z" />
<glyph unicode="&#x3d8;" horiz-adv-x="1495" d="M719 1264q-54 0 -106 -21t-101 -67.5t-86 -114t-59.5 -168t-22.5 -221.5q0 -280 127 -444.5t315 -164.5q159 0 262 155.5t103 416.5q0 151 -35 273t-95 198.5t-137 117t-165 40.5zM688 -18q-129 9 -241 59t-194.5 133t-129.5 202.5t-47 260.5q0 199 85 361t238 256 t344 94q108 0 209.5 -30.5t186 -89.5t148 -140t99 -187.5t35.5 -226.5q0 -185 -68.5 -333t-197 -240t-301.5 -115v-123q0 -48 26 -69t87 -21h53q6 0 11 -5t5 -12v-39l-4 -4q-178 4 -258 4l-262 -4l-4 4v39q0 17 14 17h56q60 0 85 22.5t25 67.5v119z" />
<glyph unicode="&#x3d9;" horiz-adv-x="1062" d="M512 825q-62 0 -107.5 -54t-65.5 -132.5t-20 -169.5q0 -60 15 -127t43.5 -130t77 -103.5t108.5 -40.5q32 0 60.5 12.5t57.5 43.5t46.5 96t17.5 157q0 215 -63 331.5t-170 116.5zM70 424q0 216 122 350.5t340 134.5q97 0 176 -28t131 -74t87.5 -107.5t51 -126t15.5 -131.5 q0 -72 -23 -144t-67 -136.5t-117 -112t-165 -62.5v-96q0 -45 19.5 -67.5t68.5 -22.5h39q16 0 16 -16v-39l-4 -4q-139 4 -219 4l-213 -4l-4 4v39q0 16 16 16h41q49 0 68.5 22.5t19.5 67.5v92q-125 14 -218 83.5t-137 163t-44 194.5z" />
<glyph unicode="&#x3da;" horiz-adv-x="1093" d="M18 752q0 69 12 139t44 148t80.5 137t130.5 98t186 39q61 0 131 -6q8 0 74.5 -3.5t101.5 -3.5q49 0 111 76l82 -55q-8 -33 -12.5 -48.5t-15 -42.5t-21.5 -39.5t-31 -30.5t-44.5 -26t-60.5 -14t-81 -6q-2 0 -119 6q-74 8 -109 8q-60 0 -101 -17t-81 -58 q-44 -43 -69 -124.5t-25 -168.5q0 -220 92 -320q29 -33 64 -54t78.5 -30t76 -12t84.5 -4q118 -6 197 -22t133 -62q65 -61 80 -104q22 -83 22 -140q0 -94 -43.5 -170.5t-117.5 -125t-167.5 -74t-197.5 -25.5q-81 0 -136.5 9t-86 27t-43.5 40.5t-13 52.5q0 40 40.5 58t92.5 18 q12 0 23.5 -1t21 -2.5t22 -4.5t19 -4.5t20.5 -6.5t18.5 -6.5t19.5 -7t18 -6.5q9 -3 28.5 -10.5t29.5 -11t25.5 -8.5t27 -7t22.5 -2q77 0 140 60t63 149q0 42 -13.5 72t-32.5 46t-54.5 26.5t-62.5 13.5t-75 6q-72 4 -117 9t-110.5 18t-116.5 40t-90 68q-49 50 -83.5 119.5 t-51 141t-23 129t-6.5 110.5z" />
<glyph unicode="&#x3db;" horiz-adv-x="888" d="M494 762q-124 0 -196.5 -83.5t-72.5 -223.5q0 -57 11 -104t28.5 -78.5t41 -54t46.5 -34.5t47 -16q22 -4 43 -7t42.5 -5.5t29.5 -3.5q122 -10 172 -37q135 -69 135 -187q0 -84 -35.5 -147.5t-98 -100t-140 -54t-170.5 -17.5q-46 0 -80 3.5t-63.5 12.5t-44.5 26.5t-15 43.5 q0 32 33.5 50.5t85.5 18.5q43 0 131 -30q67 -29 98 -29q61 0 96 38.5t35 115.5q0 62 -30 92q-15 14 -38 20.5t-36.5 8t-48.5 2.5q-69 0 -114.5 4t-109 27.5t-108.5 68.5q-113 110 -113 303q0 127 45 248.5t142 189.5q54 37 128 60.5t132 23.5q23 0 92 -6q46 -4 86 -4 q32 0 82 53l80 -53q-18 -53 -40 -82t-68.5 -46t-123.5 -17q-46 0 -67 6q-32 4 -49 4z" />
<glyph unicode="&#x3dc;" horiz-adv-x="1091" d="M1079 1323l29 -403h-147q-9 51 -29 117.5t-50 125t-55 58.5h-391v-441h279q83 0 186 -10v-297h-139v133q0 39 -11 53.5t-36 14.5h-279v-522q0 -50 5.5 -65t25.5 -15h59q62 0 62 -23v-39l-2 -12q-195 4 -289 4l-244 -4l-18 18v33q0 23 59 23h62q20 0 24 16t4 64v1019 q0 51 -5 65.5t-23 14.5h-62q-59 0 -59 23v31l18 20l240 -2h786z" />
<glyph unicode="&#x3dd;" horiz-adv-x="960" d="M881 918l20 -11q-30 -91 -85 -136.5t-157 -45.5h-186q-37 1 -67.5 -6t-52.5 -18t-40 -31.5t-29.5 -38.5t-20 -49t-13 -53.5t-7 -60.5t-3.5 -61.5t-2 -64.5q58 35 129 35h206q42 0 95 65l86 -36q-21 -87 -83.5 -140t-156.5 -53q-11 0 -86 6q-40 6 -78 6q-49 0 -73.5 -49.5 t-24.5 -120.5q0 -13 2 -27.5t3.5 -24.5t6.5 -28t7 -25t9 -28.5t9 -27.5q47 -134 52 -184q1 -12 1 -23q0 -65 -41 -103q-19 -22 -82 -22q-64 0 -82 18q-43 41 -43 129l2 729q1 67 12 128.5t38 123t67.5 106.5t105 73t146.5 28q47 0 137 -8q86 -8 125 -8q48 0 86 75z" />
<glyph unicode="&#x3de;" horiz-adv-x="1150" d="M494 1290q20 34 20 99q0 9 -1 18.5t-1 11.5l-4 27q-48 24 -88 24q-33 0 -133 -32l-21 57q3 1 7 2.5t13 5.5t19 8h-4q44 22 88 37q61 21 123 21q64 0 92 -17q91 -51 105 -100q8 -24 8 -51q0 -63 -53 -158q-229 -392 -318 -549h721l-63 -110l-355 -619q-36 -59 -24 -110 l4 -27q40 -25 86 -25q37 0 135 33l20 -57q-1 0 -8 -4t-14.5 -7.5t-11.5 -5.5q-36 -18 -91 -38q-68 -21 -120 -21q-59 0 -93 18q-89 48 -104 99q-6 27 -6 43q0 47 57 149l326 570h-721l63 108z" />
<glyph unicode="&#x3df;" horiz-adv-x="1150" d="M1004 584l-429 -742l-192 6l422 734h-721l63 108l396 684l194 -2l-391 -678h721z" />
<glyph unicode="&#x3e0;" horiz-adv-x="1691" d="M1096 -233zM1096 -233l10 6q86 107 133 254.5t47 365.5q0 240 -43 387q-92 -30 -119 -51q-31 -27 -52 -48.5t-47 -66t-36 -92.5q-22 -136 -22 -334h-236q0 232 62 400q19 50 66.5 103.5t103.5 94.5q102 73 237 117q-65 136 -156 227q-91 92 -183.5 135t-201.5 46v-625 h-208v588q-160 -63 -258 -178q-14 3 -57.5 19.5t-81 32.5t-38.5 17q256 262 643 262q208 0 354.5 -61.5t282.5 -196.5q145 -154 218 -328t73 -382q0 -197 -85.5 -414t-227.5 -383q-169 105 -178 105z" />
<glyph unicode="&#x3e1;" horiz-adv-x="1062" d="M72 1110l39 4q16 2 57 2q200 0 373 -67q209 -85 317 -236q119 -177 129 -362v-39q0 -181 -82 -379h-119q33 115 33 233q0 63 -10 135q-22 97 -43 156q-46 -35 -139 -108t-99 -78l-92 108l264 209q-18 27 -24 37q-7 10 -13 19.5t-9 13.5t-8.5 11t-14.5 17 q-50 -40 -152.5 -119.5t-120.5 -93.5l-90 109l262 209q-70 56 -104 76q-165 91 -371 102z" />
<glyph unicode="&#x3f0;" horiz-adv-x="1089" d="M299 561q0 117 -31 117q-47 0 -133 -86l-35 -35l-37 35l-38 39l-2 -4l-3 4l3 4l2 -4q119 211 254 211q178 0 178 -281q0 -65 -15 -164q41 47 95 113q145 181 161 258q17 74 150 74t133 -86q0 -71 -172 -193l16 6q-32 -177 -32 -313q0 -117 28 -117q47 0 133 86l35 35 l37 -35l39 -39q-117 -211 -254 -211q-176 0 -176 281q0 68 8 147q-35 -41 -88 -106q-149 -185 -164 -256q-17 -76 -147 -76q-133 0 -133 86q0 73 161 185l-18 -7q45 200 45 332zM1065 186q2 0 2 4l2 -4l-2 -4z" />
<glyph unicode="&#x3f1;" horiz-adv-x="999" d="M481 59q36 0 73.5 20t73 61.5t58.5 119.5t23 180q0 58 -13 121.5t-38 123t-70 98t-101 38.5q-26 0 -52.5 -12t-54.5 -42t-49 -75t-34.5 -117.5t-13.5 -162.5q0 -103 19 -176.5t50.5 -109.5t63 -51.5t65.5 -15.5zM946 430q0 -208 -124 -331.5t-337 -123.5q-148 0 -258 78 q16 -112 48.5 -173.5t101 -92.5t186.5 -31q259 0 297 -225l-121 -41q-42 113 -194 113q-97 0 -168.5 15t-127.5 50.5t-92 90t-59.5 138.5t-33 189.5t-9.5 249.5q0 155 35 269.5t96 179.5t134.5 95.5t160.5 30.5q213 0 339 -133t126 -348z" />
<glyph unicode="&#x3f2;" horiz-adv-x="946" d="M338 410q0 -101 20.5 -175.5t54.5 -114.5t72 -58.5t80 -18.5q103 0 164.5 31t124.5 110l53 -39q-58 -81 -148 -125.5t-194 -44.5q-43 0 -86.5 6.5t-92.5 22t-92 40t-83 63.5t-68.5 88t-45.5 118t-17 150q0 45 15.5 99.5t54 116.5t93.5 112.5t143 84t194 33.5 q202 0 327 -174l-53 -35q-62 79 -115 106.5t-153 27.5q-73 0 -123 -30.5t-76.5 -90t-37.5 -131.5t-11 -172z" />
<glyph unicode="&#x3f3;" horiz-adv-x="530" d="M444 658v-515q0 -109 -9.5 -196t-35 -166t-66 -132t-105 -84t-150.5 -31q-78 0 -142.5 39.5t-64.5 102.5q0 40 22.5 58t54.5 18q36 0 61 -13.5t37.5 -33t21.5 -39t20 -33t27 -13.5q28 0 48.5 20.5t32 59.5t18 81.5t8 100.5t1 101.5t-2 100t-1.5 80.5v493q0 71 -10.5 94 t-34.5 25l-104 8l-4 70q300 40 368 61q15 0 15 -8q-5 -147 -5 -249zM176 1169q0 53 37 90t90 37t90 -37t37 -90t-37 -90t-90 -37t-90 37t-37 90z" />
<glyph unicode="&#x3f4;" horiz-adv-x="1495" d="M1421 674q0 -204 -82 -361t-236 -245t-358 -88q-140 0 -262 46t-212.5 129.5t-142.5 208t-52 273.5q0 199 85 361t238 256t344 94q108 0 209.5 -30.5t186 -89.5t148 -140t99 -187.5t35.5 -226.5zM1149 711q-17 264 -138 408.5t-292 144.5q-52 0 -102.5 -19.5t-98.5 -63 t-85 -106.5t-61 -157t-27 -207h804zM1151 618h-806q13 -257 138 -406t303 -149q156 0 258.5 150t106.5 405z" />
<glyph unicode="&#x3f5;" horiz-adv-x="913" d="M793 741h-64q-93 66 -194 66q-92 0 -158 -68q-60 -57 -72 -219h443v-104h-441q14 -152 80.5 -244t175.5 -92q98 0 225 127l68 -72q-15 -23 -37.5 -45.5t-63 -51t-103.5 -46t-138 -17.5q-110 0 -198.5 38t-143.5 102.5t-84 146t-29 172.5q0 97 31 179t79.5 135.5 t110.5 91.5t121.5 54.5t114.5 16.5q196 0 309 -125z" />
<glyph unicode="&#x3f6;" horiz-adv-x="913" d="M129 143l61 2q92 -65 177 -65q61 0 99 12t79 53q69 69 71 269h-444v104h434q-21 122 -84 205.5t-164 83.5q-94 0 -225 -127l-70 70q12 18 27.5 35.5t46 41.5t66.5 41.5t90 30t115 12.5q108 0 196 -38t143.5 -103t85 -146.5t29.5 -172.5q0 -96 -31.5 -178t-80.5 -135.5 t-111 -91.5t-122 -54.5t-114 -16.5q-203 0 -309 123z" />
<glyph unicode="&#x3f8;" horiz-adv-x="1132" d="M817 410q0 407 -250 407q-27 0 -49.5 -7.5t-46.5 -29.5t-40.5 -58.5t-27 -99.5t-10.5 -147v-315q77 -60 119 -84.5t72 -24.5q105 0 169 100t64 259zM377 -418l-232 -90l-36 62q45 113 45 440v969q0 285 22 385l225 100l39 -64q-47 -124 -47 -421v-99q99 47 225 47 q201 0 332 -118.5t131 -296.5q0 -154 -69.5 -273.5t-189 -183.5t-267.5 -64q-83 0 -162 21q0 -11 1 -35t1 -37v-104q0 -167 -18 -238z" />
<glyph unicode="&#x3f9;" horiz-adv-x="1257" d="M1194 258l6 -8q-29 -52 -72 -98t-102.5 -87t-140.5 -65.5t-172 -24.5q-149 0 -273 56t-205 151t-125 218.5t-44 261.5q0 148 50 277t135.5 218.5t202.5 141t248 51.5q88 0 167 -19.5t129 -46.5t88 -57t54.5 -49t18.5 -25l-123 -98q-10 23 -40 56.5t-75 69t-108.5 60.5 t-126.5 25q-38 0 -74.5 -10.5t-77.5 -35.5t-75.5 -71.5t-62.5 -111.5t-44 -164.5t-16 -221.5q0 -159 38 -285t121.5 -205t202.5 -79q68 0 137.5 25.5t123.5 65t94.5 81t66.5 80.5z" />
<glyph unicode="&#x3fb;" horiz-adv-x="1224" d="M854 14v570l-225 -555q-18 -37 -74 -37q-49 0 -70 37l-213 510v-969l-110 -27l-51 31v1307l157 32l97 -34l233 -582q192 485 231 586l175 30l77 -39v-864l-188 -57z" />
<glyph unicode="&#x3fd;" horiz-adv-x="1257" d="M217 1055l-119 98q8 22 45 54t94 64.5t142.5 55.5t175.5 23q130 0 247 -51.5t203 -141t136.5 -218.5t50.5 -277q0 -191 -79.5 -347t-229 -248t-342.5 -92q-91 0 -172 25.5t-140.5 68.5t-101.5 89.5t-72 99.5l82 84q26 -40 66 -82t94 -83.5t122.5 -68t135.5 -26.5 q71 0 129 26t97 71.5t67.5 101.5t44 122t22.5 126t7 120q0 146 -23.5 259t-59.5 179t-85 108t-93 56.5t-90 14.5q-51 0 -97.5 -11.5t-81 -30t-64.5 -41.5t-50 -45.5t-34 -41t-20 -30.5z" />
<glyph unicode="&#x3fe;" horiz-adv-x="1257" d="M727 551q-52 0 -85.5 35.5t-33.5 81.5q0 48 35 84t84 36q46 0 82.5 -35t36.5 -85q0 -47 -34.5 -82t-84.5 -35zM1194 258l6 -8q-29 -52 -72 -98t-102.5 -87t-140.5 -65.5t-172 -24.5q-149 0 -273 56t-205 151t-125 218.5t-44 261.5q0 148 50 277t135.5 218.5t202.5 141 t248 51.5q88 0 167 -19.5t129 -46.5t88 -57t54.5 -49t18.5 -25l-123 -98q-10 23 -40 56.5t-75 69t-108.5 60.5t-126.5 25q-38 0 -74.5 -10.5t-77.5 -35.5t-75.5 -71.5t-62.5 -111.5t-44 -164.5t-16 -221.5q0 -159 38 -285t121.5 -205t202.5 -79q68 0 137.5 25.5t123.5 65 t94.5 81t66.5 80.5z" />
<glyph unicode="&#x3ff;" horiz-adv-x="1257" d="M455 541q-52 0 -85.5 35t-33.5 81q0 48 35 84.5t84 36.5q46 0 82 -35.5t36 -85.5q0 -47 -34 -81.5t-84 -34.5zM217 1055l-119 98q8 22 45 54t94 64.5t142.5 55.5t175.5 23q130 0 247 -51.5t203 -141t136.5 -218.5t50.5 -277q0 -191 -79.5 -347t-229 -248t-342.5 -92 q-91 0 -172 25.5t-140.5 68.5t-101.5 89.5t-72 99.5l82 84q26 -40 66 -82t94 -83.5t122.5 -68t135.5 -26.5q71 0 129 26t97 71.5t67.5 101.5t44 122t22.5 126t7 120q0 146 -23.5 259t-59.5 179t-85 108t-93 56.5t-90 14.5q-51 0 -97.5 -11.5t-81 -30t-64.5 -41.5t-50 -45.5 t-34 -41t-20 -30.5z" />
<glyph unicode="&#x2000;" horiz-adv-x="1021" />
<glyph unicode="&#x2001;" horiz-adv-x="2045" />
<glyph unicode="&#x2002;" horiz-adv-x="1060" />
<glyph unicode="&#x2003;" horiz-adv-x="1548" />
<glyph unicode="&#x2004;" horiz-adv-x="679" />
<glyph unicode="&#x2005;" horiz-adv-x="509" />
<glyph unicode="&#x2006;" horiz-adv-x="339" />
<glyph unicode="&#x2007;" horiz-adv-x="897" />
<glyph unicode="&#x2008;" horiz-adv-x="339" />
<glyph unicode="&#x2009;" horiz-adv-x="256" />
<glyph unicode="&#x200a;" horiz-adv-x="53" />
<glyph unicode="&#x200b;" horiz-adv-x="0" />
<glyph unicode="&#x2010;" horiz-adv-x="688" d="M563 451h-409q-35 0 -55.5 12.5t-20.5 30.5q0 28 29.5 63t60.5 35h414q73 0 73 -43q0 -24 -30 -61t-62 -37z" />
<glyph unicode="&#x2011;" horiz-adv-x="733" d="M563 451h-409q-35 0 -55.5 12.5t-20.5 30.5q0 28 29.5 63t60.5 35h414q73 0 73 -43q0 -24 -30 -61t-62 -37z" />
<glyph unicode="&#x2012;" horiz-adv-x="897" d="M774 578h-676q-13 0 -21.5 12.5t-8.5 27.5q0 26 16.5 52t34.5 26h680q28 0 28 -41q0 -21 -17 -49t-36 -28z" />
<glyph unicode="&#x2013;" horiz-adv-x="1093" d="M82 598h932v-121h-932v121z" />
<glyph unicode="&#x2014;" horiz-adv-x="1519" d="M59 598h1401v-121h-1401v121z" />
<glyph unicode="&#x2015;" horiz-adv-x="1888" d="M59 598h1772v-121h-1772v121z" />
<glyph unicode="&#x2016;" horiz-adv-x="569" d="M455 -387h-123v2144h123v-2144zM246 -387h-123v2144h123v-2144z" />
<glyph unicode="&#x2017;" horiz-adv-x="995" d="M987 -225v-101h-977v101h977zM987 0v-98h-977v98h977z" />
<glyph unicode="&#x2018;" horiz-adv-x="548" d="M244 1024q-60 0 -94.5 48t-34.5 173q0 84 73.5 166.5t184.5 101.5q32 -21 14 -63q-71 -19 -121.5 -72.5t-50.5 -89.5q0 -49 70 -57q43 -8 65.5 -30.5t22.5 -70.5q0 -45 -36 -75.5t-93 -30.5z" />
<glyph unicode="&#x2019;" horiz-adv-x="548" d="M305 1444q60 0 94.5 -48t34.5 -173q0 -84 -73.5 -167t-184.5 -102q-32 21 -14 64q71 19 121.5 72.5t50.5 89.5q0 49 -70 57q-43 8 -65.5 30.5t-22.5 69.5q0 45 36 76t93 31z" />
<glyph unicode="&#x201a;" horiz-adv-x="548" d="M305 209q60 0 94.5 -48t34.5 -173q0 -84 -73.5 -167t-184.5 -102q-32 21 -14 64q71 19 121.5 72.5t50.5 89.5q0 49 -70 57q-43 8 -65.5 30.5t-22.5 69.5q0 45 36 76t93 31z" />
<glyph unicode="&#x201b;" horiz-adv-x="548" d="M244 1444q57 0 93 -31t36 -76q0 -47 -22.5 -69.5t-65.5 -30.5q-70 -8 -70 -57q0 -36 50.5 -89.5t121.5 -72.5q18 -43 -14 -64q-117 20 -187.5 102t-70.5 167q0 99 33.5 160t95.5 61z" />
<glyph unicode="&#x201c;" horiz-adv-x="768" d="M514 1026q-60 0 -94.5 48t-34.5 173q0 84 73.5 167t184.5 102q32 -21 14 -64q-71 -19 -121.5 -72.5t-50.5 -89.5q0 -49 70 -57q43 -8 65.5 -30.5t22.5 -69.5q0 -45 -36 -76t-93 -31zM193 1026q-61 0 -95.5 48t-34.5 173q0 84 74 167t185 102q32 -21 14 -64 q-71 -19 -121.5 -72.5t-50.5 -89.5q0 -49 69 -57q43 -8 66 -30.5t23 -69.5q0 -45 -36 -76t-93 -31z" />
<glyph unicode="&#x201d;" horiz-adv-x="768" d="M256 1444q60 0 94.5 -48t34.5 -173q0 -84 -73.5 -167t-184.5 -102q-32 21 -14 64q71 19 121.5 72.5t50.5 89.5q0 49 -70 57q-43 8 -65.5 30.5t-22.5 69.5q0 45 36 76t93 31zM578 1444q60 0 94.5 -48t34.5 -173q0 -84 -73.5 -167t-184.5 -102q-33 22 -15 64 q71 19 121.5 72.5t50.5 89.5q0 49 -69 57q-43 8 -65.5 30.5t-22.5 69.5q0 45 36 76t93 31z" />
<glyph unicode="&#x201e;" horiz-adv-x="768" d="M256 207q60 0 94.5 -48t34.5 -173q0 -84 -73.5 -167t-184.5 -102q-32 21 -14 64q71 19 121.5 72.5t50.5 89.5q0 49 -70 57q-43 8 -65.5 30.5t-22.5 69.5q0 45 36 76t93 31zM578 207q60 0 94.5 -48t34.5 -173q0 -84 -73.5 -167t-184.5 -102q-33 22 -15 64 q71 19 121.5 72.5t50.5 89.5q0 49 -69 57q-43 8 -65.5 30.5t-22.5 69.5q0 45 36 76t93 31z" />
<glyph unicode="&#x201f;" horiz-adv-x="768" d="M236 1444q57 0 93 -31t36 -76q0 -47 -23 -69.5t-66 -30.5q-69 -8 -69 -57q0 -36 50.5 -89.5t121.5 -72.5q18 -43 -14 -64q-117 20 -188 102t-71 167q0 99 34 160t96 61zM557 1444q57 0 93 -31t36 -76q0 -47 -22.5 -69.5t-65.5 -30.5q-70 -8 -70 -57q0 -36 50.5 -89.5 t121.5 -72.5q18 -43 -14 -64q-117 20 -187.5 102t-70.5 167q0 99 33.5 160t95.5 61z" />
<glyph unicode="&#x2020;" horiz-adv-x="1204" d="M633 1427q42 0 70 -36t28 -86q0 -259 -61 -383q134 84 317 84q46 0 78.5 -31t32.5 -74q0 -42 -32.5 -71t-78.5 -29q-184 0 -317 80q-2 -142 13.5 -232t61.5 -147q-44 -132 -59.5 -351t-15.5 -575h-76q0 371 -15 588.5t-59 337.5q44 49 59 138t15 241q-127 -80 -318 -80 q-46 0 -77 28.5t-31 71.5t32 74t76 31q105 0 178 -21.5t140 -62.5q-62 129 -62 383q0 49 29 85.5t72 36.5z" />
<glyph unicode="&#x2021;" horiz-adv-x="1204" d="M1098 901q0 -42 -32.5 -71t-78.5 -29q-184 0 -317 80q-2 -142 13.5 -232t61.5 -147q-44 -57 -59.5 -147t-15.5 -232q139 80 317 80q44 0 77.5 -29t33.5 -72t-33 -72.5t-78 -29.5q-180 0 -317 82q61 -129 61 -383q0 -48 -27.5 -85.5t-70.5 -37.5q-41 0 -71 35.5t-30 87.5 q0 251 62 383q-131 -82 -318 -82q-44 0 -76 29.5t-32 72.5q0 42 34 71.5t74 29.5q185 0 318 -80q0 147 -15 236.5t-59 142.5q44 49 59 138t15 241q-127 -80 -318 -80q-46 0 -77 28.5t-31 71.5t32 74t76 31q105 0 178 -21.5t140 -62.5q-62 129 -62 383q0 49 29 85.5t72 36.5 q42 0 70 -36t28 -86q0 -259 -61 -383q134 84 317 84q47 0 79 -31t32 -74z" />
<glyph unicode="&#x2022;" horiz-adv-x="718" d="M100 479q0 104 78.5 180t179.5 76q104 0 182 -76.5t78 -185.5q0 -101 -72.5 -179.5t-187.5 -78.5q-106 0 -182 77t-76 187z" />
<glyph unicode="&#x2023;" horiz-adv-x="768" d="M150 172v606l540 -303z" />
<glyph unicode="&#x2024;" horiz-adv-x="499" d="M135 92q0 47 34 81t81 34t81 -34t34 -81q0 -46 -34 -79t-81 -33t-81 33t-34 79z" />
<glyph unicode="&#x2025;" horiz-adv-x="868" d="M555 92q0 47 34 81t81 34t80.5 -34t33.5 -81q0 -46 -33.5 -79t-80.5 -33t-81 33t-34 79zM135 92q0 47 34 81t81 34t81 -34t34 -81q0 -46 -34 -79t-81 -33t-81 33t-34 79z" />
<glyph unicode="&#x2027;" horiz-adv-x="499" d="M135 549q0 47 34 81t81 34t81 -34t34 -81q0 -46 -34 -79.5t-81 -33.5t-81 33.5t-34 79.5z" />
<glyph unicode="&#x202f;" horiz-adv-x="319" />
<glyph unicode="&#x2030;" horiz-adv-x="1869" d="M1460 158q0 -58 20.5 -93.5t49.5 -35.5q53 0 94.5 50.5t60.5 116t19 126.5q0 116 -80 116q-42 0 -81 -45.5t-61 -110.5t-22 -124zM1321 186q0 81 31.5 154t97 122.5t152.5 49.5q34 0 64.5 -9t59.5 -28.5t46.5 -58t17.5 -90.5q0 -148 -75 -256.5t-197 -108.5 q-88 0 -142.5 69.5t-54.5 155.5zM907 158q0 -59 20 -94t50 -35q50 0 91.5 50.5t62 117t20.5 125.5q0 116 -80 116q-42 0 -81 -45.5t-61 -110.5t-22 -124zM768 186q0 84 31.5 157t97 121t152.5 48q188 0 188 -186q0 -155 -76 -260t-196 -105q-93 0 -145 61.5t-52 163.5z M745 1063q213 0 308 102l96 -43l-842 -1155l-110 25l749 1026q-114 -47 -221 -47q-34 0 -78 12.5t-74 30.5q7 -28 7 -43q0 -88 -33 -170t-100 -137.5t-152 -55.5q-93 0 -139.5 58.5t-46.5 164.5q0 134 78.5 230t201.5 96q43 0 82.5 -12t54.5 -31q111 -51 219 -51zM250 803 q0 -58 19 -92.5t48 -34.5q45 0 86.5 48.5t65 116.5t23.5 128q0 67 -22.5 90.5t-57.5 23.5q-47 0 -85.5 -46t-57.5 -109t-19 -125z" />
<glyph unicode="&#x2031;" horiz-adv-x="2459" d="M1995 158q0 -58 20 -93.5t49 -35.5q53 0 94.5 50.5t60.5 116t19 126.5q0 116 -79 116q-42 0 -81 -45.5t-61 -110.5t-22 -124zM1855 186q0 81 31.5 154t97 122.5t152.5 49.5q34 0 64.5 -9t59.5 -28.5t46.5 -58t17.5 -90.5q0 -148 -75 -256.5t-197 -108.5 q-88 0 -142.5 69.5t-54.5 155.5zM1460 158q0 -58 20.5 -93.5t49.5 -35.5q53 0 94.5 50.5t60.5 116t19 126.5q0 116 -80 116q-42 0 -81 -45.5t-61 -110.5t-22 -124zM1321 186q0 81 31.5 154t97 122.5t152.5 49.5q34 0 64.5 -9t59.5 -28.5t46.5 -58t17.5 -90.5 q0 -148 -75 -256.5t-197 -108.5q-88 0 -142.5 69.5t-54.5 155.5zM907 158q0 -59 20 -94t50 -35q50 0 91.5 50.5t62 117t20.5 125.5q0 116 -80 116q-42 0 -81 -45.5t-61 -110.5t-22 -124zM768 186q0 84 31.5 157t97 121t152.5 48q188 0 188 -186q0 -155 -76 -260t-196 -105 q-93 0 -145 61.5t-52 163.5zM745 1063q213 0 308 102l96 -43l-842 -1155l-110 25l749 1026q-114 -47 -221 -47q-34 0 -78 12.5t-74 30.5q7 -28 7 -43q0 -88 -33 -170t-100 -137.5t-152 -55.5q-93 0 -139.5 58.5t-46.5 164.5q0 134 78.5 230t201.5 96q43 0 82.5 -12t54.5 -31 q111 -51 219 -51zM250 803q0 -58 19 -92.5t48 -34.5q45 0 86.5 48.5t65 116.5t23.5 128q0 67 -22.5 90.5t-57.5 23.5q-47 0 -85.5 -46t-57.5 -109t-19 -125z" />
<glyph unicode="&#x2032;" horiz-adv-x="509" d="M293 1432q33 0 68.5 -24.5t35.5 -53.5q0 -18 -10 -31l-192 -250q-12 -16 -23 -16q-13 0 -27 9t-14 19q0 13 2 19l103 293q6 16 22.5 25.5t34.5 9.5z" />
<glyph unicode="&#x2033;" horiz-adv-x="665" d="M494 1436q33 0 68.5 -24.5t35.5 -53.5q0 -18 -10 -31l-193 -250q-12 -16 -22 -16q-13 0 -27 9.5t-14 19.5q0 12 2 18l102 293q6 16 22.5 25.5t35.5 9.5zM223 1432q33 0 69 -24.5t36 -53.5q0 -17 -11 -31l-192 -250q-12 -16 -23 -16q-13 0 -27 9t-14 19q0 13 2 19l103 293 q6 16 22.5 25.5t34.5 9.5z" />
<glyph unicode="&#x2034;" horiz-adv-x="1062" d="M825 1432q33 0 69 -24.5t36 -53.5q0 -18 -10 -31l-193 -250q-12 -16 -22 -16q-13 0 -27 9t-14 19q0 13 2 19l102 293q6 16 22.5 25.5t34.5 9.5zM559 1432q33 0 69 -24.5t36 -53.5q0 -17 -11 -31l-192 -250q-12 -16 -23 -16q-13 0 -27 9t-14 19q0 13 2 19l103 293 q6 16 22.5 25.5t34.5 9.5zM293 1432q33 0 68.5 -24.5t35.5 -53.5q0 -18 -10 -31l-192 -250q-12 -16 -23 -16q-13 0 -27 9t-14 19q0 13 2 19l103 293q6 16 22.5 25.5t34.5 9.5z" />
<glyph unicode="&#x2035;" horiz-adv-x="499" d="M154 1440q12 10 36 10q16 0 31 -6q19 -13 25 -27l127 -299q0 -1 1 -3t1 -3q0 -8 -8 -16q-9 -9 -21 -9q-9 0 -16 7l-207 252q-10 13 -10 26q0 41 41 68z" />
<glyph unicode="&#x2036;" horiz-adv-x="749" d="M135 1417q13 10 37 10q16 0 31 -6q19 -12 24 -26l127 -299q0 -1 1 -3t1 -3q0 -9 -8 -17t-20 -8q-11 0 -17 6l-207 252q-10 13 -10 27q0 40 41 67zM379 1427q14 11 37 11q15 0 30 -6q19 -13 25 -27l127 -299q0 -1 1 -3t1 -3q0 -9 -8 -17t-21 -8q-10 0 -16 6l-207 252 q-10 13 -10 27q0 40 41 67z" />
<glyph unicode="&#x2037;" horiz-adv-x="1024" d="M694 1436q12 10 37 10q16 0 31 -6q18 -12 24 -27l127 -299q0 -1 1 -3t1 -3q0 -8 -8 -16q-9 -9 -20 -9q-10 0 -17 7l-206 251q-11 15 -11 27q0 41 41 68zM410 1440q12 10 36 10q16 0 31 -6q19 -13 25 -27l127 -299q0 -1 1 -3t1 -3q0 -8 -8 -16q-9 -9 -21 -9q-9 0 -16 7 l-207 252q-10 13 -10 26q0 41 41 68zM154 1440q12 10 36 10q16 0 31 -6q19 -13 25 -27l127 -299q0 -1 1 -3t1 -3q0 -8 -8 -16q-9 -9 -21 -9q-9 0 -16 7l-207 252q-10 13 -10 26q0 41 41 68z" />
<glyph unicode="&#x2039;" horiz-adv-x="727" d="M606 936v-184q-60 -91 -127.5 -160t-165.5 -150q93 -74 162.5 -143t130.5 -164v-190q-163 190 -280.5 298.5t-219.5 164.5v67q109 77 226.5 185t273.5 276z" />
<glyph unicode="&#x203a;" horiz-adv-x="727" d="M123 -55v184q60 91 127 159t166 150q-93 74 -162.5 143t-130.5 164v191q163 -190 280.5 -298.5t219.5 -164.5v-67q-109 -77 -226.5 -185t-273.5 -276z" />
<glyph unicode="&#x203b;" horiz-adv-x="1175" d="M465 18q0 47 34 81t81 34t80.5 -34t33.5 -81q0 -46 -33.5 -79t-80.5 -33t-81 33t-34 79zM872 463q0 47 34 81t81 34t81 -34t34 -81q0 -46 -34 -79.5t-81 -33.5t-81 33.5t-34 79.5zM49 465q0 47 34 81t81 34t81 -34t34 -81q0 -46 -34 -79.5t-81 -33.5t-81 33.5t-34 79.5z M461 889q0 47 33.5 81t80.5 34t81 -34t34 -81q0 -46 -34 -79.5t-81 -33.5t-80.5 33.5t-33.5 79.5zM130 924l69 52l357 -474l398 527l69 -52l-413 -547l392 -520l-69 -52l-377 501l-337 -447l-68 51l352 467z" />
<glyph unicode="&#x203d;" horiz-adv-x="919" d="M225 1102q0 -8 1 -14.5t3.5 -10.5t4.5 -6.5t5 -6t5 -5.5q16 -16 16 -47q0 -35 -27 -54.5t-63 -19.5t-64 20t-28 68q0 12 2 23t4.5 20t9 19.5t10 16.5t13.5 16.5t14 14.5t17 14.5t16.5 13t19 13.5t17.5 13q50 39 133 58q13 50 47.5 75t69.5 25t67.5 -24t46.5 -67 q132 -19 218.5 -85.5t86.5 -159.5q0 -30 -9.5 -60t-20 -51.5t-36.5 -49t-38.5 -40t-48 -38t-43.5 -30.5t-45 -30q-87 -57 -107 -90q-15 -26 -24 -53q-2 -31 -9 -144q-1 -18 -12.5 -29.5t-25.5 -11.5q-18 0 -28.5 8.5t-10.5 18.5q-1 14 -12 154.5t-19 230.5q-8 69 -30 190 t-23 195q-47 -14 -75 -35t-28 -45zM348 92q0 47 34 81t81 34t81 -34t34 -81q0 -46 -34 -79t-81 -33t-81 33t-34 79zM573 1165q-3 -66 -24.5 -188.5t-28.5 -179.5q-1 -9 -2.5 -26t-2.5 -26q19 20 44 41q60 50 84.5 100.5t24.5 117.5q0 47 -26 90t-69 71z" />
<glyph unicode="&#x203e;" horiz-adv-x="866" d="M795 1409v-90h-721v90h721z" />
<glyph unicode="&#x2042;" horiz-adv-x="1236" d="M922 203q-7 1 -21.5 4t-26 4t-23.5 0q-59 -15 -100.5 -2t-41.5 67q0 22 14.5 39t43.5 17q26 0 50 -15t55 -39t61 -37q-4 37 -28.5 87.5t-24.5 71.5q0 27 21 48t46 21q27 0 48.5 -16t21.5 -45q0 -24 -21.5 -82.5t-22.5 -84.5q32 13 60 38t49.5 41t46.5 16q35 0 51.5 -20.5 t16.5 -39.5q0 -36 -34.5 -53t-85.5 -17q-63 0 -95 -5q19 -20 48 -37.5t49.5 -27.5t36 -31.5t15.5 -52.5q0 -23 -17.5 -37t-38.5 -14q-30 0 -50 19t-28 43t-21 59.5t-26 55.5q-14 -26 -26 -77t-31 -75.5t-65 -24.5q-22 0 -36.5 14.5t-14.5 34.5q0 42 22 64t62 43t61 46z M255 203q-7 1 -21.5 4t-26.5 4t-24 0q-59 -15 -100.5 -2t-41.5 67q0 22 14.5 39t43.5 17q26 0 50 -15t55 -39t61 -37q-4 37 -28 87.5t-24 71.5q0 27 20.5 48t45.5 21q27 0 48.5 -16t21.5 -45q0 -24 -21 -83t-22 -84q32 13 60 38t49 41t46 16q35 0 52 -20.5t17 -39.5 q0 -36 -35 -53t-86 -17q-63 0 -95 -5q19 -20 48 -37.5t49.5 -27.5t36 -31.5t15.5 -52.5q0 -23 -17.5 -37t-38.5 -14q-38 0 -58 27t-35.5 77t-30.5 73q-13 -23 -23 -60t-16.5 -59.5t-27 -40t-56.5 -17.5q-22 0 -36 14.5t-14 34.5q0 42 22 64t62 43t61 46zM595 923 q-7 1 -21.5 4t-26.5 4.5t-24 0.5q-59 -15 -100.5 -2t-41.5 67q0 22 14.5 39t43.5 17q26 0 50 -15t55 -39t61 -37q-4 37 -28 87.5t-24 71.5q0 27 20.5 48t45.5 21q27 0 48.5 -16.5t21.5 -45.5q0 -24 -21 -82.5t-22 -83.5q32 13 60 38t49 41t46 16q35 0 52 -20.5t17 -39.5 q0 -36 -35 -53t-86 -17q-63 0 -95 -5q19 -20 48 -37.5t49.5 -27.5t36 -31.5t15.5 -52.5q0 -23 -17.5 -37t-38.5 -14q-38 0 -58 27t-35.5 77t-30.5 73q-13 -23 -23 -60t-16.5 -59.5t-27 -40t-56.5 -17.5q-22 0 -36 14.5t-14 34.5q0 42 22.5 64t62 42.5t60.5 45.5z" />
<glyph unicode="&#x2044;" horiz-adv-x="90" d="M459 1231h86l-940 -1342h-84z" />
<glyph unicode="&#x204a;" horiz-adv-x="897" d="M96 688l-20 234q229 -76 413 -76q108 0 213 18l-20 -2q6 6 17 15t43.5 23.5t64.5 14.5q61 0 61 -38q0 -28 -16 -78q-64 -221 -115.5 -486t-70.5 -419l-19 -154l-151 -2l-13 26q8 59 22.5 157t60.5 341.5t93 417.5q-112 -23 -256 -23q-131 0 -307 31z" />
<glyph unicode="&#x204b;" horiz-adv-x="1282" d="M606 -293q0 -80 15 -103t65 -26h59q13 0 13 -14v-43l-219 2h-242l-211 -2v43q0 14 10 14h62q52 3 66 24t14 103v1434q0 74 -14.5 100.5t-65.5 26.5h-62q-10 0 -10 14v43q115 -3 187 -5t89.5 -3t31 -1.5t36.5 -0.5q60 0 168 5t154 5q219 0 322.5 -99t103.5 -327 q0 -122 -33.5 -213t-92.5 -143t-130.5 -76.5t-155.5 -24.5q-108 0 -160 25v-758zM418 1262q-33 -2 -46.5 -24.5t-13.5 -98.5v-1436q0 -127 64 -127q63 0 63 131v1426q0 24 -0.5 38t-4 34t-10.5 30.5t-20 18.5t-32 8z" />
<glyph unicode="&#x204f;" horiz-adv-x="448" d="M254 209q56 0 85.5 -30t29.5 -77q0 -48 -23 -71t-65 -31q-13 -1 -20.5 -3.5t-16 -14.5t-8.5 -33q0 -36 37 -73t110 -56l-14 -68q-119 21 -188.5 93t-69.5 155q0 209 143 209zM131 731q0 47 34 81t81 34t80.5 -34t33.5 -81q0 -46 -33.5 -79.5t-80.5 -33.5t-81 33.5 t-34 79.5z" />
<glyph unicode="&#x2070;" horiz-adv-x="679" d="M342 1360q-113 0 -113 -301q0 -54 3 -93t13 -85.5t33.5 -71.5t59.5 -25q26 0 45 11.5t31 36t20 51t11.5 66.5t4.5 72t1 79q0 260 -109 260zM336 735q-115 0 -194 87t-79 247q0 141 85 240.5t194 99.5q48 0 93.5 -17.5t87.5 -54t67.5 -103.5t25.5 -155q0 -87 -26.5 -156 t-68.5 -108.5t-89.5 -59.5t-95.5 -20z" />
<glyph unicode="&#x2071;" horiz-adv-x="446" d="M233 1407q47 0 71 -20.5t24 -47.5q0 -28 -27.5 -47.5t-67.5 -19.5q-41 0 -68.5 19.5t-27.5 47.5q0 29 25.5 48.5t70.5 19.5zM328 838q0 -19 2 -27.5t5 -10t9 -1.5h37q16 0 30.5 -6.5t14.5 -16.5v-43l-184 4q-98 -4 -181 -4v43q0 12 9 17.5t36 5.5h37q10 0 13.5 8t3.5 31 v221q0 45 4 45q-27 0 -103 -27l-8 68q126 22 201 55h74v-362z" />
<glyph unicode="&#x2074;" horiz-adv-x="679" d="M518 1235v-207h113l-6 -86h-107v-84q0 -30 9 -40.5t38 -10.5h33q8 0 8 -8v-51q-102 2 -168 2l-153 -2l8 51q0 8 8 8h31q29 0 38 9t9 40v86h-309l-25 25q74 108 322 454l75 -20l-256 -373h193v150q0 16 12 34q11 12 50 27.5t53 15.5q24 0 24 -20z" />
<glyph unicode="&#x2075;" horiz-adv-x="679" d="M395 946q0 172 -133 172q-65 0 -127 -28l-10 8l43 301h344l-8 -103v-2h-283l-16 -133q11 9 44 16t56 7q115 0 183.5 -64.5t68.5 -152.5q0 -93 -77.5 -162.5t-182.5 -69.5q-63 0 -131 21.5t-68 54.5q0 23 15 43t41 20q9 0 18.5 -4.5t14.5 -8.5t14.5 -14.5t11.5 -12.5 t8.5 -9t9.5 -9.5t10 -7.5t12.5 -7t15 -4t20.5 -2q54 0 80 41.5t26 109.5z" />
<glyph unicode="&#x2076;" horiz-adv-x="679" d="M451 940q0 44 -29 95.5t-84 51.5q-54 0 -105 -40v-37q0 -112 37 -164.5t88 -52.5q46 0 69.5 43.5t23.5 103.5zM604 950q0 -25 -7.5 -52.5t-26 -57t-45.5 -52.5t-70.5 -38t-96.5 -15q-37 0 -72.5 8t-72.5 28t-64.5 50.5t-45 80.5t-17.5 112q0 53 16 104t53 100.5 t91.5 88.5t138.5 66.5t188 35.5v-41q-133 -23 -214.5 -90t-108.5 -152q49 17 110 17q64 0 112 -17t72.5 -40t39 -53t17.5 -48.5t3 -34.5z" />
<glyph unicode="&#x2077;" horiz-adv-x="679" d="M217 1313q-22 0 -29 -12t-18 -62h-100l43 180h80q8 -8 20 -8h399q-85 -143 -163.5 -320t-126.5 -339h-138q52 156 117 313t117 248h-201z" />
<glyph unicode="&#x2078;" horiz-adv-x="679" d="M352 1360q-39 0 -62.5 -26t-23.5 -66q0 -58 84 -105q5 -3 7 -4t5.5 -3t8.5 -5q69 59 69 113q0 38 -24 67t-64 29zM379 1032l-41 19q-102 -76 -102 -140q0 -58 36.5 -90.5t81.5 -32.5q53 0 86 31t33 86q0 80 -94 127zM569 1264q0 -15 -3 -27.5t-13 -33.5t-36.5 -44.5 t-67.5 -48.5l63 -37q109 -57 109 -147q0 -29 -13.5 -60t-42.5 -61.5t-84.5 -50t-128.5 -19.5q-43 0 -83.5 8t-81 26.5t-65 55t-24.5 86.5q0 47 46.5 94.5t115.5 86.5q-4 2 -6 4q-68 32 -96.5 69.5t-28.5 83.5q0 70 67 115t162 45q85 0 148 -41t63 -104z" />
<glyph unicode="&#x2079;" horiz-adv-x="679" d="M80 1194q0 25 7.5 52.5t26.5 57t46 52.5t70 38t96 15q37 0 73 -8t73 -28t65 -50.5t45.5 -80.5t17.5 -112q0 -67 -26.5 -130t-82 -120.5t-153.5 -96t-227 -48.5v41q134 23 210.5 89t104.5 153q-49 -17 -102 -17q-64 0 -111.5 17t-72 40t-39 52.5t-18 48.5t-3.5 35z M233 1204q0 -44 30 -95.5t85 -51.5q48 0 101 41v37q0 112 -36 164.5t-87 52.5q-47 0 -70 -43.5t-23 -104.5z" />
<glyph unicode="&#x207a;" horiz-adv-x="679" d="M416 1085h213v-100h-213v-215h-150v215h-215v100h215v215h150v-215z" />
<glyph unicode="&#x207b;" horiz-adv-x="679" d="M614 1085v-100h-548v100h548z" />
<glyph unicode="&#x207c;" horiz-adv-x="679" d="M606 1044v-88h-532v88h532zM606 1194v-88h-532v88h532z" />
<glyph unicode="&#x207d;" horiz-adv-x="444" d="M66 1075q0 108 75.5 221.5t208.5 198.5l47 -47q-94 -99 -129 -179t-35 -194q0 -120 32.5 -195.5t131.5 -177.5l-43 -47q-155 99 -221.5 201.5t-66.5 218.5z" />
<glyph unicode="&#x207e;" horiz-adv-x="444" d="M381 1079q0 -115 -68 -218t-223 -202l-43 48q100 103 133 178t33 194q0 113 -35.5 193.5t-130.5 179.5l47 47q133 -85 210 -199t77 -221z" />
<glyph unicode="&#x207f;" horiz-adv-x="679" d="M311 795q26 0 41 -9q14 9 39 9h23q10 2 13 9.5t3 35.5v241q0 127 -68 127q-24 0 -98 -86l8 6v-288q0 -45 19 -45h20zM16 1243l31 10q79 8 150 43h75v-49q67 49 140 49q186 0 186 -194v-262q0 -30 2.5 -36.5t13.5 -8.5h13q45 0 45 -21v-41q-111 4 -160 4q-102 0 -156 -4 h-4h-6q-50 4 -158 4l-157 -4v43q0 19 45 19h14q10 1 12 9t2 36v315q0 39 5 41q-20 0 -86 -14z" />
<glyph unicode="&#x2080;" horiz-adv-x="679" d="M342 385q-113 0 -113 -301q0 -54 3 -93t13 -85t33.5 -71t59.5 -25q31 0 52.5 18.5t33 45.5t18 73t8 83.5t1.5 94.5q0 260 -109 260zM336 -240q-115 0 -194 87t-79 247q0 141 85 240.5t194 99.5q48 0 93.5 -17.5t87.5 -54t67.5 -103.5t25.5 -155q0 -87 -26.5 -156 t-68.5 -108.5t-89.5 -59.5t-95.5 -20z" />
<glyph unicode="&#x2081;" horiz-adv-x="679" d="M293 -88v270q0 52 -10 73t-35 21q-26 0 -103 -28l-20 53q11 4 46 17.5t46.5 18.5t39.5 16.5t44.5 20t41 22t48.5 28.5q19 12 34 12q21 0 21 -12q-4 -58 -4 -116v-396q0 -41 19.5 -58t68.5 -28l19 -4q16 -3 16 -17v-32l-4 -4q-116 4 -196 4l-189 -4l-4 4v32q0 14 16 17 l17 4q51 13 69.5 29t18.5 57z" />
<glyph unicode="&#x2082;" horiz-adv-x="679" d="M176 199q-35 0 -57.5 22t-22.5 49q0 24 11.5 49t37.5 52t77 44t120 17q66 0 118 -14.5t89 -54.5t37 -103q0 -93 -123 -197q-122 -93 -162 -136.5t-45 -84.5h258q21 54 31 97l65 -15l-30 -162h-504q0 30 8.5 56.5t21.5 49t47.5 57t66.5 63t99 86.5q53 46 80 88t27 94 q0 41 -19.5 69t-39.5 37t-35 9q-48 0 -75.5 -16.5t-27.5 -35.5q0 -16 2 -22q1 -3 3 -12t3 -15t1 -8q0 -29 -17.5 -46t-44.5 -17z" />
<glyph unicode="&#x2083;" horiz-adv-x="679" d="M403 297q0 39 -21.5 59.5t-53.5 20.5q-25 0 -64.5 -20.5t-42.5 -49.5q0 -76 -61 -76q-23 0 -38 7t-21 17.5t-7.5 17t-1.5 12.5q0 17 12 39.5t38 48.5t81 43.5t129 17.5q99 0 153 -33.5t54 -93.5q0 -74 -100 -135q65 -17 109 -63t44 -119q0 -105 -94 -168.5t-235 -63.5 q-78 0 -143.5 20.5t-65.5 53.5q0 27 15.5 46.5t41.5 19.5t45 -8t26 -15t15 -20q10 -15 35 -25t51 -10q15 0 37 6t51 21t48.5 48.5t19.5 79.5q0 75 -41 103t-113 28q-17 0 -84 -14l-6 55q74 10 131 51t57 99z" />
<glyph unicode="&#x2084;" horiz-adv-x="679" d="M518 260v-207h113l-6 -86h-107v-84q0 -30 9 -40.5t38 -10.5h33q8 0 8 -8v-51q-102 2 -168 2l-153 -2l8 51q0 8 8 8h31q29 0 38 9t9 40v86h-309l-25 25q74 108 322 454l75 -20l-256 -373h193v150q0 17 12 35q11 12 50 27.5t53 15.5q24 0 24 -21z" />
<glyph unicode="&#x2085;" horiz-adv-x="679" d="M395 -29q0 172 -133 172q-65 0 -127 -28l-10 8l43 301h344l-8 -102v-3h-283l-16 -133q11 9 44 16t56 7q115 0 183.5 -64.5t68.5 -152.5q0 -93 -77.5 -162.5t-182.5 -69.5q-63 0 -131 21.5t-68 54.5q0 23 15 43.5t41 20.5q9 0 18.5 -5t14.5 -9t14.5 -14.5t11.5 -12.5 t8.5 -9t9.5 -9.5t10 -7.5t12.5 -7t15 -4t20.5 -2q54 0 80 41.5t26 109.5z" />
<glyph unicode="&#x2086;" horiz-adv-x="679" d="M436 -35q0 25 -9.5 57t-37 61.5t-65.5 29.5q-28 0 -50.5 -8t-54.5 -33v-37q0 -112 37 -164.5t88 -52.5q46 0 69 43t23 104zM590 -25q0 -25 -7.5 -52.5t-26 -57t-45.5 -52.5t-70.5 -38t-96.5 -15q-37 0 -72.5 8t-72.5 28t-64.5 50.5t-45 80.5t-17.5 112q0 53 16 104 t53 100.5t91.5 88.5t138.5 66.5t188 35.5v-41q-133 -23 -214.5 -89.5t-108.5 -151.5q46 16 110 16t112 -17t72.5 -40t39 -53t17.5 -48.5t3 -34.5z" />
<glyph unicode="&#x2087;" horiz-adv-x="679" d="M225 338q-22 0 -29 -12t-18 -62h-100l43 180h80q8 -8 20 -8h400q-85 -144 -164 -320.5t-127 -338.5h-137q121 363 233 561h-201z" />
<glyph unicode="&#x2088;" horiz-adv-x="679" d="M340 385q-39 0 -62.5 -26t-23.5 -66q0 -58 84 -105q6 -3 9.5 -5.5t10.5 -6.5q70 60 70 113q0 38 -24 67t-64 29zM367 57l-41 19q-103 -76 -103 -139q0 -58 37 -90.5t82 -32.5q53 0 86 30.5t33 85.5q0 80 -94 127zM557 289q0 -82 -121 -154l64 -37q108 -57 108 -147 q0 -29 -13.5 -60t-42 -61.5t-84 -50t-128.5 -19.5q-43 0 -83.5 8.5t-81 27t-65 55t-24.5 86.5q0 47 46.5 94t115.5 86q-4 2 -6 4q-68 32 -96.5 69.5t-28.5 83.5q0 70 67 115t162 45q85 0 148 -41t63 -104z" />
<glyph unicode="&#x2089;" horiz-adv-x="679" d="M66 219q0 32 13 67t40 69.5t77 56.5t115 22q47 0 92 -13.5t88 -43.5t69 -87t26 -134q0 -67 -27 -130.5t-82 -120.5t-153.5 -96t-227.5 -49v41q134 23 211 89t105 153q-46 -16 -103 -16q-64 0 -111.5 17t-71.5 39.5t-38.5 52.5t-18 48.5t-3.5 34.5zM219 229 q0 -44 30 -95.5t85 -51.5q47 0 100 41v37q0 112 -36 164.5t-87 52.5q-47 0 -69.5 -43.5t-22.5 -104.5z" />
<glyph unicode="&#x208a;" horiz-adv-x="679" d="M414 121h215v-98h-215v-216h-148v216h-215v98h215v215h148v-215z" />
<glyph unicode="&#x208b;" horiz-adv-x="679" d="M614 121v-98h-548v98h548z" />
<glyph unicode="&#x208c;" horiz-adv-x="679" d="M606 82v-88h-532v88h532zM606 229v-90h-532v90h532z" />
<glyph unicode="&#x208d;" horiz-adv-x="444" d="M66 106q0 108 75.5 221.5t208.5 198.5l47 -47q-94 -99 -129 -179t-35 -194q0 -119 32.5 -194.5t131.5 -177.5l-43 -47q-155 99 -221.5 201t-66.5 218z" />
<glyph unicode="&#x208e;" horiz-adv-x="444" d="M381 106q0 -115 -68 -217.5t-223 -201.5l-43 47q100 103 133 178t33 194q0 113 -35.5 193.5t-130.5 179.5l47 47q133 -85 210 -199t77 -221z" />
<glyph unicode="&#x2090;" horiz-adv-x="679" d="M381 -106l-14 -9v170q-58 -21 -87.5 -50t-29.5 -79q0 -39 16.5 -59.5t38.5 -20.5q8 0 27 12t34 24zM489 -223q-60 0 -88 22q-52 -22 -125 -22q-57 0 -99.5 14t-64 37.5t-31 46.5t-9.5 47q0 134 229 189l66 16q0 133 -43 133q-26 0 -44 -10t-18 -29v-18q6 -15 6 -25 q0 -4 -0.5 -8.5t-5.5 -13.5t-13.5 -15t-26.5 -11t-42 -5q-42 0 -66 17.5t-24 50.5q0 47 64 90t172 43q113 0 166 -51t53 -164v-170v-9l117 -47q-9 -40 -53.5 -74t-119.5 -34z" />
<glyph unicode="&#x2091;" horiz-adv-x="628" d="M336 -166q98 0 178 88l41 -43q-88 -119 -229 -119q-139 0 -208 76t-69 197q0 77 30.5 144t92.5 110t143 43q69 0 117 -21t72 -59.5t34 -79t13 -94.5h-354v-33q0 -64 15.5 -109t39.5 -64.5t44.5 -27.5t39.5 -8zM397 143q0 75 -21 100t-63 25q-44 0 -72.5 -37.5 t-35.5 -87.5h192z" />
<glyph unicode="&#x2092;" horiz-adv-x="628" d="M311 330q64 0 114.5 -20t80.5 -51t49.5 -71.5t27 -77.5t7.5 -73q0 -51 -17 -99.5t-50.5 -88.5t-89 -64.5t-124.5 -24.5q-92 0 -156 41.5t-91 101t-27 128.5q0 38 8 76.5t28 79t50.5 72t79.5 51.5t110 20zM434 -2q0 123 -35.5 196.5t-99.5 73.5q-52 0 -81.5 -46.5 t-29.5 -166.5q0 -116 39 -174.5t105 -58.5q44 0 73 43t29 133z" />
<glyph unicode="&#x2093;" horiz-adv-x="679" d="M20 -178q0 22 70 22h16q9 7 21 25q131 160 139 166q-24 30 -75.5 97.5t-75.5 98.5q-10 17 -15 17h-12q-72 0 -72 22v41h334v-41q0 -19 -49 -22q3 -11 17 -35.5t27 -43.5l13 -19q22 28 36 48t17 26l3 5q6 6 6 19q-49 4 -49 22v41h295v-37q-6 -26 -72 -26q-4 0 -8 -1 t-9 -4.5t-8.5 -6t-9 -8l-8.5 -8.5t-9.5 -10.5t-9.5 -10.5q-17 -23 -53 -69t-53 -69q108 -153 141 -196q13 -18 31 -21q72 -3 72 -22v-45q-78 8 -150 8q-43 0 -178 -6v43q0 19 45 22q0 11 -2 13q-47 70 -57 86q-64 -77 -66 -99q53 0 53 -22v-43q-78 4 -141 4q-84 0 -154 -4 v43z" />
<glyph unicode="&#x2094;" horiz-adv-x="679" d="M418 -41h-150q1 -59 21.5 -86t42.5 -27q31 0 54.5 34t31.5 79zM309 244q-28 0 -54.5 -14.5t-42.5 -29.5t-48 -50l-88 53q52 63 105.5 92t140.5 29q66 0 118.5 -20t82.5 -49t49.5 -67t26.5 -70t7 -61q0 -114 -77.5 -197t-198.5 -83q-76 0 -127.5 21.5t-76 61.5t-33.5 81 t-9 96h344v12q0 90 -40 142.5t-79 52.5z" />
<glyph unicode="&#x2098;" horiz-adv-x="794" d="M117 1087q0 -117 81.5 -199.5t198.5 -82.5q118 0 200.5 82.5t82.5 199.5t-82.5 199t-200.5 82q-117 0 -198.5 -82t-81.5 -199zM57 1087q0 139 100.5 239.5t239.5 100.5q141 0 240.5 -100t99.5 -240q0 -141 -99.5 -240t-240.5 -99q-140 0 -240 99t-100 240zM430 1120h176 v-63h-176v-176h-63v176h-179v63h179v178h63v-178z" />
<glyph unicode="&#x2099;" horiz-adv-x="794" d="M117 1087q0 -117 81.5 -199.5t198.5 -82.5q118 0 200.5 82.5t82.5 199.5t-82.5 199t-200.5 82q-117 0 -198.5 -82t-81.5 -199zM57 1087q0 139 100.5 239.5t239.5 100.5q141 0 240.5 -100t99.5 -240q0 -141 -99.5 -240t-240.5 -99q-140 0 -240 99t-100 240zM606 1057h-418 v63h418v-63z" />
<glyph unicode="&#x20a2;" horiz-adv-x="897" d="M494 -33q-221 0 -352.5 167t-131.5 439q0 280 144.5 453.5t363.5 173.5q72 0 160 -35v6v21l139 10l27 -334l-142 -8q-10 118 -67.5 186t-120.5 68q-74 0 -129.5 -72t-83 -187.5t-27.5 -254.5q0 -378 117 -483v354q0 69 -74 53l-12 68q71 18 102 29t72 32q34 17 66 17h73 l-2 -68q64 68 140 68q63 0 102 -25t39 -61q0 -33 -29.5 -61.5t-76.5 -28.5q-95 0 -113 49q-4 4 -4 8q-17 -25 -37.5 -80.5t-20.5 -89.5v-272q54 47 91 149l129 -35q-34 -110 -126 -183t-216 -73z" />
<glyph unicode="&#x20a3;" horiz-adv-x="897" d="M668 743v-94h-236v-80h236v-94h-236v-321q0 -82 68 -82h53q59 0 59 -25v-31l-18 -18q-217 4 -291 4l-283 -4l-20 18v31q0 12 17.5 18.5t43.5 6.5h54q35 0 50 19.5t15 62.5v321h-174v94h174v80h-174v94h174v281q0 48 -11.5 65t-47.5 17h-62q-59 0 -59 22v31l20 21 q260 -4 287 -4h576l43 -336l-142 -19q-53 258 -180 258h-141q-31 0 -31 -55v-281h236z" />
<glyph unicode="&#x20a4;" horiz-adv-x="897" d="M461 467q-22 -193 -131 -281q56 -1 100.5 -10.5t65.5 -19t47 -25.5q56 -39 92 -39q46 0 105 27t108 92l61 -61q-29 -79 -108 -127t-201 -48q-99 0 -213 66q-96 53 -129 53q-21 0 -31 -15t-10 -32q0 -39 -39.5 -60.5t-85.5 -21.5q-37 0 -66.5 18t-29.5 40q0 58 123 116 h-10l28 31q83 89 90 297h-182v94h184v78h-184v96h186q4 100 43 179t119 159q104 107 287 107q35 0 77.5 -8t82 -31.5t39.5 -57.5q0 -39 -35 -61.5t-90 -22.5q-25 0 -45 6.5t-29 12t-25 18.5q-43 43 -65 43q-50 0 -86.5 -82.5t-36.5 -201.5v-60h240v-96h-240v-78h240v-94 h-246z" />
<glyph unicode="&#x20a7;" horiz-adv-x="1822" d="M395 1114v-522q10 -2 37 -2q209 0 209 270q0 81 -16 136.5t-45 82.5t-60 38t-69 11q-22 0 -84 -20zM1161 598q0 62 41 115h-127v-457q0 -158 19 -158q30 0 86 33l-23 -6q-1 23 -3 74t-3 75l131 2q11 -134 55 -178q57 -51 113 -51q43 0 81 34t38 93q0 64 -37 108t-131 83 q-68 28 -103.5 46t-71.5 45.5t-50.5 61t-14.5 80.5zM158 137v918q0 73 -35 73q-5 0 -19 -1t-22 -1q-10 -2 -27 -2q-57 0 -57 21v45q115 0 262 10q188 8 203 8q98 0 173.5 -22.5t118 -56t70 -78t36.5 -82t9 -74.5q0 -21 -2 -31q15 62 15 137v33l192 68v-303h158q50 0 57 -17 q76 43 180 43q73 0 152 -20.5t119 -42.5l22 -221l-129 -2q-19 68 -44 115t-48.5 67t-40.5 27.5t-31 7.5q-43 0 -73.5 -31t-30.5 -98q0 -56 23.5 -79.5t91.5 -53.5q63 -28 96 -43.5t79 -43t69 -52.5t40 -60.5t17 -77.5q0 -66 -33.5 -115t-87 -73.5t-105 -35.5t-102.5 -11 q-108 0 -176 18q-14 4 -27 4q-9 0 -88 -16l-2 20q-61 -28 -133 -28q-87 0 -131.5 45.5t-44.5 144.5v543h-25q-42 -90 -136.5 -145.5t-248.5 -55.5q-23 0 -33 -3q-2 0 -7 2q-4 2 -7 3v-377q0 -37 13 -54t43 -17h47q24 0 41.5 -6.5t17.5 -16.5v-27l-18 -18q-188 4 -258 4 l-265 -4l-18 18v27q0 23 57 23h47q56 0 56 71z" />
<glyph unicode="&#x20a8;" horiz-adv-x="1607" d="M618 879q0 144 -45.5 203t-113.5 59q-34 0 -66 -8v-531h4q69 0 107.5 21.5t66.5 68.5q47 73 47 187zM932 272l131 4q11 -134 53 -178q20 -17 52 -34t63 -17q43 0 81 34t38 93q0 63 -38 107.5t-130 83.5q-51 22 -80 36t-63.5 36t-52 43t-30 51t-12.5 67q0 97 89 162 t218 65q75 0 153 -20.5t118 -42.5l22 -221l-129 -2q-15 55 -34.5 97t-37.5 64t-37 35.5t-31 17t-22 3.5q-44 0 -75 -30.5t-31 -98.5q0 -56 24 -80t93 -53q61 -27 95 -43.5t79 -44t68 -52.5t40 -60.5t17 -76.5q0 -66 -33.5 -115t-86.5 -73.5t-104.5 -35.5t-101.5 -11 q-111 0 -178 18q-14 4 -27 4q-9 0 -88 -16v12q-54 -12 -82 -12q-87 0 -152 45.5t-100 116.5q-27 57 -84.5 175t-85.5 175q-10 12 -47 16v-377q0 -38 13.5 -55.5t42.5 -17.5h47q25 0 42 -6.5t17 -16.5v-27l-18 -18q-186 4 -258 4l-265 -4l-18 18v27q0 23 57 23h49q56 0 56 73 v916q0 70 -11 73l-65 -6q-62 0 -62 21v35q44 12 161.5 21t258.5 9q112 0 193.5 -18.5t136.5 -77.5v2q98 -107 98 -231q0 -62 -22.5 -117t-59.5 -94.5t-73.5 -66.5t-73.5 -44q28 -61 88 -186t88 -187q56 -119 125 -129zM363 1126q-3 0 -5 -2z" />
<glyph unicode="&#x20ab;" horiz-adv-x="1079" d="M61 -100h934v-95h-934v95zM995 1171l2 -79h-88v-856q0 -51 27.5 -79.5t103.5 -35.5l4 -64q-164 -17 -290 -82h-70l4 97q-60 -52 -106 -72t-109 -20q-165 0 -281 126t-116 314q0 227 139 366q67 62 145 92.5t191 30.5q27 0 70 -15.5t63 -35.5v234h-295v79h295 q-1 82 -15 107t-46 25l-66 4q-10 0 -12 10l-6 59q72 5 190.5 22.5t153.5 31.5q32 0 32 -21q-6 -82 -6 -215v-23h86zM684 702q-80 121 -162 121q-35 0 -69 -16.5t-67.5 -55t-54 -115t-20.5 -181.5q0 -184 59.5 -278.5t153.5 -94.5q65 0 160 90v530z" />
<glyph unicode="&#x20ac;" horiz-adv-x="948" d="M39 627l2 18l39 62h34q33 223 164.5 357t307.5 134q56 0 144 -16.5t114 -14.5q2 -97 41 -299l-78 -10q-13 49 -23 81.5t-29 71t-40.5 61.5t-55.5 38.5t-77 15.5q-210 0 -235 -419h419l-39 -80h-383v-33q0 -11 0.5 -31.5t0.5 -30.5h349l-39 -79h-307q12 -204 69.5 -298 t178.5 -94q48 0 83.5 18.5t59 55.5t38 73t32.5 90q6 21 10 32l78 -15q-8 -49 -38.5 -159.5t-37.5 -149.5q-26 2 -107.5 -14.5t-138.5 -16.5q-181 0 -307.5 130t-155.5 348h-102v16l39 63h56q-1 13 -1 39q0 20 2 56h-67z" />
<glyph unicode="&#x20af;" horiz-adv-x="2174" d="M1845 543q0 205 -153 205q-156 0 -228 -310l-63 -278q56 -54 86.5 -75.5t54.5 -21.5q71 0 130.5 44.5t96 115.5t56.5 154t20 166zM518 698l-110 -553q-5 -15 -5 -32q0 -24 14 -30.5t79 -6.5q110 0 195.5 36t137.5 93.5t85.5 137.5t46 159.5t12.5 167.5q0 86 -20.5 162 t-61 138.5t-108 101.5t-154.5 44q-53 -121 -111 -418zM1260 -379l-234 -80l-20 53q62 97 135 402q70 309 82 360q20 86 44 150t53 106t50 64t53 49q67 55 157 82t173 27q159 0 252.5 -79t93.5 -206q0 -66 -25 -140.5t-76 -148t-120 -133t-166.5 -96.5t-206.5 -37 q-87 0 -139 14l-12 -61q-3 -12 -14 -59t-15.5 -64.5t-14.5 -55.5t-16.5 -58.5t-15.5 -45.5t-18 -43zM813 1354q-89 -67 -147 -160h6q151 0 276.5 -68t197 -187t71.5 -263q0 -135 -46.5 -257t-131.5 -216t-215 -149.5t-287 -55.5q-60 0 -124 1t-77 1q-27 2 -72 2 q-37 -1 -139.5 -3t-140.5 -3l8 45q7 22 59 22h55q29 0 43.5 17.5t22.5 58.5l111 561q47 233 129 390q-103 -30 -344 -144l-33 68q235 134 465 170l-31 -4q47 65 126.5 118t199.5 107z" />
<glyph unicode="&#x20b1;" horiz-adv-x="897" d="M625 891h-246v-80h244q2 14 2 49v21v10zM602 717h-223v-125q12 -2 39 -2q132 0 184 127zM379 1114v-129h231q-40 143 -176 143q-32 0 -84 -20zM924 985v-94h-70q0 -41 -8 -80h78v-94h-111q-41 -91 -136.5 -148t-250.5 -57q-22 0 -32 -3q-3 0 -10 3q-3 1 -5 2v-377 q0 -37 13 -54t42 -17h47q24 0 43 -6.5t19 -16.5v-27l-21 -18q-186 4 -258 4l-244 -4l-18 18v27q0 23 57 23h29q55 0 55 71v580h-127v94h127v80h-127v94h127v70q0 73 -37 73q-3 0 -11.5 -1t-12.5 -1q-8 -2 -23 -2q-57 0 -57 21v45q52 0 162 4q12 1 40 3t40 3q188 8 202 8 q94 0 167 -19.5t117.5 -53.5t70.5 -70.5t39 -79.5h84z" />
<glyph unicode="&#x2100;" horiz-adv-x="1443" d="M1366 1487l-1053 -1528l-108 16l1050 1526zM461 1118q19 47 31 104t12 76q0 42 -18 72.5t-46 30.5q-50 0 -100 -57t-79.5 -136t-29.5 -147q0 -29 0.5 -44.5t4 -39.5t10 -36t20 -22t33.5 -10q30 0 80 64t82 145zM420 907v21q-42 -41 -88 -62.5t-82 -21.5q-49 0 -86 19 t-56.5 49t-28.5 61.5t-9 62.5q0 99 59.5 197.5t144.5 158.5t162 60q88 0 113 -70l49 70h98l-100 -428q-10 -45 -10 -57q0 -21 10 -21q24 0 70 55l41 -34q-63 -64 -113 -93.5t-102 -29.5q-24 0 -39.5 6t-22 17t-8.5 20t-2 20zM1047 -25q-92 0 -157 73.5t-65 144.5 q0 81 32 155t83 125t114 81t124 30q101 0 147.5 -42.5t46.5 -101.5q0 -32 -29.5 -48.5t-52.5 -16.5q-71 0 -71 47q0 11 3 25.5t3 35.5q0 27 -14.5 38t-28.5 11q-71 0 -131 -87t-60 -224q0 -101 30 -139.5t66 -38.5q25 0 75.5 30t88.5 72l54 -45q-57 -60 -115.5 -92.5 t-142.5 -32.5z" />
<glyph unicode="&#x2101;" horiz-adv-x="1443" d="M1366 1487l-1053 -1528l-108 16l1050 1526zM461 1118q19 47 31 104t12 76q0 42 -18 72.5t-46 30.5q-50 0 -100 -57t-79.5 -136t-29.5 -147q0 -29 0.5 -44.5t4 -39.5t10 -36t20 -22t33.5 -10q30 0 80 64t82 145zM420 907v21q-42 -41 -88 -62.5t-82 -21.5q-49 0 -86 19 t-56.5 49t-28.5 61.5t-9 62.5q0 99 59.5 197.5t144.5 158.5t162 60q88 0 113 -70l49 70h98l-100 -428q-10 -45 -10 -57q0 -21 10 -21q24 0 70 55l41 -34q-63 -64 -113 -93.5t-102 -29.5q-24 0 -39.5 6t-22 17t-8.5 20t-2 20zM1051 -29q-36 0 -103 8.5t-96 8.5l-8 198l71 4 q0 -76 37.5 -123t102.5 -47q42 0 71 25t29 76q0 41 -33 72.5t-88 64.5q-68 39 -95.5 71t-27.5 74q0 83 72 130t178 47q98 0 176 -64l-6 -145l-76 6q0 66 -30 110.5t-72 44.5q-45 0 -70.5 -28t-25.5 -66q0 -65 53 -88q94 -45 147.5 -91t53.5 -97q0 -89 -74 -140t-186 -51z " />
<glyph unicode="&#x2102;" horiz-adv-x="1318" d="M727 -25q-128 0 -236 38t-183.5 102.5t-128.5 151t-78 182t-25 196.5q0 147 54.5 279t144.5 224t209 146t245 54q109 0 195.5 -22t148 -45.5t105.5 -25.5q6 -109 45 -317l-62 -8q-103 342 -454 342q-99 0 -203 -69v-1080q99 -64 221 -64q142 0 254 54t221 174l47 -31 q-104 -137 -237.5 -209t-282.5 -72zM434 1148q-180 -169 -180 -464q0 -145 46 -280.5t134 -223.5v968z" />
<glyph unicode="&#x2105;" horiz-adv-x="1546" d="M1366 1487l-1053 -1528l-108 16l1050 1526zM334 834q-92 0 -156.5 73.5t-64.5 145.5q0 80 31.5 153.5t82 124.5t113.5 81t125 30q100 0 147 -42t47 -100q0 -33 -30 -50t-54 -17q-69 0 -69 47q0 12 2 26t2 35q0 27 -14 38.5t-27 11.5q-72 0 -132.5 -87t-60.5 -225 q0 -54 10 -91.5t26.5 -55t31 -24.5t29.5 -7q25 0 75.5 30.5t88.5 72.5l55 -46q-41 -39 -70.5 -61.5t-80 -42.5t-107.5 -20zM1024 219q0 -58 10 -98t27 -58t31.5 -25t29.5 -7q39 0 70.5 25.5t50.5 62.5t32 82.5t18 83t5 65.5q0 176 -94 176q-61 0 -104 -54t-59.5 -120.5 t-16.5 -132.5zM856 209q0 62 25 126.5t71 120t119 91t160 35.5q65 0 112.5 -20.5t72 -55t35.5 -71t11 -75.5q0 -102 -55.5 -192.5t-142 -142.5t-177.5 -52q-67 0 -115.5 26t-72 66t-33.5 76t-10 68z" />
</font>
</defs>
</svg>
