<?xml version="1.0" standalone="no"?>
<!DOCTYPE svg PUBLIC "-//W3C//DTD SVG 1.1//EN" "http://www.w3.org/Graphics/SVG/1.1/DTD/svg11.dtd" >
<svg xmlns="http://www.w3.org/2000/svg">
<metadata></metadata>
<defs>
<font id="linux_libertine_obold" horiz-adv-x="1052" >
<font-face units-per-em="2048" ascent="1638" descent="-410" />
<missing-glyph horiz-adv-x="512" />
<glyph unicode="&#x2e;&#x2e;&#x2e;" horiz-adv-x="1673" d="M100 119q0 60 45 102.5t107 42.5t104.5 -40.5t42.5 -100.5q0 -58 -44.5 -100.5t-106.5 -42.5t-105 40.5t-43 98.5zM686 119q0 60 45 102.5t107 42.5t104.5 -40.5t42.5 -100.5q0 -58 -44.5 -100.5t-106.5 -42.5t-105 40.5t-43 98.5zM1274 119q0 60 44.5 102.5t106.5 42.5 t105 -40.5t43 -100.5q0 -58 -45 -100.5t-107 -42.5t-104.5 40.5t-42.5 98.5z" />
<glyph unicode="&#x21;&#x21;" horiz-adv-x="841" d="M649 1352q62 0 105 -40t43 -114q0 -53 -29 -217q-58 -351 -61 -506q-2 -86 -58 -86q-37 0 -48 25.5t-13 85.5q-2 74 -20.5 226.5t-37.5 260.5q-28 144 -28 211q0 78 45 116t102 38zM500 123q0 60 44.5 102.5t106.5 42.5t105 -40.5t43 -100.5q0 -58 -45 -100.5t-107 -42.5 t-104.5 40.5t-42.5 98.5zM272 1348q62 0 105 -40t43 -114q0 -53 -29 -217q-58 -351 -61 -506q-2 -86 -58 -86q-37 0 -48 25.5t-13 85.5q-2 75 -20 228t-37 259q-2 9 -8 40t-8.5 44t-6 37.5t-5 45.5t-1.5 44q0 78 45 116t102 38zM123 119q0 60 44.5 102.5t106.5 42.5 t105 -40.5t43 -100.5q0 -58 -45 -100.5t-107 -42.5t-104.5 40.5t-42.5 98.5z" />
<glyph unicode="&#x3f;&#x3f;" horiz-adv-x="1691" d="M1071 1167q0 -20 9.5 -50.5t9.5 -59.5q0 -38 -31 -61t-78 -23q-42 0 -79.5 32.5t-37.5 86.5q0 51 26 90.5t83 85.5q96 80 280 80q174 0 276.5 -86t102.5 -228q0 -37 -9 -70.5t-29.5 -64.5t-37.5 -53t-51 -51t-50 -41.5t-54 -40.5q-28 -20 -45.5 -36t-39.5 -45t-33 -70 t-11 -93v-27q0 -40 -13 -54.5t-55 -14.5q-38 0 -51.5 16.5t-13.5 52.5v31q0 44 3 71.5t15 74.5t44 94t83 94q113 99 113 242q0 97 -41.5 161t-122.5 64q-67 0 -114.5 -32t-47.5 -75zM1059 119q0 60 44.5 102.5t106.5 42.5t105 -40.5t43 -100.5q0 -58 -45 -100.5t-107 -42.5 t-104.5 40.5t-42.5 98.5zM260 1167q0 -20 9.5 -50.5t9.5 -59.5q0 -38 -31 -61t-78 -23q-42 0 -79.5 32.5t-37.5 86.5q0 51 26 90.5t83 85.5q96 80 280 80q174 0 276.5 -86t102.5 -228q0 -37 -9 -70.5t-29.5 -64.5t-37.5 -53t-51 -51t-50 -41.5t-54 -40.5q-28 -20 -45.5 -36 t-39.5 -45t-33 -70t-11 -93v-27q0 -40 -13 -54.5t-55 -14.5q-38 0 -51.5 16.5t-13.5 52.5v31q0 44 3 71.5t15 74.5t44 94t83 94q113 99 113 242q0 97 -41.5 161t-122.5 64q-67 0 -114.5 -32t-47.5 -75zM248 119q0 60 44.5 102.5t106.5 42.5t105 -40.5t43 -100.5 q0 -58 -45 -100.5t-107 -42.5t-104.5 40.5t-42.5 98.5z" />
<glyph unicode="&#x3f;&#x21;" horiz-adv-x="1259" d="M1067 1352q61 0 104 -40t43 -114q0 -58 -28 -217q-59 -358 -62 -506q-2 -86 -57 -86q-37 0 -48 25.5t-13 85.5q-2 74 -20.5 226.5t-37.5 260.5q-28 144 -28 211q0 78 45 116t102 38zM918 123q0 60 44.5 102.5t106.5 42.5t105 -40.5t43 -100.5q0 -58 -45 -100.5 t-107 -42.5t-104.5 40.5t-42.5 98.5zM260 1167q0 -20 9.5 -50.5t9.5 -59.5q0 -38 -31 -61t-78 -23q-42 0 -79.5 32.5t-37.5 86.5q0 51 26 90.5t83 85.5q96 80 280 80q174 0 276.5 -86t102.5 -228q0 -37 -9 -70.5t-29.5 -64.5t-37.5 -53t-51 -51t-50 -41.5t-54 -40.5 q-28 -20 -45.5 -36t-39.5 -45t-33 -70t-11 -93v-27q0 -40 -13 -54.5t-55 -14.5q-38 0 -51.5 16.5t-13.5 52.5v31q0 44 3 71.5t15 74.5t44 94t83 94q113 99 113 242q0 97 -41.5 161t-122.5 64q-67 0 -114.5 -32t-47.5 -75zM248 119q0 60 44.5 102.5t106.5 42.5t105 -40.5 t43 -100.5q0 -58 -45 -100.5t-107 -42.5t-104.5 40.5t-42.5 98.5z" />
<glyph unicode="&#x21;&#x3f;" horiz-adv-x="1286" d="M272 1348q62 0 105 -40t43 -114q0 -53 -29 -217q-58 -351 -61 -506q-2 -86 -58 -86q-37 0 -48 25.5t-13 85.5q-2 75 -20 228t-37 259q-2 9 -8 40t-8.5 44t-6 37.5t-5 45.5t-1.5 44q0 78 45 116t102 38zM123 119q0 60 44.5 102.5t106.5 42.5t105 -40.5t43 -100.5 q0 -58 -45 -100.5t-107 -42.5t-104.5 40.5t-42.5 98.5zM674 1163q0 -20 9 -50.5t9 -59.5q0 -38 -30.5 -61t-77.5 -23q-42 0 -79.5 32t-37.5 86q0 51 26 91t82 86q94 79 281 79q174 0 276.5 -85.5t102.5 -227.5q0 -37 -9 -70.5t-29.5 -64.5t-37.5 -53t-51 -51t-50 -41.5 t-54 -40.5q-28 -20 -45.5 -36t-40 -45t-33.5 -70t-11 -93v-27q0 -40 -12.5 -54.5t-54.5 -14.5q-38 0 -52 16.5t-14 52.5v31q0 34 1 55t8.5 59.5t22 69.5t43.5 71.5t71 78.5q112 98 112 241q0 97 -41 161.5t-122 64.5q-67 0 -114.5 -32t-47.5 -75zM662 115q0 60 44.5 102.5 t106.5 42.5t105 -40.5t43 -100.5q0 -58 -45 -101t-107 -43q-61 0 -104 40.5t-43 99.5z" />
<glyph unicode="fj" horiz-adv-x="1292" d="M862 643q0 82 -21 108.5t-92 34.5h-268v-524q0 -86 13.5 -126.5t39 -53t84.5 -16.5q9 -9 9 -35t-9 -35q-176 4 -270 4q-119 0 -291 -4q-9 9 -9 35t9 35q52 2 78.5 8.5t46.5 27t26.5 56.5t6.5 100v528h-115q-33 0 -44 5t-11 16v35q0 13 48 30t97 17h25v26q0 83 12.5 146.5 t39.5 112.5t52 79t68 72q108 105 313 105q165 0 283 -65q45 -25 73.5 -65.5t28.5 -70.5q0 -66 -37 -101.5t-94 -35.5q-53 0 -91.5 38.5t-59.5 94.5q-23 63 -56.5 90.5t-84.5 27.5q-16 0 -36 -8t-46.5 -33t-48 -63t-36 -106t-14.5 -154v-90h449q128 7 160 20q22 0 35 -9 t12 -26q-9 -115 -9 -217v-432q0 -141 -11.5 -242.5t-35.5 -167t-51 -104.5t-67 -71q-69 -57 -136.5 -86t-175.5 -29q-57 0 -116.5 37.5t-59.5 99.5q0 40 37.5 81.5t65.5 41.5q17 0 33 -4.5t27 -9.5t25 -16t20 -17t19.5 -20t16.5 -17l9 -9l8.5 -8.5t7 -6.5t7.5 -5.5l8 -4 t10 -3t11 -0.5q43 0 70 46t27 102q0 69 -7.5 178.5t-7.5 165.5v487z" />
<glyph unicode="ft" horiz-adv-x="1409" d="M849 786h-368v-524q0 -86 13.5 -126.5t39 -53t84.5 -16.5q9 -9 9 -35t-9 -35q-176 4 -270 4q-119 0 -291 -4q-9 9 -9 35t9 35q52 2 78.5 8.5t46.5 27t26.5 56.5t6.5 100v528h-115q-33 0 -44 5t-11 16v35q0 13 48 30t97 17h25v26q0 83 12.5 146.5t39.5 112.5t52 79t68 72 q54 53 143 79t191 26q73 0 131 -15q42 -11 84 -35t73 -51.5t56 -55t38 -48t13 -27.5v-309h195q45 0 45 -21v-47q0 -35 -56 -35h-184v-526q0 -71 26 -104t64 -33q68 0 107 29q20 -16 28.5 -28t8.5 -30q-32 -45 -110 -79.5t-159 -34.5q-41 0 -89.5 14.5t-80.5 42.5 q-61 51 -61 178zM791 889q28 0 47.5 14.5t30 35t16 55t7 62.5t1.5 70q0 72 -71 144.5t-140 72.5q-16 0 -38 -8t-52 -33t-53.5 -62.5t-40.5 -106t-17 -154.5v-90h310z" />
<glyph unicode="Qu" horiz-adv-x="2721" d="M661 -130q40 7 63 7q201 0 336.5 -12.5t274.5 -57.5q338 -106 553 -106q77 0 189.5 35t212.5 92l34 -49q-100 -93 -247 -153t-301 -60q-344 0 -549 75q-178 65 -369 100t-267 35q-46 0 -72 -18q-22 -15 -54.5 -54t-58.5 -78q-47 47 -82 60q60 92 144.5 171t174.5 130 q-116 16 -218 68t-180 133t-123.5 196t-45.5 249q0 286 166 485q91 109 220 169.5t281 60.5q188 0 341.5 -82.5t245 -237.5t91.5 -354q0 -302 -176 -492q-139 -150 -354 -190q-52 -15 -125.5 -52t-111.5 -66zM719 1262q-147 0 -240.5 -145.5t-93.5 -442.5 q0 -281 113.5 -444.5t287.5 -163.5q153 0 239.5 153.5t86.5 411.5q0 301 -110.5 466t-282.5 165zM2540 272q0 -89 25 -120.5t108 -38.5q3 -10 5 -33t-1 -33q-166 -21 -340 -67q-44 0 -47 34q-5 38 -10 90q-92 -51 -189.5 -87.5t-151.5 -36.5q-262 0 -262 327v320 q0 64 -7.5 102.5t-26.5 58.5t-41.5 26.5t-61.5 8.5q-9 9 -9 35t9 35q176 -4 270 -4q43 0 117 4q21 -21 21 -70q0 -9 -2 -52t-2 -144v-342q0 -52 10 -84.5t32 -47t43.5 -18.5t57.5 -4q98 0 188 55q-2 42 -2 61v380q0 65 -6 102t-24.5 57t-40.5 26.5t-66 10.5q-9 9 -9 35t9 35 q160 -4 270 -4q43 0 117 4q21 -21 21 -70q0 -9 -2 -52t-2 -144v-355z" />
<glyph unicode="Th" horiz-adv-x="2326" d="M2134 262q0 -66 6.5 -102.5t26.5 -57.5t46.5 -27.5t78.5 -8.5q9 -9 9 -35t-9 -35q-176 4 -291 4q-78 0 -250 -4q-9 9 -9 35t9 35q47 3 69 15.5t35 54t13 126.5v342q0 81 -47 117.5t-117 36.5q-77 0 -168 -58v-440q0 -84 12.5 -125t34.5 -53.5t70 -15.5q9 -9 9 -35t-9 -35 q-176 4 -250 4q-98 0 -270 -4q-9 9 -9 35t9 35q43 2 66 8.5t41 27t24 57.5t6 101v893q0 22 -1 34t-6.5 23.5t-12.5 16t-24.5 8t-37 4t-55.5 0.5h-209q-53 0 -74 -52t-21 -157v-778q0 -52 5.5 -84t15.5 -52.5t34.5 -30.5t49.5 -13.5t74 -5.5q9 -9 9 -35t-9 -35q-204 4 -326 4 q-138 0 -338 -4q-9 9 -9 35t9 35q47 2 72.5 4t51.5 9t37.5 18t21.5 32.5t13 50t3 72.5v784q0 101 -21.5 152t-75.5 51h-100q-105 0 -167.5 -49t-92.5 -168q-55 0 -80 10q40 169 51 299q0 6 9 6q208 -16 477 -16h288h293q65 1 138 20.5t155.5 52.5t91.5 36q33 0 33 -27 q-6 -76 -6 -209v-412q224 127 315 127q136 0 209.5 -81t73.5 -246v-320z" />
<glyph unicode="Q&#xe065;" horiz-adv-x="2787" d="M719 1262q-147 0 -240.5 -145.5t-93.5 -442.5q0 -281 113.5 -444.5t287.5 -163.5q153 0 239.5 153.5t86.5 411.5q0 301 -110.5 466t-282.5 165zM1421 674q0 -302 -176 -492q-188 -202 -500 -202q-43 0 -64 2q-23 -13 -36 -52q284 -12 567 -102q293 -92 553 -92 q83 0 195 29t207 83l35 -49q-96 -90 -243.5 -144t-305.5 -54q-323 0 -533 77q-186 67 -363.5 109.5t-238.5 42.5q-20 0 -47.5 -8.5t-62.5 -37t-54 -71.5q-10 5 -40 24.5t-40 24.5q36 62 113 104.5t127 51.5l80 77q-108 23 -201 77.5t-164 134.5t-112 190t-41 236 q0 286 166 485q91 109 220 169.5t281 60.5q188 0 341.5 -82.5t245 -237.5t91.5 -354zM2464 680q0 65 -8 102.5t-31 58t-51 27t-80 9.5q-9 9 -9 34.5t9 34.5q176 -4 225 -4q19 0 59 0.5t90.5 2t67.5 1.5q9 -9 9 -34.5t-9 -34.5q-52 -3 -80 -9.5t-51 -27t-31 -58t-8 -102.5 v-266q0 -84 -9 -146t-34.5 -118.5t-68.5 -92t-113.5 -56.5t-167.5 -21q-74 0 -132 6t-122.5 27t-106.5 56t-70 98.5t-28 149.5v363q0 66 -6.5 103t-26.5 58t-46.5 27.5t-78.5 8.5q-9 9 -9 34.5t9 34.5q176 -4 291 -4q119 0 291 4q9 -9 9 -34.5t-9 -34.5q-52 -2 -78.5 -8.5 t-46.5 -27.5t-26.5 -58t-6.5 -103v-309q0 -140 55 -222.5t173 -82.5q58 0 101.5 12.5t71 37.5t45 53t25.5 70t10.5 76t2.5 82v283z" />
<glyph unicode="&#xe061;&#xe065;" horiz-adv-x="2469" d="M2167 680q0 65 -8 102.5t-31 58t-51 27t-80 9.5q-9 9 -9 34.5t9 34.5q176 -4 225 -4q19 0 59 0.5t90.5 2t67.5 1.5q9 -9 9 -34.5t-9 -34.5q-52 -3 -80 -9.5t-51 -27t-31 -58t-8 -102.5v-266q0 -84 -9 -146t-34.5 -118.5t-68.5 -92t-113.5 -56.5t-167.5 -21q-74 0 -132 6 t-122.5 27t-106.5 56t-70 98.5t-28 149.5v363q0 66 -6 102.5t-26 58t-47 28t-78 8.5q-9 9 -9 34.5t9 34.5q176 -4 290 -4q119 0 291 4q9 -9 9 -34.5t-9 -34.5q-52 -2 -78.5 -8.5t-46.5 -27.5t-26.5 -58t-6.5 -103v-309q0 -140 55 -222.5t173 -82.5q58 0 101.5 12.5t71 37.5 t45 53t25.5 70t10.5 76t2.5 82v283zM592 889q-119 0 -173 -92.5t-54 -317.5q0 -217 56 -317.5t187 -100.5q122 0 178 96.5t56 295.5q0 238 -52 337t-198 99zM776 1q-109 -62 -149 -118q89 1 189.5 -22t174.5 -54q54 -18 163.5 -44t195.5 -39q303 -47 528 90l51 -50 q-59 -46 -106 -76t-115.5 -62t-149 -46t-172.5 -10q-156 7 -281.5 28.5t-254.5 75.5q-13 5 -82 41t-131.5 59t-112.5 23q-20 0 -62 -33.5t-67 -74.5q-5 4 -22.5 22.5t-34 33.5t-25.5 19q34 44 82 75.5t92 39.5q64 62 128 101h-17q-106 0 -198 28t-165 84t-115 149.5 t-42 213.5q0 158 70 277t186.5 179t261.5 60q157 0 274.5 -52.5t187.5 -164.5t70 -273q0 -193 -94.5 -315t-257.5 -165z" />
<glyph unicode="&#xfb00;" horiz-adv-x="1466" d="M481 262q0 -66 6.5 -102.5t26.5 -57.5t46.5 -27.5t78.5 -8.5q9 -9 9 -35t-9 -35q-176 4 -291 4q-119 0 -291 -4q-9 9 -9 35t9 35q52 2 78.5 8.5t46.5 27t26.5 56.5t6.5 100v528h-115q-33 0 -44 5t-11 16v35q0 13 48 30t97 17h25v6q0 116 48 222t124 177q123 115 293 115 q118 0 199 -38t112 -89q7 9 25 29q55 60 133 89.5t156 29.5q77 0 134.5 -15.5t87.5 -40t44 -49t14 -47.5q0 -64 -32 -97.5t-85 -33.5q-54 0 -92.5 33t-52.5 84q-9 31 -13.5 44t-15.5 24t-28 11q-16 0 -31 -6.5t-33.5 -29t-32 -59t-23 -102.5t-9.5 -153v-104h206q27 0 34 -5 t7 -16v-47q0 -35 -71 -35h-176v-524q0 -66 6 -102.5t26.5 -57.5t46.5 -27.5t78 -8.5q9 -9 9 -35t-9 -35q-176 4 -290 4q-119 0 -291 -4q-9 9 -9 35t9 35q52 2 78.5 8.5t46.5 27t26 56.5t6 100v528h-18h-84h-287v-524zM896 1114q-42 2 -73 31t-47 72q-18 49 -51.5 77.5 t-62.5 28.5q-16 0 -36.5 -8t-46.5 -33t-47.5 -63t-36 -106.5t-14.5 -154.5v-69h385h4v41q0 101 26 184z" />
<glyph unicode="&#xfb01;" horiz-adv-x="1312" d="M481 262q0 -86 13.5 -126.5t39 -53t84.5 -16.5q9 -9 9 -35t-9 -35q-176 4 -270 4q-119 0 -291 -4q-9 9 -9 35t9 35q52 2 78.5 8.5t46.5 27t26.5 56.5t6.5 100v528h-115q-33 0 -44 5t-11 16v35q0 13 48 30t97 17h25v26q0 83 12.5 146.5t39.5 112.5t52 79t68 72 q108 105 313 105q165 0 283 -65q45 -25 73.5 -65.5t28.5 -70.5q0 -66 -37 -101.5t-94 -35.5q-53 0 -91.5 38.5t-59.5 94.5q-23 63 -56.5 90.5t-84.5 27.5q-16 0 -36 -8t-46.5 -33t-48 -63t-36 -106t-14.5 -154v-90h449q128 7 160 20q47 0 47 -35q-9 -114 -9 -216v-408 q0 -44 1.5 -72t9.5 -49.5t15.5 -31.5t28 -17t38.5 -9.5t55 -4.5q9 -9 9 -35t-9 -35q-176 4 -281 4q-88 0 -260 -4q-9 9 -9 35t9 35q27 3 39.5 4.5t29.5 6t24 12.5t15.5 20t11.5 32t5 46t2 63v393q0 82 -21 108.5t-92 34.5h-268v-524z" />
<glyph unicode="&#xfb02;" horiz-adv-x="1392" d="M481 262q0 -66 6.5 -102.5t26.5 -57.5t46.5 -27.5t78.5 -8.5q9 -9 9 -35t-9 -35q-176 4 -291 4q-119 0 -291 -4q-9 9 -9 35t9 35q52 2 78.5 8.5t46.5 27t26.5 56.5t6.5 100v528h-104q-33 0 -44.5 5t-11.5 16v35q0 13 48.5 30t97.5 17h14v6q0 116 48 222t124 177 q123 115 293 115q155 0 252 -68q56 16 139.5 50t99.5 39q33 0 33 -27q-6 -76 -6 -209v-934q0 -65 6.5 -101.5t26.5 -57t46.5 -27t78.5 -8.5q9 -9 9 -35t-9 -35q-176 4 -291 4q-119 0 -291 -4q-9 9 -9 35t9 35q52 2 78.5 8.5t46.5 27t26.5 57t6.5 101.5v858q-12 -4 -29 -4 q-45 0 -78 29t-49 74q-18 49 -51.5 77.5t-62.5 28.5q-16 0 -36.5 -8t-46.5 -33t-47.5 -63t-36 -106.5t-14.5 -154.5v-69h176q27 0 34 -5t7 -16v-47q0 -35 -71 -35h-146v-524z" />
<glyph unicode="&#xfb03;" horiz-adv-x="1939" d="M1116 262q0 -86 13.5 -126.5t39 -53t84.5 -16.5q9 -9 9 -35t-9 -35q-176 4 -270 4q-98 0 -270 -4q-9 9 -9 35t9 35q43 2 66 8.5t41 26.5t24 56.5t6 100.5v528h-94h-275v-524q0 -43 2.5 -73t10.5 -51t16 -32.5t27 -20t34 -11.5t47 -8q9 -9 9 -35t-9 -35q-176 4 -270 4 q-119 0 -291 -4q-9 9 -9 35t9 35q52 2 78.5 8.5t46.5 27t26.5 56.5t6.5 100v528h-115q-33 0 -44 5t-11 16v35q0 13 58 30t108 17h4v6q0 116 48 222t124 177q123 115 293 115q118 0 198.5 -37.5t112.5 -88.5q20 22 31 32q123 115 293 115q153 0 260.5 -59.5t107.5 -121.5 q0 -68 -33.5 -107.5t-88.5 -39.5q-54 0 -93 34.5t-59 88.5q-22 59 -53 88.5t-60 29.5q-16 0 -36 -8t-46.5 -33t-47.5 -63t-35.5 -106t-14.5 -154v-90h441q127 7 159 20q47 0 47 -35q-8 -114 -8 -216v-408q0 -44 1.5 -72t9.5 -49.5t15.5 -31.5t28 -17t38.5 -9.5t55 -4.5 q9 -9 9 -35t-9 -35q-176 4 -281 4q-88 0 -260 -4q-9 9 -9 35t9 35q27 3 39.5 4.5t29.5 6t24 12.5t15.5 20t11.5 32t5 46t2 63v393q0 86 -23.5 110.5t-109.5 32.5h-240v-524zM846 889h4v26q0 103 38 200q-78 10 -112 102q-18 49 -51.5 77.5t-62.5 28.5q-16 0 -36.5 -8 t-46.5 -33t-47.5 -63t-36 -106.5t-14.5 -154.5v-69h365z" />
<glyph horiz-adv-x="0" />
<glyph horiz-adv-x="682" />
<glyph unicode=" "  horiz-adv-x="512" />
<glyph unicode="&#x09;" horiz-adv-x="512" />
<glyph unicode="&#xa0;" horiz-adv-x="512" />
<glyph unicode="!" horiz-adv-x="544" d="M272 1348q62 0 105 -40t43 -114q0 -53 -29 -217q-58 -351 -61 -506q-2 -86 -58 -86q-37 0 -48 25.5t-13 85.5q-2 75 -20 228t-37 259q-2 9 -8 40t-8.5 44t-6 37.5t-5 45.5t-1.5 44q0 78 45 116t102 38zM123 119q0 60 44.5 102.5t106.5 42.5t105 -40.5t43 -100.5 q0 -58 -45 -100.5t-107 -42.5t-104.5 40.5t-42.5 98.5z" />
<glyph unicode="&#x22;" horiz-adv-x="770" d="M225 842l-30 8q-66 348 -66 360q0 40 36 75.5t97 35.5q31 0 50.5 -6t28 -18.5t11 -23.5t2.5 -28q0 -14 -19 -111.5t-37 -188.5l-19 -91zM514 842l-31 8q-65 348 -65 360q0 40 36 75.5t97 35.5q31 0 50.5 -6t28 -18.5t11 -23.5t2.5 -28q0 -14 -19 -111.5t-38 -188.5 l-19 -91z" />
<glyph unicode="#" d="M591 518l35 219h-193q-6 -38 -19.5 -109.5t-19.5 -109.5h197zM734 737l-35 -219h242l-16 -135h-244q-7 -41 -26.5 -163.5t-30.5 -190.5h-109l59 354h-196q-11 -57 -30.5 -174t-31.5 -180h-112l57 354h-203l19 135h205q31 197 34 219h-204l18 135h205q10 60 29.5 178 t29.5 177h115l-62 -355h199q10 60 28.5 178t28.5 177h107l-55 -355h239l-18 -135h-242z" />
<glyph unicode="$" d="M505 803l20 368q-67 -6 -109.5 -51.5t-42.5 -118.5q0 -94 132 -198zM568 443l-21 -379q75 9 122.5 51t47.5 104q0 112 -149 224zM866 1198q21 -194 21 -289q-14 -11 -44 -14t-50 4q-14 49 -26.5 83.5t-34 75t-53 67t-71.5 38.5l-23 -413l9 -5q2 -1 25.5 -13t30 -16 t29 -16t32.5 -18.5t30 -19t32.5 -22t29 -22t30 -25.5t25.5 -26q49 -54 73.5 -102t24.5 -115q0 -150 -129 -266q-111 -99 -284 -102l-9 -173q-17 -10 -84 -10l10 184q-106 3 -184.5 19t-119.5 16q-37 130 -37 314q65 17 94 6q25 -110 94.5 -182.5t156.5 -89.5l24 430 q-2 1 -53.5 30t-68 40t-55.5 37.5t-65 51t-47 52.5q-64 85 -64 215q0 67 33.5 130t89.5 107q53 42 127.5 65t143.5 25l9 163q27 10 84 10l-9 -175q69 -5 144.5 -25t108.5 -24z" />
<glyph unicode="%" horiz-adv-x="1304" d="M948 109q0 -68 41 -68q63 0 111 82q51 87 51 199q0 116 -80 116q-30 0 -56.5 -29.5t-41.5 -76.5q-25 -76 -25 -223zM758 186q0 84 34 157.5t102 121t155 47.5q188 0 188 -186q0 -155 -76 -260t-196 -105q-112 0 -160 62q-47 60 -47 163zM295 756q0 -68 41 -68 q62 0 110 82q52 89 52 199q0 116 -80 116q-30 0 -57 -29.5t-42 -76.5q-24 -73 -24 -223zM104 834q0 84 34 157t102 120.5t155 47.5q94 0 140 -45q49 -2 123 -26.5t87 -24.5q213 0 308 102l96 -43l-842 -1155l-110 25l749 1026q-114 -47 -221 -47q-71 0 -143 38q2 -22 2 -36 q0 -155 -76.5 -260t-196.5 -105q-111 0 -159 62q-48 61 -48 164z" />
<glyph unicode="&#x26;" horiz-adv-x="1492" d="M484 649q-86 -72 -114 -142.5t-28 -158.5q0 -118 56.5 -190t125.5 -72q80 0 140 25.5t125 95.5q-139 186 -305 442zM1232 664q-109 -184 -238 -344q23 -37 37.5 -59t41 -56t48 -53t51.5 -33.5t59 -14.5q86 0 164 95q14 0 25 -24.5t12 -49.5q-56 -74 -127.5 -109.5 t-145.5 -35.5q-98 0 -167 30t-140 125q-155 -155 -377 -155q-188 0 -291.5 73t-103.5 242q0 247 359 421q-73 103 -101.5 163t-28.5 127q0 131 84 223q49 54 129.5 86.5t177.5 32.5q132 0 212.5 -71.5t80.5 -156.5q0 -118 -83 -206t-224 -144l8 -10q15 -25 73.5 -109 t109.5 -155l51 -72q6 -9 15 -9.5t15 6.5q91 108 157 247q12 26 17 48.5t2.5 47t-25.5 40.5t-65 19q-9 9 -9 35t9 35q110 -4 207 -4q101 0 191 4q9 -9 9 -35t-9 -35q-74 -8 -120 -46.5t-90 -112.5zM528 1098q0 -45 29 -111t72 -129l10 -12q63 50 104 123t41 131 q0 67 -34 114.5t-86 47.5q-63 0 -99.5 -46t-36.5 -118z" />
<glyph unicode="'" horiz-adv-x="440" d="M201 842l-31 8q-66 348 -66 360q0 40 36.5 75.5t97.5 35.5q31 0 50.5 -6t28 -18.5t11 -23.5t2.5 -28q0 -14 -19 -111.5t-38 -188.5l-19 -91z" />
<glyph unicode="(" horiz-adv-x="645" d="M74 518q0 268 133.5 521t345.5 436l57 -70q-301 -355 -301 -887q0 -153 26 -293.5t59.5 -231.5t82 -175.5t75.5 -119t58 -69.5l-61 -65q-95 82 -172 174.5t-125.5 173t-84.5 168t-53 150.5t-27 129.5t-11.5 97t-1.5 61.5z" />
<glyph unicode=")" horiz-adv-x="645" d="M571 514q0 -268 -133 -520.5t-346 -435.5l-57 69q301 355 301 887q0 153 -26 293.5t-59.5 231.5t-82 175.5t-75.5 119t-58 69.5l61 65q95 -82 172 -174.5t125.5 -173t84.5 -168t53 -150.5t27 -129.5t11.5 -97t1.5 -61.5z" />
<glyph unicode="*" horiz-adv-x="886" d="M403 1159q-8 1 -27 5t-27.5 5t-29.5 0q-47 -7 -83.5 -8t-59 19.5t-22.5 64.5q0 26 16.5 46t50.5 20q30 0 58.5 -17.5t65 -46t71.5 -43.5q-4 43 -33 102.5t-29 84.5q0 31 24.5 55t53.5 24q31 0 56.5 -18.5t25.5 -52.5q0 -28 -24.5 -96.5t-26.5 -98.5q30 13 57.5 33.5 t43 37t37 28.5t44.5 12q41 0 60.5 -24t19.5 -46q0 -43 -40 -62.5t-101 -19.5q-74 0 -111 -6q25 -27 73 -52t74.5 -50.5t26.5 -71.5q0 -26 -20.5 -42.5t-44.5 -16.5q-45 0 -68.5 31.5t-42 90t-35.5 84.5q-13 -23 -22.5 -56t-15.5 -57t-16.5 -46.5t-32.5 -34.5t-56 -12 q-26 0 -43 16.5t-17 40.5q0 31 11 53t30 35.5t39.5 24.5t46 27.5t43.5 37.5z" />
<glyph unicode="+" horiz-adv-x="1099" d="M627 551h350v-152h-350v-333h-152v333h-350v152h350v336h152v-336z" />
<glyph unicode="," horiz-adv-x="499" d="M229 260q84 0 131.5 -64t47.5 -188q0 -52 -33 -118t-78 -111q-44 -44 -105.5 -77.5t-117.5 -43.5q-33 21 -15 63q65 18 131 98.5t66 125.5q0 48 -74 67q-30 8 -56 44.5t-26 74.5q0 36 45 82.5t84 46.5z" />
<glyph unicode="-" horiz-adv-x="733" d="M559 440h-405q-35 0 -55.5 12.5t-20.5 30.5q0 29 32 74t62 45h410q73 0 73 -43q0 -25 -32 -72t-64 -47z" />
<glyph unicode="." horiz-adv-x="499" d="M100 119q0 60 45 102.5t107 42.5t104.5 -40.5t42.5 -100.5q0 -58 -44.5 -100.5t-106.5 -42.5t-105 40.5t-43 98.5z" />
<glyph unicode="/" horiz-adv-x="647" d="M618 1397l-485 -1440h-129l485 1440h129z" />
<glyph unicode="0" d="M532 1163q-28 0 -50.5 -11.5t-47 -48t-41.5 -97.5t-28 -167.5t-11 -250.5q0 -45 0.5 -73t2.5 -81t6.5 -88.5t12 -82.5t20.5 -78.5t30 -60.5t42 -43.5t56 -14.5q34 0 63 26.5t55.5 89.5t42 187.5t15.5 300.5q0 130 -15 229t-40 154.5t-53.5 82.5t-59.5 27zM522 -20 q-109 0 -197.5 51t-145.5 138t-87.5 200.5t-30.5 240.5q0 298 133 468.5t338 170.5q66 0 127.5 -17.5t123 -62t106.5 -113t73.5 -178.5t28.5 -249q0 -140 -29.5 -253.5t-77 -186t-110 -121t-125.5 -68.5t-127 -20z" />
<glyph unicode="1" d="M752 250q0 -49 12 -83.5t28.5 -53t48.5 -29t55.5 -13.5t66.5 -5q15 -9 15 -35t-15 -35q-336 4 -342 4l-347 -4q-15 9 -15 35t15 35q43 2 66.5 5t55.5 13.5t48.5 29t28.5 53t12 83.5v641q0 72 -8.5 91t-30.5 19q-93 0 -213 -51q-42 29 -45 88q63 26 217.5 87.5t225.5 93.5 q61 30 102 30q35 0 35 -35q-16 -116 -16 -225v-739z" />
<glyph unicode="2" d="M102 930q0 39 16.5 82t52.5 85.5t86 76t123 54.5t157 21q189 0 303 -109q88 -84 88 -220q0 -32 -2.5 -58t-11.5 -52.5t-15.5 -44.5t-27 -44.5t-32.5 -41.5t-45 -47t-51.5 -49t-66 -60t-74.5 -68l-120 -111q-86 -79 -95 -182h266q70 0 117 45.5t80 148.5q47 0 92 -20 q-27 -223 -63 -336h-791l-8 66q5 45 60.5 114t234.5 240l174 166q75 71 96 140.5t21 186.5q0 111 -54 181q-56 71 -123 71q-68 0 -119 -50t-51 -91q0 -23 13 -53q10 -30 10 -43q0 -46 -36.5 -77.5t-82.5 -31.5q-53 0 -87 35t-34 76z" />
<glyph unicode="3" d="M508 1163q-33 0 -55 -3.5t-50 -15t-46.5 -40t-26.5 -72.5q-10 -56 -37 -84t-90 -28q-78 0 -78 75q0 26 13.5 61t43.5 62q32 29 56.5 46.5t68.5 40t104 33.5t136 11q81 0 143 -15.5t96.5 -38.5t56.5 -54.5t29 -59.5t7 -59q0 -102 -87 -199q-45 -50 -104 -80 q125 -9 196.5 -91t71.5 -197q0 -159 -104 -285q-74 -89 -186 -139.5t-222 -50.5q-156 0 -282 63q-68 35 -68 96q0 30 28.5 59t72.5 29q35 0 63.5 -14t41 -26.5t28.5 -34.5q19 -24 33.5 -39t46.5 -31t69 -16q26 0 52 6.5t56.5 26.5t53 50t38 83t15.5 120q0 71 -17 123t-42 81 t-61.5 46t-67.5 22t-68 5t-98 -17q-16 19 -16 60q0 14 2 22q143 32 228 120t85 204q0 145 -129 145z" />
<glyph unicode="4" d="M535 1026q-104 -140 -377 -598h377v598zM989 428q31 0 31 -33q0 -20 -19 -41.5t-40 -21.5h-173v-82q0 -36 5 -63.5t12.5 -46.5t22.5 -32t28 -20.5t36.5 -12t40 -6t46.5 -3.5q15 -9 15 -35t-15 -35q-65 1 -132.5 2t-107 1.5t-75.5 0.5l-320 -4q-15 9 -15 35t15 35 q30 2 46.5 3.5t40 6t36.5 12t28 20.5t22.5 32t12.5 46.5t5 63.5v82h-363q-54 0 -68 14l-30 37q-5 9 -12.5 20t-12 17.5t-4.5 9.5q0 7 14 27q41 62 131 199.5t149 226t134.5 195t130.5 171.5h184v-821h201z" />
<glyph unicode="5" d="M662 385q0 148 -47.5 227.5t-122.5 79.5q-72 0 -119 -12t-170 -57l-26 16l81 610q37 -3 127.5 -11.5t138.5 -8.5q44 0 88 2.5t73 5t89 8.5t98 10l48 -26l-39 -176q-203 -13 -236 -13q-176 0 -297 11q-12 -64 -39 -271q37 9 116 18t126 9q178 0 283.5 -100.5t105.5 -257.5 q0 -92 -32.5 -177t-90.5 -150t-143.5 -103.5t-184.5 -38.5q-194 0 -301 57q-38 20 -60 50t-22 58q0 38 27 67.5t78 29.5q101 0 154 -80q60 -92 112 -92q86 0 135.5 83t49.5 232z" />
<glyph unicode="6" d="M350 592q-2 -23 -2 -96q0 -103 13 -182t33 -126t49.5 -77t58 -41t61.5 -11q60 0 99.5 82.5t39.5 239.5q0 98 -57.5 181t-142.5 83q-65 0 -152 -53zM922 1165q-242 -12 -379 -123q-72 -59 -121.5 -157t-60.5 -208q112 59 210 71q95 -2 170 -28t118 -62.5t71 -82.5 t37.5 -84.5t9.5 -72.5q0 -57 -14.5 -115.5t-48.5 -117t-83 -103.5t-124.5 -73.5t-167.5 -28.5q-68 0 -126.5 12t-120 47t-104.5 91t-70.5 152t-27.5 222q0 158 55 304.5t166 242.5q119 102 251.5 146.5t346.5 51.5q11 -14 14.5 -40t-1.5 -44z" />
<glyph unicode="7" d="M377 1020q-30 0 -51.5 -5t-47 -22t-46.5 -54.5t-37 -96.5l-72 6q38 251 41 403q0 6 8 6q5 -1 37 -14.5t74 -13.5h686l12 -19q-76 -160 -137 -295.5t-122 -282.5t-85.5 -207t-91.5 -233t-76 -196l-209 -21l-12 25q319 589 528 1020h-399z" />
<glyph unicode="8" d="M532 1178q-47 0 -78 -13.5t-45 -40t-19 -54.5t-5 -69q0 -126 119 -188l102 -53q80 50 80 221q0 30 -2 53t-11 52t-25 47.5t-45.5 31.5t-70.5 13zM924 977q0 -94 -67 -166t-163 -100l115 -68q86 -51 130 -132.5t44 -176.5q0 -61 -29.5 -122t-85.5 -114t-149 -85.5 t-207 -32.5q-201 0 -321.5 83t-120.5 238q0 113 74 194.5t229 157.5l-43 23q-111 58 -154 117.5t-43 148.5q0 62 24.5 116t73 97.5t130 68.5t186.5 25q191 0 284 -75.5t93 -196.5zM516 61q30 0 56.5 5t56 20t51 40t35.5 67.5t14 99.5q0 86 -30.5 143t-131.5 111l-110 59 q-39 -27 -66 -62t-40 -64t-20 -67t-8 -57t-1 -48v-7q0 -240 194 -240z" />
<glyph unicode="9" d="M719 637q2 23 2 96q0 103 -13 181.5t-33 126t-49.5 77t-58 40.5t-61.5 11q-60 0 -99.5 -82t-39.5 -239q0 -98 57.5 -181t142.5 -83q65 0 152 53zM147 63q242 12 379 123q72 59 121.5 157.5t60.5 208.5q-112 -59 -210 -71q-95 2 -170 28t-118 62.5t-71 82.5t-37.5 84.5 t-9.5 72.5q0 57 14.5 115.5t48.5 117t83 103.5t124.5 73.5t167.5 28.5q68 0 126.5 -12t120 -47t104.5 -91t70.5 -152t27.5 -222q0 -158 -55 -304.5t-166 -242.5q-119 -102 -251.5 -146.5t-346.5 -51.5q-25 32 -13 83z" />
<glyph unicode=":" horiz-adv-x="524" d="M123 743q0 60 44.5 103t106.5 43t105 -40.5t43 -100.5q0 -58 -45 -101t-107 -43t-104.5 40.5t-42.5 98.5zM123 139q0 60 44.5 103t106.5 43t105 -41t43 -101q0 -58 -45 -100.5t-107 -42.5t-104.5 40.5t-42.5 98.5z" />
<glyph unicode=";" horiz-adv-x="524" d="M123 743q0 60 44.5 103t106.5 43t105 -40.5t43 -100.5q0 -58 -45 -101t-107 -43t-104.5 40.5t-42.5 98.5zM252 260q84 0 131 -64t47 -188q0 -52 -33 -118t-78 -111q-44 -44 -105.5 -77.5t-117.5 -43.5q-32 21 -14 63q65 18 131 98.5t66 125.5q0 48 -74 67q-30 8 -56 44.5 t-26 74.5q0 36 45 82.5t84 46.5z" />
<glyph unicode="&#x3c;" horiz-adv-x="1048" d="M313 492l652 -238v-127l-879 319v91l879 319v-127z" />
<glyph unicode="=" horiz-adv-x="1128" d="M1010 406v-115h-889v115h889zM1010 662v-117h-889v117h889z" />
<glyph unicode="&#x3e;" horiz-adv-x="1048" d="M735 487l-649 238v127l879 -322v-90l-879 -317v127z" />
<glyph unicode="?" horiz-adv-x="880" d="M260 1167q0 -20 9.5 -50.5t9.5 -59.5q0 -38 -31 -61t-78 -23q-42 0 -79.5 32.5t-37.5 86.5q0 51 26 90.5t83 85.5q96 80 280 80q174 0 276.5 -86t102.5 -228q0 -37 -9 -70.5t-29.5 -64.5t-37.5 -53t-51 -51t-50 -41.5t-54 -40.5q-28 -20 -45.5 -36t-39.5 -45t-33 -70 t-11 -93v-27q0 -40 -13 -54.5t-55 -14.5q-38 0 -51.5 16.5t-13.5 52.5v31q0 44 3 71.5t15 74.5t44 94t83 94q113 99 113 242q0 97 -41.5 161t-122.5 64q-67 0 -114.5 -32t-47.5 -75zM248 119q0 60 44.5 102.5t106.5 42.5t105 -40.5t43 -100.5q0 -58 -45 -100.5t-107 -42.5 t-104.5 40.5t-42.5 98.5z" />
<glyph unicode="@" horiz-adv-x="2023" d="M1200 655q0 62 -12 93.5t-47 31.5q-94 0 -166 -78q-127 -135 -127 -366q0 -189 115 -189q101 0 178 248q59 201 59 260zM1311 164q0 -19 8.5 -24t28.5 -5q25 0 60.5 15t78 49.5t78.5 82t60 120.5t24 157q0 130 -41.5 239.5t-106.5 181t-148 122t-164.5 72.5t-156.5 22 q-96 0 -189.5 -30t-177 -91t-147 -146.5t-100.5 -204.5t-37 -257q0 -95 22.5 -191t75.5 -191.5t130 -168.5t195.5 -118.5t262.5 -45.5q242 0 430 154l43 -60q-75 -57 -136.5 -91t-158.5 -58.5t-217 -24.5q-241 0 -432 97t-299.5 275.5t-108.5 408.5q0 159 63 307 t173.5 261.5t274 182t352.5 68.5q170 0 315 -52.5t245 -144t156 -217.5t56 -270q0 -141 -71.5 -265.5t-191 -199t-253.5 -74.5q-127 0 -160 31q-41 38 -41 96q-47 -59 -110.5 -91t-106.5 -32q-134 0 -201 58q-80 69 -80 213q0 95 49.5 192t125.5 169.5t170.5 118.5t181.5 46 q129 0 192 -78l76 68l55 -23l-121 -518q-26 -115 -26 -135z" />
<glyph unicode="A" horiz-adv-x="1515" d="M559 580h311l-167 485h-14l-182 -458q-6 -15 6 -21t46 -6zM338 162q-6 -15 -7 -28t4.5 -22t12 -16t20 -11.5l24 -8t28.5 -5.5t29 -3t30 -2q9 -9 9 -35t-9 -35q-152 4 -272 4q-41 0 -193 -4q-9 9 -9 35t9 35q40 3 63.5 7.5t51.5 18.5t49.5 42.5t40.5 74.5l444 1048 q69 0 226 91l422 -1172q12 -35 29.5 -57t42 -32t45 -13.5t52.5 -6.5q10 -1 15 -1q9 -9 9 -35t-9 -35q-152 4 -274 4q-199 0 -351 -4q-9 9 -9 35t9 35q13 1 31.5 2t30 1.5t27 2t24.5 3.5t19 6t15 9.5t8.5 13t2.5 18.5t-6 25l-115 334h-389q-36 0 -50 -7t-22 -28z" />
<glyph unicode="B" horiz-adv-x="1339" d="M496 1151v-381h114q238 0 238 231q0 238 -209 238q-49 0 -78.5 -5t-43 -17.5t-17.5 -26.5t-4 -39zM496 684v-512q0 -50 24.5 -70t110.5 -20q77 0 135.5 20t91.5 50t53 72.5t26.5 79.5t6.5 79q0 138 -75.5 219.5t-227.5 81.5h-145zM354 1321q28 0 131.5 2t159.5 2 q119 0 209 -20t142.5 -51t84.5 -75t43 -85t11 -88q0 -78 -56.5 -154t-140.5 -113v-4q160 -42 233.5 -129t73.5 -225q0 -82 -28.5 -149t-90.5 -121.5t-173 -84.5t-263 -30q-67 0 -183.5 2t-152.5 2l-315 -4q-15 9 -15 35t15 35q34 2 52.5 4t41.5 8.5t34 18t22.5 31.5t15.5 50 t4 72v821q0 42 -4 72t-15.5 50t-22.5 31.5t-34 18t-41.5 8.5t-52.5 4q-15 9 -15 35t15 35q233 -4 315 -4z" />
<glyph unicode="C" horiz-adv-x="1445" d="M813 -20q-309 0 -489 129q-118 85 -183 234.5t-65 301.5q0 165 59 299.5t160.5 222t235 134.5t284.5 47q110 0 198 -21t151 -44.5t100 -27.5q37 -232 45 -317q-18 -9 -43.5 -12.5t-44.5 2.5q-18 58 -38 103t-54.5 90.5t-78 75.5t-109.5 48.5t-148 18.5q-119 0 -213 -78.5 t-144.5 -210.5t-50.5 -291q0 -158 56 -295.5t155 -220t215 -82.5q262 0 455 213q16 0 37.5 -14.5t29.5 -28.5q-104 -136 -237 -206t-283 -70z" />
<glyph unicode="D" horiz-adv-x="1503" d="M520 244q0 -99 42.5 -130.5t154.5 -31.5q49 0 99.5 15.5t101.5 53.5t90 93.5t63.5 143t24.5 194.5q0 74 -3.5 134t-15 130t-31 124t-53.5 106t-80.5 86t-114 54.5t-151.5 20.5q-127 0 -127 -154v-839zM379 0l-316 -4q-15 9 -15 35t15 35q34 2 52.5 4t41.5 8.5t34 18 t22.5 31.5t15.5 50t4 72v821q0 42 -4 72t-15.5 50t-22.5 31.5t-34 18t-41.5 8.5t-52.5 4q-15 9 -15 35t15 35q234 -4 316 -4q38 0 128 1t148 1q148 0 271 -35.5t211 -98.5t149 -149.5t90 -189t29 -217.5q0 -153 -45.5 -276t-120.5 -189q-102 -89 -241.5 -130.5t-286.5 -41.5 q-41 0 -166 2t-166 2z" />
<glyph unicode="E" horiz-adv-x="1247" d="M662 748q107 0 144.5 24.5t41.5 106.5q9 9 44 9t44 -9q-4 -122 -4 -177q0 -36 4 -180q-9 -9 -44 -9t-44 9q-5 72 -44 101.5t-142 29.5h-166v-469q0 -41 25 -69.5t59 -28.5h206q111 0 183.5 71.5t105.5 190.5q20 5 48 2t44 -12q-5 -30 -14 -105t-18.5 -133t-22.5 -104 q-185 4 -283 4h-481q-217 -2 -317 -4q-9 9 -9 35t9 35q42 2 63.5 4t45.5 8.5t34 17.5t20 32t12.5 49.5t2.5 72.5v819q0 65 -6.5 100t-30 54.5t-52 24t-89.5 7.5q-9 9 -9 35t9 35l315 -4h604q54 0 101 8q8 0 8 -6q2 -6 5.5 -62t9 -127.5t9.5 -107.5q-36 -18 -88 -10 q-19 59 -35.5 94.5t-43.5 66.5t-66 44.5t-96 13.5h-174q-35 0 -59.5 -31t-24.5 -69v-387h166z" />
<glyph unicode="F" horiz-adv-x="1116" d="M496 250q0 -50 10 -84t23.5 -52.5t42 -29t50.5 -13.5t64 -5q15 -9 15 -35t-15 -35q-164 4 -332 4q-151 0 -315 -4q-15 9 -15 35t15 35q34 2 52.5 4t41.5 8.5t34 18t22.5 31.5t15.5 50t4 72v819q0 65 -6.5 100t-30 54.5t-52 24t-89.5 7.5q-9 9 -9 35t9 35l315 -4h608 q54 0 101 8q7 0 8 -6q5 -30 24 -307q-32 -16 -71 -10q-19 58 -37.5 96t-47 70.5t-70 47.5t-97.5 15h-184q-35 0 -59.5 -31t-24.5 -69v-428h166q107 0 144.5 24.5t41.5 106.5q9 9 44 9t44 -9q-4 -79 -4 -176q0 -109 4 -181q-9 -9 -44 -9t-44 9q-5 72 -44 101.5t-142 29.5 h-166v-362z" />
<glyph unicode="G" horiz-adv-x="1499" d="M809 1348q110 0 204.5 -18t160 -36t106.5 -18q23 -240 43 -336q-38 -18 -90 -12q-20 69 -56 127t-90 105.5t-132.5 74.5t-174.5 27q-189 0 -301 -152q-102 -140 -102 -440q0 -85 14 -166.5t48 -162.5t84.5 -141t130.5 -97t180 -37q78 0 123.5 18t95.5 68v305 q0 57 -34.5 74t-125.5 24q-9 9 -9 38t9 38q184 -4 303 -4q117 0 231 4q9 -9 9 -38t-9 -38q-46 -5 -67 -26t-21 -72v-240q0 -29 31 -57q-98 -83 -254 -131.5t-328 -48.5q-165 0 -287.5 36.5t-217.5 118.5q-103 87 -159 219.5t-56 274.5q0 164 56.5 299.5t160.5 228.5 q212 191 524 191z" />
<glyph unicode="H" horiz-adv-x="1673" d="M1155 1071q0 42 -4 72t-15.5 50t-22.5 31.5t-34 18t-41.5 8.5t-52.5 4q-15 9 -15 35t15 35q164 -4 315 -4q148 0 312 4q15 -9 15 -35t-15 -35q-34 -2 -52.5 -4t-41.5 -8.5t-34 -18t-22.5 -31.5t-15.5 -50t-4 -72v-821q0 -42 4 -72t15.5 -50t22.5 -31.5t34 -18t41.5 -8.5 t52.5 -4q15 -9 15 -35t-15 -35q-164 4 -312 4q-151 0 -315 -4q-15 9 -15 35t15 35q34 2 52.5 4t41.5 8.5t34 18t22.5 31.5t15.5 50t4 72v403h-635v-403q0 -42 4 -72t15.5 -50t22.5 -31.5t34 -18t41.5 -8.5t52.5 -4q15 -9 15 -35t-15 -35q-164 4 -311 4q-152 0 -316 -4 q-15 9 -15 35t15 35q34 2 52.5 4t41.5 8.5t34 18t22.5 31.5t15.5 50t4 72v821q0 42 -4 72t-15.5 50t-22.5 31.5t-34 18t-41.5 8.5t-52.5 4q-15 9 -15 35t15 35q164 -4 316 -4q147 0 311 4q15 -9 15 -35t-15 -35q-34 -2 -52.5 -4t-41.5 -8.5t-34 -18t-22.5 -31.5t-15.5 -50 t-4 -72v-319h635v319z" />
<glyph unicode="I" horiz-adv-x="751" d="M233 1071q0 42 -4 72t-15.5 50t-22.5 31.5t-34 18t-41.5 8.5t-52.5 4q-15 9 -15 35t15 35q164 -4 316 -4q147 0 311 4q15 -9 15 -35t-15 -35q-34 -2 -52.5 -4t-41.5 -8.5t-34 -18t-22.5 -31.5t-15.5 -50t-4 -72v-821q0 -42 4 -72t15.5 -50t22.5 -31.5t34 -18t41.5 -8.5 t52.5 -4q15 -9 15 -35t-15 -35q-164 4 -311 4q-152 0 -316 -4q-15 9 -15 35t15 35q34 2 52.5 4t41.5 8.5t34 18t22.5 31.5t15.5 50t4 72v821z" />
<glyph unicode="J" horiz-adv-x="763" d="M575 1069v-858q0 -84 -14 -155t-32.5 -116.5t-50.5 -88.5t-54 -64t-57 -51q-139 -119 -310 -119q-34 0 -78.5 15.5t-83 50.5t-38.5 79q0 41 43 78t75 37q29 0 50 -10.5t30 -21.5t21 -32t18 -28q35 -47 94 -47q23 0 38 5.5t27 24t18.5 45.5t11 78.5t5.5 114t1 160.5v903 q0 44 -3 72.5t-13 50t-21.5 32.5t-37.5 18t-51.5 9t-72.5 4q-9 9 -9 35t9 35q204 -4 340 -4q103 0 303 4q9 -9 9 -35t-9 -35q-53 -3 -78 -8t-46 -23.5t-27.5 -54t-6.5 -100.5z" />
<glyph unicode="K" horiz-adv-x="1507" d="M221 1071q0 42 -4 72t-15.5 50t-22.5 31.5t-34 18t-41.5 8.5t-52.5 4q-15 9 -15 35t15 35q164 -4 316 -4q147 0 311 4q15 -9 15 -35t-15 -35q-34 -2 -52.5 -4t-41.5 -8.5t-34 -18t-22.5 -31.5t-15.5 -50t-4 -72v-371q51 16 104 53.5t154 127.5q155 129 219 194 q161 164 -10 180q-9 9 -9 35t9 35q154 -4 252 -4q92 0 194 4q9 -9 9 -35t-9 -35q-44 -6 -88 -25t-93 -54.5t-83.5 -64t-91.5 -79.5l-223 -198q-25 -23 -25 -60q0 -18 62 -92l448 -530q36 -43 72.5 -61t87.5 -25q9 -9 9 -35t-9 -35q-160 4 -242 4q-129 0 -211 -4q-8 0 -10 12 q-7 57 -74 144l-309 403q-34 44 -61.5 65t-71.5 32v-402q0 -42 4 -72t15.5 -50t22.5 -31.5t34 -18t41.5 -8.5t52.5 -4q15 -9 15 -35t-15 -35q-164 4 -311 4q-152 0 -316 -4q-15 9 -15 35t15 35q34 2 52.5 4t41.5 8.5t34 18t22.5 31.5t15.5 50t4 72v821z" />
<glyph unicode="L" horiz-adv-x="1181" d="M715 86q78 0 136 19.5t95.5 57t60.5 81.5t40 104q52 8 88 -10q-18 -158 -54 -342q-186 4 -245 4h-458l-315 -4q-15 9 -15 35t15 35q34 2 52.5 4t41.5 8.5t34 18t22.5 31.5t15.5 50t4 72v821q0 42 -4 72t-15.5 50t-22.5 31.5t-34 18t-41.5 8.5t-52.5 4q-15 9 -15 35t15 35 q234 -4 316 -4q36 0 74.5 0.5t104.5 1.5l132 2q15 -9 15 -35t-15 -35q-34 -2 -52.5 -4t-41.5 -8.5t-34 -18t-22.5 -31.5t-15.5 -50t-4 -72v-823q0 -162 72 -162h123z" />
<glyph unicode="M" horiz-adv-x="1841" d="M1357 238l-52 856h-5l-460 -1084q-11 -26 -39 -26q-10 0 -23.5 7.5t-17.5 18.5l-403 1010h-8l-54 -768q-5 -43 -2.5 -76t15.5 -56t42.5 -36.5t79.5 -17.5q9 -9 9 -35t-9 -35q-122 4 -233 4q-55 0 -177 -4q-9 9 -9 35t9 35q84 7 114.5 46t39.5 136l82 844q4 42 5.5 65 t-4.5 43.5t-11.5 28t-27.5 14.5t-40 8.5t-61 3.5q-9 9 -9 35t9 35l420 -4l366 -909h10l390 909l411 4q9 -9 9 -35t-9 -35q-54 -3 -82 -10.5t-44 -23.5t-16.5 -42.5t1.5 -68.5l62 -862q3 -49 5.5 -73t10 -48t14.5 -32t27.5 -16t40 -9.5t59.5 -3.5q9 -9 9 -35t-9 -35 q-136 4 -223 4q-150 0 -342 -4q-9 9 -9 35t9 35q31 1 44.5 2t33 4.5t25.5 6.5t15.5 13t10.5 19.5t3 30.5t1 41t-3 55z" />
<glyph unicode="N" horiz-adv-x="1515" d="M1292 0q-30 -15 -54 -20t-75 -5q-42 40 -82 91l-686 815q-35 41 -49 41q-16 0 -16 -41v-609q0 -48 2.5 -79t12.5 -54t19.5 -34.5t34.5 -20t45.5 -11.5t63.5 -7q9 -9 9 -35t-9 -35q-204 4 -229 4q-30 0 -230 -4q-9 9 -9 35t9 35q42 4 63.5 7.5t45.5 12t34 20.5t20 35 t12.5 53.5t2.5 77.5v854q-10 45 -55 85t-106 44q-9 9 -9 35t9 35l333 -4l183 -215l543 -640q15 -18 27 -25t20 0t8 32v576q0 36 -1.5 62t-7 47t-10 34.5t-17.5 24t-23 16t-32 10.5t-38.5 7t-49.5 5q-9 9 -9 35t9 35q204 -4 238 -4q21 0 221 4q9 -9 9 -35t-9 -35 q-42 -4 -63.5 -7.5t-45.5 -12t-34 -20.5t-20 -35t-12.5 -53.5t-2.5 -77.5v-840z" />
<glyph unicode="O" horiz-adv-x="1495" d="M719 1262q-147 0 -240.5 -145.5t-93.5 -442.5q0 -281 113.5 -444.5t287.5 -163.5q153 0 239.5 153.5t86.5 411.5q0 301 -110.5 466t-282.5 165zM1421 674q0 -302 -176 -492q-188 -202 -500 -202q-131 0 -251.5 45.5t-213.5 128t-148.5 207t-55.5 272.5q0 286 166 485 q91 109 220 169.5t281 60.5q188 0 341.5 -82.5t245 -237.5t91.5 -354z" />
<glyph unicode="P" horiz-adv-x="1257" d="M709 1339q229 0 342 -67q86 -51 121.5 -128t35.5 -153q0 -92 -33 -179t-104 -146q-119 -99 -389 -99q-28 0 -72 6q-41 25 -41 86q43 -6 103 -6q124 0 175.5 70.5t51.5 232.5q0 299 -256 299q-79 0 -101 -36.5t-22 -145.5v-823q0 -42 4 -72t15.5 -50t22.5 -31.5t34 -18 t41.5 -8.5t52.5 -4q15 -9 15 -35t-15 -35q-164 4 -311 4q-152 0 -316 -4q-15 9 -15 35t15 35q34 2 52.5 4t41.5 8.5t34 18t22.5 31.5t15.5 50t4 72v821q0 42 -4 72t-15.5 50t-22.5 31.5t-34 18t-41.5 8.5t-52.5 4q-15 9 -15 35t15 35q41 0 323 7t323 7z" />
<glyph unicode="Q" horiz-adv-x="1495" d="M719 1262q-147 0 -240.5 -145.5t-93.5 -442.5q0 -281 113.5 -444.5t287.5 -163.5q153 0 239.5 153.5t86.5 411.5q0 301 -110.5 466t-282.5 165zM1421 674q0 -302 -176 -492q-139 -150 -354 -190q-105 -28 -231 -115h12q75 0 155.5 -29.5t137 -64.5t127.5 -64.5t131 -29.5 q49 0 98 18.5t80 56.5l35 -45q-65 -93 -134 -140.5t-161 -47.5q-74 0 -144 22t-124 53.5t-105 63.5t-106 54t-107 22q-35 0 -75 -28q-41 -46 -74 -93l-80 62q18 29 35 47q124 149 311 249q-120 12 -227.5 62.5t-189.5 132.5t-130.5 200t-48.5 255q0 286 166 485 q91 109 220 169.5t281 60.5q188 0 341.5 -82.5t245 -237.5t91.5 -354z" />
<glyph unicode="R" horiz-adv-x="1466" d="M932 956q0 299 -256 299q-84 0 -120 -40t-36 -142v-407h88q57 0 100.5 6t87.5 24t72 49t46 84.5t18 126.5zM741 1339q229 0 342 -67q86 -51 122 -128t36 -153q0 -60 -18 -113t-45 -91t-64.5 -70t-71.5 -51.5t-71 -34.5l278 -430q47 -71 89.5 -103t107.5 -32 q6 -12 6.5 -36t-4.5 -34q-32 -16 -209 -16q-84 0 -149 50t-121 132l-240 356q-16 27 -32 38t-56 17.5t-121 6.5v-330q0 -42 4 -72t15.5 -50t22.5 -31.5t34 -18t41.5 -8.5t52.5 -4q15 -9 15 -35t-15 -35q-164 4 -311 4q-152 0 -316 -4q-15 9 -15 35t15 35q34 2 52.5 4 t41.5 8.5t34 18t22.5 31.5t15.5 50t4 72v821q0 42 -4 72t-15.5 50t-22.5 31.5t-34 18t-41.5 8.5t-52.5 4q-15 9 -15 35t15 35q41 0 339 7t339 7z" />
<glyph unicode="S" horiz-adv-x="1032" d="M862 1292q23 -196 23 -311q-16 -13 -49 -15t-54 5q-13 48 -25.5 83t-35 77.5t-49 69t-67.5 45t-91 18.5q-79 0 -126.5 -49.5t-47.5 -135.5q0 -41 23.5 -84t60.5 -77t72.5 -59.5t70.5 -43.5q188 -96 275 -192q51 -57 78.5 -114.5t27.5 -131.5q0 -162 -139 -286 q-123 -111 -309 -111q-123 0 -198.5 10t-119.5 20t-88 10q-39 129 -39 338q72 18 103 7q30 -135 121.5 -217t197.5 -82q94 0 153.5 47t59.5 123q0 78 -50 140t-136 122q-22 16 -101.5 61t-144 92.5t-106.5 104.5q-33 44 -50.5 109.5t-17.5 127.5q0 72 37 140t96 116 q60 49 141.5 74t157.5 25q84 0 143 -10t111.5 -25t91.5 -21z" />
<glyph unicode="T" horiz-adv-x="1335" d="M829 252q0 -44 3 -72.5t13 -50t21.5 -32.5t37.5 -18t51.5 -9t72.5 -4q9 -9 9 -35t-9 -35q-204 4 -346 4q-138 0 -338 -4q-9 9 -9 35t9 35q47 2 72.5 4t51.5 9t37.5 18t21.5 32.5t13 50t3 72.5v784q0 100 -21.5 150.5t-75.5 50.5h-100q-106 0 -168 -48t-92 -167 q-55 0 -80 10q40 169 51 299q0 6 9 6q208 -16 477 -16h288q272 0 459 16q2 0 4 -2.5t2 -3.5q3 -131 27 -293q-23 -10 -80 -10q-26 115 -90.5 162t-183.5 47h-45q-53 0 -74 -51.5t-21 -155.5v-778z" />
<glyph unicode="U" horiz-adv-x="1499" d="M465 1069v-518q0 -63 2.5 -105t11.5 -98t31.5 -101t58.5 -79q107 -102 244 -102q72 0 129.5 16.5t96.5 42.5t67.5 66.5t44 81.5t25 95t12 98.5t2.5 100.5v502q0 33 -1 56.5t-7 42.5t-10.5 31t-18.5 22t-23.5 14.5t-34 9t-41 6t-53.5 4.5q-9 9 -9 35t9 35q188 -4 261 -4 q59 0 219 4q9 -9 9 -35t-9 -35q-33 -3 -47.5 -5t-36 -7t-30 -12.5t-20 -20.5t-15 -32t-6.5 -45.5t-3 -63.5v-465q0 -113 -17 -205.5t-57 -171.5t-102.5 -132.5t-158 -84t-218.5 -30.5q-282 0 -414 86q-178 115 -178 417v586q0 65 -6.5 100.5t-27.5 54t-46 23.5t-78 8 q-9 9 -9 35t9 35q204 -4 299 -4q134 0 334 4q9 -9 9 -35t-9 -35q-45 -2 -69.5 -4t-49 -9t-35 -18t-20 -32.5t-12 -50t-2.5 -72.5z" />
<glyph unicode="V" horiz-adv-x="1433" d="M1217 1112l-437 -1089q-19 -48 -69 -48q-49 0 -68 48l-446 1122q-13 33 -32 54.5t-46 32.5t-48.5 15t-58.5 8q-9 9 -9 35t9 35q152 -4 275 -4q208 0 360 4q9 -9 9 -35t-9 -35q-17 -1 -29 -2t-26.5 -2.5t-24.5 -3t-22 -4t-19 -6t-14.5 -8t-11.5 -10t-6.5 -12t-1.5 -15 t4 -18.5l254 -732l31 -92l34 80l283 729q5 14 5.5 26t-4.5 21t-12 16t-19.5 12t-24.5 8.5t-28 6t-29 4t-30 2.5q-9 9 -9 35t9 35q152 -4 273 -4q70 0 192 4q9 -9 9 -35t-9 -35q-79 -5 -124.5 -32t-79.5 -111z" />
<glyph unicode="W" horiz-adv-x="2105" d="M1177 1255l287 -813l30 -86l26 74l231 687q19 58 -12 91t-119 47q-9 9 -9 35t9 35q152 -4 256 -4q75 0 209 4q9 -9 9 -35t-9 -35q-70 -5 -126.5 -51t-88.5 -134l-385 -1047q-18 -48 -70 -48q-48 0 -67 48l-314 816l-307 -816q-18 -48 -70 -48q-50 0 -67 48l-385 1122 q-11 32 -29.5 53.5t-45.5 32.5t-50.5 15.5t-59.5 8.5q-9 9 -9 35t9 35q152 -4 275 -4q208 0 360 4q9 -9 9 -35t-9 -35q-17 -1 -28.5 -2t-26.5 -2.5t-25 -3t-21.5 -4t-18.5 -6l-15 -7.5t-11.5 -9.5t-6 -12.5t-2 -15.5t3.5 -18.5l223 -732l19 -65l16 53l292 825q20 -7 57.5 -7 t65.5 7z" />
<glyph unicode="X" horiz-adv-x="1470" d="M889 182l-189 322q-21 35 -33.5 40t-27.5 -16q-142 -194 -231 -360q-48 -91 90 -100q9 -9 9 -35t-9 -35q-164 4 -250 4q-106 0 -228 -4q-9 9 -9 35t9 35q79 8 130.5 28t90.5 70l337 430q25 32 23.5 49t-32.5 60l-295 415q-56 79 -95.5 104.5t-106.5 30.5q-9 9 -10 35 t8 35q122 -4 317 -4q137 0 301 4q9 -9 9 -35t-9 -35q-83 -4 -96.5 -30.5t24.5 -83.5l158 -263q13 -22 21 -31.5t17.5 -10t20.5 12.5q94 109 205 306q46 91 -90 100q-9 9 -9 35t9 35q164 -4 238 -4q87 0 209 4q9 -9 9 -35t-9 -35q-77 -8 -124.5 -27.5t-86.5 -70.5l-277 -361 q-26 -33 -24.5 -55t34.5 -71l317 -467q53 -78 98.5 -104t115.5 -31q9 -9 10 -35t-8 -35q-122 4 -291 4q-155 0 -319 -4q-9 9 -9 35t9 35q42 2 63.5 9.5t23.5 23.5t-7 33.5t-31 47.5z" />
<glyph unicode="Y" horiz-adv-x="1277" d="M793 250q0 -44 2.5 -72.5t13 -49.5t21.5 -31.5t37.5 -17.5t51 -9t72.5 -4q9 -9 9 -35t-9 -35q-204 4 -325 4q-159 0 -359 -4q-9 9 -9 35t9 35q48 2 72.5 4t51.5 9t38 17.5t21.5 31.5t13 49.5t2.5 72.5v280q0 56 -6.5 80t-34.5 70l-261 440q-48 82 -85.5 106t-106.5 29 q-9 9 -10 35t8 35q122 -4 291 -4q90 0 254 4q9 -9 9 -35t-9 -35q-82 -4 -95.5 -30t23.5 -84l214 -377q26 -45 46 -6l211 397q24 45 -4.5 70t-99.5 30q-9 9 -9 35t9 35q164 -4 227 -4q69 0 191 4q9 -9 9 -35t-9 -35q-75 -7 -110 -24.5t-68 -73.5l-263 -438q-34 -55 -34 -171 v-298z" />
<glyph unicode="Z" horiz-adv-x="1277" d="M879 90q99 0 171 73t103 199q55 0 80 -10q-24 -244 -55 -362q0 -6 -9 -6q-208 16 -477 16h-612q-39 0 -39 31q0 24 16 47l766 1108q7 10 10.5 16t6.5 14.5t-2.5 12.5t-18.5 4h-391q-198 0 -262 -258q-55 0 -80 10q36 155 53 346q0 6 8 6q208 -16 478 -16h411q33 0 79 2 t56 2q35 0 35 -20q0 -18 -8 -35t-37 -60l-725 -1063q-23 -29 -17.5 -43t50.5 -14h410z" />
<glyph unicode="[" horiz-adv-x="813" d="M199 -395v1835h501q9 -9 9 -31t-9 -31q-74 -5 -120 -11t-81.5 -18.5t-52.5 -25.5t-28 -41t-13 -55.5t-2 -77.5v-1251q0 -38 1 -60.5t6 -47.5t12.5 -38t23 -28t36 -22t53 -15t71 -12t94.5 -9q9 -9 9 -30.5t-9 -30.5h-501z" />
<glyph unicode="\" horiz-adv-x="628" d="M156 1430l471 -1528h-133l-471 1528h133z" />
<glyph unicode="]" horiz-adv-x="813" d="M618 1436v-1835h-501q-9 9 -9 30.5t9 30.5q74 5 120 11t81.5 18.5t52.5 25.5t28 41t13 55.5t2 77.5v1252q0 38 -1 60.5t-6 47t-12.5 38t-23 28t-36 21.5t-53 15t-71 12t-94.5 9q-9 9 -9 31t9 31h501z" />
<glyph unicode="^" horiz-adv-x="1060" d="M530 1165l-184 -456h-117l260 622h86l259 -622h-117z" />
<glyph unicode="_" horiz-adv-x="995" d="M987 -211v-104h-977v104h977z" />
<glyph unicode="`" horiz-adv-x="802" d="M406 1380l141 -254q18 -31 18 -53q0 -13 -10.5 -23t-24.5 -10q-25 0 -71 41l-248 215l4 23q18 21 60 43t90 22q25 0 41 -4z" />
<glyph unicode="a" horiz-adv-x="1036" d="M605 99l-13 -1q-56 -43 -130 -80.5t-116 -37.5q-132 0 -194 54t-62 161q0 34 9.5 63.5t25 52.5t42.5 44t54 37t69 33t78 29t89 29l137 43q0 76 -8.5 130.5t-22 86.5t-35 50.5t-42.5 24t-50 5.5q-80 0 -86 -46q-3 -20 3 -54t6 -43q0 -38 -37 -66.5t-90 -28.5 q-106 0 -106 104q0 63 64.5 115.5t150.5 78.5t165 26q350 0 350 -354l-4 -295q0 -77 12 -107t45 -30q47 0 86 29q29 -21 37 -58q-60 -57 -123.5 -85.5t-144.5 -28.5q-139 0 -159 119zM594 446l-107 -34q-42 -14 -71 -31t-44.5 -33t-24 -38.5t-10 -39.5t-1.5 -45 q0 -53 29 -88t90 -35q47 0 139 74v270z" />
<glyph unicode="b" horiz-adv-x="1110" d="M152 260v897q0 38 -1 59.5t-7.5 40t-12.5 26.5t-26 14.5t-37.5 8.5t-55.5 5q-15 27 -6 65q109 5 218.5 20t166.5 34q33 0 33 -27q-6 -76 -6 -209v-399q156 114 231 114q90 0 159.5 -22.5t121.5 -81.5q50 -57 80 -139t30 -168q0 -106 -41 -204t-107 -165.5t-150 -108 t-169 -40.5q-80 0 -162 19.5t-137 61.5q-27 -56 -65 -88q-23 0 -70 15q13 127 13 272zM418 713v-576q59 -71 145 -71q46 0 81.5 26.5t56 67t33 97t16.5 107.5t4 107q0 145 -48.5 219t-127.5 74q-81 0 -160 -51z" />
<glyph unicode="c" horiz-adv-x="933" d="M864 178q-59 -86 -155 -142t-187 -56q-110 0 -184.5 24.5t-134.5 81.5t-93.5 142.5t-33.5 183.5q0 111 37 205t99.5 157.5t144.5 99t173 35.5q155 0 244.5 -67.5t89.5 -145.5q0 -48 -31.5 -81t-80.5 -33q-50 0 -86.5 27.5t-40.5 68.5q-5 58 -33 101.5t-80 43.5 q-160 0 -160 -340q0 -176 76.5 -266t198.5 -90q87 0 211 115q26 0 26 -64z" />
<glyph unicode="d" horiz-adv-x="1148" d="M720 194q-1 18 -1 52v504q-34 46 -69 59.5t-85 13.5q-98 0 -151 -88q-52 -84 -52 -266q0 -173 51 -263.5t132 -90.5q20 0 82.5 27t92.5 52zM726 98h-17q-49 -33 -131.5 -75.5t-118.5 -42.5q-80 0 -129.5 19.5t-110.5 66.5q-71 55 -107 148t-36 192q0 133 68 249.5 t182.5 185t244.5 68.5q84 0 148 -23v267q0 39 -0.5 60t-7.5 40t-12.5 26.5t-25.5 14t-37.5 8.5t-55.5 5q-16 30 -7 69q109 5 218.5 20t166.5 34q33 0 33 -27q-6 -76 -6 -209v-922q0 -89 25 -120.5t108 -38.5q3 -10 5 -33t-1 -33q-166 -21 -340 -67q-44 0 -47 34q-5 36 -9 84 z" />
<glyph unicode="e" horiz-adv-x="1001" d="M362 563h279q4 4 4 43q0 111 -40.5 164t-90.5 53q-22 0 -55.5 -18t-55.5 -51q-37 -56 -41 -191zM883 264q14 0 22 -20t8 -43q-75 -110 -174.5 -165.5t-208.5 -55.5q-211 0 -323 102q-64 57 -97.5 143.5t-33.5 180.5q0 113 41.5 210t108.5 159.5t148 98t163 35.5 q87 0 153.5 -21.5t106.5 -56t65 -83.5t34 -98t9 -105q0 -64 -59 -64h-492q0 -4 -1 -14t-1 -18q0 -147 67.5 -220t190.5 -73q168 0 273 108z" />
<glyph unicode="f" horiz-adv-x="800" d="M471 262q0 -66 6.5 -102.5t26.5 -57.5t46.5 -27.5t78.5 -8.5q9 -9 9 -35t-9 -35q-176 4 -291 4q-119 0 -291 -4q-9 9 -9 35t9 35q52 2 78.5 8.5t46.5 27t26.5 56.5t6.5 100v528h-103q-33 0 -44 5t-11 16v55q0 11 49 19t105 8h4v41q0 93 22 168.5t50.5 120t72.5 92.5 q55 60 133 89.5t156 29.5q77 0 135 -15.5t88 -40t44 -49t14 -47.5q0 -64 -32 -97.5t-85 -33.5q-54 0 -93 33t-53 84q-9 31 -13.5 44t-15.5 24t-28 11q-16 0 -31 -6.5t-33.5 -29t-32 -59t-23 -102.5t-9.5 -153v-104h207q27 0 34 -5t7 -16v-47q0 -35 -72 -35h-176v-524z" />
<glyph unicode="g" horiz-adv-x="1067" d="M594 590q0 123 -33 182t-104 59q-61 0 -89 -47t-28 -159q0 -256 143 -256q18 0 32 4t29.5 17.5t26 36.5t17 64.5t6.5 98.5zM358 -51q-60 0 -90 12q-11 -19 -16 -46.5t-5.5 -46t-0.5 -65.5q0 -81 64.5 -142.5t162.5 -61.5q176 0 246 40q48 27 74 81.5t26 113.5 q0 115 -461 115zM956 807q-35 0 -62 23t-34 47q-12 24 -39 24q-15 0 -53.5 -21t-50.5 -36q127 -103 127 -248q0 -128 -101 -217q-99 -88 -270 -88q-103 0 -150 22q-2 -6 -11 -24t-14 -32.5t-5 -29.5q0 -29 8.5 -47.5t24.5 -26.5t28.5 -10t30.5 -2q154 0 320 -16t219 -51 q55 -37 78.5 -90t23.5 -97q0 -107 -94 -195t-232.5 -133.5t-283.5 -45.5q-219 0 -314 67q-39 28 -59 84.5t-20 118.5q0 28 58 97.5t120 107.5q-58 19 -84 57q-27 42 -27 94q0 28 54 92.5t108 111.5q-72 40 -115 113t-43 150q0 148 139 238q100 65 242 65q128 0 172 -24 q50 45 128 83t140 38q54 0 93 -33t39 -66q0 -55 -23 -77.5t-68 -22.5z" />
<glyph unicode="h" horiz-adv-x="1267" d="M1081 262q0 -66 6.5 -102.5t26.5 -57.5t46.5 -27.5t78.5 -8.5q9 -9 9 -35t-9 -35q-176 4 -291 4q-78 0 -250 -4q-9 9 -9 35t9 35q47 3 69 15.5t35 54t13 126.5v342q0 82 -42.5 118t-110.5 36q-67 0 -191 -79v-419q0 -84 12.5 -125t34.5 -53.5t70 -15.5q9 -9 9 -35t-9 -35 q-176 4 -250 4q-119 0 -291 -4q-9 9 -9 35t9 35q52 2 78.5 8.5t46.5 27t26.5 57t6.5 101.5v897q0 39 -1 60t-7 40t-12.5 26.5t-26 14t-37 8.5t-55.5 5q-16 28 -7 65q109 5 218.5 20t166.5 34q33 0 33 -27q-6 -76 -6 -209v-433q98 62 192 105t146 43q272 0 272 -327v-320z " />
<glyph unicode="i" horiz-adv-x="659" d="M475 250q0 -44 1.5 -72t9.5 -49.5t15.5 -31.5t28 -17t38.5 -9.5t55 -4.5q9 -9 9 -35t-9 -35q-176 4 -281 4q-109 0 -281 -4q-9 9 -9 35t9 35q38 3 55 5t38 9.5t28.5 17.5t15.5 31t9.5 49t1.5 72v393q0 86 -23.5 110.5t-109.5 32.5q-3 10 -5 33t1 33q28 4 84.5 10.5t90 11 t75 10.5t69.5 12t45 13q47 0 47 -35q-8 -114 -8 -216v-408zM199 1221q0 50 37.5 88.5t105.5 38.5q60 0 96.5 -42.5t36.5 -93.5q0 -45 -40.5 -86t-104.5 -41q-59 0 -95 41t-36 95z" />
<glyph unicode="j" horiz-adv-x="638" d="M209 643q0 86 -23.5 110.5t-109.5 32.5q-3 10 -5 33t1 33q28 4 84.5 10.5t90 11t75 10.5t69.5 12t45 13q47 0 47 -35q-8 -115 -8 -217v-432q0 -185 -23 -306.5t-56 -178t-87 -100.5q-69 -57 -136 -86t-175 -29q-57 0 -116.5 37.5t-59.5 99.5q0 41 37 82t65 41 q17 0 33 -4.5t27 -9.5t25.5 -16.5t20 -16.5t19.5 -19.5t17 -17.5l9 -9l8.5 -8.5t7 -6.5t7.5 -5.5l8 -4t10 -3t11 -0.5q43 0 69.5 46t26.5 102q0 69 -7 178.5t-7 165.5v487zM195 1221q0 50 37.5 88.5t105.5 38.5q60 0 96.5 -42.5t36.5 -93.5q0 -45 -40.5 -86t-104.5 -41 q-59 0 -95 41t-36 95z" />
<glyph unicode="k" horiz-adv-x="1255" d="M205 260v897q0 39 -1 60t-7 40t-12.5 26.5t-26 14t-37 8.5t-55.5 5q-16 28 -7 65q109 5 218.5 20t166.5 34q33 0 33 -27q-6 -76 -6 -209v-684q43 0 102 19.5t80 38.5q64 55 131 147q22 30 27.5 49.5t-6.5 31.5t-36.5 18t-68.5 9q-9 9 -9 35t9 35q152 -4 248 -4 q138 0 228 4q9 -9 9 -35t-9 -35q-53 -6 -94 -19t-74 -37t-51.5 -41.5t-49.5 -52.5q-6 -7 -9 -10l-101 -112q-12 -14 6 -41l237 -350q11 -17 23 -30t20.5 -22t23 -16t19.5 -10.5t24 -7t22.5 -4t27.5 -2.5t27 -2q9 -9 9 -35t-9 -35q-152 4 -275 4l-164 -4l-4 4v53 q0 39 -32 107q-31 67 -140 229q-27 39 -141 39v-168q0 -62 5.5 -100.5t19.5 -58t29 -26t42 -9.5q9 -9 9 -35t-9 -35q-98 4 -229 4q-119 0 -291 -4q-9 9 -9 35t9 35q52 2 78.5 8.5t46.5 27t26.5 57t6.5 101.5z" />
<glyph unicode="l" horiz-adv-x="665" d="M205 260v897q0 39 -1 60t-7 40t-12.5 26.5t-26 14t-37 8.5t-55.5 5q-16 28 -7 65q109 5 218.5 20t166.5 34q33 0 33 -27q-6 -76 -6 -209v-934q0 -65 6.5 -101.5t26.5 -57t46.5 -27t78.5 -8.5q9 -9 9 -35t-9 -35q-176 4 -291 4q-119 0 -291 -4q-9 9 -9 35t9 35 q52 2 78.5 8.5t46.5 27t26.5 57t6.5 101.5z" />
<glyph unicode="m" horiz-adv-x="1853" d="M467 250q0 -44 1.5 -72.5t7.5 -49t11.5 -31.5t20 -17.5t27 -9t38.5 -4.5q9 -9 9 -35t-9 -35q-176 4 -239 4q-109 0 -281 -4q-9 9 -9 35t9 35q38 3 55 5t38 9.5t28.5 17.5t15.5 31t9.5 49t1.5 72v383q0 86 -23.5 110.5t-109.5 32.5q-3 10 -5.5 33t0.5 33q166 21 340 67 q45 0 48 -35q6 -47 11 -108q254 143 339 143q88 0 148.5 -40t84.5 -108q103 58 209 103t158 45q132 0 195 -79.5t63 -247.5v-320q0 -66 6.5 -102.5t26.5 -57.5t46.5 -27.5t78.5 -8.5q9 -9 9 -35t-9 -35q-176 4 -291 4q-78 0 -250 -4q-9 9 -9 35t9 35q47 3 69 15.5t35 54 t13 126.5v342q0 154 -140 154q-27 0 -85 -18t-112 -46q7 -37 7 -112v-320q0 -51 4.5 -85.5t12.5 -56t24 -33t32 -15.5t44 -6q9 -9 9 -35t-9 -35q-176 4 -250 4q-78 0 -250 -4q-9 9 -9 35t9 35q47 3 69 15.5t35 54t13 126.5v342q0 154 -144 154q-69 0 -186 -70v-30v-408z" />
<glyph unicode="n" horiz-adv-x="1261" d="M467 250q0 -44 1.5 -72.5t7.5 -49t11.5 -31.5t20 -17.5t27 -9t38.5 -4.5q9 -9 9 -35t-9 -35q-176 4 -239 4q-109 0 -281 -4q-9 9 -9 35t9 35q38 3 55 5t38 9.5t28.5 17.5t15.5 31t9.5 49t1.5 72v383q0 86 -23.5 110.5t-109.5 32.5q-3 10 -5.5 33t0.5 33q166 21 340 67 q45 0 48 -35q8 -60 13 -132q245 167 341 167q272 0 272 -327v-320q0 -66 6.5 -102.5t26.5 -57.5t46.5 -27.5t78.5 -8.5q9 -9 9 -35t-9 -35q-176 4 -291 4q-78 0 -250 -4q-9 9 -9 35t9 35q47 3 69 15.5t35 54t13 126.5v342q0 154 -143 154q-27 0 -83.5 -27t-117.5 -69v-4 v-408z" />
<glyph unicode="o" horiz-adv-x="1128" d="M532 823q-170 0 -170 -354q0 -61 13.5 -127.5t40 -130t73.5 -104.5t107 -41q30 0 58 15t54.5 47.5t42 96.5t15.5 152q0 208 -64 327t-170 119zM76 424q0 206 112 334q132 151 377 151q224 0 356 -131t132 -336q0 -95 -33.5 -188t-106.5 -158q-130 -116 -350 -116 q-209 0 -348 123.5t-139 320.5z" />
<glyph unicode="p" horiz-adv-x="1189" d="M195 633q0 86 -24 110.5t-110 32.5q-3 10 -5 33t1 33q166 21 340 67q44 0 47 -35q6 -44 11 -102h12q58 53 129 95t113 42q178 0 280 -102q58 -58 90.5 -146t32.5 -176q0 -227 -140.5 -366t-373.5 -139q-72 0 -137 34v-239q0 -44 1.5 -72t9 -49.5t15.5 -32t28 -17.5 t38 -9.5t55 -4.5q9 -9 9 -34.5t-9 -34.5q-176 4 -280 4q-109 0 -281 -4q-9 9 -9 34.5t9 34.5q37 3 55 5t38.5 9.5t28 18t15.5 31.5t9.5 49t1.5 72v858zM461 133q62 -67 125 -67q64 0 112 32t74.5 86t39.5 116t13 130q0 167 -55.5 254.5t-126.5 87.5q-38 0 -89.5 -21.5 t-93.5 -59.5q0 -5 0.5 -16t0.5 -17v-525z" />
<glyph unicode="q" horiz-adv-x="1173" d="M989 -225q0 -44 2 -72t9.5 -49.5t15 -32t28 -17.5t38.5 -9.5t55 -4.5q9 -9 9 -34.5t-9 -34.5q-176 4 -281 4q-109 0 -281 -4q-9 9 -9 34.5t9 34.5q37 3 55 5t38.5 9.5t28 18t15.5 31.5t9.5 49t1.5 72v282h-10q-168 -77 -219 -77q-82 0 -141 18.5t-115 58.5 q-87 63 -125.5 163t-38.5 206q0 100 42.5 190t113 154t165 101.5t195.5 37.5q117 0 212 -75q34 29 80.5 52t67.5 23q47 0 47 -35q-8 -114 -8 -216v-883zM723 145v604q-59 74 -139 74q-99 0 -161.5 -99.5t-62.5 -254.5q0 -107 21 -184.5t56.5 -117t73 -56.5t79.5 -17 q22 0 64 15t69 36z" />
<glyph unicode="r" horiz-adv-x="876" d="M467 549v-299q0 -44 1.5 -72t9 -49.5t15.5 -31.5t28 -17t38 -9.5t55 -4.5q9 -9 9 -35t-9 -35q-176 4 -280 4q-109 0 -281 -4q-9 9 -9 35t9 35q38 3 55 5t38 9.5t28.5 17.5t15.5 31t9.5 49t1.5 72v383q0 87 -24 112t-109 33q-3 10 -5.5 32t0.5 32q128 12 340 67 q21 0 33.5 -10.5t14.5 -24.5q10 -100 14 -161h8q136 196 244 196q54 0 94.5 -36.5t40.5 -77.5q0 -63 -36 -106t-82 -43q-67 0 -95 34q-32 39 -58 39q-35 0 -65 -35q-25 -29 -37 -57.5t-12 -77.5z" />
<glyph unicode="s" horiz-adv-x="874" d="M98 299q45 11 82 4q32 -111 97.5 -177.5t136.5 -66.5q46 0 83.5 27.5t37.5 73.5q0 45 -24.5 89.5t-80.5 69.5q-52 24 -122.5 72.5t-114.5 97.5q-64 70 -64 154q0 89 70 160q49 50 122 78t154 28q77 0 124 -11.5t106 -37.5q26 -95 26 -217q-27 -19 -80 -10 q-38 93 -87.5 141.5t-104.5 48.5q-43 0 -71 -25t-28 -61q0 -110 111 -159q159 -69 238 -158q63 -71 63 -176q0 -64 -33 -116t-85.5 -83.5t-113.5 -48t-122 -16.5q-76 0 -160 15.5t-125 29.5q-21 94 -35 274z" />
<glyph unicode="t" horiz-adv-x="733" d="M129 889h57q0 206 23 237q6 8 24.5 16t45 16.5t38.5 13.5q24 10 68.5 23t55.5 13q16 0 16 -18q-7 -96 -11 -232l-2 -69h240q16 0 16 -12v-64q0 -12 -16 -19.5t-33 -7.5h-207q0 -115 1 -301.5t1 -224.5q0 -71 26.5 -104t64.5 -33q77 0 116 29q20 -16 28.5 -28t8.5 -30 q-32 -44 -114 -79t-164 -35q-41 0 -89.5 14.5t-80.5 42.5q-62 52 -62 178q0 324 6 571h-133q-10 0 -10 13v59q35 31 86 31z" />
<glyph unicode="u" horiz-adv-x="1224" d="M1044 272q0 -89 25.5 -120.5t108.5 -38.5q3 -10 5 -33t-1 -33q-166 -21 -340 -67q-44 0 -47 34q-5 38 -10 90q-92 -51 -189.5 -87.5t-151.5 -36.5q-262 0 -262 327v320q0 64 -7.5 102.5t-26.5 58.5t-41.5 26.5t-61.5 8.5q-9 9 -9 35t9 35q176 -4 270 -4q43 0 117 4 q21 -21 21 -70q0 -9 -2 -52t-2 -144v-342q0 -52 10 -84.5t32 -47t43.5 -18.5t57.5 -4q98 0 188 55q-2 42 -2 61v380q0 65 -6 102t-24.5 57t-40.5 26.5t-66 10.5q-9 9 -9 35t9 35q160 -4 270 -4q43 0 117 4q21 -21 21 -70q0 -9 -2.5 -52t-2.5 -144v-355z" />
<glyph unicode="v" horiz-adv-x="1083" d="M700 823q-9 9 -9 35t9 35q110 -4 207 -4q66 0 156 4q9 -9 9 -35t-9 -35q-32 -3 -56.5 -12.5t-40 -20t-31 -34t-23.5 -40.5t-24 -52l-282 -641q-21 -48 -80 -48q-56 0 -73 43l-268 648q-4 10 -13 32t-12 28.5t-10.5 22.5t-12 21t-14 15.5t-18 14t-21.5 9.5t-28.5 9 t-35.5 5q-9 9 -9 35t9 35q152 -4 252 -4q106 0 258 4q9 -9 9 -35t-9 -35q-21 -2 -37 -4.5t-26.5 -7.5t-17.5 -8.5t-9 -12.5t-3 -14t3 -19t6.5 -21.5t9.5 -27t11 -30.5l129 -365q5 -13 10 -17.5t12 7.5l162 375q35 79 18.5 109t-98.5 36z" />
<glyph unicode="w" horiz-adv-x="1591" d="M987 678l135 -343q4 -10 9 -13.5t10.5 0.5t9.5 16l118 322q33 76 16 116.5t-97 46.5q-9 9 -9 35t9 35q152 -4 239 -4q46 0 136 4q9 -9 9 -35t-9 -35q-41 -4 -71.5 -18t-52 -42t-33 -51t-29.5 -66l-251 -623q-19 -48 -71 -48q-64 0 -80 43l-197 510l-192 -505 q-18 -48 -76 -48q-16 0 -27 2.5t-22.5 12.5t-18.5 28l-249 648q-32 84 -45 102q-27 40 -97 52q-10 2 -22 3q-9 9 -9 35t9 35q152 -4 252 -4q116 0 268 4q9 -9 9 -35t-9 -35q-83 -7 -95.5 -36t16.5 -93q1 -5 2.5 -8.5t2.5 -7.5l117 -348q3 -10 7.5 -12.5t8 0.5t6.5 10 l195 539q57 -6 115 -1q24 -91 63 -188z" />
<glyph unicode="x" horiz-adv-x="1148" d="M375 150q-13 -19 -15 -33.5t3 -22.5t18.5 -14.5t23 -8.5t25.5 -5q9 -9 9 -35t-9 -35q-82 4 -225 4q-88 0 -170 -4q-9 9 -9 35t9 35q141 19 203 96l188 233q15 18 6 31l-182 260q-35 50 -56 74t-56 43.5t-79 19.5q-9 9 -9 35t9 35q82 -4 258 -4q205 0 287 4q9 -9 9 -35 t-9 -35q-34 -4 -49 -7t-26 -11.5t-6.5 -24.5t20.5 -43l91 -155q6 -10 13.5 -11t12.5 7l110 157q30 44 18.5 63.5t-67.5 24.5q-9 9 -9 35t9 35q82 -4 205 -4q90 0 172 4q9 -9 9 -35t-9 -35q-124 -14 -195 -100l-182 -221q-9 -11 4 -31l180 -268q46 -69 96 -98.5t115 -38.5 q9 -9 9 -35t-9 -35q-82 4 -274 4q-197 0 -279 -4q-9 9 -9 35t9 35q31 4 44.5 7.5t23.5 12t6.5 22.5t-16.5 39l-99 186q-8 13 -20 -5z" />
<glyph unicode="y" horiz-adv-x="1142" d="M496 -344q-17 -30 -53.5 -63t-69.5 -48q-43 -20 -117 -20q-49 0 -80 37q-24 29 -24 82q0 34 33.5 64t88.5 30q14 0 33.5 -4t38.5 -4q40 0 63.5 24t45.5 76l49 113q6 6 3.5 18.5t-3.5 19t-9.5 19.5t-14 20.5t-16.5 22t-18 23.5l-264 606q-42 96 -68.5 120.5t-93.5 30.5 q-9 9 -9 35t9 35q82 -4 228 -4q120 0 272 4q9 -9 9 -35t-9 -35q-26 -2 -43.5 -6t-29.5 -8.5t-16.5 -13.5t-6 -16t3 -22t8.5 -25.5t13 -30.5q3 -6 4 -9l190 -428q3 -6 3 -8q0 2 1 4l211 473q8 18 9 32t-5.5 23t-15 15.5t-24.5 10t-29 5.5t-33 4q-9 9 -9 35t9 35 q152 -4 217 -4q43 0 145 4q9 -9 9 -35t-9 -35q-53 -4 -97.5 -42t-68.5 -87q-162 -341 -372 -846q-52 -126 -88 -192z" />
<glyph unicode="z" horiz-adv-x="925" d="M125 913q10 -2 30 -8t40.5 -9t50.5 -3h395q26 0 76 1t90 2t43 1q24 0 24 -14q0 -16 -36 -76q-289 -477 -479 -721l1 -6h197q78 0 119.5 31t81.5 114l28 60q61 0 82 -13q-21 -156 -65 -278l-721 6q-47 0 -47 25q0 17 18 41q257 348 495 743l-3 4l-209 -6 q-113 -4 -166 -197q-18 -4 -46.5 -2t-41.5 8q29 179 31 285q0 4 4 8t8 4z" />
<glyph unicode="{" horiz-adv-x="628" d="M426 1130l16 -339q6 -128 -47 -188.5t-168 -92.5v-8q113 -47 167 -117t48 -190l-16 -306q-6 -123 43.5 -198.5t120.5 -75.5q9 -9 9 -24.5t-9 -24.5q-83 0 -148 15.5t-119 51.5t-82 103.5t-24 163.5l12 348q3 98 -44 155t-156 70q-12 12 -12.5 32t12.5 34q106 10 153 71 t47 148l-12 377q-2 67 18.5 121t56.5 89t85.5 59t102.5 34t110 10q9 -9 9 -24.5t-9 -24.5q-30 -9 -49 -16.5t-45 -27t-40 -46t-23.5 -72.5t-6.5 -107z" />
<glyph unicode="|" horiz-adv-x="450" d="M287 -477h-123v1907h123v-1907z" />
<glyph unicode="}" horiz-adv-x="628" d="M203 -115l-17 340q-6 128 47 188.5t168 92.5v8q-113 47 -167 117t-48 190l17 305q6 123 -43.5 199t-120.5 76q-9 9 -9 24.5t9 24.5q83 0 148 -15.5t119 -51.5t82 -103.5t24 -163.5l-13 -348q-3 -98 44.5 -155t156.5 -70q12 -12 12.5 -32t-12.5 -34q-106 -10 -153.5 -71.5 t-47.5 -147.5l13 -377q2 -67 -18.5 -121t-56.5 -89t-85.5 -59t-102.5 -34t-110 -10q-9 9 -9 24.5t9 24.5q30 9 48.5 16.5t45 27t40.5 45.5t23.5 72t6.5 107z" />
<glyph unicode="~" horiz-adv-x="968" d="M311 549q-162 0 -217 -131l-20 6q-21 24 -33 59q17 51 46.5 91t61.5 62.5t69.5 37t67 19.5t56.5 5q55 0 110.5 -17t86.5 -48q28 -28 60.5 -44t51.5 -16q26 0 52 4.5t58.5 17t61 41t45.5 69.5l21 -7q21 -24 33 -59q-17 -52 -46.5 -92t-61.5 -62.5t-69.5 -37t-67 -19 t-56.5 -4.5q-42 0 -97 20.5t-92 55.5q-31 29 -57.5 39t-63.5 10z" />
<glyph unicode="&#xa1;" horiz-adv-x="544" d="M272 -459q-61 0 -104 40t-43 114q0 53 29 217q58 351 61 506q2 86 57 86q37 0 48.5 -26t13.5 -85q2 -75 20 -228t37 -259q2 -9 8 -40t8.5 -44t6 -37.5t5 -45.5t1.5 -44q0 -78 -45.5 -116t-102.5 -38zM422 770q0 -60 -45 -102.5t-107 -42.5t-104.5 40.5t-42.5 100.5 q0 58 44.5 100.5t106.5 42.5t105 -40.5t43 -98.5z" />
<glyph unicode="&#xa2;" horiz-adv-x="1105" d="M537 1196h69v-142q142 -7 223.5 -72.5t81.5 -139.5q0 -48 -31.5 -81.5t-80.5 -33.5q-50 0 -86.5 27.5t-40.5 68.5q-10 100 -66 133v-676q37 -10 68 -10q85 0 211 117q26 0 26 -63q-53 -77 -137 -131.5t-168 -65.5v-152h-69v151q-97 4 -164.5 28.5t-122.5 76.5 q-60 57 -93.5 142.5t-33.5 183.5q0 208 120 344t294 152v143zM537 311v656q-148 -24 -148 -338q0 -109 40 -191.5t108 -126.5z" />
<glyph unicode="&#xa3;" horiz-adv-x="1105" d="M168 598q-57 0 -57 23v32q0 41 96 41h63v49q0 137 45 229t131 175q122 110 310 110q24 0 50.5 -3.5t61.5 -13t57.5 -33t22.5 -56.5q0 -53 -32 -85t-85 -32q-45 0 -98 53q-12 13 -23 37t-22 38t-31 14q-120 0 -120 -328v-154h184q28 0 45.5 -6.5t17.5 -15.5v-33 q0 -20 -31 -30.5t-67 -10.5h-150q-3 -79 -20.5 -142t-48 -108t-55.5 -71t-61 -54q65 0 117.5 -10t77.5 -20.5t57 -28.5q61 -33 104 -33q48 0 107 31.5t97 83.5q31 -7 47 -31q-35 -94 -109 -164.5t-179 -70.5t-230 80q-71 46 -131 46q-34 0 -52 -9t-22 -19t-4 -27 q0 -41 -38 -64.5t-87 -23.5q-33 0 -51 20t-18 48q0 42 41.5 88.5t93.5 73.5q9 5 27 11q71 83 71 378v16h-102z" />
<glyph unicode="&#xa4;" horiz-adv-x="948" d="M233 614q0 -107 68.5 -179.5t169.5 -72.5q102 0 170 72.5t68 177.5q0 107 -71 179.5t-163 72.5q-100 0 -171 -72.5t-71 -177.5zM471 250q-114 0 -205 51q-32 -41 -94 -119l-125 121l109 88q-88 111 -88 221q0 116 90 226q-81 61 -107 84l113 116l102 -112q94 51 209 51 q108 0 203 -53q78 92 104 125l119 -125l-113 -93q86 -106 86 -219q0 -104 -83 -217q44 -36 106 -90l-111 -119l-104 119q-96 -55 -211 -55z" />
<glyph unicode="&#xa5;" horiz-adv-x="1105" d="M979 362v-86h-264v-26q0 -44 2.5 -72.5t13 -49.5t21.5 -31.5t37.5 -17.5t51 -9t72.5 -4q9 -9 9 -35t-9 -35q-204 4 -315 4q-148 0 -348 -4q-9 9 -9 35t9 35q48 2 72.5 4t51.5 9t38 17.5t21.5 31.5t13 49.5t2.5 72.5v26h-248v86h248v140h-248v86h242q-6 20 -44 92 l-178 328q-40 79 -84 115t-108 40q-9 9 -10 35t8 35q122 -4 280 -4q80 0 244 4q9 -9 9 -35t-9 -35q-57 -3 -81 -11.5t-25 -24t12 -40.5l154 -323q12 -25 22.5 -34t20 -2t19.5 30l142 329q17 42 -6 56.5t-96 19.5q-9 9 -9 35t9 35q164 -4 207 -4q48 0 170 4q9 -9 9 -35 t-9 -35q-70 -7 -110.5 -33.5t-67.5 -85.5l-160 -325q-22 -44 -29 -69t-8 -62h264v-86h-264v-140h264z" />
<glyph unicode="&#xa6;" horiz-adv-x="450" d="M287 1380v-741h-123v741h123zM287 330v-742h-123v742h123z" />
<glyph unicode="&#xa7;" horiz-adv-x="954" d="M838 -53q0 -56 -21 -106t-63.5 -93t-119 -68.5t-177.5 -25.5q-58 0 -118.5 17.5t-113 49.5t-86 85.5t-33.5 117.5q0 38 36.5 69.5t72.5 31.5q56 0 93.5 -39.5t37.5 -65.5q0 -29 -16.5 -57.5t-16.5 -40.5q0 -8 5.5 -21.5t19 -31.5t44 -30.5t71.5 -12.5q72 0 115.5 53 t43.5 153q0 37 -21 71.5t-63 66.5t-73.5 51.5t-83.5 48.5q-170 95 -240 184t-70 211q0 132 141 259q-71 92 -71 208q0 53 29 116t78 107q104 93 262 93q156 0 253 -70t97 -197q0 -40 -38.5 -71t-76.5 -31q-57 0 -90 38.5t-33 65.5q0 35 14.5 60.5t14.5 38.5q0 40 -30 67 t-103 27q-82 0 -123 -58t-41 -145q0 -66 37 -102.5t119 -75.5q172 -85 235 -131q124 -91 151 -221q9 -43 9 -94q0 -141 -151 -268q94 -115 94 -234zM242 780q-23 -43 -23 -116q0 -81 63.5 -154t223.5 -150q117 -55 196 -133q35 48 35 123q0 43 -10.5 78t-35.5 67t-54.5 57.5 t-81 55.5t-99.5 53.5t-126 59.5q-51 25 -88 59z" />
<glyph unicode="&#xa8;" horiz-adv-x="839" d="M498 1174q0 47 32.5 79.5t79.5 32.5q46 0 79.5 -32.5t33.5 -79.5q0 -46 -33.5 -78.5t-79.5 -32.5q-47 0 -79.5 32.5t-32.5 78.5zM117 1174q0 47 33 79.5t79 32.5q47 0 80 -32.5t33 -79.5q0 -46 -33 -78.5t-80 -32.5q-46 0 -79 32.5t-33 78.5z" />
<glyph unicode="&#xa9;" horiz-adv-x="1312" d="M899 446q-31 -51 -88 -86.5t-127 -35.5q-61 0 -121.5 23t-97.5 63q-82 88 -82 217q0 124 83.5 209.5t205.5 85.5q45 0 80.5 -5t52.5 -10.5t37.5 -14.5t27.5 -11q17 -105 19 -144q-8 -6 -37 -6q-26 51 -44 74.5t-45 36t-71 12.5q-54 0 -92.5 -53.5t-38.5 -175.5 q0 -219 150 -219q107 0 153 71q18 -6 35 -31zM657 35q-161 0 -297.5 80t-215 216t-78.5 296t79 296t215.5 215t296.5 79t296 -79t215 -215t79 -296t-79 -296.5t-215 -216t-296 -79.5zM657 1116q-131 0 -243 -66.5t-177 -179t-65 -243.5t64.5 -244t176.5 -179.5t244 -66.5 q199 0 341.5 144.5t142.5 345.5t-142.5 345t-341.5 144z" />
<glyph unicode="&#xaa;" horiz-adv-x="608" d="M346 1063q1 107 -16 152t-54 45q-44 0 -70 -15.5t-26 -36.5q0 -12 5 -24.5t5 -26.5q0 -23 -24.5 -40t-54.5 -17q-27 0 -48.5 16.5t-21.5 48.5q0 59 79 107.5t161 48.5q103 0 155 -39q42 -32 55 -80t11 -151l-4 -164q-1 -42 2.5 -64t9.5 -27t16 -5q15 0 33 12l21 -33 q-26 -23 -68 -40t-72 -17q-84 0 -92 67q-33 -33 -79 -50t-81 -17q-72 0 -112 30q-45 32 -45 113q0 60 64.5 110.5t166.5 75.5zM342 836l4 172q-90 -29 -127 -69t-37 -77q0 -74 68 -74q26 0 44 10t48 38z" />
<glyph unicode="&#xab;" horiz-adv-x="1136" d="M152 424v33q94 84 132.5 120t107 106t136.5 151q16 -5 34.5 -18.5t25.5 -27.5q-120 -230 -213 -348q93 -118 213 -348q-7 -14 -25.5 -27t-34.5 -18q-68 81 -136.5 151t-107 106t-132.5 120zM537 424v33q94 84 132.5 120t107 106t136.5 151q16 -5 34.5 -18.5t25.5 -27.5 q-120 -230 -213 -348q93 -118 213 -348q-7 -14 -25.5 -27t-34.5 -18q-68 81 -136.5 151t-107 106t-132.5 120z" />
<glyph unicode="&#xac;" horiz-adv-x="1146" d="M948 272v439h-899v110h1051v-549h-152z" />
<glyph unicode="&#xad;" horiz-adv-x="716" d="M559 440h-405q-35 0 -55.5 12.5t-20.5 30.5q0 29 32 74t62 45h410q73 0 73 -43q0 -25 -32 -72t-64 -47z" />
<glyph unicode="&#xae;" horiz-adv-x="1312" d="M866 762q0 -30 -12 -57t-29 -44t-34 -30t-29 -19l-12 -6l98 -168q20 -34 39 -48.5t43 -14.5v-27q-27 -8 -47 -8q-46 0 -84 20t-56 58l-98 160q-12 6 -55 6v-187q0 -9 2 -11.5t12 -2.5h25q22 0 22 -12v-29q-110 4 -139 4l-115 -4v29q0 12 23 12h24q10 0 13.5 3t3.5 13v447 q0 22 -8 22l-33 -2q-21 0 -21 13v26q72 10 273 10q55 0 95 -15t60.5 -39t29.5 -49t9 -50zM739 762q0 56 -21 84t-71 28q-42 0 -57 -6v-235q25 0 40.5 1t38.5 8t36.5 19.5t23.5 38.5t10 62zM657 35q-161 0 -297.5 80t-215 216t-78.5 296t79 296t215.5 215t296.5 79t296 -79 t215 -215t79 -296t-79 -296.5t-215 -216t-296 -79.5zM657 1116q-131 0 -243 -66.5t-177 -179t-65 -243.5t64.5 -244t176.5 -179.5t244 -66.5q199 0 341.5 144.5t142.5 345.5t-142.5 345t-341.5 144z" />
<glyph unicode="&#xaf;" horiz-adv-x="813" d="M645 1063h-500q-12 0 -18 13.5t-6 27.5q0 21 14 45.5t31 24.5h500q13 0 20.5 -13.5t7.5 -25.5q0 -21 -15 -46.5t-34 -25.5z" />
<glyph unicode="&#xb0;" horiz-adv-x="546" d="M401 1073q0 53 -33.5 97t-93.5 44q-59 0 -94 -42.5t-35 -98.5q0 -54 36 -94.5t93 -40.5t92 41t35 94zM57 1075q0 90 63.5 153.5t153.5 63.5q89 0 152 -63t63 -154q0 -89 -63 -152t-152 -63t-153 63t-64 152z" />
<glyph unicode="&#xb1;" horiz-adv-x="1079" d="M627 725h350v-152h-350v-333h-152v333h-350v152h350v336h152v-336zM969 158l-21 -123h-817l21 123h817z" />
<glyph unicode="&#xb2;" horiz-adv-x="696" d="M68 1282q0 51 78.5 110.5t189.5 59.5q122 0 175 -42q32 -25 46 -56t14 -80q0 -39 -12.5 -69t-46.5 -66q-47 -50 -115 -109l-87 -77q-50 -40 -56 -91h168q44 0 79.5 37.5t55.5 89.5q42 0 57 -12q-3 -28 -11 -65t-13.5 -56t-19.5 -64t-15 -47h-483q0 117 121 235l120 111 q76 70 76 154q0 75 -24 115q-8 14 -25.5 22.5t-32.5 8.5q-64 0 -78 -37q-3 -10 -3 -48q0 -5 0.5 -15.5t0.5 -14.5q0 -13 -2 -23q-5 -25 -30 -42t-57 -17q-70 0 -70 88z" />
<glyph unicode="&#xb3;" horiz-adv-x="696" d="M403 1300q0 42 -25 66.5t-61 24.5q-35 0 -64 -23t-32 -57q0 -28 -21 -55t-61 -27q-30 0 -46.5 14t-18.5 23.5t-2 19.5q0 17 15 42.5t45 54.5t88 49t132 20q101 0 164.5 -38.5t63.5 -102.5q0 -78 -97 -142q-5 -5 0 -8q69 -21 109.5 -59.5t40.5 -114.5q0 -113 -103 -182.5 t-247 -69.5q-84 0 -150 19.5t-80 64.5q-11 34 11 63t61 29q20 0 37 -10t25 -20t18 -26t12 -19q35 -39 86 -39q42 0 88.5 45t46.5 129q0 114 -153 114q-34 0 -70 -8v62q73 10 130.5 54.5t57.5 106.5z" />
<glyph unicode="&#xb4;" horiz-adv-x="698" d="M383 1380q12 4 33 4q77 0 116 -49l21 -47l-246 -221q-38 -33 -78 -33q-12 0 -22 10t-10 19q0 25 16 49z" />
<glyph unicode="&#xb5;" horiz-adv-x="1144" d="M703 99l-17 -1q-47 -38 -61.5 -49t-50.5 -33t-67.5 -29t-72.5 -7q-60 0 -94 14q1 -10 2 -83t8 -108q25 -110 25 -147q0 -62 -38 -96.5t-91 -34.5q-40 0 -95 41t-55 100q0 47 15 146q1 10 6 39t7 44.5t4.5 43t2.5 53.5q0 16 -2.5 51.5t-3.5 50.5q-2 17 -15.5 87t-13.5 100 v381q0 23 -5.5 79.5t-10.5 102.5l-6 45l282 26q6 -147 6 -213v-374q0 -70 7 -115.5t27 -74.5t55 -29q68 0 134.5 24.5t98.5 67.5v688l266 29v-658q0 -74 16 -105.5t50 -31.5q47 0 86 29q20 -16 28.5 -28t8.5 -30q-120 -114 -277 -114q-139 0 -159 119z" />
<glyph unicode="&#xb6;" horiz-adv-x="1232" d="M1020 -295q0 -58 7.5 -84t23 -34t51.5 -9h59q13 0 13 -14v-43h-674v43q0 14 12 14h59q51 1 65.5 25t14.5 104v758q-52 -25 -157 -25q-56 0 -111.5 12t-116 45t-106.5 82.5t-75.5 132t-29.5 187.5q0 193 109 308.5t307 115.5q89 0 204 -5t130 -5l141 6l228 4v-43 q0 -14 -13 -14h-59q-53 0 -67.5 -26t-14.5 -101v-1434zM834 -424q41 0 53 28t12 99v1436q0 43 -4 69t-13.5 37t-17.5 13.5t-24 3.5q-19 0 -32.5 -8t-20 -18.5t-10.5 -30t-4.5 -34t-0.5 -38.5v-1426q0 -131 62 -131z" />
<glyph unicode="&#xb7;" horiz-adv-x="512" d="M256 381q-61 0 -100 40.5t-39 96.5q0 54 41.5 95.5t97.5 41.5q54 0 96.5 -40t42.5 -97q0 -56 -40.5 -96.5t-98.5 -40.5z" />
<glyph unicode="&#xb8;" horiz-adv-x="1107" d="M483 -207l-12 12l104 209h70l-41 -98q190 -39 190 -172q0 -77 -69.5 -130.5t-169.5 -53.5q-46 0 -69 6.5t-62 27.5q0 45 20 54q35 -13 48 -17t32 -8t39 -4q47 0 75 22t28 62q0 27 -16.5 45.5t-48.5 27t-56.5 12t-61.5 5.5z" />
<glyph unicode="&#xb9;" horiz-adv-x="696" d="M276 1311q-28 0 -116 -31q-21 16 -21 68q202 74 281 114q9 5 32.5 6t32.5 -6v-542q0 -38 7 -61t24 -34t34 -14.5t48 -5.5q6 -12 6 -31.5t-6 -30.5q-61 2 -203 2q-174 0 -235 -2q-6 9 -6.5 29t6.5 33q38 2 58.5 5.5t43.5 14.5t33 34t10 61v307q0 51 -5.5 67.5t-23.5 16.5z " />
<glyph unicode="&#xba;" horiz-adv-x="753" d="M80 879q0 126 88 203t213 77q93 0 156 -35q64 -37 101.5 -101.5t37.5 -131.5q0 -112 -79.5 -191t-225.5 -79q-133 0 -212 72.5t-79 185.5zM369 1100q-30 0 -50.5 -11t-32 -27t-17.5 -45t-7.5 -54t-1.5 -64q0 -36 2 -61t9.5 -55.5t21.5 -49.5t39.5 -32t60.5 -13 q49 0 77 35t28 135q0 129 -27.5 185.5t-101.5 56.5z" />
<glyph unicode="&#xbb;" horiz-adv-x="1136" d="M985 457v-33q-98 -88 -134 -121t-105.5 -104t-137.5 -152q-16 5 -34 18t-25 27q120 230 213 348q-93 118 -213 348q7 14 25 27.5t34 18.5q68 -81 137.5 -152t105.5 -104t134 -121zM600 457v-33q-98 -88 -134 -121t-105.5 -104t-137.5 -152q-16 5 -34 18t-25 27 q120 230 213 348q-93 118 -213 348q7 14 25 27.5t34 18.5q68 -81 137.5 -152t105.5 -104t134 -121z" />
<glyph unicode="&#xbc;" horiz-adv-x="1433" d="M1171 1231l86 -17l-940 -1341l-84 16zM1241 -102q0 -72 21.5 -92t80.5 -23q6 -12 6 -31.5t-6 -30.5q-91 3 -221 3q-105 0 -196 -3q-6 9 -6.5 29.5t6.5 32.5q38 2 58.5 5.5t43.5 14.5t33 34t10 61v43h-299l-24 24q51 75 192 256.5t174 227.5h103q24 0 24 -21v-401h123 l-6 -86h-117v-43zM270 1210q-31 0 -116 -30q-21 16 -21 67q195 71 281 115q9 5 32.5 6t32.5 -6v-543q0 -38 7 -61t24.5 -34t33.5 -14t48 -5q6 -12 6 -31.5t-6 -30.5q-61 2 -203 2q-174 0 -235 -2q-6 9 -6.5 29t6.5 33q38 2 58.5 5.5t43.5 14t33 33.5t10 61v307 q0 51 -5.5 67.5t-23.5 16.5zM1071 286l-194 -259h194v259z" />
<glyph unicode="&#xbd;" horiz-adv-x="1433" d="M1130 1231l87 -17l-941 -1341l-83 16zM801 375q0 51 78.5 110.5t189.5 59.5q122 0 175 -42q33 -25 47 -56t14 -80q0 -39 -13 -69.5t-47 -66.5q-42 -45 -115 -108l-87 -77q-50 -40 -56 -91h168q44 0 79.5 37.5t55.5 89.5q43 0 58 -12q-3 -28 -11 -64t-14.5 -58t-19.5 -62 t-15 -48h-483q0 117 121 235l120 110q76 70 76 155q0 75 -24 115q-8 14 -25.5 22t-32.5 8q-63 0 -77 -37q-4 -14 -4 -47q0 -5 0.5 -15.5t0.5 -14.5q0 -13 -2 -23q-5 -25 -30 -42t-57 -17q-70 0 -70 88zM274 1210q-31 0 -116 -30q-21 16 -21 67q195 71 281 115q9 5 32.5 6 t32.5 -6v-543q0 -38 7 -61t24.5 -34t33.5 -14t48 -5q6 -12 6 -31.5t-6 -30.5q-61 2 -203 2q-174 0 -235 -2q-6 9 -6.5 29t6.5 33q38 2 58.5 5.5t43.5 14t33 33.5t10 61v307q0 51 -5.5 67.5t-23.5 16.5z" />
<glyph unicode="&#xbe;" horiz-adv-x="1433" d="M1192 1231l86 -17l-940 -1341l-84 16zM399 1196q0 42 -25 66t-61 24q-35 0 -64 -23t-32 -57q0 -28 -21 -55t-61 -27q-30 0 -46.5 14t-18.5 24t-2 20q0 17 15 42.5t45 54.5t88 49t132 20q101 0 164 -39t63 -103q0 -78 -96 -141q-5 -5 0 -8q69 -21 109.5 -59.5t40.5 -114.5 q0 -113 -103 -182.5t-247 -69.5q-84 0 -150 19.5t-80 64.5q-11 34 11 63t61 29q20 0 37 -10t25 -20.5t18 -26.5t12 -19q35 -39 86 -39q42 0 88.5 45t46.5 129q0 115 -153 115q-34 0 -70 -8v61q73 10 130.5 55t57.5 107zM1249 -98q0 -72 22 -92t81 -23q6 -12 6 -31t-6 -30 q-61 2 -222 2q-135 0 -196 -2q-6 10 -6.5 29t6.5 32q38 2 58.5 5.5t43.5 14.5t33 34t10 61v43h-299l-24 24q51 75 192 256.5t174 227.5h103q24 0 24 -21v-401h123l-6 -86h-117v-43zM1079 290l-194 -259h194v259z" />
<glyph unicode="&#xbf;" horiz-adv-x="880" d="M571 -287q0 20 -9 51t-9 60q0 38 31 61t78 23q42 0 79 -32.5t37 -86.5q0 -51 -26 -90.5t-82 -85.5q-96 -80 -281 -80q-174 0 -276.5 85.5t-102.5 227.5q0 37 9 70.5t29.5 64.5t38 53.5t51.5 51t50.5 41.5t53.5 41q28 20 45.5 36t39.5 45t33 70t11 93v26q0 40 12.5 55 t54.5 15q38 0 52 -17t14 -53v-30q0 -34 -1 -55t-8.5 -59.5t-22 -69.5t-43.5 -71.5t-71 -78.5q-112 -98 -112 -242q0 -97 41.5 -161t122.5 -64q67 0 114 31.5t47 74.5zM584 762q0 -60 -45 -103t-107 -43t-104.5 41t-42.5 101q0 58 44.5 100.5t106.5 42.5t105 -40.5t43 -98.5z " />
<glyph unicode="&#xc0;" horiz-adv-x="1515" d="M559 580h311l-167 485h-14l-182 -458q-6 -15 6 -21t46 -6zM338 162q-6 -15 -7 -28t4.5 -22t12 -16t20 -11.5l24 -8t28.5 -5.5t29 -3t30 -2q9 -9 9 -35t-9 -35q-152 4 -272 4q-41 0 -193 -4q-9 9 -9 35t9 35q40 3 63.5 7.5t51.5 18.5t49.5 42.5t40.5 74.5l444 1048 q69 0 226 91l422 -1172q12 -35 29.5 -57t42 -32t45 -13.5t52.5 -6.5q10 -1 15 -1q9 -9 9 -35t-9 -35q-152 4 -274 4q-199 0 -351 -4q-9 9 -9 35t9 35q13 1 31.5 2t30 1.5t27 2t24.5 3.5t19 6t15 9.5t8.5 13t2.5 18.5t-6 25l-115 334h-389q-36 0 -50 -7t-22 -28zM557 1700 q-39 -19 -76 -50t-57 -63l6 -24l295 -119q34 -14 72 -14q14 0 27.5 9t13.5 21q0 26 -21 43q-33 29 -116.5 92.5t-143.5 104.5z" />
<glyph unicode="&#xc1;" horiz-adv-x="1515" d="M559 580h311l-167 485h-14l-182 -458q-6 -15 6 -21t46 -6zM338 162q-6 -15 -7 -28t4.5 -22t12 -16t20 -11.5l24 -8t28.5 -5.5t29 -3t30 -2q9 -9 9 -35t-9 -35q-152 4 -272 4q-41 0 -193 -4q-9 9 -9 35t9 35q40 3 63.5 7.5t51.5 18.5t49.5 42.5t40.5 74.5l444 1048 q69 0 226 91l422 -1172q12 -35 29.5 -57t42 -32t45 -13.5t52.5 -6.5q10 -1 15 -1q9 -9 9 -35t-9 -35q-152 4 -274 4q-199 0 -351 -4q-9 9 -9 35t9 35q13 1 31.5 2t30 1.5t27 2t24.5 3.5t19 6t15 9.5t8.5 13t2.5 18.5t-6 25l-115 334h-389q-36 0 -50 -7t-22 -28zM854 1706 q39 -18 76.5 -50t56.5 -63l-6 -24l-295 -119q-35 -14 -72 -14q-14 0 -27.5 9t-13.5 21q0 25 21 43q33 29 116.5 92.5t143.5 104.5z" />
<glyph unicode="&#xc2;" horiz-adv-x="1515" d="M1061 1483q0 -15 -9.5 -30.5t-23.5 -22.5q-180 56 -254 114q-87 -64 -252 -114q-28 13 -28 55q130 83 260 213l28 10q56 -56 136 -120t143 -105zM559 580h311l-167 485h-14l-182 -458q-6 -15 6 -21t46 -6zM338 162q-6 -15 -7 -28t4.5 -22t12 -16t20 -11.5l24 -8 t28.5 -5.5t29 -3t30 -2q9 -9 9 -35t-9 -35q-152 4 -272 4q-41 0 -193 -4q-9 9 -9 35t9 35q40 3 63.5 7.5t51.5 18.5t49.5 42.5t40.5 74.5l444 1048q69 0 226 91l422 -1172q12 -35 29.5 -57t42 -32t45 -13.5t52.5 -6.5q10 -1 15 -1q9 -9 9 -35t-9 -35q-152 4 -274 4 q-199 0 -351 -4q-9 9 -9 35t9 35q13 1 31.5 2t30 1.5t27 2t24.5 3.5t19 6t15 9.5t8.5 13t2.5 18.5t-6 25l-115 334h-389q-36 0 -50 -7t-22 -28z" />
<glyph unicode="&#xc3;" horiz-adv-x="1515" d="M559 580h311l-167 485h-14l-182 -458q-6 -15 6 -21t46 -6zM338 162q-6 -15 -7 -28t4.5 -22t12 -16t20 -11.5l24 -8t28.5 -5.5t29 -3t30 -2q9 -9 9 -35t-9 -35q-152 4 -272 4q-41 0 -193 -4q-9 9 -9 35t9 35q40 3 63.5 7.5t51.5 18.5t49.5 42.5t40.5 74.5l444 1048 q69 0 226 91l422 -1172q12 -35 29.5 -57t42 -32t45 -13.5t52.5 -6.5q10 -1 15 -1q9 -9 9 -35t-9 -35q-152 4 -274 4q-199 0 -351 -4q-9 9 -9 35t9 35q13 1 31.5 2t30 1.5t27 2t24.5 3.5t19 6t15 9.5t8.5 13t2.5 18.5t-6 25l-115 334h-389q-36 0 -50 -7t-22 -28zM895 1561 q66 0 100 88q23 0 40.5 -11.5t17.5 -29.5q-26 -88 -77.5 -139.5t-109.5 -51.5q-76 0 -133 43q-53 35 -119 35q-20 0 -32 -2t-26 -9.5t-24 -25t-18 -45.5q-53 0 -53 37q26 82 72 136t98 54q88 0 151 -51q36 -28 113 -28z" />
<glyph unicode="&#xc4;" horiz-adv-x="1515" d="M342 1427q0 50 33 83.5t82 33.5t81.5 -33.5t32.5 -83.5q0 -49 -32.5 -81.5t-81.5 -32.5q-50 0 -82.5 32.5t-32.5 81.5zM991 1427q0 49 33.5 83t83.5 34q49 0 81 -33.5t32 -83.5t-32 -82t-81 -32q-50 0 -83.5 32.5t-33.5 81.5zM559 580h311l-167 485h-14l-182 -458 q-6 -15 6 -21t46 -6zM338 162q-6 -15 -7 -28t4.5 -22t12 -16t20 -11.5l24 -8t28.5 -5.5t29 -3t30 -2q9 -9 9 -35t-9 -35q-152 4 -272 4q-41 0 -193 -4q-9 9 -9 35t9 35q40 3 63.5 7.5t51.5 18.5t49.5 42.5t40.5 74.5l444 1048q69 0 226 91l422 -1172q12 -35 29.5 -57t42 -32 t45 -13.5t52.5 -6.5q10 -1 15 -1q9 -9 9 -35t-9 -35q-152 4 -274 4q-199 0 -351 -4q-9 9 -9 35t9 35q13 1 31.5 2t30 1.5t27 2t24.5 3.5t19 6t15 9.5t8.5 13t2.5 18.5t-6 25l-115 334h-389q-36 0 -50 -7t-22 -28z" />
<glyph unicode="&#xc5;" horiz-adv-x="1515" d="M754 1632q-42 0 -69.5 -28.5t-27.5 -71.5q0 -41 27 -70.5t70 -29.5t70.5 29.5t27.5 70.5q0 44 -28 72t-70 28zM580 1532q0 70 51 120t123 50q70 0 123 -49.5t53 -120.5q0 -69 -52 -119.5t-124 -50.5q-71 0 -122.5 50t-51.5 120zM559 580h311l-167 485h-14l-182 -458 q-6 -15 6 -21t46 -6zM338 162q-6 -15 -7 -28t4.5 -22t12 -16t20 -11.5l24 -8t28.5 -5.5t29 -3t30 -2q9 -9 9 -35t-9 -35q-152 4 -272 4q-41 0 -193 -4q-9 9 -9 35t9 35q40 3 63.5 7.5t51.5 18.5t49.5 42.5t40.5 74.5l444 1048q69 0 226 91l422 -1172q12 -35 29.5 -57t42 -32 t45 -13.5t52.5 -6.5q10 -1 15 -1q9 -9 9 -35t-9 -35q-152 4 -274 4q-199 0 -351 -4q-9 9 -9 35t9 35q13 1 31.5 2t30 1.5t27 2t24.5 3.5t19 6t15 9.5t8.5 13t2.5 18.5t-6 25l-115 334h-389q-36 0 -50 -7t-22 -28z" />
<glyph unicode="&#xc6;" horiz-adv-x="1957" d="M229 209l516 942q29 53 -1 78.5t-105 25.5q-16 0 -16 15v51l4 4l424 -4h610q53 0 100 8q8 0 8 -6q2 -7 6 -62.5t9.5 -127.5t9.5 -107q-36 -18 -88 -10q-19 59 -35.5 94.5t-44 66.5t-66.5 44.5t-96 13.5h-174q-35 0 -59.5 -31t-24.5 -69v-383h166q108 0 145.5 23t41.5 104 q9 9 44 9t44 -9q-5 -152 -5 -177l5 -180q-9 -9 -44 -9t-44 9q-5 71 -44.5 99t-142.5 28h-166v-465q0 -41 25 -69.5t59 -28.5h207q111 0 183.5 71.5t105.5 190.5q20 5 48 2t44 -12q-5 -30 -14 -105t-18.5 -133t-22.5 -104q-185 4 -283 4h-483q-216 -2 -316 -4q-9 9 -9 35 t9 35q42 2 63.5 4t45.5 8.5t34.5 17.5t20.5 32t12.5 49.5t2.5 72.5v295h-365l-207 -383q-8 -15 -9.5 -27t3 -21t12 -16t20.5 -12t25 -8.5t29.5 -5.5t30.5 -3.5t30 -2.5q9 -9 9 -35t-9 -35q-152 4 -272 4q-40 0 -192 -4q-9 9 -9 35t9 35q73 5 115.5 32t88.5 111zM608 647h312 v469q0 27 -7.5 39t-21.5 3.5t-31 -40.5z" />
<glyph unicode="&#xc7;" horiz-adv-x="1445" d="M616 -215l-12 12l94 187q-225 18 -374 125q-118 85 -183 234.5t-65 301.5q0 165 59 299.5t160.5 222t235 134.5t284.5 47q110 0 198 -21t151 -44.5t100 -27.5q37 -232 45 -317q-18 -9 -43.5 -12.5t-44.5 2.5q-18 58 -38 103t-54.5 90.5t-78 75.5t-109.5 48.5t-148 18.5 q-119 0 -213 -78.5t-144.5 -210.5t-50.5 -291q0 -158 56 -295.5t155 -220t215 -82.5q262 0 455 213q16 0 37.5 -14.5t29.5 -28.5q-104 -136 -237 -206t-283 -70h-46l-30 -72q191 -39 191 -172q0 -77 -70 -131t-170 -54q-46 0 -68.5 7t-62.5 28q0 44 21 54q72 -26 101 -28 q8 -1 17 -1q47 0 75 22t28 62q0 27 -16.5 45.5t-48.5 27t-56.5 12t-61.5 5.5z" />
<glyph unicode="&#xc8;" horiz-adv-x="1247" d="M662 748q107 0 144.5 24.5t41.5 106.5q9 9 44 9t44 -9q-4 -122 -4 -177q0 -36 4 -180q-9 -9 -44 -9t-44 9q-5 72 -44 101.5t-142 29.5h-166v-469q0 -41 25 -69.5t59 -28.5h206q111 0 183.5 71.5t105.5 190.5q20 5 48 2t44 -12q-5 -30 -14 -105t-18.5 -133t-22.5 -104 q-185 4 -283 4h-481q-217 -2 -317 -4q-9 9 -9 35t9 35q42 2 63.5 4t45.5 8.5t34 17.5t20 32t12.5 49.5t2.5 72.5v819q0 65 -6.5 100t-30 54.5t-52 24t-89.5 7.5q-9 9 -9 35t9 35l315 -4h604q54 0 101 8q8 0 8 -6q2 -6 5.5 -62t9 -127.5t9.5 -107.5q-36 -18 -88 -10 q-19 59 -35.5 94.5t-43.5 66.5t-66 44.5t-96 13.5h-174q-35 0 -59.5 -31t-24.5 -69v-387h166zM453 1700q-39 -19 -76.5 -50.5t-57.5 -62.5l7 -24l295 -119q34 -14 71 -14q14 0 27.5 9t13.5 21q0 27 -20 43q-33 29 -116.5 92.5t-143.5 104.5z" />
<glyph unicode="&#xc9;" horiz-adv-x="1247" d="M662 748q107 0 144.5 24.5t41.5 106.5q9 9 44 9t44 -9q-4 -122 -4 -177q0 -36 4 -180q-9 -9 -44 -9t-44 9q-5 72 -44 101.5t-142 29.5h-166v-469q0 -41 25 -69.5t59 -28.5h206q111 0 183.5 71.5t105.5 190.5q20 5 48 2t44 -12q-5 -30 -14 -105t-18.5 -133t-22.5 -104 q-185 4 -283 4h-481q-217 -2 -317 -4q-9 9 -9 35t9 35q42 2 63.5 4t45.5 8.5t34 17.5t20 32t12.5 49.5t2.5 72.5v819q0 65 -6.5 100t-30 54.5t-52 24t-89.5 7.5q-9 9 -9 35t9 35l315 -4h604q54 0 101 8q8 0 8 -6q2 -6 5.5 -62t9 -127.5t9.5 -107.5q-36 -18 -88 -10 q-19 59 -35.5 94.5t-43.5 66.5t-66 44.5t-96 13.5h-174q-35 0 -59.5 -31t-24.5 -69v-387h166zM702 1706q39 -18 77 -50t57 -63l-7 -24l-294 -119q-35 -14 -72 -14q-14 0 -27.5 9t-13.5 21q0 26 20 43q33 29 116.5 92.5t143.5 104.5z" />
<glyph unicode="&#xca;" horiz-adv-x="1247" d="M662 748q107 0 144.5 24.5t41.5 106.5q9 9 44 9t44 -9q-4 -122 -4 -177q0 -36 4 -180q-9 -9 -44 -9t-44 9q-5 72 -44 101.5t-142 29.5h-166v-469q0 -41 25 -69.5t59 -28.5h206q111 0 183.5 71.5t105.5 190.5q20 5 48 2t44 -12q-5 -30 -14 -105t-18.5 -133t-22.5 -104 q-185 4 -283 4h-481q-217 -2 -317 -4q-9 9 -9 35t9 35q42 2 63.5 4t45.5 8.5t34 17.5t20 32t12.5 49.5t2.5 72.5v819q0 65 -6.5 100t-30 54.5t-52 24t-89.5 7.5q-9 9 -9 35t9 35l315 -4h604q54 0 101 8q8 0 8 -6q2 -6 5.5 -62t9 -127.5t9.5 -107.5q-36 -18 -88 -10 q-19 59 -35.5 94.5t-43.5 66.5t-66 44.5t-96 13.5h-174q-35 0 -59.5 -31t-24.5 -69v-387h166zM930 1483q0 -15 -9.5 -30.5t-23.5 -22.5q-180 56 -254 114q-87 -64 -252 -114q-29 14 -29 55q133 85 261 213l28 10q56 -56 136 -120t143 -105z" />
<glyph unicode="&#xcb;" horiz-adv-x="1247" d="M662 748q107 0 144.5 24.5t41.5 106.5q9 9 44 9t44 -9q-4 -122 -4 -177q0 -36 4 -180q-9 -9 -44 -9t-44 9q-5 72 -44 101.5t-142 29.5h-166v-469q0 -41 25 -69.5t59 -28.5h206q111 0 183.5 71.5t105.5 190.5q20 5 48 2t44 -12q-5 -30 -14 -105t-18.5 -133t-22.5 -104 q-185 4 -283 4h-481q-217 -2 -317 -4q-9 9 -9 35t9 35q42 2 63.5 4t45.5 8.5t34 17.5t20 32t12.5 49.5t2.5 72.5v819q0 65 -6.5 100t-30 54.5t-52 24t-89.5 7.5q-9 9 -9 35t9 35l315 -4h604q54 0 101 8q8 0 8 -6q2 -6 5.5 -62t9 -127.5t9.5 -107.5q-36 -18 -88 -10 q-19 59 -35.5 94.5t-43.5 66.5t-66 44.5t-96 13.5h-174q-35 0 -59.5 -31t-24.5 -69v-387h166zM307 1604q0 50 33 83t82 33t82 -33t33 -83t-32.5 -82.5t-82.5 -32.5t-82.5 32.5t-32.5 82.5zM690 1604q0 49 33.5 82.5t83.5 33.5q49 0 81 -33t32 -83t-32 -82.5t-81 -32.5 q-50 0 -83.5 33t-33.5 82z" />
<glyph unicode="&#xcc;" horiz-adv-x="751" d="M233 1071q0 42 -4 72t-15.5 50t-22.5 31.5t-34 18t-41.5 8.5t-52.5 4q-15 9 -15 35t15 35q164 -4 316 -4q147 0 311 4q15 -9 15 -35t-15 -35q-34 -2 -52.5 -4t-41.5 -8.5t-34 -18t-22.5 -31.5t-15.5 -50t-4 -72v-821q0 -42 4 -72t15.5 -50t22.5 -31.5t34 -18t41.5 -8.5 t52.5 -4q15 -9 15 -35t-15 -35q-164 4 -311 4q-152 0 -316 -4q-15 9 -15 35t15 35q34 2 52.5 4t41.5 8.5t34 18t22.5 31.5t15.5 50t4 72v821zM268 1700q-39 -19 -76 -50t-57 -63l6 -24l295 -119q34 -14 72 -14q14 0 27.5 9t13.5 21q0 26 -21 43q-33 29 -116.5 92.5 t-143.5 104.5z" />
<glyph unicode="&#xcd;" horiz-adv-x="751" d="M233 1071q0 42 -4 72t-15.5 50t-22.5 31.5t-34 18t-41.5 8.5t-52.5 4q-15 9 -15 35t15 35q164 -4 316 -4q147 0 311 4q15 -9 15 -35t-15 -35q-34 -2 -52.5 -4t-41.5 -8.5t-34 -18t-22.5 -31.5t-15.5 -50t-4 -72v-821q0 -42 4 -72t15.5 -50t22.5 -31.5t34 -18t41.5 -8.5 t52.5 -4q15 -9 15 -35t-15 -35q-164 4 -311 4q-152 0 -316 -4q-15 9 -15 35t15 35q34 2 52.5 4t41.5 8.5t34 18t22.5 31.5t15.5 50t4 72v821zM457 1706q39 -18 76.5 -50t56.5 -63l-6 -24l-295 -119q-35 -14 -72 -14q-14 0 -27.5 9t-13.5 21q0 25 21 43q33 29 116.5 92.5 t143.5 104.5z" />
<glyph unicode="&#xce;" horiz-adv-x="751" d="M233 1071q0 42 -4 72t-15.5 50t-22.5 31.5t-34 18t-41.5 8.5t-52.5 4q-15 9 -15 35t15 35q164 -4 316 -4q147 0 311 4q15 -9 15 -35t-15 -35q-34 -2 -52.5 -4t-41.5 -8.5t-34 -18t-22.5 -31.5t-15.5 -50t-4 -72v-821q0 -42 4 -72t15.5 -50t22.5 -31.5t34 -18t41.5 -8.5 t52.5 -4q15 -9 15 -35t-15 -35q-164 4 -311 4q-152 0 -316 -4q-15 9 -15 35t15 35q34 2 52.5 4t41.5 8.5t34 18t22.5 31.5t15.5 50t4 72v821zM649 1483q0 -15 -9.5 -30.5t-23.5 -22.5q-180 56 -254 114q-87 -64 -251 -114q-29 14 -29 55q130 83 260 213l29 10 q56 -56 135.5 -120t142.5 -105z" />
<glyph unicode="&#xcf;" horiz-adv-x="751" d="M233 1071q0 42 -4 72t-15.5 50t-22.5 31.5t-34 18t-41.5 8.5t-52.5 4q-15 9 -15 35t15 35q164 -4 316 -4q147 0 311 4q15 -9 15 -35t-15 -35q-34 -2 -52.5 -4t-41.5 -8.5t-34 -18t-22.5 -31.5t-15.5 -50t-4 -72v-821q0 -42 4 -72t15.5 -50t22.5 -31.5t34 -18t41.5 -8.5 t52.5 -4q15 -9 15 -35t-15 -35q-164 4 -311 4q-152 0 -316 -4q-15 9 -15 35t15 35q34 2 52.5 4t41.5 8.5t34 18t22.5 31.5t15.5 50t4 72v821zM72 1569q0 50 32.5 83.5t81.5 33.5t82 -33.5t33 -83.5q0 -49 -32.5 -82t-82.5 -33q-49 0 -81.5 32.5t-32.5 82.5zM455 1569 q0 50 33.5 83.5t82.5 33.5t81 -33.5t32 -83.5t-32 -82.5t-81 -32.5q-50 0 -83 33t-33 82z" />
<glyph unicode="&#xd0;" horiz-adv-x="1503" d="M520 244q0 -99 42.5 -130.5t154.5 -31.5q49 0 99.5 15.5t101.5 53.5t90 93.5t63.5 143t24.5 194.5q0 74 -3.5 134t-15 130t-31 124t-53.5 106t-80.5 86t-114 54.5t-151.5 20.5q-127 0 -127 -154v-414q83 1 213 7l-20 -103q-118 6 -193 7v-336zM379 0l-316 -4 q-15 9 -15 35t15 35q34 2 52.5 4t41.5 8.5t34 18t22.5 31.5t15.5 50t4 72v330q-76 -1 -198 -7l20 103q110 -6 178 -7v402q0 42 -4 72t-15.5 50t-22.5 31.5t-34 18t-41.5 8.5t-52.5 4q-15 9 -15 35t15 35q234 -4 316 -4q38 0 128 1t148 1q148 0 271 -35.5t211 -98.5 t149 -149.5t90 -189t29 -217.5q0 -153 -45.5 -276t-120.5 -189q-102 -89 -241.5 -130.5t-286.5 -41.5q-41 0 -166 2t-166 2z" />
<glyph unicode="&#xd1;" horiz-adv-x="1515" d="M1292 0q-30 -15 -54 -20t-75 -5q-42 40 -82 91l-686 815q-35 41 -49 41q-16 0 -16 -41v-609q0 -48 2.5 -79t12.5 -54t19.5 -34.5t34.5 -20t45.5 -11.5t63.5 -7q9 -9 9 -35t-9 -35q-204 4 -229 4q-30 0 -230 -4q-9 9 -9 35t9 35q42 4 63.5 7.5t45.5 12t34 20.5t20 35 t12.5 53.5t2.5 77.5v854q-10 45 -55 85t-106 44q-9 9 -9 35t9 35l333 -4l183 -215l543 -640q15 -18 27 -25t20 0t8 32v576q0 36 -1.5 62t-7 47t-10 34.5t-17.5 24t-23 16t-32 10.5t-38.5 7t-49.5 5q-9 9 -9 35t9 35q204 -4 238 -4q21 0 221 4q9 -9 9 -35t-9 -35 q-42 -4 -63.5 -7.5t-45.5 -12t-34 -20.5t-20 -35t-12.5 -53.5t-2.5 -77.5v-840zM885 1604q66 0 100 88q23 0 40 -11.5t17 -29.5q-26 -88 -77 -139.5t-109 -51.5q-76 0 -133 43q-53 35 -119 35q-20 0 -32 -2t-26 -9.5t-24 -25t-18 -45.5q-53 0 -53 37q26 82 72 136t98 54 q88 0 151 -51q36 -28 113 -28z" />
<glyph unicode="&#xd2;" horiz-adv-x="1495" d="M719 1262q-147 0 -240.5 -145.5t-93.5 -442.5q0 -281 113.5 -444.5t287.5 -163.5q153 0 239.5 153.5t86.5 411.5q0 301 -110.5 466t-282.5 165zM1421 674q0 -302 -176 -492q-188 -202 -500 -202q-131 0 -251.5 45.5t-213.5 128t-148.5 207t-55.5 272.5q0 286 166 485 q91 109 220 169.5t281 60.5q188 0 341.5 -82.5t245 -237.5t91.5 -354zM637 1700q-39 -19 -76 -50t-57 -63l6 -24l295 -119q34 -14 72 -14q14 0 27.5 9t13.5 21q0 26 -21 43q-33 29 -116.5 92.5t-143.5 104.5z" />
<glyph unicode="&#xd3;" horiz-adv-x="1495" d="M719 1262q-147 0 -240.5 -145.5t-93.5 -442.5q0 -281 113.5 -444.5t287.5 -163.5q153 0 239.5 153.5t86.5 411.5q0 301 -110.5 466t-282.5 165zM1421 674q0 -302 -176 -492q-188 -202 -500 -202q-131 0 -251.5 45.5t-213.5 128t-148.5 207t-55.5 272.5q0 286 166 485 q91 109 220 169.5t281 60.5q188 0 341.5 -82.5t245 -237.5t91.5 -354zM825 1706q39 -18 76.5 -50t56.5 -63l-6 -24l-295 -119q-35 -14 -71 -14q-14 0 -27.5 9t-13.5 21q0 26 20 43q33 29 116.5 92.5t143.5 104.5z" />
<glyph unicode="&#xd4;" horiz-adv-x="1495" d="M719 1262q-147 0 -240.5 -145.5t-93.5 -442.5q0 -281 113.5 -444.5t287.5 -163.5q153 0 239.5 153.5t86.5 411.5q0 301 -110.5 466t-282.5 165zM1421 674q0 -302 -176 -492q-188 -202 -500 -202q-131 0 -251.5 45.5t-213.5 128t-148.5 207t-55.5 272.5q0 286 166 485 q91 109 220 169.5t281 60.5q188 0 341.5 -82.5t245 -237.5t91.5 -354zM1032 1483q0 -15 -9.5 -30.5t-23.5 -22.5q-180 56 -254 114q-87 -64 -251 -114q-29 14 -29 55q130 83 260 213l29 10q56 -56 135.5 -120t142.5 -105z" />
<glyph unicode="&#xd5;" horiz-adv-x="1495" d="M870 1561q67 0 101 88q23 0 40 -11.5t17 -29.5q-26 -88 -77 -139.5t-109 -51.5q-76 0 -133 43q-53 35 -119 35q-20 0 -32 -2t-26 -9.5t-24.5 -25t-18.5 -45.5q-53 0 -53 37q26 82 72 136t98 54q89 0 152 -51q36 -28 112 -28zM719 1262q-147 0 -240.5 -145.5t-93.5 -442.5 q0 -281 113.5 -444.5t287.5 -163.5q153 0 239.5 153.5t86.5 411.5q0 301 -110.5 466t-282.5 165zM1421 674q0 -302 -176 -492q-188 -202 -500 -202q-131 0 -251.5 45.5t-213.5 128t-148.5 207t-55.5 272.5q0 286 166 485q91 109 220 169.5t281 60.5q188 0 341.5 -82.5 t245 -237.5t91.5 -354z" />
<glyph unicode="&#xd6;" horiz-adv-x="1495" d="M164 1468q0 50 33 83.5t82 33.5t81.5 -33.5t32.5 -83.5t-32.5 -82t-81.5 -32q-50 0 -82.5 32.5t-32.5 81.5zM1104 1468q0 50 34 83.5t83 33.5t80.5 -33.5t31.5 -83.5t-31.5 -82t-80.5 -32q-50 0 -83.5 32.5t-33.5 81.5zM719 1262q-147 0 -240.5 -145.5t-93.5 -442.5 q0 -281 113.5 -444.5t287.5 -163.5q153 0 239.5 153.5t86.5 411.5q0 301 -110.5 466t-282.5 165zM1421 674q0 -302 -176 -492q-188 -202 -500 -202q-131 0 -251.5 45.5t-213.5 128t-148.5 207t-55.5 272.5q0 286 166 485q91 109 220 169.5t281 60.5q188 0 341.5 -82.5 t245 -237.5t91.5 -354z" />
<glyph unicode="&#xd7;" horiz-adv-x="1079" d="M627 475l245 -248l-88 -86l-247 242l-242 -242l-84 86l242 238l-242 244l90 96l244 -246l237 246l90 -86z" />
<glyph unicode="&#xd8;" horiz-adv-x="1495" d="M180 -92l-74 63l160 196q-190 183 -190 466q0 286 166 485q91 109 220 169.5t281 60.5q221 0 391 -113l111 137l76 -59l-111 -137q100 -91 155.5 -219t55.5 -283q0 -302 -176 -492q-188 -202 -500 -202q-229 0 -404 125zM719 1262q-147 0 -240.5 -145.5t-93.5 -442.5 q0 -173 45 -305l580 714q-53 88 -128 133.5t-163 45.5zM1056 987l-582 -717q55 -99 135.5 -151.5t176.5 -52.5q153 0 239.5 153.5t86.5 411.5q0 208 -56 356z" />
<glyph unicode="&#xd9;" horiz-adv-x="1499" d="M465 1069v-518q0 -63 2.5 -105t11.5 -98t31.5 -101t58.5 -79q107 -102 244 -102q72 0 129.5 16.5t96.5 42.5t67.5 66.5t44 81.5t25 95t12 98.5t2.5 100.5v502q0 33 -1 56.5t-7 42.5t-10.5 31t-18.5 22t-23.5 14.5t-34 9t-41 6t-53.5 4.5q-9 9 -9 35t9 35q188 -4 261 -4 q59 0 219 4q9 -9 9 -35t-9 -35q-33 -3 -47.5 -5t-36 -7t-30 -12.5t-20 -20.5t-15 -32t-6.5 -45.5t-3 -63.5v-465q0 -113 -17 -205.5t-57 -171.5t-102.5 -132.5t-158 -84t-218.5 -30.5q-282 0 -414 86q-178 115 -178 417v586q0 65 -6.5 100.5t-27.5 54t-46 23.5t-78 8 q-9 9 -9 35t9 35q204 -4 299 -4q134 0 334 4q9 -9 9 -35t-9 -35q-45 -2 -69.5 -4t-49 -9t-35 -18t-20 -32.5t-12 -50t-2.5 -72.5zM637 1700q-39 -19 -76 -50t-57 -63l6 -24l295 -119q34 -14 72 -14q14 0 27.5 9t13.5 21q0 26 -21 43q-33 29 -116.5 92.5t-143.5 104.5z" />
<glyph unicode="&#xda;" horiz-adv-x="1499" d="M465 1069v-518q0 -63 2.5 -105t11.5 -98t31.5 -101t58.5 -79q107 -102 244 -102q72 0 129.5 16.5t96.5 42.5t67.5 66.5t44 81.5t25 95t12 98.5t2.5 100.5v502q0 33 -1 56.5t-7 42.5t-10.5 31t-18.5 22t-23.5 14.5t-34 9t-41 6t-53.5 4.5q-9 9 -9 35t9 35q188 -4 261 -4 q59 0 219 4q9 -9 9 -35t-9 -35q-33 -3 -47.5 -5t-36 -7t-30 -12.5t-20 -20.5t-15 -32t-6.5 -45.5t-3 -63.5v-465q0 -113 -17 -205.5t-57 -171.5t-102.5 -132.5t-158 -84t-218.5 -30.5q-282 0 -414 86q-178 115 -178 417v586q0 65 -6.5 100.5t-27.5 54t-46 23.5t-78 8 q-9 9 -9 35t9 35q204 -4 299 -4q134 0 334 4q9 -9 9 -35t-9 -35q-45 -2 -69.5 -4t-49 -9t-35 -18t-20 -32.5t-12 -50t-2.5 -72.5zM907 1706q39 -18 76.5 -50t56.5 -63l-6 -24l-295 -119q-35 -14 -71 -14q-14 0 -27.5 9t-13.5 21q0 26 20 43q33 29 116.5 92.5t143.5 104.5z " />
<glyph unicode="&#xdb;" horiz-adv-x="1499" d="M465 1069v-518q0 -63 2.5 -105t11.5 -98t31.5 -101t58.5 -79q107 -102 244 -102q72 0 129.5 16.5t96.5 42.5t67.5 66.5t44 81.5t25 95t12 98.5t2.5 100.5v502q0 33 -1 56.5t-7 42.5t-10.5 31t-18.5 22t-23.5 14.5t-34 9t-41 6t-53.5 4.5q-9 9 -9 35t9 35q188 -4 261 -4 q59 0 219 4q9 -9 9 -35t-9 -35q-33 -3 -47.5 -5t-36 -7t-30 -12.5t-20 -20.5t-15 -32t-6.5 -45.5t-3 -63.5v-465q0 -113 -17 -205.5t-57 -171.5t-102.5 -132.5t-158 -84t-218.5 -30.5q-282 0 -414 86q-178 115 -178 417v586q0 65 -6.5 100.5t-27.5 54t-46 23.5t-78 8 q-9 9 -9 35t9 35q204 -4 299 -4q134 0 334 4q9 -9 9 -35t-9 -35q-45 -2 -69.5 -4t-49 -9t-35 -18t-20 -32.5t-12 -50t-2.5 -72.5zM1073 1483q0 -15 -9.5 -30.5t-23.5 -22.5q-180 56 -254 114q-87 -64 -251 -114q-29 14 -29 55q130 83 260 213l29 10q56 -56 135.5 -120 t142.5 -105z" />
<glyph unicode="&#xdc;" horiz-adv-x="1499" d="M539 1427q0 50 32.5 83.5t81.5 33.5t82 -33.5t33 -83.5q0 -49 -32.5 -81.5t-82.5 -32.5q-49 0 -81.5 32.5t-32.5 81.5zM881 1427q0 50 33.5 83.5t82.5 33.5t81 -33.5t32 -83.5t-32 -82t-81 -32q-50 0 -83 32.5t-33 81.5zM465 1069v-518q0 -63 2.5 -105t11.5 -98 t31.5 -101t58.5 -79q107 -102 244 -102q72 0 129.5 16.5t96.5 42.5t67.5 66.5t44 81.5t25 95t12 98.5t2.5 100.5v502q0 82 -6 121t-13 47.5t-26 17.5q-9 9 -9 35t9 35q78 -4 117 -4q19 0 219 4q9 -9 9 -35t-9 -35q-31 -4 -43 -5.5t-33.5 -5.5t-28.5 -9t-19.5 -14.5 t-16 -21.5t-9.5 -31t-7 -43t-1 -56v-465q0 -113 -17 -205.5t-57 -171.5t-102.5 -132.5t-158 -84t-218.5 -30.5q-282 0 -414 86q-178 115 -178 417v586q0 65 -6.5 100.5t-27.5 54t-46 23.5t-78 8q-9 9 -9 35t9 35q204 -4 299 -4q113 0 191 4q9 -9 9 -35t-9 -35 q-20 -3 -28 -13.5t-12.5 -49t-4.5 -123.5z" />
<glyph unicode="&#xdd;" horiz-adv-x="1337" d="M793 250q0 -44 2.5 -72.5t13 -49.5t21.5 -31.5t37.5 -17.5t51 -9t72.5 -4q9 -9 9 -35t-9 -35q-204 4 -325 4q-159 0 -359 -4q-9 9 -9 35t9 35q48 2 72.5 4t51.5 9t38 17.5t21.5 31.5t13 49.5t2.5 72.5v280q0 56 -6.5 80t-34.5 70l-261 440q-48 82 -85.5 106t-106.5 29 q-9 9 -10 35t8 35q122 -4 291 -4q90 0 254 4q9 -9 9 -35t-9 -35q-82 -4 -95.5 -30t23.5 -84l214 -377q26 -45 46 -6l211 397q24 45 -4.5 70t-99.5 30q-9 9 -9 35t9 35q164 -4 227 -4q69 0 191 4q9 -9 9 -35t-9 -35q-75 -7 -110 -24.5t-68 -73.5l-263 -438q-34 -55 -34 -171 v-298zM846 1706q39 -18 76.5 -50t56.5 -63l-6 -24l-295 -119q-35 -14 -72 -14q-14 0 -27.5 9t-13.5 21q0 25 21 43q33 29 116.5 92.5t143.5 104.5z" />
<glyph unicode="&#xde;" horiz-adv-x="1261" d="M233 1071q0 42 -4 72t-15.5 50t-22.5 31.5t-34 18t-41.5 8.5t-52.5 4q-15 9 -15 35t15 35q164 -4 316 -4q147 0 311 4q15 -9 15 -35t-15 -35q-34 -2 -52.5 -4t-41.5 -8.5t-34 -18t-22.5 -31.5t-15.5 -50t-4 -72v-4q75 4 201 4q109 0 194 -25t136 -63t84 -89t45 -97.5 t12 -94.5q0 -49 -16.5 -100.5t-55 -105t-94 -95t-142 -68t-190.5 -26.5q-132 0 -174 12v-69q0 -42 4 -72t15.5 -50t22.5 -31.5t34 -18t41.5 -8.5t52.5 -4q15 -9 15 -35t-15 -35q-164 4 -311 4q-152 0 -316 -4q-15 9 -15 35t15 35q34 2 52.5 4t41.5 8.5t34 18t22.5 31.5 t15.5 50t4 72v821zM520 398q39 -7 139 -7q113 0 168.5 73.5t55.5 237.5q0 136 -48 210.5t-139 74.5q-17 0 -84 -4.5t-92 -4.5v-580z" />
<glyph unicode="&#xdf;" horiz-adv-x="1259" d="M205 258v496q0 19 -5 24.5t-26 7.5l-90 11q-23 2 -23 10v41q0 14 17 27.5t41 13.5q86 0 86 98q0 96 37 174.5t93 127t126 81.5t132 46.5t114 13.5q148 0 227 -41q61 -32 97 -94t36 -113q0 -62 -24.5 -122.5t-67.5 -103.5q-10 -10 -21.5 -19t-20.5 -16t-24.5 -16 t-23.5 -13.5t-27 -13.5t-25.5 -12t-28 -12.5t-26.5 -11.5v-4q77 -26 146.5 -71.5t126.5 -106t91 -140.5t34 -166q0 -159 -104 -266.5t-247 -107.5q-119 0 -179 65t-60 156q0 32 25.5 65t64.5 33t69.5 -23.5t30.5 -58.5q0 -20 -15.5 -52.5t-15.5 -55.5q0 -18 25.5 -30.5 t54.5 -12.5q20 0 33 23t18.5 66.5t7 78.5t1.5 85q0 148 -53.5 262.5t-178.5 209.5v47q34 26 57.5 48.5t39 48t24 44.5t12.5 51.5t4.5 55t0.5 69.5q0 188 -123 188q-53 0 -92.5 -35t-61.5 -96.5t-32.5 -135.5t-10.5 -161v-653q0 -61 5 -101.5t14.5 -59t17 -25t18.5 -10.5 q9 -9 9 -35t-9 -35q-47 4 -188 4q-119 0 -291 -4q-9 9 -9 35t9 35q52 2 78.5 8.5t46.5 27t26.5 56.5t6.5 100z" />
<glyph unicode="&#xe0;" horiz-adv-x="1036" d="M605 99l-13 -1q-56 -43 -130 -80.5t-116 -37.5q-132 0 -194 54t-62 161q0 34 9.5 63.5t25 52.5t42.5 44t54 37t69 33t78 29t89 29l137 43q0 76 -8.5 130.5t-22 86.5t-35 50.5t-42.5 24t-50 5.5q-80 0 -86 -46q-3 -20 3 -54t6 -43q0 -38 -37 -66.5t-90 -28.5 q-106 0 -106 104q0 63 64.5 115.5t150.5 78.5t165 26q350 0 350 -354l-4 -295q0 -77 12 -107t45 -30q47 0 86 29q29 -21 37 -58q-60 -57 -123.5 -85.5t-144.5 -28.5q-139 0 -159 119zM594 446l-107 -34q-42 -14 -71 -31t-44.5 -33t-24 -38.5t-10 -39.5t-1.5 -45 q0 -53 29 -88t90 -35q47 0 139 74v270zM442 1380l142 -254q18 -31 18 -53q0 -13 -10.5 -23t-24.5 -10q-25 0 -71 41l-248 215l4 23q18 21 59.5 43t89.5 22q25 0 41 -4z" />
<glyph unicode="&#xe1;" horiz-adv-x="1036" d="M524 1380q12 4 33 4q41 0 71.5 -15t45.5 -34l20 -47l-245 -221q-38 -33 -78 -33q-12 0 -22.5 10t-10.5 19q0 25 16 49zM605 99l-13 -1q-56 -43 -130 -80.5t-116 -37.5q-132 0 -194 54t-62 161q0 34 9.5 63.5t25 52.5t42.5 44t54 37t69 33t78 29t89 29l137 43 q0 76 -8.5 130.5t-22 86.5t-35 50.5t-42.5 24t-50 5.5q-80 0 -86 -46q-3 -20 3 -54t6 -43q0 -38 -37 -66.5t-90 -28.5q-106 0 -106 104q0 63 64.5 115.5t150.5 78.5t165 26q350 0 350 -354l-4 -295q0 -77 12 -107t45 -30q47 0 86 29q29 -21 37 -58q-60 -57 -123.5 -85.5 t-144.5 -28.5q-139 0 -159 119zM594 446l-107 -34q-42 -14 -71 -31t-44.5 -33t-24 -38.5t-10 -39.5t-1.5 -45q0 -53 29 -88t90 -35q47 0 139 74v270z" />
<glyph unicode="&#xe2;" horiz-adv-x="1036" d="M551 1358q70 -115 215 -275l-51 -39q-135 81 -219 170q-37 -38 -75 -69.5t-64 -49.5t-78 -51l-52 39q156 177 217 275h107zM605 99l-13 -1q-56 -43 -130 -80.5t-116 -37.5q-132 0 -194 54t-62 161q0 34 9.5 63.5t25 52.5t42.5 44t54 37t69 33t78 29t89 29l137 43 q0 76 -8.5 130.5t-22 86.5t-35 50.5t-42.5 24t-50 5.5q-80 0 -86 -46q-3 -20 3 -54t6 -43q0 -38 -37 -66.5t-90 -28.5q-106 0 -106 104q0 63 64.5 115.5t150.5 78.5t165 26q350 0 350 -354l-4 -295q0 -77 12 -107t45 -30q47 0 86 29q29 -21 37 -58q-60 -57 -123.5 -85.5 t-144.5 -28.5q-139 0 -159 119zM594 446l-107 -34q-42 -14 -71 -31t-44.5 -33t-24 -38.5t-10 -39.5t-1.5 -45q0 -53 29 -88t90 -35q47 0 139 74v270z" />
<glyph unicode="&#xe3;" horiz-adv-x="1036" d="M610 1206q67 0 101 88q23 0 40 -11.5t17 -29.5q-26 -88 -77 -139t-109 -51q-76 0 -133 43q-53 35 -119 35q-20 0 -32 -2t-26 -9.5t-24.5 -25t-18.5 -45.5q-53 0 -53 37q26 82 72 136t98 54q89 0 152 -51q37 -29 112 -29zM605 99l-13 -1q-56 -43 -130 -80.5t-116 -37.5 q-132 0 -194 54t-62 161q0 34 9.5 63.5t25 52.5t42.5 44t54 37t69 33t78 29t89 29l137 43q0 76 -8.5 130.5t-22 86.5t-35 50.5t-42.5 24t-50 5.5q-80 0 -86 -46q-3 -20 3 -54t6 -43q0 -38 -37 -66.5t-90 -28.5q-106 0 -106 104q0 63 64.5 115.5t150.5 78.5t165 26 q350 0 350 -354l-4 -295q0 -77 12 -107t45 -30q47 0 86 29q29 -21 37 -58q-60 -57 -123.5 -85.5t-144.5 -28.5q-139 0 -159 119zM594 446l-107 -34q-42 -14 -71 -31t-44.5 -33t-24 -38.5t-10 -39.5t-1.5 -45q0 -53 29 -88t90 -35q47 0 139 74v270z" />
<glyph unicode="&#xe4;" horiz-adv-x="1036" d="M565 1174q0 47 33 79.5t80 32.5q46 0 79.5 -32.5t33.5 -79.5q0 -46 -33.5 -78.5t-79.5 -32.5q-47 0 -80 32.5t-33 78.5zM184 1174q0 47 33.5 79.5t79.5 32.5q47 0 80 -32.5t33 -79.5q0 -46 -33 -78.5t-80 -32.5q-46 0 -79.5 32.5t-33.5 78.5zM605 99l-13 -1 q-56 -43 -130 -80.5t-116 -37.5q-132 0 -194 54t-62 161q0 34 9.5 63.5t25 52.5t42.5 44t54 37t69 33t78 29t89 29l137 43q0 76 -8.5 130.5t-22 86.5t-35 50.5t-42.5 24t-50 5.5q-80 0 -86 -46q-3 -20 3 -54t6 -43q0 -38 -37 -66.5t-90 -28.5q-106 0 -106 104 q0 63 64.5 115.5t150.5 78.5t165 26q350 0 350 -354l-4 -295q0 -77 12 -107t45 -30q47 0 86 29q29 -21 37 -58q-60 -57 -123.5 -85.5t-144.5 -28.5q-139 0 -159 119zM594 446l-107 -34q-42 -14 -71 -31t-44.5 -33t-24 -38.5t-10 -39.5t-1.5 -45q0 -53 29 -88t90 -35 q47 0 139 74v270z" />
<glyph unicode="&#xe5;" horiz-adv-x="1036" d="M455 1292q-42 0 -69.5 -28.5t-27.5 -71.5q0 -41 27 -70.5t70 -29.5t70.5 29.5t27.5 70.5q0 44 -28 72t-70 28zM281 1192q0 70 51 120t123 50q70 0 123 -49.5t53 -120.5q0 -69 -52 -119.5t-124 -50.5q-71 0 -122.5 50t-51.5 120zM605 99l-13 -1q-56 -43 -130 -80.5 t-116 -37.5q-132 0 -194 54t-62 161q0 34 9.5 63.5t25 52.5t42.5 44t54 37t69 33t78 29t89 29l137 43q0 76 -8.5 130.5t-22 86.5t-35 50.5t-42.5 24t-50 5.5q-80 0 -86 -46q-3 -20 3 -54t6 -43q0 -38 -37 -66.5t-90 -28.5q-106 0 -106 104q0 63 64.5 115.5t150.5 78.5 t165 26q350 0 350 -354l-4 -295q0 -77 12 -107t45 -30q47 0 86 29q29 -21 37 -58q-60 -57 -123.5 -85.5t-144.5 -28.5q-139 0 -159 119zM594 446l-107 -34q-42 -14 -71 -31t-44.5 -33t-24 -38.5t-10 -39.5t-1.5 -45q0 -53 29 -88t90 -35q47 0 139 74v270z" />
<glyph unicode="&#xe6;" horiz-adv-x="1464" d="M1028 823q-139 0 -172 -301q16 1 47.5 3t48 3t44.5 3t44 4t38.5 5t36.5 6.5t29 8.5t25 11t17 14q0 66 -15 119t-51.5 88.5t-91.5 35.5zM582 190q4 8 6.5 25t4 45t2 50t1 60.5t0.5 57.5q-140 -18 -213.5 -73t-73.5 -128q0 -50 10 -80q22 -65 84 -65q47 0 99 26t80 82z M1073 145q69 0 154 30t143 89q14 0 22.5 -20t8.5 -43q-150 -221 -363 -221q-167 0 -247 57q-3 2 -13 9t-13.5 9.5t-12 9t-12.5 10t-11 10t-11.5 11.5t-10 12t-9.5 14t-8 15q-60 -75 -159.5 -116t-157.5 -41q-136 0 -201 44q-42 29 -69 77t-27 102q0 128 132 205.5t388 99.5 q0 315 -150 315q-129 0 -129 -63q0 -22 7.5 -50t7.5 -38q0 -29 -28 -56.5t-89 -27.5q-51 0 -78.5 31.5t-27.5 74.5q0 58 55 109t133.5 78.5t153.5 27.5q44 0 86.5 -7t85.5 -22.5t77.5 -44.5t53.5 -69q58 82 129 112.5t168 30.5q350 0 350 -305q0 -1 -8 -100 q-36 -23 -120.5 -36.5t-160.5 -16.5t-204 -6q-37 -1 -56 -1q1 -149 61.5 -224t159.5 -75z" />
<glyph unicode="&#xe7;" horiz-adv-x="933" d="M354 -207l-12 12l90 179q-138 16 -229 102q-60 57 -93.5 142.5t-33.5 183.5q0 111 37 205t99.5 157.5t144.5 99t173 35.5q155 0 244.5 -67.5t89.5 -145.5q0 -48 -31.5 -81t-80.5 -33q-50 0 -86.5 27.5t-40.5 68.5q-5 58 -33 101.5t-80 43.5q-160 0 -160 -340 q0 -176 76.5 -266t198.5 -90q87 0 211 115q26 0 26 -64q-59 -86 -155 -142t-187 -56h-20l-27 -64q190 -39 190 -172q0 -77 -69.5 -130.5t-169.5 -53.5q-46 0 -69 6.5t-62 27.5q0 45 20 54q35 -13 48 -17t32 -8t39 -4q47 0 75 22t28 62q0 27 -16.5 45.5t-48.5 27t-56.5 12 t-61.5 5.5z" />
<glyph unicode="&#xe8;" horiz-adv-x="1001" d="M471 1380l141 -254q19 -33 19 -53q0 -13 -10.5 -23t-24.5 -10q-26 0 -72 41l-248 215l5 23q18 21 59.5 43t89.5 22q25 0 41 -4zM362 563h279q4 4 4 43q0 111 -40.5 164t-90.5 53q-22 0 -55.5 -18t-55.5 -51q-37 -56 -41 -191zM883 264q14 0 22 -20t8 -43 q-75 -110 -174.5 -165.5t-208.5 -55.5q-211 0 -323 102q-64 57 -97.5 143.5t-33.5 180.5q0 113 41.5 210t108.5 159.5t148 98t163 35.5q87 0 153.5 -21.5t106.5 -56t65 -83.5t34 -98t9 -105q0 -64 -59 -64h-492q0 -4 -1 -14t-1 -18q0 -147 67.5 -220t190.5 -73 q168 0 273 108z" />
<glyph unicode="&#xe9;" horiz-adv-x="1001" d="M578 1380q12 4 32 4q41 0 71.5 -15t45.5 -34l21 -47l-246 -221q-38 -33 -78 -33q-12 0 -22.5 10t-10.5 19q0 23 17 49zM362 563h279q4 4 4 43q0 111 -40.5 164t-90.5 53q-22 0 -55.5 -18t-55.5 -51q-37 -56 -41 -191zM883 264q14 0 22 -20t8 -43q-75 -110 -174.5 -165.5 t-208.5 -55.5q-211 0 -323 102q-64 57 -97.5 143.5t-33.5 180.5q0 113 41.5 210t108.5 159.5t148 98t163 35.5q87 0 153.5 -21.5t106.5 -56t65 -83.5t34 -98t9 -105q0 -64 -59 -64h-492q0 -4 -1 -14t-1 -18q0 -147 67.5 -220t190.5 -73q168 0 273 108z" />
<glyph unicode="&#xea;" horiz-adv-x="1001" d="M551 1358q70 -115 215 -275l-51 -39q-135 81 -219 170q-37 -38 -75 -69.5t-64 -49.5t-78 -51l-52 39q156 177 217 275h107zM362 563h279q4 4 4 43q0 111 -40.5 164t-90.5 53q-22 0 -55.5 -18t-55.5 -51q-37 -56 -41 -191zM883 264q14 0 22 -20t8 -43 q-75 -110 -174.5 -165.5t-208.5 -55.5q-211 0 -323 102q-64 57 -97.5 143.5t-33.5 180.5q0 113 41.5 210t108.5 159.5t148 98t163 35.5q87 0 153.5 -21.5t106.5 -56t65 -83.5t34 -98t9 -105q0 -64 -59 -64h-492q0 -4 -1 -14t-1 -18q0 -147 67.5 -220t190.5 -73 q168 0 273 108z" />
<glyph unicode="&#xeb;" horiz-adv-x="1001" d="M578 1174q0 47 32.5 79.5t79.5 32.5q46 0 79.5 -32.5t33.5 -79.5q0 -46 -33.5 -78.5t-79.5 -32.5q-47 0 -79.5 32.5t-32.5 78.5zM197 1174q0 47 33 79.5t79 32.5q47 0 80 -32.5t33 -79.5q0 -46 -33 -78.5t-80 -32.5q-46 0 -79 32.5t-33 78.5zM362 571h279q4 4 4 43 q0 111 -40.5 164t-90.5 53q-22 0 -55.5 -18t-55.5 -51q-37 -56 -41 -191zM883 272q14 0 22 -20t8 -43q-75 -110 -174.5 -165.5t-208.5 -55.5q-211 0 -323 102q-64 57 -97.5 143.5t-33.5 180.5q0 113 41.5 210t108.5 160t148 98.5t163 35.5q87 0 153.5 -21.5t106.5 -56.5 t65 -84t34 -98t9 -105q0 -64 -59 -64h-492q0 -5 -1 -15t-1 -17q0 -147 67.5 -220t190.5 -73q168 0 273 108z" />
<glyph unicode="&#xec;" horiz-adv-x="659" d="M244 1380l141 -254q18 -31 18 -53q0 -13 -10 -23t-24 -10q-26 0 -72 41l-248 215l4 23q18 21 60 43t90 22q25 0 41 -4zM475 250q0 -44 1.5 -72t9.5 -49.5t15.5 -31.5t28 -17t38.5 -9.5t55 -4.5q9 -9 9 -35t-9 -35q-176 4 -281 4q-109 0 -281 -4q-9 9 -9 35t9 35 q38 3 55 5t38 9.5t28.5 17.5t15.5 31t9.5 49t1.5 72v393q0 86 -23.5 110.5t-109.5 32.5q-3 10 -5 33t1 33q28 4 84.5 10.5t90 11t75 10.5t69.5 12t45 13q47 0 47 -35q-8 -114 -8 -216v-408z" />
<glyph unicode="&#xed;" horiz-adv-x="659" d="M358 1380q12 4 33 4q41 0 71.5 -15t45.5 -34l20 -47l-245 -221q-38 -33 -78 -33q-12 0 -22.5 10t-10.5 19q0 25 16 49zM475 250q0 -44 1.5 -72t9.5 -49.5t15.5 -31.5t28 -17t38.5 -9.5t55 -4.5q9 -9 9 -35t-9 -35q-176 4 -281 4q-109 0 -281 -4q-9 9 -9 35t9 35 q38 3 55 5t38 9.5t28.5 17.5t15.5 31t9.5 49t1.5 72v393q0 86 -23.5 110.5t-109.5 32.5q-3 10 -5 33t1 33q28 4 84.5 10.5t90 11t75 10.5t69.5 12t45 13q47 0 47 -35q-8 -114 -8 -216v-408z" />
<glyph unicode="&#xee;" horiz-adv-x="659" d="M367 1358q70 -115 215 -275l-52 -39q-135 81 -219 170q-37 -38 -75 -69.5t-64 -49.5t-78 -51l-51 39q156 177 217 275h107zM475 250q0 -44 1.5 -72t9.5 -49.5t15.5 -31.5t28 -17t38.5 -9.5t55 -4.5q9 -9 9 -35t-9 -35q-176 4 -281 4q-109 0 -281 -4q-9 9 -9 35t9 35 q38 3 55 5t38 9.5t28.5 17.5t15.5 31t9.5 49t1.5 72v393q0 86 -23.5 110.5t-109.5 32.5q-3 10 -5 33t1 33q28 4 84.5 10.5t90 11t75 10.5t69.5 12t45 13q47 0 47 -35q-8 -114 -8 -216v-408z" />
<glyph unicode="&#xef;" horiz-adv-x="659" d="M387 1174q0 47 33 79.5t80 32.5q46 0 79 -32.5t33 -79.5q0 -46 -33 -78.5t-79 -32.5q-47 0 -80 32.5t-33 78.5zM6 1174q0 47 33.5 79.5t79.5 32.5q47 0 79.5 -32.5t32.5 -79.5q0 -46 -32.5 -78.5t-79.5 -32.5q-46 0 -79.5 32.5t-33.5 78.5zM475 250q0 -44 1.5 -72 t9.5 -49.5t15.5 -31.5t28 -17t38.5 -9.5t55 -4.5q9 -9 9 -35t-9 -35q-176 4 -281 4q-109 0 -281 -4q-9 9 -9 35t9 35q38 3 55 5t38 9.5t28.5 17.5t15.5 31t9.5 49t1.5 72v393q0 86 -23.5 110.5t-109.5 32.5q-3 10 -5 33t1 33q28 4 84.5 10.5t90 11t75 10.5t69.5 12t45 13 q47 0 47 -35q-8 -114 -8 -216v-408z" />
<glyph unicode="&#xf0;" horiz-adv-x="1144" d="M72 428q0 221 164 354q77 63 172.5 95t177.5 32q46 0 104 -10q-62 142 -162 242q-113 -79 -225 -152l-49 74l215 143q-110 110 -172 154l51 70q164 -87 238 -146q40 28 123.5 83.5t105.5 70.5l49 -74l-202 -135q62 -56 95 -87t85.5 -88.5t85.5 -107.5q129 -193 129 -457 q0 -257 -137 -383q-68 -63 -166.5 -94.5t-202.5 -31.5q-102 0 -193.5 40t-153 104t-97 144t-35.5 160zM584 66q33 0 62.5 17t59 57.5t47 123t17.5 197.5q0 124 -22 278q-77 84 -166 84q-61 0 -106.5 -34t-70 -89.5t-36 -114.5t-11.5 -120q0 -167 68 -283t158 -116z" />
<glyph unicode="&#xf1;" horiz-adv-x="1261" d="M739 1206q67 0 101 88q23 0 40 -11.5t17 -29.5q-26 -88 -77 -139t-109 -51q-76 0 -133 43q-53 35 -119 35q-20 0 -32 -2t-26 -9.5t-24.5 -25t-18.5 -45.5q-53 0 -53 37q26 82 72 136t98 54q89 0 152 -51q37 -29 112 -29zM467 250q0 -44 1.5 -72.5t7.5 -49t11.5 -31.5 t20 -17.5t27 -9t38.5 -4.5q9 -9 9 -35t-9 -35q-176 4 -239 4q-109 0 -281 -4q-9 9 -9 35t9 35q38 3 55 5t38 9.5t28.5 17.5t15.5 31t9.5 49t1.5 72v383q0 86 -23.5 110.5t-109.5 32.5q-3 10 -5.5 33t0.5 33q166 21 340 67q45 0 48 -35q8 -60 13 -132q245 167 341 167 q272 0 272 -327v-320q0 -66 6.5 -102.5t26.5 -57.5t46.5 -27.5t78.5 -8.5q9 -9 9 -35t-9 -35q-176 4 -291 4q-78 0 -250 -4q-9 9 -9 35t9 35q47 3 69 15.5t35 54t13 126.5v342q0 154 -143 154q-27 0 -83.5 -27t-117.5 -69v-4v-408z" />
<glyph unicode="&#xf2;" horiz-adv-x="1128" d="M500 1380l141 -254q18 -31 18 -53q0 -13 -10 -23t-24 -10q-26 0 -72 41l-248 215l4 23q18 21 60 43t90 22q25 0 41 -4zM532 823q-170 0 -170 -354q0 -61 13.5 -127.5t40 -130t73.5 -104.5t107 -41q30 0 58 15t54.5 47.5t42 96.5t15.5 152q0 208 -64 327t-170 119zM76 424 q0 206 112 334q132 151 377 151q224 0 356 -131t132 -336q0 -95 -33.5 -188t-106.5 -158q-130 -116 -350 -116q-209 0 -348 123.5t-139 320.5z" />
<glyph unicode="&#xf3;" horiz-adv-x="1128" d="M578 1380q12 4 32 4q41 0 71.5 -15t45.5 -34l21 -47l-246 -221q-38 -33 -78 -33q-12 0 -22.5 10t-10.5 19q0 23 17 49zM532 823q-170 0 -170 -354q0 -61 13.5 -127.5t40 -130t73.5 -104.5t107 -41q30 0 58 15t54.5 47.5t42 96.5t15.5 152q0 208 -64 327t-170 119zM76 424 q0 206 112 334q132 151 377 151q224 0 356 -131t132 -336q0 -95 -33.5 -188t-106.5 -158q-130 -116 -350 -116q-209 0 -348 123.5t-139 320.5z" />
<glyph unicode="&#xf4;" horiz-adv-x="1128" d="M621 1358q70 -115 215 -275l-52 -39q-135 81 -219 170q-37 -38 -75 -69.5t-64 -49.5t-78 -51l-51 39q156 177 217 275h107zM532 823q-170 0 -170 -354q0 -61 13.5 -127.5t40 -130t73.5 -104.5t107 -41q30 0 58 15t54.5 47.5t42 96.5t15.5 152q0 208 -64 327t-170 119z M76 424q0 206 112 334q132 151 377 151q224 0 356 -131t132 -336q0 -95 -33.5 -188t-106.5 -158q-130 -116 -350 -116q-209 0 -348 123.5t-139 320.5z" />
<glyph unicode="&#xf5;" horiz-adv-x="1128" d="M666 1206q66 0 100 88q23 0 40 -11.5t17 -29.5q-26 -88 -77 -139t-109 -51q-76 0 -133 43q-53 35 -119 35q-20 0 -32 -2t-26 -9.5t-24 -25t-18 -45.5q-54 0 -54 37q26 82 72 136t98 54q89 0 152 -51q37 -29 113 -29zM532 823q-170 0 -170 -354q0 -61 13.5 -127.5t40 -130 t73.5 -104.5t107 -41q30 0 58 15t54.5 47.5t42 96.5t15.5 152q0 208 -64 327t-170 119zM76 424q0 206 112 334q132 151 377 151q224 0 356 -131t132 -336q0 -95 -33.5 -188t-106.5 -158q-130 -116 -350 -116q-209 0 -348 123.5t-139 320.5z" />
<glyph unicode="&#xf6;" horiz-adv-x="1128" d="M635 1174q0 47 33 79.5t80 32.5q46 0 79 -32.5t33 -79.5q0 -46 -33 -78.5t-79 -32.5q-47 0 -80 32.5t-33 78.5zM254 1174q0 47 33.5 79.5t79.5 32.5q47 0 79.5 -32.5t32.5 -79.5q0 -46 -32.5 -78.5t-79.5 -32.5q-46 0 -79.5 32.5t-33.5 78.5zM532 823q-170 0 -170 -354 q0 -61 13.5 -127.5t40 -130t73.5 -104.5t107 -41q30 0 58 15t54.5 47.5t42 96.5t15.5 152q0 208 -64 327t-170 119zM76 424q0 206 112 334q132 151 377 151q224 0 356 -131t132 -336q0 -95 -33.5 -188t-106.5 -158q-130 -116 -350 -116q-209 0 -348 123.5t-139 320.5z" />
<glyph unicode="&#xf7;" horiz-adv-x="1105" d="M424 788q0 50 37.5 86t89.5 36t88 -34.5t36 -84.5q0 -49 -37.5 -84.5t-89.5 -35.5t-88 34t-36 83zM424 173q0 50 37.5 86t89.5 36t88 -34t36 -84q0 -49 -37.5 -84.5t-89.5 -35.5t-88 33.5t-36 82.5zM969 545l-21 -123h-817l21 123h817z" />
<glyph unicode="&#xf8;" horiz-adv-x="1161" d="M922 973l75 -60l-91 -112q157 -131 157 -359q0 -96 -33 -188.5t-106 -157.5q-130 -116 -351 -116q-157 0 -280 73l-100 -123l-74 66l96 116q-129 124 -129 312q0 206 112 334q132 151 377 151q139 0 249 -55zM543 823q-170 0 -170 -354q0 -70 16 -144l319 388 q-63 110 -165 110zM749 610l-324 -396q65 -148 181 -148q30 0 58 15t54.5 47.5t42 96.5t15.5 152q0 135 -27 233z" />
<glyph unicode="&#xf9;" horiz-adv-x="1224" d="M530 1380l142 -254q18 -31 18 -53q0 -13 -10.5 -23t-24.5 -10q-25 0 -71 41l-248 215l4 23q18 21 59.5 43t89.5 22q25 0 41 -4zM1044 272q0 -89 25.5 -120.5t108.5 -38.5q3 -10 5 -33t-1 -33q-166 -21 -340 -67q-44 0 -47 34q-5 38 -10 90q-92 -51 -189.5 -87.5 t-151.5 -36.5q-262 0 -262 327v320q0 64 -7.5 102.5t-26.5 58.5t-41.5 26.5t-61.5 8.5q-9 9 -9 35t9 35q176 -4 270 -4q43 0 117 4q21 -21 21 -70q0 -9 -2 -52t-2 -144v-342q0 -52 10 -84.5t32 -47t43.5 -18.5t57.5 -4q98 0 188 55q-2 42 -2 61v380q0 65 -6 102t-24.5 57 t-40.5 26.5t-66 10.5q-9 9 -9 35t9 35q160 -4 270 -4q43 0 117 4q21 -21 21 -70q0 -9 -2.5 -52t-2.5 -144v-355z" />
<glyph unicode="&#xfa;" horiz-adv-x="1224" d="M633 1380q12 4 33 4q77 0 116 -49l21 -47l-246 -221q-38 -33 -78 -33q-12 0 -22.5 10t-10.5 19q0 23 17 49zM1044 272q0 -89 25.5 -120.5t108.5 -38.5q3 -10 5 -33t-1 -33q-166 -21 -340 -67q-44 0 -47 34q-5 38 -10 90q-92 -51 -189.5 -87.5t-151.5 -36.5 q-262 0 -262 327v320q0 64 -7.5 102.5t-26.5 58.5t-41.5 26.5t-61.5 8.5q-9 9 -9 35t9 35q176 -4 270 -4q43 0 117 4q21 -21 21 -70q0 -9 -2 -52t-2 -144v-342q0 -52 10 -84.5t32 -47t43.5 -18.5t57.5 -4q98 0 188 55q-2 42 -2 61v380q0 65 -6 102t-24.5 57t-40.5 26.5 t-66 10.5q-9 9 -9 35t9 35q160 -4 270 -4q43 0 117 4q21 -21 21 -70q0 -9 -2.5 -52t-2.5 -144v-355z" />
<glyph unicode="&#xfb;" horiz-adv-x="1224" d="M629 1358q70 -115 215 -275l-51 -39q-73 44 -121 80.5t-99 89.5q-37 -38 -75 -69.5t-64 -49.5t-78 -51l-51 39q156 177 217 275h107zM1044 272q0 -89 25.5 -120.5t108.5 -38.5q3 -10 5 -33t-1 -33q-166 -21 -340 -67q-44 0 -47 34q-5 38 -10 90q-92 -51 -189.5 -87.5 t-151.5 -36.5q-262 0 -262 327v320q0 64 -7.5 102.5t-26.5 58.5t-41.5 26.5t-61.5 8.5q-9 9 -9 35t9 35q176 -4 270 -4q43 0 117 4q21 -21 21 -70q0 -9 -2 -52t-2 -144v-342q0 -52 10 -84.5t32 -47t43.5 -18.5t57.5 -4q98 0 188 55q-2 42 -2 61v380q0 65 -6 102t-24.5 57 t-40.5 26.5t-66 10.5q-9 9 -9 35t9 35q160 -4 270 -4q43 0 117 4q21 -21 21 -70q0 -9 -2.5 -52t-2.5 -144v-355z" />
<glyph unicode="&#xfc;" horiz-adv-x="1224" d="M668 1174q0 47 32.5 79.5t79.5 32.5q46 0 79.5 -32.5t33.5 -79.5q0 -46 -33.5 -78.5t-79.5 -32.5q-47 0 -79.5 32.5t-32.5 78.5zM287 1174q0 47 33 79.5t79 32.5q47 0 80 -32.5t33 -79.5q0 -46 -33 -78.5t-80 -32.5q-46 0 -79 32.5t-33 78.5zM1044 272q0 -89 25.5 -120.5 t108.5 -38.5q3 -10 5 -33t-1 -33q-166 -21 -340 -67q-44 0 -47 34q-5 38 -10 90q-92 -51 -189.5 -87.5t-151.5 -36.5q-262 0 -262 327v320q0 64 -7.5 102.5t-26.5 58.5t-41.5 26.5t-61.5 8.5q-9 9 -9 35t9 35q176 -4 270 -4q43 0 117 4q21 -21 21 -70q0 -9 -2 -52t-2 -144 v-342q0 -52 10 -84.5t32 -47t43.5 -18.5t57.5 -4q98 0 188 55q-2 42 -2 61v380q0 65 -6 102t-24.5 57t-40.5 26.5t-66 10.5q-9 9 -9 35t9 35q160 -4 270 -4q43 0 117 4q21 -21 21 -70q0 -9 -2.5 -52t-2.5 -144v-355z" />
<glyph unicode="&#xfd;" horiz-adv-x="1142" d="M670 1380q12 4 32 4q41 0 71.5 -15t45.5 -34l21 -47l-246 -221q-38 -33 -78 -33q-12 0 -22.5 10t-10.5 19q0 23 17 49zM496 -344q-17 -30 -53.5 -63t-69.5 -48q-43 -20 -117 -20q-49 0 -80 37q-24 29 -24 82q0 34 33.5 64t88.5 30q14 0 33.5 -4t38.5 -4q40 0 63.5 24 t45.5 76l49 113q6 6 3.5 18.5t-3.5 19t-9.5 19.5t-14 20.5t-16.5 22t-18 23.5l-264 606q-42 96 -68.5 120.5t-93.5 30.5q-9 9 -9 35t9 35q82 -4 228 -4q120 0 272 4q9 -9 9 -35t-9 -35q-26 -2 -43.5 -6t-29.5 -8.5t-16.5 -13.5t-6 -16t3 -22t8.5 -25.5t13 -30.5q3 -6 4 -9 l190 -428q3 -6 3 -8q0 2 1 4l211 473q8 18 9 32t-5.5 23t-15 15.5t-24.5 10t-29 5.5t-33 4q-9 9 -9 35t9 35q152 -4 217 -4q43 0 145 4q9 -9 9 -35t-9 -35q-53 -4 -97.5 -42t-68.5 -87q-162 -341 -372 -846q-52 -126 -88 -192z" />
<glyph unicode="&#xfe;" horiz-adv-x="1204" d="M475 -225q0 -44 2 -72t9.5 -49.5t15 -32t28 -17.5t38.5 -9.5t55 -4.5q9 -9 9 -34.5t-9 -34.5q-176 4 -281 4q-109 0 -281 -4q-9 9 -9 34.5t9 34.5q37 3 55 5t38.5 9.5t28 18t15.5 31.5t9.5 49t1.5 72v1388q0 60 -11 87t-36.5 37.5t-85.5 15.5q-3 10 -5 34.5t1 34.5 q22 3 83.5 10.5t91.5 11.5t74 10.5t71 12.5t44 13q47 0 47 -35q-8 -115 -8 -217v-480l2 82h4q56 51 127.5 90t114.5 39q179 0 281 -102q58 -58 90 -145.5t32 -176.5q0 -227 -140.5 -366t-373.5 -139q-72 0 -137 34v-239zM475 698v-565q62 -67 125 -67q64 0 112 32t75 86 t40 116t13 130q0 167 -55.5 254.5t-127.5 87.5q-42 0 -91.5 -18t-90.5 -56z" />
<glyph unicode="&#xff;" horiz-adv-x="1142" d="M723 1174q0 47 33 79.5t80 32.5q46 0 79 -32.5t33 -79.5q0 -46 -33 -78.5t-79 -32.5q-47 0 -80 32.5t-33 78.5zM342 1174q0 47 33.5 79.5t79.5 32.5q47 0 79.5 -32.5t32.5 -79.5q0 -46 -32.5 -78.5t-79.5 -32.5q-46 0 -79.5 32.5t-33.5 78.5zM496 -344q-17 -30 -53.5 -63 t-69.5 -48q-43 -20 -117 -20q-49 0 -80 37q-24 29 -24 82q0 34 33.5 64t88.5 30q14 0 33.5 -4t38.5 -4q40 0 63.5 24t45.5 76l49 113q6 6 3.5 18.5t-3.5 19t-9.5 19.5t-14 20.5t-16.5 22t-18 23.5l-264 606q-42 96 -68.5 120.5t-93.5 30.5q-9 9 -9 35t9 35q82 -4 228 -4 q120 0 272 4q9 -9 9 -35t-9 -35q-26 -2 -43.5 -6t-29.5 -8.5t-16.5 -13.5t-6 -16t3 -22t8.5 -25.5t13 -30.5q3 -6 4 -9l190 -428q3 -6 3 -8q0 2 1 4l211 473q8 18 9 32t-5.5 23t-15 15.5t-24.5 10t-29 5.5t-33 4q-9 9 -9 35t9 35q152 -4 217 -4q43 0 145 4q9 -9 9 -35 t-9 -35q-53 -4 -97.5 -42t-68.5 -87q-162 -341 -372 -846q-52 -126 -88 -192z" />
<glyph unicode="&#x131;" horiz-adv-x="659" d="M475 250q0 -44 1.5 -72t9.5 -49.5t15.5 -31.5t28 -17t38.5 -9.5t55 -4.5q9 -9 9 -35t-9 -35q-176 4 -281 4q-109 0 -281 -4q-9 9 -9 35t9 35q38 3 55 5t38 9.5t28.5 17.5t15.5 31t9.5 49t1.5 72v393q0 86 -23.5 110.5t-109.5 32.5q-3 10 -5 33t1 33q28 4 84.5 10.5t90 11 t75 10.5t69.5 12t45 13q47 0 47 -35q-8 -114 -8 -216v-408z" />
<glyph unicode="&#x152;" horiz-adv-x="1894" d="M1309 752q108 0 145 22.5t41 104.5q9 9 44 9t44 -9q-4 -122 -4 -177q0 -36 4 -180q-9 -9 -44 -9t-44 9q-5 71 -44 99t-142 28h-166v-465q0 -41 25 -69.5t59 -28.5h207q111 0 183 71.5t105 190.5q20 5 48.5 2t44.5 -12q-4 -29 -14 -105t-19.5 -133.5t-22.5 -103.5 q-184 4 -282 4h-701q-152 0 -281 50t-218 137t-139 207.5t-50 258.5t47.5 260.5t132.5 214t210.5 144.5t273.5 53l241 -4h604q54 0 101 8q8 0 8 -6q2 -7 6 -62.5t9.5 -127.5t9.5 -107q-37 -18 -89 -10q-19 59 -35.5 94.5t-43.5 66.5t-66 44.5t-96 13.5h-174q-35 0 -59.5 -31 t-24.5 -69v-383h166zM772 82h25q59 0 59 168v819q0 168 -59 168h-70q-54 0 -101 -17.5t-90 -59t-73 -105t-48 -161.5t-18 -222q0 -150 32 -266.5t86 -185.5t119.5 -103.5t137.5 -34.5z" />
<glyph unicode="&#x153;" horiz-adv-x="1695" d="M532 823q-170 0 -170 -354q0 -61 13.5 -127.5t40 -130t73.5 -104.5t107 -41q30 0 58 15t54.5 47.5t42 96.5t15.5 152q0 208 -64 327t-170 119zM76 424q0 206 112 334q132 151 377 151q233 0 368 -143q66 69 150.5 106t169.5 37q87 0 153.5 -21.5t106.5 -56t65.5 -83.5 t34.5 -98t9 -105q0 -64 -59 -64h-492q0 -4 -1 -14t-1 -18q0 -147 67.5 -220t190.5 -73q167 0 272 108q14 0 22.5 -20t8.5 -43q-75 -110 -174.5 -165.5t-208.5 -55.5q-211 0 -323 102q-2 2 -6.5 6t-6.5 6q-129 -114 -348 -114q-209 0 -348 123.5t-139 320.5zM1079 563h279 q4 4 4 43q0 111 -40.5 164t-90.5 53q-22 0 -55.5 -18t-55.5 -51q-37 -56 -41 -191z" />
<glyph unicode="&#x178;" horiz-adv-x="1277" d="M795 1534q0 47 32.5 80t79.5 33q46 0 79.5 -33t33.5 -80q0 -46 -33.5 -78.5t-79.5 -32.5q-47 0 -79.5 32.5t-32.5 78.5zM414 1534q0 47 33 80t79 33q47 0 80 -33t33 -80q0 -46 -33 -78.5t-80 -32.5q-46 0 -79 32.5t-33 78.5zM793 250q0 -44 2.5 -72.5t13 -49.5 t21.5 -31.5t37.5 -17.5t51 -9t72.5 -4q9 -9 9 -35t-9 -35q-204 4 -325 4q-159 0 -359 -4q-9 9 -9 35t9 35q48 2 72.5 4t51.5 9t38 17.5t21.5 31.5t13 49.5t2.5 72.5v280q0 56 -6.5 80t-34.5 70l-261 440q-48 82 -85.5 106t-106.5 29q-9 9 -10 35t8 35q122 -4 291 -4 q90 0 254 4q9 -9 9 -35t-9 -35q-82 -4 -95.5 -30t23.5 -84l214 -377q26 -45 46 -6l211 397q24 45 -4.5 70t-99.5 30q-9 9 -9 35t9 35q164 -4 227 -4q69 0 191 4q9 -9 9 -35t-9 -35q-75 -7 -110 -24.5t-68 -73.5l-263 -438q-34 -55 -34 -171v-298z" />
<glyph unicode="&#x192;" horiz-adv-x="993" d="M729 1430q135 0 199.5 -45t64.5 -101q0 -40 -20 -74t-62 -41q-47 -7 -90 18t-49 62q-18 107 -59 107q-35 0 -62 -109q-8 -34 -16 -83.5t-12.5 -88t-11 -100t-9.5 -86.5h213q45 -27 -12 -96h-213q-4 -16 -4 -27q-61 -519 -112 -729q-36 -146 -120 -270 q-45 -67 -120 -111.5t-125 -44.5q-103 0 -158 36t-55 85q0 45 27.5 70.5t76.5 25.5q29 0 50 -7.5t25.5 -11.5t18.5 -18q5 -5 11 -19t10 -25.5t4 -12.5q3 -12 13 -21.5t22 -9.5q65 3 96 280q4 41 22 259q4 40 8.5 91t10 111t8.5 88l18 261l-149 10l12 76l156 10q2 16 4 29 t5.5 32t6.5 37q18 109 60.5 196.5t95.5 139.5t110 79.5t111 27.5z" />
<glyph unicode="&#x2b0;" horiz-adv-x="628" d="M23 1468q92 11 161 45h29v-325q91 104 174 104q154 0 154 -188v-256q0 -36 10 -44.5t43 -10.5h12q10 0 10 -11v-37q-78 3 -127 3l-133 -3v37q0 11 11 11h22q31 2 41 11t10 44v235q0 140 -102 140q-48 0 -125 -93v-282q0 -32 11.5 -43.5t39.5 -11.5h23q10 0 10 -11v-37 q-82 3 -135 3l-125 -3v37q0 11 8 11h16q35 1 43.5 11t8.5 44v530q0 28 -5.5 41t-25.5 13q-25 0 -55 -9z" />
<glyph unicode="&#x2b2;" horiz-adv-x="423" d="M236 1513q31 0 46 -17t15 -42q0 -24 -17.5 -40.5t-43.5 -16.5t-44 17t-18 40q0 26 17 42.5t45 16.5zM197 840v331q0 56 -31 56q-29 0 -72 -15l-6 41q114 22 180 52h29v-424q0 -132 -12.5 -189t-53.5 -102q-45 -51 -106 -51q-45 0 -85 19t-40 48q0 24 12 37.5t31 13.5 q39 0 55 -59q3 -20 21 -20q44 0 61 59t17 203z" />
<glyph unicode="&#x2b3;" horiz-adv-x="681" d="M375 965q0 -39 1.5 -63.5t9 -43t13.5 -27t25 -15t33.5 -8.5t48.5 -5q8 -7 8 -31t-8 -31q-57 4 -205 4q-157 0 -227 -4q-8 7 -8 31t8 31q33 2 48.5 4t34 8.5t25 15.5t13.5 27.5t8.5 43t1.5 63.5v143q0 73 -26 97t-93 26q-3 8 -4 30.5t2 30.5q107 18 238 49q17 0 25 -7 t15 -23q9 -22 12 -119h5q104 147 182 147q40 0 69 -27t29 -59q0 -48 -25.5 -79t-60.5 -31q-51 0 -71 24q-22 29 -43 29q-28 0 -49 -25q-30 -35 -35 -71v-135z" />
<glyph unicode="&#x2b7;" horiz-adv-x="911" d="M260 1255q0 -10 -8 -10h-19q-29 0 -33 -11.5t11 -51.5l119 -314l96 265l-18 47q-15 39 -29.5 52t-42.5 13q-10 0 -10 10v35l2 2q77 -2 116 -2l113 2l4 -2v-35q0 -10 -10 -10q-42 0 -50 -9.5t7 -53.5l117 -314l120 308q14 41 4 55t-49 14h-18q-8 0 -8 10v35l2 2 q82 -2 125 -2l84 2l2 -2v-35q0 -10 -15 -10q-47 0 -77 -74l-162 -409q-13 -29 -43 -29q-17 0 -27 27l-114 303l-113 -301q-10 -29 -43 -29q-17 0 -27 27l-155 420q-16 42 -30.5 53.5t-41.5 11.5q-14 0 -14 10v35l2 2q55 -2 104 -2l127 2l2 -2v-35z" />
<glyph unicode="&#x2b8;" horiz-adv-x="692" d="M299 1257q0 -12 -14 -12q-54 0 -54 -22q0 -11 7 -25l135 -319l139 315q6 12 6 29q0 22 -51 22h-6q-4 0 -8 3.5t-4 6.5v35l2 4q86 -4 131 -4l88 4l4 -4v-33q0 -12 -15 -12q-57 0 -90 -76q-72 -147 -227 -524q-17 -38 -25.5 -56.5t-27 -51.5t-34.5 -49.5t-39.5 -30 t-49.5 -13.5q-25 0 -57.5 19t-32.5 49q0 26 20 41.5t39 15.5q25 0 41 -16q18 -25 33 -25q3 0 7 3t9 10.5t9.5 15t10.5 20t10.5 22.5t11.5 26t11.5 26t11.5 27.5t11 26.5q8 21 8 38q0 20 -20 74l-154 357q-19 43 -34 57t-54 14q-4 0 -8 3.5t-4 6.5v35l4 4q55 -4 94 -4l164 4 l2 -4v-33z" />
<glyph unicode="&#x2c6;" horiz-adv-x="776" d="M442 1358q70 -115 215 -275l-51 -39q-135 81 -219 170q-37 -38 -75 -69.5t-64 -49.5t-78 -51l-51 39q156 177 217 275h106z" />
<glyph unicode="&#x2da;" horiz-adv-x="739" d="M395 1475q-42 0 -69 -29t-27 -72q0 -41 26.5 -70.5t69.5 -29.5t71 29.5t28 70.5q0 44 -28.5 72.5t-70.5 28.5zM221 1374q0 70 51 120t123 50q70 0 123 -49.5t53 -120.5q0 -69 -52 -119.5t-124 -50.5q-71 0 -122.5 50t-51.5 120z" />
<glyph unicode="&#x2dc;" horiz-adv-x="598" d="M459 1206q66 0 100 88q23 0 40 -11.5t17 -29.5q-26 -88 -77 -139t-109 -51q-76 0 -133 43q-53 35 -119 35q-20 0 -32 -2t-26 -9.5t-24 -25t-18 -45.5q-53 0 -53 37q26 82 72 136t98 54q88 0 151 -51q37 -29 113 -29z" />
<glyph unicode="&#x2e1;" horiz-adv-x="329" d="M213 1513v-665q0 -32 11.5 -43.5t39.5 -11.5h23q10 0 10 -11v-37q-82 3 -135 3l-125 -3v37q0 11 8 11h16q35 1 43.5 11t8.5 44v530q0 28 -5.5 41t-25.5 13q-25 0 -55 -9l-4 45q92 11 161 45h29z" />
<glyph unicode="&#x2e2;" horiz-adv-x="518" d="M57 938h45q5 -74 48 -117q43 -37 100 -37q41 0 69.5 19.5t28.5 58.5q0 37 -24.5 67t-94.5 60q-83 34 -120 67.5t-37 96.5t57.5 107.5t134.5 44.5q44 0 95.5 -11.5t70.5 -23.5l19 -154l-48 -2q-13 55 -40 88t-50 42t-47 9q-41 0 -67.5 -21.5t-26.5 -60.5q0 -36 18 -55 t72 -41q42 -17 62 -26t51.5 -27.5t46.5 -34.5t27 -41t12 -55q0 -44 -21.5 -77t-55.5 -49.5t-66 -24t-62 -7.5q-33 0 -81.5 14.5t-66.5 14.5q-14 0 -38 -4q2 41 -11 180z" />
<glyph unicode="&#x2e3;" horiz-adv-x="679" d="M25 797q0 22 69 22h17q8 7 20 25q131 160 139 166q-24 30 -75 97.5t-76 98.5q-10 17 -15 17h-12q-72 0 -72 22v41h334v-41q0 -19 -49 -22q3 -11 17 -36t27 -44l13 -19q22 28 36 48t17 26l3 6q6 6 6 19q-49 4 -49 22v41h295v-37q-6 -26 -72 -26q-5 0 -10 -2t-9 -4.5 t-10.5 -8.5t-10 -10t-11 -12t-10.5 -12q-17 -23 -53 -69.5t-54 -68.5q108 -153 141 -196q13 -18 31 -21q72 -3 72 -22v-45q-78 8 -150 8q-43 0 -178 -6v43q0 19 45 22q0 10 -2 12q-47 71 -57 87q-64 -77 -66 -99q53 0 53 -22v-43q-78 4 -141 4q-83 0 -153 -4v43z" />
<glyph unicode="&#x374;" horiz-adv-x="454" d="M334 1573q30 0 56 -24t26 -48q0 -17 -9 -41.5t-20 -40.5l-231 -317l-50 26l119 330q8 23 15 39t20 35.5t32 30t42 10.5z" />
<glyph unicode="&#x375;" horiz-adv-x="393" d="M276 203q30 0 56 -24t26 -48q0 -17 -8.5 -42t-19.5 -40l-232 -317l-49 26l119 330q8 23 15 38.5t19.5 35.5t31.5 30.5t42 10.5z" />
<glyph unicode="&#x37a;" horiz-adv-x="690" d="M217 -168l203 27l45 -15v-127q0 -80 16.5 -109.5t50.5 -29.5q28 0 50 21.5t32 62.5q17 1 35.5 -5.5t24.5 -16.5q-11 -49 -40 -84.5t-65.5 -51t-65 -22t-52.5 -6.5q-54 0 -105.5 16.5t-90 56t-38.5 95.5v188z" />
<glyph unicode="&#x37b;" horiz-adv-x="962" d="M399 66q42 0 73.5 12t62 45t47 103t16.5 175q0 99 -9 170t-32 131t-67.5 90.5t-110.5 30.5q-96 0 -153 -27.5t-109 -86.5q-41 2 -56 36q59 80 149 122t196 42q132 0 228 -36t149 -99.5t77.5 -140t24.5 -168.5q0 -111 -34.5 -198.5t-87.5 -140t-123 -87t-134 -47 t-127 -12.5q-108 0 -187 39t-135 131q21 23 60 28q52 -64 114 -88t168 -24z" />
<glyph unicode="&#x37c;" horiz-adv-x="987" d="M655 314q-62 0 -102 42t-40 98q0 58 42 101.5t100 43.5q55 0 99 -43t44 -102q0 -56 -41.5 -98t-101.5 -42zM573 823q-33 0 -58.5 -6.5t-53 -28t-45.5 -57t-29.5 -97.5t-11.5 -147q0 -78 5 -138t19.5 -115t38.5 -90.5t63.5 -56.5t92.5 -21q96 0 153 27.5t109 86.5 q40 -2 55 -37q-59 -80 -148.5 -121.5t-195.5 -41.5q-132 0 -228 36t-149 99.5t-77.5 140t-24.5 168.5q0 111 34.5 198.5t87.5 140t123 87t134 47t127 12.5q108 0 186.5 -39t134.5 -131q-21 -23 -59 -28q-52 64 -114.5 88t-168.5 24z" />
<glyph unicode="&#x37d;" horiz-adv-x="962" d="M309 306q-62 0 -102 42t-40 98q0 58 42 101.5t100 43.5q55 0 99 -43t44 -102q0 -56 -41.5 -98t-101.5 -42zM399 66q42 0 73.5 12t62 45t47 103t16.5 175q0 99 -9 170t-32 131t-67.5 90.5t-110.5 30.5q-96 0 -153 -27.5t-109 -86.5q-41 2 -56 36q59 80 149 122t196 42 q132 0 228 -36t149 -99.5t77.5 -140t24.5 -168.5q0 -111 -34.5 -198.5t-87.5 -140t-123 -87t-134 -47t-127 -12.5q-108 0 -187 39t-135 131q21 23 60 28q52 -64 114 -88t168 -24z" />
<glyph unicode="&#x37e;" horiz-adv-x="524" d="M123 743q0 60 44.5 103t106.5 43t105 -40.5t43 -100.5q0 -58 -45 -101t-107 -43t-104.5 40.5t-42.5 98.5zM252 260q84 0 131 -64t47 -188q0 -52 -33 -118t-78 -111q-44 -44 -105.5 -77.5t-117.5 -43.5q-32 21 -14 63q65 18 131 98.5t66 125.5q0 48 -74 67q-30 8 -56 44.5 t-26 74.5q0 36 45 82.5t84 46.5z" />
<glyph unicode="&#x386;" horiz-adv-x="1515" d="M559 580h311l-167 485h-14l-182 -458q-6 -15 6 -21t46 -6zM338 162q-6 -15 -7 -28t4.5 -22t12 -16t20 -11.5l24 -8t28.5 -5.5t29 -3t30 -2q9 -9 9 -35t-9 -35q-152 4 -272 4q-41 0 -193 -4q-9 9 -9 35t9 35q40 3 63.5 7.5t51.5 18.5t49.5 42.5t40.5 74.5l444 1048 q69 0 226 91l422 -1172q12 -35 29.5 -57t42 -32t45 -13.5t52.5 -6.5q10 -1 15 -1q9 -9 9 -35t-9 -35q-152 4 -274 4q-199 0 -351 -4q-9 9 -9 35t9 35q13 1 31.5 2t30 1.5t27 2t24.5 3.5t19 6t15 9.5t8.5 13t2.5 18.5t-6 25l-115 334h-389q-36 0 -50 -7t-22 -28zM385 1485 q37 0 91 -25t54 -53q0 -20 -10 -31l-213 -250q-14 -16 -22 -16q-14 0 -38 9.5t-24 19.5q0 12 2 18l103 293q6 16 22.5 25.5t34.5 9.5z" />
<glyph unicode="&#x388;" horiz-adv-x="1345" d="M82 1485q37 0 91 -25t54 -53q0 -20 -10 -31l-213 -250q-14 -16 -22 -16q-14 0 -38 9.5t-24 19.5q0 12 2 18l103 293q6 16 22.5 25.5t34.5 9.5zM842 748q107 0 144.5 24.5t41.5 106.5q9 9 44 9t44 -9q-4 -122 -4 -177q0 -36 4 -180q-9 -9 -44 -9t-44 9q-5 72 -44 101.5 t-142 29.5h-166v-469q0 -41 25 -69.5t59 -28.5h207q111 0 183 71.5t105 190.5q20 5 48.5 2t44.5 -12q-4 -29 -14 -105t-19.5 -133.5t-22.5 -103.5q-184 4 -282 4h-482q-217 -2 -317 -4q-9 9 -9 35t9 35q42 2 63.5 4t45.5 8.5t34 17.5t20 32t12.5 49.5t2.5 72.5v819 q0 65 -6.5 100t-30 54.5t-52 24t-89.5 7.5q-9 9 -9 35t9 35l315 -4h604q54 0 101 8q8 0 8 -6q2 -7 6 -62.5t9.5 -127.5t9.5 -107q-36 -18 -88 -10q-19 59 -35.5 94.5t-44 66.5t-66.5 44.5t-96 13.5h-174q-35 0 -59.5 -31t-24.5 -69v-387h166z" />
<glyph unicode="&#x389;" horiz-adv-x="1628" d="M109 1485q37 0 91 -25t54 -53q0 -20 -10 -31l-213 -250q-14 -16 -23 -16q-14 0 -37.5 9.5t-23.5 19.5q0 12 2 18l102 293q6 16 22.5 25.5t35.5 9.5zM1350 1071q0 42 -4 72t-15.5 50t-22.5 31.5t-34 18t-41.5 8.5t-52.5 4q-15 9 -15 35t15 35q164 -4 315 -4q147 0 311 4 q15 -9 15 -35t-15 -35q-34 -2 -52.5 -4t-41.5 -8.5t-34 -18t-22.5 -31.5t-15.5 -50t-4 -72v-821q0 -42 4 -72t15.5 -50t22.5 -31.5t34 -18t41.5 -8.5t52.5 -4q15 -9 15 -35t-15 -35q-164 4 -311 4q-151 0 -315 -4q-15 9 -15 35t15 35q34 2 52.5 4t41.5 8.5t34 18t22.5 31.5 t15.5 50t4 72v403h-635v-403q0 -42 4 -72t15.5 -50t22.5 -31.5t34 -18t41.5 -8.5t52.5 -4q15 -9 15 -35t-15 -35q-164 4 -312 4q-151 0 -315 -4q-15 9 -15 35t15 35q34 2 52.5 4t41.5 8.5t34 18t22.5 31.5t15.5 50t4 72v821q0 42 -4 72t-15.5 50t-22.5 31.5t-34 18 t-41.5 8.5t-52.5 4q-15 9 -15 35t15 35q164 -4 315 -4q148 0 312 4q15 -9 15 -35t-15 -35q-34 -2 -52.5 -4t-41.5 -8.5t-34 -18t-22.5 -31.5t-15.5 -50t-4 -72v-319h635v319z" />
<glyph unicode="&#x38a;" horiz-adv-x="770" d="M84 1485q37 0 91 -25t54 -53q0 -20 -10 -31l-213 -250q-14 -16 -22 -16q-14 0 -38 9.5t-24 19.5q0 12 2 18l103 293q6 16 22.5 25.5t34.5 9.5zM403 1071q0 42 -4 72t-15.5 50t-22.5 31.5t-34 18t-41.5 8.5t-52.5 4q-15 9 -15 35t15 35q164 -4 316 -4q147 0 311 4 q15 -9 15 -35t-15 -35q-34 -2 -52.5 -4t-41.5 -8.5t-34 -18t-22.5 -31.5t-15.5 -50t-4 -72v-821q0 -42 4 -72t15.5 -50t22.5 -31.5t34 -18t41.5 -8.5t52.5 -4q15 -9 15 -35t-15 -35q-164 4 -311 4q-152 0 -316 -4q-15 9 -15 35t15 35q34 2 52.5 4t41.5 8.5t34 18t22.5 31.5 t15.5 50t4 72v821z" />
<glyph unicode="&#x38c;" horiz-adv-x="1476" d="M127 1485q37 0 91 -25t54 -53q0 -20 -10 -31l-213 -250q-14 -16 -22 -16q-14 0 -38 9.5t-24 19.5q0 12 2 18l103 293q6 16 22.5 25.5t34.5 9.5zM764 1262q-147 0 -240.5 -145.5t-93.5 -442.5q0 -281 113.5 -444.5t287.5 -163.5q153 0 239.5 153.5t86.5 411.5 q0 301 -110.5 466t-282.5 165zM1466 674q0 -302 -176 -492q-188 -202 -499 -202q-131 0 -251.5 45.5t-214 128t-149 207t-55.5 272.5q0 286 166 485q91 109 220 169.5t281 60.5q188 0 341.5 -82.5t245 -237.5t91.5 -354z" />
<glyph unicode="&#x38e;" horiz-adv-x="1406" d="M88 1485q37 0 91 -25t54 -53q0 -20 -10 -31l-213 -250q-14 -16 -22 -16q-14 0 -38 9.5t-24 19.5q0 12 2 18l103 293q6 16 22.5 25.5t34.5 9.5zM1022 250q0 -44 2.5 -72.5t13 -49.5t21.5 -31.5t38 -17.5t51.5 -9t72.5 -4q9 -9 9 -35t-9 -35q-204 4 -326 4q-158 0 -358 -4 q-9 9 -9 35t9 35q48 2 72.5 4t51 9t37.5 17.5t21.5 31.5t13 49.5t2.5 72.5v280q0 56 -6.5 80t-34.5 70l-260 440q-48 82 -85.5 106t-106.5 29q-9 9 -10 35t8 35q122 -4 290 -4q90 0 254 4q9 -9 9 -35t-9 -35q-82 -4 -95 -30t24 -84l214 -377q25 -45 45 -6l212 397 q24 45 -5 70t-100 30q-9 9 -9 35t9 35q164 -4 228 -4q68 0 190 4q9 -9 9 -35t-9 -35q-75 -7 -110 -24.5t-68 -73.5l-262 -438q-35 -57 -35 -171v-298z" />
<glyph unicode="&#x38f;" horiz-adv-x="1533" d="M109 1485q37 0 91 -25t54 -53q0 -20 -10 -31l-213 -250q-14 -16 -23 -16q-14 0 -37.5 9.5t-23.5 19.5q0 12 2 18l102 293q6 16 22.5 25.5t35.5 9.5zM397 166h201l-6 108q-86 30 -161.5 76t-138.5 108.5t-99.5 146.5t-36.5 179q0 102 46.5 202t129 181t208 131t271.5 50 q149 0 274 -45.5t208 -123t129 -179.5t46 -216q0 -89 -36 -172t-97.5 -147.5t-138.5 -113t-164 -77.5l-10 -108h195q70 0 116.5 45.5t79.5 148.5q47 0 92 -20q-12 -104 -88 -340h-467q-35 0 -32 33l24 295q56 33 95 69.5t63 74.5t37 88.5t17.5 101t4.5 122.5 q0 113 -17.5 197.5t-56.5 149t-107.5 98t-166.5 33.5q-83 0 -144.5 -25t-99.5 -66.5t-61.5 -104.5t-32 -129.5t-8.5 -150.5q0 -178 43.5 -272t181.5 -186l15 -295q0 -33 -33 -33h-475q-76 236 -88 340q45 20 92 20q33 -103 79.5 -148.5t116.5 -45.5z" />
<glyph unicode="&#x390;" horiz-adv-x="724" d="M438 1606q37 0 91.5 -25t54.5 -53q0 -19 -11 -31l-213 -250q-14 -16 -22 -16q-14 0 -38 9.5t-24 19.5q0 9 3 18l102 293q6 16 22.5 25.5t34.5 9.5zM406 1169q0 47 32.5 80t79.5 33q46 0 79.5 -33t33.5 -80q0 -45 -33.5 -77.5t-79.5 -32.5q-47 0 -79.5 32t-32.5 78z M25 1169q0 47 33 80t79 33q47 0 80 -33t33 -80q0 -46 -33 -78t-80 -32q-46 0 -79 32t-33 78zM475 260q0 -71 26 -104t64 -33q68 0 107 29q20 -16 28.5 -28t8.5 -30q-32 -45 -109.5 -79.5t-159.5 -34.5q-41 0 -89.5 14.5t-80.5 42.5q-61 51 -61 178v428q0 46 -4.5 70 t-21 39.5t-39 20.5t-68.5 9q-3 10 -5 35t1 35q28 4 84.5 10.5t90 11t75 10.5t69.5 12t45 13q47 0 47 -35q-8 -114 -8 -216v-398z" />
<glyph unicode="&#x391;" horiz-adv-x="1515" d="M559 580h311l-167 485h-14l-182 -458q-6 -15 6 -21t46 -6zM338 162q-6 -15 -7 -28t4.5 -22t12 -16t20 -11.5l24 -8t28.5 -5.5t29 -3t30 -2q9 -9 9 -35t-9 -35q-152 4 -272 4q-41 0 -193 -4q-9 9 -9 35t9 35q40 3 63.5 7.5t51.5 18.5t49.5 42.5t40.5 74.5l444 1048 q69 0 226 91l422 -1172q12 -35 29.5 -57t42 -32t45 -13.5t52.5 -6.5q10 -1 15 -1q9 -9 9 -35t-9 -35q-152 4 -274 4q-199 0 -351 -4q-9 9 -9 35t9 35q13 1 31.5 2t30 1.5t27 2t24.5 3.5t19 6t15 9.5t8.5 13t2.5 18.5t-6 25l-115 334h-389q-36 0 -50 -7t-22 -28z" />
<glyph unicode="&#x392;" horiz-adv-x="1339" d="M496 1151v-381h114q238 0 238 231q0 238 -209 238q-49 0 -78.5 -5t-43 -17.5t-17.5 -26.5t-4 -39zM496 684v-512q0 -50 24.5 -70t110.5 -20q77 0 135.5 20t91.5 50t53 72.5t26.5 79.5t6.5 79q0 138 -75.5 219.5t-227.5 81.5h-145zM354 1321q28 0 131.5 2t159.5 2 q119 0 209 -20t142.5 -51t84.5 -75t43 -85t11 -88q0 -78 -56.5 -154t-140.5 -113v-4q160 -42 233.5 -129t73.5 -225q0 -82 -28.5 -149t-90.5 -121.5t-173 -84.5t-263 -30q-67 0 -183.5 2t-152.5 2l-315 -4q-15 9 -15 35t15 35q34 2 52.5 4t41.5 8.5t34 18t22.5 31.5t15.5 50 t4 72v821q0 42 -4 72t-15.5 50t-22.5 31.5t-34 18t-41.5 8.5t-52.5 4q-15 9 -15 35t15 35q233 -4 315 -4z" />
<glyph unicode="&#x393;" horiz-adv-x="1128" d="M686 1235h-123q-71 0 -71 -162v-823q0 -42 4 -72t15.5 -50t22.5 -31.5t34 -18t41.5 -8.5t52.5 -4q15 -9 15 -35t-15 -35l-132 2t-105 1.5t-75 0.5l-315 -4q-15 9 -15 35t15 35q34 2 52.5 4t41.5 8.5t34 18t22.5 31.5t15.5 50t4 72v821q0 42 -4 72t-15.5 50t-22.5 31.5 t-34 18t-41.5 8.5t-52.5 4q-15 9 -15 35t15 35q235 -4 315 -4h457l246 4q34 -172 53 -342q-36 -18 -88 -10q-17 60 -40 104t-60.5 81.5t-95.5 57t-136 19.5z" />
<glyph unicode="&#x394;" horiz-adv-x="1417" d="M637 1137l-5 -13l-425 -1046h844zM840 1333l520 -1292q8 -24 8 -31q0 -10 -43 -10h-1245q-43 0 -43 14q0 2 10 27l563 1292h230z" />
<glyph unicode="&#x395;" horiz-adv-x="1247" d="M662 748q107 0 144.5 24.5t41.5 106.5q9 9 44 9t44 -9q-4 -122 -4 -177q0 -36 4 -180q-9 -9 -44 -9t-44 9q-5 72 -44 101.5t-142 29.5h-166v-469q0 -41 25 -69.5t59 -28.5h206q111 0 183.5 71.5t105.5 190.5q20 5 48 2t44 -12q-5 -30 -14 -105t-18.5 -133t-22.5 -104 q-185 4 -283 4h-481q-217 -2 -317 -4q-9 9 -9 35t9 35q42 2 63.5 4t45.5 8.5t34 17.5t20 32t12.5 49.5t2.5 72.5v819q0 65 -6.5 100t-30 54.5t-52 24t-89.5 7.5q-9 9 -9 35t9 35l315 -4h604q54 0 101 8q8 0 8 -6q2 -6 5.5 -62t9 -127.5t9.5 -107.5q-36 -18 -88 -10 q-19 59 -35.5 94.5t-43.5 66.5t-66 44.5t-96 13.5h-174q-35 0 -59.5 -31t-24.5 -69v-387h166z" />
<glyph unicode="&#x396;" horiz-adv-x="1277" d="M879 90q99 0 171 73t103 199q55 0 80 -10q-24 -244 -55 -362q0 -6 -9 -6q-208 16 -477 16h-612q-39 0 -39 31q0 24 16 47l766 1108q7 10 10.5 16t6.5 14.5t-2.5 12.5t-18.5 4h-391q-198 0 -262 -258q-55 0 -80 10q36 155 53 346q0 6 8 6q208 -16 478 -16h411q33 0 79 2 t56 2q35 0 35 -20q0 -18 -8 -35t-37 -60l-725 -1063q-23 -29 -17.5 -43t50.5 -14h410z" />
<glyph unicode="&#x397;" horiz-adv-x="1673" d="M1155 1071q0 42 -4 72t-15.5 50t-22.5 31.5t-34 18t-41.5 8.5t-52.5 4q-15 9 -15 35t15 35q164 -4 315 -4q148 0 312 4q15 -9 15 -35t-15 -35q-34 -2 -52.5 -4t-41.5 -8.5t-34 -18t-22.5 -31.5t-15.5 -50t-4 -72v-821q0 -42 4 -72t15.5 -50t22.5 -31.5t34 -18t41.5 -8.5 t52.5 -4q15 -9 15 -35t-15 -35q-164 4 -312 4q-151 0 -315 -4q-15 9 -15 35t15 35q34 2 52.5 4t41.5 8.5t34 18t22.5 31.5t15.5 50t4 72v403h-635v-403q0 -42 4 -72t15.5 -50t22.5 -31.5t34 -18t41.5 -8.5t52.5 -4q15 -9 15 -35t-15 -35q-164 4 -311 4q-152 0 -316 -4 q-15 9 -15 35t15 35q34 2 52.5 4t41.5 8.5t34 18t22.5 31.5t15.5 50t4 72v821q0 42 -4 72t-15.5 50t-22.5 31.5t-34 18t-41.5 8.5t-52.5 4q-15 9 -15 35t15 35q164 -4 316 -4q147 0 311 4q15 -9 15 -35t-15 -35q-34 -2 -52.5 -4t-41.5 -8.5t-34 -18t-22.5 -31.5t-15.5 -50 t-4 -72v-319h635v319z" />
<glyph unicode="&#x398;" horiz-adv-x="1495" d="M719 733h53q53 0 86 4.5t53 11t30 23.5t13 32.5t4 47.5q9 9 34 9t34 -9q-4 -122 -4 -193q0 -56 4 -200q-9 -9 -34 -9t-34 9q-2 27 -5 40t-13 31.5t-29 26.5t-53.5 14.5t-85.5 6.5h-53q-66 0 -102.5 -5t-55 -21.5t-23 -35t-6.5 -57.5q-9 -9 -33.5 -9t-33.5 9q4 122 4 192 q0 57 -4 201q9 9 33.5 9t33.5 -9q2 -26 5 -40t13.5 -31.5t29.5 -26t53.5 -15t85.5 -6.5zM719 1262q-147 0 -240.5 -145.5t-93.5 -442.5q0 -281 113.5 -444.5t287.5 -163.5q153 0 239.5 153.5t86.5 411.5q0 301 -110.5 466t-282.5 165zM1421 674q0 -302 -176 -492 q-188 -202 -500 -202q-131 0 -251.5 45.5t-213.5 128t-148.5 207t-55.5 272.5q0 286 166 485q91 109 220 169.5t281 60.5q188 0 341.5 -82.5t245 -237.5t91.5 -354z" />
<glyph unicode="&#x399;" horiz-adv-x="751" d="M233 1071q0 42 -4 72t-15.5 50t-22.5 31.5t-34 18t-41.5 8.5t-52.5 4q-15 9 -15 35t15 35q164 -4 316 -4q147 0 311 4q15 -9 15 -35t-15 -35q-34 -2 -52.5 -4t-41.5 -8.5t-34 -18t-22.5 -31.5t-15.5 -50t-4 -72v-821q0 -42 4 -72t15.5 -50t22.5 -31.5t34 -18t41.5 -8.5 t52.5 -4q15 -9 15 -35t-15 -35q-164 4 -311 4q-152 0 -316 -4q-15 9 -15 35t15 35q34 2 52.5 4t41.5 8.5t34 18t22.5 31.5t15.5 50t4 72v821z" />
<glyph unicode="&#x39a;" horiz-adv-x="1507" d="M221 1071q0 42 -4 72t-15.5 50t-22.5 31.5t-34 18t-41.5 8.5t-52.5 4q-15 9 -15 35t15 35q164 -4 316 -4q147 0 311 4q15 -9 15 -35t-15 -35q-34 -2 -52.5 -4t-41.5 -8.5t-34 -18t-22.5 -31.5t-15.5 -50t-4 -72v-371q51 16 104 53.5t154 127.5q155 129 219 194 q161 164 -10 180q-9 9 -9 35t9 35q154 -4 252 -4q92 0 194 4q9 -9 9 -35t-9 -35q-44 -6 -88 -25t-93 -54.5t-83.5 -64t-91.5 -79.5l-223 -198q-25 -23 -25 -60q0 -18 62 -92l448 -530q36 -43 72.5 -61t87.5 -25q9 -9 9 -35t-9 -35q-160 4 -242 4q-129 0 -211 -4q-8 0 -10 12 q-7 57 -74 144l-309 403q-34 44 -61.5 65t-71.5 32v-402q0 -42 4 -72t15.5 -50t22.5 -31.5t34 -18t41.5 -8.5t52.5 -4q15 -9 15 -35t-15 -35q-164 4 -311 4q-152 0 -316 -4q-15 9 -15 35t15 35q34 2 52.5 4t41.5 8.5t34 18t22.5 31.5t15.5 50t4 72v821z" />
<glyph unicode="&#x39b;" horiz-adv-x="1433" d="M88 211l436 1089q19 48 70 48q49 0 68 -48l446 -1122q13 -33 31.5 -54.5t45.5 -32.5t48.5 -15t58.5 -8q9 -9 9 -35t-9 -35q-152 4 -274 4q-209 0 -361 -4q-9 9 -9 35t9 35q44 3 69.5 6.5t50.5 11.5t32.5 24t-0.5 40l-254 731l-32 92l-34 -80l-282 -729q-5 -14 -5.5 -26 t4 -21t12 -16t19.5 -12t24 -8.5t28 -6t29 -4t30 -2.5q9 -9 9 -35t-9 -35q-152 4 -272 4q-71 0 -193 -4q-9 9 -9 35t9 35q79 5 125 32t80 111z" />
<glyph unicode="&#x39c;" horiz-adv-x="1841" d="M1357 238l-52 856h-5l-460 -1084q-11 -26 -39 -26q-10 0 -23.5 7.5t-17.5 18.5l-403 1010h-8l-54 -768q-5 -43 -2.5 -76t15.5 -56t42.5 -36.5t79.5 -17.5q9 -9 9 -35t-9 -35q-122 4 -233 4q-55 0 -177 -4q-9 9 -9 35t9 35q84 7 114.5 46t39.5 136l82 844q4 42 5.5 65 t-4.5 43.5t-11.5 28t-27.5 14.5t-40 8.5t-61 3.5q-9 9 -9 35t9 35l420 -4l366 -909h10l390 909l411 4q9 -9 9 -35t-9 -35q-54 -3 -82 -10.5t-44 -23.5t-16.5 -42.5t1.5 -68.5l62 -862q3 -49 5.5 -73t10 -48t14.5 -32t27.5 -16t40 -9.5t59.5 -3.5q9 -9 9 -35t-9 -35 q-136 4 -223 4q-150 0 -342 -4q-9 9 -9 35t9 35q31 1 44.5 2t33 4.5t25.5 6.5t15.5 13t10.5 19.5t3 30.5t1 41t-3 55z" />
<glyph unicode="&#x39d;" horiz-adv-x="1515" d="M1292 0q-30 -15 -54 -20t-75 -5q-42 40 -82 91l-686 815q-35 41 -49 41q-16 0 -16 -41v-609q0 -48 2.5 -79t12.5 -54t19.5 -34.5t34.5 -20t45.5 -11.5t63.5 -7q9 -9 9 -35t-9 -35q-204 4 -229 4q-30 0 -230 -4q-9 9 -9 35t9 35q42 4 63.5 7.5t45.5 12t34 20.5t20 35 t12.5 53.5t2.5 77.5v854q-10 45 -55 85t-106 44q-9 9 -9 35t9 35l333 -4l183 -215l543 -640q15 -18 27 -25t20 0t8 32v576q0 36 -1.5 62t-7 47t-10 34.5t-17.5 24t-23 16t-32 10.5t-38.5 7t-49.5 5q-9 9 -9 35t9 35q204 -4 238 -4q21 0 221 4q9 -9 9 -35t-9 -35 q-42 -4 -63.5 -7.5t-45.5 -12t-34 -20.5t-20 -35t-12.5 -53.5t-2.5 -77.5v-840z" />
<glyph unicode="&#x39e;" horiz-adv-x="1327" d="M545 733h229q66 0 102.5 5t55 21.5t23 35t6.5 57.5q9 9 33.5 9t33.5 -9q-4 -122 -4 -193q0 -56 4 -200q-9 -9 -33.5 -9t-33.5 9q-2 26 -5 40t-13.5 31.5t-29.5 26t-53.5 15t-85.5 6.5h-229q-66 0 -102.5 -5t-55 -21.5t-23 -35t-6.5 -57.5q-9 -9 -33.5 -9t-33.5 9 q4 122 4 192q0 57 -4 201q9 9 33.5 9t33.5 -9q2 -26 5 -40t13.5 -31.5t29.5 -26t53.5 -15t85.5 -6.5zM225 1321h869q53 0 100 8q8 0 8 -6q3 -14 14 -176t11 -223q-32 -17 -68 -11q-11 33 -16 48.5t-14 38t-16 32t-18.5 22.5t-24 17.5t-31 10t-40 7t-51.5 1.5h-577 q-30 0 -51.5 -1.5t-40 -7t-31 -10t-24 -17.5t-18.5 -22.5t-16 -32t-14 -38t-16 -48.5q-36 -6 -68 11q0 58 11 221.5t14 177.5q0 6 8 6q47 -8 100 -8zM1094 0h-869q-53 0 -100 -8q-8 0 -8 6q-3 14 -14 176t-11 223q32 17 68 11q11 -33 16 -48.5t14 -38t16 -32t18.5 -22.5 t24 -17.5t31 -10t40 -7t51.5 -1.5h577q30 0 51.5 1.5t40 7t31 10t24 17.5t18.5 22.5t16 32t14 38t16 48.5q36 6 68 -11q0 -58 -11 -221.5t-14 -177.5q0 -6 -8 -6q-47 8 -100 8z" />
<glyph unicode="&#x39f;" horiz-adv-x="1495" d="M719 1262q-147 0 -240.5 -145.5t-93.5 -442.5q0 -281 113.5 -444.5t287.5 -163.5q153 0 239.5 153.5t86.5 411.5q0 301 -110.5 466t-282.5 165zM1421 674q0 -302 -176 -492q-188 -202 -500 -202q-131 0 -251.5 45.5t-213.5 128t-148.5 207t-55.5 272.5q0 286 166 485 q91 109 220 169.5t281 60.5q188 0 341.5 -82.5t245 -237.5t91.5 -354z" />
<glyph unicode="&#x3a0;" horiz-adv-x="1593" d="M233 1071q0 42 -4 72t-15.5 50t-22.5 31.5t-34 18t-41.5 8.5t-52.5 4q-15 9 -15 35t15 35q164 -4 316 -4q64 0 208.5 2t207.5 2q64 0 211.5 -2t212.5 -2q147 0 311 4q15 -9 15 -35t-15 -35q-34 -2 -52.5 -4t-41.5 -8.5t-34 -18t-22.5 -31.5t-15.5 -50t-4 -72v-821 q0 -42 4 -72t15.5 -50t22.5 -31.5t34 -18t41.5 -8.5t52.5 -4q15 -9 15 -35t-15 -35q-164 4 -311 4q-152 0 -316 -4q-15 9 -15 35t15 35q34 2 52.5 4t41.5 8.5t34 18t22.5 31.5t15.5 50t4 72v821q0 53 -9.5 85t-34 48.5t-51.5 22t-75 8.5h-213q-38 -2 -61.5 -5.5t-46.5 -13.5 t-35 -27.5t-19.5 -46.5t-7.5 -71v-821q0 -42 4 -72t15.5 -50t22.5 -31.5t34 -18t41.5 -8.5t52.5 -4q15 -9 15 -35t-15 -35q-164 4 -311 4q-152 0 -316 -4q-15 9 -15 35t15 35q34 2 52.5 4t41.5 8.5t34 18t22.5 31.5t15.5 50t4 72v821z" />
<glyph unicode="&#x3a1;" horiz-adv-x="1257" d="M709 1339q229 0 342 -67q86 -51 121.5 -128t35.5 -153q0 -92 -33 -179t-104 -146q-119 -99 -389 -99q-28 0 -72 6q-41 25 -41 86q43 -6 103 -6q124 0 175.5 70.5t51.5 232.5q0 299 -256 299q-79 0 -101 -36.5t-22 -145.5v-823q0 -42 4 -72t15.5 -50t22.5 -31.5t34 -18 t41.5 -8.5t52.5 -4q15 -9 15 -35t-15 -35q-164 4 -311 4q-152 0 -316 -4q-15 9 -15 35t15 35q34 2 52.5 4t41.5 8.5t34 18t22.5 31.5t15.5 50t4 72v821q0 42 -4 72t-15.5 50t-22.5 31.5t-34 18t-41.5 8.5t-52.5 4q-15 9 -15 35t15 35q41 0 323 7t323 7z" />
<glyph unicode="&#x3a3;" horiz-adv-x="1341" d="M1083 1321q54 0 101 8q8 0 8 -6q3 -13 5 -140.5t-1 -197.5q-36 -18 -88 -10q-38 118 -52 148q-41 81 -118 97q-24 5 -51 5h-416l459 -529l-2 -2v-28l-539 -453l469 8q42 1 67 2.5t60 7t58 18t48.5 32.5t44 52.5t31.5 76.5q21 5 49 1.5t44 -12.5q-45 -296 -76 -403 q-185 4 -283 4h-608l-250 -4q-9 9 -9 36t9 36q38 21 104 73t105 86l395 338l-524 615q-43 49 -78 75q-9 9 -9 35t9 35q252 -4 293 -4h745z" />
<glyph unicode="&#x3a4;" horiz-adv-x="1335" d="M829 252q0 -44 3 -72.5t13 -50t21.5 -32.5t37.5 -18t51.5 -9t72.5 -4q9 -9 9 -35t-9 -35q-204 4 -346 4q-138 0 -338 -4q-9 9 -9 35t9 35q47 2 72.5 4t51.5 9t37.5 18t21.5 32.5t13 50t3 72.5v784q0 100 -21.5 150.5t-75.5 50.5h-100q-106 0 -168 -48t-92 -167 q-55 0 -80 10q40 169 51 299q0 6 9 6q208 -16 477 -16h288q272 0 459 16q2 0 4 -2.5t2 -3.5q3 -131 27 -293q-23 -10 -80 -10q-26 115 -90.5 162t-183.5 47h-45q-53 0 -74 -51.5t-21 -155.5v-778z" />
<glyph unicode="&#x3a5;" horiz-adv-x="1277" d="M793 250q0 -44 2.5 -72.5t13 -49.5t21.5 -31.5t37.5 -17.5t51 -9t72.5 -4q9 -9 9 -35t-9 -35q-204 4 -325 4q-159 0 -359 -4q-9 9 -9 35t9 35q48 2 72.5 4t51.5 9t38 17.5t21.5 31.5t13 49.5t2.5 72.5v280q0 56 -6.5 80t-34.5 70l-261 440q-48 82 -85.5 106t-106.5 29 q-9 9 -10 35t8 35q122 -4 291 -4q90 0 254 4q9 -9 9 -35t-9 -35q-82 -4 -95.5 -30t23.5 -84l214 -377q26 -45 46 -6l211 397q24 45 -4.5 70t-99.5 30q-9 9 -9 35t9 35q164 -4 227 -4q69 0 191 4q9 -9 9 -35t-9 -35q-75 -7 -110 -24.5t-68 -73.5l-263 -438q-34 -55 -34 -171 v-298z" />
<glyph unicode="&#x3a6;" horiz-adv-x="1529" d="M623 1028q-61 -8 -108.5 -28.5t-88 -59.5t-62.5 -105.5t-22 -156.5q0 -323 281 -379v729zM622 233q-123 7 -220 38.5t-157 75.5t-99 100.5t-54.5 109.5t-15.5 107q0 73 29.5 142t90.5 131.5t171 104.5t255 50q-1 37 -6 63.5t-16.5 44t-23 28t-33.5 16t-39.5 7.5t-50.5 4 q-15 9 -15 35t15 35q164 -4 315 -4q147 0 311 4q15 -9 15 -35t-15 -35q-39 -2 -59.5 -5t-44.5 -12t-35.5 -25.5t-20 -45.5t-9.5 -73q234 -15 360 -99q87 -57 136.5 -143t49.5 -174t-45.5 -176t-128.5 -150q-135 -101 -372 -119q1 -38 6 -65.5t16 -45t22.5 -28t34 -16.5 t40 -8t50.5 -4q15 -9 15 -35t-15 -35q-164 4 -311 4q-151 0 -315 -4q-15 9 -15 35t15 35q33 2 50.5 4t40 8t34 16.5t22.5 28t16 45t6 65.5zM909 299q74 13 128 43t82.5 65t45.5 84t21 87t4 86q0 172 -72.5 255t-208.5 105v-725z" />
<glyph unicode="&#x3a7;" horiz-adv-x="1470" d="M889 182l-189 322q-21 35 -33.5 40t-27.5 -16q-142 -194 -231 -360q-48 -91 90 -100q9 -9 9 -35t-9 -35q-164 4 -250 4q-106 0 -228 -4q-9 9 -9 35t9 35q79 8 130.5 28t90.5 70l337 430q25 32 23.5 49t-32.5 60l-295 415q-56 79 -95.5 104.5t-106.5 30.5q-9 9 -10 35 t8 35q122 -4 317 -4q137 0 301 4q9 -9 9 -35t-9 -35q-83 -4 -96.5 -30.5t24.5 -83.5l158 -263q13 -22 21 -31.5t17.5 -10t20.5 12.5q94 109 205 306q46 91 -90 100q-9 9 -9 35t9 35q164 -4 238 -4q87 0 209 4q9 -9 9 -35t-9 -35q-77 -8 -124.5 -27.5t-86.5 -70.5l-277 -361 q-26 -33 -24.5 -55t34.5 -71l317 -467q53 -78 98.5 -104t115.5 -31q9 -9 10 -35t-8 -35q-122 4 -291 4q-155 0 -319 -4q-9 9 -9 35t9 35q42 2 63.5 9.5t23.5 23.5t-7 33.5t-31 47.5z" />
<glyph unicode="&#x3a8;" horiz-adv-x="1605" d="M659 1071q0 42 -4 72t-15.5 50t-22.5 31.5t-34 18t-41.5 8.5t-52.5 4q-15 9 -15 35t15 35q164 -4 316 -4q147 0 311 4q15 -9 15 -35t-15 -35q-34 -2 -52.5 -4t-41.5 -8.5t-34 -18t-22.5 -31.5t-15.5 -50t-4 -72v-575q54 21 95 64.5t64 92.5t37 110.5t18.5 111.5t4.5 102 q0 87 14.5 146.5t57.5 99t115 39.5h164q19 0 33 -10t14 -25t-31 -23q-22 -6 -31 -9t-30.5 -18.5t-32 -38t-20 -66t-9.5 -103.5q0 -105 -29 -192.5t-75 -146t-108.5 -102t-123.5 -67t-127 -35.5v-176q0 -42 4 -72t15.5 -50t22.5 -31.5t34 -18t41.5 -8.5t52.5 -4q15 -9 15 -35 t-15 -35q-164 4 -311 4q-152 0 -316 -4q-15 9 -15 35t15 35q34 2 52.5 4t41.5 8.5t34 18t22.5 31.5t15.5 50t4 72v175q-68 11 -130 32.5t-124 61.5t-107 94t-73 133.5t-28 175.5q0 54 -5 97.5t-11 71.5t-19.5 50t-21 32t-24.5 19t-22 10.5t-22 5.5q-27 7 -27 21 q0 15 11.5 24t29.5 9h168q188 0 188 -308q0 -201 60.5 -309.5t156.5 -145.5v572z" />
<glyph unicode="&#x3a9;" horiz-adv-x="1533" d="M352 166h201l-6 108q-86 30 -161.5 76t-138.5 108.5t-99.5 146.5t-36.5 179q0 102 46.5 202t129 181t208 131t271.5 50q149 0 274 -45.5t208 -123t129 -179.5t46 -216q0 -89 -36 -172t-97.5 -147.5t-138.5 -113t-164 -77.5l-10 -108h194q70 0 117 45.5t80 148.5 q47 0 92 -20q-12 -104 -88 -340h-467q-36 0 -33 33l25 295q56 33 95 69.5t63 74.5t37 88.5t17.5 101t4.5 122.5q0 113 -17.5 197.5t-56.5 149t-107.5 98t-166.5 33.5q-83 0 -144.5 -25t-99.5 -66.5t-61.5 -104.5t-32 -129.5t-8.5 -150.5q0 -178 43.5 -272t181.5 -186 l14 -295q0 -33 -32 -33h-475q-2 6 -12 36.5t-14.5 45.5t-14 46.5t-15.5 54t-13 51.5t-12 55.5t-8 50.5q45 20 93 20q33 -103 79.5 -148.5t116.5 -45.5z" />
<glyph unicode="&#x3aa;" horiz-adv-x="751" d="M453 1532q0 47 32.5 80t79.5 33q46 0 79.5 -33t33.5 -80q0 -46 -33.5 -78.5t-79.5 -32.5q-47 0 -79.5 32.5t-32.5 78.5zM72 1532q0 47 33 80t79 33q47 0 80 -33t33 -80q0 -46 -33 -78.5t-80 -32.5q-46 0 -79 32.5t-33 78.5zM233 1071q0 42 -4 72t-15.5 50t-22.5 31.5 t-34 18t-41.5 8.5t-52.5 4q-15 9 -15 35t15 35q164 -4 316 -4q147 0 311 4q15 -9 15 -35t-15 -35q-34 -2 -52.5 -4t-41.5 -8.5t-34 -18t-22.5 -31.5t-15.5 -50t-4 -72v-821q0 -42 4 -72t15.5 -50t22.5 -31.5t34 -18t41.5 -8.5t52.5 -4q15 -9 15 -35t-15 -35q-164 4 -311 4 q-152 0 -316 -4q-15 9 -15 35t15 35q34 2 52.5 4t41.5 8.5t34 18t22.5 31.5t15.5 50t4 72v821z" />
<glyph unicode="&#x3ab;" horiz-adv-x="1277" d="M793 250q0 -44 2.5 -72.5t13 -49.5t21.5 -31.5t37.5 -17.5t51 -9t72.5 -4q9 -9 9 -35t-9 -35q-204 4 -325 4q-159 0 -359 -4q-9 9 -9 35t9 35q48 2 72.5 4t51.5 9t38 17.5t21.5 31.5t13 49.5t2.5 72.5v280q0 56 -6.5 80t-34.5 70l-261 440q-48 82 -85.5 106t-106.5 29 q-9 9 -10 35t8 35q122 -4 291 -4q90 0 254 4q9 -9 9 -35t-9 -35q-82 -4 -95.5 -30t23.5 -84l214 -377q26 -45 46 -6l211 397q24 45 -4.5 70t-99.5 30q-9 9 -9 35t9 35q164 -4 227 -4q69 0 191 4q9 -9 9 -35t-9 -35q-75 -7 -110 -24.5t-68 -73.5l-263 -438q-34 -55 -34 -171 v-298zM399 1569q0 50 33 83.5t82 33.5t82 -33.5t33 -83.5q0 -49 -32.5 -82t-82.5 -33t-82.5 33t-32.5 82zM782 1569q0 49 34 83t83 34t81 -33.5t32 -83.5t-32 -82.5t-81 -32.5q-50 0 -83.5 33t-33.5 82z" />
<glyph unicode="&#x3ac;" horiz-adv-x="1339" d="M678 1397q37 0 91 -25t54 -53q0 -20 -10 -31l-213 -250q-14 -16 -22 -16q-14 0 -38 9.5t-24 19.5q0 12 2 18l103 293q6 16 22.5 25.5t34.5 9.5zM567 909q151 0 223.5 -65.5t112.5 -204.5l135 270q79 -12 117 -12q60 0 158 10l-320 -639q17 -64 53.5 -100.5t59.5 -36.5 q85 0 127 53q33 -7 55 -40q-93 -160 -213 -160q-59 0 -97 44.5t-68 125.5q-88 -107 -168 -140.5t-193 -33.5q-209 0 -325 86q-150 111 -150 348q0 101 33 186t85 141t118 95t131.5 56t125.5 17zM813 444l-18 70q-38 145 -97.5 227t-130.5 82q-39 0 -85.5 -34t-77.5 -93 q-44 -84 -44 -233q0 -67 10.5 -132t33 -127t64.5 -100t97 -38q25 0 48 14.5t41.5 36.5t40 60.5t38 75t39.5 91.5z" />
<glyph unicode="&#x3ad;" horiz-adv-x="907" d="M502 1393q37 0 91 -25t54 -53q0 -20 -10 -31l-213 -250q-14 -16 -23 -16q-14 0 -37.5 9.5t-23.5 19.5q0 12 2 18l102 293q6 16 22.5 25.5t35.5 9.5zM356 248q0 -85 44.5 -127.5t107.5 -42.5q120 0 266 100q34 -16 53 -65q-63 -56 -155.5 -94.5t-206.5 -38.5 q-86 0 -153.5 14.5t-108 38t-67 55.5t-36.5 63.5t-10 65.5q0 19 0.5 30t4 34t10.5 39t21.5 38.5t35 40t52.5 36.5t73 34q-83 33 -119.5 76.5t-36.5 113.5q0 112 89 181t282 69q135 0 216 -42.5t81 -110.5q0 -45 -29 -63.5t-68 -18.5q-53 0 -78.5 17.5t-43.5 51.5 q-45 80 -91 80q-110 0 -110 -137q0 -91 32 -137.5t83 -46.5q14 0 55.5 5t48.5 5q102 0 102 -47q0 -55 -104 -55q-8 0 -48.5 6t-55.5 6q-64 0 -100 -45.5t-36 -128.5z" />
<glyph unicode="&#x3ae;" horiz-adv-x="1271" d="M676 1395q37 0 91 -25t54 -53q0 -20 -10 -31l-213 -250q-14 -16 -23 -16q-14 0 -37.5 9.5t-23.5 19.5q0 12 2 18l102 293q6 16 22.5 25.5t35.5 9.5zM468 89q0 -57 -22 -83t-86 -26q-88 0 -123.5 16t-35.5 57v580q0 86 -23.5 110.5t-109.5 32.5q-13 46 -5 66 q166 21 340 67q40 0 48 -35q11 -44 15 -124q67 52 168.5 106t166.5 55q276 5 276 -329v-582q0 -301 45 -420l-39 -65l-252 100q-20 93 -20 385v547q0 102 -25 154.5t-88 52.5q-51 0 -113.5 -23.5t-117.5 -62.5v-10z" />
<glyph unicode="&#x3af;" horiz-adv-x="724" d="M408 1399q37 0 91 -25t54 -53q0 -20 -10 -31l-213 -250q-14 -16 -23 -16q-14 0 -37.5 9.5t-23.5 19.5q0 12 2 18l102 293q6 16 22.5 25.5t35.5 9.5zM475 260q0 -71 26 -104t64 -33q68 0 107 29q20 -16 28.5 -28t8.5 -30q-32 -45 -109.5 -79.5t-159.5 -34.5 q-41 0 -89.5 14.5t-80.5 42.5q-61 51 -61 178v428q0 46 -4.5 70t-21 39.5t-39 20.5t-68.5 9q-3 10 -5 35t1 35q28 4 84.5 10.5t90 11t75 10.5t69.5 12t45 13q47 0 47 -35q-8 -114 -8 -216v-398z" />
<glyph unicode="&#x3b0;" horiz-adv-x="1126" d="M700 1606q37 0 91.5 -25t54.5 -53q0 -20 -10 -31l-213 -250q-14 -16 -23 -16q-14 0 -37.5 9.5t-23.5 19.5q0 12 2 18l102 293q6 16 22.5 25.5t34.5 9.5zM668 1169q0 47 32.5 80t79.5 33q46 0 79.5 -33t33.5 -80q0 -45 -33.5 -77.5t-79.5 -32.5q-47 0 -79.5 32t-32.5 78z M287 1169q0 47 33 80t79 33q47 0 80 -33t33 -80q0 -46 -33 -78t-80 -32q-46 0 -79 32t-33 78zM1063 512q0 -125 -38 -229t-100.5 -168.5t-138.5 -99.5t-155 -35q-124 0 -186.5 11t-127.5 52q-141 88 -141 315q0 95 21 238q2 21 8 53t6 49q0 16 -7.5 30.5t-17.5 19.5 q-8 4 -29 6t-49 3t-34 1q-19 23 -19 63q39 24 160.5 56t173.5 32q57 0 85 -21t28 -71q0 -30 -4.5 -65t-13 -79t-11.5 -65q-24 -140 -24 -256q0 -119 68.5 -202.5t154.5 -83.5q99 0 176 120q76 119 76 301q0 130 -35 179q-5 7 -11.5 13t-12 9.5t-15 7t-13.5 4.5t-14.5 4 t-11.5 3q-60 18 -82 36q-33 28 -33 84q0 31 28 56.5t73 25.5q130 0 186 -69q80 -97 80 -328z" />
<glyph unicode="&#x3b1;" horiz-adv-x="1339" d="M567 909q151 0 223.5 -65.5t112.5 -204.5l135 270q79 -12 117 -12q60 0 158 10l-320 -639q17 -64 53.5 -100.5t59.5 -36.5q85 0 127 53q33 -7 55 -40q-93 -160 -213 -160q-59 0 -97 44.5t-68 125.5q-88 -107 -168 -140.5t-193 -33.5q-209 0 -325 86q-150 111 -150 348 q0 101 33 186t85 141t118 95t131.5 56t125.5 17zM813 444l-18 70q-38 145 -97.5 227t-130.5 82q-39 0 -85.5 -34t-77.5 -93q-44 -84 -44 -233q0 -67 10.5 -132t33 -127t64.5 -100t97 -38q25 0 48 14.5t41.5 36.5t40 60.5t38 75t39.5 91.5z" />
<glyph unicode="&#x3b2;" horiz-adv-x="1150" d="M418 1001v-876q5 7 15 18t45.5 35.5t76.5 36.5q13 -11 36 -52t48 -71.5t51 -30.5q31 0 53.5 23t34 62.5t16.5 82.5t5 93q0 456 -142 456q-4 0 -38.5 -8t-69.5 -8q-84 0 -84 65q0 29 24.5 45.5t59.5 16.5q27 0 64 -8.5t49 -8.5q38 0 55.5 56t17.5 130t-12 136.5t-44 108 t-79 45.5q-24 0 -45.5 -6t-47.5 -28t-44.5 -58t-31.5 -101.5t-13 -153.5zM152 -408v1260q0 146 44 277t137 209q52 44 136 68t172 24q98 0 175.5 -28.5t127.5 -95.5t50 -165q0 -105 -74.5 -184.5t-186.5 -127.5q33 -8 58.5 -15t63.5 -23t66.5 -35t59.5 -50.5t51.5 -70 t33.5 -94t13 -120.5q0 -84 -28 -163t-78.5 -141t-126.5 -99.5t-166 -37.5t-161.5 36t-100.5 95v-494l-223 -94z" />
<glyph unicode="&#x3b3;" horiz-adv-x="1286" d="M1149 750q0 -154 -104 -347.5t-287 -382.5q12 -59 12 -217q0 -26 -4 -58t-16.5 -74.5t-32 -76.5t-55 -57.5t-80.5 -23.5q-144 0 -144 131q0 150 154 358l14 23q-31 139 -75.5 259t-82 191t-102.5 182q-16 27 -40 48.5t-48 21.5q-13 0 -27 -2t-40 -8.5t-48 -24.5t-34 -46 q-45 2 -72 30q31 92 108.5 162.5t188.5 70.5q59 0 99 -9t65.5 -30.5t40 -44t32.5 -63.5q50 -113 95 -285t73 -344q90 118 167 259.5t77 213.5q0 29 -15 53.5t-28 30.5q-27 13 -53.5 53t-26.5 74q0 92 123 92q69 0 117.5 -46.5t48.5 -112.5z" />
<glyph unicode="&#x3b4;" horiz-adv-x="1105" d="M621 772l-46 39q-231 -101 -231 -367q0 -64 12.5 -127.5t37.5 -121t69 -93.5t100 -36q30 0 56 7t56 31t51 63t35.5 108.5t14.5 162.5q0 87 -41 182t-114 152zM498 874l-29 23q-134 109 -188 173t-54 132q0 59 27 104t73 71.5t101.5 39.5t118.5 13q156 0 265.5 -67 t109.5 -128q0 -44 -37.5 -63t-83.5 -19q-34 0 -75 21t-67 71q-27 52 -62.5 77.5t-64.5 25.5q-58 0 -90 -32t-32 -93q0 -38 54 -88t146 -115q80 -57 140 -105t118 -104.5t94.5 -109.5t59 -114.5t22.5 -123.5q0 -97 -29.5 -178.5t-79 -137t-115 -94t-136 -56t-143.5 -17.5 q-206 0 -334.5 123.5t-128.5 306.5q0 75 26 142t67 115t98.5 89.5t112 68t116.5 49.5z" />
<glyph unicode="&#x3b5;" horiz-adv-x="907" d="M356 248q0 -85 44.5 -127.5t107.5 -42.5q120 0 266 100q34 -16 53 -65q-63 -56 -155.5 -94.5t-206.5 -38.5q-86 0 -153.5 14.5t-108 38t-67 55.5t-36.5 63.5t-10 65.5q0 19 0.5 30t4 34t10.5 39t21.5 38.5t35 40t52.5 36.5t73 34q-83 33 -119.5 76.5t-36.5 113.5 q0 112 89 181t282 69q135 0 216 -42.5t81 -110.5q0 -45 -29 -63.5t-68 -18.5q-53 0 -78.5 17.5t-43.5 51.5q-45 80 -91 80q-110 0 -110 -137q0 -91 32 -137.5t83 -46.5q14 0 55.5 5t48.5 5q102 0 102 -47q0 -55 -104 -55q-8 0 -48.5 6t-55.5 6q-64 0 -100 -45.5t-36 -128.5z " />
<glyph unicode="&#x3b6;" horiz-adv-x="1015" d="M350 1106q-92 0 -178 70.5t-106 171.5q28 28 89.5 51.5t108.5 30.5h19q-2 -12 -2 -41q0 -82 46.5 -139.5t94.5 -57.5q92 0 135 12q137 144 231 144q115 0 115 -93q0 -89 -256 -122q-79 -101 -135.5 -195t-86 -163t-46 -141t-20 -116.5t-3.5 -101.5q0 -36 1.5 -59t7 -51.5 t16.5 -46.5t30 -36.5t47 -29t69 -17t94 -6.5q152 0 240.5 -90.5t88.5 -226.5q0 -38 -12 -77.5t-43.5 -82.5t-78.5 -76t-125 -54.5t-175 -21.5q-70 0 -135.5 17t-111 53.5t-45.5 83.5q0 97 116 97q108 0 153 -64q19 -27 32.5 -43.5t40 -31.5t57.5 -15q50 0 85 16t53.5 46.5 t26 66.5t7.5 83q0 62 -37.5 100t-112.5 38q-555 0 -555 407q0 273 399 727q-51 -16 -139 -16z" />
<glyph unicode="&#x3b7;" horiz-adv-x="1271" d="M468 89q0 -57 -22 -83t-86 -26q-88 0 -123.5 16t-35.5 57v580q0 86 -23.5 110.5t-109.5 32.5q-13 46 -5 66q166 21 340 67q40 0 48 -35q11 -44 15 -124q67 52 168.5 106t166.5 55q276 5 276 -329v-582q0 -301 45 -420l-39 -65l-252 100q-20 93 -20 385v547 q0 102 -25 154.5t-88 52.5q-51 0 -113.5 -23.5t-117.5 -62.5v-10z" />
<glyph unicode="&#x3b8;" horiz-adv-x="1165" d="M799 637h-432q1 -145 28 -274.5t78 -213t113 -83.5t111.5 83t75 212t26.5 276zM575 1309q-49 0 -89.5 -52.5t-65.5 -137t-38.5 -183t-14.5 -197.5h432q-1 153 -30.5 284t-81 208.5t-112.5 77.5zM80 684q0 171 42.5 309.5t114 224.5t161.5 131.5t190 45.5q70 0 137 -22 t133.5 -75.5t116 -132.5t80 -203t30.5 -278q0 -152 -32 -275t-83 -201.5t-119 -131t-136 -74.5t-137 -22q-73 0 -142.5 24t-134.5 78.5t-113.5 134t-78 200t-29.5 267.5z" />
<glyph unicode="&#x3b9;" horiz-adv-x="724" d="M475 260q0 -71 26 -104t64 -33q68 0 107 29q20 -16 28.5 -28t8.5 -30q-32 -45 -109.5 -79.5t-159.5 -34.5q-41 0 -89.5 14.5t-80.5 42.5q-61 51 -61 178v428q0 46 -4.5 70t-21 39.5t-39 20.5t-68.5 9q-3 10 -5 35t1 35q28 4 84.5 10.5t90 11t75 10.5t69.5 12t45 13 q47 0 47 -35q-8 -114 -8 -216v-398z" />
<glyph unicode="&#x3ba;" horiz-adv-x="1224" d="M468 89q0 -57 -22 -83t-86 -26q-88 0 -123.5 16t-35.5 57v580q0 86 -23.5 110.5t-109.5 32.5q-13 46 -5 66q166 21 340 67q40 0 48 -35q17 -76 16 -216v-136q56 0 106 62l78 96q108 133 170.5 181t130.5 48q27 0 55.5 -5t58 -16.5t48.5 -35t19 -55.5q0 -35 -26 -71.5 t-60 -36.5q-51 0 -95 38q-7 7 -17 21.5t-17.5 24t-12.5 9.5q-24 0 -43.5 -17.5t-77.5 -90.5l-49 -63q-18 -22 53 -154l136 -238q44 -76 64.5 -97.5t53.5 -21.5q21 0 36 11t40 41q15 -3 33 -23.5t23 -35.5q-89 -113 -213 -113q-96 0 -152 32t-109 117l-129 240 q-40 73 -104 73z" />
<glyph unicode="&#x3bb;" horiz-adv-x="1120" d="M1106 154q-18 -89 -70.5 -133t-105.5 -44q-158 0 -242 281l-128 426l-269 -684q-193 -14 -236 -25l-71 25l505 920l-18 59q-20 68 -41 119t-41.5 81t-37.5 48.5t-37.5 26t-32.5 9t-31 1.5q-91 0 -146 -52q-11 4 -21 20t-13 36q33 63 88 112.5t110 49.5q23 0 46 -4t58 -20 t65 -43t61 -78t51 -120l219 -727q40 -136 66 -197.5t47 -79.5t57 -18q75 0 127 64q22 -5 41 -53z" />
<glyph unicode="&#x3bc;" horiz-adv-x="1144" d="M703 99l-17 -1q-47 -38 -61.5 -49t-50.5 -33t-67.5 -29t-72.5 -7q-60 0 -94 14q1 -10 2 -83t8 -108q25 -110 25 -147q0 -62 -38 -96.5t-91 -34.5q-40 0 -95 41t-55 100q0 47 15 146q1 10 6 39t7 44.5t4.5 43t2.5 53.5q0 16 -2.5 51.5t-3.5 50.5q-2 17 -15.5 87t-13.5 100 v381q0 23 -5.5 79.5t-10.5 102.5l-6 45l282 26q6 -147 6 -213v-374q0 -70 7 -115.5t27 -74.5t55 -29q68 0 134.5 24.5t98.5 67.5v688l266 29v-658q0 -74 16 -105.5t50 -31.5q47 0 86 29q20 -16 28.5 -28t8.5 -30q-120 -114 -277 -114q-139 0 -159 119z" />
<glyph unicode="&#x3bd;" horiz-adv-x="1073" d="M209 678q-13 43 -32 58.5t-56 17.5l-76 4q-6 11 -7.5 38t1.5 38q47 11 192.5 33.5t180.5 37.5q10 0 15 -4.5t9 -21.5l195 -678q3 -11 5 -11q4 2 14 18q107 161 146.5 242.5t39.5 135.5q0 45 -12.5 79t-27.5 50.5t-27.5 44t-12.5 61.5q0 30 43.5 58t113.5 28q45 0 78 -35 t33 -79q0 -118 -100.5 -322.5t-305.5 -486.5q-15 -7 -91 -6.5t-91 6.5z" />
<glyph unicode="&#x3be;" horiz-adv-x="993" d="M762 -150q0 67 -43.5 96t-126.5 29q-142 0 -247 29.5t-162.5 80.5t-84 110t-26.5 127q0 83 74 172t173 133q-80 19 -120 69.5t-40 115.5q0 81 79 161t211 149q-44 -16 -78 -16q-92 0 -178.5 70.5t-106.5 171.5q28 28 90 51.5t109 30.5h18q-2 -12 -2 -41 q0 -82 46.5 -139.5t94.5 -57.5q34 0 48 3t39 17q148 163 310 163q34 0 57 -17t23 -49q0 -38 -69 -73.5t-207 -74.5l-44 -38.5t-43.5 -38.5t-35.5 -33t-35 -36t-26.5 -33.5t-24.5 -38.5t-15 -37.5t-12.5 -45t-2.5 -47.5q0 -48 26 -76t53 -28q42 0 117 28.5t119 28.5 q94 0 94 -64q0 -86 -149 -86q-53 0 -138.5 -7t-109.5 -19q-39 -20 -58.5 -97.5t-19.5 -160.5q0 -47 8 -76.5t31.5 -54.5t70 -36t119.5 -11q154 0 252.5 -81.5t98.5 -222.5q0 -38 -12 -77.5t-43.5 -82t-79 -75t-125.5 -53.5t-175 -21q-70 0 -135.5 17t-111 53.5t-45.5 83.5 q0 97 116 97q108 0 153 -64q19 -27 32.5 -43.5t40 -31.5t57.5 -15q50 0 85 16t53.5 46.5t26 66.5t7.5 83z" />
<glyph unicode="&#x3bf;" horiz-adv-x="1128" d="M532 823q-170 0 -170 -354q0 -61 13.5 -127.5t40 -130t73.5 -104.5t107 -41q30 0 58 15t54.5 47.5t42 96.5t15.5 152q0 208 -64 327t-170 119zM76 424q0 206 112 334q132 151 377 151q224 0 356 -131t132 -336q0 -95 -33.5 -188t-106.5 -158q-130 -116 -350 -116 q-209 0 -348 123.5t-139 320.5z" />
<glyph unicode="&#x3c0;" horiz-adv-x="1212" d="M1149 893l22 -25q-19 -41 -33 -66.5t-40 -64.5t-55 -59.5t-60 -20.5h-123q-1 -14 -3 -30q-3 -32 -3 -262q0 -62 24.5 -95.5t61.5 -33.5q98 0 184 63q16 -1 26.5 -24t10.5 -50q-36 -99 -135 -172t-176 -73q-97 0 -131.5 44.5t-34.5 163.5q0 129 29 469h-217 q0 -372 -62 -524.5t-213 -152.5q-35 0 -77.5 45t-42.5 88q0 31 20.5 61t56.5 40q20 5 33.5 10t34 18t34 31.5t29.5 52t26 77t17.5 108.5t9.5 146h-67q-75 0 -114 -23t-62 -77q-17 -6 -47.5 5t-32.5 24q7 50 26.5 100.5t53 98.5t89 78t124.5 30h817z" />
<glyph unicode="&#x3c1;" horiz-adv-x="1148" d="M780 410q0 195 -63.5 304t-169.5 109q-168 0 -168 -348v-231q29 -63 90.5 -120.5t114.5 -57.5q96 0 146 91t50 253zM362 -397l-258 -90l-36 61q45 113 45 440v367q0 97 13 171t37.5 121.5t45.5 74t51 53.5q121 108 338 108q204 0 336.5 -127t132.5 -327 q0 -229 -140.5 -352t-371.5 -123q-96 0 -176 43q0 -28 1 -89.5t1 -91.5q0 -164 -19 -239z" />
<glyph unicode="&#x3c2;" horiz-adv-x="903" d="M696 -201q0 -86 -41.5 -132t-113.5 -46q-49 0 -110 91q-45 64 -152 64q-116 0 -116 -97q0 -70 81.5 -112t189.5 -42q107 0 186 23.5t125 60t73.5 91.5t36.5 108t9 118q0 129 -86 215q-28 28 -86 55t-117 42q-203 54 -289.5 102.5t-86.5 120.5q0 122 57.5 190t171.5 68 q58 0 106 -19t74 -45q51 -51 101 -51q40 0 76 55t36 99q0 23 -14 46.5t-43.5 47t-84.5 38.5t-128 15q-94 0 -177 -31t-142 -82t-102 -116.5t-64 -134.5t-21 -135q0 -157 70 -258t241 -148q22 -6 63 -17q42 -11 62 -16.5t53.5 -16t49 -17.5t38.5 -18t33 -21.5t21.5 -25 t15.5 -32t4 -37.5z" />
<glyph unicode="&#x3c3;" horiz-adv-x="1167" d="M983 698h-258q122 -41 208.5 -130.5t86.5 -215.5q0 -69 -30.5 -134.5t-88 -120t-152.5 -87.5t-212 -33q-140 0 -257 56t-187 157.5t-70 227.5q0 94 34.5 181t98.5 151q56 56 188.5 99.5t267.5 43.5h494l22 -25q-6 -12 -21 -43.5t-24.5 -48t-25.5 -38t-34 -31t-40 -9.5z M551 66q87 0 134.5 74.5t47.5 217.5t-21.5 212t-88.5 128q-78 0 -134 -14.5t-90.5 -39t-55 -65.5t-27.5 -86t-7 -108q0 -319 242 -319z" />
<glyph unicode="&#x3c4;" horiz-adv-x="903" d="M375 657h-101q-78 0 -110 -17t-62 -81q-36 0 -47 16q5 38 14 75t29 82t47 78.5t71.5 56t98.5 22.5h547l23 -25q-14 -47 -35 -90t-57.5 -80t-75.5 -37h-195q-6 -74 -6 -292q0 -62 24.5 -95.5t61.5 -33.5q98 0 184 63q16 -1 26.5 -24t10.5 -50q-36 -99 -135 -172t-176 -73 q-97 0 -131.5 44.5t-34.5 163.5q0 129 29 469z" />
<glyph unicode="&#x3c5;" horiz-adv-x="1126" d="M1063 512q0 -125 -38 -229t-100.5 -168.5t-138.5 -99.5t-155 -35q-124 0 -186.5 11t-127.5 52q-141 88 -141 315q0 95 21 238q2 21 8 53t6 49q0 16 -7.5 30.5t-17.5 19.5q-8 4 -29 6t-49 3t-34 1q-19 23 -19 63q39 24 160.5 56t173.5 32q57 0 85 -21t28 -71 q0 -30 -4.5 -65t-13 -79t-11.5 -65q-24 -140 -24 -256q0 -119 68.5 -202.5t154.5 -83.5q99 0 176 120q76 119 76 301q0 130 -35 179q-5 7 -11.5 13t-12 9.5t-15 7t-13.5 4.5t-14.5 4t-11.5 3q-60 18 -82 36q-33 28 -33 84q0 31 28 56.5t73 25.5q130 0 186 -69 q80 -97 80 -328z" />
<glyph unicode="&#x3c6;" horiz-adv-x="1386" d="M1042 459q0 193 -47.5 278.5t-126.5 85.5q-39 0 -63.5 -77.5t-24.5 -237.5v-436q114 36 188 144t74 243zM618 -485l-43 51v418q-499 47 -499 485q0 66 30.5 130.5t72.5 110.5t100 90t99.5 68t84.5 45l59 -65q-29 -22 -46.5 -38.5t-46 -52t-45 -74t-29.5 -99.5t-13 -133 q0 -150 57.5 -250.5t175.5 -130.5v465q0 115 21.5 184t85.5 133q59 59 209 59q123 0 220.5 -62.5t147.5 -158t50 -201.5q0 -88 -24 -162.5t-67 -126t-94.5 -91t-114 -64t-117.5 -38.5t-112 -21v-422z" />
<glyph unicode="&#x3c7;" horiz-adv-x="1157" d="M367 479q-65 175 -94 223q-33 55 -64 56q-23 0 -58 -11.5t-57 -33.5q-11 3 -20.5 20t-12.5 37q96 129 187 129q68 0 119.5 -23.5t89.5 -72.5t66 -112t55 -156l43 -148l241 506q42 -6 56 -6l208 12l-149 -219l-318 -426l134 -354q38 -102 66.5 -153.5t50 -66t51.5 -14.5 q28 0 64 16t56 39q15 -1 25.5 -18.5t13.5 -34.5q-13 -27 -37.5 -55t-48.5 -43q-28 -19 -63.5 -32t-59.5 -13q-56 0 -99 13t-86.5 47t-79 101t-64.5 167l-47 163l-152 -274l-96 -223l-193 20l-53 2l6 33l424 625z" />
<glyph unicode="&#x3c8;" horiz-adv-x="1427" d="M111 358q0 156 12 238q2 21 8 53t6 49t-7.5 31t-16.5 19q-8 4 -29 6t-49.5 3t-34.5 1q-18 22 -18 63q39 24 160 56t173 32q57 0 85 -21t28 -71q0 -30 -4.5 -65t-13 -79t-11.5 -65q-16 -93 -16 -256q0 -81 63 -164t177 -114q10 196 27.5 622t23.5 549h137l41 -1173 q69 19 125 63t88 97.5t48.5 106t16.5 95.5q0 98 -57 203q-49 93 -49 180q0 33 38.5 62.5t86.5 29.5q57 0 94 -19t54.5 -55.5t23.5 -73.5t6 -89q0 -128 -27.5 -240.5t-82.5 -207t-148 -157t-215 -81.5q3 -64 9 -212.5t9 -224.5h-274l20 433q-240 -1 -368 94 q-68 50 -103.5 130.5t-35.5 151.5z" />
<glyph unicode="&#x3c9;" horiz-adv-x="1556" d="M1473 424q0 -200 -118.5 -322t-324.5 -122q-177 0 -264 129q-89 -129 -283 -129q-65 0 -120.5 11.5t-108 39t-89.5 70.5t-59 111t-22 155q0 151 127 308.5t332 258.5q40 -23 43 -68q-28 -14 -61 -48.5t-69.5 -90t-60.5 -142t-24 -184.5q0 -171 50 -253t118 -82 q58 0 98.5 50t71.5 156q-41 115 -41 234q0 54 28 89.5t86 35.5q117 0 117 -113q0 -111 -49 -244q65 -208 174 -208q58 0 95.5 49.5t52 125t14.5 177.5q0 268 -209 448q9 38 47 62q40 -16 85 -39t113.5 -70.5t121 -101t91 -132t38.5 -161.5z" />
<glyph unicode="&#x3ca;" horiz-adv-x="724" d="M397 1169q0 47 33 80t80 33q46 0 79.5 -33t33.5 -80q0 -45 -33.5 -77.5t-79.5 -32.5q-47 0 -80 32t-33 78zM16 1169q0 47 33.5 80t79.5 33q47 0 80 -33t33 -80q0 -46 -33 -78t-80 -32q-46 0 -79.5 32.5t-33.5 77.5zM475 260q0 -71 26 -104t64 -33q68 0 107 29 q20 -16 28.5 -28t8.5 -30q-32 -45 -109.5 -79.5t-159.5 -34.5q-41 0 -89.5 14.5t-80.5 42.5q-61 51 -61 178v428q0 46 -4.5 70t-21 39.5t-39 20.5t-68.5 9q-3 10 -5 35t1 35q28 4 84.5 10.5t90 11t75 10.5t69.5 12t45 13q47 0 47 -35q-8 -114 -8 -216v-398z" />
<glyph unicode="&#x3cb;" horiz-adv-x="1126" d="M639 1169q0 47 33 80t80 33q46 0 79 -33t33 -80q0 -46 -33 -78t-79 -32q-47 0 -80 32t-33 78zM258 1169q0 47 33.5 80t79.5 33q47 0 79.5 -33t32.5 -80q0 -46 -32.5 -78t-79.5 -32q-46 0 -79.5 32.5t-33.5 77.5zM1063 512q0 -125 -38 -229t-100.5 -168.5t-138.5 -99.5 t-155 -35q-124 0 -186.5 11t-127.5 52q-141 88 -141 315q0 95 21 238q2 21 8 53t6 49q0 16 -7.5 30.5t-17.5 19.5q-8 4 -29 6t-49 3t-34 1q-19 23 -19 63q39 24 160.5 56t173.5 32q57 0 85 -21t28 -71q0 -30 -4.5 -65t-13 -79t-11.5 -65q-24 -140 -24 -256 q0 -119 68.5 -202.5t154.5 -83.5q99 0 176 120q76 119 76 301q0 130 -35 179q-5 7 -11.5 13t-12 9.5t-15 7t-13.5 4.5t-14.5 4t-11.5 3q-60 18 -82 36q-33 28 -33 84q0 31 28 56.5t73 25.5q130 0 186 -69q80 -97 80 -328z" />
<glyph unicode="&#x3cc;" horiz-adv-x="1128" d="M565 1397q37 0 91.5 -25t54.5 -53q0 -19 -11 -31l-213 -250q-14 -16 -22 -16q-14 0 -38 9.5t-24 19.5q0 9 3 18l102 293q6 16 22.5 25.5t34.5 9.5zM532 823q-170 0 -170 -354q0 -61 13.5 -127.5t40 -130t73.5 -104.5t107 -41q30 0 58 15t54.5 47.5t42 96.5t15.5 152 q0 208 -64 327t-170 119zM76 424q0 206 112 334q132 151 377 151q224 0 356 -131t132 -336q0 -95 -33.5 -188t-106.5 -158q-130 -116 -350 -116q-209 0 -348 123.5t-139 320.5z" />
<glyph unicode="&#x3cd;" horiz-adv-x="1126" d="M623 1397q37 0 91 -25t54 -53q0 -20 -10 -31l-213 -250q-14 -16 -23 -16q-14 0 -37.5 9.5t-23.5 19.5q0 12 2 18l102 293q6 16 22.5 25.5t35.5 9.5zM1063 512q0 -125 -38 -229t-100.5 -168.5t-138.5 -99.5t-155 -35q-124 0 -186.5 11t-127.5 52q-141 88 -141 315 q0 95 21 238q2 21 8 53t6 49q0 16 -7.5 30.5t-17.5 19.5q-8 4 -29 6t-49 3t-34 1q-19 23 -19 63q39 24 160.5 56t173.5 32q57 0 85 -21t28 -71q0 -30 -4.5 -65t-13 -79t-11.5 -65q-24 -140 -24 -256q0 -119 68.5 -202.5t154.5 -83.5q99 0 176 120q76 119 76 301 q0 130 -35 179q-5 7 -11.5 13t-12 9.5t-15 7t-13.5 4.5t-14.5 4t-11.5 3q-60 18 -82 36q-33 28 -33 84q0 31 28 56.5t73 25.5q130 0 186 -69q80 -97 80 -328z" />
<glyph unicode="&#x3ce;" horiz-adv-x="1556" d="M799 1401q37 0 91 -25t54 -53q0 -20 -10 -31l-213 -250q-14 -16 -23 -16q-14 0 -37.5 9.5t-23.5 19.5q0 12 2 18l102 293q6 16 22.5 25.5t35.5 9.5zM1473 424q0 -200 -118.5 -322t-324.5 -122q-177 0 -264 129q-89 -129 -283 -129q-65 0 -120.5 11.5t-108 39t-89.5 70.5 t-59 111t-22 155q0 151 127 308.5t332 258.5q40 -23 43 -68q-28 -14 -61 -48.5t-69.5 -90t-60.5 -142t-24 -184.5q0 -171 50 -253t118 -82q58 0 98.5 50t71.5 156q-41 115 -41 234q0 54 28 89.5t86 35.5q117 0 117 -113q0 -111 -49 -244q65 -208 174 -208q58 0 95.5 49.5 t52 125t14.5 177.5q0 268 -209 448q9 38 47 62q40 -16 85 -39t113.5 -70.5t121 -101t91 -132t38.5 -161.5z" />
<glyph unicode="&#x3d0;" horiz-adv-x="1134" d="M672 1284q-76 0 -140 -25.5t-104.5 -62t-73 -87t-48.5 -91t-27 -82.5q254 11 375.5 82.5t121.5 173.5q0 47 -20 69.5t-84 22.5zM328 393q0 -135 79 -239.5t173 -104.5t146 106.5t52 266.5q0 159 -65 236t-162 77q-102 0 -162.5 -99.5t-60.5 -242.5zM319 1294 q74 65 181 100.5t211 35.5q122 0 196 -55t74 -148q0 -88 -63 -159t-167 -115t-228 -68.5t-257 -28.5q-8 -30 -16 -156q65 56 151 86.5t174 30.5q211 0 331 -109t120 -300q0 -201 -124 -317t-339 -116q-119 0 -214 49t-154 132.5t-90 190.5t-31 228q0 286 54 443t191 276z " />
<glyph unicode="&#x3d1;" horiz-adv-x="1265" d="M492 885q34 -28 104 -38.5t201 -10.5q-1 98 -19 180t-46 134t-62 88.5t-64.5 51.5t-56.5 15q-61 0 -104.5 -66.5t-43.5 -163.5q0 -51 25.5 -104.5t65.5 -85.5zM1081 551q0 63 -13.5 94.5t-41.5 40.5q-1 -123 -14 -224.5t-45.5 -194t-84 -155.5t-132 -100t-185.5 -37 q-72 0 -135 17t-117.5 52t-86 98.5t-31.5 148.5q0 113 -4.5 148.5t-24.5 35.5l-88 -29l-21 60l43 16h-4q118 66 211 66q16 0 29.5 -3t24 -10.5t18.5 -14.5t13.5 -22t9.5 -25.5t7 -32.5t4.5 -35.5t2 -41.5t0.5 -44.5v-49.5q0 -117 56 -186.5t114 -69.5q211 0 211 641 q-310 9 -471.5 119.5t-161.5 323.5q0 101 98.5 179.5t231.5 78.5q105 0 193.5 -32.5t150 -87.5t104.5 -128t63 -152t21 -161q77 -5 125 -35v2q70 -50 70 -250h-140z" />
<glyph unicode="&#x3d2;" horiz-adv-x="1284" d="M748 254q0 -45 2.5 -73.5t13 -50t21.5 -32.5t37 -18.5t51.5 -9.5t72.5 -4q9 -9 9 -35t-9 -35q-204 4 -346 4q-138 0 -338 -4q-9 9 -9 35t9 35q47 2 72.5 4t51.5 9t37.5 18.5t21.5 33t13 50.5t3 73v391q0 281 -58 438.5t-153 157.5q-99 0 -187 -70q-24 11 -43 72 q38 47 115 76t158 29q239 0 350 -338q22 69 54.5 126.5t79.5 106.5t113 77t144 28q86 0 144 -39t58 -108q0 -39 -28.5 -69t-70.5 -30q-41 0 -77 21.5t-42 54.5q-5 20 -29.5 39.5t-48.5 19.5q-42 0 -87 -78.5t-75 -203t-30 -246.5v-455z" />
<glyph unicode="&#x3d3;" horiz-adv-x="1329" d="M98 1483q37 0 91.5 -25t54.5 -53q0 -19 -11 -31l-213 -250q-14 -16 -22 -16q-14 0 -37.5 9.5t-23.5 19.5q0 12 2 18l102 293q6 16 22.5 25.5t34.5 9.5zM967 254q0 -45 2.5 -73.5t13 -50t21.5 -32.5t37 -18.5t51.5 -9.5t72.5 -4q10 -10 10 -35t-10 -35q-204 4 -346 4 q-138 0 -338 -4q-9 9 -9 35t9 35q47 2 72.5 4t51.5 9t37.5 18.5t21.5 33t13 50.5t3 73v391q0 281 -58 438.5t-153 157.5q-98 0 -186 -70q-24 11 -43 72q38 47 114.5 76t157.5 29q239 0 350 -338q22 69 54.5 126.5t79.5 106.5t113 77t144 28q86 0 144 -39t58 -108 q0 -39 -28.5 -69t-70.5 -30q-41 0 -77 21.5t-42 54.5q-5 20 -29.5 39.5t-48.5 19.5q-42 0 -87 -78.5t-75 -203t-30 -246.5v-455z" />
<glyph unicode="&#x3d4;" horiz-adv-x="1284" d="M748 254q0 -45 2.5 -73.5t13 -50t21.5 -32.5t37 -18.5t51.5 -9.5t72.5 -4q9 -9 9 -35t-9 -35q-204 4 -346 4q-138 0 -338 -4q-9 9 -9 35t9 35q47 2 72.5 4t51.5 9t37.5 18.5t21.5 33t13 50.5t3 73v391q0 281 -58 438.5t-153 157.5q-99 0 -187 -70q-24 11 -43 72 q38 47 115 76t158 29q239 0 350 -338q22 69 54.5 126.5t79.5 106.5t113 77t144 28q86 0 144 -39t58 -108q0 -39 -28.5 -69t-70.5 -30q-41 0 -77 21.5t-42 54.5q-5 20 -29.5 39.5t-48.5 19.5q-42 0 -87 -78.5t-75 -203t-30 -246.5v-455zM340 1569q0 50 33 83.5t82 33.5 t81.5 -33.5t32.5 -83.5t-32.5 -82.5t-81.5 -32.5t-82 33t-33 82zM723 1569q0 49 33.5 83t83.5 34q49 0 80.5 -33.5t31.5 -83.5t-31.5 -82.5t-80.5 -32.5q-50 0 -83.5 33t-33.5 82z" />
<glyph unicode="&#x3d5;" horiz-adv-x="1236" d="M299 434q0 -207 115 -319q47 -50 94 -68q4 131 13.5 392t13.5 392q-65 -17 -123 -75q-113 -116 -113 -322zM702 831l23 -786q44 14 106 76q107 107 107 313q0 208 -113 324q-63 60 -123 73zM213 100q-156 150 -156 334q0 189 156 336q121 118 324 135q2 70 7 212t7 208 h135l14 -422q105 -6 182.5 -37.5t143.5 -95.5q154 -148 154 -336q0 -186 -154 -334q-116 -114 -299 -133q2 -69 6 -209t6 -209h-250l15 420q-178 21 -291 131z" />
<glyph unicode="&#x3d6;" horiz-adv-x="1615" d="M1554 424q0 -200 -118 -322t-324 -122q-177 0 -264 129q-89 -129 -283 -129q-65 0 -120.5 11.5t-108 39t-89.5 70.5t-59 111t-22 155q0 98 56 202.5t156 196.5h-122q-42 0 -73 -14t-51.5 -42t-31.5 -50t-24 -58h-41q10 48 16 75t17.5 64t23 57.5t30.5 44t42 35t55 19.5 t72 8h279q36 20 55 29q23 -13 32 -29h422q10 11 27 23q22 -8 51 -23h301v-139h-85q181 -157 181 -342zM1154 766h-591q-110 -151 -110 -365q0 -171 50 -253t118 -82q58 0 98.5 50t71.5 156q-41 115 -41 234q0 54 28 89.5t86 35.5q117 0 117 -113q0 -111 -49 -244 q65 -208 174 -208q58 0 95.5 49.5t52 125t14.5 177.5q0 198 -114 348z" />
<glyph unicode="&#x3d7;" horiz-adv-x="1171" d="M324 606q0 129 -37 129q-51 0 -146 -92l-35 -35l-34 35h2q-23 23 -33 31l-12 10l-4 -4l-2 10l6 -6q126 227 270 227q186 0 186 -305q0 -84 -16 -188q39 44 111 133q152 187 178 280q17 80 153 80q142 0 142 -94q0 -75 -185 -209l19 6q-37 -191 -37 -340q0 -124 37 -124 q55 0 182 129l76 -80l-211 -379q-99 -166 -289 -166q-205 0 -205 88t115 88q99 0 147 -66h-2q2 -2 5 -5.5t4 -4.5q10 15 20 27q50 55 94 199q-137 39 -137 294q0 65 12 170q-65 -74 -104 -125q-152 -186 -170 -266q-21 -78 -156 -78q-141 0 -141 93q0 38 39 80t129 106 l-19 -6q48 227 48 358z" />
<glyph unicode="&#x3d8;" horiz-adv-x="1495" d="M719 1262q-147 0 -240.5 -145.5t-93.5 -442.5q0 -281 113.5 -444.5t287.5 -163.5q153 0 239.5 153.5t86.5 411.5q0 301 -110.5 466t-282.5 165zM1421 674q0 -302 -176 -492q-139 -151 -356 -190v-70q0 -42 4 -72t15.5 -50t22.5 -31.5t34 -18t41.5 -8.5t52.5 -4 q15 -9 15 -35t-15 -35q-164 4 -311 4q-152 0 -316 -4q-15 9 -15 35t15 35q34 2 52.5 4t41.5 8.5t34 18t22.5 31.5t15.5 50t4 72v72q-109 22 -204 76t-167 134t-113.5 191t-41.5 238q0 286 166 485q91 109 220 169.5t281 60.5q188 0 341.5 -82.5t245 -237.5t91.5 -354z" />
<glyph unicode="&#x3d9;" horiz-adv-x="1128" d="M532 823q-170 0 -170 -354q0 -61 13.5 -127.5t40 -130t73.5 -104.5t107 -41q30 0 58 15t54.5 47.5t42 96.5t15.5 152q0 208 -64 327t-170 119zM76 424q0 206 112 334q132 151 377 151q224 0 356 -131t132 -336q0 -95 -33.5 -188t-106.5 -158q-83 -74 -204 -101 q1 -82 15.5 -122.5t45.5 -55.5t96 -18q9 -9 9 -34.5t-9 -34.5q-176 4 -291 4q-77 0 -249 -4q-9 9 -9 34.5t9 34.5q44 3 67 17.5t35.5 55.5t13.5 120q-164 34 -265 149.5t-101 282.5z" />
<glyph unicode="&#x3da;" horiz-adv-x="1093" d="M18 752q0 69 12 139t44 148t80.5 137t130.5 98t186 39q61 0 131 -6q8 0 74.5 -3.5t101.5 -3.5q49 0 111 76l82 -55q-8 -33 -12.5 -48.5t-15 -42.5t-21.5 -39.5t-31 -30.5t-44.5 -26t-60.5 -14t-81 -6q-2 0 -119 6q-74 8 -109 8q-60 0 -101 -17t-81 -58 q-44 -43 -69 -124.5t-25 -168.5q0 -220 92 -320q29 -33 64 -54t78.5 -30t76 -12t84.5 -4q118 -6 197 -22t133 -62q65 -61 80 -104q22 -83 22 -140q0 -94 -43.5 -170.5t-117.5 -125t-167.5 -74t-197.5 -25.5q-81 0 -136.5 9t-86 27t-43.5 40.5t-13 52.5q0 40 40.5 58t92.5 18 q12 0 23.5 -1t21 -2.5t22 -4.5t19 -4.5t20.5 -6.5t18.5 -6.5t19.5 -7t18 -6.5q9 -3 28.5 -10.5t29.5 -11t25.5 -8.5t27 -7t22.5 -2q77 0 140 60t63 149q0 42 -13.5 72t-32.5 46t-54.5 26.5t-62.5 13.5t-75 6q-72 4 -117 9t-110.5 18t-116.5 40t-90 68q-49 50 -83.5 119.5 t-51 141t-23 129t-6.5 110.5z" />
<glyph unicode="&#x3db;" horiz-adv-x="888" d="M494 762q-124 0 -196.5 -83.5t-72.5 -223.5q0 -57 11 -104t28.5 -78.5t41 -54t46.5 -34.5t47 -16q22 -4 43 -7t42.5 -5.5t29.5 -3.5q122 -10 172 -37q135 -69 135 -187q0 -84 -35.5 -147.5t-98 -100t-140 -54t-170.5 -17.5q-46 0 -80 3.5t-63.5 12.5t-44.5 26.5t-15 43.5 q0 32 33.5 50.5t85.5 18.5q43 0 131 -30q67 -29 98 -29q61 0 96 38.5t35 115.5q0 62 -30 92q-15 14 -38 20.5t-36.5 8t-48.5 2.5q-69 0 -114.5 4t-109 27.5t-108.5 68.5q-113 110 -113 303q0 127 45 248.5t142 189.5q54 37 128 60.5t132 23.5q23 0 92 -6q46 -4 86 -4 q32 0 82 53l80 -53q-18 -53 -40 -82t-68.5 -46t-123.5 -17q-46 0 -67 6q-32 4 -49 4z" />
<glyph unicode="&#x3dc;" horiz-adv-x="1091" d="M1079 1323l29 -403h-147q-9 51 -29 117.5t-50 125t-55 58.5h-391v-441h279q83 0 186 -10v-297h-139v133q0 39 -11 53.5t-36 14.5h-279v-522q0 -50 5.5 -65t25.5 -15h59q62 0 62 -23v-39l-2 -12q-195 4 -289 4l-244 -4l-18 18v33q0 23 59 23h62q20 0 24 16t4 64v1019 q0 51 -5 65.5t-23 14.5h-62q-59 0 -59 23v31l18 20l240 -2h786z" />
<glyph unicode="&#x3dd;" horiz-adv-x="960" d="M881 918l20 -11q-30 -91 -85 -136.5t-157 -45.5h-186q-37 1 -67.5 -6t-52.5 -18t-40 -31.5t-29.5 -38.5t-20 -49t-13 -53.5t-7 -60.5t-3.5 -61.5t-2 -64.5q58 35 129 35h206q42 0 95 65l86 -36q-21 -87 -83.5 -140t-156.5 -53q-11 0 -86 6q-41 6 -78 6q-49 0 -73.5 -49.5 t-24.5 -120.5q0 -13 2 -27.5t3.5 -24.5t6.5 -28t7 -25t9 -28.5t9 -27.5q2 -5 5 -15q48 -137 48 -192q0 -65 -41 -103q-19 -22 -82 -22q-64 0 -82 18q-43 41 -43 129l2 729q1 67 12 128.5t38 123t67.5 106.5t105 73t146.5 28q47 0 137 -8q86 -8 125 -8q48 0 86 75z" />
<glyph unicode="&#x3de;" horiz-adv-x="1150" d="M494 1290q20 34 20 99q0 9 -1 18.5t-1 11.5l-4 27q-48 24 -88 24q-33 0 -133 -32l-21 57q3 1 7 2.5t13 5.5t19 8h-4q44 22 88 37q61 21 123 21q64 0 92 -17q91 -51 105 -100q8 -24 8 -51q0 -63 -53 -158q-229 -392 -318 -549h721l-63 -110l-355 -619q-36 -59 -24 -110 l4 -27q40 -25 86 -25q37 0 135 33l20 -57q-1 0 -8 -4t-14.5 -7.5t-11.5 -5.5q-36 -18 -91 -38q-68 -21 -120 -21q-59 0 -93 18q-89 48 -104 99q-6 27 -6 43q0 47 57 149l326 570h-721l63 108z" />
<glyph unicode="&#x3df;" horiz-adv-x="1150" d="M1004 584l-429 -742l-192 6l422 734h-721l63 108l396 684l194 -2l-391 -678h721z" />
<glyph unicode="&#x3e0;" horiz-adv-x="1691" d="M1096 -233zM1096 -233l10 6q86 107 133 254.5t47 365.5q0 240 -43 387q-92 -30 -119 -51q-31 -27 -52 -48.5t-47 -66t-36 -92.5q-22 -136 -22 -334h-236q0 232 62 400q19 50 66.5 103.5t103.5 94.5q102 73 237 117q-65 136 -156 227q-91 92 -183.5 135t-201.5 46v-625 h-208v588q-160 -63 -258 -178q-14 3 -57.5 19.5t-81 32.5t-38.5 17q256 262 643 262q208 0 354.5 -61.5t282.5 -196.5q145 -154 218 -328t73 -382q0 -197 -85.5 -414t-227.5 -383q-169 105 -178 105z" />
<glyph unicode="&#x3e1;" horiz-adv-x="1062" d="M72 1110l39 4q16 2 57 2q200 0 373 -67q209 -85 317 -236q119 -177 129 -362v-39q0 -181 -82 -379h-119q33 115 33 233q0 63 -10 135q-22 97 -43 156q-46 -35 -139 -108t-99 -78l-92 108l264 209q-18 27 -24 37q-7 10 -13 19.5t-9 13.5t-8.5 11t-14.5 17 q-50 -40 -152.5 -119.5t-120.5 -93.5l-90 109l262 209q-70 56 -104 76q-165 91 -371 102z" />
<glyph unicode="&#x3f0;" horiz-adv-x="1089" d="M299 561q0 117 -31 117q-47 0 -133 -86l-35 -35l-37 35l-38 39l-2 -4l-3 4l3 4l2 -4q119 211 254 211q178 0 178 -281q0 -65 -15 -164q41 47 95 113q145 181 161 258q17 74 150 74t133 -86q0 -71 -172 -193l16 6q-32 -177 -32 -313q0 -117 28 -117q47 0 133 86l35 35 l37 -35l39 -39q-117 -211 -254 -211q-176 0 -176 281q0 68 8 147q-35 -41 -88 -106q-149 -185 -164 -256q-17 -76 -147 -76q-133 0 -133 86q0 73 161 185l-18 -7q45 200 45 332zM1065 186q2 0 2 4l2 -4l-2 -4z" />
<glyph unicode="&#x3f1;" horiz-adv-x="999" d="M481 59q36 0 73.5 20t73 61.5t58.5 119.5t23 180q0 58 -13 121.5t-38 123t-70 98t-101 38.5q-26 0 -52.5 -12t-54.5 -42t-49 -75t-34.5 -117.5t-13.5 -162.5q0 -103 19 -176.5t50.5 -109.5t63 -51.5t65.5 -15.5zM946 430q0 -208 -124 -331.5t-337 -123.5q-148 0 -258 78 q16 -112 48.5 -173.5t101 -92.5t186.5 -31q259 0 297 -225l-121 -41q-42 113 -194 113q-97 0 -168.5 15t-127.5 50.5t-92 90t-59.5 138.5t-33 189.5t-9.5 249.5q0 155 35 269.5t96 179.5t134.5 95.5t160.5 30.5q213 0 339 -133t126 -348z" />
<glyph unicode="&#x3f2;" horiz-adv-x="987" d="M573 823q-33 0 -58.5 -6.5t-53 -28t-45.5 -57t-29.5 -97.5t-11.5 -147q0 -78 5 -138t19.5 -115t38.5 -90.5t63.5 -56.5t92.5 -21q96 0 153 27.5t109 86.5q40 -2 55 -37q-59 -80 -148.5 -121.5t-195.5 -41.5q-132 0 -228 36t-149 99.5t-77.5 140t-24.5 168.5 q0 111 34.5 198.5t87.5 140t123 87t134 47t127 12.5q108 0 186.5 -39t134.5 -131q-21 -23 -59 -28q-52 64 -114.5 88t-168.5 24z" />
<glyph unicode="&#x3f3;" horiz-adv-x="530" d="M209 643q0 86 -23.5 110.5t-109.5 32.5q-3 10 -5 33t1 33q28 4 84.5 10.5t90 11t75 10.5t69.5 12t45 13q47 0 47 -35q-8 -115 -8 -217v-432q0 -185 -23 -306.5t-56 -178t-87 -100.5q-69 -57 -136 -86t-175 -29q-57 0 -116.5 37.5t-59.5 99.5q0 41 37 82t65 41 q17 0 33 -4.5t27 -9.5t25.5 -16.5t20 -16.5t19.5 -19.5t17 -17.5l9 -9l8.5 -8.5t7 -6.5t7.5 -5.5l8 -4t10 -3t11 -0.5q43 0 69.5 46t26.5 102q0 69 -7 178.5t-7 165.5v487zM195 1221q0 50 37.5 88.5t105.5 38.5q60 0 96.5 -42.5t36.5 -93.5q0 -45 -40.5 -86t-104.5 -41 q-59 0 -95 41t-36 95z" />
<glyph unicode="&#x3f4;" horiz-adv-x="1495" d="M1421 674q0 -302 -176 -492q-188 -202 -500 -202q-131 0 -251.5 45.5t-213.5 128t-148.5 207t-55.5 272.5q0 286 166 485q91 109 220 169.5t281 60.5q188 0 341.5 -82.5t245 -237.5t91.5 -354zM1110 711q-15 264 -123 407.5t-268 143.5q-68 0 -126 -32t-104 -96.5 t-73.5 -172.5t-30.5 -250h725zM1112 618h-726q12 -257 123.5 -404.5t276.5 -147.5q151 0 237.5 149.5t88.5 402.5z" />
<glyph unicode="&#x3f5;" horiz-adv-x="913" d="M793 741h-64q-93 66 -194 66q-92 0 -158 -68q-60 -57 -72 -219h443v-104h-441q14 -152 80.5 -244t175.5 -92q98 0 225 127l68 -72q-15 -23 -37.5 -45.5t-63 -51t-103.5 -46t-138 -17.5q-110 0 -198.5 38t-143.5 102.5t-84 146t-29 172.5q0 97 31 179t79.5 135.5 t110.5 91.5t121.5 54.5t114.5 16.5q196 0 309 -125z" />
<glyph unicode="&#x3f6;" horiz-adv-x="913" d="M129 143l61 2q92 -65 177 -65q61 0 99 12t79 53q69 69 71 269h-444v104h434q-21 122 -84 205.5t-164 83.5q-94 0 -225 -127l-70 70q12 18 27.5 35.5t46 41.5t66.5 41.5t90 30t115 12.5q108 0 196 -38t143.5 -103t85 -146.5t29.5 -172.5q0 -96 -31.5 -178t-80.5 -135.5 t-111 -91.5t-122 -54.5t-114 -16.5q-203 0 -309 123z" />
<glyph unicode="&#x3f8;" horiz-adv-x="1132" d="M817 410q0 407 -250 407q-27 0 -49.5 -7.5t-46.5 -29.5t-40.5 -58.5t-27 -99.5t-10.5 -147v-315q77 -60 119 -84.5t72 -24.5q105 0 169 100t64 259zM377 -418l-232 -90l-36 62q45 113 45 440v969q0 285 22 385l225 100l39 -64q-47 -124 -47 -421v-99q99 47 225 47 q201 0 332 -118.5t131 -296.5q0 -154 -69.5 -273.5t-189 -183.5t-267.5 -64q-83 0 -162 21q0 -11 1 -35t1 -37v-104q0 -167 -18 -238z" />
<glyph unicode="&#x3f9;" horiz-adv-x="1257" d="M1194 258l6 -8q-29 -52 -72 -98t-102.5 -87t-140.5 -65.5t-172 -24.5q-149 0 -273 56t-205 151t-125 218.5t-44 261.5q0 148 50 277t135.5 218.5t202.5 141t248 51.5q88 0 167 -19.5t129 -46.5t88 -57t54.5 -49t18.5 -25l-123 -98q-10 23 -40 56.5t-75 69t-108.5 60.5 t-126.5 25q-38 0 -74.5 -10.5t-77.5 -35.5t-75.5 -71.5t-62.5 -111.5t-44 -164.5t-16 -221.5q0 -159 38 -285t121.5 -205t202.5 -79q68 0 137.5 25.5t123.5 65t94.5 81t66.5 80.5z" />
<glyph unicode="&#x3fb;" horiz-adv-x="1224" d="M854 14v570l-225 -555q-18 -37 -74 -37q-49 0 -70 37l-213 510v-969l-110 -27l-51 31v1307l157 32l97 -34l233 -582q192 485 231 586l175 30l77 -39v-864l-188 -57z" />
<glyph unicode="&#x3fd;" horiz-adv-x="1257" d="M217 1055l-119 98q8 22 45 54t94 64.5t142.5 55.5t175.5 23q130 0 247 -51.5t203 -141t136.5 -218.5t50.5 -277q0 -191 -79.5 -347t-229 -248t-342.5 -92q-91 0 -172 25.5t-140.5 68.5t-101.5 89.5t-72 99.5l82 84q26 -40 66 -82t94 -83.5t122.5 -68t135.5 -26.5 q71 0 129 26t97 71.5t67.5 101.5t44 122t22.5 126t7 120q0 146 -23.5 259t-59.5 179t-85 108t-93 56.5t-90 14.5q-51 0 -97.5 -11.5t-81 -30t-64.5 -41.5t-50 -45.5t-34 -41t-20 -30.5z" />
<glyph unicode="&#x3fe;" horiz-adv-x="1257" d="M727 527q-62 0 -102.5 42t-40.5 98q0 58 42 101.5t101 43.5q55 0 99 -43t44 -102q0 -56 -41.5 -98t-101.5 -42zM1194 258l6 -8q-29 -52 -72 -98t-102.5 -87t-140.5 -65.5t-172 -24.5q-149 0 -273 56t-205 151t-125 218.5t-44 261.5q0 148 50 277t135.5 218.5t202.5 141 t248 51.5q88 0 167 -19.5t129 -46.5t88 -57t54.5 -49t18.5 -25l-123 -98q-10 23 -40 56.5t-75 69t-108.5 60.5t-126.5 25q-38 0 -74.5 -10.5t-77.5 -35.5t-75.5 -71.5t-62.5 -111.5t-44 -164.5t-16 -221.5q0 -159 38 -285t121.5 -205t202.5 -79q68 0 137.5 25.5t123.5 65 t94.5 81t66.5 80.5z" />
<glyph unicode="&#x3ff;" horiz-adv-x="1257" d="M455 517q-62 0 -102.5 42t-40.5 98q0 58 42 101.5t101 43.5q55 0 98.5 -43t43.5 -102q0 -57 -41 -98.5t-101 -41.5zM217 1055l-119 98q8 22 45 54t94 64.5t142.5 55.5t175.5 23q130 0 247 -51.5t203 -141t136.5 -218.5t50.5 -277q0 -191 -79.5 -347t-229 -248t-342.5 -92 q-91 0 -172 25.5t-140.5 68.5t-101.5 89.5t-72 99.5l82 84q26 -40 66 -82t94 -83.5t122.5 -68t135.5 -26.5q71 0 129 26t97 71.5t67.5 101.5t44 122t22.5 126t7 120q0 146 -23.5 259t-59.5 179t-85 108t-93 56.5t-90 14.5q-51 0 -97.5 -11.5t-81 -30t-64.5 -41.5t-50 -45.5 t-34 -41t-20 -30.5z" />
<glyph unicode="&#x1d43;" horiz-adv-x="608" d="M346 1063q1 107 -16 152t-54 45q-44 0 -70 -15.5t-26 -36.5q0 -12 5 -24.5t5 -26.5q0 -23 -24.5 -40t-54.5 -17q-27 0 -48.5 16.5t-21.5 48.5q0 59 79 107.5t161 48.5q103 0 155 -39q42 -32 55 -80t11 -151l-4 -164q-1 -42 2.5 -64t9.5 -27t16 -5q15 0 33 12l21 -33 q-26 -23 -68 -40t-72 -17q-84 0 -92 67q-33 -33 -79 -50t-81 -17q-72 0 -112 30q-45 32 -45 113q0 60 64.5 110.5t166.5 75.5zM342 836l4 172q-90 -29 -127 -69t-37 -77q0 -74 68 -74q26 0 44 10t48 38z" />
<glyph unicode="&#x1d47;" horiz-adv-x="608" d="M86 1368q0 29 -5.5 41t-25.5 12q-28 0 -55 -8l-4 55q120 15 180 45h43v-272q79 51 158 51q92 0 147.5 -78.5t55.5 -187.5q0 -115 -72.5 -204t-171.5 -89q-47 0 -94.5 14t-71.5 35q-6 -9 -31 -26t-30 -23l-27 8q4 31 4 107v520zM219 1174v-244q0 -72 28.5 -102.5 t69.5 -30.5q22 0 39 6t36.5 24t30.5 62.5t11 111.5q0 108 -30 163t-78 55q-8 0 -15 -0.5t-12 -1t-11.5 -2.5t-9.5 -2.5t-9.5 -4t-8.5 -4.5t-9 -6t-9 -6.5t-11 -8.5t-12 -9z" />
<glyph unicode="&#x1d48;" horiz-adv-x="679" d="M418 866v283q-3 3 -14 16.5t-14.5 17.5t-13.5 14.5t-16.5 14t-16 9.5t-19.5 8t-21 2q-55 0 -82.5 -45t-27.5 -154q0 -130 30.5 -179.5t89.5 -49.5q30 0 50 13.5t55 49.5zM418 801q-67 -60 -137 -60q-104 0 -169 71.5t-65 188.5q0 69 24.5 133.5t79.5 111t130 46.5 q91 0 137 -43v119q0 21 -1 29.5t-8 16t-22 7.5q-24 0 -55 -8l-4 55q95 11 161 45h64v-634q0 -28 5.5 -41t25.5 -13t55 9l4 -56q-120 -14 -176 -45h-49v68z" />
<glyph unicode="&#x1d49;" horiz-adv-x="628" d="M322 809q98 0 178 88l41 -43q-88 -119 -230 -119q-139 0 -207.5 76t-68.5 197q0 120 72.5 208.5t193.5 88.5q69 0 117 -21t72 -59.5t34 -79t13 -94.5h-355v-33q0 -52 11 -91.5t26.5 -61t36 -35t36 -17.5t30.5 -4zM383 1118q0 75 -21 100t-63 25q-44 0 -73 -38t-36 -87 h193z" />
<glyph unicode="&#x1d4d;" horiz-adv-x="645" d="M580 1223q-29 0 -41 28q-9 19 -39 19q-20 0 -29 -27q70 -56 70 -131q0 -86 -69 -136t-155 -50q-65 0 -104 20q-16 -28 -16 -65t15.5 -50.5t45.5 -13.5q5 0 41 4q9 1 27 2.5t31 2.5t22 1q128 0 188 -53q54 -48 54 -102q0 -65 -55 -112t-133 -68t-165 -21q-52 0 -96 10.5 t-78.5 43.5t-34.5 85q0 40 27.5 78.5t77.5 69.5q-27 12 -46.5 36t-19.5 56q0 29 17 62t34 51l17 18q-23 21 -36 36t-25.5 42.5t-12.5 56.5q0 83 69.5 136t155.5 53q65 0 117 -31q28 31 53 46t60 15q39 0 62.5 -18t23.5 -41q0 -21 -16 -37t-37 -16zM207 748q-35 -30 -35 -113 q0 -28 14 -48t36 -28.5t41.5 -12t39.5 -3.5q49 0 81 2.5t66 11.5t51 29.5t17 52.5q0 30 -59.5 60t-122.5 30q-70 0 -129 19zM410 1108q0 77 -23 109t-80 32q-52 0 -70 -24t-18 -97q0 -25 1 -41t6.5 -38.5t16 -35.5t31.5 -22.5t50 -9.5q22 0 32.5 2.5t25.5 13t21.5 38.5 t6.5 73z" />
<glyph unicode="&#x1d4f;" horiz-adv-x="679" d="M254 1004v-148q0 -35 6 -44t31 -9h16q10 0 10 -10v-48q-90 3 -149 3l-125 -3v48q0 10 10 10h15q36 1 43.5 10.5t7.5 42.5v512q0 21 -1 29.5t-8 16t-22 7.5q-24 0 -55 -8l-4 55q122 14 182 45h43v-451q37 16 68 40t73 72q31 35 31 43q0 20 -39 20q-10 0 -10 8v45l4 2 q70 -2 115 -2l131 2l4 -2v-45q0 -8 -13 -8q-94 0 -149 -63l-78 -87q-4 -4 -4 -14t6 -16l129 -191q44 -63 117 -63q16 0 16 -10v-43l-4 -5q-86 3 -135 3l-88 -3l-4 5v43q0 4 -29 45l-82 120q-30 45 -59 46z" />
<glyph unicode="&#x1d50;" horiz-adv-x="1013" d="M252 1151q-19 -24 -19 -45v-205q0 -63 11.5 -77t64.5 -17q6 -12 6 -30.5t-6 -28.5q-61 2 -127 2q-94 0 -155 -2q-6 10 -6.5 28t6.5 31q66 3 87 18.5t21 75.5v219q0 59 -16.5 76.5t-69.5 22.5q-8 31 -4 45q109 15 166 41q10 0 14 -13q11 -26 11 -98q0 -17 10 -2 q40 57 80.5 85t93.5 28q110 0 135 -105q32 38 79 71.5t95 33.5q75 0 119.5 -45.5t44.5 -143.5v-215q0 -61 17 -76t81 -18q7 -13 6.5 -31t-6.5 -28q-61 2 -145 2q-64 0 -125 -2q-6 10 -6 28.5t6 30.5q52 3 63 17t11 77v195q0 73 -31.5 106t-83.5 33q-47 0 -118 -84 q1 -11 1 -35v-215q0 -60 14 -75t64 -19q7 -13 6.5 -31t-6.5 -28q-61 2 -125 2t-125 -2q-6 10 -6 28.5t6 30.5q52 3 63 17t11 77v195q0 76 -22.5 107.5t-71.5 31.5q-30 0 -57.5 -21.5t-61.5 -62.5z" />
<glyph unicode="&#x1d52;" horiz-adv-x="628" d="M311 1305q68 0 120 -24.5t83 -66.5t46 -93t15 -109q0 -69 -30 -131t-92.5 -104t-143.5 -42q-118 0 -190 82.5t-72 188.5q0 56 16 108t47 95.5t83 69.5t118 26zM455 973q0 120 -45.5 200t-110.5 80q-57 0 -94 -54.5t-37 -168.5t48.5 -179t115.5 -65q49 0 86 49.5t37 137.5 z" />
<glyph unicode="&#x1d56;" horiz-adv-x="645" d="M213 641q0 -58 22.5 -74.5t81.5 -19.5q6 -12 6 -30.5t-6 -29.5q-61 2 -155 2q-95 0 -156 -2q-6 10 -6.5 28.5t6.5 31.5q67 3 88 18.5t21 75.5v479q0 59 -16.5 76.5t-69.5 22.5q-8 31 -4 45q104 14 163 41q11 0 15 -13q10 -23 10 -98q0 -7 1 -8.5t9 6.5q30 38 82 69t94 31 q89 0 140 -58.5t51 -162.5q0 -119 -69 -217t-165 -98q-34 0 -78.5 11.5t-64.5 29.5v-156zM213 901q29 -92 145 -92q46 0 83.5 55.5t37.5 182.5q0 104 -27.5 143t-76.5 39q-39 0 -95.5 -43.5t-66.5 -83.5v-201z" />
<glyph unicode="&#x1d57;" horiz-adv-x="442" d="M217 1233v-303q0 -115 43 -115q74 0 107 25l32 -35q-69 -72 -178 -72q-102 0 -102 125v375h-82q-6 0 -6 4l4 49q0 6 6 6q55 0 76.5 35t21.5 111v22l78 27v-195h164q5 0 8 -2t2 -6l-4 -37q-1 -14 -29 -14h-141z" />
<glyph unicode="&#x1d58;" horiz-adv-x="653" d="M113 1130q0 69 -15.5 91.5t-62.5 25.5q-6 6 -6 23.5t6 23.5q94 -4 127 -4t45 4q8 0 8 -8q-4 -104 -4 -147v-197q0 -137 102 -137q54 0 129 86v239q0 69 -15 91.5t-62 25.5q-6 6 -6 23.5t6 23.5q94 -4 127 -4t45 4q8 0 8 -8q-4 -104 -4 -147v-221q0 -59 16.5 -76.5 t69.5 -22.5q8 -31 4 -45q-106 -14 -164 -41q-10 0 -14 12q-11 26 -11 78q0 5 -2.5 6.5t-7.5 -4.5q-24 -34 -70.5 -63t-97.5 -29q-151 0 -151 189v208z" />
<glyph unicode="&#x1d5b;" horiz-adv-x="643" d="M418 1247q-6 6 -6 23.5t6 23.5q94 -4 123 -4q26 0 84 4q6 -6 6 -23.5t-6 -23.5q-31 -3 -51.5 -18t-30.5 -32t-27 -56l-170 -375q-14 -33 -31 -33q-19 0 -32 30l-162 380q-3 6 -8.5 20t-7.5 18t-7 14.5t-7.5 13t-7 10t-8.5 9.5t-10.5 6.5t-13 6t-15 3.5t-18.5 3 q-6 6 -6 23.5t6 23.5q94 -4 113 -4q41 0 135 4q6 -6 6 -23.5t-6 -23.5q-48 -4 -54.5 -25.5t15.5 -70.5l87 -216q17 -44 25.5 -44.5t27.5 40.5l96 220q23 49 14 70.5t-59 25.5z" />
<glyph unicode="&#x1d9c;" horiz-adv-x="577" d="M322 1305q92 0 144 -41t52 -97q0 -29 -14 -44t-37 -15q-53 0 -59 47q-2 20 -5.5 34t-13 29t-28 23t-46.5 8q-56 0 -102.5 -59.5t-46.5 -173.5q0 -88 33 -139q22 -35 55.5 -56.5t67.5 -21.5q36 0 67.5 14.5t46.5 29t43 44.5l39 -33q-86 -121 -207 -121q-125 0 -190.5 78 t-65.5 197q0 121 71 209t196 88z" />
<glyph unicode="&#x1da0;" horiz-adv-x="518" d="M147 854v311h-86q-6 0 -6 6v29q0 25 29 25h63q0 139 64 213.5t151 74.5q65 0 111 -34q41 -27 41 -64q0 -19 -14 -33t-33 -14q-38 0 -55 39q-12 30 -29 42.5t-45 12.5q-14 0 -25 -3.5t-24 -17t-21.5 -36t-14 -63.5t-5.5 -97v-20h139q10 0 10 -6v-37q0 -17 -28 -17h-121 v-311q0 -28 12 -41t41 -16l43 -4q10 0 10 -11v-34l-2 -3q-110 3 -159 3l-130 -3l-4 3v34q0 9 11 11l24 4q32 5 42.5 17t10.5 40z" />
<glyph unicode="&#x1dbb;" horiz-adv-x="561" d="M143 1292h242q16 0 39.5 1t40.5 2t18 1q17 0 17 -6v-2q0 -12 -27 -51l-291 -430h152q55 0 78 16t47 68l14 35q22 1 45 -8q-28 -92 -41 -173h-403q-29 0 -29 15q0 10 10 26l299 447h-155q-36 0 -63 -21t-44 -82q-23 -3 -45 7q19 116 19 170l12 2q7 -7 28 -12t37 -5z" />
<glyph unicode="&#x2000;" horiz-adv-x="1021" />
<glyph unicode="&#x2001;" horiz-adv-x="2045" />
<glyph unicode="&#x2002;" horiz-adv-x="1060" />
<glyph unicode="&#x2003;" horiz-adv-x="1548" />
<glyph unicode="&#x2004;" horiz-adv-x="679" />
<glyph unicode="&#x2005;" horiz-adv-x="509" />
<glyph unicode="&#x2006;" horiz-adv-x="339" />
<glyph unicode="&#x2007;" horiz-adv-x="897" />
<glyph unicode="&#x2008;" horiz-adv-x="339" />
<glyph unicode="&#x2009;" horiz-adv-x="256" />
<glyph unicode="&#x200a;" horiz-adv-x="53" />
<glyph unicode="&#x200b;" horiz-adv-x="0" />
<glyph unicode="&#x2010;" horiz-adv-x="733" d="M559 440h-405q-35 0 -55.5 12.5t-20.5 30.5q0 29 32 74t62 45h410q73 0 73 -43q0 -25 -32 -72t-64 -47z" />
<glyph unicode="&#x2011;" horiz-adv-x="733" d="M559 440h-405q-35 0 -55.5 12.5t-20.5 30.5q0 29 32 74t62 45h410q73 0 73 -43q0 -25 -32 -72t-64 -47z" />
<glyph unicode="&#x2012;" horiz-adv-x="897" d="M774 559h-676q-13 0 -21.5 13t-8.5 28q0 27 16.5 61.5t34.5 34.5h680q15 0 21.5 -19.5t6.5 -39.5q0 -21 -17 -49.5t-36 -28.5z" />
<glyph unicode="&#x2013;" horiz-adv-x="1093" d="M973 469h-875q-12 0 -21 16.5t-9 32.5q0 26 16.5 56t34.5 30h878q29 0 29 -41q0 -23 -17.5 -58.5t-35.5 -35.5z" />
<glyph unicode="&#x2014;" horiz-adv-x="1519" d="M59 598h1401v-121h-1401v121z" />
<glyph unicode="&#x2015;" horiz-adv-x="1888" d="M59 598h1772v-121h-1772v121z" />
<glyph unicode="&#x2016;" horiz-adv-x="569" d="M455 -387h-123v2144h123v-2144zM246 -387h-123v2144h123v-2144z" />
<glyph unicode="&#x2017;" horiz-adv-x="995" d="M987 -225v-101h-977v101h977zM987 0v-98h-977v98h977z" />
<glyph unicode="&#x2018;" horiz-adv-x="518" d="M268 899q-84 0 -131 64t-47 188q0 52 33 118t78 111q44 44 105.5 77.5t117.5 43.5q32 -21 14 -63q-65 -18 -130.5 -98.5t-65.5 -125.5q0 -48 73 -67q30 -8 56 -44.5t26 -74.5q0 -36 -45 -82.5t-84 -46.5z" />
<glyph unicode="&#x2019;" horiz-adv-x="518" d="M250 1430q84 0 131 -64t47 -188q0 -52 -33 -118.5t-78 -111.5q-44 -44 -105.5 -77.5t-117.5 -43.5q-32 21 -14 64q65 18 130.5 98t65.5 125q0 49 -73 68q-30 8 -56 44t-26 74q0 36 45 83t84 47z" />
<glyph unicode="&#x201a;" horiz-adv-x="518" d="M250 260q84 0 131 -64t47 -188q0 -52 -33 -118t-78 -111q-44 -44 -105.5 -77.5t-117.5 -43.5q-32 21 -14 63q65 18 130.5 98.5t65.5 125.5q0 48 -73 67q-30 8 -56 44.5t-26 74.5q0 36 45 82.5t84 46.5z" />
<glyph unicode="&#x201b;" horiz-adv-x="497" d="M360 807q-106 38 -188 142.5t-82 228.5q0 114 59 183t130 69q53 0 96 -47t43 -97q0 -38 -35 -72.5t-68 -39.5q-84 -8 -84 -64q0 -31 21.5 -80.5t58.5 -97.5t76 -66q9 -45 -27 -59z" />
<glyph unicode="&#x201c;" horiz-adv-x="901" d="M651 899q-84 0 -131 64t-47 188q0 52 33 118t78 111q44 44 105.5 77.5t117.5 43.5q32 -21 14 -63q-65 -18 -130.5 -98.5t-65.5 -125.5q0 -48 73 -67q30 -8 56 -44.5t26 -74.5q0 -36 -45 -82.5t-84 -46.5zM268 899q-84 0 -131 64t-47 188q0 52 33 118t78 111 q44 44 105.5 77.5t117.5 43.5q32 -21 14 -63q-65 -18 -130.5 -98.5t-65.5 -125.5q0 -48 73 -67q30 -8 56 -44.5t26 -74.5q0 -36 -45 -82.5t-84 -46.5z" />
<glyph unicode="&#x201d;" horiz-adv-x="901" d="M250 1430q84 0 131 -64t47 -188q0 -52 -33 -118.5t-78 -111.5q-44 -44 -105.5 -77.5t-117.5 -43.5q-32 21 -14 64q65 18 130.5 98t65.5 125q0 49 -73 68q-30 8 -56 44t-26 74q0 36 45 83t84 47zM633 1430q84 0 131 -64t47 -188q0 -52 -33 -118.5t-78 -111.5 q-44 -44 -105.5 -77.5t-117.5 -43.5q-32 21 -14 64q65 18 130.5 98t65.5 125q0 49 -73 68q-30 8 -56 44t-26 74q0 36 45 83t84 47z" />
<glyph unicode="&#x201e;" horiz-adv-x="901" d="M250 334q84 0 131 -64t47 -188q0 -52 -33 -118t-78 -111q-44 -44 -105.5 -77.5t-117.5 -43.5q-32 21 -14 63q65 18 130.5 98t65.5 125q0 49 -73 68q-30 8 -56 44.5t-26 74.5q0 36 45 82.5t84 46.5zM633 334q84 0 131 -64t47 -188q0 -52 -33 -118t-78 -111 q-44 -44 -105.5 -77.5t-117.5 -43.5q-32 21 -14 63q65 18 130.5 98t65.5 125q0 49 -73 68q-30 8 -56 44.5t-26 74.5q0 36 45 82.5t84 46.5z" />
<glyph unicode="&#x201f;" horiz-adv-x="901" d="M754 807q-106 38 -188.5 142.5t-82.5 228.5q0 114 59 183t130 69q53 0 96 -47t43 -97q0 -38 -34.5 -72.5t-67.5 -39.5q-84 -8 -84 -64q0 -51 49 -134t106 -110q9 -45 -26 -59zM350 807q-106 38 -188 142.5t-82 228.5q0 114 58.5 183t129.5 69q53 0 96.5 -47.5t43.5 -96.5 q0 -38 -35 -72.5t-68 -39.5q-84 -8 -84 -64q0 -31 21.5 -80.5t58.5 -97.5t76 -66q9 -45 -27 -59z" />
<glyph unicode="&#x2020;" horiz-adv-x="1183" d="M592 1427q63 0 101 -30t38 -92q0 -175 -102 -383q83 60 154.5 92.5t162.5 32.5q59 0 95 -43t36 -103t-35.5 -100.5t-95.5 -40.5q-92 0 -165.5 31.5t-151.5 89.5q-3 -256 96 -379q-96 -286 -96 -926h-76q0 669 -94 926q94 104 94 379q-52 -37 -88.5 -58.5t-99.5 -42 t-129 -20.5q-60 0 -95 40.5t-35 100.5q0 61 36 103.5t94 42.5q53 0 100 -10.5t88.5 -32t66.5 -38t62 -44.5q-102 212 -102 383q0 60 39 91t102 31z" />
<glyph unicode="&#x2021;" horiz-adv-x="1183" d="M725 502q-94 -104 -94 -379q52 37 88.5 58.5t99.5 42t129 20.5q60 0 94.5 -40.5t34.5 -101.5t-35.5 -103t-93.5 -42q-53 0 -100 10.5t-88.5 32t-66.5 38t-62 44.5q102 -212 102 -383q0 -60 -39 -91.5t-102 -31.5q-62 0 -100.5 30.5t-38.5 92.5q0 175 102 383 q-83 -60 -154.5 -92.5t-162.5 -32.5q-59 0 -95.5 42.5t-36.5 102.5t36 101t96 41q92 0 165.5 -31.5t151.5 -89.5q3 256 -96 379q94 104 94 379q-52 -37 -88.5 -58.5t-99.5 -42t-129 -20.5q-60 0 -95 40.5t-35 100.5q0 61 36 103.5t94 42.5q53 0 100 -10.5t88.5 -32t66.5 -38 t62 -44.5q-102 212 -102 383q0 60 39 91t102 31t101 -30t38 -92q0 -175 -102 -383q83 60 154.5 92.5t162.5 32.5q59 0 95 -43t36 -103t-35.5 -100.5t-95.5 -40.5q-92 0 -165.5 31.5t-151.5 89.5q-3 -256 96 -379z" />
<glyph unicode="&#x2022;" horiz-adv-x="718" d="M100 479q0 104 78.5 180t179.5 76q104 0 182 -76.5t78 -185.5q0 -101 -72.5 -179.5t-187.5 -78.5q-106 0 -182 77t-76 187z" />
<glyph unicode="&#x2023;" horiz-adv-x="768" d="M150 172v606l540 -303z" />
<glyph unicode="&#x2024;" horiz-adv-x="499" d="M100 119q0 60 45 102.5t107 42.5t104.5 -40.5t42.5 -100.5q0 -58 -44.5 -100.5t-106.5 -42.5t-105 40.5t-43 98.5z" />
<glyph unicode="&#x2025;" horiz-adv-x="868" d="M520 119q0 60 45 102.5t107 42.5t104.5 -40.5t42.5 -100.5q0 -58 -44.5 -100.5t-106.5 -42.5t-105 40.5t-43 98.5zM100 119q0 60 45 102.5t107 42.5t104.5 -40.5t42.5 -100.5q0 -58 -44.5 -100.5t-106.5 -42.5t-105 40.5t-43 98.5z" />
<glyph unicode="&#x2027;" horiz-adv-x="499" d="M100 575q0 60 45 103t107 43t104.5 -40.5t42.5 -100.5q0 -59 -45 -101.5t-106 -42.5q-62 0 -105 40.5t-43 98.5z" />
<glyph unicode="&#x202f;" horiz-adv-x="319" />
<glyph unicode="&#x2030;" horiz-adv-x="1869" d="M1511 109q0 -68 41 -68q63 0 111 82q51 87 51 199q0 116 -80 116q-30 0 -56.5 -29.5t-41.5 -76.5q-25 -76 -25 -223zM1321 186q0 84 34 157.5t102 121t155 47.5q188 0 188 -186q0 -155 -76 -260t-196 -105q-112 0 -160 62q-47 60 -47 163zM948 109q0 -68 41 -68 q63 0 111 82q51 87 51 199q0 116 -80 116q-30 0 -56.5 -29.5t-41.5 -76.5q-25 -76 -25 -223zM758 186q0 84 34 157.5t102 121t155 47.5q188 0 188 -186q0 -155 -76 -260t-196 -105q-112 0 -160 62q-47 60 -47 163zM295 756q0 -68 41 -68q62 0 110 82q52 89 52 199 q0 116 -80 116q-30 0 -57 -29.5t-42 -76.5q-24 -73 -24 -223zM104 834q0 84 34 157t102 120.5t155 47.5q94 0 140 -45q49 -2 123 -26.5t87 -24.5q213 0 308 102l96 -43l-842 -1155l-110 25l749 1026q-114 -47 -221 -47q-71 0 -143 38q2 -22 2 -36q0 -155 -76.5 -260 t-196.5 -105q-111 0 -159 62q-48 61 -48 164z" />
<glyph unicode="&#x2031;" horiz-adv-x="2459" d="M2046 109q0 -68 41 -68q63 0 111 82q51 87 51 199q0 116 -80 116q-30 0 -56.5 -29.5t-41.5 -76.5q-25 -76 -25 -223zM1855 186q0 84 34 157.5t102 121t155 47.5q189 0 189 -186q0 -155 -76.5 -260t-196.5 -105q-111 0 -159 62q-48 61 -48 163zM1511 109q0 -68 41 -68 q63 0 111 82q51 87 51 199q0 116 -80 116q-30 0 -56.5 -29.5t-41.5 -76.5q-25 -76 -25 -223zM1321 186q0 84 34 157.5t102 121t155 47.5q188 0 188 -186q0 -155 -76 -260t-196 -105q-112 0 -160 62q-47 60 -47 163zM948 109q0 -68 41 -68q63 0 111 82q51 87 51 199 q0 116 -80 116q-30 0 -56.5 -29.5t-41.5 -76.5q-25 -76 -25 -223zM758 186q0 84 34 157.5t102 121t155 47.5q188 0 188 -186q0 -155 -76 -260t-196 -105q-112 0 -160 62q-47 60 -47 163zM295 756q0 -68 41 -68q62 0 110 82q52 89 52 199q0 116 -80 116q-30 0 -57 -29.5 t-42 -76.5q-24 -73 -24 -223zM104 834q0 84 34 157t102 120.5t155 47.5q94 0 140 -45q49 -2 123 -26.5t87 -24.5q213 0 308 102l96 -43l-842 -1155l-110 25l749 1026q-114 -47 -221 -47q-71 0 -143 38q2 -22 2 -36q0 -155 -76.5 -260t-196.5 -105q-111 0 -159 62 q-48 61 -48 164z" />
<glyph unicode="&#x2032;" horiz-adv-x="491" d="M254 1432q37 0 91 -25t54 -53q0 -20 -10 -31l-213 -250q-14 -16 -22 -16q-14 0 -38 9t-24 19q0 13 2 19l103 293q6 16 22.5 25.5t34.5 9.5z" />
<glyph unicode="&#x2033;" horiz-adv-x="802" d="M565 1436q37 0 91.5 -25t54.5 -53q0 -19 -11 -31l-213 -250q-14 -16 -22 -16q-14 0 -38 9.5t-24 19.5q0 9 3 18l102 293q6 16 22.5 25.5t34.5 9.5zM254 1432q37 0 91 -25t54 -53q0 -20 -10 -31l-213 -250q-14 -16 -22 -16q-14 0 -38 9t-24 19q0 13 2 19l103 293 q6 16 22.5 25.5t34.5 9.5z" />
<glyph unicode="&#x2034;" horiz-adv-x="1105" d="M868 1432q37 0 91.5 -25t54.5 -53q0 -20 -10 -31l-213 -250q-14 -16 -23 -16q-14 0 -37.5 9t-23.5 19q0 13 2 19l102 293q6 16 22.5 25.5t34.5 9.5zM561 1432q37 0 91.5 -25t54.5 -53q0 -19 -11 -31l-213 -250q-14 -16 -22 -16q-15 0 -38.5 9t-23.5 19q0 13 2 19l103 293 q6 16 22.5 25.5t34.5 9.5zM254 1432q37 0 91 -25t54 -53q0 -20 -10 -31l-213 -250q-14 -16 -22 -16q-14 0 -38 9t-24 19q0 13 2 19l103 293q6 16 22.5 25.5t34.5 9.5z" />
<glyph unicode="&#x2035;" horiz-adv-x="491" d="M238 1432q18 0 34.5 -9.5t22.5 -25.5l102 -293q2 -6 2 -19q0 -10 -23.5 -19t-37.5 -9q-9 0 -23 16l-213 250q-10 11 -10 31q0 28 54.5 53t91.5 25z" />
<glyph unicode="&#x2036;" horiz-adv-x="802" d="M549 1432q18 0 34.5 -9.5t22.5 -25.5l103 -293q2 -6 2 -19q0 -10 -23.5 -19t-38.5 -9q-8 0 -22 16l-213 250q-11 12 -11 31q0 28 54.5 53t91.5 25zM238 1436q18 0 34.5 -9.5t22.5 -25.5l102 -293q2 -6 2 -18q0 -10 -23.5 -19.5t-37.5 -9.5q-9 0 -23 16l-213 250 q-10 11 -10 31q0 28 54.5 53t91.5 25z" />
<glyph unicode="&#x2037;" horiz-adv-x="1105" d="M852 1432q18 0 34.5 -9.5t22.5 -25.5l103 -293q2 -6 2 -19q0 -10 -23.5 -19t-38.5 -9q-8 0 -22 16l-213 250q-10 11 -10 31q0 28 54 53t91 25zM545 1432q18 0 34.5 -9.5t22.5 -25.5l103 -293q2 -6 2 -19q0 -10 -23.5 -19t-38.5 -9q-8 0 -22 16l-213 250q-11 12 -11 31 q0 28 54.5 53t91.5 25zM238 1432q18 0 34.5 -9.5t22.5 -25.5l102 -293q2 -6 2 -19q0 -10 -23.5 -19t-37.5 -9q-9 0 -23 16l-213 250q-10 11 -10 31q0 28 54.5 53t91.5 25z" />
<glyph unicode="&#x2039;" horiz-adv-x="727" d="M606 936v-184q-60 -91 -127.5 -160t-165.5 -150q93 -74 162.5 -143t130.5 -164v-190q-163 190 -280.5 298.5t-219.5 164.5v67q109 77 226.5 185t273.5 276z" />
<glyph unicode="&#x203a;" horiz-adv-x="727" d="M123 -55v184q60 91 127 159t166 150q-93 74 -162.5 143t-130.5 164v191q163 -190 280.5 -298.5t219.5 -164.5v-67q-109 -77 -226.5 -185t-273.5 -276z" />
<glyph unicode="&#x203b;" horiz-adv-x="1245" d="M475 -57q0 60 45 102.5t107 42.5t104.5 -40.5t42.5 -100.5q0 -59 -45 -101.5t-106 -42.5q-62 0 -105 41t-43 99zM885 451q0 60 44.5 102.5t106.5 42.5t105 -40.5t43 -100.5q0 -58 -45 -101t-107 -43q-61 0 -104 40.5t-43 99.5zM61 451q0 60 45 102.5t107 42.5 t104.5 -40.5t42.5 -100.5q0 -59 -45 -101.5t-106 -42.5q-62 0 -105 41t-43 99zM475 956q0 60 45 103t107 43t104.5 -40.5t42.5 -100.5q0 -59 -45 -101.5t-106 -42.5q-62 0 -105 40.5t-43 98.5zM177 965l69 52l381 -505l374 497l69 -52l-389 -517l368 -489l-68 -52l-354 470 l-361 -478l-68 52l375 497z" />
<glyph unicode="&#x203d;" horiz-adv-x="919" d="M225 1102q0 -8 1 -14.5t3.5 -10.5t4.5 -6.5t5 -6t5 -5.5q16 -16 16 -47q0 -35 -27 -54.5t-63 -19.5t-64 20t-28 68q0 12 2 23t4.5 20t9 19.5t10 16.5t13.5 16.5t14 14.5t17 14.5t16.5 13t19 13.5t17.5 13q50 39 133 58q13 50 47.5 75t69.5 25t67.5 -24t46.5 -67 q132 -19 218.5 -85.5t86.5 -159.5q0 -30 -9.5 -60t-20 -51.5t-36.5 -49t-38.5 -40t-48 -38t-43.5 -30.5t-45 -30q-87 -57 -107 -90q-15 -26 -24 -53q-2 -31 -9 -144q-1 -18 -12.5 -29.5t-25.5 -11.5q-18 0 -28.5 8.5t-10.5 18.5q-1 14 -12 154.5t-19 230.5q-8 69 -30 190 t-23 195q-47 -14 -75 -35t-28 -45zM313 119q0 60 45 102.5t107 42.5t104.5 -40.5t42.5 -100.5q0 -58 -44.5 -100.5t-106.5 -42.5t-105 40.5t-43 98.5zM573 1165q-3 -66 -24.5 -188.5t-28.5 -179.5q-1 -9 -2.5 -26t-2.5 -26q19 20 44 41q60 50 84.5 100.5t24.5 117.5 q0 47 -26 90t-69 71z" />
<glyph unicode="&#x203e;" horiz-adv-x="866" d="M795 1409v-90h-721v90h721z" />
<glyph unicode="&#x2042;" horiz-adv-x="1236" d="M922 203q-7 1 -21.5 4t-26 4t-23.5 0q-59 -15 -100.5 -2t-41.5 67q0 22 14.5 39t43.5 17q26 0 50 -15t55 -39t61 -37q-4 37 -28.5 87.5t-24.5 71.5q0 27 21 48t46 21q27 0 48.5 -16t21.5 -45q0 -24 -21.5 -82.5t-22.5 -84.5q32 13 60 38t49.5 41t46.5 16q35 0 51.5 -20.5 t16.5 -39.5q0 -36 -34.5 -53t-85.5 -17q-63 0 -95 -5q19 -20 48 -37.5t49.5 -27.5t36 -31.5t15.5 -52.5q0 -23 -17.5 -37t-38.5 -14q-30 0 -50 19t-28 43t-21 59.5t-26 55.5q-14 -26 -26 -77t-31 -75.5t-65 -24.5q-22 0 -36.5 14.5t-14.5 34.5q0 42 22 64t62 43t61 46z M255 203q-7 1 -21.5 4t-26.5 4t-24 0q-59 -15 -100.5 -2t-41.5 67q0 22 14.5 39t43.5 17q26 0 50 -15t55 -39t61 -37q-4 37 -28 87.5t-24 71.5q0 27 20.5 48t45.5 21q27 0 48.5 -16t21.5 -45q0 -24 -21 -83t-22 -84q32 13 60 38t49 41t46 16q35 0 52 -20.5t17 -39.5 q0 -36 -35 -53t-86 -17q-63 0 -95 -5q19 -20 48 -37.5t49.5 -27.5t36 -31.5t15.5 -52.5q0 -23 -17.5 -37t-38.5 -14q-38 0 -58 27t-35.5 77t-30.5 73q-13 -23 -23 -60t-16.5 -59.5t-27 -40t-56.5 -17.5q-22 0 -36 14.5t-14 34.5q0 42 22 64t62 43t61 46zM595 923 q-7 1 -21.5 4t-26.5 4.5t-24 0.5q-59 -15 -100.5 -2t-41.5 67q0 22 14.5 39t43.5 17q26 0 50 -15t55 -39t61 -37q-4 37 -28 87.5t-24 71.5q0 27 20.5 48t45.5 21q27 0 48.5 -16.5t21.5 -45.5q0 -24 -21 -82.5t-22 -83.5q32 13 60 38t49 41t46 16q35 0 52 -20.5t17 -39.5 q0 -36 -35 -53t-86 -17q-63 0 -95 -5q19 -20 48 -37.5t49.5 -27.5t36 -31.5t15.5 -52.5q0 -23 -17.5 -37t-38.5 -14q-38 0 -58 27t-35.5 77t-30.5 73q-13 -23 -23 -60t-16.5 -59.5t-27 -40t-56.5 -17.5q-22 0 -36 14.5t-14 34.5q0 42 22.5 64t62 42.5t60.5 45.5z" />
<glyph unicode="&#x2044;" horiz-adv-x="90" d="M459 1231h86l-940 -1342h-84z" />
<glyph unicode="&#x204a;" horiz-adv-x="897" d="M96 688l-20 234q229 -76 413 -76q108 0 213 18l-20 -2q6 6 17 15t43.5 23.5t64.5 14.5q61 0 61 -38q0 -28 -16 -78q-64 -221 -115.5 -486t-70.5 -419l-19 -154l-151 -2l-13 26q8 59 22.5 157t60.5 341.5t93 417.5q-112 -23 -256 -23q-131 0 -307 31z" />
<glyph unicode="&#x204b;" horiz-adv-x="1282" d="M606 -293q0 -80 15 -103t65 -26h59q13 0 13 -14v-43l-219 2h-242l-211 -2v43q0 14 10 14h62q52 3 66 24t14 103v1434q0 74 -14.5 100.5t-65.5 26.5h-62q-10 0 -10 14v43q115 -3 187 -5t89.5 -3t31 -1.5t36.5 -0.5q60 0 168 5t154 5q219 0 322.5 -99t103.5 -327 q0 -122 -33.5 -213t-92.5 -143t-130.5 -76.5t-155.5 -24.5q-108 0 -160 25v-758zM418 1262q-33 -2 -46.5 -24.5t-13.5 -98.5v-1436q0 -127 64 -127q63 0 63 131v1426q0 24 -0.5 38t-4 34t-10.5 30.5t-20 18.5t-32 8z" />
<glyph unicode="&#x204f;" horiz-adv-x="448" d="M254 209q56 0 85.5 -30t29.5 -77q0 -48 -23 -71t-65 -31q-13 -1 -20.5 -3.5t-16 -14.5t-8.5 -33q0 -36 37 -73t110 -56l-14 -68q-119 21 -188.5 93t-69.5 155q0 209 143 209zM96 758q0 60 45 102.5t107 42.5t104.5 -40.5t42.5 -100.5q0 -59 -45 -101.5t-106 -42.5 q-62 0 -105 41t-43 99z" />
<glyph unicode="&#x2070;" horiz-adv-x="696" d="M342 1418q-17 0 -31 -7t-23.5 -21.5t-16.5 -29.5t-11 -40t-6.5 -43.5t-3 -48.5t-1 -47t0 -47.5t0.5 -41.5q0 -13 -0.5 -42.5t-0.5 -46.5t1 -45t3 -45t6 -39.5t11 -36t16 -26.5t22 -19t30 -6q34 0 54.5 20.5t28 75t9 86.5t0.5 115v54v30q1 22 0.5 44l-1 44t-3 42.5 t-6.5 38.5t-10.5 33t-15.5 26t-22.5 17t-29.5 6zM336 733q-109 0 -174 68q-99 104 -99 302q0 90 31.5 170.5t83.5 131.5q67 66 164 66q102 0 165 -54q109 -95 109 -302q0 -116 -37.5 -203.5t-97.5 -133.5q-57 -45 -145 -45z" />
<glyph unicode="&#x2071;" horiz-adv-x="598" d="M406 965q0 -39 1.5 -63.5t8.5 -43t13.5 -27.5t25 -15.5t34 -8.5t48.5 -4q7 -7 7 -31t-7 -31q-156 4 -215 4q-76 0 -228 -4q-8 7 -8 31t8 31q33 2 48.5 4t34 8.5t25 15.5t13.5 27.5t8.5 43t1.5 63.5v102q0 75 -21.5 96t-97.5 27q-3 8 -4 30.5t2 30.5q214 27 269 49 q41 0 41 -30q-8 -101 -8 -191v-114zM188 1464q0 39 30.5 69t82.5 30q47 0 74.5 -32.5t27.5 -72.5q0 -35 -31 -66.5t-81 -31.5q-45 0 -74 31t-29 73z" />
<glyph unicode="&#x2074;" horiz-adv-x="696" d="M528 920q0 -72 22 -92t81 -23q6 -12 6 -31.5t-6 -30.5q-61 2 -221 2q-136 0 -197 -2q-6 9 -6.5 29t6.5 33q38 2 58.5 5.5t43.5 14.5t33 34t10 61v43h-299l-24 24q51 75 192 256t174 227h103q24 0 24 -20v-401h123l-6 -86h-117v-43zM358 1308l-194 -259h194v259z" />
<glyph unicode="&#x2075;" horiz-adv-x="696" d="M393 958q0 45 -30.5 88t-92.5 62q-59 18 -116 26l-11 8l43 313h379l-28 -133h-291l-15 -103q195 -3 269 -58q75 -57 75 -181q0 -100 -77.5 -174t-182.5 -74q-79 0 -130 15t-68.5 33.5t-17.5 38.5q0 25 22.5 47t50.5 22q11 0 22 -6t17.5 -12t17 -18.5t14.5 -16.5 q3 -3 8 -8.5t7 -8t6 -6.5t7 -5.5t7 -4t8 -3.5t9.5 -2t11.5 -1q86 0 86 162z" />
<glyph unicode="&#x2076;" horiz-adv-x="696" d="M430 954q0 22 -3 44.5t-12 50.5t-29.5 46t-49.5 18q-49 0 -86 -30v-54q0 -230 106 -230q31 0 48.5 24.5t21.5 54.5t4 76zM604 965q0 -34 -14 -72t-41.5 -75t-78 -61t-114.5 -24q-115 0 -190 60q-84 68 -84 241q0 57 16 113t53.5 111.5t92.5 99t139 74.5t188 39v-44 q-130 -24 -203 -99t-102 -173q47 18 92 18q133 0 181 -45q37 -34 51 -82t14 -81z" />
<glyph unicode="&#x2077;" horiz-adv-x="696" d="M471 1333h-152q-139 0 -180 -121l-63 5q5 30 16.5 81.5t17.5 89.5t7 76q0 4 4 4h4q11 -2 25.5 -5.5t29.5 -5t47 -1.5h217q97 0 158 14l33 -22q-85 -144 -175 -345.5t-138 -363.5l-138 -4q62 161 148.5 336.5t138.5 261.5z" />
<glyph unicode="&#x2078;" horiz-adv-x="696" d="M373 1417q-39 0 -70 -21.5t-31 -45.5q0 -55 78 -101q16 -8 51 -28q26 11 43 38.5t17 61.5q0 40 -23.5 68t-64.5 28zM379 1047q-9 4 -34 14.5t-28 11.5q-29 -24 -55 -65.5t-26 -83.5q0 -53 36.5 -93t81.5 -40q53 0 86 32t33 92q0 82 -94 132zM590 1321q0 -40 -32.5 -68.5 t-106.5 -64.5l61 -37q133 -75 133 -182q0 -38 -16.5 -77t-49.5 -76t-92 -60t-135 -23q-42 0 -85 8.5t-85.5 27.5t-69 56t-26.5 86q0 57 31.5 94.5t142.5 106.5q-4 2 -6 4q-125 65 -125 170q0 76 77.5 130t172.5 54q86 0 148.5 -41.5t62.5 -107.5z" />
<glyph unicode="&#x2079;" horiz-adv-x="696" d="M258 1249q0 -22 3 -44.5t12 -51t29.5 -46t49.5 -17.5q49 0 86 30v54q0 231 -106 231q-31 0 -48.5 -24.5t-21.5 -55t-4 -76.5zM84 1239q0 34 14 72t41.5 74.5t78 60.5t114.5 24q117 0 190 -59q84 -68 84 -242q0 -57 -16 -113t-53.5 -111.5t-92.5 -99t-139 -74t-188 -38.5 v43q130 24 203 99.5t102 173.5q-55 -19 -92 -19q-64 0 -112.5 18.5t-73 43.5t-39 57t-18 52.5t-3.5 37.5z" />
<glyph unicode="&#x207a;" horiz-adv-x="696" d="M395 1122h223v-82h-223v-223h-110v223h-224v82h224v224h110v-224z" />
</font>
</defs>
</svg>
