<?xml version="1.0" standalone="no"?>
<!DOCTYPE svg PUBLIC "-//W3C//DTD SVG 1.1//EN" "http://www.w3.org/Graphics/SVG/1.1/DTD/svg11.dtd" >
<svg xmlns="http://www.w3.org/2000/svg">
<metadata></metadata>
<defs>
<font id="linux_libertine_oSBdIt" horiz-adv-x="2048" >
<font-face units-per-em="2048" ascent="1638" descent="-410" />
<missing-glyph horiz-adv-x="512" />
<glyph unicode="&#x2e;&#x2e;&#x2e;" horiz-adv-x="1542" d="M178 88q10 47 50.5 81t86.5 34q41 0 68 -26t27 -64q0 -17 -2 -25q-11 -46 -51 -79.5t-87 -33.5q-41 0 -67.5 26.5t-26.5 66.5q0 3 1 10t1 10zM698 88q11 47 51 81t87 34q41 0 67.5 -25.5t26.5 -64.5q0 -17 -2 -25q-11 -46 -50.5 -79.5t-86.5 -33.5q-41 0 -68 26.5 t-27 66.5q0 3 1 10t1 10zM1223 88q11 48 50.5 81.5t86.5 33.5q41 0 66.5 -25.5t25.5 -64.5q0 -17 -2 -25q-9 -46 -49 -79.5t-86 -33.5q-41 0 -67.5 26.5t-26.5 66.5q0 3 1 10t1 10z" />
<glyph unicode="&#x21;&#x21;" horiz-adv-x="890" d="M934 1354q53 0 91 -31t38 -88q0 -13 -4 -37q-15 -74 -70 -217q-48 -131 -61 -176q-72 -213 -97 -330q-6 -22 -9 -30.5t-12.5 -24.5t-27.5 -22.5t-45 -6.5q-38 0 -51.5 11t-13.5 34q0 22 10 64q13 86 37 305q8 107 8 182q0 109 21 211q16 78 72.5 117t113.5 39zM567 94 q9 47 50 81t88 34q41 0 66.5 -26t25.5 -66q0 -15 -2 -23q-9 -46 -50 -80t-88 -34q-41 0 -66.5 26.5t-25.5 65.5q0 14 2 22zM555 1348q55 0 93 -30t38 -87q0 -13 -4 -37q-16 -80 -70 -217q-46 -126 -61 -176q-69 -205 -96 -330q-4 -16 -5.5 -20.5t-6.5 -18.5t-11 -19.5 t-15.5 -13.5t-24 -11t-32.5 -3q-38 0 -51.5 11t-13.5 34q0 12 8 66q14 78 39 305q8 104 8 180q0 108 21 213q16 78 72 116t112 38zM190 88q9 47 50 81t88 34q41 0 66.5 -25.5t25.5 -64.5q0 -17 -2 -25q-9 -46 -49.5 -79.5t-87.5 -33.5q-41 0 -67 26.5t-26 66.5q0 14 2 20z " />
<glyph unicode="&#x3f;&#x3f;" horiz-adv-x="1650" d="M1294 1169q-6 -30 4 -55q9 -19 2 -55t-47.5 -58t-89.5 -22q-36 0 -66 24t-30 66q0 17 2 25q10 50 44.5 89.5t100.5 86.5q116 80 297 80q152 0 238 -66t86 -180q0 -35 -8 -68q-9 -44 -33.5 -86t-49 -70.5t-70 -64.5t-70 -53t-74.5 -49q-31 -19 -52 -35.5t-47.5 -45.5 t-45.5 -70t-29 -93l-10 -47q-7 -37 -24.5 -53.5t-61.5 -16.5q-34 0 -47 8.5t-13 28.5q0 9 4 33l10 51q7 33 13 55t22 60t37.5 69t59.5 71.5t88 78.5q66 50 101.5 100t49.5 123q8 50 8 70q0 75 -31 125.5t-85 50.5q-67 0 -121 -32t-62 -75zM1090 88q9 47 49.5 81t87.5 34 q40 0 66 -26t26 -64q0 -17 -2 -25q-9 -46 -49.5 -79.5t-87.5 -33.5q-41 0 -67 26.5t-26 66.5q0 11 3 20zM524 1169q-6 -30 4 -55q9 -19 2 -55t-47.5 -58t-89.5 -22q-36 0 -66 24t-30 66q0 4 1 12.5t1 12.5q10 50 44.5 89.5t100.5 86.5q116 80 297 80q152 0 238 -66t86 -180 q0 -35 -8 -68q-9 -44 -33.5 -86t-49 -70.5t-70 -64.5t-70 -53t-74.5 -49q-31 -19 -52 -35.5t-47.5 -45.5t-45.5 -70t-29 -93l-11 -47q-7 -38 -23.5 -54t-62.5 -16q-34 0 -46.5 8.5t-12.5 28.5q0 9 4 33l10 51q7 33 13 55t22 60t37.5 69t59.5 71.5t88 78.5q66 50 101.5 100 t49.5 123q8 50 8 70q0 75 -31 125.5t-85 50.5q-67 0 -121 -32t-62 -75zM319 88q9 47 50 81t88 34q41 0 66.5 -25.5t25.5 -64.5q0 -17 -2 -25q-9 -46 -49.5 -79.5t-87.5 -33.5q-41 0 -67 26.5t-26 66.5q0 14 2 20z" />
<glyph unicode="&#x3f;&#x21;" horiz-adv-x="1267" d="M1309 1352q55 0 92 -30t37 -87q0 -25 -2 -39q-15 -65 -70 -215q-20 -50 -63 -176q-79 -247 -97 -330q-4 -20 -8 -31t-13.5 -26t-27.5 -22t-45 -7q-36 0 -49.5 11t-13.5 34q0 12 8 66q22 145 37 305q10 97 10 180q0 111 18 211q17 79 73 117.5t114 38.5zM942 92 q10 47 50.5 81t86.5 34q41 0 68 -26t27 -64q0 -13 -3 -25q-11 -46 -50.5 -79t-86.5 -33q-41 0 -67.5 26t-26.5 66q0 14 2 20zM524 1169q-6 -30 4 -55q9 -19 2 -55t-47.5 -58t-89.5 -22q-36 0 -66 24t-30 66q0 4 1 12.5t1 12.5q10 50 44.5 89.5t100.5 86.5q116 80 297 80 q152 0 238 -66t86 -180q0 -35 -8 -68q-9 -44 -33.5 -86t-49 -70.5t-70 -64.5t-70 -53t-74.5 -49q-31 -19 -52 -35.5t-47.5 -45.5t-45.5 -70t-29 -93l-11 -47q-7 -38 -23.5 -54t-62.5 -16q-34 0 -46.5 8.5t-12.5 28.5q0 9 4 33l10 51q7 33 13 55t22 60t37.5 69t59.5 71.5 t88 78.5q66 50 101.5 100t49.5 123q8 50 8 70q0 75 -31 125.5t-85 50.5q-67 0 -121 -32t-62 -75zM319 88q9 47 50 81t88 34q41 0 66.5 -25.5t25.5 -64.5q0 -17 -2 -25q-9 -46 -49.5 -79.5t-87.5 -33.5q-41 0 -67 26.5t-26 66.5q0 14 2 20z" />
<glyph unicode="&#x21;&#x3f;" horiz-adv-x="1251" d="M555 1348q55 0 93 -30t38 -87q0 -13 -4 -37q-16 -80 -70 -217q-46 -126 -61 -176q-69 -205 -96 -330q-4 -16 -5.5 -20.5t-6.5 -18.5t-11 -19.5t-15.5 -13.5t-24 -11t-32.5 -3q-38 0 -51.5 11t-13.5 34q0 12 8 66q14 78 39 305q8 104 8 180q0 108 21 213q16 78 72 116 t112 38zM190 88q9 47 50 81t88 34q41 0 66.5 -25.5t25.5 -64.5q0 -17 -2 -25q-9 -46 -49.5 -79.5t-87.5 -33.5q-41 0 -67 26.5t-26 66.5q0 14 2 20zM895 1165q-6 -30 4 -55q9 -19 2 -55t-47.5 -58t-87.5 -22q-37 0 -67.5 24t-30.5 68q0 7 4 23q8 51 42.5 90t102.5 86 q113 80 295 80q154 0 239 -66t85 -180q0 -31 -9 -68q-9 -44 -33 -85.5t-49.5 -71t-69 -64.5t-70.5 -53.5t-75 -48.5q-31 -20 -51 -36t-47 -45t-46 -69.5t-30 -91.5l-10 -49q-7 -38 -23.5 -54t-62.5 -16q-34 0 -45.5 8.5t-11.5 28.5q0 9 4 33l10 51q6 33 12 56t21.5 60 t36.5 68.5t59 71.5t88 78q66 49 101.5 99t52.5 124q6 37 6 70q0 76 -31.5 126t-85.5 50q-67 0 -120 -32t-62 -75zM690 86q9 46 49.5 79.5t87.5 33.5q41 0 68 -26t27 -64q0 -11 -4 -23q-9 -47 -50 -81t-88 -34q-41 0 -66.5 26t-25.5 66q0 15 2 23z" />
<glyph unicode="&#xb0;C" horiz-adv-x="1636" d="M1284 1108q-81 0 -151 -29t-119 -76t-88.5 -110t-64 -127.5t-40.5 -132t-22.5 -120.5t-6.5 -96q0 -158 71.5 -249.5t215.5 -91.5q128 0 221.5 44.5t215.5 168.5l36 -41q-120 -138 -236.5 -203t-256.5 -65q-117 0 -213.5 37t-160 101t-98 149t-34.5 181q0 56 12 113 q31 144 105.5 264t173.5 198.5t215.5 121.5t234.5 43q93 0 164 -12t103 -26.5t61 -26.5t47 -13q-24 -153 -24 -307l-76 -8q-6 153 -70.5 233t-214.5 80zM489 1006q62 0 103.5 48t41.5 109q0 49 -26.5 84t-79.5 35q-62 0 -103.5 -51t-41.5 -113q0 -47 27.5 -79.5t78.5 -32.5z M311 1112q0 92 68.5 164t159.5 72q73 0 120.5 -49.5t47.5 -124.5q0 -94 -68 -164t-158 -70q-74 0 -122 49t-48 123z" />
<glyph unicode="&#xb0;F" horiz-adv-x="1642" d="M1169 1022l-75 -391h209q47 0 71 21.5t45 70.5l25 59q1 7 6 13t10 6h62q7 0 4 -10q-43 -143 -53 -195q-18 -89 -25 -207l-4 -6h-64q-14 0 -14 14l2 64q2 46 -16 68t-66 22h-207l-78 -395q-9 -48 11.5 -69t77.5 -21h53q15 0 12 -17l-8 -47l-4 -4l-281 4l-291 -4l-2 4l9 47 q3 17 18 17h51q59 0 88.5 22.5t38.5 67.5l168 866q10 47 -7 68.5t-77 21.5h-59q-13 0 -13 14l11 52l6 4l280 -4l183 2l452 2q-16 -147 -20 -320l-78 -8q-5 50 -9.5 79t-16.5 63t-30 52t-49 30t-75 12h-187q-70 0 -84 -68zM487 1006q62 0 103.5 48t41.5 109q0 49 -26.5 84 t-79.5 35q-62 0 -103.5 -51t-41.5 -113q0 -47 27.5 -79.5t78.5 -32.5zM309 1112q0 92 68.5 164t159.5 72q73 0 120.5 -49.5t47.5 -124.5q0 -94 -68 -164t-158 -70q-74 0 -122 49t-48 123z" />
<glyph unicode="fj" horiz-adv-x="1249" d="M952 655q15 69 15 103q0 22 -33 28.5t-90 6.5h-250q-4 -14 -41 -191t-72.5 -327.5t-101.5 -336.5t-135 -288q-44 -63 -107.5 -100t-136.5 -37q-96 0 -143 36t-47 72q0 28 22 51t68 23q43 0 72.5 -13.5t40.5 -29.5t21 -29.5t19 -13.5q39 0 70.5 42.5t54.5 124.5t38.5 171 t31.5 213q28 223 67 413l47 220h-98q-53 0 -53 14q6 27 8 37q4 16 28.5 30.5t69.5 14.5h64q23 104 60 189.5t77 140.5t88.5 96t89.5 62.5t86.5 34t73 15.5t53.5 3q83 0 162.5 -37.5t126.5 -91t47 -101.5q0 -56 -40.5 -96.5t-92.5 -40.5q-57 0 -97 35.5t-40 81.5 q0 72 -4.5 98.5t-24.5 52.5q-19 26 -68 26q-60 0 -127.5 -91.5t-107.5 -261.5q-17 -72 -27 -115h246q283 0 379 26q12 0 12 -6q-34 -140 -58 -243l-44 -185q-27 -117 -50.5 -205t-55 -187t-62 -170.5t-71 -139.5t-84 -110t-98.5 -67.5t-116 -25.5q-91 0 -161.5 30.5 t-70.5 80.5q0 46 24.5 64t56.5 18q40 0 67 -18t38.5 -39.5t28.5 -39.5t38 -18q34 0 80.5 78.5t72.5 197.5l97 437z" />
<glyph unicode="fk" horiz-adv-x="1654" d="M1305 774q95 72 162 103.5t128 31.5q150 0 150 -88q0 -29 -15 -50.5t-38 -31.5t-43 -14t-39 -4q-43 0 -74.5 11.5t-42.5 29.5q-6 9 -6 16q-13 -9 -207 -151l14 8q36 -126 131 -465q23 -84 31 -84q5 0 72 98l102 -57q-41 -76 -92.5 -114t-138.5 -38q-82 0 -136 36t-79 124 l-97 350l-79 -59l16 2q-16 -65 -44.5 -194t-43.5 -195l-219 -92l-27 63l266 1168q0 2 3.5 17.5t5.5 23.5v2q-46 9 -65.5 35t-27.5 63q-9 51 -18 51q-8 0 -21.5 -9.5t-30.5 -28t-37.5 -52t-37.5 -76.5q-33 -80 -59 -200q-5 -22 -13.5 -59t-13.5 -58h178q58 0 58 -19l-13 -45 q-3 -16 -32.5 -24t-63.5 -8h-150q-1 -3 -3 -14.5t-3 -14.5q-86 -427 -163.5 -700.5t-180.5 -423.5q-92 -132 -235 -132q-63 0 -107.5 11.5t-64.5 29.5t-27.5 34t-7.5 32q0 27 27.5 47.5t85.5 20.5q32 0 53.5 -7.5t30 -15.5t18.5 -23q27 -38 31 -38q15 0 49 34 q35 35 86.5 253t81.5 411q15 121 51 278l45 218h-96q-53 0 -53 14q6 27 8 37q4 16 28.5 30.5t69.5 14.5h61q23 105 56.5 190.5t68 142t76 99.5t77 66t74 37t64.5 18t51 4q136 0 193 -45q50 12 86 26h104l-192 -831q8 6 244 180z" />
<glyph unicode="ft" horiz-adv-x="1200" d="M774 887q85 0 131 53h-2q25 31 48.5 118.5t23.5 155.5q0 77 -23.5 114.5t-58.5 37.5q-28 0 -80.5 -41.5t-87.5 -120.5q-33 -89 -57 -200q-5 -22 -14.5 -59t-14.5 -58h135zM618 791l-6 -29q-86 -427 -163.5 -700.5t-180.5 -423.5q-92 -132 -235 -132q-63 0 -107.5 11.5 t-64.5 29.5t-27.5 34t-7.5 32q0 27 27.5 47.5t85.5 20.5q44 0 65.5 -12t36.5 -34q27 -38 31 -38q15 0 49 34q35 35 86.5 253t81.5 411q15 121 51 278l45 218h-96q-53 0 -53 14q6 27 8 37q4 16 28.5 30.5t69.5 14.5h61q23 105 58.5 190.5t73 142t82.5 99.5t84 66t80.5 37 t68 18t51.5 4q131 0 205 -62.5t74 -169.5q0 -38 -13 -92q-23 -107 -55 -233h178q58 0 58 -19l-9 -45q-4 -16 -34 -24t-64 -8h-149q-20 -89 -61 -266.5t-62 -266.5q-23 -94 -23 -123q0 -9 -8 -15q29 18 154 169l92 -82q-106 -128 -181 -174.5t-159 -46.5q-144 0 -144 102 q0 46 25 158q22 90 65 272.5t64 272.5h-236zM936 119l-6 -2q4 0 6 2z" />
<glyph unicode="ck" horiz-adv-x="1835" d="M479 -25q-73 0 -139 34t-108.5 85t-67.5 109t-25 108q0 99 32 192.5t86.5 166t123.5 127.5t147 84.5t154 29.5q80 0 141 -20t93.5 -52.5t48.5 -66.5t16 -67q0 -48 -46.5 -73.5t-82.5 -25.5q-62 0 -91.5 21t-29.5 51q0 25 19 47q2 2 2 35q0 38 -22 54.5t-42 16.5 q-51 0 -103 -33.5t-95 -93t-70 -151.5t-27 -199q0 -67 10.5 -118t26.5 -79.5t37.5 -46.5t39.5 -24t36 -6q47 0 113 35.5t139 122.5l84 -70q-18 -28 -46.5 -56t-76.5 -61.5t-120.5 -54.5t-156.5 -21zM1487 776q95 72 162.5 103.5t128.5 31.5q147 0 147 -88q0 -29 -15 -50.5 t-38 -31.5t-43 -14t-39 -4q-88 0 -117 41q-6 9 -6 16q-5 -4 -209 -153l17 8l131 -467q21 -82 30 -82q6 0 70 98l102 -57q-39 -76 -91 -114t-140 -38q-170 0 -215 158l-96 352l-80 -59l16 2q-15 -65 -43.5 -195t-44.5 -196l-225 -80l-21 53l269 1168q10 48 10 75q0 50 4 52 q-5 0 -27 -3.5t-34 -3.5q-6 -2 -19 -2q-19 0 -30.5 6t-10.5 15q1 8 4 28.5t4 28.5q45 0 134.5 14.5t156.5 41.5h103l-193 -836q37 27 120.5 88.5t127.5 93.5z" />
<glyph unicode="ch" horiz-adv-x="1822" d="M479 -25q-73 0 -139 34t-108.5 85t-67.5 109t-25 108q0 99 32 192.5t86.5 166t123.5 127.5t147 84.5t154 29.5q80 0 141 -20t93.5 -52.5t48.5 -66.5t16 -67q0 -48 -46.5 -73.5t-82.5 -25.5q-62 0 -91.5 21t-29.5 51q0 23 21 47h-2q2 2 2 35q0 38 -22 54.5t-42 16.5 q-51 0 -103 -33.5t-95 -93t-70 -151.5t-27 -199q0 -67 10.5 -118t26.5 -79.5t37.5 -46.5t39.5 -24t36 -6q47 0 113 35.5t139 122.5l84 -70q-18 -28 -46.5 -56t-76.5 -61.5t-120.5 -54.5t-156.5 -21zM897 8l272 1174q11 50 11 75q0 50 4 50q-6 -1 -27.5 -3.5t-32.5 -3.5 q-6 -2 -16 -2q-43 0 -43 21l6 59q81 0 180 17q51 9 109 35h106l-157 -678q171 159 350 159q184 0 184 -166q0 -47 -31 -165q-59 -239 -83 -326q-23 -89 -23 -127v-6q19 19 106 123l93 -70q-164 -199 -314 -199q-55 0 -95 27t-40 72q0 48 31 166q46 183 84 327q24 101 24 146 q0 40 -9.5 61t-24.5 21q-42 0 -122.5 -69.5t-193.5 -211.5l8 2q-19 -81 -55.5 -240.5t-54.5 -240.5l-225 -76z" />
<glyph unicode="Th" horiz-adv-x="2316" d="M1767 1194l-128 -555q132 151 233.5 205.5t247.5 54.5q45 0 69 -28.5t27.5 -78t-2.5 -101t-21 -111.5l-73 -306q-19 -74 -19 -105q0 -34 21 -34q16 0 54 20.5t75 49.5q21 0 35 -15t18 -38q-109 -90 -191.5 -131t-173.5 -41t-91 115q0 56 24 161l72 307q2 9 6 26 q5 23 8 34.5t7 31.5t4.5 30.5t0.5 25.5t-3.5 23t-9 16.5t-15.5 12t-23 3.5q-37 0 -109.5 -62t-142.5 -167q-78 -116 -138 -372l-3 -18q-2 -9 -7 -36.5t-8 -39.5t-13.5 -33t-24.5 -31t-39.5 -18.5t-59.5 -8.5q-73 0 -94.5 13t-21.5 42q0 9 4.5 27t11.5 44t10 41l229 1006 q13 58 -12.5 72t-126.5 14h-217q-53 0 -84 -52t-51 -157l-152 -778q-10 -52 -10.5 -84t5 -52.5t28 -30.5t46.5 -13.5t73 -5.5q7 -9 2.5 -35t-15.5 -35q-204 4 -317 4q-128 0 -328 -4q-7 9 -2.5 35t15.5 35q47 2 73 4t53.5 9t41 18t28 32.5t22.5 50t17 72.5l152 784 q22 94 10 148.5t-66 54.5h-90q-105 0 -177 -49t-126 -168q-55 0 -78 10q71 170 109 299q0 6 10 6q203 -16 473 -16h268h293q65 1 141.5 20.5t168.5 53t98 35.5q33 0 27 -27q-17 -77 -48 -209z" />
<glyph unicode="Q&#xe065;" horiz-adv-x="2787" d="M969 1264q-86 0 -165 -46t-137.5 -123t-102.5 -175t-66.5 -206t-22.5 -212q0 -208 96 -325.5t252 -117.5q105 0 198 69t155 179t97.5 245.5t35.5 270.5q0 211 -94.5 326t-245.5 115zM2705 692l-49 -264q-15 -82 -37.5 -146.5t-60 -122.5t-89 -96t-126.5 -60.5t-170 -22.5 q-42 0 -85.5 7t-93 26t-86.5 48.5t-62 80t-25 114.5q0 44 8 88l63 348q11 58 11 90q0 59 -27 77t-100 20q-8 10 -9 33.5t9 33.5q122 -4 286 -4q138 0 260 4q8 -9 7 -33.5t-11 -33.5q-53 -3 -76.5 -7.5t-45 -25.5t-31 -53.5t-21.5 -100.5l-55 -301q-16 -84 -16 -141 q0 -56 14.5 -95t37.5 -57t44.5 -25t44.5 -7q45 0 82 11t63 27.5t47.5 45t35 54t25 64t17.5 66.5t13 69l51 289q10 53 10 90q0 62 -19.5 78.5t-87.5 18.5q-8 10 -9 33.5t9 33.5q122 -4 205 -4q128 0 248 4q8 -9 7 -33.5t-11 -33.5q-36 -2 -56 -4.5t-42.5 -9.5t-34.5 -18.5 t-24.5 -32t-21 -50t-16.5 -72.5zM693 -21q-22 -14 -42 -49q288 -13 549 -102q130 -44 273 -68t262 -24q83 0 200.5 29t223.5 83l24 -49q-114 -90 -272 -144t-316 -54q-322 0 -518 77q-173 67 -341.5 109.5t-229.5 42.5q-36 0 -92 -27.5t-95 -89.5q-9 5 -35.5 24.5 t-35.5 24.5q49 62 134 105t136 51l91 74q-188 41 -299 176.5t-111 337.5q0 99 27.5 201t76.5 195t123 174.5t161.5 142t197 95t225.5 34.5q161 0 291 -66t206 -191.5t76 -289.5q0 -153 -58 -300.5t-161 -264.5t-259 -189t-337 -72q-27 0 -75 4z" />
<glyph unicode="&#xe061;&#xe065;" horiz-adv-x="2347" d="M2286 692l-50 -264q-15 -82 -37.5 -146.5t-60 -122.5t-89 -96t-126.5 -60.5t-170 -22.5q-42 0 -85.5 7t-93 26t-86.5 48.5t-62 80t-25 114.5q0 44 8 88l64 348q10 53 10 90q0 59 -27 77t-100 20q-8 10 -9 33.5t9 33.5q122 -4 286 -4q139 0 261 4q8 -9 6.5 -33.5 t-11.5 -33.5q-53 -3 -76.5 -7.5t-45 -25.5t-31 -53.5t-21.5 -100.5l-55 -301q-16 -84 -16 -141q0 -56 14.5 -95t37.5 -57t44.5 -25t44.5 -7q45 0 82 11t63 27.5t47.5 45t35 54t25 64t17.5 66.5t13 69l51 289q10 53 10 90q0 62 -19 78.5t-87 18.5q-8 10 -9 33.5t9 33.5 q122 -4 204 -4q128 0 248 4q8 -9 7 -33.5t-11 -33.5q-43 -2 -65.5 -6t-46.5 -14t-36.5 -30t-24 -52.5t-21.5 -84.5zM745 877q-85 0 -166 -68q-66 -56 -116.5 -188t-50.5 -279q0 -141 50 -208.5t156 -67.5q62 0 108 29.5t96 94.5q55 70 92.5 183t37.5 231q0 145 -51 209 t-156 64zM479 -14q-154 23 -240.5 117t-86.5 241q0 175 88.5 311.5t230.5 219.5q152 88 309 88q195 0 313.5 -100t118.5 -273q0 -148 -69 -272.5t-177 -206.5q-165 -125 -372 -131q-92 -51 -133 -97q88 1 184.5 -22t165.5 -54q53 -18 156 -44.5t186 -38.5q293 -47 545 90 l43 -50q-69 -46 -121.5 -76t-127.5 -62.5t-158 -46t-175 -9.5q-154 7 -276 28.5t-240 75.5q-10 5 -73 41t-120.5 59t-107.5 23q-20 0 -70 -34t-82 -74q-2 2 -28 36t-37 39q43 44 97 75.5t100 39.5q76 64 157 107z" />
<glyph unicode="&#xfb00;" horiz-adv-x="1290" d="M362 793h-98q-53 0 -53 14q6 27 8 37q4 16 28.5 30.5t69.5 14.5h64q22 93 56.5 169t70.5 124.5t80 85t81 55t78.5 29.5t67 13.5t51.5 2.5q173 0 223 -80q121 142 289 142q242 0 242 -156q0 -82 -96 -82q-44 0 -84 32.5t-43 73.5q-3 58 -35 58q-54 0 -98.5 -84.5 t-87.5 -267.5q-17 -72 -27 -115h178q57 0 57 -19l-10 -45q-4 -16 -34.5 -24t-63.5 -8h-150l-40 -179q-40 -180 -74 -311.5t-100 -310.5t-136 -281q-44 -63 -107.5 -100t-136.5 -37q-96 0 -143 36.5t-47 72.5q0 28 22 50.5t68 22.5q43 0 72.5 -13.5t41 -29.5t21.5 -29.5 t19 -13.5q76 0 120.5 131.5t73.5 378.5q20 161 68 393l47 220h-152h-28h-121q-4 -14 -41 -191t-72.5 -327.5t-101.5 -336.5t-135 -288q-44 -63 -107.5 -100t-136.5 -37q-96 0 -143 36t-47 72q0 28 22 51t68 23q43 0 72.5 -13.5t40.5 -29.5t21 -29.5t19 -13.5q39 0 71 42.5 t55 124t39 172t30 212.5q28 223 67 413zM795 889h118q31 137 79 243q-40 8 -72 38.5t-35 66.5q-3 57 -35 57q-60 0 -116 -69.5t-91 -220.5q-17 -72 -27 -115h152h27z" />
<glyph unicode="&#xfb01;" horiz-adv-x="1249" d="M878 1357q-60 0 -127.5 -91.5t-107.5 -261.5q-17 -72 -27 -115h185q283 0 379 26q12 0 12 -6q-38 -139 -61 -243l-91 -410q-14 -61 -14 -86q0 -33 18 -33q38 0 105 86l63 -55q-97 -98 -175 -143t-156 -45q-37 0 -61 9.5t-34 27t-13 31.5t-3 32q0 42 27 164l92 411 q16 71 16 103q0 22 -33 28.5t-90 6.5h-188q-4 -14 -41 -191t-72.5 -327.5t-101.5 -336.5t-135 -288q-44 -63 -107.5 -100t-136.5 -37q-96 0 -143 36t-47 72q0 28 22 51t68 23q43 0 72.5 -13.5t40.5 -29.5t21 -29.5t19 -13.5q39 0 70.5 42.5t54.5 124.5t38.5 171t31.5 213 q28 223 67 413l47 220h-98q-53 0 -53 14q6 27 8 37q4 16 28.5 30.5t69.5 14.5h64q23 105 58.5 190t72.5 140t82.5 96t83.5 62.5t80.5 34t68.5 15.5t52 3q84 0 170.5 -37.5t141 -91.5t54.5 -101q0 -56 -40.5 -96.5t-92.5 -40.5q-57 0 -97 35.5t-40 81.5q0 72 -4.5 98.5 t-24.5 52.5q-19 26 -68 26z" />
<glyph unicode="&#xfb02;" horiz-adv-x="1204" d="M362 793h-98q-53 0 -53 14q6 27 8 37q4 16 28.5 30.5t69.5 14.5h64q23 105 56.5 190t68 140t76 96t76.5 62.5t74 34t63.5 15.5t50.5 3q130 0 190 -46q161 15 264 46q14 0 22 -7t5 -20q-22 -76 -53 -209l-213 -920q-19 -84 -19 -105q0 -34 21 -34q16 0 54.5 20.5 t74.5 49.5q21 0 35 -15t18 -38q-109 -90 -191 -131t-173 -41q-92 0 -92 115q0 56 24 161l206 897q9 35 10 43q-15 -4 -38 -4q-44 0 -84 32.5t-43 73.5q-3 58 -35 58q-54 0 -98.5 -84.5t-87.5 -267.5q-17 -72 -27 -115h179q57 0 57 -19l-10 -45q-4 -16 -35 -24t-64 -8h-149 q-4 -14 -41 -191t-72.5 -327.5t-101.5 -336.5t-135 -288q-44 -63 -107.5 -100t-136.5 -37q-96 0 -143 36t-47 72q0 28 22 51t68 23q43 0 72.5 -13.5t40.5 -29.5t21 -29.5t19 -13.5q39 0 71 42.5t55 124t39 172t30 212.5q28 223 67 413z" />
<glyph unicode="&#xfb03;" horiz-adv-x="1781" d="M362 793h-98q-53 0 -53 14q6 27 8 37q4 16 28.5 30.5t69.5 14.5h64q22 93 56.5 169t70.5 124.5t80 85t81 55t78.5 29.5t67 13.5t51.5 2.5q181 0 227 -88q133 150 318 150q84 0 171 -37.5t141.5 -91.5t54.5 -101q0 -56 -40.5 -96.5t-92.5 -40.5q-57 0 -97.5 36t-40.5 81 q0 74 -4 99.5t-24 51.5q-19 26 -69 26q-60 0 -127 -91.5t-107 -261.5q-17 -72 -27 -115h184q283 0 379 26q12 0 12 -6q-37 -139 -60 -243l-91 -410q-14 -61 -14 -86q0 -33 18 -33q37 0 104 86l64 -55q-97 -98 -175 -143t-157 -45q-30 0 -51.5 7t-32.5 17t-17 25t-7.5 26 t-1.5 25q0 47 26 164l92 411q17 75 17 103q0 22 -33 28.5t-90 6.5h-189q-6 -24 -30 -134.5t-52.5 -225.5t-67.5 -251t-91 -262t-109 -209q-44 -63 -107.5 -100t-136.5 -37q-96 0 -143 36.5t-47 72.5q0 28 22 50.5t68 22.5q43 0 72.5 -13.5t41 -29.5t21.5 -29.5t19 -13.5 q76 0 120.5 131.5t73.5 378.5q20 161 68 393l47 220h-152h-28h-121q-4 -14 -41 -191t-72.5 -327.5t-101.5 -336.5t-135 -288q-44 -63 -107.5 -100t-136.5 -37q-96 0 -143 36t-47 72q0 28 22 51t68 23q43 0 72.5 -13.5t40.5 -29.5t21 -29.5t19 -13.5q39 0 71 42.5t55 124 t39 172t30 212.5q28 223 67 413zM995 1132q-41 6 -74 37t-36 68q-3 57 -35 57q-60 0 -116 -69.5t-91 -220.5q-17 -72 -27 -115h152h27h118q31 139 82 243z" />
<glyph unicode="&#xfb04;" horiz-adv-x="1695" d="M362 793h-98q-53 0 -53 14q6 27 8 37q4 16 28.5 30.5t69.5 14.5h64q22 93 56.5 169t70.5 124.5t80 85t81 55t78.5 29.5t67 13.5t51.5 2.5q173 0 223 -80q121 142 289 142q122 0 185 -42q139 15 228 42q14 0 22 -7t5 -20q-21 -76 -52 -209l-214 -920q-19 -84 -19 -105 q0 -34 21 -34q16 0 54.5 20.5t74.5 49.5q21 0 35.5 -15t18.5 -38q-109 -90 -191.5 -131t-173.5 -41q-92 0 -92 115q0 51 25 161l206 897q1 5 4.5 18.5t4.5 20.5q-43 2 -81.5 34t-41.5 72q-3 58 -35 58q-54 0 -98.5 -84.5t-87.5 -267.5q-17 -72 -27 -115h178q57 0 57 -19 l-10 -45q-4 -16 -34.5 -24t-63.5 -8h-150l-40 -179q-40 -180 -74 -311.5t-100 -310.5t-136 -281q-44 -63 -107.5 -100t-136.5 -37q-96 0 -143 36.5t-47 72.5q0 28 22 50.5t68 22.5q43 0 72.5 -13.5t41 -29.5t21.5 -29.5t19 -13.5q76 0 120.5 131.5t73.5 378.5q20 161 68 393 l47 220h-152h-28h-121q-4 -14 -41 -191t-72.5 -327.5t-101.5 -336.5t-135 -288q-44 -63 -107.5 -100t-136.5 -37q-96 0 -143 36t-47 72q0 28 22 51t68 23q43 0 72.5 -13.5t40.5 -29.5t21 -29.5t19 -13.5q39 0 71 42.5t55 124t39 172t30 212.5q28 223 67 413zM795 889h118 q31 137 79 243q-40 8 -72 38.5t-35 66.5q-3 57 -35 57q-60 0 -116 -69.5t-91 -220.5q-17 -72 -27 -115h152h27z" />
<glyph horiz-adv-x="0" />
<glyph horiz-adv-x="682" />
<glyph unicode=" "  horiz-adv-x="512" />
<glyph unicode="&#x09;" horiz-adv-x="512" />
<glyph unicode="&#xa0;" horiz-adv-x="512" />
<glyph unicode="!" horiz-adv-x="514" d="M530 1348q55 0 93.5 -30t38.5 -87q0 -7 -5 -37q-22 -98 -69 -217l-64 -176q-74 -229 -96 -330q-4 -21 -7.5 -31t-12.5 -25.5t-27 -22.5t-45 -7q-38 0 -52 11t-14 34q0 5 9 66q16 91 36 305q11 107 11 180q0 110 18 213q17 78 73.5 116t112.5 38zM291 207q43 0 72 -31.5 t29 -73.5q0 -41 -36 -81.5t-90 -40.5q-44 0 -73 27t-29 66q0 64 40.5 99t86.5 35z" />
<glyph unicode="&#x22;" horiz-adv-x="739" d="M428 862l-31 8q13 328 13 340q9 40 52.5 75.5t104.5 35.5q80 0 80 -49q0 -11 -4 -27q-3 -14 -38.5 -106.5t-70.5 -178.5l-34 -86zM686 862l-31 8q13 328 13 340q9 40 52.5 75.5t104.5 35.5q80 0 80 -49q0 -11 -4 -27q-3 -14 -38.5 -106.5t-70.5 -178.5l-34 -86z" />
<glyph unicode="#" horiz-adv-x="948" d="M625 485l73 205h-135q-14 -36 -38 -102.5t-38 -102.5h138zM854 690l-76 -205h183l-39 -114h-185q-57 -161 -125 -344h-153l123 344h-136q-85 -238 -124 -344h-154l123 344h-182l41 114h184q36 103 74 205h-183l41 117h183q21 56 62.5 171.5t61.5 170.5h156l-127 -342h137 q20 55 61 170.5t62 171.5h156l-125 -342h182l-39 -117h-182z" />
<glyph unicode="$" horiz-adv-x="897" d="M190 20q-15 0 -33.5 -11t-41.5 -11q16 78 28 301l93 6q3 -50 12.5 -89t28 -75t51.5 -58t79 -29l97 477q-23 9 -42 18t-42 21.5t-41.5 25.5t-37.5 31t-33 37.5t-25.5 44t-17 51.5t-5 60t7.5 69q16 82 80 145.5t137.5 94.5t148.5 40l23 115h82l-23 -114q37 -2 91.5 -7.5 t77.5 -7.5t61 0q-14 -92 -18 -293l-90 -8l-4 37q-11 109 -36.5 154t-96.5 53l-84 -416q39 -13 77.5 -32.5t80 -52.5t70.5 -72t42.5 -93t1.5 -113q-13 -64 -41.5 -119.5t-76.5 -105t-124.5 -80.5t-173.5 -37l-29 -143h-82l30 143q-60 5 -124 24t-78 19zM489 55 q68 11 122.5 58.5t74.5 146.5q32 153 -107 236zM619 1096q-68 -12 -114 -62.5t-63 -136.5q-11 -51 19 -100t80 -82z" />
<glyph unicode="%" horiz-adv-x="1359" d="M463 801q-8 -36 -8 -66q0 -59 28 -59q64 0 132 97.5t87 191.5q7 35 7 53q0 61 -50 61q-53 0 -115.5 -93t-80.5 -185zM983 164q-6 -43 -6 -68q0 -59 29 -59q47 0 95.5 50.5t80 115.5t43.5 123q6 30 6 53q0 63 -49 63q-54 0 -116.5 -93t-82.5 -185zM797 193 q26 122 139.5 224.5t239.5 102.5q184 0 184 -141q0 -33 -4 -49q-11 -54 -44 -116.5t-81 -120t-115 -95t-137 -37.5q-93 0 -139.5 51.5t-46.5 128.5q0 20 4 52zM983 1059q69 0 151 26.5t152 88.5l139 -25l-1091 -1188l-137 37l909 985q-79 -16 -160 -16q-38 0 -108 16l-2 -16 q-8 -41 -30 -89t-57.5 -97.5t-78.5 -89.5t-99 -65.5t-114 -25.5q-93 0 -140 52t-47 128q0 25 6 49q24 124 137.5 227t239.5 103q54 0 99.5 -16t58.5 -35l-14 2q96 -51 186 -51z" />
<glyph unicode="&#x26;" horiz-adv-x="1492" d="M788 1059q0 -4 -1 -14t-1 -15q0 -42 29 -149q181 122 201 219q6 24 6 45q0 42 -22 67t-56 25q-37 0 -87.5 -46t-68.5 -132zM850 268q-124 223 -199 391q-124 -70 -182.5 -148.5t-81.5 -186.5q-8 -44 -8 -88q0 -90 43.5 -133.5t114.5 -43.5q53 0 104.5 26.5t94 65.5 t114.5 117zM915 147q-184 -172 -409 -172q-171 0 -271 64t-100 199q0 47 10 86q24 116 132.5 220.5t332.5 221.5q-53 138 -53 229q0 33 6 60q22 102 135 184t275 82q114 0 187 -51t73 -133q0 -13 -4 -37q-17 -76 -121 -167.5t-254 -170.5q4 -8 4 -14q44 -107 146 -306 q214 251 231 336q3 21 14 25h-57q-21 2 -32 6t-12.5 7t-0.5 7l4 29l23 20q134 -6 202 -6l207 6l16 -20l-6 -27q-8 -22 -67 -22h-56q-19 0 -48.5 -33.5t-101.5 -130.5q-4 -5 -6 -8t-5 -7l-6 -8q-130 -176 -234 -301q105 -215 141 -215q91 0 170 129l68 -34 q-57 -107 -131 -163.5t-146 -56.5q-36 0 -66.5 6t-66.5 22.5t-67.5 53t-55.5 90.5z" />
<glyph unicode="'" horiz-adv-x="475" d="M403 862l-30 8q12 328 12 340q9 40 53 75.5t105 35.5q80 0 80 -49q0 -7 -5 -27q-3 -14 -38.5 -106.5t-69.5 -178.5l-35 -86z" />
<glyph unicode="(" horiz-adv-x="690" d="M178 518q55 268 239.5 521t434.5 436l55 -70q-371 -343 -483 -887q-35 -172 -35 -328q0 -341 158 -561l-86 -65q-90 94 -153 198.5t-94 203t-43.5 180.5t-12.5 163q0 106 20 209z" />
<glyph unicode=")" horiz-adv-x="724" d="M752 514q-55 -268 -239.5 -520.5t-434.5 -435.5l-55 69q371 343 483 887q35 172 35 328q0 341 -158 561l86 65q90 -94 153 -198.5t94 -203t43.5 -180.5t12.5 -163q0 -106 -20 -209z" />
<glyph unicode="*" horiz-adv-x="935" d="M559 1098q4 2 14 8.5t17 11t19 14t24 21.5q-14 2 -41 2q-83 0 -126.5 15.5t-43.5 54.5v14q5 28 35 49t80 21q59 0 104 -49q2 -1 5.5 -5.5t4.5 -5.5q0 13 -2 28t-2 21q-6 35 -6 62q0 16 2 22q8 36 41 62t74 26q37 0 61.5 -16t24.5 -45q0 -3 -1 -9t-1 -9q-10 -37 -41 -105 q-5 -11 -8 -16t-4 -5t-2.5 -4t-4.5 -14l19 13q22 16 36 24t37.5 15.5t49.5 7.5q47 0 66.5 -17.5t19.5 -40.5v-10q-17 -82 -183 -82q-23 0 -63 -4q18 -26 47 -55q37 -32 55.5 -55t18.5 -50v-12q-7 -30 -39.5 -49t-69.5 -19q-29 0 -48.5 9t-30 30t-14.5 37t-9 47 q-23 -39 -39.5 -61.5t-47 -42t-67.5 -19.5q-36 0 -59 16.5t-23 41.5q0 1 1 4t1 4q5 22 25.5 45t38 35.5t55.5 38.5z" />
<glyph unicode="+" horiz-adv-x="1128" d="M764 535h350l-24 -119h-351l-71 -350h-174l69 350h-350l25 119h352l69 352h177z" />
<glyph unicode="," horiz-adv-x="499" d="M281 209q57 0 84.5 -40.5t27.5 -102.5q0 -78 -31 -140.5t-82 -101t-103.5 -61t-108.5 -31.5q-14 23 -2 67q81 19 128.5 70.5t47.5 95.5q0 29 -29 35q-31 6 -49.5 33.5t-18.5 68.5q0 46 37.5 76.5t98.5 30.5z" />
<glyph unicode="-" horiz-adv-x="765" d="M717 477h-459q-32 0 -48.5 11t-16.5 26v6q6 27 41.5 54.5t68.5 27.5h463q65 0 65 -35v-8q-5 -22 -43 -52t-71 -30z" />
<glyph unicode="." horiz-adv-x="499" d="M281 207q43 0 72 -31.5t29 -73.5q0 -41 -36 -81.5t-90 -40.5q-44 0 -73 27t-29 66q0 64 40.5 99t86.5 35z" />
<glyph unicode="/" horiz-adv-x="647" d="M901 1397l-776 -1440h-129l778 1440h127z" />
<glyph unicode="0" horiz-adv-x="962" d="M709 1159q-23 0 -47 -12t-56 -49.5t-61.5 -98t-62.5 -168.5t-60 -249q-29 -147 -29 -284q0 -230 99 -230q17 0 39 10.5t58.5 54.5t67.5 117q78 173 125 412q29 151 29 257q0 156 -49 209q-28 31 -53 31zM473 -20q-139 0 -218 121.5t-79 312.5q0 93 19 188 q28 147 86 270.5t130.5 205t154.5 126.5t161 45q72 0 138.5 -42t103.5 -103q56 -113 56 -273q0 -97 -21 -208q-27 -138 -75.5 -251t-104.5 -184t-120.5 -119.5t-121.5 -68.5t-109 -20z" />
<glyph unicode="1" horiz-adv-x="962" d="M436 166l139 715q12 59 12 79q0 18 -6 23.5t-18 5.5q-21 0 -90.5 -23.5t-138.5 -56.5l-23 68q93 42 255.5 133t187.5 104q62 35 90 35q20 0 20 -21q0 -4 -2 -14q-31 -128 -51 -237l-158 -811q-3 -17 -3 -31q0 -11 2 -19.5t7 -15t9 -11t14 -8t16 -5.5t20 -3.5t21.5 -2.5 t25.5 -2t26 -2q4 -4 4 -17q0 -14 -6 -30t-13 -23q-126 4 -262 4q-183 0 -309 -4q-4 4 -4 17q0 37 18 53q102 7 136 18q69 23 81 82z" />
<glyph unicode="2" horiz-adv-x="962" d="M283 952q10 48 44 99t86.5 96t129 73.5t159.5 28.5q49 0 93 -6.5t86.5 -23.5t73 -43.5t49 -69t18.5 -97.5q0 -40 -8 -77q-11 -56 -41.5 -110t-87 -114t-108.5 -107.5t-142 -123.5q-12 -10 -78.5 -64.5t-102 -86.5t-75.5 -80.5t-47 -83.5h319q56 0 90 35t80 139l82 -19 q-40 -97 -104 -317h-703q18 95 82 184t236 246l172 156q89 81 130 156.5t62 181.5q9 47 9 82q0 82 -36 121.5t-77 39.5q-72 0 -130 -40t-65 -80q-7 -42 -4 -54q3 -20 -2 -43q-8 -43 -41.5 -64.5t-69.5 -21.5q-35 0 -58 20.5t-23 51.5q0 4 2 16z" />
<glyph unicode="3" horiz-adv-x="962" d="M686 1167q-26 0 -54.5 -7t-61 -22.5t-57.5 -47.5t-34 -76q-8 -43 -34.5 -78t-79.5 -35q-41 0 -56.5 19.5t-15.5 42.5q0 2 0.5 5t0.5 4.5v3.5l1 1q5 24 21.5 55.5t52 70.5t83.5 70.5t123.5 53.5t163.5 22q69 0 119.5 -17t76.5 -45.5t38 -59t12 -65.5q0 -14 -4 -38 q-5 -23 -20.5 -54.5t-45 -73t-83 -83t-119.5 -68.5q89 -10 155.5 -78t66.5 -179q0 -35 -7 -70q-20 -105 -73.5 -189.5t-128 -139t-163 -83.5t-182.5 -29q-63 0 -125.5 15.5t-106.5 46t-44 68.5q0 8 1 12q5 28 40 52t77 24t59.5 -13.5t28.5 -40.5q11 -32 39.5 -56t73.5 -24 q18 0 43 8.5t59 31.5t65 58t59 95t42 135q10 55 10 88q0 168 -170 168q-14 0 -106 -20l4 82q86 20 152 53.5t104 74t58.5 78.5t27.5 78q6 29 6 53q0 58 -27 90.5t-65 32.5z" />
<glyph unicode="4" horiz-adv-x="962" d="M727 1010q-171 -190 -465 -561h356zM1004 449q25 0 25 -23q0 -6 -1 -10q-3 -20 -28 -45t-44 -25h-155l-35 -180q-4 -20 -4 -37q0 -25 14.5 -38.5t29.5 -16t59 -6.5q13 -1 20 -2q4 -4 4 -17q0 -14 -6 -30t-13 -23q-126 4 -266 4q-107 0 -233 -4q-4 4 -4 17q0 37 18 53 q89 6 117 18q49 21 61 82l35 180h-399q-60 0 -60 92q179 220 374 444.5t312 344.5q18 22 35 22h117l4 -4q-9 -23 -43 -198l-117 -598h183z" />
<glyph unicode="5" horiz-adv-x="962" d="M694 381q11 54 11 108q0 100 -39.5 158t-100.5 58t-121 -15t-159 -55l186 608q138 -12 242 -12q135 0 311 20l33 -20l-58 -141q-166 -13 -219 -13q-171 0 -256 10q-40 -135 -86 -282q78 16 199 16q145 0 222 -87t77 -220q0 -48 -8 -88q-36 -185 -185.5 -319t-334.5 -134 q-62 0 -130 19.5t-116 55t-48 74.5q0 7 1 11q6 35 36.5 60.5t73.5 25.5q74 0 97 -78q11 -34 40.5 -56t55.5 -22q82 0 165 88t111 230z" />
<glyph unicode="6" horiz-adv-x="962" d="M412 573q-9 -33 -17 -81q-21 -111 -21 -199q0 -127 41.5 -181.5t98.5 -54.5q61 0 117 73t86 226q9 47 9 96q0 39 -6.5 72t-21.5 63.5t-44.5 48t-69.5 17.5q-81 0 -172 -80zM1053 1186q-48 -3 -79.5 -7.5t-83 -19.5t-106 -47.5t-112.5 -83.5q-135 -119 -217 -332 q94 43 182 43q93 0 158.5 -27t97 -72t44.5 -90t13 -96q0 -39 -8 -81q-10 -49 -29.5 -98.5t-57.5 -104t-87.5 -95.5t-124 -68t-162.5 -27q-46 0 -88 8.5t-86.5 32t-77 61t-53 100.5t-20.5 145q0 75 18 171q59 311 313 542q117 104 251 153t321 60z" />
<glyph unicode="7" horiz-adv-x="962" d="M485 1217h609l4 -17q-60 -105 -170.5 -296t-158 -274t-120 -211.5t-124.5 -225.5t-103 -197l-191 -23l-4 27q61 97 212 332t268.5 421t187.5 306h-379q-27 0 -43.5 -4t-36.5 -18t-38 -45t-40 -83l-71 17q80 191 108 303h17q14 -12 73 -12z" />
<glyph unicode="8" horiz-adv-x="962" d="M713 1178q-73 0 -116 -47.5t-58 -124.5q-4 -22 -4 -36q0 -101 81 -165l50 -39q123 83 147 217q8 40 8 75q0 120 -108 120zM1016 1001q-5 -24 -16.5 -48t-25 -43t-36.5 -41t-39 -36t-45.5 -34.5t-43.5 -29.5t-45 -28t-38 -24l100 -82q53 -44 84 -109t31 -137q0 -29 -6 -59 q-12 -60 -52 -121.5t-100.5 -113.5t-145.5 -85t-177 -33q-143 0 -232 67t-89 187q0 34 7 68q6 33 17.5 61t34 56.5t38 46.5t53 47.5t54.5 42t68 47t69 47.5l-30 21q-135 105 -135 245q0 18 6 54q24 124 132.5 203t282.5 79q139 0 211.5 -52.5t72.5 -144.5q0 -23 -5 -51z M481 57q194 0 238 232q6 31 6 61q0 108 -109 191l-77 57q-153 -104 -191 -299q-8 -39 -8 -78q0 -84 40.5 -124t100.5 -40z" />
<glyph unicode="9" horiz-adv-x="962" d="M788 655q8 31 17 82q22 116 22 199q0 126 -42 180.5t-99 54.5q-61 0 -117 -73t-86 -226q-9 -47 -9 -95q0 -53 11 -95.5t44.5 -74.5t86.5 -32q81 0 172 80zM147 43q48 3 79.5 7.5t83 19.5t106 47.5t112.5 83.5q136 120 217 331q-94 -43 -182 -43q-93 0 -158.5 27t-97 72 t-44.5 90t-13 96q0 40 8 82q10 49 29.5 98.5t57.5 104t87.5 95.5t124 68t162.5 27q46 0 88 -8.5t86.5 -32t77 -61t53 -100.5t20.5 -145q0 -75 -18 -171q-59 -313 -313 -543q-117 -104 -251 -153t-321 -60z" />
<glyph unicode=":" horiz-adv-x="499" d="M307 307q43 0 72.5 -31t29.5 -73q0 -41 -36.5 -82t-90.5 -41q-44 0 -73 27t-29 66q0 64 40.5 99t86.5 35zM416 846q43 0 72 -31.5t29 -73.5q0 -41 -36 -82t-90 -41q-44 0 -73 27.5t-29 66.5q0 64 40.5 99t86.5 35z" />
<glyph unicode=";" horiz-adv-x="499" d="M307 209q57 0 85 -40.5t28 -102.5q0 -63 -21 -116.5t-54.5 -89.5t-78 -63.5t-86.5 -42.5t-86 -22q-14 23 -2 67q81 19 128.5 70.5t47.5 95.5q0 29 -28 35q-31 6 -49.5 33.5t-18.5 68.5q0 46 37.5 76.5t97.5 30.5zM412 846q43 0 72 -31.5t29 -73.5q0 -41 -36 -82t-90 -41 q-44 0 -73 27.5t-29 66.5q0 64 40.5 99t86.5 35z" />
<glyph unicode="&#x3c;" horiz-adv-x="1048" d="M414 492l602 -238l-27 -127l-813 319l19 91l944 319l-27 -127z" />
<glyph unicode="=" horiz-adv-x="1128" d="M1094 406l-25 -115h-891l25 115h891zM1145 662l-25 -117h-889l23 117h891z" />
<glyph unicode="&#x3e;" horiz-adv-x="1048" d="M836 487l-605 238l27 127l813 -322l-16 -90l-944 -317l24 127z" />
<glyph unicode="?" horiz-adv-x="880" d="M500 1169q-6 -30 4 -55q9 -19 2 -55t-47.5 -58t-89.5 -22q-37 0 -67 24t-30 66q0 17 2 25q10 50 44.5 89t101.5 87q116 80 297 80q152 0 236.5 -66t84.5 -180q0 -30 -6 -68q-9 -44 -33 -85.5t-49.5 -71t-70 -64.5t-71 -53t-75.5 -49q-31 -20 -51 -36t-46.5 -45t-45.5 -70 t-29 -93l-10 -47q-7 -37 -24.5 -53.5t-61.5 -16.5q-34 0 -46.5 8.5t-12.5 28.5q0 9 4 33l10 51q7 34 13 55t22 59.5t37 69.5t59 71.5t88 78.5q67 50 102.5 100t49.5 123q8 50 8 70q0 75 -31.5 125.5t-85.5 50.5q-67 0 -120.5 -32t-61.5 -75zM462 207q43 0 66 -31.5t14 -73.5 q-8 -41 -52.5 -81.5t-98.5 -40.5q-44 0 -67.5 27t-15.5 66q13 64 60.5 99t93.5 35z" />
<glyph unicode="@" horiz-adv-x="2134" d="M1366 834q-92 0 -177 -64t-141.5 -158t-90 -196.5t-33.5 -184.5q0 -137 112 -137q39 0 137 90.5t160 198.5q36 65 80.5 176.5t44.5 157.5q0 50 -26.5 83.5t-65.5 33.5zM676 229q0 89 40 187.5t110 185t157 157t189.5 111.5t199.5 41q52 0 100.5 -13t75.5 -36l135 37 l72 -25l-248 -616q-19 -46 -29.5 -79t-13.5 -51t0.5 -28t8.5 -13t14 -3q77 0 146.5 53.5t116 134t81.5 174.5t51 175.5t16 136.5q0 116 -34 212t-89 158.5t-128 106t-148.5 62t-152.5 18.5q-171 0 -333 -76t-285.5 -205.5t-199 -315.5t-75.5 -392q0 -97 16 -187.5t59 -184.5 t110 -162.5t178 -112.5t253 -44q254 0 526 189l43 -80q-101 -66 -177.5 -105t-195.5 -68.5t-257 -29.5q-184 0 -337 58t-255.5 159.5t-158.5 240.5t-56 300q0 139 39.5 276.5t111.5 259t178 226.5t232 180.5t281 118.5t319 43q176 0 321 -52t242 -142.5t150 -214.5t53 -267 q0 -66 -10.5 -132.5t-37 -140.5t-67 -139.5t-105 -126t-146 -103.5t-195.5 -69t-248 -26q-105 0 -105 73q3 35 7 41q-138 -110 -275 -110q-64 0 -113.5 15t-78.5 38t-47 55.5t-24.5 62.5t-6.5 64z" />
<glyph unicode="A" horiz-adv-x="1472" d="M647 590h316q-24 126 -84 422l-236 -398q-14 -24 4 -24zM1296 186q6 -27 11 -41.5t17.5 -32t35 -27.5t57.5 -15l29 -4q20 -2 20 -19l-8 -47l-4 -4q-76 4 -156 4l-376 -4l-4 4l6 47q3 18 14 19l23 4q44 8 68.5 26.5t17.5 53.5l-66 344h-387q-21 0 -39 -29l-190 -315 q-19 -31 3.5 -51.5t65.5 -28.5l23 -4q14 -1 14 -19l-6 -47l-4 -4q-180 4 -254 4l-176 -4l-4 4l4 47q1 17 20 19l29 4q65 9 104 42t69 82l656 1090q20 32 48 48t49 16q33 0 47.5 -15t21.5 -49z" />
<glyph unicode="B" horiz-adv-x="1214" d="M637 1151l-68 -381h111q68 0 121 20t85 50.5t53 71t28.5 78.5t7.5 76q0 41 -12 72.5t-30.5 50t-44 29.5t-49.5 15t-51 4q-62 0 -93.5 -10t-41.5 -26t-16 -50zM555 684l-90 -512q-4 -24 -4 -33q0 -29 25 -43t92 -14q87 0 156 27t110 67t67.5 91.5t36.5 96.5t10 86 q0 108 -67.5 171t-196.5 63h-139zM551 1321q48 0 123.5 1t116.5 1q419 0 419 -256q0 -56 -19.5 -107t-47.5 -86t-64 -65t-61.5 -45t-48.5 -25v-4q237 -68 237 -291q0 -68 -19 -130t-64.5 -120t-113 -100.5t-173 -68t-236.5 -25.5h-281q-201 -2 -301 -4q-8 10 -8 36.5 t10 35.5q52 2 76.5 5t52.5 12.5t41.5 29t26 51.5t21.5 84l143 821q10 53 10 90q0 59 -28 73.5t-119 18.5q-8 10 -9 36t9 36q204 -4 307 -4z" />
<glyph unicode="C" horiz-adv-x="1304" d="M725 -20q-141 0 -250 43t-174.5 118t-99 169t-33.5 202q0 67 12 133q26 148 102 279.5t182 224t237.5 146t265.5 53.5q89 0 160.5 -14t107.5 -31.5t74.5 -31.5t70.5 -14q-18 -179 -18 -346l-78 -16q-9 66 -20.5 114t-35.5 99t-58 83t-89.5 52.5t-128.5 20.5 q-74 0 -150.5 -34.5t-148 -102t-128.5 -182.5t-83 -261q-15 -84 -15 -170q0 -91 18 -169t54.5 -140.5t98 -98.5t141.5 -36q123 0 243.5 57t252.5 186l51 -49q-256 -284 -561 -284z" />
<glyph unicode="D" horiz-adv-x="1409" d="M461 154q-3 -13 -3 -25q0 -29 31 -38t129 -9q80 0 149 13t137.5 47.5t121 89.5t94 144t62.5 206q15 86 15 173q0 100 -22.5 184t-70 153.5t-132 109t-198.5 39.5q-62 0 -94.5 -13.5t-40.5 -58.5zM47 0l-4 4l8 45q3 19 19 19h28q59 0 87.5 20.5t35.5 69.5l178 1007 q3 15 3 28q0 33 -22.5 47.5t-72.5 14.5h-28q-5 0 -9.5 5t-3.5 12l8 47l7 4h581q264 0 431 -163.5t167 -409.5q0 -60 -10 -117q-26 -145 -88.5 -258.5t-142 -182.5t-178.5 -113.5t-190.5 -61.5t-186.5 -17h-617z" />
<glyph unicode="E" horiz-adv-x="1101" d="M51 0l-4 4l8 45q3 19 19 19h26q60 0 88 20t37 70l178 1007q0 1 1.5 11t1.5 15q0 34 -22 49t-73 15h-28q-6 0 -10 5t-3 12l9 47l6 4h917q-18 -153 -18 -332l-82 -18q-4 48 -11 85t-23.5 80t-49 67t-78.5 24h-256q-28 0 -39 -60l-74 -421h222q12 0 22 4.5t19 16t15 20.5 t14.5 30.5t12.5 33.5t13 40q0 7 10.5 14.5t24.5 7.5h41l8 -20q-35 -117 -47 -190q-16 -96 -21 -191l-14 -18h-41q-14 0 -22.5 6.5t-6.5 13.5q2 42 2 58q0 44 -9.5 66t-35.5 22h-221l-90 -508q-4 -28 -4 -33q0 -27 20 -27h301q78 0 145.5 75.5t114.5 197.5l82 -21 q-66 -184 -114 -346h-961z" />
<glyph unicode="F" horiz-adv-x="1007" d="M465 158q-2 -16 -2 -24q0 -66 94 -66h29q15 0 12 -19l-8 -47l-6 -4q-195 4 -267 4l-268 -4l-2 4l8 47q3 19 19 19h26q60 0 88 20t37 70l178 1007q0 1 1.5 11t1.5 15q0 34 -22 49t-73 15h-28q-6 0 -10 5t-3 12l9 47l6 4h915q-18 -153 -18 -332l-82 -18q-4 48 -11 85 t-23.5 80t-49 67t-78.5 24h-256q-28 0 -39 -60l-74 -421h222q12 0 22 4.5t19 16t15 20.5t14.5 30.5t12.5 33.5t13 40q0 7 10.5 14.5t24.5 7.5h41l8 -20q-35 -117 -47 -190q-16 -96 -21 -191l-14 -18h-41q-14 0 -22.5 6.5t-6.5 13.5q2 42 2 58q0 44 -9.5 66t-35.5 22h-221z " />
<glyph unicode="G" horiz-adv-x="1425" d="M1358 469l-41 -236q-7 -37 12 -59q-128 -97 -263 -145.5t-312 -48.5q-137 0 -250 41t-188.5 113t-117 170.5t-41.5 211.5q0 54 11 115q28 164 111.5 301.5t197.5 227t247 139t265 49.5q90 0 162.5 -14t108.5 -31.5t74.5 -31.5t70.5 -14q-19 -141 -19 -346l-79 -16 q-7 63 -18.5 113t-36 99.5t-59.5 82.5t-91 53.5t-129 20.5q-89 0 -177 -44t-161 -121t-128 -189t-77 -240q-13 -72 -13 -147q0 -128 40.5 -228t130 -162.5t217.5 -62.5q69 0 140.5 20.5t125.5 61.5l57 317q2 10 2 14q0 38 -35.5 56t-93.5 18h-26q-17 0 -14 18l10 48l4 4 q190 -4 266 -4l256 4l4 -4l-8 -48q-3 -18 -20 -18h-11q-57 0 -76 -20t-28 -68z" />
<glyph unicode="H" horiz-adv-x="1527" d="M1288 1165q2 8 2 27q0 34 -23 48.5t-75 14.5h-29q-17 0 -14 17l8 49l4 2q201 -2 281 -2l278 2l4 -2l-8 -49q-3 -17 -18 -17h-31q-61 0 -90 -22.5t-37 -67.5l-176 -1007q-4 -16 -4 -25q0 -33 22.5 -49t75.5 -16h31q15 0 12 -19l-8 -47l-4 -4q-209 4 -281 4l-278 -4l-4 4 l8 47q3 19 20 19h29q62 0 91 20.5t36 69.5l88 499h-571l-88 -499q-4 -16 -4 -25q0 -33 23 -49t77 -16h29q15 0 12 -19l-8 -47l-4 -4q-207 4 -281 4l-279 -4l-4 4l9 47q3 19 20 19h29q62 0 91 20.5t38 69.5l176 1007q4 16 4 27q0 34 -23.5 48.5t-76.5 14.5h-29q-14 0 -14 17 l10 49l4 2q198 -2 278 -2l281 2l2 -2l-8 -49q-3 -17 -19 -17h-28q-61 0 -91 -22.5t-38 -67.5l-72 -413h574z" />
<glyph unicode="I" horiz-adv-x="702" d="M555 250q-11 -60 -11 -92q0 -57 29 -71.5t121 -18.5q8 -10 8 -36.5t-10 -35.5q-204 4 -307 4q-101 0 -301 -4q-8 10 -8 36.5t10 35.5q43 2 65 4t48.5 8.5t38.5 17t26.5 31t22.5 49.5t16 72l143 821q11 58 11 90q0 59 -28.5 73.5t-119.5 18.5q-8 10 -9 36t9 36 q204 -4 307 -4q102 0 302 4q8 -9 6.5 -36t-11.5 -36q-43 -2 -65 -4t-48 -8.5t-38 -17t-26 -31t-22 -49.5t-16 -72z" />
<glyph unicode="J" horiz-adv-x="925" d="M969 1188q-13 -70 -34.5 -241.5t-21.5 -209.5q0 -29 19 -37.5t76 -13.5l-9 -57l-106 -13q-7 -48 -59 -350q-17 -105 -49 -193t-69.5 -148.5t-83 -108t-89 -75.5t-88.5 -46t-79 -24.5t-63 -6.5q-91 0 -155 31t-64 82q0 31 26 60.5t68 29.5q40 0 67.5 -18t38 -39.5 t22.5 -39.5t24 -18q61 0 112 64.5t87.5 182.5t61.5 271t40 344q-244 19 -248 19v49l260 16q37 249 131 453q-58 0 -114 25q-19 8 -72.5 33t-90.5 38t-63 13q-13 0 -21.5 -16t-8.5 -34q0 -16 8 -20q37 -37 37 -72q0 -37 -26 -58.5t-77 -21.5q-108 0 -108 101q0 34 17.5 70 t52.5 70.5t98.5 56.5t144.5 22q100 0 264 -76q44 109 144 109q53 0 84.5 -18t31.5 -54q0 -50 -116 -131z" />
<glyph unicode="K" horiz-adv-x="1419" d="M1184 1176q14 10 21.5 27.5t1 32.5t-30.5 17l-43 4q-15 3 -15 21l6 45l4 4q236 -4 310 -4l176 4l4 -4l-4 -45q0 -16 -21 -21l-28 -4q-152 -19 -276 -123l-425 -356q-33 -28 -36 -47t20 -49l391 -518q54 -73 111 -90l14 -4q39 -11 39 -21l-6 -45l-8 -4q-176 4 -256 4 l-121 -4l-4 4v43q0 11 -5 25t-15.5 32t-19 31t-24 35.5t-22.5 32.5l-244 366q-26 37 -62 37l-77 -444q-7 -42 23 -62t77 -26l29 -4q14 -3 14 -19l-6 -47l-4 -4q-207 4 -281 4l-278 -4l-4 4l4 47q2 15 20 19l29 4q63 8 90 25t35 63l178 1009q8 49 -11.5 63.5t-82.5 22.5 l-29 4q-14 3 -14 17l6 49l4 2q198 -2 278 -2l281 2l4 -2l-4 -49q-3 -14 -20 -17l-29 -4q-64 -9 -94 -27.5t-37 -58.5l-74 -413q29 0 70 34z" />
<glyph unicode="L" horiz-adv-x="1177" d="M483 1165q2 8 2 27q0 34 -22.5 48.5t-75.5 14.5h-29q-14 0 -14 17l8 49l4 2q199 -2 281 -2l278 2l5 -2l-9 -49q-3 -17 -18 -17h-31q-61 0 -90 -22.5t-37 -67.5l-172 -977q-4 -24 -4 -34q0 -60 39 -60h225q75 0 144.5 73.5t115.5 190.5l95 -16l-103 -342h-514l-158 2 l-286 -4l-17 18l4 31q6 25 66 25h61q37 0 52 16.5t22 65.5z" />
<glyph unicode="M" horiz-adv-x="1714" d="M1319 182l65 731l-524 -899q-23 -39 -67 -39q-15 0 -32.5 10.5t-21.5 28.5q-131 532 -217 881q-53 -224 -178 -715q-1 -4 -2 -11.5t-2 -10.5q-6 -35 -6 -54q0 -32 16 -32h53q24 0 43.5 -7t16.5 -18l-4 -29l-17 -20q-143 4 -221 4l-178 -4l-12 18l4 31q6 25 69 25h54 q28 0 59 110q40 159 124 495t124 494q0 1 1 4t1 5l2 10q2 10 2 27q0 34 -25 34h-61q-57 3 -57 23l6 29l24 22h328l242 -981q91 160 571 981h305l6 -20l-4 -31q-7 -23 -69 -23h-56q-36 0 -45 -59l-4 -21l-86 -987q-4 -32 -4 -51q0 -61 29 -61h51q35 0 51 -6.5t13 -18.5 l-5 -31l-24 -18q-162 4 -242 4l-248 -4l-16 18l4 31q6 25 70 25h53q22 0 39 86q0 4 1 12t1 12z" />
<glyph unicode="N" horiz-adv-x="1519" d="M457 1120q-43 115 -154 131l-29 4q-19 2 -20 19l-4 47l4 4q315 -2 395 -2l615 -973h4l145 815q8 49 -12 63t-82 23l-29 4q-14 2 -14 17l6 49l4 2q131 -2 211 -2l244 2l4 -2l-4 -49q-3 -15 -21 -17l-28 -4q-64 -10 -94 -28t-37 -58l-195 -1114q-6 -35 -32.5 -55.5 t-69.5 -20.5q-71 0 -105 56l-538 876q-20 34 -33 34q-16 0 -23 -44l-131 -739q-7 -42 23 -61.5t78 -26.5l28 -4q15 -2 15 -19l-7 -47l-4 -4q-176 4 -250 4l-204 -4l-4 4l4 47q1 17 20 19l29 4q64 9 90.5 25.5t34.5 62.5z" />
<glyph unicode="O" horiz-adv-x="1503" d="M969 1264q-86 0 -165 -46t-137.5 -123t-102.5 -175t-66.5 -206t-22.5 -212q0 -208 96 -325.5t252 -117.5q105 0 198 69t155 179t97.5 245.5t35.5 270.5q0 211 -94.5 326t-245.5 115zM768 -25q-253 0 -411 143.5t-158 387.5q0 99 27.5 201t76.5 195t123 174.5t161.5 142 t197 95t225.5 34.5q161 0 291 -66t206 -191.5t76 -289.5q0 -153 -58 -300.5t-161 -264.5t-259 -189t-337 -72z" />
<glyph unicode="P" horiz-adv-x="1069" d="M653 1237l-102 -578q43 -6 96 -6q256 0 309 303q9 63 9.5 109t-12.5 79.5t-29.5 55t-43 33.5t-52 17t-56.5 5q-45 0 -119 -18zM221 158l178 1013q18 95 -49 95h-63q-10 0 -15.5 5t-3.5 11l6 39l11 2q53 0 243.5 8t274.5 8q82 0 148 -13t109 -34.5t76 -50.5t48 -61.5 t25 -66t7.5 -64.5t-4.5 -58q-10 -56 -33.5 -111t-69 -112t-107.5 -99.5t-155 -70t-204 -27.5q-59 0 -106 7l-76 -420q-6 -44 14.5 -67t77.5 -23h29q15 0 12 -19l-8 -47l-4 -4q-199 4 -271 4l-266 -4l-2 4l8 47q3 19 19 19h28q59 0 87.5 20.5t35.5 69.5z" />
<glyph unicode="Q" horiz-adv-x="1503" d="M969 1264q-86 0 -165 -46t-137.5 -123t-102.5 -175t-66.5 -206t-22.5 -212q0 -208 96 -325.5t252 -117.5q105 0 198 69t155 179t97.5 245.5t35.5 270.5q0 211 -94.5 326t-245.5 115zM274 -266q161 157 361 253q-199 36 -317.5 173t-118.5 346q0 99 27.5 201t76.5 195 t123 174.5t161.5 142t197 95t225.5 34.5q161 0 291 -66t206 -191.5t76 -289.5q0 -119 -35 -236.5t-103.5 -221.5t-162 -184.5t-219 -129t-266.5 -53.5q-110 -40 -232 -120q7 1 21 1q75 0 153.5 -26.5t133.5 -57.5t124 -57.5t129 -26.5q50 0 102.5 18.5t90.5 56.5l27 -45 q-76 -87 -153 -127.5t-173 -40.5q-74 0 -140 20t-115.5 48.5t-95 57.5t-97 49t-103.5 20q-34 0 -80 -28q-47 -44 -90 -93l-70 62q17 22 45 47z" />
<glyph unicode="R" horiz-adv-x="1196" d="M979 958q25 145 -23 221t-141 76q-86 0 -164 -16l-102 -580h98q143 0 223.5 72.5t108.5 226.5zM1219 987q-26 -148 -96.5 -235t-194.5 -150l131 -401q40 -134 162 -119l-4 -72q-75 -22 -166 -22q-83 0 -140.5 48t-85.5 126l-116 344q-13 36 -53 47.5t-124 11.5l-71 -407 q-8 -48 13 -69t79 -21h29q15 0 12 -19l-8 -47l-4 -4q-146 4 -224 4l-313 -4l-2 4l8 47q3 19 19 19h28q58 0 86.5 22.5t36.5 67.5l174 987q10 43 1.5 67.5t-44.5 24.5h-12l-61 -4q-17 0 -13 14l13 68q34 8 205 16t335 8q92 0 169 -20.5t136 -61.5t85 -110.5t10 -159.5z" />
<glyph unicode="S" horiz-adv-x="929" d="M977 1292q-12 -131 -12 -311l-82 -10q-3 46 -9.5 83.5t-22 79t-38 69.5t-60 46.5t-85.5 18.5q-91 0 -144 -57.5t-69 -151.5q-8 -46 9 -91.5t49.5 -79t66 -57t65.5 -36.5q32 -12 59 -25t57.5 -31t54 -37.5t47.5 -45.5t38 -54t26 -63.5t11.5 -75t-6.5 -86.5 q-34 -196 -160.5 -296.5t-302.5 -100.5q-84 0 -142 7.5t-87 15t-45 7.5q-20 0 -48 -5t-45 -5q14 104 27 358l80 7q4 -138 69 -220t164 -82q222 0 267 234q15 92 -17.5 164t-113.5 108q-48 21 -89.5 43t-92.5 61.5t-84 83t-50.5 105.5t-5.5 131q12 71 44.5 131t76 100.5 t96.5 69t106 41.5t105 13q81 0 129.5 -10t87.5 -25t76 -21z" />
<glyph unicode="T" horiz-adv-x="1171" d="M403 1323h832q8 0 14.5 1.5t11.5 4t9 6.5t6 7t4.5 8t3.5 7.5t2.5 7t1.5 5.5l72 8q-15 -150 -12 -315l-82 -10q-3 43 -6.5 70t-11 47.5t-16 31t-26 16.5t-34.5 7.5t-48 1.5h-106q-54 0 -78 -18t-31 -68l-174 -983q-8 -48 13 -69t79 -21h52q15 0 12 -19l-8 -47l-4 -4 q-234 4 -312 4l-270 -4l-4 4l8 47q3 19 18 19h52q59 0 88 22.5t37 67.5l174 989q7 46 -10.5 63t-71.5 17h-105q-31 0 -48.5 -1.5t-37.5 -7.5t-32 -16.5t-27 -31t-28 -48t-31 -69.5l-76 10q57 153 98 315l70 -8q-8 -47 32 -47z" />
<glyph unicode="U" horiz-adv-x="1398" d="M1307 1165q4 16 4 27q0 33 -24 48t-77 15h-28q-15 0 -15 17l11 49l4 2q153 -2 233 -2l234 2l4 -2l-8 -49q-3 -17 -21 -17h-29q-61 0 -90 -22.5t-37 -67.5l-100 -565q-20 -117 -48 -206t-78 -171t-118.5 -134t-171 -83t-235.5 -31q-59 0 -114.5 9t-115.5 35.5t-104 67.5 t-73 111t-29 160q0 56 12 123l119 684q4 16 4 27q0 33 -24 48t-77 15h-28q-15 0 -15 17l11 49l4 2q198 -2 278 -2l281 2l4 -2l-10 -49q-3 -17 -19 -17h-28q-61 0 -91 -22.5t-38 -67.5l-109 -616q-23 -152 -23 -199q0 -63 18.5 -113.5t46.5 -79.5t62.5 -49t63.5 -27t53 -7 q87 0 156 31t113 77t77 115.5t50 130.5t30 137z" />
<glyph unicode="V" horiz-adv-x="1249" d="M1061 1255q-15 0 -12 17l8 49l4 2q170 -2 248 -2l174 2l2 -2l-8 -49q-3 -17 -19 -17q-56 0 -86 -11.5t-48.5 -35t-51.5 -84.5l-590 -1101q-11 -21 -35 -34.5t-41 -13.5t-34.5 13.5t-20.5 34.5l-178 1112q-12 73 -37 96.5t-98 23.5q-15 0 -15 17l10 49l5 2q190 -2 266 -2 l284 2l3 -2l-9 -49q-3 -17 -18 -17q-85 0 -120 -14.5t-35 -51.5q0 -12 1 -18l117 -729l10 -63l33 57l383 715q25 45 25 67t-26 29.5t-91 7.5z" />
<glyph unicode="W" horiz-adv-x="1959" d="M608 -25q-45 0 -66.5 24t-29.5 73l-152 1079q-7 44 -29.5 74t-60.5 30h-24q-23 0 -23 17l10 47l5 4q143 -2 217 -2l278 2l4 -4l-8 -45q-3 -19 -20 -19q-63 0 -86 -15.5t-15 -68.5l103 -725l18 -147l70 143l227 463q22 45 29 78q4 37 0 57l-19 131q-5 43 -31 63.5 t-81 20.5h-6q-11 0 -16.5 5t-4.5 12l8 47l4 4q111 -2 189 -2l336 2l2 -4l-9 -49q-3 -15 -18 -15q-34 0 -53 -2.5t-40 -13t-27.5 -36.5t-0.5 -68l98 -711l17 -139l78 155l360 725q21 36 12 56t-34.5 27t-75.5 7q-6 0 -10 5t-2 10l8 49l6 4q160 -2 242 -2l165 2l5 -2l-11 -49 q-2 -17 -26 -17h-21q-57 0 -84.5 -21.5t-60.5 -86.5l-522 -1057q-31 -62 -62 -88.5t-72 -26.5q-57 0 -79 25t-29 80l-96 672q-3 26 -7 26t-12 -20l-340 -690q-21 -44 -55.5 -68.5t-71.5 -24.5z" />
<glyph unicode="X" horiz-adv-x="1390" d="M270 1270l11 51l10 2q29 0 109.5 -1t86.5 -1q3 0 70 0.5t144 1t104 0.5q6 -2 8 -2l-10 -51q0 -15 -12 -15q-74 0 -91.5 -18.5t5.5 -65.5l151 -323q15 -27 23.5 -27.5t31.5 23.5q216 225 291 327q56 84 -59 84q-13 0 -10 15l8 51l4 2q24 0 126 -1t109 -1q2 0 87.5 1 t107.5 1l2 -2l-8 -51q-4 -13 -14 -14q-3 -1 -7 -1q-69 0 -123.5 -32t-113.5 -93l-344 -346q-32 -32 -31.5 -53.5t37.5 -91.5l225 -430q72 -141 184 -141q15 0 11 -17l-9 -49l-2 -4q-110 4 -208 4l-328 -4l-4 4l8 51q4 15 14 15q87 0 98.5 14t-18.5 68l-178 354 q-21 47 -32.5 50.5t-37.5 -26.5q-172 -190 -309 -370q-22 -30 -25 -50t12 -27.5t29.5 -10t36.5 -2.5q13 0 9 -17l-9 -49l-6 -4q-229 4 -258 4l-166 -4v4l8 51q3 15 25 15q42 0 76 9.5t67.5 34.5t51.5 42.5t57 58.5l354 383q31 31 33 48.5t-20 60.5l-209 419 q-26 53 -60.5 84.5t-57 39t-44.5 7.5q-11 0 -16.5 4t-4.5 11z" />
<glyph unicode="Y" horiz-adv-x="1212" d="M526 147l74 428l-209 558q-33 82 -56.5 102t-68.5 20h-22q-10 0 -16 4t-5 11l10 51l5 2q222 -2 249 -2l224 2l4 -2l-8 -49q-4 -17 -17 -17q-41 0 -61.5 -2t-33 -10t-11.5 -22.5t12 -40.5l184 -496l340 496q22 31 2 53t-73 22q-14 0 -9 15l9 51l4 2q155 -2 178 -2l211 2 l4 -2l-8 -49q-3 -17 -23 -17h-41q-46 0 -74 -15.5t-61 -63.5l-393 -576l-80 -453q-9 -46 12.5 -62.5t81.5 -16.5h51q7 0 11.5 -5.5t3.5 -13.5l-8 -47l-7 -4q-212 4 -288 4l-295 -4v4l8 47q3 19 16 19h54q59 0 85.5 18t34.5 61z" />
<glyph unicode="Z" horiz-adv-x="1224" d="M1124 0h-1048q-20 0 -27.5 7.5t-5.5 23.5q8 27 25 47l960 1108q28 35 20 43q-6 4 -16 4h-422q-43 0 -78 -12.5t-59.5 -30t-49.5 -52t-40.5 -63.5t-40.5 -80l-76 11q64 173 105 342q29 -2 66 -13.5t89 -11.5h701q84 8 125 8q28 0 35.5 -4.5t5.5 -15.5q-5 -30 -66 -101 l-921 -1063q-18 -22 -23.5 -33t4 -17.5t39.5 -6.5h438q54 0 98.5 18.5t79 56t60.5 80t53 103.5l80 -10q-81 -208 -111 -338z" />
<glyph unicode="[" horiz-adv-x="768" d="M991 1411l-20 -104h-297l-328 -1608h297l-20 -105h-525l369 1817h524z" />
<glyph unicode="\" horiz-adv-x="651" d="M469 1430l158 -1528h-154l-160 1528h156z" />
<glyph unicode="]" horiz-adv-x="768" d="M-18 -410l20 105h297l328 1608h-297l20 104h524l-368 -1817h-524z" />
<glyph unicode="^" horiz-adv-x="1110" d="M780 1108l-250 -406h-165l391 629h143l133 -629h-166z" />
<glyph unicode="_" horiz-adv-x="1046" d="M1010 -209l-23 -104h-1055l23 104h1055z" />
<glyph unicode="`" horiz-adv-x="802" d="M662 1415l94 -244q8 -24 8 -34l-1 -7q-1 -7 -1 -12q-3 -10 -27 -19t-51 -9q-28 0 -45.5 9.5t-40.5 33.5l-199 229l4 12q1 0 5 2.5t11.5 7t18.5 9.5h-4q59 33 109 40q22 3 45 3q40 0 74 -21z" />
<glyph unicode="a" horiz-adv-x="1105" d="M764 399q27 73 45 160t18 119q0 62 -26.5 106.5t-69.5 44.5q-78 0 -154.5 -86t-121.5 -207t-45 -227q0 -48 3.5 -83.5t13.5 -70.5t31.5 -54t53.5 -19q44 0 123.5 97t128.5 220zM696 80q0 27 2 39l-4 2q-93 -88 -141 -114.5t-111 -26.5q-76 0 -133.5 28.5t-88.5 74 t-45.5 93t-14.5 94.5q0 116 55.5 235t138.5 206t183.5 142.5t187.5 55.5q137 0 172 -106q68 48 117 106l112 6q4 0 4 -6q-45 -172 -64 -252l-97 -401q-15 -65 -15 -86q0 -33 19 -33q30 0 117 78l51 -47q-112 -110 -176 -149t-142 -39q-69 0 -98 31.5t-29 68.5z" />
<glyph unicode="b" horiz-adv-x="1058" d="M860 586q0 92 -32.5 155.5t-90.5 63.5q-88 0 -190 -72l-146 -631q34 -51 97 -51q84 0 156 57.5t115 142.5t67 174t24 161zM655 1194l-80 -340q105 55 226 55q74 0 133.5 -25.5t97.5 -68.5t58 -96.5t20 -112.5q0 -60 -22 -132.5t-65 -152.5t-121 -157.5t-177 -132.5 q-91 -51 -229 -51q-64 0 -112 21t-97 71q-53 -77 -90 -107l-66 29q20 58 43 158l229 989q15 67 15 102q0 32 -10.5 44.5t-32.5 12.5l-64 5q-10 0 -10 10l8 61q77 6 206.5 23t166.5 31q25 0 25 -21q-21 -83 -52 -215z" />
<glyph unicode="c" horiz-adv-x="909" d="M487 -20q-73 0 -139 33t-108.5 83.5t-67.5 107.5t-25 107q0 123 49 236t126.5 191t174.5 124.5t193 46.5q81 0 141 -19.5t93.5 -52t49 -69.5t15.5 -78q0 -35 -26.5 -59.5t-53.5 -33.5t-47 -9q-110 0 -110 74q0 17 4 40t4 56q0 38 -22 54.5t-42 16.5q-51 0 -103 -33 t-95 -92t-70 -151t-27 -199q0 -67 11 -117.5t26.5 -78.5t37 -45.5t39.5 -23t36 -5.5q40 0 117.5 44.5t134.5 109.5l82 -70q-88 -90 -179 -139t-219 -49z" />
<glyph unicode="d" horiz-adv-x="1138" d="M823 680q0 63 -28 106t-72 43q-89 0 -166 -78.5t-119.5 -196.5t-42.5 -239q0 -50 3.5 -84t14 -72.5t35.5 -58.5t64 -20q38 0 116.5 91t123.5 198q27 73 49 177t22 134zM1182 1194l-219 -938q-15 -65 -15 -86q0 -33 19 -33q34 0 104 86l64 -55q-97 -98 -175 -143t-157 -45 q-113 0 -113 100q0 23 4 43l-4 2q-129 -145 -250 -145q-78 0 -136 24.5t-88 58t-47.5 81t-21.5 81t-4 70.5q0 101 38.5 198t100.5 170.5t138 130t153.5 86t143.5 29.5q86 0 153 -39l60 271q14 63 14 102q0 32 -10.5 44.5t-32.5 12.5l-63 5q-11 0 -11 10l9 61q77 5 206 22.5 t166 31.5q25 0 25 -21q-20 -83 -51 -215z" />
<glyph unicode="e" horiz-adv-x="970" d="M745 748q0 71 -79 71q-68 0 -127 -80t-109 -280q315 52 315 289zM973 756q0 -22 -2.5 -41t-14.5 -52.5t-33 -62t-62.5 -63t-98 -62t-144.5 -53t-198 -41.5q-6 -67 7.5 -118t38.5 -77t50.5 -38.5t50.5 -12.5q169 0 310 150q22 0 39 -18t14 -42q-87 -120 -207.5 -182.5 t-261.5 -62.5q-86 0 -146.5 30t-92.5 83t-46 113t-14 132q0 71 23 148t71 152.5t113.5 136t160.5 97.5t203 37q240 0 240 -153z" />
<glyph unicode="f" horiz-adv-x="757" d="M362 793h-98q-53 0 -53 14q6 27 8 37q4 16 28.5 30.5t69.5 14.5h64q23 105 56.5 190t68 140t76 96t76.5 62.5t74 34t63.5 15.5t50.5 3q241 0 241 -156q0 -82 -96 -82q-44 0 -84 32.5t-43 73.5q-3 58 -35 58q-54 0 -98.5 -84.5t-87.5 -267.5q-17 -72 -27 -115h179 q57 0 57 -19l-10 -45q-4 -16 -35 -24t-64 -8h-149q-4 -14 -41 -191t-72.5 -327.5t-101.5 -336.5t-135 -288q-44 -63 -107.5 -100t-136.5 -37q-96 0 -143 36t-47 72q0 28 22 51t68 23q43 0 72.5 -13.5t40.5 -29.5t21 -29.5t19 -13.5q39 0 71 42.5t55 124t39 172t30 212.5 q28 223 67 413z" />
<glyph unicode="g" horiz-adv-x="976" d="M330 -47q-3 -2 -23 -16t-27 -20t-24.5 -20.5t-25.5 -26t-18.5 -28t-14.5 -35t-4 -38.5q0 -88 66.5 -128t232.5 -40q126 0 177.5 37t51.5 102q0 53 -27.5 80.5t-115.5 68.5q-24 11 -64.5 22.5t-69.5 18t-71 15t-43 8.5zM891 596q0 -91 -54 -167.5t-134.5 -117.5 t-163.5 -41q-127 0 -172 27q-41 -77 66 -130q54 -27 209 -70l24 -7q121 -34 185 -113t64 -182q0 -98 -70 -163t-180 -92t-257 -27q-54 0 -105 5.5t-105 20t-93.5 37t-65 60t-25.5 85.5q0 43 25.5 84.5t75 79t85 59.5t91.5 52q-59 20 -87 53.5t-28 65.5q0 95 139 215 q-102 53 -102 250q0 125 106 222t254 97q74 0 142 -20t100 -58q54 49 95 70t84 21q46 0 71.5 -25t25.5 -58q0 -31 -24 -51.5t-55 -20.5q-6 0 -12 1t-10 2.5t-8.5 5t-7 5.5t-6 6.5t-4.5 6t-4.5 7t-3.5 6.5q-12 20 -30 20q-30 0 -76 -43q20 -27 30.5 -79t10.5 -99zM657 596v9 q0 43 -0.5 63t-2.5 50.5t-7.5 43.5t-15 28.5t-24.5 21t-36 5.5q-56 0 -90.5 -69t-34.5 -170v-38.5t1 -38t3.5 -39t7 -34t11.5 -31.5t16.5 -23t23.5 -17t32 -5q49 0 82.5 73.5t33.5 170.5z" />
<glyph unicode="h" horiz-adv-x="1228" d="M196 147l230 1006q24 102 7 128t-113 26q-9 28 10 69q275 45 376 54q14 0 22 -7t5 -20q-22 -75 -53 -209l-128 -555q132 151 233 205.5t247 54.5q45 0 69.5 -28.5t28 -78t-2.5 -101t-21 -111.5l-74 -306q-19 -74 -19 -105q0 -34 21 -34q16 0 54.5 20.5t74.5 49.5 q21 0 35.5 -15t18.5 -38q-109 -90 -191.5 -131t-173.5 -41q-92 0 -92 115q0 56 24 161l72 307q2 9 6 26q5 23 8 34.5t7 31.5t4.5 30.5t0.5 25.5t-3.5 23t-9 16.5t-15.5 12t-23 3.5q-37 0 -109 -62t-142 -167q-78 -116 -138 -372l-4 -18q-2 -9 -7 -36t-8 -39.5t-13 -33.5 t-24 -31t-39.5 -18.5t-59.5 -8.5q-73 0 -95 13t-22 42q0 9 4.5 27t11.5 44t10 41z" />
<glyph unicode="i" horiz-adv-x="667" d="M426 1169q0 51 35 87t86 36t87 -36t36 -87t-36 -86.5t-87 -35.5t-86 35.5t-35 86.5zM590 656l-92 -382q-20 -89 -20 -105q0 -34 22 -34q16 0 54.5 20.5t74.5 49.5q21 0 35 -15t18 -38q-109 -90 -191.5 -131t-173.5 -41q-92 0 -92 115q0 59 25 161l92 391q18 73 18 105 q0 38 -36 41l-82 6q-9 13 -8.5 34t10.5 33q216 27 346 27q42 0 42 -43q0 -12 -4.5 -35t-9.5 -43.5t-14 -57.5t-14 -58z" />
<glyph unicode="j" horiz-adv-x="714" d="M377 647q18 86 18 105q0 16 -9.5 28t-27.5 13l-82 6q-9 13 -8 34t11 33q216 27 346 27q42 0 42 -43q0 -12 -4.5 -35t-9.5 -43.5t-14 -57.5t-14 -58l-41 -175q-23 -99 -38.5 -161t-39.5 -149.5t-42.5 -142.5t-45.5 -124.5t-52.5 -112.5t-59 -88t-69 -70t-78.5 -41t-91 -16 q-91 0 -162 30.5t-71 80.5q0 46 24.5 64t56.5 18q40 0 67 -18t38.5 -39.5t28.5 -39.5t38 -18q34 0 82 82t72 194q14 67 35 213t38 224zM461 1169q0 51 35 87t86 36t87 -36t36 -87t-36 -86.5t-87 -35.5t-86 35.5t-35 86.5z" />
<glyph unicode="k" horiz-adv-x="1167" d="M196 147l230 1006q24 102 7 128t-113 26q-9 28 10 69q275 45 376 54q14 0 22 -7t5 -20q-22 -75 -53 -209l-146 -633q40 12 93 59l82 70q107 95 206.5 152t151.5 57q70 0 112 -27t42 -63q0 -54 -34.5 -87.5t-82.5 -33.5q-24 0 -40 9t-23.5 19.5t-21 19.5t-30.5 9 q-38 0 -78 -18.5t-108 -79.5l-107 -94v-8q47 -12 76 -44t57 -87q27 -53 84 -230q10 -33 27 -45t47 -12q52 0 98 66q31 0 62 -35q-49 -86 -119 -132t-149 -46q-61 0 -105.5 48t-96.5 162q-19 42 -50.5 135t-51.5 128q-18 33 -40 33q-13 0 -19 -1l-78 -338q-2 -9 -7 -36 t-8 -39.5t-13 -33.5t-24 -31t-39.5 -18.5t-59.5 -8.5q-73 0 -95 13t-22 42q0 9 4.5 27t11.5 44t10 41z" />
<glyph unicode="l" horiz-adv-x="667" d="M426 1153q7 29 10.5 47t4 35t0 26t-8 17.5t-14.5 12.5t-24 7.5t-31.5 5t-42.5 3.5q-9 28 10 69q232 9 376 54q14 0 22 -7t5 -20q-22 -76 -53 -209l-213 -920q-19 -84 -19 -105q0 -34 21 -34q16 0 54 20.5t75 49.5q21 0 35 -15t18 -38q-109 -90 -191 -131t-173 -41 q-92 0 -92 115q0 56 24 161z" />
<glyph unicode="m" horiz-adv-x="1742" d="M871 660q18 106 -48 106q-35 0 -96.5 -60t-134.5 -169q-79 -119 -142 -390q-2 -9 -7 -36t-8 -39.5t-13 -33.5t-24 -31t-39.5 -18.5t-59.5 -8.5q-73 0 -95 13t-22 42q0 9 4 26.5t11.5 45.5t10.5 40l116 510q12 53 12 95q0 39 -31 41l-82 6q-10 14 -11 34t9 33 q216 27 334 27q42 0 42 -43q0 -32 -45 -194l-11 -40l2 -2q99 117 165.5 174t139.5 84t176 27q134 0 86 -260q91 105 156 158.5t135.5 77.5t169.5 24q45 0 69.5 -28.5t28 -78t-2.5 -101t-21 -111.5l-74 -306q-19 -74 -19 -105q0 -34 21 -34q16 0 54.5 20.5t74.5 49.5 q21 0 35 -15t18 -38q-109 -90 -191 -131t-173 -41q-92 0 -92 115q0 56 24 161l72 307q2 9 6 26q5 23 8 34.5t7 31.5t4.5 30.5t0.5 25.5t-3.5 23t-9 16.5t-15.5 12t-23 3.5q-35 0 -96.5 -60t-134.5 -169q-79 -119 -142 -390q-2 -9 -7 -36t-8 -39.5t-13 -33.5t-24 -31 t-39.5 -18.5t-59.5 -8.5q-73 0 -95 13t-22 42q0 9 4 26.5t11.5 45.5t10.5 40l115 510v1z" />
<glyph unicode="n" horiz-adv-x="1241" d="M797 256l71 307q25 109 26 135q2 67 -50 68q-37 0 -109.5 -62t-142.5 -167q-79 -119 -142 -390q-2 -9 -7 -36t-8 -39.5t-13 -33.5t-24 -31t-39.5 -18.5t-59.5 -8.5q-73 0 -95 13t-22 42q0 9 4 26.5t11.5 45.5t10.5 40l116 510q12 53 12 95q0 39 -31 41l-82 6 q-10 14 -11 34t9 33q216 27 334 27q42 0 42 -43q0 -32 -45 -194l-11 -40l2 -2q141 166 245 225.5t256 59.5q45 0 69.5 -28.5t28 -78t-2.5 -101t-21 -111.5l-74 -306q-19 -74 -19 -105q0 -34 22 -34q16 0 54.5 20.5t74.5 49.5q21 0 35 -15t18 -38q-109 -90 -191.5 -131 t-173.5 -41q-92 0 -92 115q0 51 25 161z" />
<glyph unicode="o" horiz-adv-x="1038" d="M406 354q0 -88 16 -150t41.5 -89.5t47.5 -38t44 -10.5q57 0 102.5 39t72 96t44.5 127t24.5 127t6.5 102q0 51 -6.5 95t-21.5 84.5t-44.5 63.5t-70.5 23q-57 0 -102.5 -32t-73.5 -81.5t-47 -114t-26 -124t-7 -117.5zM147 338q0 75 21.5 153.5t67.5 153.5t109.5 133.5 t155.5 94.5t199 36q101 0 174.5 -31.5t112 -83.5t55.5 -107.5t17 -115.5q0 -118 -47.5 -228.5t-124.5 -189t-178 -126t-205 -47.5q-83 0 -149 27t-104 66.5t-62.5 90.5t-33 93.5t-8.5 80.5z" />
<glyph unicode="p" horiz-adv-x="1099" d="M881 561q0 114 -29 176t-100 62q-98 0 -160 -41l-143 -621q57 -71 112 -71q69 0 129 44.5t101 116.5q45 78 67.5 172.5t22.5 161.5zM127 -225l176 780q-57 -56 -94 -109l-74 64q64 89 203 195l49 215l252 43l-21 -97q114 43 199 43q179 0 248.5 -74.5t69.5 -240.5 q0 -90 -50 -207t-135 -211q-80 -89 -183.5 -142.5t-209.5 -53.5q-85 0 -139 22l-50 -221q-12 -57 -12 -98q0 -57 27.5 -73.5t101.5 -21.5q8 -10 8 -34t-10 -33q-204 4 -286 4q-69 0 -269 -4q-8 10 -8 34t10 33q53 3 79 8t51 24.5t39 55t28 99.5z" />
<glyph unicode="q" horiz-adv-x="1171" d="M840 680q0 62 -26 105.5t-69 43.5q-89 0 -166.5 -74.5t-123 -199.5t-45.5 -266q0 -115 20.5 -162t77.5 -47q65 0 145.5 95.5t116.5 199.5q27 78 48.5 177t21.5 128zM633 -225l74 309q-63 -57 -122 -80.5t-141 -23.5q-74 0 -131 24.5t-90.5 66t-50 91t-16.5 104.5 q0 107 38 209t100.5 178.5t139 135.5t156.5 89.5t149 30.5q131 0 201 -73q102 102 150 102q36 0 36 -47q0 -17 -4 -33l-248 -1077q-12 -49 -12 -98q0 -57 27.5 -73.5t101.5 -21.5q8 -10 8 -34t-10 -33q-204 4 -287 4q-68 0 -268 -4q-8 10 -8 34t10 33q52 3 78.5 8t51 25 t38.5 55t29 99z" />
<glyph unicode="r" horiz-adv-x="909" d="M545 584l8 -2q68 143 162 227t186 84q62 0 94.5 -35.5t32.5 -79.5q0 -52 -31 -90.5t-79 -38.5q-55 0 -89 37q-6 6 -14.5 24.5t-17 32t-17.5 13.5q-28 0 -114.5 -122.5t-165.5 -266.5l-54 -220q-2 -7 -6 -26.5t-6 -27.5t-7 -24.5t-10.5 -24.5t-13.5 -20.5t-18 -18.5 t-23.5 -13t-31.5 -9.5t-39 -2.5q-68 0 -88.5 13t-20.5 42q0 14 4 31.5t11 41t11 39.5l111 500q17 69 17 105q0 16 -9.5 28t-27.5 13l-82 6q-10 14 -11 34t9 33q216 27 338 27q20 0 32 -13.5t12 -37.5q0 -32 -35 -186z" />
<glyph unicode="s" horiz-adv-x="854" d="M873 735q5 -45 -21 -74.5t-55 -37.5q-36 -10 -69.5 2t-39.5 43q-33 163 -135 163q-107 0 -107 -104q0 -115 152 -195q236 -124 236 -268q0 -56 -22 -106.5t-65 -92t-115.5 -66t-165.5 -24.5q-85 0 -159 21.5t-124 69.5t-50 114q0 46 29.5 75.5t59.5 29.5q44 0 74 -30 t56 -89q23 -51 65.5 -79t91.5 -28q112 0 112 101q0 136 -138 215q-101 58 -158.5 130t-57.5 138q0 63 19 110.5t51 76.5t79.5 47t98.5 25t114 7q96 0 166 -49.5t78 -124.5z" />
<glyph unicode="t" horiz-adv-x="751" d="M252 242l125 540h-154q-12 0 -12 4q0 3 4.5 25.5t5.5 26.5q8 31 58 34l118 7l27 102q4 15 10 44.5t10 44t13 33.5t23 30t34 16q31 8 53.5 13t51.5 9t45 0t16 -16q0 -11 -8 -47.5t-19.5 -82t-13.5 -54.5l-21 -92h224q17 -12 6.5 -50.5t-29.5 -46.5h-221l-123 -522 q-13 -52 -13 -88q0 -37 21 -37q19 0 63.5 27t80.5 69q19 0 36 -19.5t23 -37.5q-85 -94 -168 -144t-182 -50q-104 0 -104 116q0 62 20 146z" />
<glyph unicode="u" horiz-adv-x="1148" d="M573 645l-86 -332q-20 -78 -20 -145q0 -68 43 -68q25 0 65 23t86.5 66.5t90 121.5t65.5 172q63 279 94 410q119 -4 242 0l-158 -637q-14 -55 -14 -86q0 -33 20 -33q17 0 49.5 23t65.5 57q35 -12 51 -49q-101 -102 -169 -145t-144 -43q-69 0 -99 31.5t-30 68.5 q0 57 31 108q2 2 -0.5 2.5t-5.5 -2.5q-191 -208 -340 -208q-90 0 -139.5 43t-49.5 108q0 68 23 158l88 344q14 55 14 86q0 33 -16 33q-43 0 -111 -86q-36 19 -57 55q104 109 175 148.5t152 39.5q30 0 52 -7t33.5 -17t18 -25t8 -26t1.5 -25q0 -53 -29 -164z" />
<glyph unicode="v" horiz-adv-x="976" d="M652 268l4 -2l192 277q32 46 42.5 66t10.5 40q0 18 -19 64t-19 97q0 40 35.5 69.5t82.5 29.5q103 0 103 -130q0 -73 -140 -279l-321 -475q-33 -50 -78 -50q-75 0 -82 58l-88 665q-5 43 -31 43q-20 0 -51 -27t-53 -60q-39 25 -52 63q87 105 147.5 148.5t147.5 43.5 q29 0 50.5 -11t33.5 -27.5t21 -46t12.5 -54t7.5 -65.5z" />
<glyph unicode="w" horiz-adv-x="1437" d="M209 717q87 105 147.5 148.5t147.5 43.5q29 0 50 -11t33 -27t19 -45t10 -54.5t5 -66.5l18 -380l4 -2l197 349q60 109 102 109q28 0 49 -21.5t30.5 -45.5t14.5 -50q54 -292 78 -417l4 -2l164 298q24 44 31.5 64t7.5 42q0 18 -19 64t-19 97q0 40 35.5 69.5t82.5 29.5 q103 0 103 -130q0 -38 -27.5 -97.5t-98.5 -181.5l-280 -475q-29 -50 -78 -50q-53 0 -64 50l-96 405q-5 24 -18 24q-12 0 -23 -24l-231 -397q-19 -32 -36.5 -45t-45.5 -13q-29 0 -46.5 16.5t-19.5 41.5l-53 665q-3 43 -22 43q-20 0 -51.5 -27t-53.5 -60q-37 24 -51 63z" />
<glyph unicode="x" horiz-adv-x="1058" d="M413 696q-11 26 -70 26q-35 0 -114 -38q-11 11 -21.5 36t-12.5 43q75 44 179 90t152 46q32 0 45 -21.5t34 -90.5l3 -10.5t3 -10t4 -12.5l52 -168l71 95q40 54 64 82.5t61.5 64.5t76 52t81.5 16q57 0 99.5 -26t42.5 -72q0 -47 -28 -84t-67 -37q-44 0 -92 30q-29 17 -52 17 q-27 0 -54 -36l-175 -236l114 -277q17 -40 59 -40q76 0 130 54l51 -51q-85 -94 -156 -126t-148 -32q-28 0 -49.5 12.5t-35.5 36t-25 52t-23 65.5q-4 15 -7 23l-39 118q-63 -94 -123 -163q-83 -94 -126 -119.5t-118 -25.5q-55 0 -100 30t-45 80q0 100 99 100q33 0 64.5 -13.5 t54.5 -27.5t34 -14q28 0 68 53q110 145 156 228q-16 48 -45.5 118t-50.5 117z" />
<glyph unicode="y" horiz-adv-x="1044" d="M604 705l88 -521l4 -2l207 361q25 44 32 63.5t7 42.5q0 18 -19 64t-19 97q0 40 35.5 69.5t82.5 29.5q103 0 103 -130q0 -40 -28 -101.5t-98 -177.5l-387 -637q-90 -149 -217.5 -243.5t-224.5 -94.5q-29 0 -58 7t-55 28.5t-26 54.5q0 102 133 102q23 0 58 -15t54 -15 q37 0 94 40.5t113 133.5l54 84q-22 116 -63.5 304.5t-71.5 318.5l-31 130q-10 43 -31 43q-20 0 -51 -27t-53 -60q-39 25 -52 63q87 105 147.5 148.5t147.5 43.5q26 0 46 -12t31.5 -27t21.5 -46.5t14.5 -53t11.5 -65.5z" />
<glyph unicode="z" horiz-adv-x="935" d="M903 936l98 -43q-41 -62 -162.5 -194.5t-262.5 -279t-181 -192.5q83 -3 135 -26q35 -21 75.5 -34t62.5 -13q127 0 204 131l72 -31q-115 -274 -330 -274q-119 0 -196 47q-89 55 -131 55q-3 0 -13 -11t-28.5 -38t-40.5 -64q-31 5 -67 22.5t-44 33.5q4 13 50 70.5t85 101.5 q61 70 242.5 257.5t261.5 278.5q-8 1 -52 -5.5t-52 -6.5q-26 0 -81 8t-110 8q-47 0 -105 -32.5t-75 -73.5l-65 22q28 95 98.5 175.5t138.5 80.5q57 0 153 -13.5t169 -33.5q43 -12 57 -12q19 0 94 86z" />
<glyph unicode="{" horiz-adv-x="628" d="M660 1130l-57 -339q-22 -128 -85 -188.5t-177 -92.5l-1 -8q96 -47 131.5 -117t4.5 -190l-80 -306q-30 -129 -0.5 -201.5t96.5 -72.5q7 -9 3.5 -24.5t-14.5 -24.5q-51 0 -92.5 6.5t-80.5 21t-64 39.5t-42 62t-15.5 88t15.5 117l86 348q24 98 -8.5 155t-132.5 70 q-9 12 -5 32.5t19 33.5q101 10 158.5 71.5t76.5 147.5l68 377q15 83 58 146t102.5 98t124 52t132.5 17q7 -9 3.5 -24.5t-13.5 -24.5q-25 -7 -41 -13.5t-40 -19.5t-41 -31.5t-35.5 -45.5t-32 -67.5t-21.5 -91.5z" />
<glyph unicode="|" horiz-adv-x="450" d="M258 -477h-116l268 1907h116z" />
<glyph unicode="}" horiz-adv-x="628" d="M184 -115l57 340q22 128 84.5 188.5t176.5 92.5l2 8q-96 47 -132 117t-5 190l81 305q30 129 0.5 202t-96.5 73q-7 9 -3.5 24.5t13.5 24.5q51 0 92.5 -6.5t81 -21t64 -39.5t42 -62t16 -88t-15.5 -117l-86 -348q-24 -98 8.5 -155t132.5 -70q9 -12 5 -32.5t-19 -33.5 q-101 -10 -158.5 -71.5t-76.5 -147.5l-69 -377q-15 -83 -58 -146t-102.5 -98t-124 -52t-132.5 -17q-7 9 -3.5 24.5t14.5 24.5q30 9 49 16.5t48 27t48 45.5t37.5 72t28.5 107z" />
<glyph unicode="~" horiz-adv-x="919" d="M129 428q40 108 130 200.5t177 92.5q31 0 70 -21t70 -45.5t69.5 -45.5t69.5 -21q28 0 49 2.5t51 12t57.5 32.5t49.5 59q34 4 53 -12q-36 -77 -80.5 -134.5t-85 -86.5t-71.5 -42t-52 -13q-36 0 -75 21t-67.5 45.5t-67 45.5t-73.5 21q-62 0 -124 -27.5t-105 -89.5 q-28 -13 -45 6z" />
<glyph unicode="&#xa1;" horiz-adv-x="514" d="M162 -467q-55 0 -93 30t-38 87q0 13 4 37q22 98 69 217l64 176q74 229 96 330q4 21 7.5 31t12.5 25.5t27 22.5t45 7q38 0 52 -11t14 -34q0 -12 -8 -66q-18 -103 -37 -305q-10 -98 -10 -180q0 -104 -19 -213q-17 -78 -73.5 -116t-112.5 -38zM401 674q-43 0 -72 31t-29 73 q0 41 36 82t90 41q44 0 73 -27t29 -66q0 -64 -40.5 -99t-86.5 -35z" />
<glyph unicode="&#xa2;" horiz-adv-x="901" d="M856 1075l82 -10l-87 -179q76 -27 111 -80.5t35 -115.5q0 -35 -26.5 -59.5t-53.5 -33.5t-47 -9q-110 0 -110 74q0 6 5 49l-288 -593q35 -34 82 -34q40 0 117.5 44.5t134.5 109.5l82 -70q-88 -90 -178.5 -139t-218.5 -49q-44 0 -81 10l-96 -195l-81 17l102 210 q-83 48 -133.5 131.5t-50.5 157.5q0 123 49 236t126 191t174 124.5t193 46.5q44 0 75 -4zM429 202l303 620q-13 7 -27 7q-51 0 -103 -33t-95 -92t-70 -151t-27 -199q0 -92 19 -152z" />
<glyph unicode="&#xa3;" horiz-adv-x="958" d="M623 590q-58 -287 -220 -404q56 -1 98.5 -10.5t61.5 -19t43 -25.5h-2q49 -39 86 -39q45 0 110.5 27t127.5 92l47 -61q-45 -79 -133 -127t-211 -48q-62 0 -107.5 17.5t-93.5 48.5q-84 53 -117 53q-21 0 -34 -15.5t-15 -31.5q-8 -39 -52 -60.5t-89 -21.5q-35 0 -61.5 16 t-26.5 35v7q11 55 147 116h-10q1 0 4.5 3t12.5 11.5t18 16.5q113 97 170 377l8 45h-131l18 94h134l2 10q25 118 80.5 205t158.5 172q125 107 309 107q23 0 51.5 -4.5t58 -13.5t49.5 -27t20 -41v-11q-7 -39 -47 -61.5t-95 -22.5q-26 0 -44.5 6.5t-25.5 12t-20 18.5 q-37 43 -57 43q-50 0 -104 -82.5t-78 -201.5l-23 -109h264l-18 -94h-264v-2z" />
<glyph unicode="&#xa4;" horiz-adv-x="987" d="M426 614q-8 -50 -8 -75q0 -82 38.5 -134.5t108.5 -52.5q85 0 153 76t91 184q6 40 6 72q0 85 -38 137.5t-101 52.5q-86 0 -157 -76t-93 -184zM545 250q-121 0 -197 49l-117 -117l-100 121l125 86q-47 75 -47 162q0 31 6 61q24 122 133 228q-44 38 -88 82l135 116l80 -110 q101 49 217 49q117 0 199 -51q65 65 127 123l92 -125l-127 -90q45 -71 45 -154q0 -10 -1 -21.5t-2.5 -25t-2.5 -21.5q-24 -110 -127 -219q61 -61 86 -88l-135 -119l-78 117q-103 -53 -223 -53z" />
<glyph unicode="&#xa5;" horiz-adv-x="1073" d="M1012 352l-21 -96h-278l-23 -102q-4 -28 -4 -33q0 -26 13 -37.5t42 -11.5h54q60 0 57 -25l-6 -31l-25 -18q-204 4 -282 4l-291 -4l-17 18l7 31q6 25 65 25h53q36 0 55 20.5t27 61.5l23 102h-281l21 96h278l25 113h-281l21 94h266q-18 65 -61.5 220.5t-67.5 242.5 q-11 48 -21 68t-26 20h-23q-55 7 -53 20l8 39l6 19q73 -12 228 -12q137 0 202 8l19 -23l-6 -28q-4 -23 -64 -23h-26q-10 0 -13 -20q0 -2 -1 -7t-1 -8q0 -20 17 -59l88 -328q186 288 221 342q26 40 29 60q5 20 -2 20h-37q-51 5 -47 23l6 28l24 21q5 0 87.5 -4t97.5 -4 q7 0 45 2t85 4.5t62 3.5l-2 -15l-6 -36q-1 -8 -4 -12t-18.5 -7.5t-45.5 -3.5h-14q-20 0 -40.5 -19.5t-57.5 -68.5q-45 -71 -94.5 -147.5t-109.5 -169t-95 -146.5h254l-19 -94h-278l-25 -113h281z" />
<glyph unicode="&#xa6;" horiz-adv-x="468" d="M403 342l-151 -750h-189l152 750h188zM614 1382l-151 -749h-189l152 749h188z" />
<glyph unicode="&#xa7;" horiz-adv-x="970" d="M561 330q161 -89 182 -101q45 45 60 125q6 27 6 54q0 56 -25.5 109.5t-61.5 92t-89.5 76.5t-93 59.5t-88.5 45.5q-46 -46 -64 -125q-4 -36 -4 -52q0 -86 52.5 -164.5t125.5 -119.5zM788 1348q118 0 200.5 -62.5t82.5 -157.5q0 -27 -4 -41q-6 -35 -47 -60.5t-88 -25.5 q-63 0 -87 23.5t-24 52.5v13q5 27 37 59h-4q8 4 8 27q0 11 -2.5 24t-10 31t-25.5 29.5t-44 11.5q-66 0 -123 -62t-73 -141q-4 -32 -4 -45q0 -47 23 -72.5t75 -52.5q52 -26 88.5 -47.5t86.5 -58.5t81 -74t53.5 -89.5t22.5 -109.5q0 -32 -9 -67q-29 -162 -188 -277 q45 -50 45 -125q0 -31 -6 -69q-11 -51 -53.5 -108t-103 -105t-140.5 -79.5t-156 -31.5q-117 0 -199.5 62.5t-82.5 158.5q0 20 6 41q6 36 47.5 60t87.5 24q62 0 86.5 -24t24.5 -54v-10q-4 -15 -31 -55q-8 -8 -10 -25q-2 -2 -2 -6q0 -11 3.5 -24.5t12 -30.5t27 -28t45.5 -11 q58 0 115 55t75 148q6 24 6 47q0 88 -55 116q-202 110 -287.5 199t-85.5 195q0 34 6 71q35 163 183 269q-29 54 -29 110q0 39 10 84q24 111 152.5 214.5t283.5 103.5z" />
<glyph unicode="&#xa8;" horiz-adv-x="817" d="M340 1176q0 46 32.5 78t78.5 32t78 -32t32 -78t-32 -78.5t-78 -32.5t-78.5 32.5t-32.5 78.5zM709 1176q0 46 32 78t78 32t78.5 -32t32.5 -78t-32.5 -78.5t-78.5 -32.5t-78 32.5t-32 78.5z" />
<glyph unicode="&#xa9;" horiz-adv-x="1261" d="M944 444q-44 -54 -110.5 -92.5t-141.5 -38.5q-119 0 -188 73t-69 182q0 36 5 61q25 119 130 212t237 93q77 0 130 -14.5t77 -14.5l-8 -160l-64 -8v28q0 32 -4.5 51t-18 37t-42.5 26t-76 8q-31 0 -61.5 -11.5t-64 -38.5t-61.5 -81.5t-43 -130.5q-8 -39 -8 -84 q0 -77 36 -122.5t112 -45.5q106 0 196 102zM631 47q-201 0 -328.5 132.5t-127.5 332.5q0 61 11 115q23 118 88.5 224.5t155 184t201.5 123t225 45.5q200 0 327 -131t127 -331q0 -56 -12 -115q-30 -157 -130 -290.5t-243 -211.5t-294 -78zM842 1126q-197 0 -365.5 -147 t-208.5 -352q-10 -49 -10 -101q0 -172 108 -285.5t281 -113.5q128 0 250 67.5t208 182.5t112 250q10 50 10 102q0 171 -108 284t-277 113z" />
<glyph unicode="&#xaa;" horiz-adv-x="823" d="M691 1032q18 48 29.5 105t11.5 78q0 41 -17.5 70.5t-45.5 29.5q-51 0 -101.5 -57t-80.5 -136.5t-30 -149.5q0 -43 4 -72.5t19.5 -53.5t43.5 -24q30 0 82 64.5t85 145.5zM646 821q0 17 1 25l-2 2q-61 -59 -93.5 -76.5t-73.5 -17.5q-50 0 -88 19t-58.5 49t-30 61.5 t-9.5 62.5q0 76 36.5 154.5t91.5 136.5t121.5 94.5t123.5 36.5q89 0 113 -70q41 29 77 70l75 4q2 0 2 -4q-29 -113 -42 -166l-64 -265q-10 -43 -10 -57q0 -21 12 -21q18 0 77 51l34 -31q-74 -74 -116 -99.5t-93 -25.5q-46 0 -65 21t-19 46z" />
<glyph unicode="&#xab;" horiz-adv-x="1146" d="M1221 965l-37 -183q-183 -208 -371 -340q139 -130 234 -336l-39 -192q-251 383 -433 496l15 67q250 154 631 488zM854 965l-37 -183q-183 -208 -371 -340q139 -130 234 -336l-39 -192q-254 387 -432 496l12 67q250 152 633 488z" />
<glyph unicode="&#xac;" horiz-adv-x="1196" d="M1022 268l90 455h-930l23 104h1126l-112 -559h-197z" />
<glyph unicode="&#xad;" horiz-adv-x="765" d="M682 477h-459q-32 0 -48.5 11t-16.5 26v6q6 27 41.5 54.5t68.5 27.5h463q66 0 66 -35v-8q-5 -22 -43.5 -52t-71.5 -30z" />
<glyph unicode="&#xae;" horiz-adv-x="1261" d="M979 762q-6 -30 -22.5 -57t-36.5 -44t-39 -30t-32 -19l-13 -6l61 -168q14 -34 29 -48.5t39 -14.5l-7 -27q-27 -8 -47 -8q-43 0 -75.5 20t-42.5 58l-62 160q-12 6 -53 6l-35 -187q-2 -7 -1 -10.5t11 -3.5h23q12 0 17 -3t3 -9l-6 -29q-104 4 -133 4l-111 -4l7 29 q3 12 22 12h25q9 0 13 3t5 13l88 447q4 22 -4 22l-33 -2q-9 0 -13.5 3.5t-2.5 9.5l4 26q72 10 264 10q86 0 123.5 -36t37.5 -88q0 -15 -3 -29zM856 762q5 27 5 43q0 69 -70 69q-43 0 -58 -6l-45 -235q24 0 39 1t38.5 8t38.5 19.5t30 38.5t22 62zM631 47q-201 0 -328.5 132.5 t-127.5 332.5q0 61 11 115q23 118 88.5 224.5t155 184t201.5 123t225 45.5q200 0 327 -131t127 -331q0 -56 -12 -115q-30 -157 -130 -290.5t-243 -211.5t-294 -78zM842 1126q-197 0 -365.5 -147t-208.5 -352q-10 -49 -10 -101q0 -172 108 -285.5t281 -113.5q128 0 250 67.5 t208 182.5t112 250q10 50 10 102q0 171 -108 284t-277 113z" />
<glyph unicode="&#xaf;" horiz-adv-x="862" d="M887 1071h-496q-61 0 -61 35v4q5 22 37 45t65 23h496q32 0 47.5 -10t15.5 -23v-6q-5 -22 -37 -45t-67 -23z" />
<glyph unicode="&#xb0;" horiz-adv-x="520" d="M455 938q62 0 103 48t41 109q0 49 -26 84t-79 35q-62 0 -104 -51.5t-42 -112.5q0 -47 28 -79.5t79 -32.5zM276 1045q0 92 68.5 163.5t159.5 71.5q73 0 120.5 -49t47.5 -124q0 -94 -68 -164.5t-158 -70.5q-74 0 -122 49.5t-48 123.5z" />
<glyph unicode="&#xb1;" horiz-adv-x="1128" d="M1026 150l-25 -119h-868l25 119h868zM788 709h351l-25 -119h-350l-72 -350h-174l70 350h-350l24 119h352l70 352h176z" />
<glyph unicode="&#xb2;" horiz-adv-x="679" d="M416 1174q-31 0 -49.5 18t-18.5 43q0 1 1 4.5t1 5.5q5 24 22 49t48 52t85 44t122 17q44 0 82 -7t70.5 -21.5t51.5 -42.5t19 -66q0 -23 -4 -35q-18 -94 -164 -197q-141 -95 -189.5 -138t-60.5 -83h219q25 39 54 103l90 -21l-66 -162h-504q14 71 70 125.5t237 186.5 q57 41 87.5 84t42.5 98q4 24 4 35q0 40 -20.5 60t-39.5 20q-35 0 -60 -16.5t-30 -35.5q-2 -15 0 -22v-35q-6 -27 -38.5 -45t-61.5 -18z" />
<glyph unicode="&#xb3;" horiz-adv-x="679" d="M639 1272v24q0 25 -11.5 37.5t-25.5 12.5q-24 0 -55.5 -17.5t-38.5 -46.5q-23 -76 -98 -76q-62 0 -62 47v7q4 17 20.5 39.5t48 48.5t90 43.5t132.5 17.5q90 0 141 -28t51 -78q0 -13 -2 -21q-14 -70 -137 -135q55 -15 93 -53t38 -95q0 -10 -4 -34q-21 -105 -134.5 -172.5 t-254.5 -67.5q-73 0 -133.5 19t-60.5 49q0 4 2 6q5 26 23.5 45.5t43.5 19.5q61 0 80 -43q8 -15 30 -25t50 -10q13 0 33.5 7.5t47 24t49.5 51.5t32 81q4 12 4 33q0 37 -21 60.5t-43 30.5t-43 7q-15 0 -86 -14l6 55q72 9 127 49.5t68 100.5z" />
<glyph unicode="&#xb4;" horiz-adv-x="749" d="M637 1436l20 2q12 6 50 6q86 0 120 -39h-2q23 -23 27 -25l2 -6l-295 -233q-30 -24 -49.5 -32.5t-46.5 -8.5q-28 0 -49 8t-21 20q0 15 31 54q35 42 106.5 127t106.5 127z" />
<glyph unicode="&#xb5;" horiz-adv-x="1062" d="M125 -475q-33 0 -71 33t-38 82q0 18 2 26q11 49 48 146q4 11 20 49t26 68t17 63q4 18 16 102q3 18 5.5 83t11.5 104l88 381q4 23 11.5 79.5t12.5 102.5l5 45l262 26q-27 -147 -41 -213l-92 -395q-19 -81 -19 -133q0 -90 62 -90q59 0 125.5 34.5t111.5 82.5l160 688 l248 29l-154 -660q-27 -125 -27 -147q0 -25 13 -25q22 0 43.5 18t52.5 66l61 -27q-52 -86 -110.5 -127t-157.5 -41t-123 113q-163 -113 -307 -113q-47 0 -90 19q-18 -119 -18 -191q-4 -118 -11 -147q-14 -63 -53.5 -97t-89.5 -34z" />
<glyph unicode="&#xb6;" horiz-adv-x="1282" d="M985 -295q-10 -58 -10 -76q0 -30 14 -39.5t51 -11.5h62q8 0 8 -14l-10 -43h-674l10 43q3 14 15 14h61q51 1 70 25t34 104l156 758q-59 -25 -164 -25q-48 0 -94 9t-95 33.5t-85.5 61t-60 96.5t-23.5 136q0 56 12 123q39 193 171.5 308.5t332.5 115.5q89 0 203 -5t129 -5 l141 6l227 4l-8 -43q-4 -14 -12 -14h-62q-52 0 -72 -26t-34 -101zM772 -424q42 0 60.5 28.5t31.5 98.5l293 1436q8 41 8 71q0 32 -10.5 41t-32.5 11q-24 0 -40.5 -10.5t-27 -31.5t-15.5 -39.5t-11 -47.5l-291 -1426q-8 -46 -8 -69q0 -62 43 -62z" />
<glyph unicode="&#xb7;" horiz-adv-x="561" d="M367 418q-43 0 -68 25.5t-25 62.5q0 2 5 22q8 43 48 77t85 34q37 0 63.5 -26t26.5 -64q0 -13 -2 -21q-9 -45 -48.5 -77.5t-84.5 -32.5z" />
<glyph unicode="&#xb8;" horiz-adv-x="1157" d="M586 -162q-46 0 -97 -24l-26 34l119 183h129l-70 -113h16q73 0 118.5 -29.5t45.5 -81.5q0 -10 -4 -22q-12 -68 -94 -110t-197 -42q-54 0 -91 10t-89 35l39 56q72 -33 143 -33q33 0 70.5 20.5t44.5 53.5v8q0 23 -19.5 39t-37.5 16z" />
<glyph unicode="&#xb9;" horiz-adv-x="679" d="M463 885l61 303q3 17 5 34t2.5 23.5t3 11.5t8.5 9q-23 -2 -160 -49l-8 67q139 50 276 125h94l-106 -524q-4 -24 -4 -31q0 -59 74 -59h18q7 0 11 -5t1 -12l-6 -33l-4 -4q-143 4 -223 4l-191 -4l-2 4l6 33q3 17 21 17h16q50 0 73.5 22t33.5 68z" />
<glyph unicode="&#xba;" horiz-adv-x="765" d="M598 1096q-52 0 -93 -57.5t-59 -141.5q-6 -30 -6 -66q0 -64 24.5 -105.5t74.5 -41.5q23 0 47.5 12.5t52.5 54t41 105.5q10 62 10 100q0 66 -25 103t-67 37zM242 877q28 133 130 209.5t253 76.5q138 0 202 -58.5t64 -152.5q0 -33 -6 -63q-25 -115 -126 -195t-257 -80 q-117 0 -190.5 60.5t-73.5 154.5q0 16 4 48z" />
<glyph unicode="&#xbb;" horiz-adv-x="1146" d="M104 -84l37 182q183 208 371 340q-137 128 -233 336l38 193q251 -383 433 -496l-15 -68q-254 -156 -631 -487zM471 -84l37 182q183 208 371 340q-139 130 -234 336l39 193q254 -387 432 -496l-12 -68q-254 -154 -633 -487z" />
<glyph unicode="&#xbc;" horiz-adv-x="1400" d="M1356 1231h104l-1212 -1342h-105zM1333 371l-47 -232h105l-15 -78h-106l-23 -116q-8 -41 2 -41h33q16 0 25.5 -4t12 -8t1.5 -9l-8 -45l-174 2l-172 -2l8 47q6 19 49 19h37q6 0 10 7t8 32l25 118h-287l-8 23q85 82 143 201q52 106 76 217h139q-18 -88 -71 -228 q-21 -52 -80 -135h104l35 178q109 52 109 54h69zM459 784l61 303q4 18 6 34.5t2.5 23t3 11.5t7.5 9q-12 -3 -160 -51l-6 70q139 50 276 125h94l-106 -525q-9 -46 6 -68t64 -22h18q15 0 12 -16l-6 -33l-4 -4q-143 4 -223 4l-191 -4l-4 4l8 33q3 16 19 16h16q51 0 75 22t32 68 z" />
<glyph unicode="&#xbd;" horiz-adv-x="1400" d="M1356 1231h104l-1212 -1342h-105zM989 266q-34 0 -51.5 23t-11.5 49q4 23 21 49t47.5 52.5t85 43.5t122.5 17q39 0 72.5 -5t64.5 -17t51.5 -31t29.5 -49.5t1 -69.5q-18 -91 -164 -197q-139 -93 -188 -136.5t-61 -82.5h219q29 47 53 100l88 -18l-63 -164h-506q5 25 13 45 t28.5 45t36 41t59.5 50.5t72.5 56t99.5 73.5q56 42 86.5 85t40.5 98q12 59 -9 86.5t-46 27.5q-36 0 -60.5 -16t-27.5 -35q-2 -10 -2 -22v-35q-4 -26 -38 -45t-63 -19zM465 784l61 303q4 18 6 34.5t2.5 23t3 11.5t7.5 9q-25 -5 -160 -51l-8 70q139 50 276 125h95l-107 -525 q-9 -46 6.5 -68t63.5 -22h18q7 0 11 -4.5t3 -11.5l-8 -33l-4 -4q-143 4 -223 4l-191 -4l-2 4l7 33q3 16 20 16h16q50 0 73.5 21.5t33.5 68.5z" />
<glyph unicode="&#xbe;" horiz-adv-x="1400" d="M1356 1231h104l-1212 -1342h-105zM637 1167q8 38 -4 56t-31 18q-25 0 -56.5 -16.5t-39.5 -46.5q-17 -76 -96 -76q-30 0 -45.5 12.5t-17 23t0.5 17.5q3 14 13 31t32.5 38.5t54 39t81.5 29.5t110 12q100 0 151 -33.5t39 -91.5q-14 -73 -137 -138q63 -17 102 -63.5 t25 -118.5q-14 -70 -72 -124.5t-141.5 -83.5t-175.5 -29q-49 0 -93.5 7.5t-74.5 24.5t-26 39q6 27 25 46.5t44 19.5q61 0 80 -43q8 -15 30 -25t50 -10q13 0 33.5 7.5t47 24t49.5 51.5t32 81q8 38 -1 66t-28.5 41.5t-38 19.5t-35.5 6q-3 0 -86 -14l6 53q72 9 126.5 49.5 t66.5 99.5zM1343 377l-47 -232h105l-17 -79h-104l-25 -117q-8 -41 2 -41h33q41 0 41 -19l-10 -47l-174 2l-172 -2l10 47q0 19 47 19h37q7 0 10 7t8 34l25 117h-287l-8 22q87 84 144 201q57 121 75 219h142q-12 -64 -72 -227q-28 -70 -82 -136h104l37 177q109 53 109 55h69z " />
<glyph unicode="&#xbf;" horiz-adv-x="880" d="M555 -289q6 30 -4 56q-9 19 -2 55t47.5 58t89.5 22q36 0 66 -24t30 -66q0 -17 -2 -25q-10 -50 -44.5 -89.5t-100.5 -86.5q-116 -80 -297 -80q-152 0 -237 66t-85 180q0 23 7 67q9 44 33 85.5t50 71.5t70 65t71 53t75 49q31 20 51 36t46.5 45t45.5 70t29 93l10 47 q7 37 24.5 53t61.5 16q34 0 46.5 -8t12.5 -28q0 -9 -4 -33l-10 -51q-7 -34 -13 -55t-22 -59.5t-37 -69.5t-59 -71.5t-88 -78.5q-66 -50 -102 -100.5t-50 -123.5q-8 -50 -8 -69q0 -75 31.5 -125.5t85.5 -50.5q67 0 120.5 31.5t61.5 74.5zM592 674q-43 0 -65.5 31t-13.5 73 q8 41 52.5 82t98.5 41q44 0 67.5 -27t15.5 -66q-13 -64 -61 -99t-94 -35z" />
<glyph unicode="&#xc0;" horiz-adv-x="1472" d="M647 590h316q-24 126 -84 422l-236 -398q-14 -24 4 -24zM1296 186q6 -27 11 -41.5t17.5 -32t35 -27.5t57.5 -15l29 -4q20 -2 20 -19l-8 -47l-4 -4q-76 4 -156 4l-376 -4l-4 4l6 47q3 18 14 19l23 4q44 8 68.5 26.5t17.5 53.5l-66 344h-387q-21 0 -39 -29l-190 -315 q-19 -31 3.5 -51.5t65.5 -28.5l23 -4q14 -1 14 -19l-6 -47l-4 -4q-180 4 -254 4l-176 -4l-4 4l4 47q1 17 20 19l29 4q65 9 104 42t69 82l656 1090q20 32 48 48t49 16q33 0 47.5 -15t21.5 -49zM893 1675l221 -172q25 -19 25 -39q0 -11 -8 -22.5t-27 -11.5q-29 0 -84 24 l-297 129z" />
<glyph unicode="&#xc1;" horiz-adv-x="1472" d="M647 590h316q-24 126 -84 422l-236 -398q-14 -24 4 -24zM1296 186q6 -27 11 -41.5t17.5 -32t35 -27.5t57.5 -15l29 -4q20 -2 20 -19l-8 -47l-4 -4q-76 4 -156 4l-376 -4l-4 4l6 47q3 18 14 19l23 4q44 8 68.5 26.5t17.5 53.5l-66 344h-387q-21 0 -39 -29l-190 -315 q-19 -31 3.5 -51.5t65.5 -28.5l23 -4q14 -1 14 -19l-6 -47l-4 -4q-180 4 -254 4l-176 -4l-4 4l4 47q1 17 20 19l29 4q65 9 104 42t69 82l656 1090q20 32 48 48t49 16q33 0 47.5 -15t21.5 -49zM1102 1688l119 -115l-314 -119q-63 -24 -92 -24q-24 0 -24 24v6q5 34 30 51z" />
<glyph unicode="&#xc2;" horiz-adv-x="1472" d="M647 590h316q-24 126 -84 422l-236 -398q-14 -24 4 -24zM1296 186q6 -27 11 -41.5t17.5 -32t35 -27.5t57.5 -15l29 -4q20 -2 20 -19l-8 -47l-4 -4q-76 4 -156 4l-376 -4l-4 4l6 47q3 18 14 19l23 4q44 8 68.5 26.5t17.5 53.5l-66 344h-387q-21 0 -39 -29l-190 -315 q-19 -31 3.5 -51.5t65.5 -28.5l23 -4q14 -1 14 -19l-6 -47l-4 -4q-180 4 -254 4l-176 -4l-4 4l4 47q1 17 20 19l29 4q65 9 104 42t69 82l656 1090q20 32 48 48t49 16q33 0 47.5 -15t21.5 -49zM1061 1649q62 -93 176 -193l-47 -43q-114 57 -191 121q-106 -68 -229 -121 l-31 43q100 66 234 193h88z" />
<glyph unicode="&#xc3;" horiz-adv-x="1472" d="M647 590h316q-24 126 -84 422l-236 -398q-14 -24 4 -24zM1296 186q6 -27 11 -41.5t17.5 -32t35 -27.5t57.5 -15l29 -4q20 -2 20 -19l-8 -47l-4 -4q-76 4 -156 4l-376 -4l-4 4l6 47q3 18 14 19l23 4q44 8 68.5 26.5t17.5 53.5l-66 344h-387q-21 0 -39 -29l-190 -315 q-19 -31 3.5 -51.5t65.5 -28.5l23 -4q14 -1 14 -19l-6 -47l-4 -4q-180 4 -254 4l-176 -4l-4 4l4 47q1 17 20 19l29 4q65 9 104 42t69 82l656 1090q20 32 48 48t49 16q33 0 47.5 -15t21.5 -49zM1155 1532q35 0 61 23.5t58 91.5l49 -21q-38 -102 -93 -157.5t-124 -55.5 q-21 0 -44.5 10.5t-35.5 19t-39 30.5q-62 51 -102 51q-39 0 -64.5 -23.5t-52.5 -81.5l-49 17q41 104 90 156.5t113 52.5q28 0 55 -10.5t42 -22t38 -31.5q53 -49 98 -49z" />
<glyph unicode="&#xc4;" horiz-adv-x="1472" d="M668 1434q0 46 32 78t78 32t78.5 -32t32.5 -78t-32.5 -78.5t-78.5 -32.5t-78 32.5t-32 78.5zM1122 1434q0 46 32.5 78t78.5 32t78 -32t32 -78t-32 -78.5t-78 -32.5t-78.5 32.5t-32.5 78.5zM647 590h316q-24 126 -84 422l-236 -398q-14 -24 4 -24zM1296 186 q6 -27 11 -41.5t17.5 -32t35 -27.5t57.5 -15l29 -4q20 -2 20 -19l-8 -47l-4 -4q-76 4 -156 4l-376 -4l-4 4l6 47q3 18 14 19l23 4q44 8 68.5 26.5t17.5 53.5l-66 344h-387q-21 0 -39 -29l-190 -315q-19 -31 3.5 -51.5t65.5 -28.5l23 -4q14 -1 14 -19l-6 -47l-4 -4 q-180 4 -254 4l-176 -4l-4 4l4 47q1 17 20 19l29 4q65 9 104 42t69 82l656 1090q20 32 48 48t49 16q33 0 47.5 -15t21.5 -49z" />
<glyph unicode="&#xc5;" horiz-adv-x="1472" d="M647 590h316q-24 126 -84 422l-236 -398q-14 -24 4 -24zM1296 186q6 -27 11 -41.5t17.5 -32t35 -27.5t57.5 -15l29 -4q20 -2 20 -19l-8 -47l-4 -4q-76 4 -156 4l-376 -4l-4 4l6 47q3 18 14 19l23 4q44 8 68.5 26.5t17.5 53.5l-66 344h-387q-21 0 -39 -29l-190 -315 q-19 -31 3.5 -51.5t65.5 -28.5l23 -4q14 -1 14 -19l-6 -47l-4 -4q-180 4 -254 4l-176 -4l-4 4l4 47q1 17 20 19l29 4q65 9 104 42t69 82l656 1090q9 15 20 26q-36 17 -56.5 49.5t-20.5 74.5q0 12 4 32q14 69 75.5 119.5t133.5 50.5q62 0 103.5 -38.5t41.5 -98.5 q0 -13 -4 -33q-10 -51 -48 -93.5t-90 -62.5q4 -10 7 -26zM1053 1573q-42 0 -78 -32.5t-45 -74.5q0 -4 -1 -10.5t-1 -9.5q0 -35 22.5 -60.5t59.5 -25.5q43 0 79 32.5t44 73.5q2 8 2 23q0 36 -23 60t-59 24z" />
<glyph unicode="&#xc6;" horiz-adv-x="1787" d="M682 625h311l86 491q3 14 3 23q0 23 -13 23q-17 0 -47 -44zM1014 2l-303 -4l-2 4l8 45q3 21 18 21h53q58 0 86.5 22.5t36.5 67.5l68 387h-350l-281 -406q-13 -20 -13 -34q0 -37 97 -37q10 0 10 -13l-10 -53l-4 -4q-147 4 -223 4l-197 -4l-4 4l8 49q1 7 8 12t15 5h45 q46 0 71.5 12.5t61.5 62.5l686 1008q22 32 22 54q0 50 -106 50q-16 0 -12 15l8 51l4 2h434h635q-16 -156 -16 -330l-82 -18q-4 48 -11 85t-23.5 80t-49.5 67t-80 24h-254q-28 0 -39 -60l-74 -421h224q17 0 29.5 9t24.5 34t18 41.5t20 60.5q2 7 12.5 15t24.5 8h41l8 -21 q-35 -115 -47 -190q-14 -76 -21 -191l-14 -18h-43q-13 0 -21 6.5t-6 13.5q0 10 0.5 29t0.5 27q0 46 -8.5 68t-33.5 22h-225l-88 -508q-5 -23 -5 -34q0 -26 21 -26h301q78 0 146 75.5t115 197.5l81 -21q-30 -81 -114 -346h-682z" />
<glyph unicode="&#xc7;" horiz-adv-x="1304" d="M725 -20q-141 0 -250 43t-174.5 118t-99 169t-33.5 202q0 67 12 133q26 148 102 279.5t182 224t237.5 146t265.5 53.5q89 0 160.5 -14t107.5 -31.5t74.5 -31.5t70.5 -14q-18 -179 -18 -346l-78 -16q-9 66 -20.5 114t-35.5 99t-58 83t-89.5 52.5t-128.5 20.5 q-74 0 -150.5 -34.5t-148 -102t-128.5 -182.5t-83 -261q-15 -84 -15 -170q0 -91 18 -169t54.5 -140.5t98 -98.5t141.5 -36q123 0 243.5 57t252.5 186l51 -49q-204 -227 -441 -273l-63 -102l35 5q70 0 111 -28.5t41 -80.5q0 -17 -2 -25q-13 -68 -89.5 -105.5t-191.5 -37.5 q-55 0 -93 10.5t-87 34.5l37 47q72 -33 143 -33q33 0 70.5 20.5t44.5 53.5v10q0 23 -20.5 41.5t-37.5 18.5q-35 0 -96 -31l-18 35l99 156h-3z" />
<glyph unicode="&#xc8;" horiz-adv-x="1101" d="M51 0l-4 4l8 45q3 19 19 19h26q60 0 88 20t37 70l178 1007q0 1 1.5 11t1.5 15q0 34 -22 49t-73 15h-28q-6 0 -10 5t-3 12l9 47l6 4h917q-18 -153 -18 -332l-82 -18q-4 48 -11 85t-23.5 80t-49 67t-78.5 24h-256q-28 0 -39 -60l-74 -421h222q12 0 22 4.5t19 16t15 20.5 t14.5 30.5t12.5 33.5t13 40q0 7 10.5 14.5t24.5 7.5h41l8 -20q-35 -117 -47 -190q-16 -96 -21 -191l-14 -18h-41q-14 0 -22.5 6.5t-6.5 13.5q2 42 2 58q0 44 -9.5 66t-35.5 22h-221l-90 -508q-4 -28 -4 -33q0 -27 20 -27h301q78 0 145.5 75.5t114.5 197.5l82 -21 q-66 -184 -114 -346h-961zM842 1673l221 -172q24 -19 24 -39q0 -12 -7.5 -23.5t-26.5 -11.5q-27 0 -84 25l-297 129z" />
<glyph unicode="&#xc9;" horiz-adv-x="1150" d="M51 0l-4 4l8 45q3 19 19 19h26q60 0 88 20t37 70l178 1007q0 1 1.5 11t1.5 15q0 34 -22 49t-73 15h-28q-6 0 -10 5t-3 12l9 47l6 4h917q-18 -153 -18 -332l-82 -18q-4 48 -11 85t-23.5 80t-49 67t-78.5 24h-256q-28 0 -39 -60l-74 -421h222q12 0 22 4.5t19 16t15 20.5 t14.5 30.5t12.5 33.5t13 40q0 7 10.5 14.5t24.5 7.5h41l8 -20q-35 -117 -47 -190q-16 -96 -21 -191l-14 -18h-41q-14 0 -22.5 6.5t-6.5 13.5q2 42 2 58q0 44 -9.5 66t-35.5 22h-221l-90 -508q-4 -28 -4 -33q0 -27 20 -27h301q78 0 145.5 75.5t114.5 197.5l82 -21 q-66 -184 -114 -346h-961zM1057 1688l119 -115l-314 -119q-63 -24 -92 -24q-25 0 -25 24v6q5 34 31 51z" />
<glyph unicode="&#xca;" horiz-adv-x="1101" d="M51 0l-4 4l8 45q3 19 19 19h26q60 0 88 20t37 70l178 1007q0 1 1.5 11t1.5 15q0 34 -22 49t-73 15h-28q-6 0 -10 5t-3 12l9 47l6 4h917q-18 -153 -18 -332l-82 -18q-4 48 -11 85t-23.5 80t-49 67t-78.5 24h-256q-28 0 -39 -60l-74 -421h222q12 0 22 4.5t19 16t15 20.5 t14.5 30.5t12.5 33.5t13 40q0 7 10.5 14.5t24.5 7.5h41l8 -20q-35 -117 -47 -190q-16 -96 -21 -191l-14 -18h-41q-14 0 -22.5 6.5t-6.5 13.5q2 42 2 58q0 44 -9.5 66t-35.5 22h-221l-90 -508q-4 -28 -4 -33q0 -27 20 -27h301q78 0 145.5 75.5t114.5 197.5l82 -21 q-66 -184 -114 -346h-961zM909 1649q62 -93 176 -193l-47 -43q-111 56 -190 121q-104 -67 -230 -121l-30 43q97 64 233 193h88z" />
<glyph unicode="&#xcb;" horiz-adv-x="1101" d="M51 0l-4 4l8 45q3 19 19 19h26q60 0 88 20t37 70l178 1007q0 1 1.5 11t1.5 15q0 34 -22 49t-73 15h-28q-6 0 -10 5t-3 12l9 47l6 4h917q-18 -153 -18 -332l-82 -18q-4 48 -11 85t-23.5 80t-49 67t-78.5 24h-256q-28 0 -39 -60l-74 -421h222q12 0 22 4.5t19 16t15 20.5 t14.5 30.5t12.5 33.5t13 40q0 7 10.5 14.5t24.5 7.5h41l8 -20q-35 -117 -47 -190q-16 -96 -21 -191l-14 -18h-41q-14 0 -22.5 6.5t-6.5 13.5q2 42 2 58q0 44 -9.5 66t-35.5 22h-221l-90 -508q-4 -28 -4 -33q0 -27 20 -27h301q78 0 145.5 75.5t114.5 197.5l82 -21 q-66 -184 -114 -346h-961zM471 1534q0 46 32.5 78.5t78.5 32.5t78 -32.5t32 -78.5t-32 -78.5t-78 -32.5t-78.5 32.5t-32.5 78.5zM926 1534q0 46 32 78.5t78 32.5t78.5 -32.5t32.5 -78.5t-32.5 -78.5t-78.5 -32.5t-78 32.5t-32 78.5z" />
<glyph unicode="&#xcc;" horiz-adv-x="702" d="M555 250q-11 -60 -11 -92q0 -57 29 -71.5t121 -18.5q8 -10 8 -36.5t-10 -35.5q-204 4 -307 4q-101 0 -301 -4q-8 10 -8 36.5t10 35.5q43 2 65 4t48.5 8.5t38.5 17t26.5 31t22.5 49.5t16 72l143 821q11 58 11 90q0 59 -28.5 73.5t-119.5 18.5q-8 10 -9 36t9 36 q204 -4 307 -4q102 0 302 4q8 -9 6.5 -36t-11.5 -36q-43 -2 -65 -4t-48 -8.5t-38 -17t-26 -31t-22 -49.5t-16 -72zM528 1673l222 -172q24 -19 24 -39q0 -12 -8 -23.5t-27 -11.5q-27 0 -84 25l-297 129z" />
<glyph unicode="&#xcd;" horiz-adv-x="702" d="M555 250q-11 -60 -11 -92q0 -57 29 -71.5t121 -18.5q8 -10 8 -36.5t-10 -35.5q-204 4 -307 4q-101 0 -301 -4q-8 10 -8 36.5t10 35.5q43 2 65 4t48.5 8.5t38.5 17t26.5 31t22.5 49.5t16 72l143 821q11 58 11 90q0 59 -28.5 73.5t-119.5 18.5q-8 10 -9 36t9 36 q204 -4 307 -4q102 0 302 4q8 -9 6.5 -36t-11.5 -36q-43 -2 -65 -4t-48 -8.5t-38 -17t-26 -31t-22 -49.5t-16 -72zM739 1686l119 -115l-313 -119q-65 -25 -92 -25q-25 0 -25 25v6q5 34 31 51z" />
<glyph unicode="&#xce;" horiz-adv-x="702" d="M555 250q-11 -60 -11 -92q0 -57 29 -71.5t121 -18.5q8 -10 8 -36.5t-10 -35.5q-204 4 -307 4q-101 0 -301 -4q-8 10 -8 36.5t10 35.5q43 2 65 4t48.5 8.5t38.5 17t26.5 31t22.5 49.5t16 72l143 821q11 58 11 90q0 59 -28.5 73.5t-119.5 18.5q-8 10 -9 36t9 36 q204 -4 307 -4q102 0 302 4q8 -9 6.5 -36t-11.5 -36q-43 -2 -65 -4t-48 -8.5t-38 -17t-26 -31t-22 -49.5t-16 -72zM709 1649q62 -93 176 -193l-47 -43q-114 57 -191 121q-106 -68 -229 -121l-31 43q100 66 234 193h88z" />
<glyph unicode="&#xcf;" horiz-adv-x="702" d="M555 250q-11 -60 -11 -92q0 -57 29 -71.5t121 -18.5q8 -10 8 -36.5t-10 -35.5q-204 4 -307 4q-101 0 -301 -4q-8 10 -8 36.5t10 35.5q43 2 65 4t48.5 8.5t38.5 17t26.5 31t22.5 49.5t16 72l143 821q11 58 11 90q0 59 -28.5 73.5t-119.5 18.5q-8 10 -9 36t9 36 q204 -4 307 -4q102 0 302 4q8 -9 6.5 -36t-11.5 -36q-43 -2 -65 -4t-48 -8.5t-38 -17t-26 -31t-22 -49.5t-16 -72zM307 1532q0 46 32.5 78t78.5 32t78 -32t32 -78t-32 -78.5t-78 -32.5t-78.5 32.5t-32.5 78.5zM762 1532q0 46 32 78t78 32t78.5 -32t32.5 -78t-32.5 -78.5 t-78.5 -32.5t-78 32.5t-32 78.5z" />
<glyph unicode="&#xd0;" horiz-adv-x="1409" d="M461 154q-3 -13 -3 -25q0 -29 31 -38t129 -9q80 0 149 13t137.5 47.5t121 89.5t94 144t62.5 206q15 86 15 173q0 100 -22.5 184t-70 153.5t-132 109t-198.5 39.5q-62 0 -94.5 -13.5t-40.5 -58.5l-85 -487h173l-16 -94h-174zM47 0l-4 4l8 45q3 19 19 19h28q59 0 87.5 20.5 t35.5 69.5l76 430h-141l16 94h142l85 483q3 15 3 28q0 33 -22.5 47.5t-72.5 14.5h-28q-5 0 -9.5 5t-3.5 12l8 47l7 4h581q264 0 431 -163.5t167 -409.5q0 -60 -10 -117q-26 -145 -88.5 -258.5t-142 -182.5t-178.5 -113.5t-190.5 -61.5t-186.5 -17h-617z" />
<glyph unicode="&#xd1;" horiz-adv-x="1519" d="M457 1120q-43 115 -154 131l-29 4q-19 2 -20 19l-4 47l4 4q315 -2 395 -2l615 -973h4l145 815q8 49 -12 63t-82 23l-29 4q-14 2 -14 17l6 49l4 2q131 -2 211 -2l244 2l4 -2l-4 -49q-3 -15 -21 -17l-28 -4q-64 -10 -94 -28t-37 -58l-195 -1114q-6 -35 -32.5 -55.5 t-69.5 -20.5q-71 0 -105 56l-538 876q-20 34 -33 34q-16 0 -23 -44l-131 -739q-7 -42 23 -61.5t78 -26.5l28 -4q15 -2 15 -19l-7 -47l-4 -4q-176 4 -250 4l-204 -4l-4 4l4 47q1 17 20 19l29 4q64 9 90.5 25.5t34.5 62.5zM1176 1528q35 0 60.5 23.5t57.5 91.5l49 -21 q-38 -102 -93 -157.5t-124 -55.5q-21 0 -44 10.5t-35 19t-39 29.5q-64 52 -103 52t-64.5 -23.5t-52.5 -81.5l-49 17q41 104 90 156t113 52q28 0 55 -10.5t42.5 -21.5t37.5 -31q53 -49 99 -49z" />
<glyph unicode="&#xd2;" horiz-adv-x="1503" d="M969 1264q-86 0 -165 -46t-137.5 -123t-102.5 -175t-66.5 -206t-22.5 -212q0 -208 96 -325.5t252 -117.5q105 0 198 69t155 179t97.5 245.5t35.5 270.5q0 211 -94.5 326t-245.5 115zM768 -25q-253 0 -411 143.5t-158 387.5q0 99 27.5 201t76.5 195t123 174.5t161.5 142 t197 95t225.5 34.5q161 0 291 -66t206 -191.5t76 -289.5q0 -153 -58 -300.5t-161 -264.5t-259 -189t-337 -72zM965 1677l221 -172q24 -19 24 -39q0 -12 -7.5 -23t-26.5 -11q-29 0 -84 24l-297 129z" />
<glyph unicode="&#xd3;" horiz-adv-x="1503" d="M969 1264q-86 0 -165 -46t-137.5 -123t-102.5 -175t-66.5 -206t-22.5 -212q0 -208 96 -325.5t252 -117.5q105 0 198 69t155 179t97.5 245.5t35.5 270.5q0 211 -94.5 326t-245.5 115zM768 -25q-253 0 -411 143.5t-158 387.5q0 99 27.5 201t76.5 195t123 174.5t161.5 142 t197 95t225.5 34.5q161 0 291 -66t206 -191.5t76 -289.5q0 -153 -58 -300.5t-161 -264.5t-259 -189t-337 -72zM1110 1688l119 -115l-314 -119q-63 -24 -92 -24q-24 0 -24 24v6q5 34 30 51z" />
<glyph unicode="&#xd4;" horiz-adv-x="1503" d="M969 1264q-86 0 -165 -46t-137.5 -123t-102.5 -175t-66.5 -206t-22.5 -212q0 -208 96 -325.5t252 -117.5q105 0 198 69t155 179t97.5 245.5t35.5 270.5q0 211 -94.5 326t-245.5 115zM768 -25q-253 0 -411 143.5t-158 387.5q0 99 27.5 201t76.5 195t123 174.5t161.5 142 t197 95t225.5 34.5q161 0 291 -66t206 -191.5t76 -289.5q0 -153 -58 -300.5t-161 -264.5t-259 -189t-337 -72zM1102 1649q62 -93 176 -193l-47 -43q-114 57 -191 121q-106 -68 -229 -121l-31 43q100 66 234 193h88z" />
<glyph unicode="&#xd5;" horiz-adv-x="1503" d="M969 1264q-86 0 -165 -46t-137.5 -123t-102.5 -175t-66.5 -206t-22.5 -212q0 -208 96 -325.5t252 -117.5q105 0 198 69t155 179t97.5 245.5t35.5 270.5q0 211 -94.5 326t-245.5 115zM768 -25q-253 0 -411 143.5t-158 387.5q0 99 27.5 201t76.5 195t123 174.5t161.5 142 t197 95t225.5 34.5q161 0 291 -66t206 -191.5t76 -289.5q0 -153 -58 -300.5t-161 -264.5t-259 -189t-337 -72zM1145 1534q35 0 61 23.5t58 91.5l49 -21q-38 -102 -93 -157.5t-124 -55.5q-21 0 -44.5 10.5t-35.5 19t-39 30.5q-62 51 -103 51q-39 0 -64 -23.5t-52 -81.5 l-49 17q41 104 89.5 156.5t112.5 52.5q41 0 71.5 -17t64.5 -47q53 -49 98 -49z" />
<glyph unicode="&#xd6;" horiz-adv-x="1503" d="M434 1434q0 46 32.5 78t78.5 32t78 -32t32 -78t-32 -78.5t-78 -32.5t-78.5 32.5t-32.5 78.5zM1358 1434q0 46 32 78t78 32t78.5 -32t32.5 -78t-32.5 -78.5t-78.5 -32.5t-78 32.5t-32 78.5zM969 1264q-86 0 -165 -46t-137.5 -123t-102.5 -175t-66.5 -206t-22.5 -212 q0 -208 96 -325.5t252 -117.5q105 0 198 69t155 179t97.5 245.5t35.5 270.5q0 211 -94.5 326t-245.5 115zM768 -25q-253 0 -411 143.5t-158 387.5q0 99 27.5 201t76.5 195t123 174.5t161.5 142t197 95t225.5 34.5q161 0 291 -66t206 -191.5t76 -289.5q0 -153 -58 -300.5 t-161 -264.5t-259 -189t-337 -72z" />
<glyph unicode="&#xd7;" horiz-adv-x="1128" d="M688 563l289 240l88 -109l-289 -239l191 -240l-131 -109l-191 238l-289 -238l-86 109l287 240l-190 239l131 109z" />
<glyph unicode="&#xd8;" horiz-adv-x="1503" d="M199 -82l-72 53l189 191q-117 139 -117 344q0 99 27.5 201t76.5 195t123 174.5t161.5 142t197 95t225.5 34.5q213 0 367 -115l139 139l69 -49l-144 -146q142 -148 142 -376q0 -153 -58 -300.5t-161 -264.5t-259 -189t-337 -72q-237 0 -390 125zM969 1264q-86 0 -165 -46 t-137.5 -123t-102.5 -175t-66.5 -206t-22.5 -212q0 -89 18 -161l753 760q-45 80 -116.5 121.5t-160.5 41.5zM1282 1016l-756 -766q44 -92 121.5 -141.5t175.5 -49.5q105 0 198 69t155 179t97.5 245.5t35.5 270.5q0 106 -27 193z" />
<glyph unicode="&#xd9;" horiz-adv-x="1398" d="M1307 1165q4 16 4 27q0 33 -24 48t-77 15h-28q-15 0 -15 17l11 49l4 2q153 -2 233 -2l234 2l4 -2l-8 -49q-3 -17 -21 -17h-29q-61 0 -90 -22.5t-37 -67.5l-100 -565q-20 -117 -48 -206t-78 -171t-118.5 -134t-171 -83t-235.5 -31q-59 0 -114.5 9t-115.5 35.5t-104 67.5 t-73 111t-29 160q0 56 12 123l119 684q4 16 4 27q0 33 -24 48t-77 15h-28q-15 0 -15 17l11 49l4 2q198 -2 278 -2l281 2l4 -2l-10 -49q-3 -17 -19 -17h-28q-61 0 -91 -22.5t-38 -67.5l-109 -616q-23 -152 -23 -199q0 -63 18.5 -113.5t46.5 -79.5t62.5 -49t63.5 -27t53 -7 q87 0 156 31t113 77t77 115.5t50 130.5t30 137zM911 1675l222 -172q24 -19 24 -39q0 -11 -8 -22.5t-27 -11.5q-29 0 -84 24l-297 129z" />
<glyph unicode="&#xda;" horiz-adv-x="1398" d="M1307 1165q4 16 4 27q0 33 -24 48t-77 15h-28q-15 0 -15 17l11 49l4 2q153 -2 233 -2l234 2l4 -2l-8 -49q-3 -17 -21 -17h-29q-61 0 -90 -22.5t-37 -67.5l-100 -565q-20 -117 -48 -206t-78 -171t-118.5 -134t-171 -83t-235.5 -31q-59 0 -114.5 9t-115.5 35.5t-104 67.5 t-73 111t-29 160q0 56 12 123l119 684q4 16 4 27q0 33 -24 48t-77 15h-28q-15 0 -15 17l11 49l4 2q198 -2 278 -2l281 2l4 -2l-10 -49q-3 -17 -19 -17h-28q-61 0 -91 -22.5t-38 -67.5l-109 -616q-23 -152 -23 -199q0 -63 18.5 -113.5t46.5 -79.5t62.5 -49t63.5 -27t53 -7 q87 0 156 31t113 77t77 115.5t50 130.5t30 137zM1155 1686l119 -115l-313 -119q-65 -25 -93 -25q-24 0 -24 25v6q5 34 30 51z" />
<glyph unicode="&#xdb;" horiz-adv-x="1398" d="M1307 1165q4 16 4 27q0 33 -24 48t-77 15h-28q-15 0 -15 17l11 49l4 2q153 -2 233 -2l234 2l4 -2l-8 -49q-3 -17 -21 -17h-29q-61 0 -90 -22.5t-37 -67.5l-100 -565q-20 -117 -48 -206t-78 -171t-118.5 -134t-171 -83t-235.5 -31q-59 0 -114.5 9t-115.5 35.5t-104 67.5 t-73 111t-29 160q0 56 12 123l119 684q4 16 4 27q0 33 -24 48t-77 15h-28q-15 0 -15 17l11 49l4 2q198 -2 278 -2l281 2l4 -2l-10 -49q-3 -17 -19 -17h-28q-61 0 -91 -22.5t-38 -67.5l-109 -616q-23 -152 -23 -199q0 -63 18.5 -113.5t46.5 -79.5t62.5 -49t63.5 -27t53 -7 q87 0 156 31t113 77t77 115.5t50 130.5t30 137zM1104 1649q62 -93 176 -193l-47 -43q-114 57 -191 121q-106 -68 -229 -121l-31 43q100 66 234 193h88z" />
<glyph unicode="&#xdc;" horiz-adv-x="1398" d="M768 1391q0 46 32.5 78t78.5 32t78 -32t32 -78t-32 -78.5t-78 -32.5t-78.5 32.5t-32.5 78.5zM1049 1391q0 46 32 78t78 32t78.5 -32t32.5 -78t-32.5 -78.5t-78.5 -32.5t-78 32.5t-32 78.5zM1307 1165l18 90q-14 0 -14 17l10 49l4 2q10 -2 90 -2l234 2l4 -2l-8 -49 q-3 -17 -21 -17h-29q-61 0 -90 -22.5t-37 -67.5l-100 -565q-20 -117 -48 -206t-78 -171t-118.5 -134t-171 -83t-235.5 -31q-59 0 -114.5 9t-115.5 35.5t-104 67.5t-73 111t-29 160q0 56 12 123l119 684q4 16 4 27q0 33 -24 48t-77 15h-28q-15 0 -15 17l11 49l4 2 q198 -2 278 -2l137 2l5 -2l-11 -49q-3 -17 -18 -17q-1 0 -1.5 -5.5t-3.5 -29t-9 -55.5l-109 -616q-23 -152 -23 -199q0 -63 18.5 -113.5t46.5 -79.5t62.5 -49t63.5 -27t53 -7q87 0 156 31t113 77t77 115.5t50 130.5t30 137z" />
<glyph unicode="&#xdd;" horiz-adv-x="1212" d="M526 147l74 428l-209 558q-33 82 -56.5 102t-68.5 20h-22q-10 0 -16 4t-5 11l10 51l5 2q222 -2 249 -2l224 2l4 -2l-8 -49q-4 -17 -17 -17q-41 0 -61.5 -2t-33 -10t-11.5 -22.5t12 -40.5l184 -496l340 496q22 31 2 53t-73 22q-14 0 -9 15l9 51l4 2q155 -2 178 -2l211 2 l4 -2l-8 -49q-3 -17 -23 -17h-41q-46 0 -74 -15.5t-61 -63.5l-393 -576l-80 -453q-9 -46 12.5 -62.5t81.5 -16.5h51q7 0 11.5 -5.5t3.5 -13.5l-8 -47l-7 -4q-212 4 -288 4l-295 -4v4l8 47q3 19 16 19h54q59 0 85.5 18t34.5 61zM1075 1688l119 -115l-313 -119 q-63 -24 -93 -24q-24 0 -24 24v6q5 34 31 51z" />
<glyph unicode="&#xde;" horiz-adv-x="1148" d="M606 977l-104 -590q32 -8 137 -8q58 0 106 14t94 48t79.5 100t50.5 161q9 49 9 100q0 202 -192 202q-58 0 -180 -27zM313 2l-268 -4l-2 4l8 47q3 19 19 19h28q59 0 87.5 20.5t35.5 69.5l178 1007q3 15 3 28q0 33 -22.5 47.5t-72.5 14.5h-28q-5 0 -9.5 5t-3.5 12l8 49l7 2 q194 -2 272 -2l285 2l4 -2l-8 -49q-3 -17 -19 -17h-51q-59 0 -88 -21.5t-37 -66.5l-16 -100q72 4 198 4q90 0 160.5 -18.5t113.5 -48.5t70.5 -71t38 -81.5t10.5 -85.5q0 -24 -6 -64q-9 -49 -33.5 -100.5t-70.5 -105t-106.5 -95t-148 -68t-187.5 -26.5q-134 0 -173 15 l-28 -164q-2 -18 -2 -25q0 -35 22 -50t72 -15h51q17 0 14 -19l-8 -47l-4 -4q-215 4 -293 4z" />
<glyph unicode="&#xdf;" horiz-adv-x="1204" d="M651 266q24 0 44 -14t20 -47q0 -25 -21.5 -57.5t-21.5 -49.5q0 -28 20 -36.5t58 -8.5q47 0 88 56t63.5 138.5t22.5 166.5q0 226 -187 397l6 27q21 14 48 35.5t67 62.5t71 84.5t54 103t23 117.5q0 62 -17 88.5t-71 26.5q-29 0 -55 -8.5t-46.5 -20.5t-40 -37t-34 -47 t-30 -62t-26 -70t-25 -83.5t-23.5 -90.5t-24 -101q-22 -94 -61.5 -263.5t-59 -252t-52.5 -207.5t-57.5 -196.5t-58 -147.5t-69.5 -127q-42 -61 -116 -95t-158 -34q-93 0 -134 33.5t-41 68.5q0 27 19.5 52.5t60.5 25.5q28 0 46.5 -14.5t26 -32.5t23 -32.5t37.5 -14.5 q46 0 84 36q41 41 93.5 246t89.5 408l90 489q7 39 -25 39h-90q-10 0 -10 4q0 20 14.5 44t46.5 24q45 0 70.5 22t38.5 66q33 120 89.5 210t128 141.5t149 76.5t161.5 25q132 0 211.5 -58t79.5 -131q0 -60 -29 -117.5t-84 -110t-104.5 -89.5t-118.5 -82l-2 -4q47 -34 77 -58 t73 -65.5t68 -79t44 -89t19 -104.5q0 -73 -36 -154.5t-95 -149.5t-144 -113t-174 -45q-96 0 -144 40t-48 99q0 69 36.5 108t71.5 39z" />
<glyph unicode="&#xe0;" horiz-adv-x="1105" d="M764 399q27 73 45 160t18 119q0 62 -26.5 106.5t-69.5 44.5q-78 0 -154.5 -86t-121.5 -207t-45 -227q0 -48 3.5 -83.5t13.5 -70.5t31.5 -54t53.5 -19q44 0 123.5 97t128.5 220zM696 80q0 27 2 39l-4 2q-93 -88 -141 -114.5t-111 -26.5q-76 0 -133.5 28.5t-88.5 74 t-45.5 93t-14.5 94.5q0 116 55.5 235t138.5 206t183.5 142.5t187.5 55.5q137 0 172 -106q68 48 117 106l112 6q4 0 4 -6q-45 -172 -64 -252l-97 -401q-15 -65 -15 -86q0 -33 19 -33q30 0 117 78l51 -47q-112 -110 -176 -149t-142 -39q-69 0 -98 31.5t-29 68.5zM778 1372 l84 -244q6 -12 6 -30q0 -4 -1 -11t-1 -10q-3 -14 -16.5 -24.5t-28.5 -10.5t-51 41l-188 224l10 22q20 15 60.5 31t86.5 16q27 0 39 -4z" />
<glyph unicode="&#xe1;" horiz-adv-x="1105" d="M764 399q27 73 45 160t18 119q0 62 -26.5 106.5t-69.5 44.5q-78 0 -154.5 -86t-121.5 -207t-45 -227q0 -48 3.5 -83.5t13.5 -70.5t31.5 -54t53.5 -19q44 0 123.5 97t128.5 220zM696 80q0 27 2 39l-4 2q-93 -88 -141 -114.5t-111 -26.5q-76 0 -133.5 28.5t-88.5 74 t-45.5 93t-14.5 94.5q0 116 55.5 235t138.5 206t183.5 142.5t187.5 55.5q137 0 172 -106q68 48 117 106l112 6q4 0 4 -6q-45 -172 -64 -252l-97 -401q-15 -65 -15 -86q0 -33 19 -33q30 0 117 78l51 -47q-112 -110 -176 -149t-142 -39q-69 0 -98 31.5t-29 68.5zM858 1358 q12 4 31 4q26 0 45 -6t27.5 -12.5t17.5 -16.5t12 -12l13 -49l-281 -209q-39 -29 -78 -29q-10 0 -17 7t-7 16q0 21 22 49z" />
<glyph unicode="&#xe2;" horiz-adv-x="1105" d="M764 399q27 73 45 160t18 119q0 62 -26.5 106.5t-69.5 44.5q-78 0 -154.5 -86t-121.5 -207t-45 -227q0 -48 3.5 -83.5t13.5 -70.5t31.5 -54t53.5 -19q44 0 123.5 97t128.5 220zM696 80q0 27 2 39l-4 2q-93 -88 -141 -114.5t-111 -26.5q-76 0 -133.5 28.5t-88.5 74 t-45.5 93t-14.5 94.5q0 116 55.5 235t138.5 206t183.5 142.5t187.5 55.5q137 0 172 -106q68 48 117 106l112 6q4 0 4 -6q-45 -172 -64 -252l-97 -401q-15 -65 -15 -86q0 -33 19 -33q30 0 117 78l51 -47q-112 -110 -176 -149t-142 -39q-69 0 -98 31.5t-29 68.5zM836 1323 q42 -99 153 -264l-57 -37q-61 48 -99.5 84.5t-74.5 87.5q-100 -85 -246 -172l-41 37q189 176 262 264h103z" />
<glyph unicode="&#xe3;" horiz-adv-x="1105" d="M764 399q27 73 45 160t18 119q0 62 -26.5 106.5t-69.5 44.5q-78 0 -154.5 -86t-121.5 -207t-45 -227q0 -48 3.5 -83.5t13.5 -70.5t31.5 -54t53.5 -19q44 0 123.5 97t128.5 220zM696 80q0 27 2 39l-4 2q-93 -88 -141 -114.5t-111 -26.5q-76 0 -133.5 28.5t-88.5 74 t-45.5 93t-14.5 94.5q0 116 55.5 235t138.5 206t183.5 142.5t187.5 55.5q137 0 172 -106q68 48 117 106l112 6q4 0 4 -6q-45 -172 -64 -252l-97 -401q-15 -65 -15 -86q0 -33 19 -33q30 0 117 78l51 -47q-112 -110 -176 -149t-142 -39q-69 0 -98 31.5t-29 68.5zM881 1178 q35 0 60.5 23t57.5 91l50 -20q-37 -102 -93 -157.5t-125 -55.5q-21 0 -44 10.5t-35 19t-39 29.5q-62 51 -103 51q-39 0 -64 -23t-52 -81l-50 16q41 104 90 156.5t113 52.5q28 0 55 -10.5t42.5 -21.5t37.5 -31q53 -49 99 -49z" />
<glyph unicode="&#xe4;" horiz-adv-x="1105" d="M764 399q27 73 45 160t18 119q0 62 -26.5 106.5t-69.5 44.5q-78 0 -154.5 -86t-121.5 -207t-45 -227q0 -48 3.5 -83.5t13.5 -70.5t31.5 -54t53.5 -19q44 0 123.5 97t128.5 220zM696 80q0 27 2 39l-4 2q-93 -88 -141 -114.5t-111 -26.5q-76 0 -133.5 28.5t-88.5 74 t-45.5 93t-14.5 94.5q0 116 55.5 235t138.5 206t183.5 142.5t187.5 55.5q137 0 172 -106q68 48 117 106l112 6q4 0 4 -6q-45 -172 -64 -252l-97 -401q-15 -65 -15 -86q0 -33 19 -33q30 0 117 78l51 -47q-112 -110 -176 -149t-142 -39q-69 0 -98 31.5t-29 68.5zM449 1171 q0 46 32 78.5t78 32.5t78.5 -32.5t32.5 -78.5t-32.5 -78t-78.5 -32t-78 32t-32 78zM817 1171q0 46 32.5 78.5t78.5 32.5t78 -32.5t32 -78.5t-32 -78t-78 -32t-78.5 32t-32.5 78z" />
<glyph unicode="&#xe5;" horiz-adv-x="1105" d="M764 399q27 73 45 160t18 119q0 62 -26.5 106.5t-69.5 44.5q-78 0 -154.5 -86t-121.5 -207t-45 -227q0 -48 3.5 -83.5t13.5 -70.5t31.5 -54t53.5 -19q44 0 123.5 97t128.5 220zM696 80q0 27 2 39l-4 2q-93 -88 -141 -114.5t-111 -26.5q-76 0 -133.5 28.5t-88.5 74 t-45.5 93t-14.5 94.5q0 116 55.5 235t138.5 206t183.5 142.5t187.5 55.5q137 0 172 -106q68 48 117 106l112 6q4 0 4 -6q-45 -172 -64 -252l-97 -401q-15 -65 -15 -86q0 -33 19 -33q30 0 117 78l51 -47q-112 -110 -176 -149t-142 -39q-69 0 -98 31.5t-29 68.5zM778 1268 q-44 0 -79.5 -32t-43.5 -75q-2 -6 -2 -20q0 -35 22 -59.5t60 -24.5q42 0 77.5 31.5t43.5 72.5q2 8 2 23q0 37 -22.5 60.5t-57.5 23.5zM580 1161q15 70 76 120t132 50q63 0 104.5 -38.5t41.5 -98.5q0 -9 -4 -33q-12 -69 -74 -119.5t-135 -50.5q-63 0 -103 39t-40 98 q0 23 2 33z" />
<glyph unicode="&#xe6;" horiz-adv-x="1464" d="M1229 825q-78 0 -147 -82.5t-113 -210.5q171 11 251.5 46t100.5 116q2 10 2 29q0 41 -26 71.5t-68 30.5zM639 211q19 37 66 217q-145 -18 -232.5 -73.5t-103.5 -127.5q-7 -28 -7 -49q0 -100 109 -100q92 0 168 133zM731 784q-37 50 -74 50q-48 0 -92.5 -22t-52.5 -62 l-8 -37q7 -27 4 -41q-7 -29 -45.5 -51.5t-95.5 -22.5t-82 22t-25 54q0 14 2 22q21 90 147.5 152.5t272.5 62.5q34 0 74 -5.5t97.5 -30t88.5 -64.5q133 100 307 100q85 0 150.5 -18.5t100.5 -48.5t52 -61t17 -62q0 -3 -1 -10.5t-1 -10.5q-20 -84 -79.5 -133.5t-188 -79 t-355.5 -43.5q-14 -60 -14 -118q0 -107 45.5 -171.5t120.5 -64.5q62 0 120.5 32.5t133.5 100.5l71 -53q-66 -88 -166 -141.5t-215 -53.5q-198 0 -286 105q-63 -48 -145.5 -76.5t-164.5 -28.5q-156 0 -237.5 52.5t-81.5 142.5q0 25 6 49q30 134 177.5 205.5t416.5 93.5 q27 129 27 189q0 53 -21 77z" />
<glyph unicode="&#xe7;" horiz-adv-x="909" d="M449 -168q-36 0 -97 -31l-18 35l95 149q-81 16 -148 72.5t-100.5 124.5t-33.5 129q0 123 49 236t126.5 191t174.5 124.5t193 46.5q81 0 141 -19.5t93.5 -52t49 -69.5t15.5 -78q0 -35 -26.5 -59.5t-53.5 -33.5t-47 -9q-110 0 -110 74q0 17 4 40t4 56q0 38 -22 54.5 t-42 16.5q-51 0 -103 -33t-95 -92t-70 -151t-27 -199q0 -67 11 -117.5t26.5 -78.5t37 -45.5t39.5 -23t36 -5.5q40 0 117.5 44.5t134.5 109.5l82 -70q-79 -81 -159 -128.5t-189 -57.5l-50 -80l35 4q70 0 111 -28.5t41 -80.5q0 -16 -2 -24q-13 -68 -89.5 -106t-191.5 -38 q-55 0 -93 10.5t-87 34.5l37 47q70 -32 143 -32q33 0 70.5 20t44.5 53v11q0 23 -20 41t-37 18z" />
<glyph unicode="&#xe8;" horiz-adv-x="970" d="M745 748q0 71 -79 71q-68 0 -127 -80t-109 -280q315 52 315 289zM973 756q0 -22 -2.5 -41t-14.5 -52.5t-33 -62t-62.5 -63t-98 -62t-144.5 -53t-198 -41.5q-6 -67 7.5 -118t38.5 -77t50.5 -38.5t50.5 -12.5q169 0 310 150q22 0 39 -18t14 -42q-87 -120 -207.5 -182.5 t-261.5 -62.5q-86 0 -146.5 30t-92.5 83t-46 113t-14 132q0 71 23 148t71 152.5t113.5 136t160.5 97.5t203 37q240 0 240 -153zM766 1372l84 -244q6 -12 6 -30q0 -4 -1 -11t-1 -10q-3 -14 -16.5 -24.5t-28.5 -10.5t-51 41l-189 224l11 22q20 15 60.5 31t86.5 16q27 0 39 -4z " />
<glyph unicode="&#xe9;" horiz-adv-x="970" d="M745 748q0 71 -79 71q-68 0 -127 -80t-109 -280q315 52 315 289zM973 756q0 -22 -2.5 -41t-14.5 -52.5t-33 -62t-62.5 -63t-98 -62t-144.5 -53t-198 -41.5q-6 -67 7.5 -118t38.5 -77t50.5 -38.5t50.5 -12.5q169 0 310 150q22 0 39 -18t14 -42q-87 -120 -207.5 -182.5 t-261.5 -62.5q-86 0 -146.5 30t-92.5 83t-46 113t-14 132q0 71 23 148t71 152.5t113.5 136t160.5 97.5t203 37q240 0 240 -153zM872 1362q12 4 31 4q26 0 45.5 -6t27.5 -12.5t17.5 -16.5t12.5 -12l12 -49l-281 -209q-39 -29 -78 -29q-10 0 -17 7t-7 16q0 21 22 49z" />
<glyph unicode="&#xea;" horiz-adv-x="970" d="M745 748q0 71 -79 71q-68 0 -127 -80t-109 -280q315 52 315 289zM973 756q0 -22 -2.5 -41t-14.5 -52.5t-33 -62t-62.5 -63t-98 -62t-144.5 -53t-198 -41.5q-6 -67 7.5 -118t38.5 -77t50.5 -38.5t50.5 -12.5q169 0 310 150q22 0 39 -18t14 -42q-87 -120 -207.5 -182.5 t-261.5 -62.5q-86 0 -146.5 30t-92.5 83t-46 113t-14 132q0 71 23 148t71 152.5t113.5 136t160.5 97.5t203 37q240 0 240 -153zM829 1323q40 -95 154 -264l-57 -37q-61 48 -99.5 84.5t-74.5 87.5q-100 -85 -246 -172l-41 37q189 176 262 264h102z" />
<glyph unicode="&#xeb;" horiz-adv-x="970" d="M745 756q0 71 -79 71q-68 0 -127 -80t-109 -280q315 52 315 289zM973 764q0 -22 -2.5 -41t-14.5 -52.5t-33 -62t-62.5 -63t-98 -62t-144.5 -53t-198 -41.5q-6 -67 7.5 -118t38.5 -77t50.5 -38.5t50.5 -12.5q169 0 310 150q22 0 39 -18t14 -42q-87 -120 -207.5 -182.5 t-261.5 -62.5q-86 0 -146.5 30t-92.5 83t-46 113t-14 132q0 71 23 148t71 153t113.5 136t160.5 97.5t203 37.5q240 0 240 -154zM465 1171q0 46 32 78.5t78 32.5t78.5 -32.5t32.5 -78.5t-32.5 -78t-78.5 -32t-78 32t-32 78zM834 1171q0 46 32 78.5t78 32.5t78.5 -32.5 t32.5 -78.5t-32.5 -78t-78.5 -32t-78 32t-32 78z" />
<glyph unicode="&#xec;" horiz-adv-x="667" d="M595 656l-93 -382q-19 -84 -19 -105q0 -34 21 -34q16 0 54.5 20.5t74.5 49.5q21 0 35 -15t18 -38q-109 -90 -191 -131t-173 -41q-92 0 -92 115q0 63 24 161l92 391q19 77 19 105q0 16 -9.5 28t-27.5 13l-82 6q-9 13 -8.5 34t10.5 33q216 27 346 27q42 0 42 -43 q0 -12 -4 -35.5t-8.5 -42.5t-14.5 -58.5t-14 -57.5zM567 1372l84 -244q6 -12 6 -30q0 -4 -1 -11t-1 -10q-3 -14 -16.5 -24.5t-28.5 -10.5t-51 41l-188 224l10 22q20 15 60.5 31t86.5 16q27 0 39 -4z" />
<glyph unicode="&#xed;" horiz-adv-x="667" d="M595 656l-93 -382q-19 -84 -19 -105q0 -34 21 -34q16 0 54.5 20.5t74.5 49.5q21 0 35 -15t18 -38q-109 -90 -191 -131t-173 -41q-92 0 -92 115q0 63 24 161l92 391q19 77 19 105q0 16 -9.5 28t-27.5 13l-82 6q-9 13 -8.5 34t10.5 33q216 27 346 27q42 0 42 -43 q0 -12 -4 -35.5t-8.5 -42.5t-14.5 -58.5t-14 -57.5zM682 1362q12 4 31 4q26 0 45 -6t27.5 -12.5t17.5 -16.5t12 -12l12 -49l-280 -209q-39 -29 -78 -29q-10 0 -17.5 7t-7.5 16q0 20 23 49z" />
<glyph unicode="&#xee;" horiz-adv-x="667" d="M595 656l-93 -382q-19 -84 -19 -105q0 -34 21 -34q16 0 54.5 20.5t74.5 49.5q21 0 35 -15t18 -38q-109 -90 -191 -131t-173 -41q-92 0 -92 115q0 63 24 161l92 391q19 77 19 105q0 16 -9.5 28t-27.5 13l-82 6q-9 13 -8.5 34t10.5 33q216 27 346 27q42 0 42 -43 q0 -12 -4 -35.5t-8.5 -42.5t-14.5 -58.5t-14 -57.5zM639 1323q40 -95 154 -264l-58 -37q-61 48 -99.5 84.5t-74.5 87.5q-100 -85 -246 -172l-41 37q4 4 32.5 30t36 33t32 31t35.5 34.5t32 31.5t34 35.5t30 33t31 35.5h102z" />
<glyph unicode="&#xef;" horiz-adv-x="667" d="M595 656l-93 -382q-19 -84 -19 -105q0 -34 21 -34q16 0 54.5 20.5t74.5 49.5q21 0 35 -15t18 -38q-109 -90 -191 -131t-173 -41q-92 0 -92 115q0 63 24 161l92 391q19 77 19 105q0 16 -9.5 28t-27.5 13l-82 6q-9 13 -8.5 34t10.5 33q216 27 346 27q42 0 42 -43 q0 -12 -4 -35.5t-8.5 -42.5t-14.5 -58.5t-14 -57.5zM291 1171q0 46 32 78.5t78 32.5t78.5 -32.5t32.5 -78.5t-32.5 -78t-78.5 -32t-78 32t-32 78zM659 1171q0 46 32.5 78.5t78.5 32.5t78.5 -32.5t32.5 -78.5t-32.5 -78t-78.5 -32t-78.5 32t-32.5 78z" />
<glyph unicode="&#xf0;" horiz-adv-x="1048" d="M547 70q26 0 53 9t60.5 35.5t63 68.5t59.5 113.5t51 164.5q28 128 28 237q0 25 -2 35l8 -2q-26 43 -64.5 68.5t-84.5 25.5q-49 0 -92.5 -23.5t-75 -60t-57.5 -85.5t-42.5 -95.5t-27.5 -95.5q-21 -85 -21 -158q0 -108 39 -172.5t105 -64.5zM170 428q24 102 73.5 186.5 t110 138t131 90.5t134.5 52.5t122 15.5q49 0 101 -10q-30 141 -84 246q-120 -70 -260 -152l-43 99l247 143q-10 13 -20 29q-75 89 -117 125l68 69q141 -86 203 -145q49 29 153 89t111 64l45 -98l-232 -133q3 -3 8.5 -9.5t9.5 -12t7 -9.5q178 -234 178 -516q0 -105 -22 -201 q-30 -127 -93 -227.5t-145.5 -161.5t-175 -93t-188.5 -32q-84 0 -150 28t-106 76.5t-60 108.5t-20 129q0 59 14 111z" />
<glyph unicode="&#xf1;" horiz-adv-x="1241" d="M797 256l71 307q25 109 26 135q2 67 -50 68q-37 0 -109.5 -62t-142.5 -167q-79 -119 -142 -390q-2 -9 -7 -36t-8 -39.5t-13 -33.5t-24 -31t-39.5 -18.5t-59.5 -8.5q-73 0 -95 13t-22 42q0 9 4 26.5t11.5 45.5t10.5 40l116 510q12 53 12 95q0 39 -31 41l-82 6 q-10 14 -11 34t9 33q216 27 334 27q42 0 42 -43q0 -32 -45 -194l-11 -40l2 -2q141 166 245 225.5t256 59.5q45 0 69.5 -28.5t28 -78t-2.5 -101t-21 -111.5l-74 -306q-19 -74 -19 -105q0 -34 22 -34q16 0 54.5 20.5t74.5 49.5q21 0 35 -15t18 -38q-109 -90 -191.5 -131 t-173.5 -41q-92 0 -92 115q0 51 25 161zM1006 1178q35 0 60.5 23t57.5 91l50 -20q-37 -102 -93 -157.5t-125 -55.5q-21 0 -44 10.5t-35 19t-39 29.5q-62 51 -103 51q-39 0 -64.5 -23t-52.5 -81l-49 16q41 104 90 156.5t113 52.5q28 0 55 -10.5t42.5 -21.5t37.5 -31 q53 -49 99 -49z" />
<glyph unicode="&#xf2;" horiz-adv-x="1038" d="M406 354q0 -88 16 -150t41.5 -89.5t47.5 -38t44 -10.5q57 0 102.5 39t72 96t44.5 127t24.5 127t6.5 102q0 51 -6.5 95t-21.5 84.5t-44.5 63.5t-70.5 23q-57 0 -102.5 -32t-73.5 -81.5t-47 -114t-26 -124t-7 -117.5zM147 338q0 75 21.5 153.5t67.5 153.5t109.5 133.5 t155.5 94.5t199 36q101 0 174.5 -31.5t112 -83.5t55.5 -107.5t17 -115.5q0 -118 -47.5 -228.5t-124.5 -189t-178 -126t-205 -47.5q-83 0 -149 27t-104 66.5t-62.5 90.5t-33 93.5t-8.5 80.5zM762 1372l84 -244q6 -12 6 -30q0 -4 -1 -11t-1 -10q-3 -14 -16.5 -24.5 t-28.5 -10.5t-51 41l-189 224l10 22q20 15 61 31t87 16q27 0 39 -4z" />
<glyph unicode="&#xf3;" horiz-adv-x="1038" d="M406 354q0 -88 16 -150t41.5 -89.5t47.5 -38t44 -10.5q57 0 102.5 39t72 96t44.5 127t24.5 127t6.5 102q0 51 -6.5 95t-21.5 84.5t-44.5 63.5t-70.5 23q-57 0 -102.5 -32t-73.5 -81.5t-47 -114t-26 -124t-7 -117.5zM147 338q0 75 21.5 153.5t67.5 153.5t109.5 133.5 t155.5 94.5t199 36q101 0 174.5 -31.5t112 -83.5t55.5 -107.5t17 -115.5q0 -118 -47.5 -228.5t-124.5 -189t-178 -126t-205 -47.5q-83 0 -149 27t-104 66.5t-62.5 90.5t-33 93.5t-8.5 80.5zM754 1362q12 4 30 4q26 0 45.5 -6t27.5 -12.5t17.5 -16.5t12.5 -12l12 -49 l-281 -209q-39 -29 -77 -29q-10 0 -17.5 7t-7.5 16q0 20 23 49z" />
<glyph unicode="&#xf4;" horiz-adv-x="1038" d="M406 354q0 -88 16 -150t41.5 -89.5t47.5 -38t44 -10.5q57 0 102.5 39t72 96t44.5 127t24.5 127t6.5 102q0 51 -6.5 95t-21.5 84.5t-44.5 63.5t-70.5 23q-57 0 -102.5 -32t-73.5 -81.5t-47 -114t-26 -124t-7 -117.5zM147 338q0 75 21.5 153.5t67.5 153.5t109.5 133.5 t155.5 94.5t199 36q101 0 174.5 -31.5t112 -83.5t55.5 -107.5t17 -115.5q0 -118 -47.5 -228.5t-124.5 -189t-178 -126t-205 -47.5q-83 0 -149 27t-104 66.5t-62.5 90.5t-33 93.5t-8.5 80.5zM823 1321q40 -95 154 -264l-57 -37q-62 49 -100.5 85t-74.5 87q-102 -87 -245 -172 l-41 37q189 176 262 264h102z" />
<glyph unicode="&#xf5;" horiz-adv-x="1038" d="M406 354q0 -88 16 -150t41.5 -89.5t47.5 -38t44 -10.5q57 0 102.5 39t72 96t44.5 127t24.5 127t6.5 102q0 51 -6.5 95t-21.5 84.5t-44.5 63.5t-70.5 23q-57 0 -102.5 -32t-73.5 -81.5t-47 -114t-26 -124t-7 -117.5zM147 338q0 75 21.5 153.5t67.5 153.5t109.5 133.5 t155.5 94.5t199 36q101 0 174.5 -31.5t112 -83.5t55.5 -107.5t17 -115.5q0 -118 -47.5 -228.5t-124.5 -189t-178 -126t-205 -47.5q-83 0 -149 27t-104 66.5t-62.5 90.5t-33 93.5t-8.5 80.5zM844 1178q35 0 61 23t58 91l49 -20q-38 -102 -93 -157.5t-124 -55.5q-21 0 -44 10 t-36 19.5t-39 29.5q-62 51 -103 51q-39 0 -64 -23t-52 -81l-49 16q41 104 89.5 156.5t112.5 52.5q28 0 55 -10.5t42.5 -21.5t37.5 -31q53 -49 99 -49z" />
<glyph unicode="&#xf6;" horiz-adv-x="1038" d="M406 354q0 -88 16 -150t41.5 -89.5t47.5 -38t44 -10.5q57 0 102.5 39t72 96t44.5 127t24.5 127t6.5 102q0 51 -6.5 95t-21.5 84.5t-44.5 63.5t-70.5 23q-57 0 -102.5 -32t-73.5 -81.5t-47 -114t-26 -124t-7 -117.5zM147 338q0 75 21.5 153.5t67.5 153.5t109.5 133.5 t155.5 94.5t199 36q101 0 174.5 -31.5t112 -83.5t55.5 -107.5t17 -115.5q0 -118 -47.5 -228.5t-124.5 -189t-178 -126t-205 -47.5q-83 0 -149 27t-104 66.5t-62.5 90.5t-33 93.5t-8.5 80.5zM416 1171q0 46 32 78.5t78 32.5t78.5 -32.5t32.5 -78.5t-32.5 -78t-78.5 -32 t-78 32t-32 78zM784 1171q0 46 32.5 78.5t78.5 32.5t78.5 -32.5t32.5 -78.5t-32.5 -78t-78.5 -32t-78.5 32t-32.5 78z" />
<glyph unicode="&#xf7;" horiz-adv-x="1128" d="M647 752q8 38 41.5 66t73.5 28q39 0 61.5 -27.5t14.5 -66.5q-8 -40 -41.5 -68.5t-73.5 -28.5q-39 0 -61.5 28.5t-14.5 68.5zM535 201q8 40 41 68t73 28t62.5 -28t13.5 -68q-8 -39 -42 -68t-73 -29q-38 0 -60.5 29t-14.5 68zM1133 539l-23 -119h-868l24 119h867z" />
<glyph unicode="&#xf8;" horiz-adv-x="1038" d="M1100 934l57 -55l-139 -133q41 -79 41 -175q0 -118 -47.5 -228.5t-124.5 -189t-178 -126t-205 -47.5q-134 0 -221 66l-113 -107l-55 61l110 105q-41 53 -59.5 117t-18.5 116q0 75 21.5 153.5t67.5 153.5t109.5 133.5t155.5 94.5t199 36q179 0 271 -97zM799 649 q-24 174 -137 174q-57 0 -102.5 -32t-73.5 -81.5t-47 -114t-26 -124t-7 -117.5q0 -40 3 -75zM805 543l-377 -359q22 -66 57.5 -92t69.5 -26q55 0 99.5 36.5t71 90.5t45 121.5t26 124t8.5 104.5z" />
<glyph unicode="&#xf9;" horiz-adv-x="1148" d="M573 645l-86 -332q-20 -78 -20 -145q0 -68 43 -68q25 0 65 23t86.5 66.5t90 121.5t65.5 172q63 279 94 410q119 -4 242 0l-158 -637q-14 -55 -14 -86q0 -33 20 -33q17 0 49.5 23t65.5 57q35 -12 51 -49q-101 -102 -169 -145t-144 -43q-69 0 -99 31.5t-30 68.5 q0 57 31 108q2 2 -0.5 2.5t-5.5 -2.5q-191 -208 -340 -208q-90 0 -139.5 43t-49.5 108q0 68 23 158l88 344q14 55 14 86q0 33 -16 33q-43 0 -111 -86q-36 19 -57 55q104 109 175 148.5t152 39.5q30 0 52 -7t33.5 -17t18 -25t8 -26t1.5 -25q0 -53 -29 -164zM823 1374l84 -244 q6 -12 6 -30q0 -4 -1 -11t-1 -10q-3 -14 -16.5 -24.5t-28.5 -10.5t-51 41l-188 224l10 22q20 15 60.5 31t86.5 16q27 0 39 -4z" />
<glyph unicode="&#xfa;" horiz-adv-x="1148" d="M573 645l-86 -332q-20 -78 -20 -145q0 -68 43 -68q25 0 65 23t86.5 66.5t90 121.5t65.5 172q63 279 94 410q119 -4 242 0l-158 -637q-14 -55 -14 -86q0 -33 20 -33q17 0 49.5 23t65.5 57q35 -12 51 -49q-101 -102 -169 -145t-144 -43q-69 0 -99 31.5t-30 68.5 q0 57 31 108q2 2 -0.5 2.5t-5.5 -2.5q-191 -208 -340 -208q-90 0 -139.5 43t-49.5 108q0 68 23 158l88 344q14 55 14 86q0 33 -16 33q-43 0 -111 -86q-36 19 -57 55q104 109 175 148.5t152 39.5q30 0 52 -7t33.5 -17t18 -25t8 -26t1.5 -25q0 -53 -29 -164zM899 1356 q12 4 31 4q26 0 45 -6t27.5 -12.5t17.5 -16.5t12 -12l12 -49l-280 -209q-39 -29 -78 -29q-10 0 -17 7t-7 16q0 21 22 49z" />
<glyph unicode="&#xfb;" horiz-adv-x="1148" d="M573 645l-86 -332q-20 -78 -20 -145q0 -68 43 -68q25 0 65 23t86.5 66.5t90 121.5t65.5 172q63 279 94 410q119 -4 242 0l-158 -637q-14 -55 -14 -86q0 -33 20 -33q17 0 49.5 23t65.5 57q35 -12 51 -49q-101 -102 -169 -145t-144 -43q-69 0 -99 31.5t-30 68.5 q0 57 31 108q2 2 -0.5 2.5t-5.5 -2.5q-191 -208 -340 -208q-90 0 -139.5 43t-49.5 108q0 68 23 158l88 344q14 55 14 86q0 33 -16 33q-43 0 -111 -86q-36 19 -57 55q104 109 175 148.5t152 39.5q30 0 52 -7t33.5 -17t18 -25t8 -26t1.5 -25q0 -53 -29 -164zM897 1323 q40 -95 154 -264l-58 -37q-61 48 -99.5 84.5t-74.5 87.5q-100 -85 -246 -172l-41 37q4 4 32.5 30t36 33t32 31t35.5 34.5t32 31.5t34 35.5t30 33t31 35.5h102z" />
<glyph unicode="&#xfc;" horiz-adv-x="1148" d="M573 645l-86 -332q-20 -78 -20 -145q0 -68 43 -68q25 0 65 23t86.5 66.5t90 121.5t65.5 172q63 279 94 410q119 -4 242 0l-158 -637q-14 -55 -14 -86q0 -33 20 -33q17 0 49.5 23t65.5 57q35 -12 51 -49q-101 -102 -169 -145t-144 -43q-69 0 -99 31.5t-30 68.5 q0 57 31 108q2 2 -0.5 2.5t-5.5 -2.5q-191 -208 -340 -208q-90 0 -139.5 43t-49.5 108q0 68 23 158l88 344q14 55 14 86q0 33 -16 33q-43 0 -111 -86q-36 19 -57 55q104 109 175 148.5t152 39.5q30 0 52 -7t33.5 -17t18 -25t8 -26t1.5 -25q0 -53 -29 -164zM518 1171 q0 46 32.5 78.5t78.5 32.5t78 -32.5t32 -78.5t-32 -78t-78 -32t-78.5 32t-32.5 78zM887 1171q0 46 32 78.5t78 32.5t78.5 -32.5t32.5 -78.5t-32.5 -78t-78.5 -32t-78 32t-32 78z" />
<glyph unicode="&#xfd;" horiz-adv-x="1044" d="M604 705l88 -521l4 -2l207 361q25 44 32 63.5t7 42.5q0 18 -19 64t-19 97q0 40 35.5 69.5t82.5 29.5q103 0 103 -130q0 -40 -28 -101.5t-98 -177.5l-387 -637q-90 -149 -217.5 -243.5t-224.5 -94.5q-29 0 -58 7t-55 28.5t-26 54.5q0 102 133 102q23 0 58 -15t54 -15 q37 0 94 40.5t113 133.5l54 84q-22 116 -63.5 304.5t-71.5 318.5l-31 130q-10 43 -31 43q-20 0 -51 -27t-53 -60q-39 25 -52 63q87 105 147.5 148.5t147.5 43.5q26 0 46 -12t31.5 -27t21.5 -46.5t14.5 -53t11.5 -65.5zM848 1360q12 4 31 4q26 0 45 -6t27.5 -12.5t17.5 -16.5 t12 -12l12 -49l-280 -209q-39 -29 -78 -29q-10 0 -17.5 7t-7.5 16q0 20 23 49z" />
<glyph unicode="&#xfe;" horiz-adv-x="1099" d="M881 561q0 55 -10.5 105.5t-41 91.5t-77.5 41q-98 0 -160 -41l-143 -621q57 -71 112 -71q76 0 140.5 58t101.5 140.5t57.5 162t20.5 134.5zM338 705l102 436q15 60 15 102q0 32 -10.5 44.5t-32.5 12.5l-64 5q-10 0 -10 10l8 61q77 6 206.5 23t166.5 31q24 0 24 -21 q-20 -83 -51 -215l-74 -328q114 43 199 43q174 0 246 -82.5t72 -232.5q0 -82 -47.5 -187.5t-124 -200.5t-186 -160.5t-220.5 -65.5q-85 0 -139 22q-50 -226 -74 -324q-2 -10 -2 -30q0 -49 27 -49h37q59 0 59 -25v-49l-4 -4q-184 4 -262 4q-32 0 -95.5 -3t-111.5 -6l-47 -3 l-4 4v47q0 24 63 24h39q42 0 63 93l197 874q-57 -56 -94 -109l-74 64q64 89 203 195z" />
<glyph unicode="&#xff;" horiz-adv-x="1044" d="M604 705l88 -521l4 -2l207 361q25 44 32 63.5t7 42.5q0 18 -19 64t-19 97q0 40 35.5 69.5t82.5 29.5q103 0 103 -130q0 -40 -28 -101.5t-98 -177.5l-387 -637q-90 -149 -217.5 -243.5t-224.5 -94.5q-29 0 -58 7t-55 28.5t-26 54.5q0 102 133 102q23 0 58 -15t54 -15 q37 0 94 40.5t113 133.5l54 84q-22 116 -63.5 304.5t-71.5 318.5l-31 130q-10 43 -31 43q-20 0 -51 -27t-53 -60q-39 25 -52 63q87 105 147.5 148.5t147.5 43.5q26 0 46 -12t31.5 -27t21.5 -46.5t14.5 -53t11.5 -65.5zM461 1171q0 46 32 78.5t78 32.5t78.5 -32.5t32.5 -78.5 t-32.5 -78t-78.5 -32t-78 32t-32 78zM829 1171q0 46 32.5 78.5t78.5 32.5t78.5 -32.5t32.5 -78.5t-32.5 -78t-78.5 -32t-78.5 32t-32.5 78z" />
<glyph unicode="&#x131;" horiz-adv-x="667" d="M595 656l-93 -382q-19 -84 -19 -105q0 -34 21 -34q16 0 54.5 20.5t74.5 49.5q21 0 35 -15t18 -38q-109 -90 -191 -131t-173 -41q-92 0 -92 115q0 63 24 161l92 391q19 77 19 105q0 16 -9.5 28t-27.5 13l-82 6q-9 13 -8.5 34t10.5 33q216 27 346 27q42 0 42 -43 q0 -12 -4 -35.5t-8.5 -42.5t-14.5 -58.5t-14 -57.5z" />
<glyph unicode="&#x152;" horiz-adv-x="1748" d="M752 82h24q35 0 51.5 16.5t22.5 55.5l178 1015q4 24 4 29q0 24 -11.5 31.5t-39.5 7.5h-70q-68 0 -129.5 -29.5t-118.5 -92.5t-102 -176t-72 -267q-20 -106 -20 -199q0 -194 79.5 -292.5t203.5 -98.5zM743 0h-2q-260 0 -401 140.5t-141 371.5q0 68 12 141q25 140 87.5 261 t155 212.5t221 144t275.5 52.5l234 -2q25 0 76.5 1t78.5 1h566l-23 -295l-113 -14q0 79 -28 147t-80 68h-340q-30 0 -41 -60l-72 -411h168q43 0 74 84q2 5 12 26t15 33l-2 -2q7 25 63 25h12q53 0 49 -19q-10 -38 -20 -67q-29 -114 -31 -123q-10 -55 -14 -154h-2v-37l-16 -18 h-52q-57 0 -57 20h2l-2 64q0 42 -10 62t-35 20h-168l-92 -518q-2 -12 -2 -29q0 -31 20 -31h346q70 0 124.5 68.5t103.5 193.5l104 -22l-110 -334h-582l-156 2q-63 -2 -207 -2z" />
<glyph unicode="&#x153;" horiz-adv-x="1650" d="M1389 825q-44 0 -88 -30.5t-76 -75t-52 -80t-30 -61.5h336q10 42 10 92q0 155 -100 155zM436 498q-22 -104 -22 -191q0 -113 39 -182.5t118 -69.5q75 0 172 115q64 77 103 244q24 117 24 180q0 52 -16 98q-24 65 -57 101t-72 36q-95 0 -180 -98q-79 -100 -109 -233z M748 911q240 0 313 -143q160 143 350 143q155 0 230 -75.5t75 -208.5q0 -62 -16 -144h-586q-2 -7 -8 -34q-19 -72 -19 -140q0 -111 47.5 -167t112.5 -56q51 0 135 35.5t150 93.5l65 -59q-31 -31 -44 -43.5t-56 -45t-79.5 -48t-95.5 -30t-124 -14.5q-216 0 -307 140 q-77 -64 -172.5 -102t-196.5 -38q-170 0 -268 94.5t-98 245.5q0 53 12 111q27 117 86.5 211t138.5 153t170 90t185 31z" />
<glyph unicode="&#x178;" horiz-adv-x="1263" d="M526 147l74 428l-209 558q-33 82 -56.5 102t-68.5 20h-22q-10 0 -16 4t-5 11l10 51l5 2q222 -2 249 -2l224 2l4 -2l-8 -49q-4 -17 -17 -17q-41 0 -61.5 -2t-33 -10t-11.5 -22.5t12 -40.5l184 -496l340 496q22 31 2 53t-73 22q-14 0 -9 15l9 51l4 2q155 -2 178 -2l211 2 l4 -2l-8 -49q-3 -17 -23 -17h-41q-46 0 -74 -15.5t-61 -63.5l-393 -576l-80 -453q-9 -46 12.5 -62.5t81.5 -16.5h51q7 0 11.5 -5.5t3.5 -13.5l-8 -47l-7 -4q-212 4 -288 4l-295 -4v4l8 47q3 19 16 19h54q59 0 85.5 18t34.5 61zM686 1536q0 46 32.5 78.5t78.5 32.5t78 -32.5 t32 -78.5t-32 -78.5t-78 -32.5t-78.5 32.5t-32.5 78.5zM1055 1536q0 46 32 78.5t78 32.5t78.5 -32.5t32.5 -78.5t-32.5 -78.5t-78.5 -32.5t-78 32.5t-32 78.5z" />
<glyph unicode="&#x192;" horiz-adv-x="972" d="M1020 1430q120 0 173.5 -36.5t53.5 -88.5q0 -15 -2 -21q-8 -35 -43 -59.5t-84 -24.5q-93 0 -108 57l2 -2q-19 50 -19 52l11 -23q-5 52 -5 64v8q-9 0 -25 -20t-46 -80t-66 -154q-13 -36 -38.5 -107.5t-37.5 -107.5h213l-34 -96h-213q-1 -4 -5.5 -13.5t-5.5 -13.5 q-180 -521 -254 -692q-109 -255 -213 -345q-86 -75 -204 -75q-88 0 -128 33t-40 73q0 3 1 8t1 7q6 28 41 51.5t82 23.5q86 0 96 -47q6 -21 6 -26q0 -30 -12 -31q30 3 61.5 48.5t62 127.5t58.5 171.5t62 206.5q1 3 1 5q71 236 82 270l72 218h-166l35 96h117q48 0 90 100 q79 217 196.5 330t231.5 113z" />
<glyph unicode="&#x21b;" horiz-adv-x="751" d="M276 242l125 540h-153q-12 0 -12 4q0 3 4.5 25.5t5.5 26.5q8 31 57 34l119 7l27 102q4 15 10 44.5t10 44t13 33.5t23 30t34 16q31 8 53.5 13t51.5 9t45 0t16 -16q0 -11 -8 -47.5t-19.5 -82t-13.5 -54.5l-21 -92h223q17 -12 7 -50.5t-29 -46.5h-221l-123 -522 q-14 -56 -14 -88q0 -37 22 -37q18 0 62.5 27.5t80.5 68.5q19 0 36.5 -19.5t23.5 -37.5q-85 -94 -168 -144t-183 -50q-103 0 -103 116q0 67 19 146zM422 -109q48 0 75 -31.5t27 -92.5q0 -35 -8 -66q-8 -42 -27 -74t-42 -52.5t-57 -36t-65.5 -24t-74.5 -16.5v51 q165 39 176 101q2 6 2 14q0 41 -61 45q-30 3 -54 20.5t-24 45.5q0 8 2 12q8 43 45 73.5t86 30.5z" />
<glyph unicode="&#x2c6;" horiz-adv-x="763" d="M743 1368q40 -95 154 -264l-57 -37q-61 48 -99.5 84.5t-74.5 87.5q-100 -85 -246 -172l-41 37q189 176 262 264h102z" />
<glyph unicode="&#x2da;" horiz-adv-x="788" d="M721 1481q-42 0 -78 -32.5t-45 -74.5q0 -4 -1 -10.5t-1 -9.5q0 -35 22.5 -60.5t59.5 -25.5q43 0 79 32.5t44 73.5q2 8 2 23q0 36 -23 60t-59 24zM524 1374q14 69 75.5 119.5t133.5 50.5q62 0 104 -39t42 -98q0 -8 -5 -33q-14 -69 -75.5 -119.5t-134.5 -50.5 q-62 0 -103 38.5t-41 98.5q0 13 4 33z" />
<glyph unicode="&#x2dc;" horiz-adv-x="649" d="M737 1274q35 0 61 23.5t58 91.5l49 -21q-38 -102 -93 -157.5t-124 -55.5q-21 0 -44 10t-36 19.5t-39 29.5q-64 52 -102 52q-39 0 -64.5 -23.5t-52.5 -81.5l-49 17q41 104 90 156t113 52q28 0 55 -10.5t42.5 -21.5t37.5 -31q53 -49 98 -49z" />
<glyph unicode="&#x374;" horiz-adv-x="503" d="M680 1573q27 0 46 -20.5t19 -43.5v-8q-3 -17 -16.5 -42t-28.5 -40l-294 -317l-44 26l185 330q15 26 23.5 39.5t26.5 34.5t38.5 31t44.5 10z" />
<glyph unicode="&#x375;" horiz-adv-x="444" d="M369 203q27 0 46 -20t19 -44v-8q-7 -40 -45 -84l-295 -315l-43 26l185 328q14 25 23.5 40t26.5 36t38 31t45 10z" />
<glyph unicode="&#x37a;" horiz-adv-x="727" d="M246 -188l112 26l39 -14l-22 -107q-15 -55 -15 -90q0 -69 46 -69q26 0 55 30t51 74l47 -16q-22 -50 -52 -85.5t-60.5 -53t-55.5 -24.5t-47 -7q-66 0 -104.5 29t-38.5 89q0 23 6 50z" />
<glyph unicode="&#x37b;" horiz-adv-x="995" d="M766 483q20 94 20 164q0 193 -155 193q-83 0 -148.5 -35t-156.5 -125l-95 57q79 83 188.5 128.5t227.5 45.5q229 0 322 -125q73 -95 73 -219q0 -65 -18 -145q-18 -73 -75.5 -163.5t-125.5 -145.5q-168 -138 -405 -138q-236 0 -324 172l121 64q52 -93 94.5 -124.5 t120.5 -31.5q36 0 90.5 27.5t93.5 60.5q56 48 88 125.5t64 214.5z" />
<glyph unicode="&#x37c;" horiz-adv-x="960" d="M721 317q-44 0 -69 26.5t-25 66.5q0 16 2 26q11 47 54.5 83t92.5 36q39 0 66.5 -26.5t27.5 -67.5q0 -9 -4 -25q-11 -48 -53 -83.5t-92 -35.5zM457 403q-23 -95 -23 -165q0 -191 156 -191q83 0 148.5 35t158.5 125l92 -57q-79 -83 -189.5 -129t-226.5 -46q-227 0 -321 123 q-74 96 -74 219q0 61 19 148q18 72 75 162.5t125 146.5q171 137 406 137q236 0 321 -174l-118 -61q-52 92 -94.5 123.5t-120.5 31.5q-36 0 -91.5 -28t-95.5 -62q-56 -48 -86 -124t-61 -214z" />
<glyph unicode="&#x37d;" horiz-adv-x="995" d="M463 330q-46 0 -71 26t-25 66q0 17 2 27q12 47 55.5 82.5t91.5 35.5q39 0 66.5 -26.5t27.5 -67.5q0 -8 -4 -24q-9 -48 -51.5 -83.5t-91.5 -35.5zM791 483q20 94 20 164q0 193 -156 193q-82 0 -148 -35.5t-157 -124.5l-94 57q79 83 188.5 128.5t227.5 45.5q228 0 321 -125 q74 -96 74 -219q0 -65 -18 -145q-18 -73 -75.5 -163.5t-125.5 -145.5q-78 -64 -182.5 -101t-223.5 -37q-236 0 -321 172l119 64q52 -93 94.5 -124.5t120.5 -31.5q36 0 90.5 27.5t93.5 60.5q57 48 88 124t64 216z" />
<glyph unicode="&#x37e;" horiz-adv-x="499" d="M350 727q11 47 51.5 81t87.5 34q41 0 67 -25t26 -63q0 -7 -4 -27q-11 -46 -52 -79.5t-88 -33.5q-40 0 -66 25t-26 63q0 9 4 25zM340 209q106 0 106 -117q0 -40 -12 -92q-18 -81 -111.5 -154t-218.5 -94v68q79 19 128.5 57t56.5 72q4 16 4 22q0 29 -29 29q-67 14 -67 72 q0 18 4 30q9 47 46 77t93 30z" />
<glyph unicode="&#x386;" horiz-adv-x="1472" d="M684 1485q30 0 57 -20.5t27 -47.5v-8q-4 -21 -18 -35l-232 -250q-12 -14 -37 -14q-11 0 -24 8.5t-13 18.5t7 24l157 293q8 16 31 23.5t45 7.5zM647 590h316q-24 126 -84 422l-236 -398q-14 -24 4 -24zM1296 186q6 -27 11 -41.5t17.5 -32t35 -27.5t57.5 -15l29 -4 q20 -2 20 -19l-8 -47l-4 -4q-76 4 -156 4l-376 -4l-4 4l6 47q3 18 14 19l23 4q44 8 68.5 26.5t17.5 53.5l-66 344h-387q-21 0 -39 -29l-190 -315q-19 -31 3.5 -51.5t65.5 -28.5l23 -4q14 -1 14 -19l-6 -47l-4 -4q-180 4 -254 4l-176 -4l-4 4l4 47q1 17 20 19l29 4 q65 9 104 42t69 82l656 1090q20 32 48 48t49 16q33 0 47.5 -15t21.5 -49z" />
<glyph unicode="&#x388;" horiz-adv-x="1382" d="M281 0l-5 4l9 45q3 19 18 19h27q60 0 88 20t37 70l178 1007q2 18 2 26q0 34 -22 49t-72 15h-29q-15 0 -12 17l8 47l6 4h918q-19 -161 -19 -332l-82 -18q-4 48 -11 85t-23.5 80t-49 67t-78.5 24h-256q-28 0 -39 -60l-73 -421h221q12 0 22 4.5t19 16t15 20.5t14.5 30.5 t12.5 33.5t13 40q0 7 10.5 14.5t24.5 7.5h41l8 -20q-35 -117 -47 -190q-14 -87 -20 -191l-15 -18h-41q-14 0 -22 6.5t-6 13.5q1 21 1 58q0 44 -9 66t-35 22h-222l-90 -508q-3 -21 -3 -33q0 -27 20 -27h301q78 0 145.5 75.5t114.5 197.5l82 -21q-72 -201 -115 -346h-960z M408 1485q30 0 57 -20.5t27 -47.5v-8q-4 -20 -19 -35l-231 -250q-12 -14 -37 -14q-11 0 -24 8.5t-13 18.5q0 12 6 24l158 293q8 16 31 23.5t45 7.5z" />
<glyph unicode="&#x389;" horiz-adv-x="1691" d="M1532 1165q2 8 2 27q0 34 -23 48.5t-75 14.5h-29q-17 0 -14 17l8 49l4 2q201 -2 281 -2l278 2l4 -2l-8 -49q-3 -17 -18 -17h-31q-61 0 -90 -22.5t-37 -67.5l-176 -1007q-4 -16 -4 -25q0 -33 22.5 -49t75.5 -16h31q15 0 12 -19l-8 -47l-4 -4q-209 4 -281 4l-278 -4l-5 4 l9 47q3 19 20 19h29q62 0 91 20.5t36 69.5l88 499h-572l-88 -499q-4 -16 -4 -25q0 -33 23.5 -49t77.5 -16h28q16 0 13 -19l-9 -47l-4 -4q-206 4 -280 4l-279 -4l-4 4l8 47q1 8 7.5 13.5t13.5 5.5h28q62 0 91 20.5t38 69.5l177 1007q4 16 4 27q0 33 -24 48t-77 15h-28 q-15 0 -15 17l11 49l4 2q198 -2 278 -2l281 2l2 -2l-8 -49q-3 -17 -19 -17h-29q-61 0 -91 -22.5t-38 -67.5l-71 -413h573zM432 1485q30 0 57 -20.5t27 -47.5v-8q-4 -21 -18 -35l-232 -250q-12 -14 -37 -14q-11 0 -23.5 8.5t-12.5 18.5q0 12 6 24l157 293q8 16 31 23.5 t45 7.5z" />
<glyph unicode="&#x38a;" horiz-adv-x="768" d="M680 250q-11 -60 -11 -92q0 -57 29 -71.5t121 -18.5q8 -10 8 -36.5t-10 -35.5q-204 4 -307 4q-101 0 -301 -4q-8 10 -8 36.5t10 35.5q43 2 65 4t48.5 8.5t38.5 17t26.5 31t22.5 49.5t16 72l143 821q11 58 11 90q0 59 -28.5 73.5t-119.5 18.5q-8 10 -9 36t9 36 q204 -4 307 -4q101 0 301 4q8 -9 7 -36t-11 -36q-43 -2 -65 -4t-48 -8.5t-38 -17t-26 -31t-22 -49.5t-16 -72zM338 1485q30 0 57 -20.5t27 -47.5v-8q-4 -20 -19 -35l-231 -250q-12 -14 -37 -14q-11 0 -24 8.5t-13 18.5q0 12 6 24l158 293q8 16 31 23.5t45 7.5z" />
<glyph unicode="&#x38c;" horiz-adv-x="1558" d="M1024 1264q-86 0 -165 -46t-137.5 -123t-102.5 -175t-66.5 -206t-22.5 -212q0 -208 96.5 -325.5t252.5 -117.5q105 0 198 69t154.5 179t97 245.5t35.5 270.5q0 211 -94.5 326t-245.5 115zM823 -25q-253 0 -411 143.5t-158 387.5q0 99 27.5 201t76.5 195t123 174.5 t161.5 142t197 95t225.5 34.5q161 0 291 -66t206 -191.5t76 -289.5q0 -153 -58 -300.5t-161 -264.5t-259 -189t-337 -72zM436 1485q30 0 57 -20.5t27 -47.5v-8q-4 -21 -18 -35l-232 -250q-12 -14 -37 -14q-11 0 -23.5 8.5t-12.5 18.5q0 12 6 24l157 293q8 16 31 23.5t45 7.5 z" />
<glyph unicode="&#x38e;" horiz-adv-x="1531" d="M782 147l74 428l-209 558q-33 82 -56.5 102t-68.5 20h-22q-10 0 -16 4t-5 11l10 51l5 2q222 -2 249 -2l224 2l4 -2l-8 -49q-4 -17 -17 -17q-41 0 -61.5 -2t-33 -10t-11.5 -22.5t12 -40.5l184 -496l340 496q22 31 2 53t-73 22q-14 0 -9 15l9 51l4 2q155 -2 178 -2l211 2 l4 -2l-8 -49q-3 -17 -23 -17h-41q-46 0 -74 -15.5t-61 -63.5l-393 -576l-80 -453q-9 -46 12.5 -62.5t81.5 -16.5h51q7 0 11.5 -5.5t3.5 -13.5l-8 -47l-7 -4q-212 4 -288 4l-295 -4v4l8 47q3 19 16 19h54q59 0 85.5 18t34.5 61zM412 1485q30 0 57 -20.5t27 -47.5v-8 q-4 -20 -19 -35l-231 -250q-12 -14 -37 -14q-11 0 -24 8.5t-13 18.5q0 12 6 24l158 293q8 16 31 23.5t45 7.5z" />
<glyph unicode="&#x38f;" horiz-adv-x="1492" d="M408 1485q30 0 57 -20.5t27 -47.5v-8q-4 -20 -19 -35l-231 -250q-12 -14 -37 -14q-11 0 -24 8.5t-13 18.5q0 12 6 24l158 293q8 16 31 23.5t45 7.5zM1092 244l-29 -111h151q57 0 84 21.5t50 101.5h141l-62 -256h-464q-70 0 -70 33v8l61 250q154 81 239 196.5t114 282.5 q10 56 10 127q0 165 -81.5 266t-227.5 101q-91 0 -172 -40.5t-140 -109t-100 -156.5t-59 -186q-13 -76 -13 -131q0 -111 47 -192.5t148 -157.5l-29 -250q-7 -41 -86 -41h-473l31 256h141q-2 -14 -2 -39q0 -52 20 -68t72 -16h160q2 18 5 55t5 56l31 -8q-152 56 -242 172 t-90 272q0 49 8 90q14 83 54.5 164.5t108 156.5t153.5 132t199.5 91t238.5 34q139 0 247.5 -36.5t175.5 -101.5t101.5 -148.5t34.5 -182.5q0 -47 -10 -109q-32 -178 -175 -325t-339 -209z" />
<glyph unicode="&#x390;" horiz-adv-x="671" d="M678 911l-172 -741q-6 -27 -6 -45q0 -27 16 -27q53 0 168 115l51 -51q-58 -77 -139 -132t-152 -55q-186 0 -186 131q0 18 8 64l121 520q12 53 12 70q0 14 -10 14q-4 0 -115 -18l7 73q104 17 178 35q14 5 41 16.5t30 12.5q45 18 72 18h76zM825 1610q30 0 57 -20.5 t27 -47.5q0 -6 -2 -8q0 -19 -16 -35l-232 -250q-10 -12 -36 -12q-11 0 -23 7.5t-12 17.5q0 16 4 24l160 293q7 16 29.5 23.5t43.5 7.5zM694 1174q7 46 45 78t84 32q40 0 67.5 -27t27.5 -65q0 -3 -1.5 -9t-1.5 -9q-9 -45 -47.5 -77t-83.5 -32q-41 0 -66.5 25.5t-25.5 64.5 q0 13 2 19zM322 1174q9 46 47 78t84 32q39 0 65.5 -26.5t26.5 -63.5q0 -14 -2 -20q-8 -44 -45.5 -76.5t-83.5 -32.5q-40 0 -67.5 26t-27.5 64q0 3 1.5 9.5t1.5 9.5z" />
<glyph unicode="&#x391;" horiz-adv-x="1472" d="M647 590h316q-24 126 -84 422l-236 -398q-14 -24 4 -24zM1296 186q6 -27 11 -41.5t17.5 -32t35 -27.5t57.5 -15l29 -4q20 -2 20 -19l-8 -47l-4 -4q-76 4 -156 4l-376 -4l-4 4l6 47q3 18 14 19l23 4q44 8 68.5 26.5t17.5 53.5l-66 344h-387q-21 0 -39 -29l-190 -315 q-19 -31 3.5 -51.5t65.5 -28.5l23 -4q14 -1 14 -19l-6 -47l-4 -4q-180 4 -254 4l-176 -4l-4 4l4 47q1 17 20 19l29 4q65 9 104 42t69 82l656 1090q20 32 48 48t49 16q33 0 47.5 -15t21.5 -49z" />
<glyph unicode="&#x392;" horiz-adv-x="1271" d="M662 1151l-68 -381h111q68 0 121 20t84.5 50.5t52.5 71t28.5 78.5t7.5 76q0 51 -17 87t-46.5 53t-58.5 24t-64 7q-62 0 -93.5 -10t-41.5 -26t-16 -50zM580 684l-91 -512q-4 -24 -4 -33q0 -29 25 -43t92 -14q87 0 156.5 27t110 67t67.5 91.5t37 96.5t10 86 q0 108 -67.5 171t-196.5 63h-139zM575 1321q48 0 123.5 1t116.5 1q122 0 208 -21.5t130.5 -60t63 -80.5t18.5 -94q0 -56 -20 -107t-47.5 -86t-63.5 -65t-62 -45t-49 -25v-4q237 -68 237 -291q0 -68 -19 -130t-64 -120t-113 -100.5t-173 -68t-236 -25.5h-281q-201 -2 -301 -4 q-8 10 -8 36.5t10 35.5q43 2 65 4t48.5 8.5t38.5 17t26.5 31t22.5 49.5t16 72l144 821q10 53 10 90q0 59 -28.5 73.5t-119.5 18.5q-8 10 -9 36t9 36q204 -4 307 -4z" />
<glyph unicode="&#x393;" horiz-adv-x="1107" d="M471 156q-2 -8 -2 -23q0 -33 22.5 -49t75.5 -16h56q15 0 12 -19l-8 -47l-4 -4q-234 4 -308 4l-303 -4l-4 4l8 47q1 8 7.5 13.5t13.5 5.5h53q62 0 92 20.5t37 67.5l178 1011q6 27 6 41q0 24 -11.5 33.5t-39.5 9.5h-59q-60 0 -57 25l6 31l22 18q260 -4 287 -4h668l-21 -363 l-108 -18q-11 287 -136 287h-266q-29 0 -39 -60z" />
<glyph unicode="&#x394;" horiz-adv-x="1353" d="M819 1024l-549 -944h752q-40 181 -103.5 480t-99.5 464zM1024 1335l268 -1290q6 -24 6 -29q0 -20 -90 -20h-1077q-21 0 -36 1t-26.5 3.5t-17 6.5t-4.5 11l19 27q124 214 372.5 645t372.5 645h213z" />
<glyph unicode="&#x395;" horiz-adv-x="1183" d="M76 0l-4 4l8 45q3 19 18 19h27q60 0 88 20t37 70l178 1007q2 18 2 26q0 34 -22 49t-72 15h-29q-15 0 -12 17l8 47l6 4h918q-19 -161 -19 -332l-82 -18q-3 38 -7 67.5t-15.5 67t-27.5 62t-44.5 42t-66.5 17.5h-256q-28 0 -39 -60l-74 -421h221q12 0 22 4.5t19 16t15 20.5 t14.5 30.5t12.5 33.5t13 40q0 7 10.5 14.5t24.5 7.5h41l8 -20q-35 -117 -47 -190q-14 -87 -20 -191l-15 -18h-41q-14 0 -22 6.5t-6 13.5q2 42 2 58q0 44 -9.5 66t-35.5 22h-221l-90 -508q-4 -28 -4 -33q0 -27 20 -27h301q78 0 145.5 75.5t114.5 197.5l82 -21 q-72 -201 -115 -346h-960z" />
<glyph unicode="&#x396;" horiz-adv-x="1464" d="M1149 0h-1049q-19 0 -26.5 7.5t-5.5 23.5q8 29 24 47l961 1108q28 35 20 43q-6 4 -16 4h-422q-43 0 -78 -12.5t-59.5 -30t-49.5 -52t-40.5 -63.5t-40.5 -80l-76 11q61 165 104 342q29 -2 66.5 -13.5t89.5 -11.5h700q84 8 125 8q28 0 35.5 -4.5t5.5 -15.5q-6 -32 -65 -101 l-922 -1063q-18 -21 -23 -32.5t4.5 -18t39.5 -6.5h438q54 0 98.5 18.5t79 56t60.5 80t53 103.5l80 -10q-81 -208 -111 -338z" />
<glyph unicode="&#x397;" horiz-adv-x="1648" d="M1313 1165q2 8 2 27q0 34 -22.5 48.5t-75.5 14.5h-29q-17 0 -14 17l8 49l4 2q200 -2 280 -2l279 2l4 -2l-8 -49q-3 -17 -19 -17h-30q-61 0 -90 -22.5t-37 -67.5l-176 -1007q-5 -20 -5 -25q0 -33 23 -49t76 -16h30q16 0 13 -19l-8 -47l-5 -4q-208 4 -280 4l-279 -4l-4 4 l8 47q3 19 21 19h29q62 0 91 20.5t36 69.5l88 499h-572l-88 -499q-4 -16 -4 -25q0 -33 23 -49t77 -16h29q15 0 12 -19l-8 -47l-4 -4q-206 4 -280 4l-279 -4l-4 4l8 47q1 8 7.5 13.5t13.5 5.5h28q62 0 91 20.5t38 69.5l176 1007q5 20 5 27q0 33 -24 48t-77 15h-29 q-14 0 -14 17l10 49l4 2q199 -2 279 -2l281 2l2 -2l-9 -49q-3 -17 -18 -17h-29q-61 0 -91 -22.5t-38 -67.5l-71 -413h573z" />
<glyph unicode="&#x398;" horiz-adv-x="1503" d="M1069 723q55 0 78 13.5t31 62.5l2 12q3 16 16 16h45q-21 -90 -31 -147l-24 -176h-45q-15 0 -13 16l2 15q1 6 -7.5 14t-8.5 10q0 33 -11.5 41t-51.5 8h-351q-55 0 -76.5 -12.5t-29.5 -60.5l-2 -15q-5 -16 -19 -16h-45q25 106 37 176l21 149h45q12 -2 12 -16l-2 -14 q-1 -6 -10.5 -16.5t-9.5 -14.5q0 -29 24 -37t76 -8h348zM969 1264q-86 0 -165 -46t-137.5 -123t-102.5 -175t-66.5 -206t-22.5 -212q0 -208 96 -325.5t252 -117.5q105 0 198 69t155 179t97.5 245.5t35.5 270.5q0 211 -94.5 326t-245.5 115zM768 -25q-253 0 -411 143.5 t-158 387.5q0 99 27.5 201t76.5 195t123 174.5t161.5 142t197 95t225.5 34.5q161 0 291 -66t206 -191.5t76 -289.5q0 -153 -58 -300.5t-161 -264.5t-259 -189t-337 -72z" />
<glyph unicode="&#x399;" horiz-adv-x="692" d="M555 250q-11 -60 -11 -92q0 -57 29 -71.5t121 -18.5q8 -10 8 -36.5t-10 -35.5q-204 4 -307 4q-101 0 -301 -4q-8 10 -8 36.5t10 35.5q43 2 65 4t48.5 8.5t38.5 17t26.5 31t22.5 49.5t16 72l143 821q11 58 11 90q0 59 -28.5 73.5t-119.5 18.5q-8 10 -9 36t9 36 q204 -4 307 -4q102 0 302 4q8 -9 6.5 -36t-11.5 -36q-43 -2 -65 -4t-48 -8.5t-38 -17t-26 -31t-22 -49.5t-16 -72z" />
<glyph unicode="&#x39a;" horiz-adv-x="1359" d="M1184 1176q14 10 21.5 27.5t1 32.5t-30.5 17l-43 4q-15 3 -15 21l6 45l4 4q236 -4 310 -4l176 4l4 -4l-4 -45q0 -16 -21 -21l-28 -4q-152 -19 -276 -123l-425 -356q-33 -28 -36 -47t20 -49l391 -518q54 -73 111 -90l14 -4q39 -11 39 -21l-6 -45l-8 -4q-176 4 -256 4 l-121 -4l-4 4v43q0 11 -5 25t-15.5 32t-19 31t-24 35.5t-22.5 32.5l-244 366q-26 37 -62 37l-77 -444q-7 -42 23 -62t77 -26l29 -4q14 -3 14 -19l-6 -47l-4 -4q-207 4 -281 4l-278 -4l-4 4l4 47q2 15 20 19l29 4q63 8 90 25t35 63l178 1009q8 49 -11.5 63.5t-82.5 22.5 l-29 4q-14 3 -14 17l6 49l4 2q198 -2 278 -2l281 2l4 -2l-4 -49q-3 -14 -20 -17l-29 -4q-64 -9 -94 -27.5t-37 -58.5l-74 -413q29 0 70 34z" />
<glyph unicode="&#x39b;" horiz-adv-x="1359" d="M289 68q15 0 12 -17l-8 -49l-4 -2q-170 2 -248 2l-174 -2l-2 2l8 49q3 17 18 17q80 0 110.5 22.5t76.5 108.5l590 1101q11 21 34.5 34.5t40.5 13.5t35 -13.5t21 -34.5l178 -1112q12 -73 37 -96.5t98 -23.5q14 0 14 -17l-10 -49l-4 -2q-190 2 -266 2l-285 -2l-2 2l8 49 q3 17 19 17q85 0 120 14.5t35 51.5q0 6 -2 18l-116 729l-11 63l-32 -57l-383 -715q-26 -47 -26 -67q0 -22 26.5 -29.5t91.5 -7.5z" />
<glyph unicode="&#x39c;" horiz-adv-x="1853" d="M1319 182l65 731l-524 -899q-23 -39 -67 -39q-15 0 -32.5 10.5t-21.5 28.5q-131 532 -217 881q-53 -224 -178 -715q-1 -4 -2 -11.5t-2 -10.5q-6 -35 -6 -54q0 -32 16 -32h53q24 0 43.5 -7t16.5 -18l-4 -29l-17 -20q-143 4 -221 4l-178 -4l-12 18l4 31q6 25 69 25h54 q28 0 59 110q40 159 124 495t124 494q0 1 1 4t1 5l2 10q2 10 2 27q0 34 -25 34h-61q-57 3 -57 23l6 29l24 22h328l242 -981q91 160 571 981h305l6 -20l-4 -31q-7 -23 -69 -23h-56q-36 0 -45 -59l-4 -21l-86 -987q-4 -32 -4 -51q0 -61 29 -61h51q35 0 51 -6.5t13 -18.5 l-5 -31l-24 -18q-162 4 -242 4l-248 -4l-16 18l4 31q6 25 70 25h53q22 0 39 86q0 4 1 12t1 12z" />
<glyph unicode="&#x39d;" horiz-adv-x="1656" d="M457 1120q-43 115 -154 131l-29 4q-19 2 -20 19l-4 47l4 4q315 -2 395 -2l615 -973h4l145 815q8 49 -12 63t-82 23l-29 4q-14 2 -14 17l6 49l4 2q131 -2 211 -2l244 2l4 -2l-4 -49q-3 -15 -21 -17l-28 -4q-64 -10 -94 -28t-37 -58l-195 -1114q-6 -35 -32.5 -55.5 t-69.5 -20.5q-71 0 -105 56l-538 876q-20 34 -33 34q-16 0 -23 -44l-131 -739q-7 -42 23 -61.5t78 -26.5l28 -4q15 -2 15 -19l-7 -47l-4 -4q-176 4 -250 4l-204 -4l-4 4l4 47q1 17 20 19l29 4q64 9 90.5 25.5t34.5 62.5z" />
<glyph unicode="&#x39e;" horiz-adv-x="1376" d="M1042 705q28 0 40.5 12t21.5 55l2 14q6 23 61 23h64q-25 -99 -35 -156l-27 -180h-59q-13 0 -24 1.5t-21.5 7t-9.5 14.5l2 14q4 24 4 31q0 16 -5.5 23.5t-12.5 9t-21 1.5h-459q-28 0 -40 -11.5t-19 -53.5l-2 -14q-7 -23 -66 -23h-63q27 112 39 180q5 26 10 65.5t8 65.5 l2 27h66q23 0 37 -5t16.5 -10t1.5 -10l-2 -14q-4 -14 -4 -37q0 -20 8 -25t31 -5h456zM1438 1006h-111q6 56 6 90q0 58 -18.5 71t-79.5 13h-666q-29 0 -43.5 -1t-31 -7t-24.5 -15.5t-18 -31t-17.5 -48t-18.5 -71.5h-125q0 1 16 75.5t33.5 155.5t21.5 94h117q0 -8 -20 -8h927 q-12 0 -12 5q0 1 2 3h105q-4 -18 -43 -325zM172 342h125q-6 -65 -6 -102q0 -62 15 -78.5t56 -18.5h682q41 0 63 5t41 27.5t31.5 58.5t30.5 108h111l-78 -350h-106q-1 4 4 6t14 2h-913q7 0 12 -1t7 -3t1 -4h-135z" />
<glyph unicode="&#x39f;" horiz-adv-x="1503" d="M969 1264q-86 0 -165 -46t-137.5 -123t-102.5 -175t-66.5 -206t-22.5 -212q0 -208 96 -325.5t252 -117.5q105 0 198 69t155 179t97.5 245.5t35.5 270.5q0 211 -94.5 326t-245.5 115zM768 -25q-253 0 -411 143.5t-158 387.5q0 99 27.5 201t76.5 195t123 174.5t161.5 142 t197 95t225.5 34.5q161 0 291 -66t206 -191.5t76 -289.5q0 -153 -58 -300.5t-161 -264.5t-259 -189t-337 -72z" />
<glyph unicode="&#x3a0;" horiz-adv-x="1415" d="M987 154l174 989q6 30 6 51q0 31 -18 31h-449q-18 0 -26.5 -17.5t-18.5 -66.5l-174 -987q-2 -12 -2 -29q0 -53 56 -53h43q26 0 42 -6.5t15 -18.5l-6 -31l-25 -18q-192 4 -272 4l-291 -4l-14 18l4 31q6 25 65 25h54q66 0 79 82l181 1015q4 28 4 33q0 29 -12.5 39t-36.5 10 h-62q-59 0 -55 25l8 45l47 2h94q66 -2 160 -2q96 0 143 -2q31 0 111.5 -1t122.5 -1q36 0 103.5 1t103.5 1q51 2 174 2q1 0 32 0.5t74.5 1t77.5 0.5l111 2l14 -18l-4 -31q-2 -9 -21.5 -17t-44.5 -8h-59q-62 -4 -76 -82l-180 -1015q-2 -12 -2 -29q0 -28 13 -40.5t42 -12.5h54 q26 0 42 -6.5t15 -18.5l-6 -31l-23 -18q-204 4 -282 4l-281 -4l-16 18l4 31q6 25 65 25h43q67 0 80 82z" />
<glyph unicode="&#x3a1;" horiz-adv-x="1304" d="M653 1237l-102 -578q43 -6 96 -6q256 0 309 303q9 63 9.5 109t-12.5 79.5t-29.5 55t-43 33.5t-52 17t-56.5 5q-45 0 -119 -18zM221 158l178 1013q18 95 -49 95h-63q-10 0 -15.5 5t-3.5 11l6 39l11 2q53 0 243.5 8t274.5 8q82 0 148 -13t109 -34.5t76 -50.5t48 -61.5 t25 -66t7.5 -64.5t-4.5 -58q-10 -56 -33.5 -111t-69 -112t-107.5 -99.5t-155 -70t-204 -27.5q-59 0 -106 7l-76 -420q-6 -44 14.5 -67t77.5 -23h29q15 0 12 -19l-8 -47l-4 -4q-199 4 -271 4l-266 -4l-2 4l8 47q3 19 19 19h28q59 0 87.5 20.5t35.5 69.5z" />
<glyph unicode="&#x3a3;" horiz-adv-x="1265" d="M1380 1323l-20 -295l-119 -10q-7 49 -14 80.5t-19.5 62t-32.5 45.5t-47 15h-489q147 -288 279 -543l2 4v-10q0 1 -1 3t-1 3l-568 -576h596q30 0 55 11.5t43.5 29t38.5 52t34 66t36 85.5l117 -8l-92 -338l-1104 -2l-17 18l6 35l17 21q52 0 76 22q62 64 528 541 q-231 452 -274 534q-48 82 -113 82l-16 21l6 35l22 18l254 -2h817z" />
<glyph unicode="&#x3a4;" horiz-adv-x="1224" d="M387 1323h832q8 0 14.5 1.5t11.5 4t9 6.5t6 7t4.5 8t3.5 7.5t2.5 7t1.5 5.5l71 8q-15 -150 -12 -315l-82 -10q-4 64 -10 97t-24 51t-39.5 22t-67.5 4h-107q-54 0 -77.5 -18t-30.5 -68l-174 -983q-8 -48 13 -69t79 -21h51q15 0 12 -19l-8 -47l-4 -4q-233 4 -311 4l-270 -4 l-5 4l9 47q3 19 18 19h51q59 0 88 22.5t37 67.5l174 989q7 46 -10.5 63t-71.5 17h-104q-37 0 -57.5 -2.5t-41.5 -11t-36.5 -28.5t-32 -50.5t-37.5 -81.5l-76 10q60 161 99 315l69 -8q-8 -47 33 -47z" />
<glyph unicode="&#x3a5;" horiz-adv-x="1263" d="M526 147l74 428l-209 558q-33 82 -56.5 102t-68.5 20h-22q-10 0 -16 4t-5 11l10 51l5 2q222 -2 249 -2l224 2l4 -2l-8 -49q-4 -17 -17 -17q-41 0 -61.5 -2t-33 -10t-11.5 -22.5t12 -40.5l184 -496l340 496q22 31 2 53t-73 22q-14 0 -9 15l9 51l4 2q155 -2 178 -2l211 2 l4 -2l-8 -49q-3 -17 -23 -17h-41q-46 0 -74 -15.5t-61 -63.5l-393 -576l-80 -453q-9 -46 12.5 -62.5t81.5 -16.5h51q7 0 11.5 -5.5t3.5 -13.5l-8 -47l-7 -4q-212 4 -288 4l-295 -4v4l8 47q3 19 16 19h54q59 0 85.5 18t34.5 61z" />
<glyph unicode="&#x3a6;" horiz-adv-x="1423" d="M1022 1022l-127 -719q72 13 128.5 43t90 65t59 83t36.5 85.5t20 84.5q8 47 8 96q0 215 -215 262zM641 305l127 721q-57 -9 -107 -31t-98 -61t-83 -104.5t-50 -151.5q-8 -66 -8 -90q0 -118 60 -189t159 -94zM535 72q37 0 55 20t24 60l15 77q-112 11 -197 40.5t-132.5 67 t-77 85.5t-39 88.5t-9.5 83.5t6 70q9 50 35 101.5t75.5 105.5t115.5 98.5t163 78.5t211 48l15 73q2 12 2 31q0 51 -54 51h-53q-26 0 -43 6.5t-14 18.5l4 31l25 18q202 -4 282 -4l291 4l16 -18l-6 -31q-3 -25 -63 -25h-54q-36 0 -54.5 -20.5t-26.5 -61.5l-13 -71 q209 -24 330 -124.5t121 -240.5q0 -28 -6 -55q-28 -155 -193 -285.5t-403 -161.5l-15 -79q-4 -20 -4 -29q0 -27 13 -39t43 -12h53q26 0 42 -6.5t15 -18.5l-6 -31l-23 -18q-204 4 -282 4l-293 -4l-14 18l4 31q6 25 65 25h54z" />
<glyph unicode="&#x3a7;" horiz-adv-x="1574" d="M270 1270l11 51l10 2q29 0 109.5 -1t86.5 -1q3 0 70 0.5t144 1t104 0.5q6 -2 8 -2l-10 -51q0 -15 -12 -15q-74 0 -91.5 -18.5t5.5 -65.5l151 -323q15 -27 23.5 -27.5t31.5 23.5q216 225 291 327q56 84 -59 84q-13 0 -10 15l8 51l4 2q24 0 126 -1t109 -1q2 0 87.5 1 t107.5 1l2 -2l-8 -51q-4 -13 -14 -14q-3 -1 -7 -1q-69 0 -123.5 -32t-113.5 -93l-344 -346q-32 -32 -31.5 -53.5t37.5 -91.5l225 -430q72 -141 184 -141q15 0 11 -17l-9 -49l-2 -4q-110 4 -208 4l-328 -4l-4 4l8 51q4 15 14 15q87 0 98.5 14t-18.5 68l-178 354 q-21 47 -32.5 50.5t-37.5 -26.5q-172 -190 -309 -370q-22 -30 -25 -50t12 -27.5t29.5 -10t36.5 -2.5q13 0 9 -17l-9 -49l-6 -4q-229 4 -258 4l-166 -4v4l8 51q3 15 25 15q42 0 76 9.5t67.5 34.5t51.5 42.5t57 58.5l354 383q31 31 33 48.5t-20 60.5l-209 419 q-26 53 -60.5 84.5t-57 39t-44.5 7.5q-11 0 -16.5 4t-4.5 11z" />
<glyph unicode="&#x3a8;" horiz-adv-x="1456" d="M1499 1264h57q86 0 86 -29q0 -16 -65 -35q-18 -4 -31 -11.5t-33 -29.5t-37 -70.5t-30 -121.5q-23 -129 -75 -229.5t-123.5 -163t-146.5 -99t-159 -53.5l-47 -270q-2 -10 -2 -29q0 -51 55 -51h53q26 0 42.5 -6.5t13.5 -18.5l-4 -31l-25 -18q-203 4 -283 4l-290 -4l-17 18 l6 31q3 25 66 25h53q67 0 80 80l47 266q-73 12 -134 38.5t-112.5 70.5t-80.5 114.5t-29 161.5q0 45 10 117q18 105 18 163q0 37 -5 61.5t-15.5 36t-18.5 16t-20 7.5q-53 17 -53 27q0 33 90 33h63q187 -3 187 -207q0 -56 -10 -105q-17 -104 -17 -164q0 -225 142 -290l116 671 q4 24 4 29q0 28 -13 40.5t-42 12.5h-51q-27 0 -44 6.5t-16 18.5l7 31l22 18q205 -4 285 -4l291 4l14 -18l-4 -31q-6 -25 -66 -25h-53q-66 0 -82 -82l-115 -657q54 28 99 80.5t71.5 104t48 115t29 97.5t13.5 66q14 80 42 138.5t87 105.5q46 38 151 45z" />
<glyph unicode="&#x3a9;" horiz-adv-x="1468" d="M1047 244l-29 -111h151q57 0 84 21.5t50 101.5h141l-62 -256h-464q-70 0 -70 33v8l61 250q154 81 239 196.5t114 282.5q10 56 10 127q0 165 -81.5 266t-227.5 101q-91 0 -172 -40.5t-140 -109t-100 -156.5t-59 -186q-13 -76 -13 -131q0 -111 47 -192.5t148 -157.5 l-29 -250q-7 -41 -86 -41h-473l31 256h141q-2 -14 -2 -39q0 -52 20 -68t72 -16h160q2 18 5 55t5 56l31 -8q-152 56 -242 172t-90 272q0 49 8 90q14 83 54.5 164.5t108 156.5t153.5 132t199.5 91t238.5 34q139 0 247.5 -36.5t175.5 -101.5t101.5 -148.5t34.5 -182.5 q0 -47 -10 -109q-32 -178 -175 -325t-339 -209z" />
<glyph unicode="&#x3aa;" horiz-adv-x="692" d="M555 250q-11 -60 -11 -92q0 -57 29 -71.5t121 -18.5q8 -10 8 -36.5t-10 -35.5q-204 4 -307 4q-101 0 -301 -4q-8 10 -8 36.5t10 35.5q43 2 65 4t48.5 8.5t38.5 17t26.5 31t22.5 49.5t16 72l143 821q11 58 11 90q0 59 -28.5 73.5t-119.5 18.5q-8 10 -9 36t9 36 q204 -4 307 -4q102 0 302 4q8 -9 6.5 -36t-11.5 -36q-43 -2 -65 -4t-48 -8.5t-38 -17t-26 -31t-22 -49.5t-16 -72zM348 1534q0 46 32.5 78.5t78.5 32.5t78 -32.5t32 -78.5t-32 -78.5t-78 -32.5t-78.5 32.5t-32.5 78.5zM717 1534q0 46 32 78.5t78 32.5t78.5 -32.5t32.5 -78.5 t-32.5 -78.5t-78.5 -32.5t-78 32.5t-32 78.5z" />
<glyph unicode="&#x3ab;" horiz-adv-x="1263" d="M526 147l74 428l-209 558q-33 82 -56.5 102t-68.5 20h-22q-10 0 -16 4t-5 11l10 51l5 2q222 -2 249 -2l224 2l4 -2l-8 -49q-4 -17 -17 -17q-41 0 -61.5 -2t-33 -10t-11.5 -22.5t12 -40.5l184 -496l340 496q22 31 2 53t-73 22q-14 0 -9 15l9 51l4 2q155 -2 178 -2l211 2 l4 -2l-8 -49q-3 -17 -23 -17h-41q-46 0 -74 -15.5t-61 -63.5l-393 -576l-80 -453q-9 -46 12.5 -62.5t81.5 -16.5h51q7 0 11.5 -5.5t3.5 -13.5l-8 -47l-7 -4q-212 4 -288 4l-295 -4v4l8 47q3 19 16 19h54q59 0 85.5 18t34.5 61zM637 1532q0 46 32.5 78t78.5 32t78 -32t32 -78 t-32 -78.5t-78 -32.5t-78.5 32.5t-32.5 78.5zM1092 1532q0 46 32 78t78 32t78.5 -32t32.5 -78t-32.5 -78.5t-78.5 -32.5t-78 32.5t-32 78.5z" />
<glyph unicode="&#x3ac;" horiz-adv-x="1306" d="M772 911q150 0 216.5 -70t76.5 -202l201 279q82 -13 114 -13q42 0 140 10l-449 -614q-4 -50 -4 -72q0 -108 35 -108q66 0 151 125l88 -37q-76 -130 -136.5 -182t-147.5 -52q-127 0 -142 142q-155 -142 -358 -142q-187 0 -283 85.5t-96 232.5q0 76 22.5 158t71 164.5 t116.5 148t168 106.5t216 41zM911 422v72q0 84 -5.5 139t-21 105t-48 74t-82.5 24q-64 0 -118.5 -38t-89.5 -97t-60 -131t-35.5 -138t-10.5 -121q0 -70 14 -125.5t49 -94t89 -38.5q18 0 45 23t70 76t70.5 89.5t83.5 112.5q7 10 11 15zM963 1397q30 0 57 -20.5t27 -47.5v-8 q-4 -20 -19 -35l-231 -250q-12 -14 -37 -14q-11 0 -24 8.5t-13 18.5q0 12 6 24l158 293q8 16 31.5 23.5t44.5 7.5z" />
<glyph unicode="&#x3ad;" horiz-adv-x="890" d="M420 248q-6 -30 -6 -58q0 -59 30.5 -95t85.5 -36q91 0 293 119l39 -72q-73 -57 -170.5 -94t-202.5 -37q-94 0 -160.5 18.5t-101 50t-49 65t-14.5 73.5q0 24 8 60q4 20 9.5 35.5t22.5 43.5t41.5 51t70.5 50t106 47q-61 29 -90 62.5t-29 82.5q0 13 4 45q8 36 35 75.5 t74.5 81t126.5 68.5t176 27q124 0 204.5 -41t80.5 -98q0 -5 -3 -14q-6 -30 -32 -50t-51.5 -26t-51.5 -6q-53 0 -75 18t-31 51q-8 26 -14.5 43t-21.5 32.5t-34 15.5q-40 0 -84 -42.5t-65 -127.5q-11 -57 -11 -76q0 -92 86 -92q7 2 17 2q58 8 90 8q94 0 94 -37q0 -4 -2 -6 q-10 -51 -115 -51q-1 0 -55 6q-30 6 -47 6q-63 0 -110.5 -47.5t-67.5 -130.5zM866 1393q30 0 57 -20.5t27 -47.5v-8q-4 -21 -18 -35l-232 -250q-12 -14 -36 -14q-12 0 -24.5 8t-12.5 18q0 13 6 25l158 293q8 16 31 23.5t44 7.5z" />
<glyph unicode="&#x3ae;" horiz-adv-x="1138" d="M678 911l-27 -96q137 96 303 96q217 0 217 -202q0 -53 -18 -127l-133 -582q-55 -235 -55 -356q0 -46 4 -64l-54 -65l-202 100q0 93 67 385l131 567q17 80 17 129q0 101 -74 101q-60 0 -115.5 -35t-117.5 -105l-148 -630l-219 -95l-27 70l160 688q10 52 10 62q0 22 -12 22 l-111 -18l7 73q104 17 178 35q14 5 41 16.5t30 12.5q45 18 72 18h76zM999 1395q30 0 57 -20.5t27 -47.5v-8q-4 -21 -18 -35l-231 -250q-12 -14 -37 -14q-11 0 -24 8.5t-13 18.5q0 12 6 24l158 293q8 16 31 23.5t44 7.5z" />
<glyph unicode="&#x3af;" horiz-adv-x="671" d="M678 911l-172 -741q-6 -27 -6 -45q0 -27 16 -27q53 0 168 115l51 -51q-58 -77 -139 -132t-152 -55q-186 0 -186 131q0 18 8 64l121 520q12 53 12 70q0 14 -10 14q-4 0 -115 -18l7 73q104 17 178 35q14 5 41 16.5t30 12.5q45 18 72 18h76zM711 1399q30 0 57 -20.5 t27 -47.5v-8q-4 -20 -19 -35l-231 -250q-12 -14 -37 -14q-11 0 -24 8.5t-13 18.5q0 12 6 24l158 293q8 16 31.5 23.5t44.5 7.5z" />
<glyph unicode="&#x3b0;" horiz-adv-x="1085" d="M1163 512q-30 -130 -88.5 -234.5t-132 -169t-154 -99t-159.5 -34.5q-189 0 -274 74.5t-85 198.5q0 41 15 110q21 97 73 238q43 122 48 143q4 17 5.5 29t1 17.5t-2.5 5.5q-6 0 -40 -8.5t-65 -16.5l-31 -8l-6 55q45 34 137 66t160 32q47 0 75 -21t28 -59q0 -16 -2 -24 q-12 -58 -68 -199q-59 -152 -82 -256q-12 -50 -12 -96q0 -77 36.5 -123.5t114.5 -46.5q73 0 144.5 60.5t122 151t73.5 189.5q21 115 21 152q0 95 -49 106q-103 14 -103 68q0 10 2 16q8 33 47 57.5t99 24.5q176 0 176 -213q0 -74 -25 -186zM1030 1610q30 0 57 -20.5t27 -47.5 q0 -6 -2 -8q0 -19 -16 -35l-232 -250q-10 -12 -37 -12q-11 0 -22.5 7.5t-11.5 17.5q0 16 4 24l159 293q7 16 29.5 23.5t44.5 7.5zM899 1174q7 46 45 78t84 32q40 0 67 -27t27 -65q0 -3 -1 -9t-1 -9q-9 -45 -47.5 -77t-83.5 -32q-41 0 -66.5 25.5t-25.5 64.5q0 13 2 19z M526 1174q9 46 47 78t84 32q39 0 66 -26.5t27 -63.5q0 -14 -2 -20q-8 -44 -46 -76.5t-84 -32.5q-40 0 -67 26t-27 64q0 3 1 9.5t1 9.5z" />
<glyph unicode="&#x3b1;" horiz-adv-x="1306" d="M748 911q150 0 216 -69.5t76 -202.5l201 279q82 -13 115 -13q41 0 139 10l-448 -614q-5 -62 -5 -72q0 -108 35 -108q67 0 152 125l88 -37q-76 -130 -137 -182t-148 -52q-126 0 -141 142q-155 -142 -359 -142q-187 0 -282.5 85.5t-95.5 232.5q0 76 22.5 158t71 164.5 t116.5 148t168 106.5t216 41zM887 422v72q0 66 -3 112.5t-12.5 93t-26.5 74.5t-46 45t-70 17q-64 0 -118.5 -38t-89.5 -97t-59.5 -131t-35 -138t-10.5 -121q0 -70 13.5 -125.5t48.5 -94t89 -38.5q18 0 47 24.5t74 80.5t73.5 94t86.5 117z" />
<glyph unicode="&#x3b2;" horiz-adv-x="1110" d="M735 823q-1 0 -3 1t-3 1q0 -4 -2 -6zM623 1001l-201 -876l119 74q48 -158 96 -158q43 0 84.5 39t71.5 99.5t51 119t33 113.5q20 75 20 180q0 192 -98 192q-11 0 -47 -16t-70 -16q-86 0 -86 57q0 3 1 9.5t1 10.5q7 29 42 48.5t75 19.5q42 0 78 -20l26 -17q33 0 66.5 48 t53.5 101.5t32 104.5q10 48 10 82q0 68 -29 113t-80 45q-166 0 -249 -353zM57 -408l291 1260q20 86 51.5 165.5t81 156t110 132.5t143 90t175.5 34q131 0 221.5 -61.5t90.5 -172.5q0 -26 -7 -61q-46 -196 -329 -306q34 -8 65 -20t68.5 -36t64.5 -55t45.5 -80.5t18.5 -109.5 q0 -51 -14 -108q-20 -88 -64 -167t-106 -141.5t-147.5 -99.5t-180.5 -37q-87 0 -143 42.5t-72 105.5l-117 -506l-219 -94z" />
<glyph unicode="&#x3b3;" horiz-adv-x="1126" d="M1251 791q-30 -128 -175.5 -348.5t-379.5 -467.5l11 7q-4 -76 -27 -179q-6 -27 -18 -63.5t-36 -87.5t-52 -92t-69.5 -70t-86.5 -29q-61 0 -87 37t-26 90q0 32 6 56q34 134 248 358l-8 -6v35q0 414 -100 690q-18 47 -35 47q-29 0 -125 -145l-121 43q25 44 55.5 83t72 77.5 t95 61.5t111.5 23q59 0 97.5 -12t58.5 -37t28.5 -51t13.5 -68q25 -216 25 -385q0 -89 -6 -188q275 336 309 477q6 24 6 37q0 19 -12 27q-26 12 -49 39t-23 55q0 2 1 6t1 6q11 47 54.5 70.5t103.5 23.5q62 0 101.5 -28t39.5 -72q0 -3 -1 -9.5t-1 -10.5z" />
<glyph unicode="&#x3b4;" horiz-adv-x="1105" d="M799 772l-35 39q-268 -105 -328 -367q-16 -72 -16 -143q0 -107 38 -178.5t117 -71.5q29 0 58.5 8.5t67 34.5t70 67t64 112.5t52.5 164.5q10 42 10 78q0 71 -26 141t-72 115zM700 874l-24 23q-96 96 -136 153t-40 113q0 21 6 39q13 59 50 104t89 71.5t110.5 39.5t121.5 13 q149 0 240 -59.5t91 -123.5q0 -8 -2 -12q-6 -31 -32.5 -50.5t-53 -25.5t-53.5 -6q-21 0 -42 6.5t-44.5 28.5t-34.5 57q-14 53 -38.5 78t-51.5 25q-59 0 -99 -32t-55 -93v-15q0 -26 25 -61.5t46 -56t73 -70.5q74 -68 122.5 -119t94 -111.5t67 -121t21.5 -123.5q0 -46 -8 -82 q-28 -121 -93.5 -217t-151 -153.5t-178.5 -87.5t-185 -30q-172 0 -267.5 91t-95.5 237q0 52 12 107q18 76 58 142.5t90.5 114.5t115.5 89.5t125 68.5t127 49z" />
<glyph unicode="&#x3b5;" horiz-adv-x="890" d="M395 248q-6 -30 -6 -58q0 -59 30.5 -95t86.5 -36q91 0 293 119l39 -72q-73 -57 -170.5 -94t-202.5 -37q-76 0 -134.5 12.5t-94 32.5t-58 48t-31 55.5t-8.5 58.5q0 24 8 60q4 20 9.5 35.5t22.5 43.5t41.5 51t70.5 50t106 47q-61 29 -89.5 62.5t-28.5 82.5q0 13 4 45 q7 28 24 59t51 66t78.5 62.5t112 46t145.5 18.5q124 0 204.5 -41t80.5 -98q0 -8 -2 -14q-6 -30 -32 -50t-51.5 -26t-51.5 -6q-53 0 -75.5 18t-31.5 51q-8 27 -14.5 43t-21 32t-33.5 16q-41 0 -85 -42.5t-65 -127.5q-10 -52 -10 -76q0 -92 86 -92q6 2 16 2q58 8 90 8 q95 0 95 -37q0 -4 -2 -6q-10 -51 -115 -51q-1 0 -55 6q-30 6 -48 6q-63 0 -110.5 -47.5t-67.5 -130.5z" />
<glyph unicode="&#x3b6;" horiz-adv-x="1015" d="M760 1315l-33 -10q-8 -3 -27 -15.5t-47.5 -47t-38.5 -75.5v-8q0 -39 80 -39q34 0 152 15l-27 -2q166 143 264 143q99 0 99 -66q0 -6 -4 -26q-10 -42 -93.5 -75t-222.5 -50l31 2q-130 -128 -215.5 -225t-133 -172t-69.5 -128.5t-37 -119.5q-16 -62 -16 -111q0 -75 51 -115 t180 -40q133 0 205 -53t72 -150q0 -38 -8 -74q-9 -38 -28.5 -75.5t-59 -77.5t-93 -69.5t-137 -49t-184.5 -19.5q-49 0 -93 9.5t-77 33.5t-33 58q0 12 2 18q8 36 42 57t91 21q50 0 72 -12t37 -37q31 -52 67 -52q108 0 161 49t75 144q4 12 4 35q0 82 -127 82q-102 0 -179.5 14 t-126.5 38t-80 59.5t-43.5 75.5t-12.5 89q0 59 16 131q32 138 145 280.5t371 375.5q-86 -7 -125 -7q-215 0 -215 105q0 5 4 29q21 86 355 198z" />
<glyph unicode="&#x3b7;" horiz-adv-x="1148" d="M653 911l-26 -96q137 96 303 96q217 0 217 -202q0 -49 -19 -127l-133 -582q-55 -235 -55 -356q0 -46 4 -64l-53 -65l-203 100q0 89 68 385l131 567q16 75 16 129q0 101 -74 101q-60 0 -115.5 -35t-117.5 -105l-147 -630l-220 -95l-26 70l159 688q11 57 11 62q0 22 -13 22 q-9 0 -19 -1.5t-36 -6.5t-55 -10l6 73q104 17 178 35q14 5 43 17l29 12q45 18 72 18h75z" />
<glyph unicode="&#x3b8;" horiz-adv-x="1019" d="M874 637h-434q-34 -154 -34 -299q0 -129 30.5 -208t89.5 -79q62 0 131 87t125 219t92 280zM809 1319q-65 0 -136.5 -95.5t-124.5 -226.5t-85 -266h434q35 166 35 301q0 130 -31.5 208.5t-91.5 78.5zM217 684q40 171 112 309.5t158 224.5t177 131.5t176 45.5q57 0 110 -24 t99.5 -72.5t75 -135t28.5 -200.5q0 -126 -35 -279q-35 -152 -94 -276t-124.5 -202.5t-139.5 -132t-138.5 -76t-121.5 -22.5q-61 0 -115.5 25.5t-100.5 76.5t-73 137.5t-27 197.5q0 126 33 272z" />
<glyph unicode="&#x3b9;" horiz-adv-x="671" d="M653 911l-172 -741q-6 -27 -6 -45q0 -27 17 -27q52 0 167 115l52 -51q-58 -77 -139 -132t-152 -55q-187 0 -187 131q0 12 9 64l120 520q13 57 13 70q0 14 -10 14q-4 0 -115 -18l6 73q104 17 178 35q14 5 43 17l29 12q45 18 72 18h75z" />
<glyph unicode="&#x3ba;" horiz-adv-x="1085" d="M1202 799q-6 -35 -49.5 -66t-87.5 -31q-50 0 -78.5 22t-28.5 52q0 6 3 12q-18 -10 -148 -143l-86 -88q20 -65 56.5 -190t41.5 -140q40 -133 58 -133q-1 0 11.5 11.5t46.5 42t65 59.5q57 -64 73 -64q-104 -99 -166.5 -133.5t-134.5 -34.5q-56 0 -92.5 33.5t-62.5 122.5 q-8 28 -29.5 107.5t-38.5 136.5l-55 -58l-64 -280l-219 -94l-27 69l156 678q12 59 12 72q0 12 -6 12q-8 0 -119 -18l7 73q168 27 258 68q22 14 63 14h76l-88 -387q17 18 62.5 65.5t70.5 76.5q43 45 63.5 65.5t58 56t63.5 52t62 36t71.5 27.5t74.5 8q63 0 97 -17t34 -63 q0 -20 -4 -32z" />
<glyph unicode="&#x3bb;" horiz-adv-x="1189" d="M1196 213l18 -8q-54 -101 -127.5 -165.5t-148.5 -64.5q-94 0 -138 69t-55 216l-20 365q-178 -267 -403 -598l-220 -58l-69 31l669 877q0 14 -1 30t-2.5 36.5t-2.5 31.5q-29 315 -102 315q-55 0 -180 -84l-31 92q54 60 129 96t141 36q20 0 43 -5.5t53 -23t54.5 -45.5 t43 -78.5t23.5 -116.5l43 -608q19 -249 32 -337.5t36 -88.5q40 0 133 143z" />
<glyph unicode="&#x3bc;" horiz-adv-x="1116" d="M150 -475q-33 0 -71 33t-38 82q0 18 2 26q13 56 47 146q5 13 20.5 49.5t26 67t17.5 63.5q4 18 16 102q3 19 5 83.5t11 103.5l88 381q4 23 11.5 79.5t12.5 102.5l5 45l262 26q-27 -147 -41 -213l-92 -395q-18 -76 -18 -133q0 -90 61 -90q59 0 126 34.5t112 82.5l159 688 l248 29l-153 -660q-27 -125 -27 -147q0 -25 12 -25q23 0 44.5 18t52.5 66l61 -27q-52 -86 -110.5 -127t-157.5 -41t-123 113q-163 -113 -307 -113q-47 0 -90 19q-19 -125 -19 -191q-5 -124 -10 -147q-14 -63 -53.5 -97t-89.5 -34z" />
<glyph unicode="&#x3bd;" horiz-adv-x="1058" d="M1079 911q54 0 82.5 -25.5t28.5 -64.5q0 -16 -2 -26q-11 -44 -60 -131q-74 -136 -191 -287t-347 -402h-174q35 181 35 420q0 165 -19 277t-53 112q-57 0 -111 -61l-67 49q135 139 248 139q37 0 67 -16t51 -47.5t36 -67t25 -86t16 -92.5t11 -98q13 -117 13 -228 q0 -31 -2 -45q149 184 212.5 271t73.5 131q9 30 9 49q0 32 -23 55q-18 18 -18 51q0 23 4 33q7 31 49.5 60.5t105.5 29.5z" />
<glyph unicode="&#x3be;" horiz-adv-x="942" d="M985 1139q-15 -9 -35 -19q26 8 35 19zM713 -150q6 18 6 33q0 92 -154 92q-409 0 -409 252q0 43 10 95q19 81 85 139.5t177 103.5q-98 73 -98 168q0 26 6 53q27 121 289 244h-9q-93 0 -144.5 22t-51.5 78q0 21 2 33q11 46 101.5 93t254.5 104q-6 -46 -6 -55l2 -17l-31 -14 q-16 -7 -24 -11t-28 -16.5t-32.5 -25t-25.5 -33.5t-19 -45q0 -3 -1 -8t-1 -7q0 -28 52 -28q34 0 104 10q181 107 276 107q103 0 103 -60q0 -3 -1 -9t-1 -9q-10 -41 -91.5 -62.5t-234.5 -29.5q-123 -59 -183 -126t-81 -157q-10 -52 -10 -72q0 -55 45 -55q11 0 25 2t24 4.5 t27.5 8t25 8t28 9.5t25.5 9q79 27 115 27q82 0 82 -50q0 -10 -2 -14q-17 -86 -170 -86h-33q-2 0 -6 1t-6 1q-166 -38 -213 -49q-104 -48 -135 -176q-8 -46 -8 -64q0 -135 209 -135q134 0 213 -54t79 -159q0 -28 -10 -70q-27 -123 -147 -200.5t-299 -77.5q-185 0 -185 70 q0 3 1 8.5t1 7.5q7 32 45 51t89 19q15 0 28.5 -1.5t28.5 -6t21.5 -6.5t24.5 -9t21 -8q68 -29 95 -29q36 0 73.5 51t55.5 131z" />
<glyph unicode="&#x3bf;" horiz-adv-x="1038" d="M406 354q0 -88 16 -150t41.5 -89.5t47.5 -38t44 -10.5q57 0 102.5 39t72 96t44.5 127t24.5 127t6.5 102q0 51 -6.5 95t-21.5 84.5t-44.5 63.5t-70.5 23q-57 0 -102.5 -32t-73.5 -81.5t-47 -114t-26 -124t-7 -117.5zM147 338q0 75 21.5 153.5t67.5 153.5t109.5 133.5 t155.5 94.5t199 36q101 0 174.5 -31.5t112 -83.5t55.5 -107.5t17 -115.5q0 -118 -47.5 -228.5t-124.5 -189t-178 -126t-205 -47.5q-83 0 -149 27t-104 66.5t-62.5 90.5t-33 93.5t-8.5 80.5z" />
<glyph unicode="&#x3c0;" horiz-adv-x="1243" d="M1124 887q134 0 170 53l88 -72q-101 -125 -295 -135q-23 -74 -124 -510q-17 -80 -17 -102q0 -23 10 -23q62 0 205 121l60 -72q-33 -33 -57.5 -55t-66.5 -53t-86.5 -47.5t-88.5 -16.5q-172 0 -172 154q0 47 12 94q54 237 123 508h-197q-89 -381 -205.5 -568.5 t-283.5 -187.5q-35 0 -65 14.5t-30 47.5q0 3 1 8t1 8q7 22 40.5 53.5t86.5 43.5q18 5 34.5 15.5t44 47t54 95t61 167.5t69.5 256q-107 -6 -195 -166l-119 19q23 66 69 134t113.5 118.5t131.5 50.5h628z" />
<glyph unicode="&#x3c1;" horiz-adv-x="1148" d="M911 410q27 117 27 194q0 213 -180 213q-27 0 -51.5 -7.5t-53.5 -29.5t-54 -58.5t-50 -99.5t-45 -147l-74 -313q13 -54 58.5 -81.5t107.5 -27.5q105 0 191.5 99t123.5 258zM279 -418l-250 -90l-25 62q76 117 148 440l90 387q18 78 41 141.5t42.5 102.5t47.5 74t45 51.5 t45 40.5q77 60 176 90t190 30q173 0 275 -89t102 -232q0 -39 -10 -94q-36 -154 -133.5 -273t-231.5 -182.5t-282 -63.5q-84 0 -156 21q-6 -25 -14 -72q-4 -24 -25 -104q-34 -162 -75 -240z" />
<glyph unicode="&#x3c2;" horiz-adv-x="980" d="M152 408q20 84 76.5 171t140 162t200.5 122.5t242 47.5q147 0 217 -39t70 -90q0 -3 -1 -7.5t-1 -6.5q-11 -43 -52.5 -67.5t-105.5 -24.5q-75 0 -119 51q-26 41 -114 41q-75 0 -154 -51.5t-133 -124.5t-70 -141q-14 -68 -14 -107q0 -108 77 -153.5t246 -45.5 q134 0 185 -67q55 -71 55 -156q0 -46 -10 -82q-25 -113 -180 -207q-81 -46 -158.5 -67t-175.5 -21q-125 0 -175.5 32t-50.5 77q0 13 3 22q10 43 51 69t86 26q62 0 92 -18t39 -60q10 -49 63 -49q88 0 156.5 46.5t91.5 145.5q4 20 4 29q0 31 -19 52t-60.5 32.5t-88.5 17 t-121 8.5q-148 6 -226.5 102.5t-78.5 231.5q0 49 13 99z" />
<glyph unicode="&#x3c3;" horiz-adv-x="1216" d="M598 53q81 0 162.5 96t113.5 234q21 90 21 137q0 102 -59 182q48 27 45 33h-82q-83 0 -152.5 -27.5t-118 -76t-80.5 -110t-49 -134.5q-8 -31 -8 -78q0 -65 20 -120.5t68.5 -95.5t118.5 -40zM395 756q173 135 449 135h266q47 0 101.5 16t95.5 45l69 -59 q-125 -158 -338 -158h-53q133 -89 133 -258q0 -47 -12 -100q-7 -33 -25 -71.5t-47.5 -85t-74 -89t-100 -78.5t-131.5 -57t-161 -21q-192 0 -298.5 90.5t-106.5 243.5q0 55 12 111q22 91 80 179t141 157z" />
<glyph unicode="&#x3c4;" horiz-adv-x="948" d="M494 885h337q134 0 173 55l86 -72q-59 -75 -138.5 -106t-191.5 -31h-6q-98 -298 -150 -508q-16 -82 -16 -104q0 -21 8 -21q55 0 203 121l61 -72q-80 -82 -153.5 -127t-155.5 -45q-84 0 -128 43t-44 125q0 34 10 86q39 165 158 502h-68q-45 0 -77 -32t-97 -134l-121 25 q18 47 44 93.5t64 94.5t91 77.5t111 29.5z" />
<glyph unicode="&#x3c5;" horiz-adv-x="1085" d="M1139 512q-30 -130 -89 -234.5t-132.5 -169t-154 -99t-159.5 -34.5q-189 0 -273.5 74.5t-84.5 198.5q0 45 14 110q20 90 74 238q40 114 47 143q4 17 5.5 29t1 17.5t-2.5 5.5q-6 0 -40 -8.5t-65 -16.5l-30 -8l-6 55q45 34 137 66t160 32q46 0 74 -21t28 -59q0 -16 -2 -24 q-12 -58 -68 -199q-56 -145 -81 -256q-13 -54 -13 -96q0 -76 36.5 -123t115.5 -47q73 0 144.5 60.5t122 151t73.5 189.5q20 110 20 152q0 95 -49 106q-102 14 -102 68q0 10 2 16q8 33 46.5 57.5t98.5 24.5q176 0 176 -213q0 -78 -24 -186z" />
<glyph unicode="&#x3c6;" horiz-adv-x="1323" d="M1112 459q33 135 33 223q0 158 -103 158q-40 0 -82 -84t-79 -248l-105 -447q119 35 212 147t124 251zM487 -485l-26 69l92 400q-186 20 -281.5 110t-95.5 242q0 66 17 133q15 66 56.5 130t91.5 111t112 90t109 68t91 45l43 -65q-31 -21 -53.5 -38.5t-55 -52t-57 -73.5 t-50 -100t-42.5 -133q-20 -95 -20 -162q0 -194 151 -234l111 480q27 116 63 184.5t113 132.5q75 59 203 59q155 0 239 -92t84 -229q0 -52 -12 -101q-20 -88 -61.5 -162.5t-96 -126t-113 -91t-123 -64t-116 -38.5t-100.5 -21l-90 -394z" />
<glyph unicode="&#x3c7;" horiz-adv-x="1124" d="M483 506q-17 164 -35.5 233.5t-56.5 69.5q-32 0 -123 -43l-37 59q86 86 224 86q118 0 171.5 -95t75.5 -292q5 -47 7 -73q54 69 179.5 226t188.5 238l70 -18q123 16 168 21l-217 -242l-369 -408q5 -39 14.5 -118.5t14.5 -118.5q13 -121 25 -179t27 -78t42 -20q36 0 109 70 l63 -68q-46 -55 -108 -86.5t-115 -31.5q-58 0 -98.5 15t-67.5 41.5t-45.5 76t-29 105t-19.5 142.5l-2 27q-100 -125 -156 -197l-205 -237l-129 41l-29 39l27 30l467 508q-10 118 -31 277z" />
<glyph unicode="&#x3c8;" horiz-adv-x="1406" d="M907 1102h137l-200 -1049q59 15 111.5 49.5t89 76t66 90t46 89t25.5 76.5q10 41 10 88q0 41 -12 115q-15 77 -15 121q0 32 6 59q8 33 53 61.5t95 28.5q75 0 106 -33.5t31 -93.5q0 -40 -14 -108q-24 -103 -60 -194t-89.5 -176t-119.5 -148.5t-153.5 -108t-188.5 -59.5 q-17 -84 -47 -245.5t-36 -191.5h-275l121 433q-104 8 -180 38.5t-117 75.5t-59.5 94t-18.5 105q0 37 10 82q39 170 129 303q24 34 31 68q7 32 -2 32q-17 0 -141 -41l10 72q187 86 256 86q65 0 96 -19.5t31 -48.5q0 -3 -1 -7.5t-1 -6.5q-13 -55 -72 -160q-28 -54 -41 -81.5 t-36 -89.5t-37 -126q-7 -28 -7 -57q0 -79 42 -149.5t130 -96.5q48 173 145.5 523.5t145.5 523.5z" />
<glyph unicode="&#x3c9;" horiz-adv-x="1507" d="M1532 424q-48 -205 -181 -327t-335 -122q-177 0 -234 131q-122 -131 -313 -131q-54 0 -100.5 8.5t-88.5 28.5t-72 50.5t-47.5 77.5t-17.5 106q0 44 17 121q35 150 188 302t381 265l29 -68q-24 -11 -58.5 -36t-80 -69t-86.5 -97.5t-77.5 -128.5t-54.5 -154 q-22 -91 -22 -162q0 -86 36 -121t109 -35q57 0 109.5 51t109.5 158q-10 59 -10 119q0 69 12 115q27 125 154 125q105 0 105 -76q0 -22 -5 -37q-19 -89 -114 -244q17 -211 127 -211q190 0 274 375q12 43 12 101q0 173 -149 327l59 62q22 -11 41.5 -22t55.5 -35t65 -48 t62.5 -60t56.5 -73t38 -85.5t15 -98.5q0 -34 -10 -82z" />
<glyph unicode="&#x3ca;" horiz-adv-x="708" d="M254 1171q0 46 32.5 78.5t78.5 32.5t78 -32.5t32 -78.5t-32 -78t-78 -32t-78.5 32t-32.5 78zM623 1171q0 46 32 78.5t78 32.5t78.5 -32.5t32.5 -78.5t-32.5 -78t-78.5 -32t-78 32t-32 78zM670 911l-172 -741q-6 -27 -6 -45q0 -27 16 -27q53 0 168 115l51 -51 q-58 -77 -139 -132t-152 -55q-186 0 -186 131q0 18 8 64l121 520q12 53 12 70q0 14 -10 14q-4 0 -115 -18l6 73q107 17 179 35q14 5 41 16.5t30 12.5q45 18 72 18h76z" />
<glyph unicode="&#x3cb;" horiz-adv-x="1071" d="M510 1171q0 46 32.5 78.5t78.5 32.5t78 -32.5t32 -78.5t-32 -78t-78 -32t-78.5 32t-32.5 78zM879 1171q0 46 32 78.5t78 32.5t78.5 -32.5t32.5 -78.5t-32.5 -78t-78.5 -32t-78 32t-32 78zM1139 512q-30 -130 -89 -234.5t-132.5 -169t-154 -99t-159.5 -34.5 q-189 0 -273.5 74.5t-84.5 198.5q0 45 14 110q20 90 74 238q40 114 47 143q4 17 5.5 29t1 17.5t-2.5 5.5q-6 0 -40 -8.5t-65 -16.5l-30 -8l-6 55q45 34 137 66t160 32q46 0 74 -21t28 -59q0 -16 -2 -24q-12 -58 -68 -199q-56 -145 -81 -256q-13 -54 -13 -96q0 -76 36.5 -123 t115.5 -47q73 0 144.5 60.5t122 151t73.5 189.5q20 110 20 152q0 95 -49 106q-102 14 -102 68q0 10 2 16q8 33 46.5 57.5t98.5 24.5q176 0 176 -213q0 -78 -24 -186z" />
<glyph unicode="&#x3cc;" horiz-adv-x="1062" d="M864 1397q30 0 57 -20.5t27 -47.5v-8q-4 -21 -18 -35l-232 -250q-12 -14 -36 -14q-11 0 -24 8.5t-13 18.5q0 12 6 24l157 293q8 16 31 23.5t45 7.5zM406 354q0 -88 16 -150t41.5 -89.5t47.5 -38t44 -10.5q57 0 102.5 39t72 96t44.5 127t24.5 127t6.5 102q0 51 -6.5 95 t-21.5 84.5t-44.5 63.5t-70.5 23q-57 0 -102.5 -32t-73.5 -81.5t-47 -114t-26 -124t-7 -117.5zM147 338q0 75 21.5 153.5t67.5 153.5t109.5 133.5t155.5 94.5t199 36q101 0 174.5 -31.5t112 -83.5t55.5 -107.5t17 -115.5q0 -118 -47.5 -228.5t-124.5 -189t-178 -126 t-205 -47.5q-83 0 -149 27t-104 66.5t-62.5 90.5t-33 93.5t-8.5 80.5z" />
<glyph unicode="&#x3cd;" horiz-adv-x="1079" d="M922 1397q30 0 57 -20.5t27 -47.5v-8q-4 -20 -19 -35l-231 -250q-12 -14 -37 -14q-11 0 -24 8.5t-13 18.5q0 12 6 24l158 293q8 16 31 23.5t45 7.5zM1139 512q-30 -130 -89 -234.5t-132.5 -169t-154 -99t-159.5 -34.5q-189 0 -273.5 74.5t-84.5 198.5q0 45 14 110 q20 90 74 238q40 114 47 143q4 17 5.5 29t1 17.5t-2.5 5.5q-6 0 -40 -8.5t-65 -16.5l-30 -8l-6 55q45 34 137 66t160 32q46 0 74 -21t28 -59q0 -16 -2 -24q-12 -58 -68 -199q-56 -145 -81 -256q-13 -54 -13 -96q0 -76 36.5 -123t115.5 -47q73 0 144.5 60.5t122 151 t73.5 189.5q20 110 20 152q0 95 -49 106q-102 14 -102 68q0 10 2 16q8 33 46.5 57.5t98.5 24.5q176 0 176 -213q0 -78 -24 -186z" />
<glyph unicode="&#x3ce;" horiz-adv-x="1503" d="M1098 1401q30 0 57 -20.5t27 -47.5v-8q-4 -20 -19 -35l-231 -250q-12 -14 -37 -14q-11 0 -24 8.5t-13 18.5q0 12 6 24l158 293q8 16 31 23.5t45 7.5zM1532 424q-48 -205 -181 -327t-335 -122q-177 0 -234 131q-122 -131 -313 -131q-54 0 -100.5 8.5t-88.5 28.5t-72 50.5 t-47.5 77.5t-17.5 106q0 44 17 121q35 150 188 302t381 265l29 -68q-24 -11 -58.5 -36t-80 -69t-86.5 -97.5t-77.5 -128.5t-54.5 -154q-22 -91 -22 -162q0 -86 36 -121t109 -35q57 0 109.5 51t109.5 158q-10 59 -10 119q0 69 12 115q27 125 154 125q105 0 105 -76 q0 -22 -5 -37q-19 -89 -114 -244q17 -211 127 -211q190 0 274 375q12 43 12 101q0 173 -149 327l59 62q22 -11 41.5 -22t55.5 -35t65 -48t62.5 -60t56.5 -73t38 -85.5t15 -98.5q0 -34 -10 -82z" />
<glyph unicode="&#x3d0;" horiz-adv-x="1134" d="M969 1284q-76 0 -146 -25.5t-119.5 -62.5t-93 -87t-69 -90.5t-45.5 -82.5q257 11 395 82t162 174q4 24 4 37q0 28 -19.5 41.5t-68.5 13.5zM420 393q-12 -46 -12 -92q0 -106 53 -179t131 -73q94 0 171 106.5t114 266.5q16 72 16 119q0 98 -48.5 146t-123.5 48 q-102 0 -185.5 -99.5t-115.5 -242.5zM618 1294q89 65 203.5 100.5t218.5 35.5q106 0 168 -43t62 -115q0 -24 -6 -45q-20 -88 -99 -159t-193 -115t-243.5 -68.5t-263.5 -28.5q-28 -61 -53 -156q77 56 170.5 86.5t181.5 30.5q177 0 274 -79.5t97 -221.5q0 -50 -15 -108 q-46 -201 -197 -317t-366 -116q-185 0 -279 113.5t-94 296.5q0 82 23 190q66 286 156 443t255 276z" />
<glyph unicode="&#x3d1;" horiz-adv-x="1265" d="M696 885q27 -28 94.5 -38.5t198.5 -10.5q23 101 23 184q0 139 -52 212t-110 73q-61 0 -119.5 -66.5t-81.5 -163.5q-6 -21 -6 -49q0 -88 53 -141zM1208 551q11 57 11 72q0 50 -33 63q-30 -124 -67 -225t-91 -193.5t-120 -155.5t-155 -100t-194 -37q-85 0 -151.5 21.5 t-111 75.5t-44.5 135q0 32 10 84q31 141 31 160q0 24 -17 24l-96 -29l-6 60l47 16h-4q135 66 227 66q76 0 76 -86q0 -50 -33 -193q-10 -39 -10 -82q0 -81 38 -127.5t83 -46.5q211 0 358 641q-266 8 -404 92.5t-138 245.5q0 50 12 105q24 101 140 179.5t249 78.5 q108 0 191 -34.5t132 -94t73 -133t24 -158.5q0 -75 -14 -141q80 -6 112 -35l2 2q33 -29 33 -101q0 -65 -20 -149h-140z" />
<glyph unicode="&#x3d2;" horiz-adv-x="1167" d="M483 158l86 487q29 176 29 287q0 155 -39.5 242.5t-107.5 87.5q-99 0 -197 -70l-35 51q46 48 118.5 76.5t151.5 28.5q133 0 213 -87.5t103 -230.5q182 318 426 318q76 0 107.5 -23.5t31.5 -67.5q0 -8 -4 -32q-7 -45 -45 -74t-86 -29q-40 0 -64 21t-24 55q0 16 -12 27.5 t-19 11.5q-42 0 -101 -78.5t-110.5 -203t-73.5 -246.5l-96 -551q-4 -16 -4 -25q0 -65 100 -65h54q15 0 12 -19l-8 -47l-4 -4q-233 4 -305 4l-306 -4l-4 4l11 47q3 19 18 19h55q61 0 90.5 20.5t38.5 69.5z" />
<glyph unicode="&#x3d3;" horiz-adv-x="1167" d="M641 158l86 487q29 176 29 287q0 155 -40 242.5t-108 87.5q-98 0 -196 -70l-35 51q46 48 118.5 76.5t151.5 28.5q133 0 213 -87.5t103 -230.5q182 318 426 318q76 0 107.5 -23.5t31.5 -67.5q0 -8 -4 -32q-7 -45 -45 -74t-86 -29q-40 0 -64 21t-24 55q0 16 -12 27.5 t-19 11.5q-42 0 -101 -78.5t-110.5 -203t-73.5 -246.5l-96 -551q-4 -16 -4 -25q0 -65 100 -65h53q16 0 13 -19l-8 -47l-5 -4q-233 4 -305 4l-305 -4l-4 4l10 47q3 19 19 19h55q61 0 90.5 20.5t38.5 69.5zM336 1483q30 0 57 -20.5t27 -47.5v-8q-4 -20 -19 -35l-231 -250 q-12 -14 -37 -14q-11 0 -24 8.5t-13 18.5q0 12 6 24l158 293q8 16 31 23.5t45 7.5z" />
<glyph unicode="&#x3d4;" horiz-adv-x="1167" d="M483 158l86 487q29 176 29 287q0 155 -39.5 242.5t-107.5 87.5q-99 0 -197 -70l-35 51q46 48 118.5 76.5t151.5 28.5q133 0 213 -87.5t103 -230.5q182 318 426 318q76 0 107.5 -23.5t31.5 -67.5q0 -8 -4 -32q-7 -45 -45 -74t-86 -29q-40 0 -64 21t-24 55q0 16 -12 27.5 t-19 11.5q-42 0 -101 -78.5t-110.5 -203t-73.5 -246.5l-96 -551q-4 -16 -4 -25q0 -65 100 -65h54q15 0 12 -19l-8 -47l-4 -4q-233 4 -305 4l-306 -4l-4 4l11 47q3 19 18 19h55q61 0 90.5 20.5t38.5 69.5zM506 1536q0 46 32 78.5t78 32.5t78.5 -32.5t32.5 -78.5t-32.5 -78.5 t-78.5 -32.5t-78 32.5t-32 78.5zM961 1536q0 46 32 78.5t78 32.5t78.5 -32.5t32.5 -78.5t-32.5 -78.5t-78.5 -32.5t-78 32.5t-32 78.5z" />
<glyph unicode="&#x3d5;" horiz-adv-x="1236" d="M399 434q-16 -63 -16 -133q0 -112 55 -186q42 -51 80 -68q35 131 104.5 392t104.5 392q-70 -17 -141 -75q-142 -121 -187 -322zM895 831l-160 -786q50 15 123 76q132 104 180 313q17 72 17 137q0 112 -56 187q-47 60 -104 73zM236 100q-91 114 -91 240q0 40 13 94 q43 189 231 336q150 119 356 135q53 195 111 420h137l-84 -422q102 -6 172.5 -37.5t122.5 -95.5q88 -110 88 -238q0 -46 -12 -98q-44 -190 -231 -334q-141 -113 -330 -133q-14 -68 -41 -209t-41 -209h-252l113 420q-173 20 -262 131z" />
<glyph unicode="&#x3d6;" horiz-adv-x="1495" d="M1260 721h-627q-104 -123 -137 -275q-33 -138 -33 -235q0 -160 102 -160q124 0 166 180q9 40 12 91q12 107 21 145q35 151 160 151q96 0 96 -90q0 -30 -8 -61q-7 -34 -47 -145q-18 -43 -27 -91q-10 -39 -10 -79q0 -101 92 -101q162 0 252 395q16 66 16 127q0 79 -28 148z M1499 350q-38 -164 -174 -280q-128 -107 -330 -107q-143 0 -194 119q-109 -119 -254 -119q-203 0 -273 107q-51 74 -51 174q0 43 13 106q50 206 229 371q-49 0 -80 -25q-17 -10 -82 -114l-24 -21h-113l4 14q24 65 98 187q72 112 211 112h1204l-34 -153h-219q81 -121 81 -258 q0 -55 -12 -113z" />
<glyph unicode="&#x3d7;" horiz-adv-x="1171" d="M465 606q12 56 12 90q0 39 -20 39q-51 0 -166 -92l-45 -35l-27 35h2q-2 2 -10.5 14t-13.5 17l-11 10q0 -1 -2 -2t-2 -2v10l4 -6q179 227 322 227q137 0 137 -161q0 -62 -18 -144q-19 -78 -60 -188q4 4 56 53.5t84 79.5q94 90 157.5 164.5t83.5 115.5q39 80 174 80 q123 0 123 -71q0 -7 -4 -23q-17 -77 -231 -209l18 6q-80 -196 -115 -340q-14 -65 -14 -86q0 -38 21 -38q57 0 213 129l59 -80l-301 -379q-135 -166 -326 -166q-186 0 -186 72q0 3 1 8t1 8q22 88 133 88q99 0 133 -66q1 -2 2 -5.5t2 -4.5q15 15 29 27q61 55 139 199 q-88 27 -88 153q0 57 19 141q28 106 53 170q-68 -58 -135 -125q-192 -183 -234 -266q-37 -78 -172 -78q-123 0 -123 70q0 7 4 23q9 38 57 80t152 106l-18 -6q93 209 131 358z" />
<glyph unicode="&#x3d8;" horiz-adv-x="1503" d="M973 1264q-86 0 -165 -46t-137.5 -123t-102.5 -175t-66.5 -206t-22.5 -212q0 -208 96 -325.5t252 -117.5q105 0 198 69t155 179t97.5 245.5t35.5 270.5q0 211 -94.5 326t-245.5 115zM845 -22l-20 -115q-4 -20 -4 -27q0 -33 24 -48t77 -15h53q6 0 10.5 -5t3.5 -12l-8 -39 l-2 -4q-178 4 -258 4l-264 -4l-4 4l6 39q3 17 18 17h55q61 0 90 22.5t37 67.5l21 118q-216 26 -346.5 165.5t-130.5 359.5q0 99 27.5 201t76.5 195t123 174.5t161.5 142t197 95t225.5 34.5q161 0 291 -66t206 -191.5t76 -289.5q0 -115 -33 -229t-97.5 -216t-152.5 -182.5 t-207 -132.5t-252 -63z" />
<glyph unicode="&#x3d9;" horiz-adv-x="1038" d="M406 354q0 -88 16 -150t41.5 -89.5t47.5 -38t44 -10.5q57 0 102.5 39t72 96t44.5 127t24.5 127t6.5 102q0 51 -6.5 95t-21.5 84.5t-44.5 63.5t-70.5 23q-57 0 -102.5 -32t-73.5 -81.5t-47 -114t-26 -124t-7 -117.5zM147 338q0 75 21.5 153.5t67.5 153.5t109.5 133.5 t155.5 94.5t199 36q101 0 174.5 -31.5t112 -83.5t55.5 -107.5t17 -115.5q0 -103 -36 -200.5t-97 -172.5t-142 -129t-170 -76l-24 -102q-4 -24 -4 -34q0 -56 71 -56h39q15 0 15 -12v-4l-11 -39l-4 -4q-139 4 -219 4l-213 -4l-4 4l10 39q3 16 21 16h39q49 0 72.5 22.5 t33.5 67.5l22 91q-61 6 -111 27t-82.5 52.5t-56.5 67.5t-37 75.5t-18.5 72t-5.5 61.5z" />
<glyph unicode="&#x3da;" horiz-adv-x="1093" d="M152 752q12 69 36 139t69.5 148t104.5 137t147.5 98t192.5 39q60 0 129 -6q11 0 76 -3.5t101 -3.5q49 0 125 76l71 -55q-19 -44 -30.5 -66.5t-36 -54.5t-53 -47.5t-75.5 -27t-110 -11.5q-19 0 -38.5 1t-42.5 2.5t-36 2.5q-74 8 -104 8q-60 0 -104.5 -17t-94.5 -58 q-51 -43 -90 -124.5t-55 -168.5q-12 -86 -12 -129q0 -125 49 -191q24 -33 55 -54t72 -30t73.5 -12t83.5 -4q118 -6 194 -22t122 -62q54 -61 61 -104q4 -58 4 -78q0 -35 -6 -62q-22 -125 -113.5 -216.5t-216.5 -135t-266 -43.5t-199.5 28t-58.5 79q0 16 2 22q7 40 50.5 58 t97.5 18q13 0 25 -1t25 -4t21 -4.5t23 -7t19.5 -7t22 -8t19.5 -7.5q7 -3 26 -10.5t28 -11t23.5 -8.5t25.5 -7t22 -2q77 0 150 60t90 149q2 14 2 39q0 32 -12.5 54.5t-28.5 34.5t-48.5 20t-55 10.5t-66.5 5.5q-71 4 -115 9t-107.5 18t-110.5 40t-79 68q-90 116 -90 326 q0 78 17 174z" />
<glyph unicode="&#x3db;" horiz-adv-x="888" d="M670 762q-124 0 -216 -83.5t-124 -223.5q-13 -63 -13 -103q0 -83 35.5 -128t85.5 -56q9 -2 111 -16q118 -10 166 -37q96 -59 96 -144q0 -22 -6 -43q-20 -85 -70 -148t-121 -99.5t-152.5 -54t-174.5 -17.5q-87 0 -136 15t-49 54q0 11 2 17q7 31 45 50t89 19q47 0 122 -30 q63 -29 95 -29q61 0 104.5 38.5t61.5 115.5q6 27 6 43q0 26 -17 49q-12 14 -33 20.5t-34 8t-47 2.5q-69 0 -114 4t-103.5 27.5t-92.5 68.5q-57 73 -57 186q0 57 14 117q30 128 102.5 249t184.5 189q63 37 142.5 60.5t138.5 23.5q23 0 92 -6q46 -4 84 -4q33 0 94 53l68 -53 q-31 -54 -59.5 -82.5t-79 -45.5t-128.5 -17q-44 0 -65 6q-28 4 -47 4z" />
<glyph unicode="&#x3dc;" horiz-adv-x="1091" d="M1313 1323l-43 -403h-148q0 51 -8 117.5t-27.5 125t-44.5 58.5h-391l-76 -441h279q84 0 182 -10l-53 -297h-137l22 133q4 24 4 31q0 21 -9 29t-29 8h-279l-90 -522q-8 -33 -8 -56q0 -24 22 -24h60q16 0 28 -1.5t22 -7t9 -14.5l-8 -39l-4 -12q-195 4 -289 4l-246 -4 l-14 18l6 33q3 23 63 23h62q15 0 23.5 10t12 23t9.5 47l178 1019q6 37 6 54q0 26 -20 26h-62q-60 0 -57 23l6 31l23 20l237 -2h789z" />
<glyph unicode="&#x3dd;" horiz-adv-x="960" d="M1094 918l16 -11q-49 -91 -115.5 -136.5t-169.5 -45.5h-184h-8q-40 0 -74 -8t-61 -26t-48 -36.5t-39 -50.5t-30.5 -56.5t-26 -66t-20.5 -67.5t-19 -72q68 35 138 35h209q40 0 108 65l78 -36q-40 -86 -115.5 -139.5t-169.5 -53.5q-9 0 -84 6q-41 6 -78 6q-49 0 -84.5 -49 t-52.5 -121q-8 -27 -8 -63q0 -32 8 -98q12 -94 12 -140q0 -37 -6 -67q-9 -37 -22.5 -59.5t-40.5 -43.5q-28 -22 -88 -22q-66 0 -78 18q-23 29 -23 68q0 17 11 61l170 729q16 67 41 128.5t65.5 123t91.5 106.5t122 73t153 28q49 0 135 -8t125 -8q45 0 102 75z" />
<glyph unicode="&#x3de;" horiz-adv-x="1150" d="M721 1290q28 38 39 99q2 8 2 30h2l-2 27q-42 24 -82 24q-33 0 -139 -32l-11 57q3 1 7 2.5t13 5.5t19 8q42 21 95 37q64 21 122 21q68 0 93 -17q80 -50 86 -100q3 -29 0 -51q-14 -66 -82 -158q-324 -427 -414 -549h723l-84 -110l-465 -619q-45 -55 -45 -106v-4 q0 -6 0.5 -14t0.5 -10.5t-1 -2.5q38 -25 82 -25q38 0 141 33l10 -57q-26 -13 -36 -17q-42 -19 -99 -38q-72 -21 -123 -21q-60 0 -90 18q-80 48 -86 99q-3 28 0 43q8 47 84 149l426 570h-721l84 108z" />
<glyph unicode="&#x3df;" horiz-adv-x="1150" d="M1139 584l-600 -742l-193 6l592 734h-721l90 108l551 684l197 -2l-549 -678h723z" />
<glyph unicode="&#x3e0;" horiz-adv-x="1691" d="M1055 -233zM1055 -233l12 6q105 107 177.5 254t111.5 366q28 165 28 293q0 63 -4 94q-98 -31 -127 -51q-37 -28 -60.5 -48.5t-58.5 -65.5t-53 -93q-47 -128 -82 -334h-233q40 234 131 400q28 50 85 104t120 94q113 72 258 117q-46 143 -117 227q-74 92 -159 135t-193 46 l-111 -625h-209l105 588q-173 -63 -291 -178q-14 3 -54.5 19.5t-74.5 32.5t-35 17q304 262 690 262q208 0 343.5 -61.5t246.5 -196.5q185 -235 185 -524q0 -86 -19 -186q-34 -197 -157 -414.5t-296 -382.5q-149 105 -159 105z" />
<glyph unicode="&#x3e1;" horiz-adv-x="1062" d="M328 1110l41 4q16 2 57 2q200 0 356 -67q189 -85 265 -236q55 -126 55 -254q0 -48 -10 -108q-1 -8 -4.5 -21t-4.5 -18q-39 -171 -170 -379h-118q60 123 86 233q13 62 20 135v41q0 66 -6 115q-129 -83 -281 -186l-67 108l311 209q-4 12 -14 37q-16 39 -33 61 q-88 -60 -319 -213l-66 109l309 209q-56 56 -88 76h2q-143 90 -346 102z" />
<glyph unicode="&#x3f0;" horiz-adv-x="1089" d="M428 561q12 55 12 84q0 33 -16 33q-46 0 -152 -86l-43 -35l-28 35l-31 39l-2 -4l-2 4l2 4l2 -4q168 211 301 211q131 0 131 -150q0 -63 -16 -131q-18 -76 -51 -164q20 19 62 59t56 54q188 182 224 258q33 74 163 74q117 0 117 -66q0 -8 -4 -20q-15 -73 -215 -193l20 6 q-79 -189 -106 -313q-14 -55 -14 -86t16 -31q46 0 152 86l45 35l26 -35l31 -39q-165 -211 -301 -211q-131 0 -131 150q0 49 16 131q15 58 45 147q-40 -35 -114 -106q-181 -175 -224 -256q-33 -76 -163 -76q-117 0 -117 66q0 8 4 20q14 71 203 185l-19 -7q96 218 121 332z M1108 186l4 4v-4l-2 -4z" />
<glyph unicode="&#x3f1;" horiz-adv-x="999" d="M496 59q36 0 78 20t87 62t86 119.5t64 179.5q14 72 14 142q0 103 -34.5 171t-112.5 68q-34 0 -72 -21t-80.5 -65t-81.5 -128t-65 -195q-23 -95 -23 -162q0 -103 41.5 -147t98.5 -44zM1047 430q-50 -209 -202 -332t-366 -123q-149 0 -239 78q-4 -54 -4 -71 q0 -123 59 -174.5t213 -51.5q246 0 246 -209q0 -12 -2 -16l-129 -41q-21 113 -170 113q-203 0 -291 73t-88 252q0 149 57 408q36 155 98 269.5t138 179.5t156.5 95.5t166.5 30.5q178 0 275.5 -94t97.5 -252q0 -60 -16 -135z" />
<glyph unicode="&#x3f2;" horiz-adv-x="960" d="M430 403q-20 -94 -20 -165q0 -191 155 -191q83 0 148.5 35t156.5 125l95 -57q-79 -83 -189.5 -129t-226.5 -46q-228 0 -322 123q-73 95 -73 219q0 65 18 148q18 72 75.5 162t125.5 147q77 63 182 100t223 37q237 0 322 -174l-119 -61q-52 92 -94.5 123.5t-120.5 31.5 q-36 0 -90.5 -28t-95.5 -62q-56 -48 -86.5 -124t-63.5 -214z" />
<glyph unicode="&#x3f3;" horiz-adv-x="581" d="M401 647q19 90 19 105q0 16 -9.5 28t-27.5 13l-82 6q-9 13 -8.5 34t10.5 33q216 27 346 27q42 0 42 -43q0 -12 -4 -35.5t-8.5 -42.5t-14.5 -58.5t-14 -57.5l-42 -175q-23 -99 -38.5 -161t-39.5 -149.5t-42.5 -142.5t-45.5 -124.5t-52.5 -112.5t-59 -88t-69 -70t-78.5 -41 t-91 -16q-91 0 -161.5 30.5t-70.5 80.5q0 46 24.5 64t56.5 18q40 0 67 -18t38.5 -39.5t28.5 -39.5t38 -18q34 0 81 82t72 194q14 67 35.5 213t38.5 224zM485 1169q0 51 35 87t86 36t87 -36t36 -87t-36 -86.5t-87 -35.5t-86 35.5t-35 86.5z" />
<glyph unicode="&#x3f4;" horiz-adv-x="1503" d="M768 -25q-253 0 -411 143.5t-158 387.5q0 99 27.5 201t76.5 195t123 174.5t161.5 142t197 95t225.5 34.5q161 0 291 -66t206 -191.5t76 -289.5q0 -153 -58 -300.5t-161 -264.5t-259 -189t-337 -72zM1303 711q6 57 6 112q0 211 -94.5 326t-245.5 115q-86 0 -165 -46 t-138.5 -124t-102.5 -176t-66 -207h806zM1289 618h-807q-7 -55 -7 -116q0 -208 96 -325.5t252 -117.5q86 0 164 46t136.5 124.5t101 178t64.5 210.5z" />
<glyph unicode="&#x3f5;" horiz-adv-x="913" d="M963 741h-62q-78 66 -180 66q-89 0 -174 -68q-73 -59 -121 -219h442l-24 -104h-441q-6 -49 -6 -92q0 -113 47 -178.5t138 -65.5q100 0 254 127l53 -72q-22 -24 -49.5 -46t-75 -50.5t-114.5 -46t-142 -17.5q-180 0 -271.5 95t-91.5 245q0 57 15 119q22 97 72 179 t111 135.5t131.5 91.5t134 54.5t118.5 16.5q195 0 281 -125z" />
<glyph unicode="&#x3f6;" horiz-adv-x="913" d="M162 143l63 2q40 -34 76.5 -49.5t83.5 -15.5q61 0 102.5 12t92.5 53q86 72 133 269h-445l25 104h434v33q0 109 -44.5 182.5t-137.5 73.5q-92 0 -254 -127l-53 70q21 24 48.5 46.5t74 51t113.5 46t142 17.5q179 0 272 -96t93 -246q0 -46 -14 -118q-22 -96 -72.5 -178 t-112.5 -135.5t-132.5 -91.5t-134.5 -54.5t-118 -16.5q-202 0 -278 123z" />
<glyph unicode="&#x3f8;" horiz-adv-x="1132" d="M911 410q27 117 27 194q0 213 -180 213q-27 0 -51.5 -7.5t-53.5 -29.5t-54 -58.5t-50 -99.5t-45 -147l-74 -315q62 -59 99 -84t67 -25q105 0 191.5 99.5t123.5 259.5zM279 -418l-250 -90l-25 62q76 117 148 440l225 969q68 297 110 385l248 100l25 -64 q-74 -119 -144 -421l-22 -99q110 47 235 47q173 0 275 -89t102 -232q0 -39 -10 -94q-55 -233 -238 -377t-409 -144q-84 0 -156 21q-3 -12 -8 -36.5t-8 -35.5q-12 -60 -23 -104q-42 -176 -75 -238z" />
<glyph unicode="&#x3f9;" horiz-adv-x="1257" d="M1239 258l6 -8q-84 -113 -223 -194t-313 -81q-130 0 -234 42.5t-170 116.5t-100.5 172.5t-34.5 213.5q0 72 12 142q35 197 149 355.5t274.5 245.5t334.5 87q88 0 163.5 -19.5t120.5 -46t78.5 -57t46.5 -49t15 -25.5l-141 -98q-5 23 -29.5 56.5t-63.5 69t-98.5 60.5 t-122.5 25q-46 0 -92.5 -14.5t-102.5 -56.5t-103.5 -107.5t-90.5 -178t-69 -258.5q-17 -89 -17 -184q0 -175 69.5 -280t209.5 -105q68 0 142 25.5t135 65t109 81t81 80.5z" />
<glyph unicode="&#x3fb;" horiz-adv-x="1224" d="M856 14l133 570l-354 -555q-24 -37 -80 -37q-52 0 -61 37l-97 510l-225 -969l-117 -27l-43 31l301 1307l166 32l88 -34l99 -582q62 98 184.5 292.5t183.5 293.5l180 30l70 -39l-201 -864l-200 -57z" />
<glyph unicode="&#x3fd;" horiz-adv-x="1257" d="M403 1055l-102 98q13 22 55.5 54t106 65t153 55.5t179.5 22.5q232 0 379 -152t147 -397q0 -65 -12 -139q-25 -143 -94 -269t-169 -218.5t-232 -146t-277 -53.5q-91 0 -168 25.5t-128.5 68.5t-85 90t-53.5 99l95 84q20 -40 52.5 -82t78.5 -83.5t109.5 -68t129.5 -26.5 q85 0 158 38t123.5 97t90.5 137t62 150t35 145q25 144 25 236q0 89 -17 158t-43.5 110t-62.5 67.5t-70.5 36t-72.5 9.5q-51 0 -100 -11.5t-86.5 -30t-71.5 -41.5t-58 -45.5t-41.5 -41t-25.5 -30.5z" />
<glyph unicode="&#x3fe;" horiz-adv-x="1257" d="M1264 258l6 -8q-84 -113 -223.5 -194t-313.5 -81q-130 0 -233.5 42.5t-169.5 116.5t-100.5 172.5t-34.5 213.5q0 72 12 142q35 197 149 355.5t274.5 245.5t334.5 87q88 0 163.5 -19.5t120.5 -46t78.5 -57t46.5 -49t15 -25.5l-142 -98q-5 23 -29.5 56.5t-63 69t-98 60.5 t-122.5 25q-38 0 -76.5 -10.5t-84 -35.5t-88 -71.5t-82 -111.5t-73 -164.5t-55.5 -221.5q-16 -84 -16 -184q0 -175 69 -280t209 -105q68 0 142 25.5t135 65t109 81t81 80.5zM803 551q-53 0 -87 35t-34 82q0 48 35.5 84t85.5 36q44 0 80.5 -35.5t36.5 -84.5q0 -47 -34 -82 t-83 -35z" />
<glyph unicode="&#x3ff;" horiz-adv-x="1257" d="M428 1055l-102 98q13 22 55.5 54t105.5 65t152.5 55.5t179.5 22.5q232 0 379.5 -152t147.5 -397q0 -59 -13 -139q-25 -143 -94 -269t-169 -218.5t-232 -146t-277 -53.5q-91 0 -167.5 25.5t-128 68.5t-85 89.5t-53.5 99.5l94 84q20 -40 52.5 -82t79 -83.5t109.5 -68 t130 -26.5q85 0 158 38t123.5 97t90.5 137t62 150t35 145q24 138 24 236q0 89 -17 158t-43.5 110t-62.5 67.5t-70.5 36t-72.5 9.5q-69 0 -135 -21.5t-110.5 -53t-79 -62.5t-50.5 -53zM530 541q-53 0 -86.5 34.5t-33.5 81.5q0 48 35 84.5t85 36.5q44 0 80.5 -35.5t36.5 -85.5 q0 -47 -34 -81.5t-83 -34.5z" />
<glyph unicode="&#x2000;" horiz-adv-x="1021" />
<glyph unicode="&#x2001;" horiz-adv-x="2045" />
<glyph unicode="&#x2002;" horiz-adv-x="1021" />
<glyph unicode="&#x2003;" horiz-adv-x="2045" />
<glyph unicode="&#x2004;" horiz-adv-x="679" />
<glyph unicode="&#x2005;" horiz-adv-x="509" />
<glyph unicode="&#x2006;" horiz-adv-x="339" />
<glyph unicode="&#x2007;" horiz-adv-x="1024" />
<glyph unicode="&#x2008;" horiz-adv-x="339" />
<glyph unicode="&#x2009;" horiz-adv-x="202" />
<glyph unicode="&#x200a;" horiz-adv-x="18" />
<glyph unicode="&#x200b;" horiz-adv-x="0" />
<glyph unicode="&#x200c;" horiz-adv-x="0" />
<glyph unicode="&#x200d;" horiz-adv-x="0" />
<glyph unicode="&#x200e;" horiz-adv-x="0" />
<glyph unicode="&#x200f;" horiz-adv-x="0" />
<glyph unicode="&#x2010;" horiz-adv-x="739" d="M741 477h-458q-32 0 -49 11t-17 26v6q6 27 42 54.5t69 27.5h463q65 0 65 -35v-8q-5 -22 -43.5 -52t-71.5 -30z" />
<glyph unicode="&#x2011;" horiz-adv-x="731" d="M741 477h-458q-32 0 -49 11t-17 26v6q6 27 42 54.5t69 27.5h463q65 0 65 -35v-8q-5 -22 -43.5 -52t-71.5 -30z" />
<glyph unicode="&#x2012;" horiz-adv-x="948" d="M229 588l21 98h731l-23 -98h-729z" />
<glyph unicode="&#x2013;" horiz-adv-x="1144" d="M225 588h934l-20 -101h-934z" />
<glyph unicode="&#x2014;" horiz-adv-x="1568" d="M205 588h1401l-23 -101h-1399z" />
<glyph unicode="&#x2015;" horiz-adv-x="1939" d="M205 588h1769l-18 -101h-1772z" />
<glyph unicode="&#x2016;" horiz-adv-x="618" d="M293 -384h-168l305 2000h168zM502 -384h-168l305 2000h168z" />
<glyph unicode="&#x2017;" horiz-adv-x="1046" d="M967 -225l-19 -90h-977l19 90h977zM1012 -8l-19 -90h-979l19 90h979z" />
<glyph unicode="&#x2018;" horiz-adv-x="598" d="M492 1024q-111 0 -111 123q0 20 8 86q18 80 109.5 153t216.5 95v-70q-79 -17 -126 -55t-54 -74q-3 -9 -3 -20q0 -26 27 -31q74 -14 74 -72q0 -9 -4 -29q-9 -48 -44.5 -77t-92.5 -29z" />
<glyph unicode="&#x2019;" horiz-adv-x="598" d="M608 1436q113 0 113 -123q0 -31 -10 -86q-18 -80 -109.5 -152.5t-216.5 -93.5v68q79 17 126 55t54 74q2 8 2 20t-4 19t-9 9t-13 3q-72 14 -72 71q0 19 2 29q9 48 45 77.5t92 29.5z" />
<glyph unicode="&#x201a;" horiz-adv-x="598" d="M358 209q111 0 111 -123q0 -45 -8 -86q-18 -82 -109 -154.5t-217 -93.5v68q78 19 125.5 56.5t54.5 72.5q4 16 4 20q0 31 -28 31q-72 14 -72 74q0 16 2 28q10 47 45.5 77t91.5 30z" />
<glyph unicode="&#x201b;" horiz-adv-x="595" d="M598 1430q48 0 72 -21.5t24 -58.5q0 -7 -4 -27q-8 -47 -36 -69t-72 -29q-12 -3 -18.5 -6t-15 -15t-13.5 -33v-12q0 -34 32.5 -66.5t96.5 -50.5l-29 -67q-105 19 -166 81t-61 134q0 9 4 33q41 207 186 207z" />
<glyph unicode="&#x201c;" horiz-adv-x="819" d="M764 1026q-113 0 -113 123q0 25 11 86q16 80 107 152.5t216 95.5v-70q-78 -17 -125.5 -55t-54.5 -74q0 -3 -1 -10t-1 -10q0 -27 28 -31q70 -14 70 -72q0 -18 -2 -28q-9 -48 -44.5 -77.5t-90.5 -29.5zM442 1026q-112 0 -112 123q0 31 10 86q16 80 108 153t218 95v-70 q-78 -17 -126 -54.5t-57 -74.5q0 -3 -1 -10t-1 -10q0 -27 29 -31q72 -14 72 -72q0 -8 -4 -28q-9 -48 -45 -77.5t-91 -29.5z" />
<glyph unicode="&#x201d;" horiz-adv-x="819" d="M537 1454q110 0 110 -123q0 -42 -8 -86q-18 -81 -109.5 -154t-216.5 -94v70q78 17 126 54.5t55 72.5q4 16 4 23q0 17 -7.5 22.5t-21.5 7.5q-72 13 -72 72q0 19 2 29q9 48 45 77t93 29zM858 1454q111 0 111 -123q0 -41 -11 -86q-16 -80 -107 -153.5t-216 -94.5v70 q77 17 125 54.5t55 72.5q2 8 2 23q0 17 -6.5 22.5t-19.5 7.5q-72 13 -72 72q0 19 2 29q9 48 44.5 77t92.5 29z" />
<glyph unicode="&#x201e;" horiz-adv-x="819" d="M287 219q110 0 110 -123q0 -31 -10 -86q-16 -80 -107.5 -153.5t-216.5 -94.5v68q77 19 124.5 56.5t56.5 72.5q2 8 2 23q0 17 -7.5 22.5t-21.5 7.5q-72 14 -72 72q0 4 5 29q9 47 45 76.5t92 29.5zM606 219q113 0 113 -123q0 -31 -10 -86q-18 -80 -109 -153.5t-215 -94.5 v68q77 19 124 56.5t54 72.5q2 8 2 23q0 17 -6.5 22.5t-19.5 7.5q-72 14 -72 72q0 4 1 14t1 15q9 47 45 76.5t92 29.5z" />
<glyph unicode="&#x201f;" horiz-adv-x="819" d="M868 1427q48 0 72.5 -21t24.5 -58q0 -9 -4 -25q-10 -48 -37.5 -70.5t-71.5 -31.5q-38 -4 -47 -52v-12q0 -34 32.5 -66.5t96.5 -50.5l-29 -67q-105 18 -166 79.5t-61 135.5q0 11 4 31q41 208 186 208zM547 1427q48 0 72 -21t24 -58q0 -9 -4 -25q-8 -49 -36 -71t-73 -31 q-36 -4 -47 -52v-12q0 -34 32.5 -66.5t96.5 -50.5l-28 -67q-105 18 -166.5 79.5t-61.5 135.5q0 11 4 31q41 208 187 208z" />
<glyph unicode="&#x2020;" horiz-adv-x="1255" d="M948 1427q30 0 49 -25.5t19 -64.5q0 -20 -2 -32q-50 -238 -152 -383q153 84 355 84q39 0 64.5 -24t25.5 -60q0 -15 -2 -21q-7 -42 -45 -71t-84 -29q-204 0 -322 80q-25 -116 -25 -197q0 -112 43 -182q-152 -281 -282 -926h-37q104 508 104 786q0 75 -10 140 q114 102 170 379q-142 -80 -352 -80q-41 0 -66.5 22.5t-25.5 57.5q0 4 1 10.5t1 9.5q9 43 48 74t83 31q201 0 321 -84q-20 70 -20 161q0 102 24 222q9 48 43.5 85t73.5 37z" />
<glyph unicode="&#x2021;" horiz-adv-x="1255" d="M1305 901q-7 -42 -45 -71t-84 -29q-204 0 -322 80q-25 -116 -25 -197q0 -112 43 -182q-119 -122 -172 -379q154 80 353 80q39 0 65.5 -22.5t26.5 -57.5q0 -15 -2 -21q-9 -43 -47.5 -72.5t-83.5 -29.5q-201 0 -320 82q19 -74 19 -162q0 -96 -25 -221q-9 -48 -43 -85.5 t-72 -37.5q-30 0 -49.5 25.5t-19.5 64.5q0 21 4 33q43 226 149 383q-149 -82 -354 -82q-38 0 -64 23t-26 59q0 12 2 20q9 43 48.5 72t80.5 29q206 0 322 -80q24 117 24 203q0 114 -41 176q114 102 170 379q-142 -80 -352 -80q-41 0 -66.5 22.5t-25.5 57.5q0 4 1 10.5t1 9.5 q9 43 48 74t83 31q201 0 321 -84q-20 70 -20 161q0 102 24 222q9 48 43.5 85t73.5 37q30 0 49 -25.5t19 -64.5q0 -20 -2 -32q-50 -238 -152 -383q153 84 355 84q41 0 65.5 -23.5t24.5 -60.5q0 -15 -2 -21z" />
<glyph unicode="&#x2022;" horiz-adv-x="768" d="M223 479q21 104 116 180t196 76q90 0 150 -59.5t60 -151.5q0 -24 -6 -51q-20 -101 -108 -179.5t-203 -78.5q-93 0 -152 59t-59 152q0 26 6 53z" />
<glyph unicode="&#x2023;" horiz-adv-x="819" d="M211 172l123 606l477 -303z" />
<glyph unicode="&#x2024;" horiz-adv-x="499" d="M178 88q10 47 50.5 81t86.5 34q41 0 68 -26t27 -64q0 -17 -2 -25q-11 -46 -51 -79.5t-87 -33.5q-41 0 -67.5 26.5t-26.5 66.5q0 3 1 10t1 10z" />
<glyph unicode="&#x2025;" horiz-adv-x="919" d="M598 88q9 47 49.5 81t87.5 34q41 0 66.5 -25.5t25.5 -64.5q0 -17 -2 -25q-9 -46 -49.5 -79.5t-87.5 -33.5q-40 0 -66 26.5t-26 66.5q0 3 1 10t1 10zM178 88q10 47 50.5 81t86.5 34q41 0 68 -26t27 -64q0 -17 -2 -25q-11 -46 -51 -79.5t-87 -33.5q-41 0 -67.5 26.5 t-26.5 66.5q0 3 1 10t1 10z" />
<glyph unicode="&#x2027;" horiz-adv-x="428" d="M236 535q9 47 49 79.5t88 32.5q40 0 66 -26t26 -64q0 -14 -2 -22q-9 -47 -50 -81t-87 -34q-41 0 -68 26.5t-27 65.5q0 3 5 23z" />
<glyph unicode="&#x202f;" horiz-adv-x="319" />
<glyph unicode="&#x2030;" horiz-adv-x="2037" d="M1630 164q-8 -39 -8 -68q0 -31 9.5 -45t21.5 -14q67 0 132 97t85 192q8 27 8 53q0 63 -49 63q-55 0 -117.5 -93t-81.5 -185zM1444 193q24 121 138 224t241 103q182 0 182 -141q0 -33 -4 -49q-11 -54 -44 -116.5t-81 -120t-115 -95t-137 -37.5q-93 0 -139.5 51.5 t-46.5 128.5q0 28 6 52zM487 801q-8 -36 -8 -66q0 -59 31 -59q63 0 130.5 97.5t86.5 191.5q6 30 6 53q0 61 -49 61q-53 0 -116 -93.5t-81 -184.5zM1010 164q-9 -44 -9 -68q0 -31 9 -45t20 -14q47 0 95.5 50.5t80 115.5t43.5 123q6 30 6 53q0 63 -49 63q-54 0 -115.5 -93.5 t-80.5 -184.5zM821 193q26 122 139.5 224.5t239.5 102.5q184 0 184 -141q0 -33 -4 -49q-11 -54 -44 -116.5t-80.5 -120t-114.5 -95t-137 -37.5q-93 0 -140 51.5t-47 128.5q0 20 4 52zM1010 1059q67 0 149 26.5t154 88.5l137 -25l-1092 -1188l-137 37l909 985 q-79 -16 -157 -16q-41 0 -111 16l-2 -16q-8 -41 -30 -89t-57.5 -97.5t-78.5 -89.5t-99 -65.5t-114 -25.5q-93 0 -138.5 52t-45.5 128q0 33 4 49q26 124 140 227t239 103q54 0 98.5 -16t57.5 -35l-15 2q96 -51 189 -51z" />
<glyph unicode="&#x2031;" horiz-adv-x="2684" d="M2279 164q-8 -39 -8 -68q0 -59 29 -59q47 0 95.5 50.5t80 115.5t43.5 123q6 30 6 53q0 63 -49 63q-54 0 -116 -93.5t-81 -184.5zM2091 193q26 122 139.5 224.5t239.5 102.5q184 0 184 -141q0 -25 -6 -49q-11 -54 -43 -116.5t-80 -119.5t-115 -95t-137 -38 q-93 0 -139.5 51.5t-46.5 128.5q0 20 4 52zM1655 164q-8 -58 -8 -68q0 -59 30 -59q47 0 95.5 50.5t79.5 116t42 122.5q9 30 9 53q0 63 -50 63q-54 0 -116.5 -93.5t-81.5 -184.5zM1468 193q24 121 138 224t241 103q80 0 132.5 -32t52.5 -109q0 -21 -7 -49 q-11 -54 -43.5 -116.5t-80 -119.5t-115 -95t-137.5 -38q-91 0 -139 52t-48 128q0 28 6 52zM512 801q-8 -36 -8 -66q0 -59 31 -59q63 0 130.5 97.5t86.5 191.5q6 30 6 53q0 61 -49 61q-53 0 -116 -93.5t-81 -184.5zM1034 164q-8 -39 -8 -68q0 -31 9.5 -45t21.5 -14 q67 0 132 97t85 192q6 20 6 53q0 63 -47 63q-55 0 -117.5 -93t-81.5 -185zM848 193q24 121 138 224t241 103q182 0 182 -141q0 -33 -4 -49q-11 -54 -44 -116.5t-81 -120t-115 -95t-137 -37.5q-93 0 -139.5 51.5t-46.5 128.5q0 28 6 52zM1034 1059q69 0 151 26.5t152 88.5 l140 -25l-1092 -1188l-137 37l907 985q-79 -16 -158 -16q-42 0 -108 16l-4 -16q-11 -52 -43.5 -113.5t-80 -119.5t-115 -96t-138.5 -38q-93 0 -139.5 52t-46.5 128q0 33 4 49q26 124 140 227t239 103q53 0 97.5 -16t57.5 -35l-12 2q94 -51 186 -51z" />
<glyph unicode="&#x2032;" horiz-adv-x="559" d="M645 1432q29 0 55.5 -19.5t26.5 -46.5q0 -2 -1 -5.5t-1 -4.5q0 -19 -16 -35l-240 -250q-12 -14 -37 -14q-11 0 -23 8t-12 18q0 13 6 25l166 293q8 14 32 22.5t44 8.5z" />
<glyph unicode="&#x2033;" horiz-adv-x="716" d="M872 1436q29 0 55.5 -19.5t26.5 -46.5q0 -2 -1 -5t-1 -5q-6 -25 -16 -35l-240 -250q-12 -12 -37 -12q-13 0 -23.5 7t-10.5 17q0 13 6 25l166 293q8 16 31 23.5t44 7.5zM600 1432q30 0 56 -19.5t26 -46.5v-10q-4 -21 -18 -35l-238 -250q-14 -14 -39 -14q-11 0 -23 8 t-12 18q0 13 6 25l166 293q8 14 32 22.5t44 8.5z" />
<glyph unicode="&#x2034;" horiz-adv-x="1112" d="M1202 1432q29 0 55.5 -19.5t26.5 -46.5q0 -2 -1 -5.5t-1 -4.5q-5 -24 -16 -35l-240 -250q-12 -14 -37 -14q-11 0 -23 8t-12 18q0 11 7 25l165 293q8 14 32 22.5t44 8.5zM936 1432q30 0 56 -19.5t26 -46.5v-10q-4 -20 -19 -35l-237 -250q-14 -14 -39 -14q-11 0 -23 8 t-12 18q0 13 6 25l166 293q8 14 32 22.5t44 8.5zM670 1432q30 0 56 -19.5t26 -46.5v-10q-4 -20 -19 -35l-237 -250q-14 -14 -39 -14q-11 0 -23 8t-12 18q0 13 6 25l168 293q7 14 30.5 22.5t43.5 8.5z" />
<glyph unicode="&#x2035;" horiz-adv-x="548" d="M498 1440q20 10 39 10q15 0 28 -8q18 -9 21 -27l63 -297q2 -2 2 -6q0 -6 -12 -18q-13 -9 -21 -9q-12 0 -16 7l-156 251q-4 12 -4 19v10q9 38 56 68z" />
<glyph unicode="&#x2036;" horiz-adv-x="798" d="M471 1417q23 13 41 13q8 0 31 -9q16 -13 18 -26l66 -297v-6q0 -9 -13 -19q-8 -8 -20 -8q-10 0 -16 6l-156 252q-4 8 -4 18q0 7 2 11q6 37 51 65zM721 1427q16 13 39 13q8 0 28 -8q18 -12 21 -27l63 -297q2 -2 2 -6q0 -10 -12 -19q-11 -8 -20 -8q-14 0 -17 6l-155 252 q-7 13 -4 29q10 40 55 65z" />
<glyph unicode="&#x2037;" horiz-adv-x="1073" d="M1061 1434q18 12 39 12q10 0 30 -8q16 -13 19 -27l65 -299v-4q0 -10 -10 -18q-12 -9 -22 -9q-11 0 -17 6l-155 252q-4 8 -4 19q0 6 2 8q6 41 53 68zM776 1440q20 10 39 10q18 0 31 -8q15 -9 18 -27l66 -297q2 -4 2 -8q-4 -8 -12 -16q-14 -9 -23 -9q-11 0 -14 7l-158 251 q0 3 -1 9.5t-1 9.5v10q6 38 53 68zM522 1440q20 10 39 10q18 0 31 -8q15 -9 18 -27l66 -297v-8q0 -6 -10 -16q-18 -9 -23 -9q-9 0 -16 7l-156 251q-4 12 -4 19q0 6 2 10q6 38 53 68z" />
<glyph unicode="&#x2039;" horiz-adv-x="778" d="M793 881l-23 -111q-191 -210 -350 -330q112 -112 217 -327l-23 -111q-191 290 -366 399l14 80q245 148 531 400z" />
<glyph unicode="&#x203a;" horiz-adv-x="778" d="M139 0l25 111q171 193 350 329q-108 105 -217 328l22 111q183 -282 367 -400l-16 -80q-256 -156 -531 -399z" />
<glyph unicode="&#x203b;" horiz-adv-x="1224" d="M494 16q9 47 49.5 80t87.5 33q41 0 67.5 -25.5t26.5 -64.5q0 -7 -4 -23q-9 -46 -49.5 -80t-87.5 -34q-41 0 -66.5 26.5t-25.5 65.5q0 14 2 22zM991 459q11 47 51.5 80.5t87.5 33.5q41 0 67 -26t26 -66q0 -14 -2 -22q-9 -46 -50 -80.5t-88 -34.5q-41 0 -67.5 26.5 t-26.5 65.5q0 4 1 11.5t1 11.5zM170 461q9 47 49 80.5t86 33.5q41 0 67.5 -26t26.5 -66q0 -4 -1 -11t-1 -11q-9 -46 -49.5 -80.5t-87.5 -34.5q-41 0 -67.5 26.5t-26.5 65.5q0 7 4 23zM666 887q11 46 50.5 79t86.5 33q41 0 67.5 -25.5t26.5 -64.5q0 -14 -2 -22 q-9 -47 -50 -81t-87 -34q-41 0 -67.5 26t-26.5 66q0 3 1 11t1 12zM307 897l117 76l259 -473l456 477l86 -76l-485 -505l239 -435l-115 -74l-223 405l-385 -401l-84 74l412 431z" />
<glyph unicode="&#x203d;" horiz-adv-x="880" d="M524 1169q-6 -30 4 -55q9 -19 2 -55t-47.5 -58t-89.5 -22q-36 0 -66 24t-30 66q0 4 1 12.5t1 12.5q10 50 44.5 89.5t100.5 86.5q83 57 201 73q31 19 60 19q25 0 45 -12q148 -1 231.5 -67.5t83.5 -178.5q0 -35 -8 -68q-9 -44 -33.5 -86t-49 -70.5t-70 -64.5t-70 -53 t-74.5 -49q-31 -19 -52 -35.5t-47.5 -45.5t-45.5 -70t-29 -93l-11 -47q-7 -38 -23.5 -54t-62.5 -16q-34 0 -46.5 8.5t-12.5 28.5q0 9 4 33l10 51q24 111 72 182q13 94 19 160q7 73 9 194t19 203q1 9 5 20q-38 -28 -44 -63zM319 88q9 47 50 81t88 34q41 0 66.5 -25.5 t25.5 -64.5q0 -17 -2 -25q-9 -46 -49.5 -79.5t-87.5 -33.5q-41 0 -67 26.5t-26 66.5q0 14 2 20zM791 1226q-1 -3 -2 -7t-1 -7q-12 -59 -31.5 -116.5t-49.5 -136t-52 -144.5q-2 -7 -6 -19q3 2 8 5.5t7 5.5q66 50 101.5 100t49.5 123q8 50 8 70q0 77 -32 126z" />
<glyph unicode="&#x203e;" horiz-adv-x="917" d="M1108 1409l-21 -90h-720l18 90h723z" />
<glyph unicode="&#x2042;" horiz-adv-x="1286" d="M922 150q32 20 61 49q-5 0 -17 1t-18 1q-72 0 -108.5 12t-36.5 45q0 8 2 14q5 23 29.5 40.5t66.5 17.5q32 0 50.5 -10t39.5 -31l8 -8q0 17 -4 41q-4 36 -4 51q0 14 2 20q6 31 34.5 53.5t64.5 22.5q31 0 51 -13.5t20 -39.5q0 -11 -2 -15q-5 -23 -33 -90q-4 -9 -7 -13 t-4 -4.5t-2 -3.5t-3 -11q2 2 7 5t7 5q2 1 6 4q51 33 88 36l13 1q40 0 57 -15t17 -34v-11q-15 -69 -156 -69q-39 0 -55 -4q12 -18 41 -47q22 -20 33 -30.5t20.5 -26.5t9.5 -32q0 -2 -1 -6t-1 -6q-4 -25 -31.5 -41t-58.5 -16q-26 0 -42.5 7.5t-26 26t-13 31.5t-8.5 41 q-29 -52 -57 -79t-74 -27q-30 0 -49 14t-19 35v6q3 15 12 28.5t26.5 28t29 22.5t35.5 24zM254 150q36 26 61 49q-6 0 -17.5 1t-16.5 1q-73 0 -110.5 12t-37.5 45q0 8 2 12q3 24 28 42t68 18q32 0 51 -10t42 -31l8 -8q0 10 -2 23t-2 18q-6 27 -6 51q0 4 1 10.5t1 9.5 q6 31 34.5 53.5t63.5 22.5q72 0 72 -53v-17q-3 -12 -35 -88q-4 -10 -6.5 -14.5t-3.5 -4.5t-2.5 -4l-4.5 -12q5 5 17 13q21 15 30.5 21t30.5 13t43 7q40 0 57 -16t17 -35v-9q-15 -69 -156 -69q-37 0 -55 -4q22 -29 43 -47q21 -20 31.5 -31t20 -27t9.5 -31q0 -8 -2 -12 q-4 -25 -31.5 -41t-58.5 -16q-25 0 -42 8t-26 25.5t-13 31.5t-9 41q-29 -52 -57 -79t-74 -27q-30 0 -48.5 14t-18.5 35v6q4 19 21 38.5t34.5 32t48.5 32.5zM739 870q54 38 64 48q-12 2 -35 2q-72 0 -109.5 13t-37.5 46q0 8 2 12q3 24 28 42t68 18q10 0 18.5 -1t16.5 -4 t13 -4.5t12.5 -7t10 -7.5t11 -9t10.5 -8q0 -3 6 -9q0 17 -4 41q-4 36 -4 52q0 14 2 20q6 30 34 53t64 23q31 0 51.5 -14t20.5 -39v-17q-3 -14 -37 -88q-3 -8 -5 -12l-2.5 -5t-1.5 -2t-2 -4.5t-3 -11.5q3 2 14 13q60 39 107 39q73 0 73 -50q0 -6 -2 -8q-15 -69 -153 -69 q-20 0 -56 -4q11 -18 41 -48q22 -20 33 -30.5t21 -26.5t10 -31q0 -8 -2 -12q-4 -25 -31.5 -41t-58.5 -16q-26 0 -42.5 7.5t-26 26t-13 30.5t-8.5 40q-15 -25 -25 -39.5t-26 -31.5t-36 -25t-44 -8q-31 0 -49.5 13.5t-18.5 35.5v6q5 28 30 50.5t72 51.5z" />
<glyph unicode="&#x2044;" horiz-adv-x="139" d="M735 1231h84l-1210 -1342h-86z" />
<glyph unicode="&#x204a;" horiz-adv-x="897" d="M238 688l24 234q218 -76 400 -76q109 0 217 18l-23 -2q7 6 20 15t48.5 23.5t66.5 14.5q56 0 56 -30v-8q-5 -23 -31 -78q-110 -221 -215 -486t-155 -419l-50 -154l-154 -2l-8 26q20 59 54.5 157t130.5 341.5t180 417.5q-118 -23 -260 -23q-136 0 -301 31z" />
<glyph unicode="&#x204b;" horiz-adv-x="1282" d="M547 -293q-10 -55 -10 -78q0 -29 13.5 -39t49.5 -12h59q14 0 11 -14l-11 -43l-217 2h-241l-213 -2l8 43q4 14 14 14h62q52 2 70.5 23.5t35.5 103.5l291 1434q10 52 10 73q0 28 -14 41t-49 13h-62q-10 0 -10 14l10 43q274 -8 342 -8q60 0 169.5 4t156.5 4 q179 0 266.5 -65.5t87.5 -213.5q0 -74 -16 -147q-25 -123 -76.5 -214t-121.5 -142.5t-146.5 -76t-161.5 -24.5q-106 0 -154 25zM676 1262q-34 -2 -52 -24.5t-34 -98.5l-291 -1436q-8 -36 -8 -65q0 -62 45 -62q65 0 90 131l291 1426q8 33 8 71q0 58 -49 58z" />
<glyph unicode="&#x204f;" horiz-adv-x="499" d="M285 195q40 0 65 -24t25 -60q0 -15 -2 -21q-9 -45 -46 -76.5t-81 -31.5q-34 0 -51 14q-11 -21 -19 -55v-15q0 -35 32.5 -70t96.5 -51l-18 -41q-80 14 -131.5 63.5t-51.5 121.5q0 25 5 43q19 92 67.5 147.5t108.5 55.5zM305 727q9 47 49.5 81t87.5 34q41 0 67 -25.5 t26 -64.5q0 -13 -3 -25q-9 -46 -49.5 -79.5t-87.5 -33.5q-40 0 -66 26.5t-26 66.5q0 14 2 20z" />
<glyph unicode="&#x2070;" horiz-adv-x="679" d="M614 1343q-34 0 -63.5 -30t-49.5 -79t-33 -93t-22 -90q-16 -69 -16 -140q0 -129 66 -129q109 0 172 310q12 53 12 112q0 61 -16.5 100t-49.5 39zM483 727q-100 0 -158.5 72.5t-58.5 181.5q0 44 8 80q29 146 130.5 243t222.5 97q96 0 159.5 -54t63.5 -173q0 -54 -10 -103 q-18 -89 -58 -157.5t-90.5 -108t-103.5 -59t-105 -19.5z" />
<glyph unicode="&#x2071;" horiz-adv-x="446" d="M518 1407q43 0 63.5 -16.5t20.5 -40.5q0 -1 -1 -5t-1 -6q-5 -28 -36 -47.5t-72 -19.5q-36 0 -60 16.5t-24 40.5q0 2 1 5t1 5q6 29 35 48.5t73 19.5zM498 838q-4 -29 -2 -34t12 -5h35q17 0 30.5 -6.5t10.5 -16.5l-9 -43l-184 4q-98 -4 -180 -4l8 43q3 23 49 23h37 q10 0 15 8t10 31l45 221q7 45 12 45q-23 0 -106 -27l6 68q129 22 211 55h73z" />
<glyph unicode="&#x2074;" horiz-adv-x="679" d="M778 1268l-47 -232h107l-17 -78h-104l-25 -118q-8 -39 2 -39h33q41 0 41 -21l-10 -45l-174 2l-172 -2l10 47q6 19 47 19h37q6 0 10 7t8 32l25 118h-287l-8 23q86 81 143 201q58 118 74 217h141q-14 -77 -71 -228q-26 -65 -80 -135h104l35 178q109 52 111 54h67z" />
<glyph unicode="&#x2075;" horiz-adv-x="679" d="M604 946q2 10 2 35q0 51 -29.5 91t-97.5 40q-38 0 -131 -25l107 310h379l-29 -88h-252q-5 -15 -20.5 -56.5t-24.5 -68.5h37q66 0 115.5 -17t76 -45t39 -59t12.5 -64q0 -22 -2 -32q-21 -98 -112 -168t-209 -70q-69 0 -139 22t-70 56v6q4 22 32 35.5t58 13.5q32 0 47.5 -8 t30.5 -25q23 -34 51 -34q48 0 82 43.5t47 107.5z" />
<glyph unicode="&#x2076;" horiz-adv-x="679" d="M623 928q6 36 6 53q0 94 -72 94q-39 0 -106 -51l12 6q-1 -4 -4 -15t-4 -18q-11 -64 -11 -92q0 -64 22 -94.5t52 -30.5q76 0 105 148zM803 938q-7 -32 -28 -66.5t-56 -68.5t-90.5 -56t-120.5 -22q-42 0 -80 10t-73.5 32t-57 64t-21.5 99q0 34 9 71q13 67 53.5 131.5 t108.5 122.5t175 98t238 50l-8 -39q-246 -43 -356 -252q46 18 96 18q65 0 110.5 -16.5t66 -43.5t28.5 -51t8 -50q0 -7 -1 -18t-1 -13z" />
<glyph unicode="&#x2077;" horiz-adv-x="679" d="M481 1298q-21 0 -30.5 -11.5t-30.5 -59.5h-101l80 178h80q5 -8 19 -8h399q-115 -146 -230 -322t-196 -338h-137q85 157 182 314t166 247h-201z" />
<glyph unicode="&#x2078;" horiz-adv-x="679" d="M627 1352q-31 0 -58.5 -27t-36.5 -68q0 -3 -1 -9.5t-1 -10.5q0 -49 56 -82q5 -2 7 -3t4 -3.5t7 -5.5q68 47 80 110q2 8 2 25q0 32 -15.5 53t-43.5 21zM588 1024q-2 1 -37 18q-39 -23 -76 -60.5t-45 -78.5q-2 -10 -2 -26q0 -45 27.5 -71t56.5 -26q44 0 82.5 31.5 t48.5 85.5q4 24 4 35q0 57 -59 92zM831 1253q-17 -75 -157 -151l55 -37h-2q90 -55 90 -123q0 -14 -2 -24q-6 -28 -27 -59t-57.5 -61.5t-97 -50.5t-133.5 -20q-54 0 -102 11t-87 45t-39 87q0 21 4 33q17 87 203 180q-1 1 -3 2t-3 2q-102 52 -102 127q0 4 1 12.5t1 12.5 q15 70 94.5 115t175.5 45q77 0 134 -35.5t57 -89.5q0 -3 -1.5 -10t-1.5 -11z" />
<glyph unicode="&#x2079;" horiz-adv-x="679" d="M496 1194q-7 -42 -7 -53q0 -94 72 -94q40 0 109 51l-15 -6q7 22 9 32q10 44 10 93q0 64 -22 94t-52 30q-75 0 -104 -147zM317 1184q7 32 27.5 67t55 69.5t90 56.5t120.5 22q41 0 80 -10.5t75 -32.5t57.5 -64t21.5 -98q0 -20 -8 -74q-11 -53 -38 -104.5t-75.5 -102 t-113 -90t-155 -68t-196.5 -36.5l8 41q251 42 357 250q-49 -19 -97 -19q-53 0 -93 11.5t-62 28.5t-36 40.5t-18 42.5t-4 39q0 19 4 31z" />
<glyph unicode="&#x207a;" horiz-adv-x="679" d="M637 1085h213l-21 -100h-213l-45 -215h-147l45 215h-217l20 100h215l43 215h150z" />
<glyph unicode="&#x207b;" horiz-adv-x="679" d="M836 1085l-21 -100h-549l21 100h549z" />
<glyph unicode="&#x207c;" horiz-adv-x="679" d="M819 1044l-16 -88h-535l19 88h532zM850 1194l-19 -88h-532l16 88h535z" />
<glyph unicode="&#x207d;" horiz-adv-x="444" d="M258 1061q24 108 123 221.5t250 198.5l37 -45q-115 -98 -166.5 -179t-75.5 -196q-14 -82 -14 -123q0 -63 23 -120t79 -132l-51 -45q-213 156 -213 340q0 26 8 80z" />
<glyph unicode="&#x207e;" horiz-adv-x="444" d="M596 1065q-23 -116 -111 -218.5t-264 -201.5l-33 45q121 105 169 180.5t71 194.5q14 75 14 117q0 65 -23.5 125t-76.5 133l53 45q100 -72 153.5 -167t53.5 -192q0 -31 -6 -61z" />
<glyph unicode="&#x207f;" horiz-adv-x="679" d="M473 795q27 0 39 -9q14 9 41 9h22q10 2 15.5 10t9.5 35l49 241q8 33 8 62q0 65 -49 65q-24 0 -114 -86l8 6l-58 -288q-4 -12 -4 -29q0 -16 13 -16h20zM270 1243l31 10q84 9 160 43h76l-11 -49q74 49 150 49q151 0 151 -131q0 -29 -6 -63l-53 -262q-5 -31 -3.5 -37 t11.5 -8h12q18 0 28 -3.5t12 -7.5t1 -10l-8 -41q-110 4 -159 4q-102 0 -156 -4h-4h-6q-50 4 -158 4l-160 -4l10 43q5 19 50 19h14q10 1 14 9t10 36l64 315q6 38 12 41q-21 0 -90 -14z" />
<glyph unicode="&#x2080;" horiz-adv-x="679" d="M420 385q-34 0 -63.5 -30t-49.5 -79t-33 -93t-22 -91q-16 -69 -16 -139q0 -129 65 -129q109 0 172 309q12 74 12 115q0 137 -65 137zM289 -231q-100 0 -158.5 72.5t-58.5 183.5q0 43 8 79q29 145 130 242.5t220 97.5q97 0 161 -54.5t64 -174.5q0 -43 -12 -102 q-18 -88 -57 -156.5t-89 -108t-103 -59.5t-105 -20z" />
<glyph unicode="&#x2081;" horiz-adv-x="679" d="M293 -86l61 301q4 18 6 34.5t2.5 23.5t3 12.5t7.5 9.5q-10 -2 -160 -51l-6 69q130 45 276 123h95l-109 -522q0 -6 -1 -18t-1 -15q0 -30 17.5 -43.5t56.5 -13.5h16q17 0 14 -19l-6 -30l-6 -4q-141 4 -221 4l-191 -4l-4 4l9 30q3 19 18 19h16q50 0 73.5 21.5t33.5 68.5z " />
<glyph unicode="&#x2082;" horiz-adv-x="679" d="M242 199q-30 0 -48 18.5t-18 42.5v10q5 24 22 49.5t48 52t85.5 43.5t123.5 17q44 0 81.5 -6.5t70.5 -21.5t52 -42.5t19 -64.5q0 -13 -4 -37q-21 -93 -164 -194q-141 -96 -189.5 -139t-62.5 -83h221q28 44 53 103l89 -21l-66 -162h-504q14 70 70 124t239 188 q108 77 127 180q5 15 5 37q0 39 -20 58.5t-40 19.5q-36 0 -60.5 -16.5t-27.5 -35.5q-2 -10 -2 -22v-35q-4 -26 -38 -44.5t-62 -18.5z" />
<glyph unicode="&#x2083;" horiz-adv-x="679" d="M465 297q2 8 2 25q0 25 -11.5 37t-27.5 12q-24 0 -55.5 -17.5t-38.5 -46.5q-6 -29 -29 -52.5t-69 -23.5q-35 0 -48.5 15.5t-13.5 32.5v6q4 17 20.5 39.5t48 48.5t91 43.5t133.5 17.5q89 0 140.5 -28.5t51.5 -77.5q0 -3 -1 -10t-1 -11q-17 -71 -139 -137q55 -13 93 -50.5 t38 -94.5q0 -11 -4 -35q-21 -105 -134.5 -172.5t-254.5 -67.5q-73 0 -133 19t-60 49v6q5 26 24 45.5t46 19.5q26 0 44 -8t23.5 -15t12.5 -20q6 -15 28.5 -24.5t49.5 -9.5q14 0 34.5 7.5t47 23.5t49.5 51t33 81q2 12 2 33q0 37 -20.5 60.5t-42 30.5t-42.5 7q-17 0 -86 -14 l4 55q72 9 127.5 50t67.5 100z" />
<glyph unicode="&#x2084;" horiz-adv-x="679" d="M584 309l-47 -229h104l-14 -80h-107l-22 -117q-8 -41 2 -41h32q16 0 26 -3.5t12 -7t1 -7.5l-8 -47l-174 2l-172 -2l8 47q6 18 49 18h37q7 0 11 7.5t8 31.5l24 119h-286l-9 23q87 85 144 200q52 106 76 217h141q-18 -81 -74 -227q-30 -72 -80 -133h105l35 176 q108 51 108 53h70z" />
<glyph unicode="&#x2085;" horiz-adv-x="679" d="M410 -12q2 10 2 32q0 54 -29.5 94t-97.5 40q-38 0 -131 -27l106 311h379l-31 -88h-252q-8 -26 -23.5 -69.5t-19.5 -55.5h37q127 0 185.5 -55.5t58.5 -128.5q0 -23 -4 -35q-19 -96 -111 -165.5t-211 -69.5q-68 0 -137.5 21.5t-69.5 55.5v7q4 22 32.5 35.5t58.5 13.5 q32 0 47 -8t28 -25q29 -37 54 -37q46 0 80 45t49 109z" />
<glyph unicode="&#x2086;" horiz-adv-x="679" d="M414 -27q6 36 6 54q0 94 -72 94q-34 0 -94 -41q-1 -5 -4 -18.5t-4 -18.5q-10 -58 -10 -90q0 -64 21.5 -95.5t51.5 -31.5q41 0 67 42.5t38 104.5zM594 -16q-7 -32 -28 -67t-56 -69.5t-90.5 -56.5t-120.5 -22q-33 0 -63.5 6t-61.5 20.5t-54 37t-37.5 58.5t-14.5 82 q0 38 8 74q13 67 53.5 131.5t108.5 122.5t175 98t238 50l-8 -41q-249 -41 -356 -248q50 16 96 16q65 0 110.5 -16.5t66 -43.5t28.5 -51.5t8 -50.5q0 -8 -1 -18t-1 -12z" />
<glyph unicode="&#x2087;" horiz-adv-x="679" d="M295 338q-22 0 -33 -12.5t-31 -61.5h-100l80 180h80q5 -8 18 -8h400q-114 -145 -229 -321.5t-197 -337.5h-138q83 153 181.5 310.5t169.5 250.5h-201z" />
</font>
</defs>
</svg>
